mtllib combined.mtl
v 0.125 0.8718592167691146 -0.6584708691207961
v 0.125 0.7834708691207961 -0.7468592167691146
v 0.125 0.6066941738241592 -0.39330582617584076
v 0.125 0.5183058261758408 -0.48169417382415924
v -0.125 0.7834708691207961 -0.7468592167691146
v -0.125 0.8718592167691146 -0.6584708691207961
v -0.125 0.5183058261758408 -0.48169417382415924
v -0.125 0.6066941738241592 -0.39330582617584076
v 0.125 0.6089150429449552 -1.395526695296637
v 0.125 0.5205266952966369 -1.4839150429449552
v 0.125 0.34375 -1.1303616523516815
v 0.125 0.25536165235168157 -1.21875
v -0.125 0.5205266952966369 -1.4839150429449552
v -0.125 0.6089150429449552 -1.395526695296637
v -0.125 0.25536165235168157 -1.21875
v -0.125 0.34375 -1.1303616523516815
v 0.0625 0.8696383476483185 -0.71875
v 0.0625 0.3393082617584078 -1.2490800858899105
v 0.0625 0.78125 -0.6303616523516815
v 0.0625 0.2509199141100893 -1.1606917382415922
v -0.0625 0.3393082617584078 -1.2490800858899105
v -0.0625 0.8696383476483185 -0.71875
v -0.0625 0.2509199141100893 -1.1606917382415922
v -0.0625 0.78125 -0.6303616523516815
v 0.0625 0.5183058261758408 -0.39330582617584076
v 0.0625 0.6066941738241592 -0.48169417382415924
v 0.0625 0.25314078323088546 -0.6584708691207961
v 0.0625 0.3415291308792039 -0.7468592167691146
v -0.0625 0.6066941738241592 -0.48169417382415924
v -0.0625 0.5183058261758408 -0.39330582617584076
v -0.0625 0.3415291308792039 -0.7468592167691146
v -0.0625 0.25314078323088546 -0.6584708691207961
v 0.0625 0.796875 -1.1303616523516815
v 0.0625 0.8852633476483185 -1.21875
v 0.0625 0.5317099570550448 -1.395526695296637
v 0.0625 0.6200983047033631 -1.4839150429449552
v -0.0625 0.8852633476483185 -1.21875
v -0.0625 0.796875 -1.1303616523516815
v -0.0625 0.6200983047033631 -1.4839150429449552
v -0.0625 0.5317099570550448 -1.395526695296637
v 0.125 0.8740800858899106 -1.1606917382415922
v 0.125 0.7856917382415921 -1.2490800858899107
v 0.125 0.34375 -0.6303616523516815
v 0.125 0.25536165235168157 -0.71875
v -0.125 0.7856917382415921 -1.2490800858899107
v -0.125 0.8740800858899106 -1.1606917382415922
v -0.125 0.25536165235168157 -0.71875
v -0.125 0.34375 -0.6303616523516815
v 0.125 0.6875 0.3125
v 0.125 0.6875 -0.0625
v 0.125 0.5 0.3125
v 0.125 0.5 -0.0625
v -0.125 0.6875 -0.0625
v -0.125 0.6875 0.3125
v -0.125 0.5 -0.0625
v -0.125 0.5 0.3125
v 0.0625 0.596852180953491 0.2713331013418462
v 0.0625 0.5250990373850367 0.09810568899597993
v 0.0625 0.25039735626175846 0.41483938847875484
v 0.0625 0.17864421269330416 0.2416119761328886
v -0.0625 0.5250990373850367 0.09810568899597993
v -0.0625 0.596852180953491 0.2713331013418462
v -0.0625 0.17864421269330416 0.2416119761328886
v -0.0625 0.25039735626175846 0.41483938847875484
v 0.1875 0.6875 -0.0625
v 0.1875 0.6875 -0.1875
v 0.1875 0.4375 -0.0625
v 0.1875 0.4375 -0.1875
v -0.1875 0.6875 -0.1875
v -0.1875 0.6875 -0.0625
v -0.1875 0.4375 -0.1875
v -0.1875 0.4375 -0.0625
v 0.03125 0.659352180953491 0.14633310134184618
v 0.03125 0.5875990373850367 -0.026894311004020066
v 0.03125 0.3128973562617585 0.28983938847875484
v 0.03125 0.24114421269330416 0.1166119761328886
v -0.03125 0.5875990373850367 -0.026894311004020066
v -0.03125 0.659352180953491 0.14633310134184618
v -0.03125 0.24114421269330416 0.1166119761328886
v -0.03125 0.3128973562617585 0.28983938847875484
v 0.1875 0.75 -0.3125
v 0.1875 0.75 -0.4375
v 0.1875 0.375 -0.3125
v 0.1875 0.375 -0.4375
v -0.1875 0.75 -0.4375
v -0.1875 0.75 -0.3125
v -0.1875 0.375 -0.4375
v -0.1875 0.375 -0.3125
v 0.125 0.625 -1.5625
v 0.125 0.625 -1.6875
v 0.125 0.4375 -1.5625
v 0.125 0.4375 -1.6875
v -0.125 0.625 -1.6875
v -0.125 0.625 -1.5625
v -0.125 0.4375 -1.6875
v -0.125 0.4375 -1.5625
v 0.1875 0.75 -1.625
v 0.1875 0.75 -1.8125
v 0.1875 0.5 -1.625
v 0.1875 0.5 -1.8125
v -0.1875 0.75 -1.8125
v -0.1875 0.75 -1.625
v -0.1875 0.5 -1.8125
v -0.1875 0.5 -1.625
v -0.1875 0.5625 -1.6875
v -0.1875 0.5625 -1.875
v -0.1875 0.4375 -1.6875
v -0.1875 0.4375 -1.875
v -0.3125 0.5625 -1.875
v -0.3125 0.5625 -1.6875
v -0.3125 0.4375 -1.875
v -0.3125 0.4375 -1.6875
v 0.1875 0.5 -1.625
v 0.1875 0.5 -1.8125
v 0.1875 0.375 -1.625
v 0.1875 0.375 -1.8125
v -0.1875 0.5 -1.8125
v -0.1875 0.5 -1.625
v -0.1875 0.375 -1.8125
v -0.1875 0.375 -1.625
v 0.0625 0.875 -1.6875
v 0.0625 0.875 -1.9375
v 0.0625 0.75 -1.6875
v 0.0625 0.75 -1.9375
v -0.0625 0.875 -1.9375
v -0.0625 0.875 -1.6875
v -0.0625 0.75 -1.9375
v -0.0625 0.75 -1.6875
v -0.0625 0.875 -1.6875
v -0.0625 0.875 -2.0
v -0.0625 0.75 -1.6875
v -0.0625 0.75 -2.0
v -0.1875 0.875 -2.0
v -0.1875 0.875 -1.6875
v -0.1875 0.75 -2.0
v -0.1875 0.75 -1.6875
v 0.1875 0.875 -1.6875
v 0.1875 0.875 -1.9375
v 0.1875 0.75 -1.6875
v 0.1875 0.75 -1.9375
v 0.0625 0.875 -1.9375
v 0.0625 0.875 -1.6875
v 0.0625 0.75 -1.9375
v 0.0625 0.75 -1.6875
v 0.1875 0.75 -1.4375
v 0.1875 0.75 -1.5625
v 0.1875 0.375 -1.4375
v 0.1875 0.375 -1.5625
v -0.1875 0.75 -1.5625
v -0.1875 0.75 -1.4375
v -0.1875 0.375 -1.5625
v -0.1875 0.375 -1.4375
v 0.0625 0.8125 -0.1875
v 0.0625 0.8125 -0.3125
v 0.0625 0.3125 -0.1875
v 0.0625 0.3125 -0.3125
v -0.0625 0.8125 -0.3125
v -0.0625 0.8125 -0.1875
v -0.0625 0.3125 -0.3125
v -0.0625 0.3125 -0.1875
v 0.25 0.625 -0.1875
v 0.25 0.625 -0.3125
v 0.25 0.5 -0.1875
v 0.25 0.5 -0.3125
v -0.25 0.625 -0.3125
v -0.25 0.625 -0.1875
v -0.25 0.5 -0.3125
v -0.25 0.5 -0.1875
v -0.13258252147247768 0.7834708691207961 -0.1875
v -0.13258252147247768 0.7834708691207961 -0.3125
v 0.2209708691207961 0.4299174785275224 -0.1875
v 0.2209708691207961 0.4299174785275224 -0.3125
v -0.2209708691207961 0.6950825214724776 -0.3125
v -0.2209708691207961 0.6950825214724776 -0.1875
v 0.13258252147247768 0.3415291308792039 -0.3125
v 0.13258252147247768 0.3415291308792039 -0.1875
v 0.2209708691207961 0.6950825214724776 -0.1875
v 0.2209708691207961 0.6950825214724776 -0.3125
v -0.13258252147247768 0.3415291308792039 -0.1875
v -0.13258252147247768 0.3415291308792039 -0.3125
v 0.13258252147247768 0.7834708691207961 -0.3125
v 0.13258252147247768 0.7834708691207961 -0.1875
v -0.2209708691207961 0.4299174785275224 -0.3125
v -0.2209708691207961 0.4299174785275224 -0.1875
v -0.125 0.6875 -1.75
v -0.125 0.6875 -2.0
v -0.125 0.375 -1.75
v -0.125 0.375 -2.0
v -0.25 0.6875 -2.0
v -0.25 0.6875 -1.75
v -0.25 0.375 -2.0
v -0.25 0.375 -1.75
v 0.0 0.6875 -1.75
v 0.0 0.6875 -2.0
v 0.0 0.375 -1.75
v 0.0 0.375 -2.0
v -0.125 0.6875 -2.0
v -0.125 0.6875 -1.75
v -0.125 0.375 -2.0
v -0.125 0.375 -1.75
v 0.125 0.684375 -1.5625
v 0.125 0.684375 -1.8125
v 0.125 0.4375 -1.5625
v 0.125 0.4375 -1.8125
v -0.125 0.684375 -1.8125
v -0.125 0.684375 -1.5625
v -0.125 0.4375 -1.8125
v -0.125 0.4375 -1.5625
v 0.125 0.6875 -1.875
v 0.125 0.6875 -2.25
v 0.125 0.5625 -1.875
v 0.125 0.5625 -2.25
v 0.0 0.6875 -2.25
v 0.0 0.6875 -1.875
v 0.0 0.5625 -2.25
v 0.0 0.5625 -1.875
v 0.25 0.6875 -1.75
v 0.25 0.6875 -1.875
v 0.25 0.5 -1.75
v 0.25 0.5 -1.875
v 0.0 0.6875 -1.875
v 0.0 0.6875 -1.75
v 0.0 0.5 -1.875
v 0.0 0.5 -1.75
v 0.1875 0.6875 -1.625
v 0.1875 0.6875 -1.75
v 0.1875 0.5 -1.625
v 0.1875 0.5 -1.75
v -0.1875 0.6875 -1.75
v -0.1875 0.6875 -1.625
v -0.1875 0.5 -1.75
v -0.1875 0.5 -1.625
v 0.1875 0.75 -1.4375
v 0.1875 0.75 -1.5625
v 0.1875 0.375 -1.4375
v 0.1875 0.375 -1.5625
v -0.1875 0.75 -1.5625
v -0.1875 0.75 -1.4375
v -0.1875 0.375 -1.5625
v -0.1875 0.375 -1.4375
vn 0.0 -0.7071067811865476 -0.7071067811865475
vn 1.0 0.0 0.0
vn 0.0 0.7071067811865476 0.7071067811865475
vn -1.0 0.0 0.0
vn 0.0 0.7071067811865475 -0.7071067811865476
vn 0.0 -0.7071067811865475 0.7071067811865476
vn 0.0 -0.7071067811865476 -0.7071067811865475
vn 1.0 0.0 0.0
vn 0.0 0.7071067811865476 0.7071067811865475
vn -1.0 0.0 0.0
vn 0.0 0.7071067811865475 -0.7071067811865476
vn 0.0 -0.7071067811865475 0.7071067811865476
vn 0.0 -0.7071067811865476 -0.7071067811865475
vn 1.0 0.0 0.0
vn 0.0 0.7071067811865476 0.7071067811865475
vn -1.0 0.0 0.0
vn 0.0 0.7071067811865475 -0.7071067811865476
vn 0.0 -0.7071067811865475 0.7071067811865476
vn 0.0 0.7071067811865476 -0.7071067811865475
vn 1.0 0.0 0.0
vn 0.0 -0.7071067811865476 0.7071067811865475
vn -1.0 0.0 0.0
vn 0.0 0.7071067811865475 0.7071067811865476
vn 0.0 -0.7071067811865475 -0.7071067811865476
vn 0.0 0.7071067811865476 -0.7071067811865475
vn 1.0 0.0 0.0
vn 0.0 -0.7071067811865476 0.7071067811865475
vn -1.0 0.0 0.0
vn 0.0 0.7071067811865475 0.7071067811865476
vn 0.0 -0.7071067811865475 -0.7071067811865476
vn 0.0 -0.7071067811865476 -0.7071067811865475
vn 1.0 0.0 0.0
vn 0.0 0.7071067811865476 0.7071067811865475
vn -1.0 0.0 0.0
vn 0.0 0.7071067811865475 -0.7071067811865476
vn 0.0 -0.7071067811865475 0.7071067811865476
vn 0.0 0.0 -1.0
vn 1.0 0.0 0.0
vn 0.0 0.0 1.0
vn -1.0 0.0 0.0
vn 0.0 1.0 0.0
vn 0.0 -1.0 0.0
vn 0.0 -0.3826834323650897 -0.9238795325112867
vn 1.0 0.0 0.0
vn 0.0 0.3826834323650897 0.9238795325112867
vn -1.0 0.0 0.0
vn 0.0 0.9238795325112867 -0.3826834323650897
vn 0.0 -0.9238795325112867 0.3826834323650897
vn 0.0 0.0 -1.0
vn 1.0 0.0 0.0
vn 0.0 0.0 1.0
vn -1.0 0.0 0.0
vn 0.0 1.0 0.0
vn 0.0 -1.0 0.0
vn 0.0 -0.3826834323650897 -0.9238795325112867
vn 1.0 0.0 0.0
vn -1.0 0.0 0.0
vn 0.0 -0.9238795325112867 0.3826834323650897
vn 0.0 0.0 -1.0
vn 1.0 0.0 0.0
vn 0.0 0.0 1.0
vn -1.0 0.0 0.0
vn 0.0 1.0 0.0
vn 0.0 -1.0 0.0
vn 0.0 0.0 -1.0
vn 1.0 0.0 0.0
vn 0.0 0.0 1.0
vn -1.0 0.0 0.0
vn 0.0 1.0 0.0
vn 0.0 -1.0 0.0
vn 0.0 0.0 -1.0
vn 1.0 0.0 0.0
vn 0.0 0.0 1.0
vn -1.0 0.0 0.0
vn 0.0 1.0 0.0
vn 0.0 -1.0 0.0
vn 0.0 0.0 -1.0
vn 1.0 0.0 0.0
vn 0.0 0.0 1.0
vn -1.0 0.0 0.0
vn 0.0 1.0 0.0
vn 0.0 -1.0 0.0
vn 0.0 0.0 -1.0
vn 1.0 0.0 0.0
vn 0.0 0.0 1.0
vn -1.0 0.0 0.0
vn 0.0 1.0 0.0
vn 0.0 -1.0 0.0
vn 0.0 0.0 -1.0
vn 1.0 0.0 0.0
vn 0.0 0.0 1.0
vn -1.0 0.0 0.0
vn 0.0 1.0 0.0
vn 0.0 -1.0 0.0
vn 0.0 0.0 -1.0
vn 1.0 0.0 0.0
vn 0.0 0.0 1.0
vn -1.0 0.0 0.0
vn 0.0 1.0 0.0
vn 0.0 -1.0 0.0
vn 0.0 0.0 -1.0
vn 1.0 0.0 0.0
vn 0.0 0.0 1.0
vn -1.0 0.0 0.0
vn 0.0 1.0 0.0
vn 0.0 -1.0 0.0
vn 0.0 0.0 -1.0
vn 1.0 0.0 0.0
vn 0.0 0.0 1.0
vn -1.0 0.0 0.0
vn 0.0 1.0 0.0
vn 0.0 -1.0 0.0
vn 0.0 0.0 -1.0
vn 1.0 0.0 0.0
vn 0.0 0.0 1.0
vn -1.0 0.0 0.0
vn 0.0 1.0 0.0
vn 0.0 -1.0 0.0
vn 0.0 0.0 -1.0
vn 1.0 0.0 0.0
vn 0.0 0.0 1.0
vn -1.0 0.0 0.0
vn 0.0 1.0 0.0
vn 0.0 -1.0 0.0
vn 0.0 0.0 -1.0
vn 0.7071067811865475 0.7071067811865476 0.0
vn 0.0 0.0 1.0
vn -0.7071067811865475 -0.7071067811865476 0.0
vn -0.7071067811865476 0.7071067811865475 0.0
vn 0.7071067811865476 -0.7071067811865475 0.0
vn 0.0 0.0 -1.0
vn 0.7071067811865475 -0.7071067811865476 0.0
vn 0.0 0.0 1.0
vn -0.7071067811865475 0.7071067811865476 0.0
vn 0.7071067811865476 0.7071067811865475 0.0
vn -0.7071067811865476 -0.7071067811865475 0.0
vn 0.0 0.0 -1.0
vn 1.0 0.0 0.0
vn 0.0 0.0 1.0
vn -1.0 0.0 0.0
vn 0.0 1.0 0.0
vn 0.0 -1.0 0.0
vn 0.0 0.0 -1.0
vn 1.0 0.0 0.0
vn 0.0 0.0 1.0
vn -1.0 0.0 0.0
vn 0.0 1.0 0.0
vn 0.0 -1.0 0.0
vn 0.0 0.0 -1.0
vn 1.0 0.0 0.0
vn 0.0 0.0 1.0
vn -1.0 0.0 0.0
vn 0.0 1.0 0.0
vn 0.0 -1.0 0.0
vn 0.0 0.0 -1.0
vn 1.0 0.0 0.0
vn 0.0 0.0 1.0
vn -1.0 0.0 0.0
vn 0.0 1.0 0.0
vn 0.0 -1.0 0.0
vn 0.0 0.0 -1.0
vn 1.0 0.0 0.0
vn 0.0 0.0 1.0
vn -1.0 0.0 0.0
vn 0.0 1.0 0.0
vn 0.0 -1.0 0.0
vn 0.0 0.0 -1.0
vn 1.0 0.0 0.0
vn 0.0 0.0 1.0
vn -1.0 0.0 0.0
vn 0.0 1.0 0.0
vn 0.0 -1.0 0.0
vn 0.0 0.0 -1.0
vn 1.0 0.0 0.0
vn 0.0 0.0 1.0
vn -1.0 0.0 0.0
vn 0.0 1.0 0.0
vn 0.0 -1.0 0.0
usemtl mat_combined
o cube
vt 0.320312 0.656250
vt 0.351562 0.656250
vt 0.351562 0.750000
vt 0.320312 0.750000
f 4/1/1 7/2/1 5/3/1 2/4/1
vt 0.351562 0.656250
vt 0.367188 0.656250
vt 0.367188 0.750000
vt 0.351562 0.750000
f 3/5/2 4/6/2 2/7/2 1/8/2
vt 0.320312 0.656250
vt 0.351562 0.656250
vt 0.351562 0.750000
vt 0.320312 0.750000
f 8/9/3 3/10/3 1/11/3 6/12/3
vt 0.367188 0.750000
vt 0.351562 0.750000
vt 0.351562 0.656250
vt 0.367188 0.656250
f 7/13/4 8/14/4 6/15/4 5/16/4
vt 0.109375 0.468750
vt 0.078125 0.468750
vt 0.078125 0.437500
vt 0.109375 0.437500
f 6/17/5 1/18/5 2/19/5 5/20/5
vt 0.109375 0.468750
vt 0.078125 0.468750
vt 0.078125 0.437500
vt 0.109375 0.437500
f 7/21/6 4/22/6 3/23/6 8/24/6
vt 0.320312 0.656250
vt 0.351562 0.656250
vt 0.351562 0.750000
vt 0.320312 0.750000
f 12/25/7 15/26/7 13/27/7 10/28/7
vt 0.351562 0.656250
vt 0.367188 0.656250
vt 0.367188 0.750000
vt 0.351562 0.750000
f 11/29/8 12/30/8 10/31/8 9/32/8
vt 0.320312 0.656250
vt 0.351562 0.656250
vt 0.351562 0.750000
vt 0.320312 0.750000
f 16/33/9 11/34/9 9/35/9 14/36/9
vt 0.367188 0.750000
vt 0.351562 0.750000
vt 0.351562 0.656250
vt 0.367188 0.656250
f 15/37/10 16/38/10 14/39/10 13/40/10
vt 0.109375 0.468750
vt 0.078125 0.468750
vt 0.078125 0.437500
vt 0.109375 0.437500
f 14/41/11 9/42/11 10/43/11 13/44/11
vt 0.109375 0.468750
vt 0.078125 0.468750
vt 0.078125 0.437500
vt 0.109375 0.437500
f 15/45/12 12/46/12 11/47/12 16/48/12
vt 0.484375 0.375000
vt 0.492188 0.375000
vt 0.492188 0.390625
vt 0.484375 0.390625
f 20/49/13 23/50/13 21/51/13 18/52/13
vt 0.203125 1.000000
vt 0.203125 0.812500
vt 0.218750 0.812500
vt 0.218750 1.000000
f 19/53/14 20/54/14 18/55/14 17/56/14
vt 0.492188 0.390625
vt 0.484375 0.390625
vt 0.484375 0.375000
vt 0.492188 0.375000
f 24/57/15 19/58/15 17/59/15 22/60/15
vt 0.218750 0.812500
vt 0.218750 1.000000
vt 0.203125 1.000000
vt 0.203125 0.812500
f 23/61/16 24/62/16 22/63/16 21/64/16
vt 0.218750 1.000000
vt 0.203125 1.000000
vt 0.203125 0.812500
vt 0.218750 0.812500
f 22/65/17 17/66/17 18/67/17 21/68/17
vt 0.203125 0.812500
vt 0.218750 0.812500
vt 0.218750 1.000000
vt 0.203125 1.000000
f 23/69/18 20/70/18 19/71/18 24/72/18
vt 0.367188 0.750000
vt 0.351562 0.750000
vt 0.351562 0.656250
vt 0.367188 0.656250
f 28/73/19 31/74/19 29/75/19 26/76/19
vt 0.367188 0.750000
vt 0.351562 0.750000
vt 0.351562 0.656250
vt 0.367188 0.656250
f 27/77/20 28/78/20 26/79/20 25/80/20
vt 0.367188 0.750000
vt 0.351562 0.750000
vt 0.351562 0.656250
vt 0.367188 0.656250
f 32/81/21 27/82/21 25/83/21 30/84/21
vt 0.367188 0.750000
vt 0.351562 0.750000
vt 0.351562 0.656250
vt 0.367188 0.656250
f 31/85/22 32/86/22 30/87/22 29/88/22
vt 0.492188 0.390625
vt 0.484375 0.390625
vt 0.484375 0.375000
vt 0.492188 0.375000
f 30/89/23 25/90/23 26/91/23 29/92/23
vt 0.492188 0.390625
vt 0.484375 0.390625
vt 0.484375 0.375000
vt 0.492188 0.375000
f 31/93/24 28/94/24 27/95/24 32/96/24
vt 0.367188 0.750000
vt 0.351562 0.750000
vt 0.351562 0.656250
vt 0.367188 0.656250
f 36/97/25 39/98/25 37/99/25 34/100/25
vt 0.367188 0.750000
vt 0.351562 0.750000
vt 0.351562 0.656250
vt 0.367188 0.656250
f 35/101/26 36/102/26 34/103/26 33/104/26
vt 0.367188 0.750000
vt 0.351562 0.750000
vt 0.351562 0.656250
vt 0.367188 0.656250
f 40/105/27 35/106/27 33/107/27 38/108/27
vt 0.367188 0.750000
vt 0.351562 0.750000
vt 0.351562 0.656250
vt 0.367188 0.656250
f 39/109/28 40/110/28 38/111/28 37/112/28
vt 0.492188 0.390625
vt 0.484375 0.390625
vt 0.484375 0.375000
vt 0.492188 0.375000
f 38/113/29 33/114/29 34/115/29 37/116/29
vt 0.492188 0.390625
vt 0.484375 0.390625
vt 0.484375 0.375000
vt 0.492188 0.375000
f 39/117/30 36/118/30 35/119/30 40/120/30
vt 0.218750 0.812500
vt 0.250000 0.812500
vt 0.250000 1.000000
vt 0.218750 1.000000
f 44/121/31 47/122/31 45/123/31 42/124/31
vt 0.265625 1.000000
vt 0.250000 1.000000
vt 0.250000 0.812500
vt 0.265625 0.812500
f 43/125/32 44/126/32 42/127/32 41/128/32
vt 0.218750 0.812500
vt 0.250000 0.812500
vt 0.250000 1.000000
vt 0.218750 1.000000
f 48/129/33 43/130/33 41/131/33 46/132/33
vt 0.218750 1.000000
vt 0.203125 1.000000
vt 0.203125 0.812500
vt 0.218750 0.812500
f 47/133/34 48/134/34 46/135/34 45/136/34
vt 0.140625 0.468750
vt 0.109375 0.468750
vt 0.109375 0.437500
vt 0.140625 0.437500
f 46/137/35 41/138/35 42/139/35 45/140/35
vt 0.109375 0.437500
vt 0.140625 0.437500
vt 0.140625 0.468750
vt 0.109375 0.468750
f 47/141/36 44/142/36 43/143/36 48/144/36
vt 0.476562 0.531250
vt 0.445312 0.531250
vt 0.445312 0.484375
vt 0.476562 0.484375
f 52/145/37 55/146/37 53/147/37 50/148/37
vt 0.460938 0.484375
vt 0.507812 0.484375
vt 0.507812 0.531250
vt 0.460938 0.531250
f 51/149/38 52/150/38 50/151/38 49/152/38
vt 0.539062 0.531250
vt 0.507812 0.531250
vt 0.507812 0.484375
vt 0.539062 0.484375
f 56/153/39 51/154/39 49/155/39 54/156/39
vt 0.507812 0.531250
vt 0.460938 0.531250
vt 0.460938 0.484375
vt 0.507812 0.484375
f 55/157/40 56/158/40 54/159/40 53/160/40
vt 0.828125 0.562500
vt 0.828125 0.625000
vt 0.781250 0.625000
vt 0.781250 0.562500
f 54/161/41 49/162/41 50/163/41 53/164/41
vt 0.781250 0.625000
vt 0.781250 0.562500
vt 0.828125 0.562500
vt 0.828125 0.625000
f 55/165/42 52/166/42 51/167/42 56/168/42
vt 0.367188 0.656250
vt 0.382812 0.656250
vt 0.382812 0.750000
vt 0.367188 0.750000
f 60/169/43 63/170/43 61/171/43 58/172/43
vt 0.382812 0.656250
vt 0.406250 0.656250
vt 0.406250 0.750000
vt 0.382812 0.750000
f 59/173/44 60/174/44 58/175/44 57/176/44
vt 0.367188 0.656250
vt 0.382812 0.656250
vt 0.382812 0.750000
vt 0.367188 0.750000
f 64/177/45 59/178/45 57/179/45 62/180/45
vt 0.382812 0.656250
vt 0.406250 0.656250
vt 0.406250 0.750000
vt 0.382812 0.750000
f 63/181/46 64/182/46 62/183/46 61/184/46
vt 0.554688 0.531250
vt 0.539062 0.531250
vt 0.539062 0.484375
vt 0.554688 0.484375
f 62/185/47 57/186/47 58/187/47 61/188/47
vt 0.554688 0.484375
vt 0.570312 0.484375
vt 0.570312 0.531250
vt 0.554688 0.531250
f 63/189/48 60/190/48 59/191/48 64/192/48
vt 0.875000 0.625000
vt 0.828125 0.625000
vt 0.828125 0.562500
vt 0.875000 0.562500
f 68/193/49 71/194/49 69/195/49 66/196/49
vt 0.843750 0.562500
vt 0.859375 0.562500
vt 0.859375 0.625000
vt 0.843750 0.625000
f 67/197/50 68/198/50 66/199/50 65/200/50
vt 0.875000 0.625000
vt 0.828125 0.625000
vt 0.828125 0.562500
vt 0.875000 0.562500
f 72/201/51 67/202/51 65/203/51 70/204/51
vt 0.875000 0.625000
vt 0.859375 0.625000
vt 0.859375 0.562500
vt 0.875000 0.562500
f 71/205/52 72/206/52 70/207/52 69/208/52
vt 0.421875 0.656250
vt 0.421875 0.750000
vt 0.406250 0.750000
vt 0.406250 0.656250
f 70/209/53 65/210/53 66/211/53 69/212/53
vt 0.421875 0.750000
vt 0.421875 0.656250
vt 0.437500 0.656250
vt 0.437500 0.750000
f 71/213/54 68/214/54 67/215/54 72/216/54
vt 0.437500 0.656250
vt 0.445312 0.656250
vt 0.445312 0.750000
vt 0.437500 0.750000
f 76/217/55 79/218/55 77/219/55 74/220/55
vt 0.445312 0.656250
vt 0.468750 0.656250
vt 0.468750 0.750000
vt 0.445312 0.750000
f 75/221/56 76/222/56 74/223/56 73/224/56
vt 0.445312 0.656250
vt 0.468750 0.656250
vt 0.468750 0.750000
vt 0.445312 0.750000
f 79/225/57 80/226/57 78/227/57 77/228/57
vt 0.570312 0.484375
vt 0.578125 0.484375
vt 0.578125 0.531250
vt 0.570312 0.531250
f 79/229/58 76/230/58 75/231/58 80/232/58
o Cap
vt 0.460938 0.656250
vt 0.507812 0.656250
vt 0.507812 0.750000
vt 0.460938 0.750000
f 84/233/59 87/234/59 85/235/59 82/236/59
vt 0.187500 0.437500
vt 0.187500 0.468750
vt 0.140625 0.468750
vt 0.140625 0.437500
f 83/237/60 84/238/60 82/239/60 81/240/60
vt 0.460938 0.656250
vt 0.507812 0.656250
vt 0.507812 0.750000
vt 0.460938 0.750000
f 88/241/61 83/242/61 81/243/61 86/244/61
vt 0.187500 0.437500
vt 0.187500 0.468750
vt 0.140625 0.468750
vt 0.140625 0.437500
f 87/245/62 88/246/62 86/247/62 85/248/62
vt 0.187500 0.468750
vt 0.140625 0.468750
vt 0.140625 0.437500
vt 0.187500 0.437500
f 86/249/63 81/250/63 82/251/63 85/252/63
vt 0.140625 0.437500
vt 0.187500 0.437500
vt 0.187500 0.468750
vt 0.140625 0.468750
f 87/253/64 84/254/64 83/255/64 88/256/64
o cube
vt 0.578125 0.484375
vt 0.609375 0.484375
vt 0.609375 0.531250
vt 0.578125 0.531250
f 92/257/65 95/258/65 93/259/65 90/260/65
vt 0.609375 0.484375
vt 0.625000 0.484375
vt 0.625000 0.531250
vt 0.609375 0.531250
f 91/261/66 92/262/66 90/263/66 89/264/66
vt 0.578125 0.484375
vt 0.609375 0.484375
vt 0.609375 0.531250
vt 0.578125 0.531250
f 96/265/67 91/266/67 89/267/67 94/268/67
vt 0.609375 0.484375
vt 0.625000 0.484375
vt 0.625000 0.531250
vt 0.609375 0.531250
f 95/269/68 96/270/68 94/271/68 93/272/68
vt 0.890625 0.562500
vt 0.890625 0.625000
vt 0.875000 0.625000
vt 0.875000 0.562500
f 94/273/69 89/274/69 90/275/69 93/276/69
vt 0.875000 0.625000
vt 0.875000 0.562500
vt 0.890625 0.562500
vt 0.890625 0.625000
f 95/277/70 92/278/70 91/279/70 96/280/70
vt 0.539062 0.656250
vt 0.539062 0.750000
vt 0.507812 0.750000
vt 0.507812 0.656250
f 100/281/71 103/282/71 101/283/71 98/284/71
vt 0.890625 0.562500
vt 0.914062 0.562500
vt 0.914062 0.625000
vt 0.890625 0.625000
f 99/285/72 100/286/72 98/287/72 97/288/72
vt 0.539062 0.656250
vt 0.539062 0.750000
vt 0.507812 0.750000
vt 0.507812 0.656250
f 104/289/73 99/290/73 97/291/73 102/292/73
vt 0.890625 0.562500
vt 0.914062 0.562500
vt 0.914062 0.625000
vt 0.890625 0.625000
f 103/293/74 104/294/74 102/295/74 101/296/74
vt 0.562500 0.656250
vt 0.562500 0.750000
vt 0.539062 0.750000
vt 0.539062 0.656250
f 102/297/75 97/298/75 98/299/75 101/300/75
vt 0.539062 0.750000
vt 0.539062 0.656250
vt 0.562500 0.656250
vt 0.562500 0.750000
f 103/301/76 100/302/76 99/303/76 104/304/76
vt 0.187500 0.437500
vt 0.203125 0.437500
vt 0.203125 0.468750
vt 0.187500 0.468750
f 108/305/77 111/306/77 109/307/77 106/308/77
vt 0.640625 0.484375
vt 0.640625 0.531250
vt 0.625000 0.531250
vt 0.625000 0.484375
f 107/309/78 108/310/78 106/311/78 105/312/78
vt 0.187500 0.437500
vt 0.203125 0.437500
vt 0.203125 0.468750
vt 0.187500 0.468750
f 112/313/79 107/314/79 105/315/79 110/316/79
vt 0.640625 0.484375
vt 0.640625 0.531250
vt 0.625000 0.531250
vt 0.625000 0.484375
f 111/317/80 112/318/80 110/319/80 109/320/80
vt 0.640625 0.531250
vt 0.625000 0.531250
vt 0.625000 0.484375
vt 0.640625 0.484375
f 110/321/81 105/322/81 106/323/81 109/324/81
vt 0.625000 0.484375
vt 0.640625 0.484375
vt 0.640625 0.531250
vt 0.625000 0.531250
f 111/325/82 108/326/82 107/327/82 112/328/82
vt 0.578125 0.656250
vt 0.578125 0.750000
vt 0.562500 0.750000
vt 0.562500 0.656250
f 116/329/83 119/330/83 117/331/83 114/332/83
vt 0.203125 0.437500
vt 0.226562 0.437500
vt 0.226562 0.468750
vt 0.203125 0.468750
f 115/333/84 116/334/84 114/335/84 113/336/84
vt 0.578125 0.656250
vt 0.578125 0.750000
vt 0.562500 0.750000
vt 0.562500 0.656250
f 120/337/85 115/338/85 113/339/85 118/340/85
vt 0.203125 0.437500
vt 0.226562 0.437500
vt 0.226562 0.468750
vt 0.203125 0.468750
f 119/341/86 120/342/86 118/343/86 117/344/86
vt 0.562500 0.656250
vt 0.562500 0.750000
vt 0.539062 0.750000
vt 0.539062 0.656250
f 118/345/87 113/346/87 114/347/87 117/348/87
vt 0.539062 0.750000
vt 0.539062 0.656250
vt 0.562500 0.656250
vt 0.562500 0.750000
f 119/349/88 116/350/88 115/351/88 120/352/88
vt 0.187500 0.437500
vt 0.203125 0.437500
vt 0.203125 0.468750
vt 0.187500 0.468750
f 124/353/89 127/354/89 125/355/89 122/356/89
vt 0.226562 0.437500
vt 0.257812 0.437500
vt 0.257812 0.468750
vt 0.226562 0.468750
f 123/357/90 124/358/90 122/359/90 121/360/90
vt 0.187500 0.437500
vt 0.203125 0.437500
vt 0.203125 0.468750
vt 0.187500 0.468750
f 128/361/91 123/362/91 121/363/91 126/364/91
vt 0.226562 0.437500
vt 0.257812 0.437500
vt 0.257812 0.468750
vt 0.226562 0.468750
f 127/365/92 128/366/92 126/367/92 125/368/92
vt 0.929688 0.625000
vt 0.914062 0.625000
vt 0.914062 0.562500
vt 0.929688 0.562500
f 126/369/93 121/370/93 122/371/93 125/372/93
vt 0.929688 0.625000
vt 0.914062 0.625000
vt 0.914062 0.562500
vt 0.929688 0.562500
f 127/373/94 124/374/94 123/375/94 128/376/94
vt 0.187500 0.437500
vt 0.203125 0.437500
vt 0.203125 0.468750
vt 0.187500 0.468750
f 132/377/95 135/378/95 133/379/95 130/380/95
vt 0.257812 0.437500
vt 0.296875 0.437500
vt 0.296875 0.468750
vt 0.257812 0.468750
f 131/381/96 132/382/96 130/383/96 129/384/96
vt 0.187500 0.437500
vt 0.203125 0.437500
vt 0.203125 0.468750
vt 0.187500 0.468750
f 136/385/97 131/386/97 129/387/97 134/388/97
vt 0.617188 0.546875
vt 0.617188 0.625000
vt 0.601562 0.625000
vt 0.601562 0.546875
f 135/389/98 136/390/98 134/391/98 133/392/98
vt 0.617188 0.625000
vt 0.601562 0.625000
vt 0.601562 0.546875
vt 0.617188 0.546875
f 134/393/99 129/394/99 130/395/99 133/396/99
vt 0.632812 0.625000
vt 0.617188 0.625000
vt 0.617188 0.546875
vt 0.632812 0.546875
f 135/397/100 132/398/100 131/399/100 136/400/100
vt 0.187500 0.437500
vt 0.203125 0.437500
vt 0.203125 0.468750
vt 0.187500 0.468750
f 140/401/101 143/402/101 141/403/101 138/404/101
vt 0.929688 0.562500
vt 0.929688 0.625000
vt 0.914062 0.625000
vt 0.914062 0.562500
f 139/405/102 140/406/102 138/407/102 137/408/102
vt 0.187500 0.437500
vt 0.203125 0.437500
vt 0.203125 0.468750
vt 0.187500 0.468750
f 144/409/103 139/410/103 137/411/103 142/412/103
vt 0.226562 0.437500
vt 0.257812 0.437500
vt 0.257812 0.468750
vt 0.226562 0.468750
f 143/413/104 144/414/104 142/415/104 141/416/104
vt 0.929688 0.625000
vt 0.914062 0.625000
vt 0.914062 0.562500
vt 0.929688 0.562500
f 142/417/105 137/418/105 138/419/105 141/420/105
vt 0.929688 0.625000
vt 0.914062 0.625000
vt 0.914062 0.562500
vt 0.929688 0.562500
f 143/421/106 140/422/106 139/423/106 144/424/106
o Cap
vt 0.460938 0.656250
vt 0.507812 0.656250
vt 0.507812 0.750000
vt 0.460938 0.750000
f 148/425/107 151/426/107 149/427/107 146/428/107
vt 0.187500 0.437500
vt 0.187500 0.468750
vt 0.140625 0.468750
vt 0.140625 0.437500
f 147/429/108 148/430/108 146/431/108 145/432/108
vt 0.460938 0.656250
vt 0.507812 0.656250
vt 0.507812 0.750000
vt 0.460938 0.750000
f 152/433/109 147/434/109 145/435/109 150/436/109
vt 0.187500 0.437500
vt 0.187500 0.468750
vt 0.140625 0.468750
vt 0.140625 0.437500
f 151/437/110 152/438/110 150/439/110 149/440/110
vt 0.187500 0.468750
vt 0.140625 0.468750
vt 0.140625 0.437500
vt 0.187500 0.437500
f 150/441/111 145/442/111 146/443/111 149/444/111
vt 0.140625 0.437500
vt 0.187500 0.437500
vt 0.187500 0.468750
vt 0.140625 0.468750
f 151/445/112 148/446/112 147/447/112 152/448/112
o Cog
vt 0.632812 0.546875
vt 0.640625 0.546875
vt 0.640625 0.625000
vt 0.632812 0.625000
f 156/449/113 159/450/113 157/451/113 154/452/113
vt 0.640625 0.546875
vt 0.656250 0.546875
vt 0.656250 0.625000
vt 0.640625 0.625000
f 155/453/114 156/454/114 154/455/114 153/456/114
vt 0.656250 0.546875
vt 0.671875 0.546875
vt 0.671875 0.625000
vt 0.656250 0.625000
f 160/457/115 155/458/115 153/459/115 158/460/115
vt 0.671875 0.546875
vt 0.687500 0.546875
vt 0.687500 0.625000
vt 0.671875 0.625000
f 159/461/116 160/462/116 158/463/116 157/464/116
vt 0.304688 0.468750
vt 0.296875 0.468750
vt 0.296875 0.437500
vt 0.304688 0.437500
f 158/465/117 153/466/117 154/467/117 157/468/117
vt 0.312500 0.468750
vt 0.304688 0.468750
vt 0.304688 0.437500
vt 0.312500 0.437500
f 159/469/118 156/470/118 155/471/118 160/472/118
vt 0.632812 0.625000
vt 0.632812 0.546875
vt 0.640625 0.546875
vt 0.640625 0.625000
f 164/473/119 167/474/119 165/475/119 162/476/119
vt 0.296875 0.468750
vt 0.296875 0.437500
vt 0.304688 0.437500
vt 0.304688 0.468750
f 163/477/120 164/478/120 162/479/120 161/480/120
vt 0.671875 0.546875
vt 0.671875 0.625000
vt 0.656250 0.625000
vt 0.656250 0.546875
f 168/481/121 163/482/121 161/483/121 166/484/121
vt 0.304688 0.468750
vt 0.304688 0.437500
vt 0.312500 0.437500
vt 0.312500 0.468750
f 167/485/122 168/486/122 166/487/122 165/488/122
vt 0.687500 0.546875
vt 0.687500 0.625000
vt 0.671875 0.625000
vt 0.671875 0.546875
f 166/489/123 161/490/123 162/491/123 165/492/123
vt 0.656250 0.546875
vt 0.656250 0.625000
vt 0.640625 0.625000
vt 0.640625 0.546875
f 167/493/124 164/494/124 163/495/124 168/496/124
vt 0.640625 0.625000
vt 0.632812 0.625000
vt 0.632812 0.546875
vt 0.640625 0.546875
f 172/497/125 175/498/125 173/499/125 170/500/125
vt 0.687500 0.625000
vt 0.671875 0.625000
vt 0.671875 0.546875
vt 0.687500 0.546875
f 171/501/126 172/502/126 170/503/126 169/504/126
vt 0.671875 0.625000
vt 0.656250 0.625000
vt 0.656250 0.546875
vt 0.671875 0.546875
f 176/505/127 171/506/127 169/507/127 174/508/127
vt 0.656250 0.625000
vt 0.640625 0.625000
vt 0.640625 0.546875
vt 0.656250 0.546875
f 175/509/128 176/510/128 174/511/128 173/512/128
vt 0.304688 0.437500
vt 0.312500 0.437500
vt 0.312500 0.468750
vt 0.304688 0.468750
f 174/513/129 169/514/129 170/515/129 173/516/129
vt 0.296875 0.437500
vt 0.304688 0.437500
vt 0.304688 0.468750
vt 0.296875 0.468750
f 175/517/130 172/518/130 171/519/130 176/520/130
vt 0.640625 0.625000
vt 0.632812 0.625000
vt 0.632812 0.546875
vt 0.640625 0.546875
f 180/521/131 183/522/131 181/523/131 178/524/131
vt 0.687500 0.625000
vt 0.671875 0.625000
vt 0.671875 0.546875
vt 0.687500 0.546875
f 179/525/132 180/526/132 178/527/132 177/528/132
vt 0.671875 0.625000
vt 0.656250 0.625000
vt 0.656250 0.546875
vt 0.671875 0.546875
f 184/529/133 179/530/133 177/531/133 182/532/133
vt 0.656250 0.625000
vt 0.640625 0.625000
vt 0.640625 0.546875
vt 0.656250 0.546875
f 183/533/134 184/534/134 182/535/134 181/536/134
vt 0.304688 0.437500
vt 0.312500 0.437500
vt 0.312500 0.468750
vt 0.304688 0.468750
f 182/537/135 177/538/135 178/539/135 181/540/135
vt 0.296875 0.437500
vt 0.304688 0.437500
vt 0.304688 0.468750
vt 0.296875 0.468750
f 183/541/136 180/542/136 179/543/136 184/544/136
o cube
vt 0.703125 0.546875
vt 0.687500 0.546875
vt 0.687500 0.625000
vt 0.703125 0.625000
f 188/545/137 191/546/137 189/547/137 186/548/137
vt 0.734375 0.546875
vt 0.703125 0.546875
vt 0.703125 0.625000
vt 0.734375 0.625000
f 187/549/138 188/550/138 186/551/138 185/552/138
vt 0.750000 0.546875
vt 0.734375 0.546875
vt 0.734375 0.625000
vt 0.750000 0.625000
f 192/553/139 187/554/139 185/555/139 190/556/139
vt 0.781250 0.546875
vt 0.750000 0.546875
vt 0.750000 0.625000
vt 0.781250 0.625000
f 191/557/140 192/558/140 190/559/140 189/560/140
vt 0.929688 0.625000
vt 0.945312 0.625000
vt 0.945312 0.562500
vt 0.929688 0.562500
f 190/561/141 185/562/141 186/563/141 189/564/141
vt 0.945312 0.625000
vt 0.960938 0.625000
vt 0.960938 0.562500
vt 0.945312 0.562500
f 191/565/142 188/566/142 187/567/142 192/568/142
vt 0.703125 0.546875
vt 0.687500 0.546875
vt 0.687500 0.625000
vt 0.703125 0.625000
f 196/569/143 199/570/143 197/571/143 194/572/143
vt 0.750000 0.546875
vt 0.781250 0.546875
vt 0.781250 0.625000
vt 0.750000 0.625000
f 195/573/144 196/574/144 194/575/144 193/576/144
vt 0.750000 0.546875
vt 0.734375 0.546875
vt 0.734375 0.625000
vt 0.750000 0.625000
f 200/577/145 195/578/145 193/579/145 198/580/145
vt 0.781250 0.546875
vt 0.750000 0.546875
vt 0.750000 0.625000
vt 0.781250 0.625000
f 199/581/146 200/582/146 198/583/146 197/584/146
vt 0.929688 0.625000
vt 0.945312 0.625000
vt 0.945312 0.562500
vt 0.929688 0.562500
f 198/585/147 193/586/147 194/587/147 197/588/147
vt 0.945312 0.625000
vt 0.960938 0.625000
vt 0.960938 0.562500
vt 0.945312 0.562500
f 199/589/148 196/590/148 195/591/148 200/592/148
vt 0.609375 0.484375
vt 0.578125 0.484375
vt 0.578125 0.531250
vt 0.609375 0.531250
f 204/593/149 207/594/149 205/595/149 202/596/149
vt 0.992188 0.562500
vt 0.960938 0.562500
vt 0.960938 0.625000
vt 0.992188 0.625000
f 203/597/150 204/598/150 202/599/150 201/600/150
vt 0.609375 0.484375
vt 0.578125 0.484375
vt 0.578125 0.531250
vt 0.609375 0.531250
f 208/601/151 203/602/151 201/603/151 206/604/151
vt 0.992188 0.562500
vt 0.960938 0.562500
vt 0.960938 0.625000
vt 0.992188 0.625000
f 207/605/152 208/606/152 206/607/152 205/608/152
vt 0.031250 0.531250
vt 0.031250 0.468750
vt 0.000000 0.468750
vt 0.000000 0.531250
f 206/609/153 201/610/153 202/611/153 205/612/153
vt 0.031250 0.468750
vt 0.031250 0.531250
vt 0.062500 0.531250
vt 0.062500 0.468750
f 207/613/154 204/614/154 203/615/154 208/616/154
vt 0.328125 0.437500
vt 0.312500 0.437500
vt 0.312500 0.468750
vt 0.328125 0.468750
f 212/617/155 215/618/155 213/619/155 210/620/155
vt 0.578125 0.656250
vt 0.578125 0.750000
vt 0.593750 0.750000
vt 0.593750 0.656250
f 211/621/156 212/622/156 210/623/156 209/624/156
vt 0.203125 0.437500
vt 0.187500 0.437500
vt 0.187500 0.468750
vt 0.203125 0.468750
f 216/625/157 211/626/157 209/627/157 214/628/157
vt 0.609375 0.750000
vt 0.609375 0.656250
vt 0.593750 0.656250
vt 0.593750 0.750000
f 215/629/158 216/630/158 214/631/158 213/632/158
vt 0.609375 0.750000
vt 0.625000 0.750000
vt 0.625000 0.656250
vt 0.609375 0.656250
f 214/633/159 209/634/159 210/635/159 213/636/159
vt 0.625000 0.750000
vt 0.640625 0.750000
vt 0.640625 0.656250
vt 0.625000 0.656250
f 215/637/160 212/638/160 211/639/160 216/640/160
vt 0.062500 0.468750
vt 0.062500 0.531250
vt 0.085938 0.531250
vt 0.085938 0.468750
f 220/641/161 223/642/161 221/643/161 218/644/161
vt 0.640625 0.531250
vt 0.656250 0.531250
vt 0.656250 0.484375
vt 0.640625 0.484375
f 219/645/162 220/646/162 218/647/162 217/648/162
vt 0.687500 0.484375
vt 0.656250 0.484375
vt 0.656250 0.531250
vt 0.687500 0.531250
f 224/649/163 219/650/163 217/651/163 222/652/163
vt 0.703125 0.484375
vt 0.687500 0.484375
vt 0.687500 0.531250
vt 0.703125 0.531250
f 223/653/164 224/654/164 222/655/164 221/656/164
vt 0.929688 0.625000
vt 0.929688 0.562500
vt 0.945312 0.562500
vt 0.945312 0.625000
f 222/657/165 217/658/165 218/659/165 221/660/165
vt 0.101562 0.531250
vt 0.101562 0.468750
vt 0.085938 0.468750
vt 0.085938 0.531250
f 223/661/166 220/662/166 219/663/166 224/664/166
vt 0.750000 0.484375
vt 0.703125 0.484375
vt 0.703125 0.531250
vt 0.750000 0.531250
f 228/665/167 231/666/167 229/667/167 226/668/167
vt 0.765625 0.484375
vt 0.750000 0.484375
vt 0.750000 0.531250
vt 0.765625 0.531250
f 227/669/168 228/670/168 226/671/168 225/672/168
vt 0.640625 0.656250
vt 0.640625 0.750000
vt 0.664062 0.750000
vt 0.664062 0.656250
f 232/673/169 227/674/169 225/675/169 230/676/169
vt 0.765625 0.484375
vt 0.750000 0.484375
vt 0.750000 0.531250
vt 0.765625 0.531250
f 231/677/170 232/678/170 230/679/170 229/680/170
vt 0.679688 0.750000
vt 0.679688 0.656250
vt 0.664062 0.656250
vt 0.664062 0.750000
f 230/681/171 225/682/171 226/683/171 229/684/171
vt 0.664062 0.656250
vt 0.664062 0.750000
vt 0.679688 0.750000
vt 0.679688 0.656250
f 231/685/172 228/686/172 227/687/172 232/688/172
o Cap
vt 0.507812 0.656250
vt 0.460938 0.656250
vt 0.460938 0.750000
vt 0.507812 0.750000
f 236/689/173 239/690/173 237/691/173 234/692/173
vt 0.187500 0.468750
vt 0.187500 0.437500
vt 0.140625 0.437500
vt 0.140625 0.468750
f 235/693/174 236/694/174 234/695/174 233/696/174
vt 0.507812 0.656250
vt 0.460938 0.656250
vt 0.460938 0.750000
vt 0.507812 0.750000
f 240/697/175 235/698/175 233/699/175 238/700/175
vt 0.187500 0.468750
vt 0.187500 0.437500
vt 0.140625 0.437500
vt 0.140625 0.468750
f 239/701/176 240/702/176 238/703/176 237/704/176
vt 0.140625 0.468750
vt 0.187500 0.468750
vt 0.187500 0.437500
vt 0.140625 0.437500
f 238/705/177 233/706/177 234/707/177 237/708/177
vt 0.187500 0.437500
vt 0.140625 0.437500
vt 0.140625 0.468750
vt 0.187500 0.468750
f 239/709/178 236/710/178 235/711/178 240/712/178
