mtllib combined.mtl
v 0.09375 0.625 -0.09375
v 0.09375 0.625 -0.59375
v 0.09375 0.4375 -0.09375
v 0.09375 0.4375 -0.59375
v -0.09375 0.625 -0.59375
v -0.09375 0.625 -0.09375
v -0.09375 0.4375 -0.59375
v -0.09375 0.4375 -0.09375
v 0.125 0.65625 -0.59375
v 0.125 0.65625 -0.65625
v 0.125 0.40625 -0.59375
v 0.125 0.40625 -0.65625
v -0.125 0.65625 -0.65625
v -0.125 0.65625 -0.59375
v -0.125 0.40625 -0.65625
v -0.125 0.40625 -0.59375
v 0.09375 0.625 0.15625
v 0.09375 0.625 0.09375
v 0.09375 0.4375 0.15625
v 0.09375 0.4375 0.09375
v -0.09375 0.625 0.09375
v -0.09375 0.625 0.15625
v -0.09375 0.4375 0.09375
v -0.09375 0.4375 0.15625
v 0.125 0.65625 0.46875
v 0.125 0.65625 0.15625
v 0.125 0.40625 0.46875
v 0.125 0.40625 0.15625
v -0.125 0.65625 0.15625
v -0.125 0.65625 0.46875
v -0.125 0.40625 0.15625
v -0.125 0.40625 0.46875
v 0.0625 0.4375 0.46875
v 0.0625 0.4375 0.40625
v 0.0625 0.3125 0.46875
v 0.0625 0.3125 0.40625
v -0.0625 0.4375 0.40625
v -0.0625 0.4375 0.46875
v -0.0625 0.3125 0.40625
v -0.0625 0.3125 0.46875
v 0.13258252147247768 0.375 0.484375
v 0.13258252147247768 0.375 0.109375
v -1.3877787807814457e-17 0.24241747852752232 0.484375
v -1.3877787807814457e-17 0.24241747852752232 0.109375
v 1.3877787807814457e-17 0.5075825214724776 0.109375
v 1.3877787807814457e-17 0.5075825214724776 0.484375
v -0.13258252147247768 0.375 0.109375
v -0.13258252147247768 0.375 0.484375
v 0.0625 0.59375 0.59375
v 0.0625 0.59375 0.46875
v 0.0625 0.3125 0.59375
v 0.0625 0.3125 0.46875
v -0.0625 0.59375 0.46875
v -0.0625 0.59375 0.59375
v -0.0625 0.3125 0.46875
v -0.0625 0.3125 0.59375
v 0.03125 0.6875 0.09375
v 0.03125 0.6875 -0.09375
v 0.03125 0.375 0.09375
v 0.03125 0.375 -0.09375
v -0.03125 0.6875 -0.09375
v -0.03125 0.6875 0.09375
v -0.03125 0.375 -0.09375
v -0.03125 0.375 0.09375
v -0.08838834764831845 0.6638325214724776 0.09375
v -0.08838834764831845 0.6638325214724776 -0.09375
v 0.13258252147247768 0.44286165235168157 0.09375
v 0.13258252147247768 0.44286165235168157 -0.09375
v -0.13258252147247768 0.6196383476483185 -0.09375
v -0.13258252147247768 0.6196383476483185 0.09375
v 0.08838834764831845 0.3986674785275224 -0.09375
v 0.08838834764831845 0.3986674785275224 0.09375
v 0.15625 0.5625 0.09375
v 0.15625 0.5625 -0.09375
v 0.15625 0.5 0.09375
v 0.15625 0.5 -0.09375
v -0.15625 0.5625 -0.09375
v -0.15625 0.5625 0.09375
v -0.15625 0.5 -0.09375
v -0.15625 0.5 0.09375
v 0.08838834764831843 0.6638325214724776 0.09375
v 0.08838834764831843 0.6638325214724776 -0.09375
v 0.13258252147247765 0.6196383476483185 0.09375
v 0.13258252147247765 0.6196383476483185 -0.09375
v -0.13258252147247765 0.44286165235168157 -0.09375
v -0.13258252147247765 0.44286165235168157 0.09375
v -0.08838834764831843 0.3986674785275223 -0.09375
v -0.08838834764831843 0.3986674785275223 0.09375
vn 1.0 0.0 0.0
vn 0.0 0.0 1.0
vn -1.0 0.0 0.0
vn 0.0 1.0 0.0
vn 0.0 -1.0 0.0
vn 0.0 0.0 -1.0
vn 1.0 0.0 0.0
vn 0.0 0.0 1.0
vn -1.0 0.0 0.0
vn 0.0 1.0 0.0
vn 0.0 -1.0 0.0
vn 0.0 0.0 -1.0
vn 1.0 0.0 0.0
vn -1.0 0.0 0.0
vn 0.0 1.0 0.0
vn 0.0 -1.0 0.0
vn 0.0 0.0 -1.0
vn 1.0 0.0 0.0
vn 0.0 0.0 1.0
vn -1.0 0.0 0.0
vn 0.0 1.0 0.0
vn 0.0 -1.0 0.0
vn 1.0 0.0 0.0
vn -1.0 0.0 0.0
vn 0.0 1.0 0.0
vn 0.0 -1.0 0.0
vn 0.0 0.0 -1.0
vn 0.7071067811865475 -0.7071067811865476 0.0
vn 0.0 0.0 1.0
vn -0.7071067811865475 0.7071067811865476 0.0
vn 0.7071067811865476 0.7071067811865475 0.0
vn -0.7071067811865476 -0.7071067811865475 0.0
vn 0.0 0.0 -1.0
vn 1.0 0.0 0.0
vn 0.0 0.0 1.0
vn -1.0 0.0 0.0
vn 0.0 1.0 0.0
vn 0.0 -1.0 0.0
vn 0.0 0.0 -1.0
vn 1.0 0.0 0.0
vn 0.0 0.0 1.0
vn -1.0 0.0 0.0
vn 0.0 1.0 0.0
vn 0.0 -1.0 0.0
vn 0.0 0.0 -1.0
vn 0.7071067811865475 0.7071067811865476 0.0
vn 0.0 0.0 1.0
vn -0.7071067811865475 -0.7071067811865476 0.0
vn -0.7071067811865476 0.7071067811865475 0.0
vn 0.7071067811865476 -0.7071067811865475 0.0
vn 0.0 0.0 -1.0
vn 1.0 0.0 0.0
vn 0.0 0.0 1.0
vn -1.0 0.0 0.0
vn 0.0 1.0 0.0
vn 0.0 -1.0 0.0
vn 0.0 0.0 -1.0
vn 0.7071067811865475 0.7071067811865476 0.0
vn 0.0 0.0 1.0
vn -0.7071067811865475 -0.7071067811865476 0.0
vn -0.7071067811865476 0.7071067811865475 0.0
vn 0.7071067811865476 -0.7071067811865475 0.0
usemtl mat_combined
o cube
vt 0.804688 0.656250
vt 0.679688 0.656250
vt 0.679688 0.750000
vt 0.804688 0.750000
f 3/1/1 4/2/1 2/3/1 1/4/1
vt 0.804688 0.656250
vt 0.851562 0.656250
vt 0.851562 0.750000
vt 0.804688 0.750000
f 8/5/2 3/6/2 1/7/2 6/8/2
vt 0.679688 0.656250
vt 0.804688 0.656250
vt 0.804688 0.750000
vt 0.679688 0.750000
f 7/9/3 8/10/3 6/11/3 5/12/3
vt 0.976562 0.656250
vt 0.976562 0.750000
vt 0.851562 0.750000
vt 0.851562 0.656250
f 6/13/4 1/14/4 2/15/4 5/16/4
vt 0.000000 0.625000
vt 0.000000 0.531250
vt 0.125000 0.531250
vt 0.125000 0.625000
f 7/17/5 4/18/5 3/19/5 8/20/5
vt 0.617188 0.875000
vt 0.679688 0.875000
vt 0.679688 1.000000
vt 0.617188 1.000000
f 12/21/6 15/22/6 13/23/6 10/24/6
vt 0.695312 0.875000
vt 0.679688 0.875000
vt 0.679688 1.000000
vt 0.695312 1.000000
f 11/25/7 12/26/7 10/27/7 9/28/7
vt 0.695312 0.875000
vt 0.757812 0.875000
vt 0.757812 1.000000
vt 0.695312 1.000000
f 16/29/8 11/30/8 9/31/8 14/32/8
vt 0.679688 0.875000
vt 0.695312 0.875000
vt 0.695312 1.000000
vt 0.679688 1.000000
f 15/33/9 16/34/9 14/35/9 13/36/9
vt 0.328125 0.468750
vt 0.390625 0.468750
vt 0.390625 0.437500
vt 0.328125 0.437500
f 14/37/10 9/38/10 10/39/10 13/40/10
vt 0.390625 0.468750
vt 0.453125 0.468750
vt 0.453125 0.437500
vt 0.390625 0.437500
f 15/41/11 12/42/11 11/43/11 16/44/11
vt 0.804688 0.656250
vt 0.851562 0.656250
vt 0.851562 0.750000
vt 0.804688 0.750000
f 20/45/12 23/46/12 21/47/12 18/48/12
vt 0.125000 0.531250
vt 0.140625 0.531250
vt 0.140625 0.625000
vt 0.125000 0.625000
f 19/49/13 20/50/13 18/51/13 17/52/13
vt 0.140625 0.531250
vt 0.125000 0.531250
vt 0.125000 0.625000
vt 0.140625 0.625000
f 23/53/14 24/54/14 22/55/14 21/56/14
vt 0.140625 0.531250
vt 0.140625 0.625000
vt 0.156250 0.625000
vt 0.156250 0.531250
f 22/57/15 17/58/15 18/59/15 21/60/15
vt 0.171875 0.531250
vt 0.171875 0.625000
vt 0.156250 0.625000
vt 0.156250 0.531250
f 23/61/16 20/62/16 19/63/16 24/64/16
vt 0.757812 0.875000
vt 0.820312 0.875000
vt 0.820312 1.000000
vt 0.757812 1.000000
f 28/65/17 31/66/17 29/67/17 26/68/17
vt 0.898438 0.875000
vt 0.820312 0.875000
vt 0.820312 1.000000
vt 0.898438 1.000000
f 27/69/18 28/70/18 26/71/18 25/72/18
vt 0.898438 0.875000
vt 0.960938 0.875000
vt 0.960938 1.000000
vt 0.898438 1.000000
f 32/73/19 27/74/19 25/75/19 30/76/19
vt 0.820312 0.875000
vt 0.898438 0.875000
vt 0.898438 1.000000
vt 0.820312 1.000000
f 31/77/20 32/78/20 30/79/20 29/80/20
vt 0.078125 0.625000
vt 0.078125 0.750000
vt 0.000000 0.750000
vt 0.000000 0.625000
f 30/81/21 25/82/21 26/83/21 29/84/21
vt 0.078125 0.750000
vt 0.078125 0.625000
vt 0.156250 0.625000
vt 0.156250 0.750000
f 31/85/22 28/86/22 27/87/22 32/88/22
vt 0.101562 0.468750
vt 0.117188 0.468750
vt 0.117188 0.531250
vt 0.101562 0.531250
f 35/89/23 36/90/23 34/91/23 33/92/23
vt 0.101562 0.468750
vt 0.117188 0.468750
vt 0.117188 0.531250
vt 0.101562 0.531250
f 39/93/24 40/94/24 38/95/24 37/96/24
vt 0.507812 0.375000
vt 0.507812 0.390625
vt 0.492188 0.390625
vt 0.492188 0.375000
f 38/97/25 33/98/25 34/99/25 37/100/25
vt 0.539062 0.375000
vt 0.539062 0.390625
vt 0.507812 0.390625
vt 0.507812 0.375000
f 39/101/26 36/102/26 35/103/26 40/104/26
vt 0.218750 0.531250
vt 0.218750 0.625000
vt 0.171875 0.625000
vt 0.171875 0.531250
f 44/105/27 47/106/27 45/107/27 42/108/27
vt 0.312500 0.531250
vt 0.218750 0.531250
vt 0.218750 0.625000
vt 0.312500 0.625000
f 43/109/28 44/110/28 42/111/28 41/112/28
vt 0.171875 0.531250
vt 0.218750 0.531250
vt 0.218750 0.625000
vt 0.171875 0.625000
f 48/113/29 43/114/29 41/115/29 46/116/29
vt 0.312500 0.531250
vt 0.406250 0.531250
vt 0.406250 0.625000
vt 0.312500 0.625000
f 47/117/30 48/118/30 46/119/30 45/120/30
vt 0.406250 0.625000
vt 0.406250 0.531250
vt 0.312500 0.531250
vt 0.312500 0.625000
f 46/121/31 41/122/31 42/123/31 45/124/31
vt 0.218750 0.625000
vt 0.218750 0.531250
vt 0.312500 0.531250
vt 0.312500 0.625000
f 47/125/32 44/126/32 43/127/32 48/128/32
vt 0.437500 0.843750
vt 0.406250 0.843750
vt 0.406250 1.000000
vt 0.437500 1.000000
f 52/129/33 55/130/33 53/131/33 50/132/33
vt 0.562500 0.859375
vt 0.531250 0.859375
vt 0.531250 1.000000
vt 0.562500 1.000000
f 51/133/34 52/134/34 50/135/34 49/136/34
vt 0.593750 0.859375
vt 0.562500 0.859375
vt 0.562500 1.000000
vt 0.593750 1.000000
f 56/137/35 51/138/35 49/139/35 54/140/35
vt 0.531250 0.859375
vt 0.562500 0.859375
vt 0.562500 1.000000
vt 0.531250 1.000000
f 55/141/36 56/142/36 54/143/36 53/144/36
vt 0.117188 0.468750
vt 0.148438 0.468750
vt 0.148438 0.531250
vt 0.117188 0.531250
f 54/145/37 49/146/37 50/147/37 53/148/37
vt 0.148438 0.468750
vt 0.179688 0.468750
vt 0.179688 0.531250
vt 0.148438 0.531250
f 55/149/38 52/150/38 51/151/38 56/152/38
o Cog
vt 0.531250 0.437500
vt 0.531250 0.468750
vt 0.453125 0.468750
vt 0.453125 0.437500
f 60/153/39 63/154/39 61/155/39 58/156/39
vt 0.406250 0.625000
vt 0.406250 0.531250
vt 0.484375 0.531250
vt 0.484375 0.625000
f 59/157/40 60/158/40 58/159/40 57/160/40
vt 0.453125 0.468750
vt 0.453125 0.437500
vt 0.531250 0.437500
vt 0.531250 0.468750
f 64/161/41 59/162/41 57/163/41 62/164/41
vt 0.484375 0.531250
vt 0.484375 0.625000
vt 0.406250 0.625000
vt 0.406250 0.531250
f 63/165/42 64/166/42 62/167/42 61/168/42
vt 0.531250 0.437500
vt 0.531250 0.468750
vt 0.578125 0.468750
vt 0.578125 0.437500
f 62/169/43 57/170/43 58/171/43 61/172/43
vt 0.625000 0.437500
vt 0.625000 0.468750
vt 0.578125 0.468750
vt 0.578125 0.437500
f 63/173/44 60/174/44 59/175/44 64/176/44
vt 0.531250 0.437500
vt 0.531250 0.468750
vt 0.453125 0.468750
vt 0.453125 0.437500
f 68/177/45 71/178/45 69/179/45 66/180/45
vt 0.406250 0.625000
vt 0.406250 0.531250
vt 0.484375 0.531250
vt 0.484375 0.625000
f 67/181/46 68/182/46 66/183/46 65/184/46
vt 0.453125 0.468750
vt 0.453125 0.437500
vt 0.531250 0.437500
vt 0.531250 0.468750
f 72/185/47 67/186/47 65/187/47 70/188/47
vt 0.484375 0.531250
vt 0.484375 0.625000
vt 0.406250 0.625000
vt 0.406250 0.531250
f 71/189/48 72/190/48 70/191/48 69/192/48
vt 0.531250 0.437500
vt 0.531250 0.468750
vt 0.578125 0.468750
vt 0.578125 0.437500
f 70/193/49 65/194/49 66/195/49 69/196/49
vt 0.625000 0.437500
vt 0.625000 0.468750
vt 0.578125 0.468750
vt 0.578125 0.437500
f 71/197/50 68/198/50 67/199/50 72/200/50
vt 0.531250 0.468750
vt 0.453125 0.468750
vt 0.453125 0.437500
vt 0.531250 0.437500
f 76/201/51 79/202/51 77/203/51 74/204/51
vt 0.578125 0.437500
vt 0.625000 0.437500
vt 0.625000 0.468750
vt 0.578125 0.468750
f 75/205/52 76/206/52 74/207/52 73/208/52
vt 0.531250 0.468750
vt 0.453125 0.468750
vt 0.453125 0.437500
vt 0.531250 0.437500
f 80/209/53 75/210/53 73/211/53 78/212/53
vt 0.578125 0.437500
vt 0.531250 0.437500
vt 0.531250 0.468750
vt 0.578125 0.468750
f 79/213/54 80/214/54 78/215/54 77/216/54
vt 0.484375 0.625000
vt 0.406250 0.625000
vt 0.406250 0.531250
vt 0.484375 0.531250
f 78/217/55 73/218/55 74/219/55 77/220/55
vt 0.406250 0.531250
vt 0.484375 0.531250
vt 0.484375 0.625000
vt 0.406250 0.625000
f 79/221/56 76/222/56 75/223/56 80/224/56
vt 0.531250 0.468750
vt 0.453125 0.468750
vt 0.453125 0.437500
vt 0.531250 0.437500
f 84/225/57 87/226/57 85/227/57 82/228/57
vt 0.578125 0.437500
vt 0.625000 0.437500
vt 0.625000 0.468750
vt 0.578125 0.468750
f 83/229/58 84/230/58 82/231/58 81/232/58
vt 0.531250 0.468750
vt 0.453125 0.468750
vt 0.453125 0.437500
vt 0.531250 0.437500
f 88/233/59 83/234/59 81/235/59 86/236/59
vt 0.578125 0.437500
vt 0.531250 0.437500
vt 0.531250 0.468750
vt 0.578125 0.468750
f 87/237/60 88/238/60 86/239/60 85/240/60
vt 0.484375 0.625000
vt 0.406250 0.625000
vt 0.406250 0.531250
vt 0.484375 0.531250
f 86/241/61 81/242/61 82/243/61 85/244/61
vt 0.406250 0.531250
vt 0.484375 0.531250
vt 0.484375 0.625000
vt 0.406250 0.625000
f 87/245/62 84/246/62 83/247/62 88/248/62
