mtllib combined.mtl
v 0.09375 0.375 0.09375
v 0.09375 0.375 -0.09375
v 0.09375 -0.3125 0.09375
v 0.09375 -0.3125 -0.09375
v -0.09375 0.375 -0.09375
v -0.09375 0.375 0.09375
v -0.09375 -0.3125 -0.09375
v -0.09375 -0.3125 0.09375
v 0.13258252147247768 1.0625 -1.3877787807814457e-17
v -1.3877787807814457e-17 1.0625 -0.13258252147247768
v 0.13258252147247768 0.4375 -1.3877787807814457e-17
v -1.3877787807814457e-17 0.4375 -0.13258252147247768
v -0.13258252147247768 1.0625 1.3877787807814457e-17
v 1.3877787807814457e-17 1.0625 0.13258252147247768
v -0.13258252147247768 0.4375 1.3877787807814457e-17
v 1.3877787807814457e-17 0.4375 0.13258252147247768
v 0.125 0.4375 0.125
v 0.125 0.4375 -0.125
v 0.125 0.375 0.125
v 0.125 0.375 -0.125
v -0.125 0.4375 -0.125
v -0.125 0.4375 0.125
v -0.125 0.375 -0.125
v -0.125 0.375 0.125
v 0.13258252147247768 1.875 -1.3877787807814457e-17
v -1.3877787807814457e-17 1.875 -0.13258252147247768
v 0.13258252147247768 1.6875 -1.3877787807814457e-17
v -1.3877787807814457e-17 1.6875 -0.13258252147247768
v -0.13258252147247768 1.875 1.3877787807814457e-17
v 1.3877787807814457e-17 1.875 0.13258252147247768
v -0.13258252147247768 1.6875 1.3877787807814457e-17
v 1.3877787807814457e-17 1.6875 0.13258252147247768
v 0.125 1.9375 0.125
v 0.125 1.9375 -0.125
v 0.125 1.875 0.125
v 0.125 1.875 -0.125
v -0.125 1.9375 -0.125
v -0.125 1.9375 0.125
v -0.125 1.875 -0.125
v -0.125 1.875 0.125
v 0.10624999999999996 0.3125 0.10624999999999996
v 0.10624999999999996 0.3125 -0.10624999999999996
v 0.10624999999999996 0.25 0.10624999999999996
v 0.10624999999999996 0.25 -0.10624999999999996
v -0.10624999999999996 0.3125 -0.10624999999999996
v -0.10624999999999996 0.3125 0.10624999999999996
v -0.10624999999999996 0.25 -0.10624999999999996
v -0.10624999999999996 0.25 0.10624999999999996
v 0.10624999999999996 -0.1875 0.10624999999999996
v 0.10624999999999996 -0.1875 -0.10624999999999996
v 0.10624999999999996 -0.25 0.10624999999999996
v 0.10624999999999996 -0.25 -0.10624999999999996
v -0.10624999999999996 -0.1875 -0.10624999999999996
v -0.10624999999999996 -0.1875 0.10624999999999996
v -0.10624999999999996 -0.25 -0.10624999999999996
v -0.10624999999999996 -0.25 0.10624999999999996
v 0.03125 1.5441941738241591 -0.14330582617584078
v 0.03125 1.5883883476483185 -0.1875
v 0.03125 1.5 -0.1875
v 0.03125 1.5441941738241591 -0.23169417382415922
v -0.03125 1.5883883476483185 -0.1875
v -0.03125 1.5441941738241591 -0.14330582617584078
v -0.03125 1.5441941738241591 -0.23169417382415922
v -0.03125 1.5 -0.1875
v 0.03125 1.5441941738241591 0.23169417382415922
v 0.03125 1.5883883476483185 0.1875
v 0.03125 1.5 0.1875
v 0.03125 1.5441941738241591 0.14330582617584078
v -0.03125 1.5883883476483185 0.1875
v -0.03125 1.5441941738241591 0.23169417382415922
v -0.03125 1.5441941738241591 0.14330582617584078
v -0.03125 1.5 0.1875
v 0.17991747852752232 1.5883883476483185 0.03125
v 0.17991747852752232 1.5883883476483185 -0.03125
v 0.22411165235168157 1.5441941738241591 0.03125
v 0.22411165235168157 1.5441941738241591 -0.03125
v 0.13572330470336313 1.5441941738241591 -0.03125
v 0.13572330470336313 1.5441941738241591 0.03125
v 0.17991747852752232 1.5 -0.03125
v 0.17991747852752232 1.5 0.03125
v -0.17363591206575146 1.5883883476483185 0.03125
v -0.17363591206575146 1.5883883476483185 -0.03125
v -0.12944173824159222 1.5441941738241591 0.03125
v -0.12944173824159222 1.5441941738241591 -0.03125
v -0.2178300858899107 1.5441941738241591 -0.03125
v -0.2178300858899107 1.5441941738241591 0.03125
v -0.1736359120657514 1.5 -0.03125
v -0.1736359120657514 1.5 0.03125
v 0.0625 1.625 0.0625
v 0.0625 1.625 -0.0625
v 0.0625 1.125 0.0625
v 0.0625 1.125 -0.0625
v -0.0625 1.625 -0.0625
v -0.0625 1.625 0.0625
v -0.0625 1.125 -0.0625
v -0.0625 1.125 0.0625
v 0.09375 1.65625 0.09375
v 0.09375 1.65625 -0.09375
v 0.09375 1.09375 0.09375
v 0.09375 1.09375 -0.09375
v -0.09375 1.65625 -0.09375
v -0.09375 1.65625 0.09375
v -0.09375 1.09375 -0.09375
v -0.09375 1.09375 0.09375
vn 0.0 0.0 -1.0
vn 1.0 0.0 0.0
vn 0.0 0.0 1.0
vn -1.0 0.0 0.0
vn 0.0 1.0 0.0
vn 0.0 -1.0 0.0
vn -0.7071067811865476 0.0 -0.7071067811865475
vn 0.7071067811865475 0.0 -0.7071067811865476
vn 0.7071067811865476 0.0 0.7071067811865475
vn -0.7071067811865475 0.0 0.7071067811865476
vn 0.0 1.0 0.0
vn 0.0 -1.0 0.0
vn 0.0 0.0 -1.0
vn 1.0 0.0 0.0
vn 0.0 0.0 1.0
vn -1.0 0.0 0.0
vn 0.0 1.0 0.0
vn 0.0 -1.0 0.0
vn -0.7071067811865476 0.0 -0.7071067811865475
vn 0.7071067811865475 0.0 -0.7071067811865476
vn 0.7071067811865476 0.0 0.7071067811865475
vn -0.7071067811865475 0.0 0.7071067811865476
vn 0.0 1.0 0.0
vn 0.0 -1.0 0.0
vn 0.0 0.0 -1.0
vn 1.0 0.0 0.0
vn 0.0 0.0 1.0
vn -1.0 0.0 0.0
vn 0.0 1.0 0.0
vn 0.0 -1.0 0.0
vn 0.0 0.0 -1.0
vn 1.0 0.0 0.0
vn 0.0 0.0 1.0
vn -1.0 0.0 0.0
vn 0.0 0.0 -1.0
vn 1.0 0.0 0.0
vn 0.0 0.0 1.0
vn -1.0 0.0 0.0
vn 0.0 0.7071067811865476 -0.7071067811865475
vn 1.0 0.0 0.0
vn 0.0 -0.7071067811865476 0.7071067811865475
vn -1.0 0.0 0.0
vn 0.0 0.7071067811865475 0.7071067811865476
vn 0.0 -0.7071067811865475 -0.7071067811865476
vn 0.0 0.7071067811865476 -0.7071067811865475
vn 1.0 0.0 0.0
vn 0.0 -0.7071067811865476 0.7071067811865475
vn -1.0 0.0 0.0
vn 0.0 0.7071067811865475 0.7071067811865476
vn 0.0 -0.7071067811865475 -0.7071067811865476
vn 0.0 0.0 -1.0
vn 0.7071067811865475 0.7071067811865476 0.0
vn 0.0 0.0 1.0
vn -0.7071067811865475 -0.7071067811865476 0.0
vn -0.7071067811865476 0.7071067811865475 0.0
vn 0.7071067811865476 -0.7071067811865475 0.0
vn 0.0 0.0 -1.0
vn 0.7071067811865475 0.7071067811865476 0.0
vn 0.0 0.0 1.0
vn -0.7071067811865475 -0.7071067811865476 0.0
vn -0.7071067811865476 0.7071067811865475 0.0
vn 0.7071067811865476 -0.7071067811865475 0.0
vn 0.0 0.0 -1.0
vn 1.0 0.0 0.0
vn 0.0 0.0 1.0
vn -1.0 0.0 0.0
vn 0.0 1.0 0.0
vn 0.0 -1.0 0.0
vn 0.0 0.0 -1.0
vn 1.0 0.0 0.0
vn 0.0 0.0 1.0
vn -1.0 0.0 0.0
vn 0.0 1.0 0.0
vn 0.0 -1.0 0.0
usemtl mat_combined
o Grip Core
vt 0.312500 0.828125
vt 0.335938 0.828125
vt 0.335938 1.000000
vt 0.312500 1.000000
f 4/1/1 7/2/1 5/3/1 2/4/1
vt 0.335938 0.828125
vt 0.359375 0.828125
vt 0.359375 1.000000
vt 0.335938 1.000000
f 3/5/2 4/6/2 2/7/2 1/8/2
vt 0.359375 0.828125
vt 0.382812 0.828125
vt 0.382812 1.000000
vt 0.359375 1.000000
f 8/9/3 3/10/3 1/11/3 6/12/3
vt 0.382812 0.828125
vt 0.406250 0.828125
vt 0.406250 1.000000
vt 0.382812 1.000000
f 7/13/4 8/14/4 6/15/4 5/16/4
vt 0.765625 0.484375
vt 0.789062 0.484375
vt 0.789062 0.531250
vt 0.765625 0.531250
f 6/17/5 1/18/5 2/19/5 5/20/5
vt 0.789062 0.484375
vt 0.812500 0.484375
vt 0.812500 0.531250
vt 0.789062 0.531250
f 7/21/6 4/22/6 3/23/6 8/24/6
o Rod Bottom Core
vt 0.437500 0.843750
vt 0.460938 0.843750
vt 0.460938 1.000000
vt 0.437500 1.000000
f 12/25/7 15/26/7 13/27/7 10/28/7
vt 0.460938 0.843750
vt 0.484375 0.843750
vt 0.484375 1.000000
vt 0.460938 1.000000
f 11/29/8 12/30/8 10/31/8 9/32/8
vt 0.484375 0.843750
vt 0.507812 0.843750
vt 0.507812 1.000000
vt 0.484375 1.000000
f 16/33/9 11/34/9 9/35/9 14/36/9
vt 0.507812 0.843750
vt 0.531250 0.843750
vt 0.531250 1.000000
vt 0.507812 1.000000
f 15/37/10 16/38/10 14/39/10 13/40/10
vt 0.812500 0.484375
vt 0.835938 0.484375
vt 0.835938 0.531250
vt 0.812500 0.531250
f 14/41/11 9/42/11 10/43/11 13/44/11
vt 0.835938 0.484375
vt 0.859375 0.484375
vt 0.859375 0.531250
vt 0.835938 0.531250
f 15/45/12 12/46/12 11/47/12 16/48/12
o Grip Cap
vt 0.539062 0.375000
vt 0.570312 0.375000
vt 0.570312 0.390625
vt 0.539062 0.390625
f 20/49/13 23/50/13 21/51/13 18/52/13
vt 0.570312 0.375000
vt 0.601562 0.375000
vt 0.601562 0.390625
vt 0.570312 0.390625
f 19/53/14 20/54/14 18/55/14 17/56/14
vt 0.570312 0.375000
vt 0.601562 0.375000
vt 0.601562 0.390625
vt 0.570312 0.390625
f 24/57/15 19/58/15 17/59/15 22/60/15
vt 0.601562 0.375000
vt 0.632812 0.375000
vt 0.632812 0.390625
vt 0.601562 0.390625
f 23/61/16 24/62/16 22/63/16 21/64/16
vt 0.179688 0.531250
vt 0.210938 0.531250
vt 0.210938 0.468750
vt 0.179688 0.468750
f 22/65/17 17/66/17 18/67/17 21/68/17
vt 0.210938 0.468750
vt 0.242188 0.468750
vt 0.242188 0.531250
vt 0.210938 0.531250
f 23/69/18 20/70/18 19/71/18 24/72/18
o Rod Top Core
vt 0.859375 0.484375
vt 0.882812 0.484375
vt 0.882812 0.531250
vt 0.859375 0.531250
f 28/73/19 31/74/19 29/75/19 26/76/19
vt 0.882812 0.484375
vt 0.906250 0.484375
vt 0.906250 0.531250
vt 0.882812 0.531250
f 27/77/20 28/78/20 26/79/20 25/80/20
vt 0.906250 0.484375
vt 0.929688 0.484375
vt 0.929688 0.531250
vt 0.906250 0.531250
f 32/81/21 27/82/21 25/83/21 30/84/21
vt 0.929688 0.484375
vt 0.953125 0.484375
vt 0.953125 0.531250
vt 0.929688 0.531250
f 31/85/22 32/86/22 30/87/22 29/88/22
vt 0.812500 0.484375
vt 0.835938 0.484375
vt 0.835938 0.531250
vt 0.812500 0.531250
f 30/89/23 25/90/23 26/91/23 29/92/23
vt 0.812500 0.484375
vt 0.835938 0.484375
vt 0.835938 0.531250
vt 0.812500 0.531250
f 31/93/24 28/94/24 27/95/24 32/96/24
o Cap
vt 0.570312 0.375000
vt 0.601562 0.375000
vt 0.601562 0.390625
vt 0.570312 0.390625
f 36/97/25 39/98/25 37/99/25 34/100/25
vt 0.570312 0.375000
vt 0.601562 0.375000
vt 0.601562 0.390625
vt 0.570312 0.390625
f 35/101/26 36/102/26 34/103/26 33/104/26
vt 0.570312 0.375000
vt 0.601562 0.375000
vt 0.601562 0.390625
vt 0.570312 0.390625
f 40/105/27 35/106/27 33/107/27 38/108/27
vt 0.570312 0.375000
vt 0.601562 0.375000
vt 0.601562 0.390625
vt 0.570312 0.390625
f 39/109/28 40/110/28 38/111/28 37/112/28
vt 0.242188 0.468750
vt 0.273438 0.468750
vt 0.273438 0.531250
vt 0.242188 0.531250
f 38/113/29 33/114/29 34/115/29 37/116/29
vt 0.242188 0.468750
vt 0.273438 0.468750
vt 0.273438 0.531250
vt 0.242188 0.531250
f 39/117/30 36/118/30 35/119/30 40/120/30
o Grip Deco
vt 0.632812 0.375000
vt 0.656250 0.375000
vt 0.656250 0.390625
vt 0.632812 0.390625
f 44/121/31 47/122/31 45/123/31 42/124/31
vt 0.632812 0.375000
vt 0.656250 0.375000
vt 0.656250 0.390625
vt 0.632812 0.390625
f 43/125/32 44/126/32 42/127/32 41/128/32
vt 0.632812 0.375000
vt 0.656250 0.375000
vt 0.656250 0.390625
vt 0.632812 0.390625
f 48/129/33 43/130/33 41/131/33 46/132/33
vt 0.632812 0.375000
vt 0.656250 0.375000
vt 0.656250 0.390625
vt 0.632812 0.390625
f 47/133/34 48/134/34 46/135/34 45/136/34
vt 0.632812 0.375000
vt 0.656250 0.375000
vt 0.656250 0.390625
vt 0.632812 0.390625
f 52/137/35 55/138/35 53/139/35 50/140/35
vt 0.632812 0.375000
vt 0.656250 0.375000
vt 0.656250 0.390625
vt 0.632812 0.390625
f 51/141/36 52/142/36 50/143/36 49/144/36
vt 0.632812 0.375000
vt 0.656250 0.375000
vt 0.656250 0.390625
vt 0.632812 0.390625
f 56/145/37 51/146/37 49/147/37 54/148/37
vt 0.632812 0.375000
vt 0.656250 0.375000
vt 0.656250 0.390625
vt 0.632812 0.390625
f 55/149/38 56/150/38 54/151/38 53/152/38
o Square North
vt 0.656250 0.375000
vt 0.664062 0.375000
vt 0.664062 0.390625
vt 0.656250 0.390625
f 60/153/39 63/154/39 61/155/39 58/156/39
vt 0.656250 0.375000
vt 0.664062 0.375000
vt 0.664062 0.390625
vt 0.656250 0.390625
f 59/157/40 60/158/40 58/159/40 57/160/40
vt 0.656250 0.375000
vt 0.664062 0.375000
vt 0.664062 0.390625
vt 0.656250 0.390625
f 64/161/41 59/162/41 57/163/41 62/164/41
vt 0.656250 0.375000
vt 0.664062 0.375000
vt 0.664062 0.390625
vt 0.656250 0.390625
f 63/165/42 64/166/42 62/167/42 61/168/42
vt 0.656250 0.375000
vt 0.664062 0.375000
vt 0.664062 0.390625
vt 0.656250 0.390625
f 62/169/43 57/170/43 58/171/43 61/172/43
vt 0.656250 0.375000
vt 0.664062 0.375000
vt 0.664062 0.390625
vt 0.656250 0.390625
f 63/173/44 60/174/44 59/175/44 64/176/44
o Square South
vt 0.656250 0.375000
vt 0.664062 0.375000
vt 0.664062 0.390625
vt 0.656250 0.390625
f 68/177/45 71/178/45 69/179/45 66/180/45
vt 0.656250 0.375000
vt 0.664062 0.375000
vt 0.664062 0.390625
vt 0.656250 0.390625
f 67/181/46 68/182/46 66/183/46 65/184/46
vt 0.656250 0.375000
vt 0.664062 0.375000
vt 0.664062 0.390625
vt 0.656250 0.390625
f 72/185/47 67/186/47 65/187/47 70/188/47
vt 0.656250 0.375000
vt 0.664062 0.375000
vt 0.664062 0.390625
vt 0.656250 0.390625
f 71/189/48 72/190/48 70/191/48 69/192/48
vt 0.656250 0.375000
vt 0.664062 0.375000
vt 0.664062 0.390625
vt 0.656250 0.390625
f 70/193/49 65/194/49 66/195/49 69/196/49
vt 0.656250 0.375000
vt 0.664062 0.375000
vt 0.664062 0.390625
vt 0.656250 0.390625
f 71/197/50 68/198/50 67/199/50 72/200/50
o Square West
vt 0.656250 0.375000
vt 0.664062 0.375000
vt 0.664062 0.390625
vt 0.656250 0.390625
f 76/201/51 79/202/51 77/203/51 74/204/51
vt 0.656250 0.375000
vt 0.664062 0.375000
vt 0.664062 0.390625
vt 0.656250 0.390625
f 75/205/52 76/206/52 74/207/52 73/208/52
vt 0.656250 0.375000
vt 0.664062 0.375000
vt 0.664062 0.390625
vt 0.656250 0.390625
f 80/209/53 75/210/53 73/211/53 78/212/53
vt 0.656250 0.375000
vt 0.664062 0.375000
vt 0.664062 0.390625
vt 0.656250 0.390625
f 79/213/54 80/214/54 78/215/54 77/216/54
vt 0.656250 0.375000
vt 0.664062 0.375000
vt 0.664062 0.390625
vt 0.656250 0.390625
f 78/217/55 73/218/55 74/219/55 77/220/55
vt 0.656250 0.375000
vt 0.664062 0.375000
vt 0.664062 0.390625
vt 0.656250 0.390625
f 79/221/56 76/222/56 75/223/56 80/224/56
o Square East
vt 0.656250 0.375000
vt 0.664062 0.375000
vt 0.664062 0.390625
vt 0.656250 0.390625
f 84/225/57 87/226/57 85/227/57 82/228/57
vt 0.656250 0.375000
vt 0.664062 0.375000
vt 0.664062 0.390625
vt 0.656250 0.390625
f 83/229/58 84/230/58 82/231/58 81/232/58
vt 0.656250 0.375000
vt 0.664062 0.375000
vt 0.664062 0.390625
vt 0.656250 0.390625
f 88/233/59 83/234/59 81/235/59 86/236/59
vt 0.656250 0.375000
vt 0.664062 0.375000
vt 0.664062 0.390625
vt 0.656250 0.390625
f 87/237/60 88/238/60 86/239/60 85/240/60
vt 0.656250 0.375000
vt 0.664062 0.375000
vt 0.664062 0.390625
vt 0.656250 0.390625
f 86/241/61 81/242/61 82/243/61 85/244/61
vt 0.656250 0.375000
vt 0.664062 0.375000
vt 0.664062 0.390625
vt 0.656250 0.390625
f 87/245/62 84/246/62 83/247/62 88/248/62
o Rod Core
vt 0.156250 0.625000
vt 0.171875 0.625000
vt 0.171875 0.750000
vt 0.156250 0.750000
f 92/249/63 95/250/63 93/251/63 90/252/63
vt 0.171875 0.625000
vt 0.187500 0.625000
vt 0.187500 0.750000
vt 0.171875 0.750000
f 91/253/64 92/254/64 90/255/64 89/256/64
vt 0.187500 0.625000
vt 0.203125 0.625000
vt 0.203125 0.750000
vt 0.187500 0.750000
f 96/257/65 91/258/65 89/259/65 94/260/65
vt 0.203125 0.625000
vt 0.218750 0.625000
vt 0.218750 0.750000
vt 0.203125 0.750000
f 95/261/66 96/262/66 94/263/66 93/264/66
vt 0.625000 0.437500
vt 0.640625 0.437500
vt 0.640625 0.468750
vt 0.625000 0.468750
f 94/265/67 89/266/67 90/267/67 93/268/67
vt 0.640625 0.437500
vt 0.656250 0.437500
vt 0.656250 0.468750
vt 0.640625 0.468750
f 95/269/68 92/270/68 91/271/68 96/272/68
o Cube
vt 0.218750 0.625000
vt 0.242188 0.625000
vt 0.242188 0.750000
vt 0.218750 0.750000
f 100/273/69 103/274/69 101/275/69 98/276/69
vt 0.593750 0.859375
vt 0.617188 0.859375
vt 0.617188 1.000000
vt 0.593750 1.000000
f 99/277/70 100/278/70 98/279/70 97/280/70
vt 0.218750 0.625000
vt 0.242188 0.625000
vt 0.242188 0.750000
vt 0.218750 0.750000
f 104/281/71 99/282/71 97/283/71 102/284/71
vt 0.242188 0.625000
vt 0.218750 0.625000
vt 0.218750 0.750000
vt 0.242188 0.750000
f 103/285/72 104/286/72 102/287/72 101/288/72
vt 0.953125 0.484375
vt 0.976562 0.484375
vt 0.976562 0.531250
vt 0.953125 0.531250
f 102/289/73 97/290/73 98/291/73 101/292/73
vt 0.953125 0.484375
vt 0.976562 0.484375
vt 0.976562 0.531250
vt 0.953125 0.531250
f 103/293/74 100/294/74 99/295/74 104/296/74
