mtllib combined.mtl
v 0.03749999999999998 0.4375 0.03125
v 0.03749999999999998 0.4375 -0.03125
v 0.03749999999999998 0.0 0.03125
v 0.03749999999999998 0.0 -0.03125
v -0.025000000000000022 0.4375 -0.03125
v -0.025000000000000022 0.4375 0.03125
v -0.025000000000000022 0.0 -0.03125
v -0.025000000000000022 0.0 0.03125
v 0.03125 0.90625 0.03125
v 0.03125 0.90625 -0.03125
v 0.03125 0.53125 0.03125
v 0.03125 0.53125 -0.03125
v -0.09375 0.90625 -0.03125
v -0.09375 0.90625 0.03125
v -0.09375 0.53125 -0.03125
v -0.09375 0.53125 0.03125
v 0.062499700311063 0.75 0.04419417382415922
v 0.10669387413522222 0.75 6.938893903907228e-18
v 0.062499700311063 0.3125 0.04419417382415922
v 0.10669387413522222 0.3125 6.938893903907228e-18
v 0.06249970031106301 0.75 -0.044194173824159216
v 0.018305526486903787 0.75 -8.673617379884035e-19
v 0.06249970031106301 0.3125 -0.044194173824159216
v 0.018305526486903787 0.3125 -8.673617379884035e-19
v 0.1875 0.9375 0.0625
v 0.1875 0.9375 -0.0625
v 0.1875 0.875 0.0625
v 0.1875 0.875 -0.0625
v -0.0625 0.9375 -0.0625
v -0.0625 0.9375 0.0625
v -0.0625 0.875 -0.0625
v -0.0625 0.875 0.0625
v 0.1875 0.8125 0.0625
v 0.1875 0.8125 -0.0625
v 0.1875 0.75 0.0625
v 0.1875 0.75 -0.0625
v 0.0 0.8125 -0.0625
v 0.0 0.8125 0.0625
v 0.0 0.75 -0.0625
v 0.0 0.75 0.0625
v 0.15000000000000002 0.5625 0.0625
v 0.15000000000000002 0.5625 -0.0625
v 0.15000000000000002 0.5 0.0625
v 0.15000000000000002 0.5 -0.0625
v -0.09999999999999998 0.5625 -0.0625
v -0.09999999999999998 0.5625 0.0625
v -0.09999999999999998 0.5 -0.0625
v -0.09999999999999998 0.5 0.0625
v 0.11963834764831843 0.4375 -6.938893903907228e-18
v 0.031249999999999993 0.4375 -0.08838834764831843
v 0.11963834764831843 0.375 -6.938893903907228e-18
v 0.031249999999999993 0.375 -0.08838834764831843
v -0.05713834764831843 0.4375 6.938893903907228e-18
v 0.03125000000000001 0.4375 0.08838834764831843
v -0.05713834764831843 0.375 6.938893903907228e-18
v 0.03125000000000001 0.375 0.08838834764831843
v 0.09375 0.5 0.125
v 0.09375 0.5 -0.125
v 0.09375 0.4375 0.125
v 0.09375 0.4375 -0.125
v 0.03125 0.5 -0.125
v 0.03125 0.5 0.125
v 0.03125 0.4375 -0.125
v 0.03125 0.4375 0.125
v 0.17298543456039805 0.5 0.06629126073623882
v -0.0037912607362388384 0.5 -0.11048543456039804
v 0.17298543456039805 0.4375 0.06629126073623882
v -0.0037912607362388384 0.4375 -0.11048543456039804
v -0.047985434560398055 0.5 -0.06629126073623882
v 0.12879126073623884 0.5 0.11048543456039804
v -0.047985434560398055 0.4375 -0.06629126073623882
v 0.12879126073623884 0.4375 0.11048543456039804
v 0.1875 0.5 0.03125
v 0.1875 0.5 -0.03125
v 0.1875 0.4375 0.03125
v 0.1875 0.4375 -0.03125
v -0.0625 0.5 -0.03125
v -0.0625 0.5 0.03125
v -0.0625 0.4375 -0.03125
v -0.0625 0.4375 0.03125
v 0.17298543456039805 0.5 -0.06629126073623884
v 0.1287912607362388 0.5 -0.11048543456039805
v 0.17298543456039805 0.4375 -0.06629126073623884
v 0.1287912607362388 0.4375 -0.11048543456039805
v -0.04798543456039804 0.5 0.06629126073623884
v -0.0037912607362388245 0.5 0.11048543456039805
v -0.04798543456039804 0.4375 0.06629126073623884
v -0.0037912607362388245 0.4375 0.11048543456039805
vn 0.0 0.0 -1.0
vn 1.0 0.0 0.0
vn 0.0 0.0 1.0
vn -1.0 0.0 0.0
vn 0.0 -1.0 0.0
vn 0.0 0.0 -1.0
vn 1.0 0.0 0.0
vn 0.0 0.0 1.0
vn -1.0 0.0 0.0
vn 0.0 1.0 0.0
vn 0.0 -1.0 0.0
vn 0.7071067811865476 0.0 -0.7071067811865475
vn 0.7071067811865475 0.0 0.7071067811865476
vn -0.7071067811865476 0.0 0.7071067811865475
vn -0.7071067811865475 0.0 -0.7071067811865476
vn 0.0 1.0 0.0
vn 0.0 -1.0 0.0
vn 0.0 0.0 -1.0
vn 1.0 0.0 0.0
vn 0.0 0.0 1.0
vn -1.0 0.0 0.0
vn 0.0 1.0 0.0
vn 0.0 -1.0 0.0
vn 0.0 0.0 -1.0
vn 1.0 0.0 0.0
vn 0.0 0.0 1.0
vn -1.0 0.0 0.0
vn 0.0 1.0 0.0
vn 0.0 -1.0 0.0
vn 0.0 0.0 -1.0
vn 1.0 0.0 0.0
vn 0.0 0.0 1.0
vn -1.0 0.0 0.0
vn 0.0 1.0 0.0
vn 0.0 -1.0 0.0
vn -0.7071067811865476 0.0 -0.7071067811865475
vn 0.7071067811865475 0.0 -0.7071067811865476
vn 0.7071067811865476 0.0 0.7071067811865475
vn -0.7071067811865475 0.0 0.7071067811865476
vn 0.0 1.0 0.0
vn 0.0 -1.0 0.0
vn 0.0 0.0 -1.0
vn 1.0 0.0 0.0
vn 0.0 0.0 1.0
vn -1.0 0.0 0.0
vn 0.0 1.0 0.0
vn 0.0 -1.0 0.0
vn -0.7071067811865476 0.0 -0.7071067811865475
vn 0.7071067811865475 0.0 -0.7071067811865476
vn 0.7071067811865476 0.0 0.7071067811865475
vn -0.7071067811865475 0.0 0.7071067811865476
vn 0.0 1.0 0.0
vn 0.0 -1.0 0.0
vn 0.0 0.0 -1.0
vn 1.0 0.0 0.0
vn 0.0 0.0 1.0
vn -1.0 0.0 0.0
vn 0.0 1.0 0.0
vn 0.0 -1.0 0.0
vn -0.7071067811865476 0.0 -0.7071067811865475
vn 0.7071067811865475 0.0 -0.7071067811865476
vn 0.7071067811865476 0.0 0.7071067811865475
vn -0.7071067811865475 0.0 0.7071067811865476
vn 0.0 1.0 0.0
vn 0.0 -1.0 0.0
usemtl mat_combined
o handle
vt 0.156250 0.781250
vt 0.171875 0.781250
vt 0.171875 1.000000
vt 0.156250 1.000000
f 4/1/1 7/2/1 5/3/1 2/4/1
vt 0.156250 0.781250
vt 0.171875 0.781250
vt 0.171875 1.000000
vt 0.156250 1.000000
f 3/5/2 4/6/2 2/7/2 1/8/2
vt 0.156250 0.781250
vt 0.171875 0.781250
vt 0.171875 1.000000
vt 0.156250 1.000000
f 8/9/3 3/10/3 1/11/3 6/12/3
vt 0.156250 0.781250
vt 0.171875 0.781250
vt 0.171875 1.000000
vt 0.156250 1.000000
f 7/13/4 8/14/4 6/15/4 5/16/4
vt 0.656250 0.437500
vt 0.671875 0.437500
vt 0.671875 0.468750
vt 0.656250 0.468750
f 7/17/5 4/18/5 3/19/5 8/20/5
vt 0.265625 0.812500
vt 0.296875 0.812500
vt 0.296875 1.000000
vt 0.265625 1.000000
f 12/21/6 15/22/6 13/23/6 10/24/6
vt 0.296875 0.812500
vt 0.312500 0.812500
vt 0.312500 1.000000
vt 0.296875 1.000000
f 11/25/7 12/26/7 10/27/7 9/28/7
vt 0.296875 0.812500
vt 0.265625 0.812500
vt 0.265625 1.000000
vt 0.296875 1.000000
f 16/29/8 11/30/8 9/31/8 14/32/8
vt 0.312500 0.812500
vt 0.296875 0.812500
vt 0.296875 1.000000
vt 0.312500 1.000000
f 15/33/9 16/34/9 14/35/9 13/36/9
vt 0.679688 0.375000
vt 0.679688 0.390625
vt 0.664062 0.390625
vt 0.664062 0.375000
f 14/37/10 9/38/10 10/39/10 13/40/10
vt 0.679688 0.375000
vt 0.687500 0.375000
vt 0.687500 0.390625
vt 0.679688 0.390625
f 15/41/11 12/42/11 11/43/11 16/44/11
o axle
vt 0.171875 0.781250
vt 0.187500 0.781250
vt 0.187500 1.000000
vt 0.171875 1.000000
f 20/45/12 23/46/12 21/47/12 18/48/12
vt 0.187500 0.781250
vt 0.203125 0.781250
vt 0.203125 1.000000
vt 0.187500 1.000000
f 19/49/13 20/50/13 18/51/13 17/52/13
vt 0.171875 0.781250
vt 0.187500 0.781250
vt 0.187500 1.000000
vt 0.171875 1.000000
f 24/53/14 19/54/14 17/55/14 22/56/14
vt 0.187500 0.781250
vt 0.203125 0.781250
vt 0.203125 1.000000
vt 0.187500 1.000000
f 23/57/15 24/58/15 22/59/15 21/60/15
vt 0.679688 0.375000
vt 0.687500 0.375000
vt 0.687500 0.390625
vt 0.679688 0.390625
f 22/61/16 17/62/16 18/63/16 21/64/16
vt 0.679688 0.375000
vt 0.687500 0.375000
vt 0.687500 0.390625
vt 0.679688 0.390625
f 23/65/17 20/66/17 19/67/17 24/68/17
o top thing
vt 0.671875 0.437500
vt 0.734375 0.437500
vt 0.734375 0.468750
vt 0.671875 0.468750
f 28/69/18 31/70/18 29/71/18 26/72/18
vt 0.734375 0.437500
vt 0.765625 0.437500
vt 0.765625 0.468750
vt 0.734375 0.468750
f 27/73/19 28/74/19 26/75/19 25/76/19
vt 0.734375 0.437500
vt 0.671875 0.437500
vt 0.671875 0.468750
vt 0.734375 0.468750
f 32/77/20 27/78/20 25/79/20 30/80/20
vt 0.796875 0.468750
vt 0.765625 0.468750
vt 0.765625 0.437500
vt 0.796875 0.437500
f 31/81/21 32/82/21 30/83/21 29/84/21
vt 0.273438 0.625000
vt 0.273438 0.750000
vt 0.242188 0.750000
vt 0.242188 0.625000
f 30/85/22 25/86/22 26/87/22 29/88/22
vt 0.304688 0.625000
vt 0.304688 0.750000
vt 0.273438 0.750000
vt 0.273438 0.625000
f 31/89/23 28/90/23 27/91/23 32/92/23
o bottom thing
vt 0.796875 0.468750
vt 0.843750 0.468750
vt 0.843750 0.437500
vt 0.796875 0.437500
f 36/93/24 39/94/24 37/95/24 34/96/24
vt 0.765625 0.468750
vt 0.734375 0.468750
vt 0.734375 0.437500
vt 0.765625 0.437500
f 35/97/25 36/98/25 34/99/25 33/100/25
vt 0.843750 0.468750
vt 0.796875 0.468750
vt 0.796875 0.437500
vt 0.843750 0.437500
f 40/101/26 35/102/26 33/103/26 38/104/26
vt 0.765625 0.437500
vt 0.796875 0.437500
vt 0.796875 0.468750
vt 0.765625 0.468750
f 39/105/27 40/106/27 38/107/27 37/108/27
vt 0.515625 0.531250
vt 0.515625 0.625000
vt 0.484375 0.625000
vt 0.484375 0.531250
f 38/109/28 33/110/28 34/111/28 37/112/28
vt 0.546875 0.531250
vt 0.546875 0.625000
vt 0.515625 0.625000
vt 0.515625 0.531250
f 39/113/29 36/114/29 35/115/29 40/116/29
o gear case top
vt 0.843750 0.437500
vt 0.906250 0.437500
vt 0.906250 0.468750
vt 0.843750 0.468750
f 44/117/30 47/118/30 45/119/30 42/120/30
vt 0.289062 0.468750
vt 0.289062 0.531250
vt 0.273438 0.531250
vt 0.273438 0.468750
f 43/121/31 44/122/31 42/123/31 41/124/31
vt 0.906250 0.437500
vt 0.843750 0.437500
vt 0.843750 0.468750
vt 0.906250 0.468750
f 48/125/32 43/126/32 41/127/32 46/128/32
vt 0.289062 0.468750
vt 0.289062 0.531250
vt 0.273438 0.531250
vt 0.273438 0.468750
f 47/129/33 48/130/33 46/131/33 45/132/33
vt 0.351562 0.531250
vt 0.289062 0.531250
vt 0.289062 0.468750
vt 0.351562 0.468750
f 46/133/34 41/134/34 42/135/34 45/136/34
vt 0.062500 0.468750
vt 0.000000 0.468750
vt 0.000000 0.421875
vt 0.062500 0.421875
f 47/137/35 44/138/35 43/139/35 48/140/35
o gear case
vt 0.906250 0.437500
vt 0.937500 0.437500
vt 0.937500 0.468750
vt 0.906250 0.468750
f 52/141/36 55/142/36 53/143/36 50/144/36
vt 0.906250 0.437500
vt 0.937500 0.437500
vt 0.937500 0.468750
vt 0.906250 0.468750
f 51/145/37 52/146/37 50/147/37 49/148/37
vt 0.906250 0.437500
vt 0.937500 0.437500
vt 0.937500 0.468750
vt 0.906250 0.468750
f 56/149/38 51/150/38 49/151/38 54/152/38
vt 0.906250 0.437500
vt 0.937500 0.437500
vt 0.937500 0.468750
vt 0.906250 0.468750
f 55/153/39 56/154/39 54/155/39 53/156/39
vt 0.351562 0.468750
vt 0.382812 0.468750
vt 0.382812 0.531250
vt 0.351562 0.531250
f 54/157/40 49/158/40 50/159/40 53/160/40
vt 0.351562 0.468750
vt 0.382812 0.468750
vt 0.382812 0.531250
vt 0.351562 0.531250
f 55/161/41 52/162/41 51/163/41 56/164/41
o Cog
vt 0.937500 0.437500
vt 0.953125 0.437500
vt 0.953125 0.468750
vt 0.937500 0.468750
f 60/165/42 63/166/42 61/167/42 58/168/42
vt 0.062500 0.421875
vt 0.000000 0.421875
vt 0.000000 0.390625
vt 0.062500 0.390625
f 59/169/43 60/170/43 58/171/43 57/172/43
vt 0.937500 0.437500
vt 0.953125 0.437500
vt 0.953125 0.468750
vt 0.937500 0.468750
f 64/173/44 59/174/44 57/175/44 62/176/44
vt 0.062500 0.421875
vt 0.000000 0.421875
vt 0.000000 0.390625
vt 0.062500 0.390625
f 63/177/45 64/178/45 62/179/45 61/180/45
vt 0.062500 0.390625
vt 0.062500 0.421875
vt 0.000000 0.421875
vt 0.000000 0.390625
f 62/181/46 57/182/46 58/183/46 61/184/46
vt 0.062500 0.390625
vt 0.062500 0.421875
vt 0.000000 0.421875
vt 0.000000 0.390625
f 63/185/47 60/186/47 59/187/47 64/188/47
vt 0.937500 0.437500
vt 0.953125 0.437500
vt 0.953125 0.468750
vt 0.937500 0.468750
f 68/189/48 71/190/48 69/191/48 66/192/48
vt 0.062500 0.421875
vt 0.000000 0.421875
vt 0.000000 0.390625
vt 0.062500 0.390625
f 67/193/49 68/194/49 66/195/49 65/196/49
vt 0.937500 0.437500
vt 0.953125 0.437500
vt 0.953125 0.468750
vt 0.937500 0.468750
f 72/197/50 67/198/50 65/199/50 70/200/50
vt 0.062500 0.421875
vt 0.000000 0.421875
vt 0.000000 0.390625
vt 0.062500 0.390625
f 71/201/51 72/202/51 70/203/51 69/204/51
vt 0.062500 0.390625
vt 0.062500 0.421875
vt 0.000000 0.421875
vt 0.000000 0.390625
f 70/205/52 65/206/52 66/207/52 69/208/52
vt 0.062500 0.390625
vt 0.062500 0.421875
vt 0.000000 0.421875
vt 0.000000 0.390625
f 71/209/53 68/210/53 67/211/53 72/212/53
vt 0.062500 0.421875
vt 0.000000 0.421875
vt 0.000000 0.390625
vt 0.062500 0.390625
f 76/213/54 79/214/54 77/215/54 74/216/54
vt 0.937500 0.437500
vt 0.953125 0.437500
vt 0.953125 0.468750
vt 0.937500 0.468750
f 75/217/55 76/218/55 74/219/55 73/220/55
vt 0.062500 0.421875
vt 0.000000 0.421875
vt 0.000000 0.390625
vt 0.062500 0.390625
f 80/221/56 75/222/56 73/223/56 78/224/56
vt 0.937500 0.437500
vt 0.953125 0.437500
vt 0.953125 0.468750
vt 0.937500 0.468750
f 79/225/57 80/226/57 78/227/57 77/228/57
vt 0.000000 0.390625
vt 0.062500 0.390625
vt 0.062500 0.421875
vt 0.000000 0.421875
f 78/229/58 73/230/58 74/231/58 77/232/58
vt 0.062500 0.421875
vt 0.000000 0.421875
vt 0.000000 0.390625
vt 0.062500 0.390625
f 79/233/59 76/234/59 75/235/59 80/236/59
vt 0.062500 0.421875
vt 0.000000 0.421875
vt 0.000000 0.390625
vt 0.062500 0.390625
f 84/237/60 87/238/60 85/239/60 82/240/60
vt 0.937500 0.437500
vt 0.953125 0.437500
vt 0.953125 0.468750
vt 0.937500 0.468750
f 83/241/61 84/242/61 82/243/61 81/244/61
vt 0.062500 0.421875
vt 0.000000 0.421875
vt 0.000000 0.390625
vt 0.062500 0.390625
f 88/245/62 83/246/62 81/247/62 86/248/62
vt 0.937500 0.437500
vt 0.953125 0.437500
vt 0.953125 0.468750
vt 0.937500 0.468750
f 87/249/63 88/250/63 86/251/63 85/252/63
vt 0.000000 0.390625
vt 0.062500 0.390625
vt 0.062500 0.421875
vt 0.000000 0.421875
f 86/253/64 81/254/64 82/255/64 85/256/64
vt 0.062500 0.421875
vt 0.000000 0.421875
vt 0.000000 0.390625
vt 0.062500 0.390625
f 87/257/65 84/258/65 83/259/65 88/260/65
