mtllib combined.mtl
v 7.0 12.0 1.0
v 8.0 12.0 1.0
v 8.0 13.0 1.0
v 7.0 13.0 1.0
v 8.0 12.0 0.0
v 7.0 12.0 0.0
v 7.0 13.0 0.0
v 8.0 13.0 0.0
v 7.0 13.0 1.0
v 8.0 13.0 1.0
v 8.0 13.0 0.0
v 7.0 13.0 0.0
v 8.0 12.0 1.0
v 8.0 12.0 0.0
v 8.0 13.0 0.0
v 8.0 13.0 1.0
v 7.0 12.0 0.0
v 7.0 12.0 1.0
v 7.0 13.0 1.0
v 7.0 13.0 0.0
v 5.0 11.0 1.0
v 6.0 11.0 1.0
v 6.0 12.0 1.0
v 5.0 12.0 1.0
v 6.0 11.0 0.0
v 5.0 11.0 0.0
v 5.0 12.0 0.0
v 6.0 12.0 0.0
v 5.0 12.0 1.0
v 6.0 12.0 1.0
v 6.0 12.0 0.0
v 5.0 12.0 0.0
v 5.0 11.0 0.0
v 5.0 11.0 1.0
v 5.0 12.0 1.0
v 5.0 12.0 0.0
v 6.0 11.0 1.0
v 7.0 11.0 1.0
v 7.0 12.0 1.0
v 6.0 12.0 1.0
v 7.0 11.0 0.0
v 6.0 11.0 0.0
v 6.0 12.0 0.0
v 7.0 12.0 0.0
v 6.0 12.0 1.0
v 7.0 12.0 1.0
v 7.0 12.0 0.0
v 6.0 12.0 0.0
v 7.0 11.0 1.0
v 8.0 11.0 1.0
v 8.0 12.0 1.0
v 7.0 12.0 1.0
v 8.0 11.0 0.0
v 7.0 11.0 0.0
v 7.0 12.0 0.0
v 8.0 12.0 0.0
v 7.0 11.0 0.0
v 8.0 11.0 0.0
v 8.0 11.0 1.0
v 7.0 11.0 1.0
v 8.0 11.0 1.0
v 8.0 11.0 0.0
v 8.0 12.0 0.0
v 8.0 12.0 1.0
v 4.0 10.0 1.0
v 5.0 10.0 1.0
v 5.0 11.0 1.0
v 4.0 11.0 1.0
v 5.0 10.0 0.0
v 4.0 10.0 0.0
v 4.0 11.0 0.0
v 5.0 11.0 0.0
v 4.0 11.0 1.0
v 5.0 11.0 1.0
v 5.0 11.0 0.0
v 4.0 11.0 0.0
v 4.0 10.0 0.0
v 4.0 10.0 1.0
v 4.0 11.0 1.0
v 4.0 11.0 0.0
v 5.0 10.0 1.0
v 6.0 10.0 1.0
v 6.0 11.0 1.0
v 5.0 11.0 1.0
v 6.0 10.0 0.0
v 5.0 10.0 0.0
v 5.0 11.0 0.0
v 6.0 11.0 0.0
v 5.0 10.0 0.0
v 6.0 10.0 0.0
v 6.0 10.0 1.0
v 5.0 10.0 1.0
v 6.0 10.0 1.0
v 7.0 10.0 1.0
v 7.0 11.0 1.0
v 6.0 11.0 1.0
v 7.0 10.0 0.0
v 6.0 10.0 0.0
v 6.0 11.0 0.0
v 7.0 11.0 0.0
v 6.0 10.0 0.0
v 7.0 10.0 0.0
v 7.0 10.0 1.0
v 6.0 10.0 1.0
v 7.0 10.0 1.0
v 7.0 10.0 0.0
v 7.0 11.0 0.0
v 7.0 11.0 1.0
v 3.0 9.0 1.0
v 4.0 9.0 1.0
v 4.0 10.0 1.0
v 3.0 10.0 1.0
v 4.0 9.0 0.0
v 3.0 9.0 0.0
v 3.0 10.0 0.0
v 4.0 10.0 0.0
v 3.0 10.0 1.0
v 4.0 10.0 1.0
v 4.0 10.0 0.0
v 3.0 10.0 0.0
v 3.0 9.0 0.0
v 4.0 9.0 0.0
v 4.0 9.0 1.0
v 3.0 9.0 1.0
v 3.0 9.0 0.0
v 3.0 9.0 1.0
v 3.0 10.0 1.0
v 3.0 10.0 0.0
v 4.0 9.0 1.0
v 5.0 9.0 1.0
v 5.0 10.0 1.0
v 4.0 10.0 1.0
v 5.0 9.0 0.0
v 4.0 9.0 0.0
v 4.0 10.0 0.0
v 5.0 10.0 0.0
v 4.0 9.0 0.0
v 5.0 9.0 0.0
v 5.0 9.0 1.0
v 4.0 9.0 1.0
v 5.0 9.0 1.0
v 5.0 9.0 0.0
v 5.0 10.0 0.0
v 5.0 10.0 1.0
v 8.0 12.0 1.0
v 9.0 12.0 1.0
v 9.0 13.0 1.0
v 8.0 13.0 1.0
v 9.0 12.0 0.0
v 8.0 12.0 0.0
v 8.0 13.0 0.0
v 9.0 13.0 0.0
v 8.0 13.0 1.0
v 9.0 13.0 1.0
v 9.0 13.0 0.0
v 8.0 13.0 0.0
v 8.0 12.0 0.0
v 8.0 12.0 1.0
v 8.0 13.0 1.0
v 8.0 13.0 0.0
v 9.0 12.0 1.0
v 10.0 12.0 1.0
v 10.0 13.0 1.0
v 9.0 13.0 1.0
v 10.0 12.0 0.0
v 9.0 12.0 0.0
v 9.0 13.0 0.0
v 10.0 13.0 0.0
v 9.0 13.0 1.0
v 10.0 13.0 1.0
v 10.0 13.0 0.0
v 9.0 13.0 0.0
v 10.0 12.0 1.0
v 11.0 12.0 1.0
v 11.0 13.0 1.0
v 10.0 13.0 1.0
v 11.0 12.0 0.0
v 10.0 12.0 0.0
v 10.0 13.0 0.0
v 11.0 13.0 0.0
v 10.0 13.0 1.0
v 11.0 13.0 1.0
v 11.0 13.0 0.0
v 10.0 13.0 0.0
v 11.0 12.0 1.0
v 12.0 12.0 1.0
v 12.0 13.0 1.0
v 11.0 13.0 1.0
v 12.0 12.0 0.0
v 11.0 12.0 0.0
v 11.0 13.0 0.0
v 12.0 13.0 0.0
v 11.0 13.0 1.0
v 12.0 13.0 1.0
v 12.0 13.0 0.0
v 11.0 13.0 0.0
v 12.0 12.0 1.0
v 12.0 12.0 0.0
v 12.0 13.0 0.0
v 12.0 13.0 1.0
v 8.0 11.0 1.0
v 9.0 11.0 1.0
v 9.0 12.0 1.0
v 8.0 12.0 1.0
v 9.0 11.0 0.0
v 8.0 11.0 0.0
v 8.0 12.0 0.0
v 9.0 12.0 0.0
v 8.0 11.0 0.0
v 8.0 11.0 1.0
v 8.0 12.0 1.0
v 8.0 12.0 0.0
v 9.0 11.0 1.0
v 10.0 11.0 1.0
v 10.0 12.0 1.0
v 9.0 12.0 1.0
v 10.0 11.0 0.0
v 9.0 11.0 0.0
v 9.0 12.0 0.0
v 10.0 12.0 0.0
v 10.0 11.0 1.0
v 11.0 11.0 1.0
v 11.0 12.0 1.0
v 10.0 12.0 1.0
v 11.0 11.0 0.0
v 10.0 11.0 0.0
v 10.0 12.0 0.0
v 11.0 12.0 0.0
v 11.0 11.0 1.0
v 12.0 11.0 1.0
v 12.0 12.0 1.0
v 11.0 12.0 1.0
v 12.0 11.0 0.0
v 11.0 11.0 0.0
v 11.0 12.0 0.0
v 12.0 12.0 0.0
v 12.0 11.0 1.0
v 13.0 11.0 1.0
v 13.0 12.0 1.0
v 12.0 12.0 1.0
v 13.0 11.0 0.0
v 12.0 11.0 0.0
v 12.0 12.0 0.0
v 13.0 12.0 0.0
v 12.0 12.0 1.0
v 13.0 12.0 1.0
v 13.0 12.0 0.0
v 12.0 12.0 0.0
v 13.0 11.0 1.0
v 13.0 11.0 0.0
v 13.0 12.0 0.0
v 13.0 12.0 1.0
v 8.0 10.0 1.0
v 9.0 10.0 1.0
v 9.0 11.0 1.0
v 8.0 11.0 1.0
v 9.0 10.0 0.0
v 8.0 10.0 0.0
v 8.0 11.0 0.0
v 9.0 11.0 0.0
v 8.0 10.0 0.0
v 9.0 10.0 0.0
v 9.0 10.0 1.0
v 8.0 10.0 1.0
v 8.0 10.0 0.0
v 8.0 10.0 1.0
v 8.0 11.0 1.0
v 8.0 11.0 0.0
v 9.0 10.0 1.0
v 10.0 10.0 1.0
v 10.0 11.0 1.0
v 9.0 11.0 1.0
v 10.0 10.0 0.0
v 9.0 10.0 0.0
v 9.0 11.0 0.0
v 10.0 11.0 0.0
v 10.0 10.0 1.0
v 11.0 10.0 1.0
v 11.0 11.0 1.0
v 10.0 11.0 1.0
v 11.0 10.0 0.0
v 10.0 10.0 0.0
v 10.0 11.0 0.0
v 11.0 11.0 0.0
v 11.0 10.0 1.0
v 12.0 10.0 1.0
v 12.0 11.0 1.0
v 11.0 11.0 1.0
v 12.0 10.0 0.0
v 11.0 10.0 0.0
v 11.0 11.0 0.0
v 12.0 11.0 0.0
v 12.0 10.0 1.0
v 13.0 10.0 1.0
v 13.0 11.0 1.0
v 12.0 11.0 1.0
v 13.0 10.0 0.0
v 12.0 10.0 0.0
v 12.0 11.0 0.0
v 13.0 11.0 0.0
v 13.0 10.0 1.0
v 14.0 10.0 1.0
v 14.0 11.0 1.0
v 13.0 11.0 1.0
v 14.0 10.0 0.0
v 13.0 10.0 0.0
v 13.0 11.0 0.0
v 14.0 11.0 0.0
v 13.0 11.0 1.0
v 14.0 11.0 1.0
v 14.0 11.0 0.0
v 13.0 11.0 0.0
v 14.0 10.0 1.0
v 14.0 10.0 0.0
v 14.0 11.0 0.0
v 14.0 11.0 1.0
v 9.0 9.0 1.0
v 10.0 9.0 1.0
v 10.0 10.0 1.0
v 9.0 10.0 1.0
v 10.0 9.0 0.0
v 9.0 9.0 0.0
v 9.0 10.0 0.0
v 10.0 10.0 0.0
v 9.0 9.0 0.0
v 10.0 9.0 0.0
v 10.0 9.0 1.0
v 9.0 9.0 1.0
v 9.0 9.0 0.0
v 9.0 9.0 1.0
v 9.0 10.0 1.0
v 9.0 10.0 0.0
v 10.0 9.0 1.0
v 11.0 9.0 1.0
v 11.0 10.0 1.0
v 10.0 10.0 1.0
v 11.0 9.0 0.0
v 10.0 9.0 0.0
v 10.0 10.0 0.0
v 11.0 10.0 0.0
v 11.0 9.0 1.0
v 12.0 9.0 1.0
v 12.0 10.0 1.0
v 11.0 10.0 1.0
v 12.0 9.0 0.0
v 11.0 9.0 0.0
v 11.0 10.0 0.0
v 12.0 10.0 0.0
v 12.0 9.0 1.0
v 13.0 9.0 1.0
v 13.0 10.0 1.0
v 12.0 10.0 1.0
v 13.0 9.0 0.0
v 12.0 9.0 0.0
v 12.0 10.0 0.0
v 13.0 10.0 0.0
v 13.0 9.0 1.0
v 14.0 9.0 1.0
v 14.0 10.0 1.0
v 13.0 10.0 1.0
v 14.0 9.0 0.0
v 13.0 9.0 0.0
v 13.0 10.0 0.0
v 14.0 10.0 0.0
v 14.0 9.0 1.0
v 14.0 9.0 0.0
v 14.0 10.0 0.0
v 14.0 10.0 1.0
v 10.0 8.0 1.0
v 11.0 8.0 1.0
v 11.0 9.0 1.0
v 10.0 9.0 1.0
v 11.0 8.0 0.0
v 10.0 8.0 0.0
v 10.0 9.0 0.0
v 11.0 9.0 0.0
v 10.0 8.0 0.0
v 11.0 8.0 0.0
v 11.0 8.0 1.0
v 10.0 8.0 1.0
v 10.0 8.0 0.0
v 10.0 8.0 1.0
v 10.0 9.0 1.0
v 10.0 9.0 0.0
v 11.0 8.0 1.0
v 12.0 8.0 1.0
v 12.0 9.0 1.0
v 11.0 9.0 1.0
v 12.0 8.0 0.0
v 11.0 8.0 0.0
v 11.0 9.0 0.0
v 12.0 9.0 0.0
v 12.0 8.0 1.0
v 13.0 8.0 1.0
v 13.0 9.0 1.0
v 12.0 9.0 1.0
v 13.0 8.0 0.0
v 12.0 8.0 0.0
v 12.0 9.0 0.0
v 13.0 9.0 0.0
v 13.0 8.0 1.0
v 14.0 8.0 1.0
v 14.0 9.0 1.0
v 13.0 9.0 1.0
v 14.0 8.0 0.0
v 13.0 8.0 0.0
v 13.0 9.0 0.0
v 14.0 9.0 0.0
v 14.0 8.0 1.0
v 15.0 8.0 1.0
v 15.0 9.0 1.0
v 14.0 9.0 1.0
v 15.0 8.0 0.0
v 14.0 8.0 0.0
v 14.0 9.0 0.0
v 15.0 9.0 0.0
v 14.0 9.0 1.0
v 15.0 9.0 1.0
v 15.0 9.0 0.0
v 14.0 9.0 0.0
v 15.0 8.0 1.0
v 15.0 8.0 0.0
v 15.0 9.0 0.0
v 15.0 9.0 1.0
v 11.0 7.0 1.0
v 12.0 7.0 1.0
v 12.0 8.0 1.0
v 11.0 8.0 1.0
v 12.0 7.0 0.0
v 11.0 7.0 0.0
v 11.0 8.0 0.0
v 12.0 8.0 0.0
v 11.0 7.0 0.0
v 12.0 7.0 0.0
v 12.0 7.0 1.0
v 11.0 7.0 1.0
v 11.0 7.0 0.0
v 11.0 7.0 1.0
v 11.0 8.0 1.0
v 11.0 8.0 0.0
v 12.0 7.0 1.0
v 13.0 7.0 1.0
v 13.0 8.0 1.0
v 12.0 8.0 1.0
v 13.0 7.0 0.0
v 12.0 7.0 0.0
v 12.0 8.0 0.0
v 13.0 8.0 0.0
v 12.0 7.0 0.0
v 13.0 7.0 0.0
v 13.0 7.0 1.0
v 12.0 7.0 1.0
v 13.0 7.0 1.0
v 14.0 7.0 1.0
v 14.0 8.0 1.0
v 13.0 8.0 1.0
v 14.0 7.0 0.0
v 13.0 7.0 0.0
v 13.0 8.0 0.0
v 14.0 8.0 0.0
v 13.0 7.0 0.0
v 14.0 7.0 0.0
v 14.0 7.0 1.0
v 13.0 7.0 1.0
v 14.0 7.0 1.0
v 15.0 7.0 1.0
v 15.0 8.0 1.0
v 14.0 8.0 1.0
v 15.0 7.0 0.0
v 14.0 7.0 0.0
v 14.0 8.0 0.0
v 15.0 8.0 0.0
v 15.0 7.0 1.0
v 15.0 7.0 0.0
v 15.0 8.0 0.0
v 15.0 8.0 1.0
v 14.0 6.0 1.0
v 15.0 6.0 1.0
v 15.0 7.0 1.0
v 14.0 7.0 1.0
v 15.0 6.0 0.0
v 14.0 6.0 0.0
v 14.0 7.0 0.0
v 15.0 7.0 0.0
v 14.0 6.0 0.0
v 15.0 6.0 0.0
v 15.0 6.0 1.0
v 14.0 6.0 1.0
v 15.0 6.0 1.0
v 15.0 6.0 0.0
v 15.0 7.0 0.0
v 15.0 7.0 1.0
v 14.0 6.0 0.0
v 14.0 6.0 1.0
v 14.0 7.0 1.0
v 14.0 7.0 0.0
v 7.0 10.0 1.0
v 8.0 10.0 1.0
v 8.0 11.0 1.0
v 7.0 11.0 1.0
v 8.0 10.0 0.0
v 7.0 10.0 0.0
v 7.0 11.0 0.0
v 8.0 11.0 0.0
v 7.0 11.0 1.0
v 8.0 11.0 1.0
v 8.0 11.0 0.0
v 7.0 11.0 0.0
v 8.0 10.0 1.0
v 8.0 10.0 0.0
v 8.0 11.0 0.0
v 8.0 11.0 1.0
v 7.0 10.0 0.0
v 7.0 10.0 1.0
v 7.0 11.0 1.0
v 7.0 11.0 0.0
v 5.0 9.0 1.0
v 6.0 9.0 1.0
v 6.0 10.0 1.0
v 5.0 10.0 1.0
v 6.0 9.0 0.0
v 5.0 9.0 0.0
v 5.0 10.0 0.0
v 6.0 10.0 0.0
v 5.0 10.0 1.0
v 6.0 10.0 1.0
v 6.0 10.0 0.0
v 5.0 10.0 0.0
v 5.0 9.0 0.0
v 5.0 9.0 1.0
v 5.0 10.0 1.0
v 5.0 10.0 0.0
v 6.0 9.0 1.0
v 7.0 9.0 1.0
v 7.0 10.0 1.0
v 6.0 10.0 1.0
v 7.0 9.0 0.0
v 6.0 9.0 0.0
v 6.0 10.0 0.0
v 7.0 10.0 0.0
v 6.0 10.0 1.0
v 7.0 10.0 1.0
v 7.0 10.0 0.0
v 6.0 10.0 0.0
v 7.0 9.0 1.0
v 8.0 9.0 1.0
v 8.0 10.0 1.0
v 7.0 10.0 1.0
v 8.0 9.0 0.0
v 7.0 9.0 0.0
v 7.0 10.0 0.0
v 8.0 10.0 0.0
v 8.0 9.0 1.0
v 9.0 9.0 1.0
v 9.0 10.0 1.0
v 8.0 10.0 1.0
v 9.0 9.0 0.0
v 8.0 9.0 0.0
v 8.0 10.0 0.0
v 9.0 10.0 0.0
v 8.0 10.0 1.0
v 9.0 10.0 1.0
v 9.0 10.0 0.0
v 8.0 10.0 0.0
v 9.0 9.0 1.0
v 9.0 9.0 0.0
v 9.0 10.0 0.0
v 9.0 10.0 1.0
v 3.0 8.0 1.0
v 4.0 8.0 1.0
v 4.0 9.0 1.0
v 3.0 9.0 1.0
v 4.0 8.0 0.0
v 3.0 8.0 0.0
v 3.0 9.0 0.0
v 4.0 9.0 0.0
v 3.0 9.0 1.0
v 4.0 9.0 1.0
v 4.0 9.0 0.0
v 3.0 9.0 0.0
v 3.0 8.0 0.0
v 3.0 8.0 1.0
v 3.0 9.0 1.0
v 3.0 9.0 0.0
v 4.0 8.0 1.0
v 5.0 8.0 1.0
v 5.0 9.0 1.0
v 4.0 9.0 1.0
v 5.0 8.0 0.0
v 4.0 8.0 0.0
v 4.0 9.0 0.0
v 5.0 9.0 0.0
v 4.0 9.0 1.0
v 5.0 9.0 1.0
v 5.0 9.0 0.0
v 4.0 9.0 0.0
v 5.0 8.0 1.0
v 6.0 8.0 1.0
v 6.0 9.0 1.0
v 5.0 9.0 1.0
v 6.0 8.0 0.0
v 5.0 8.0 0.0
v 5.0 9.0 0.0
v 6.0 9.0 0.0
v 6.0 8.0 1.0
v 7.0 8.0 1.0
v 7.0 9.0 1.0
v 6.0 9.0 1.0
v 7.0 8.0 0.0
v 6.0 8.0 0.0
v 6.0 9.0 0.0
v 7.0 9.0 0.0
v 7.0 8.0 1.0
v 8.0 8.0 1.0
v 8.0 9.0 1.0
v 7.0 9.0 1.0
v 8.0 8.0 0.0
v 7.0 8.0 0.0
v 7.0 9.0 0.0
v 8.0 9.0 0.0
v 8.0 8.0 1.0
v 9.0 8.0 1.0
v 9.0 9.0 1.0
v 8.0 9.0 1.0
v 9.0 8.0 0.0
v 8.0 8.0 0.0
v 8.0 9.0 0.0
v 9.0 9.0 0.0
v 9.0 8.0 1.0
v 10.0 8.0 1.0
v 10.0 9.0 1.0
v 9.0 9.0 1.0
v 10.0 8.0 0.0
v 9.0 8.0 0.0
v 9.0 9.0 0.0
v 10.0 9.0 0.0
v 9.0 9.0 1.0
v 10.0 9.0 1.0
v 10.0 9.0 0.0
v 9.0 9.0 0.0
v 10.0 8.0 1.0
v 10.0 8.0 0.0
v 10.0 9.0 0.0
v 10.0 9.0 1.0
v 2.0 7.0 1.0
v 3.0 7.0 1.0
v 3.0 8.0 1.0
v 2.0 8.0 1.0
v 3.0 7.0 0.0
v 2.0 7.0 0.0
v 2.0 8.0 0.0
v 3.0 8.0 0.0
v 2.0 8.0 1.0
v 3.0 8.0 1.0
v 3.0 8.0 0.0
v 2.0 8.0 0.0
v 2.0 7.0 0.0
v 2.0 7.0 1.0
v 2.0 8.0 1.0
v 2.0 8.0 0.0
v 3.0 7.0 1.0
v 4.0 7.0 1.0
v 4.0 8.0 1.0
v 3.0 8.0 1.0
v 4.0 7.0 0.0
v 3.0 7.0 0.0
v 3.0 8.0 0.0
v 4.0 8.0 0.0
v 4.0 7.0 1.0
v 5.0 7.0 1.0
v 5.0 8.0 1.0
v 4.0 8.0 1.0
v 5.0 7.0 0.0
v 4.0 7.0 0.0
v 4.0 8.0 0.0
v 5.0 8.0 0.0
v 5.0 7.0 1.0
v 6.0 7.0 1.0
v 6.0 8.0 1.0
v 5.0 8.0 1.0
v 6.0 7.0 0.0
v 5.0 7.0 0.0
v 5.0 8.0 0.0
v 6.0 8.0 0.0
v 6.0 7.0 1.0
v 7.0 7.0 1.0
v 7.0 8.0 1.0
v 6.0 8.0 1.0
v 7.0 7.0 0.0
v 6.0 7.0 0.0
v 6.0 8.0 0.0
v 7.0 8.0 0.0
v 7.0 7.0 1.0
v 8.0 7.0 1.0
v 8.0 8.0 1.0
v 7.0 8.0 1.0
v 8.0 7.0 0.0
v 7.0 7.0 0.0
v 7.0 8.0 0.0
v 8.0 8.0 0.0
v 8.0 7.0 1.0
v 9.0 7.0 1.0
v 9.0 8.0 1.0
v 8.0 8.0 1.0
v 9.0 7.0 0.0
v 8.0 7.0 0.0
v 8.0 8.0 0.0
v 9.0 8.0 0.0
v 9.0 7.0 1.0
v 10.0 7.0 1.0
v 10.0 8.0 1.0
v 9.0 8.0 1.0
v 10.0 7.0 0.0
v 9.0 7.0 0.0
v 9.0 8.0 0.0
v 10.0 8.0 0.0
v 9.0 7.0 0.0
v 10.0 7.0 0.0
v 10.0 7.0 1.0
v 9.0 7.0 1.0
v 10.0 7.0 1.0
v 10.0 7.0 0.0
v 10.0 8.0 0.0
v 10.0 8.0 1.0
v 2.0 6.0 1.0
v 3.0 6.0 1.0
v 3.0 7.0 1.0
v 2.0 7.0 1.0
v 3.0 6.0 0.0
v 2.0 6.0 0.0
v 2.0 7.0 0.0
v 3.0 7.0 0.0
v 2.0 6.0 0.0
v 2.0 6.0 1.0
v 2.0 7.0 1.0
v 2.0 7.0 0.0
v 3.0 6.0 1.0
v 4.0 6.0 1.0
v 4.0 7.0 1.0
v 3.0 7.0 1.0
v 4.0 6.0 0.0
v 3.0 6.0 0.0
v 3.0 7.0 0.0
v 4.0 7.0 0.0
v 4.0 6.0 1.0
v 5.0 6.0 1.0
v 5.0 7.0 1.0
v 4.0 7.0 1.0
v 5.0 6.0 0.0
v 4.0 6.0 0.0
v 4.0 7.0 0.0
v 5.0 7.0 0.0
v 5.0 6.0 1.0
v 6.0 6.0 1.0
v 6.0 7.0 1.0
v 5.0 7.0 1.0
v 6.0 6.0 0.0
v 5.0 6.0 0.0
v 5.0 7.0 0.0
v 6.0 7.0 0.0
v 6.0 6.0 1.0
v 7.0 6.0 1.0
v 7.0 7.0 1.0
v 6.0 7.0 1.0
v 7.0 6.0 0.0
v 6.0 6.0 0.0
v 6.0 7.0 0.0
v 7.0 7.0 0.0
v 7.0 6.0 1.0
v 8.0 6.0 1.0
v 8.0 7.0 1.0
v 7.0 7.0 1.0
v 8.0 6.0 0.0
v 7.0 6.0 0.0
v 7.0 7.0 0.0
v 8.0 7.0 0.0
v 8.0 6.0 1.0
v 9.0 6.0 1.0
v 9.0 7.0 1.0
v 8.0 7.0 1.0
v 9.0 6.0 0.0
v 8.0 6.0 0.0
v 8.0 7.0 0.0
v 9.0 7.0 0.0
v 8.0 6.0 0.0
v 9.0 6.0 0.0
v 9.0 6.0 1.0
v 8.0 6.0 1.0
v 9.0 6.0 1.0
v 9.0 6.0 0.0
v 9.0 7.0 0.0
v 9.0 7.0 1.0
v 2.0 5.0 1.0
v 3.0 5.0 1.0
v 3.0 6.0 1.0
v 2.0 6.0 1.0
v 3.0 5.0 0.0
v 2.0 5.0 0.0
v 2.0 6.0 0.0
v 3.0 6.0 0.0
v 2.0 5.0 0.0
v 2.0 5.0 1.0
v 2.0 6.0 1.0
v 2.0 6.0 0.0
v 3.0 5.0 1.0
v 4.0 5.0 1.0
v 4.0 6.0 1.0
v 3.0 6.0 1.0
v 4.0 5.0 0.0
v 3.0 5.0 0.0
v 3.0 6.0 0.0
v 4.0 6.0 0.0
v 4.0 5.0 1.0
v 5.0 5.0 1.0
v 5.0 6.0 1.0
v 4.0 6.0 1.0
v 5.0 5.0 0.0
v 4.0 5.0 0.0
v 4.0 6.0 0.0
v 5.0 6.0 0.0
v 5.0 5.0 1.0
v 6.0 5.0 1.0
v 6.0 6.0 1.0
v 5.0 6.0 1.0
v 6.0 5.0 0.0
v 5.0 5.0 0.0
v 5.0 6.0 0.0
v 6.0 6.0 0.0
v 6.0 5.0 1.0
v 7.0 5.0 1.0
v 7.0 6.0 1.0
v 6.0 6.0 1.0
v 7.0 5.0 0.0
v 6.0 5.0 0.0
v 6.0 6.0 0.0
v 7.0 6.0 0.0
v 7.0 5.0 1.0
v 8.0 5.0 1.0
v 8.0 6.0 1.0
v 7.0 6.0 1.0
v 8.0 5.0 0.0
v 7.0 5.0 0.0
v 7.0 6.0 0.0
v 8.0 6.0 0.0
v 8.0 5.0 1.0
v 8.0 5.0 0.0
v 8.0 6.0 0.0
v 8.0 6.0 1.0
v 2.0 4.0 1.0
v 3.0 4.0 1.0
v 3.0 5.0 1.0
v 2.0 5.0 1.0
v 3.0 4.0 0.0
v 2.0 4.0 0.0
v 2.0 5.0 0.0
v 3.0 5.0 0.0
v 2.0 4.0 0.0
v 3.0 4.0 0.0
v 3.0 4.0 1.0
v 2.0 4.0 1.0
v 2.0 4.0 0.0
v 2.0 4.0 1.0
v 2.0 5.0 1.0
v 2.0 5.0 0.0
v 3.0 4.0 1.0
v 4.0 4.0 1.0
v 4.0 5.0 1.0
v 3.0 5.0 1.0
v 4.0 4.0 0.0
v 3.0 4.0 0.0
v 3.0 5.0 0.0
v 4.0 5.0 0.0
v 4.0 4.0 1.0
v 5.0 4.0 1.0
v 5.0 5.0 1.0
v 4.0 5.0 1.0
v 5.0 4.0 0.0
v 4.0 4.0 0.0
v 4.0 5.0 0.0
v 5.0 5.0 0.0
v 5.0 4.0 1.0
v 6.0 4.0 1.0
v 6.0 5.0 1.0
v 5.0 5.0 1.0
v 6.0 4.0 0.0
v 5.0 4.0 0.0
v 5.0 5.0 0.0
v 6.0 5.0 0.0
v 6.0 4.0 1.0
v 7.0 4.0 1.0
v 7.0 5.0 1.0
v 6.0 5.0 1.0
v 7.0 4.0 0.0
v 6.0 4.0 0.0
v 6.0 5.0 0.0
v 7.0 5.0 0.0
v 7.0 4.0 1.0
v 8.0 4.0 1.0
v 8.0 5.0 1.0
v 7.0 5.0 1.0
v 8.0 4.0 0.0
v 7.0 4.0 0.0
v 7.0 5.0 0.0
v 8.0 5.0 0.0
v 7.0 4.0 0.0
v 8.0 4.0 0.0
v 8.0 4.0 1.0
v 7.0 4.0 1.0
v 8.0 4.0 1.0
v 8.0 4.0 0.0
v 8.0 5.0 0.0
v 8.0 5.0 1.0
v 3.0 3.0 1.0
v 4.0 3.0 1.0
v 4.0 4.0 1.0
v 3.0 4.0 1.0
v 4.0 3.0 0.0
v 3.0 3.0 0.0
v 3.0 4.0 0.0
v 4.0 4.0 0.0
v 3.0 3.0 0.0
v 4.0 3.0 0.0
v 4.0 3.0 1.0
v 3.0 3.0 1.0
v 3.0 3.0 0.0
v 3.0 3.0 1.0
v 3.0 4.0 1.0
v 3.0 4.0 0.0
v 4.0 3.0 1.0
v 5.0 3.0 1.0
v 5.0 4.0 1.0
v 4.0 4.0 1.0
v 5.0 3.0 0.0
v 4.0 3.0 0.0
v 4.0 4.0 0.0
v 5.0 4.0 0.0
v 5.0 3.0 1.0
v 6.0 3.0 1.0
v 6.0 4.0 1.0
v 5.0 4.0 1.0
v 6.0 3.0 0.0
v 5.0 3.0 0.0
v 5.0 4.0 0.0
v 6.0 4.0 0.0
v 6.0 3.0 1.0
v 7.0 3.0 1.0
v 7.0 4.0 1.0
v 6.0 4.0 1.0
v 7.0 3.0 0.0
v 6.0 3.0 0.0
v 6.0 4.0 0.0
v 7.0 4.0 0.0
v 7.0 3.0 1.0
v 7.0 3.0 0.0
v 7.0 4.0 0.0
v 7.0 4.0 1.0
v 4.0 2.0 1.0
v 5.0 2.0 1.0
v 5.0 3.0 1.0
v 4.0 3.0 1.0
v 5.0 2.0 0.0
v 4.0 2.0 0.0
v 4.0 3.0 0.0
v 5.0 3.0 0.0
v 4.0 2.0 0.0
v 5.0 2.0 0.0
v 5.0 2.0 1.0
v 4.0 2.0 1.0
v 4.0 2.0 0.0
v 4.0 2.0 1.0
v 4.0 3.0 1.0
v 4.0 3.0 0.0
v 5.0 2.0 1.0
v 6.0 2.0 1.0
v 6.0 3.0 1.0
v 5.0 3.0 1.0
v 6.0 2.0 0.0
v 5.0 2.0 0.0
v 5.0 3.0 0.0
v 6.0 3.0 0.0
v 6.0 2.0 1.0
v 7.0 2.0 1.0
v 7.0 3.0 1.0
v 6.0 3.0 1.0
v 7.0 2.0 0.0
v 6.0 2.0 0.0
v 6.0 3.0 0.0
v 7.0 3.0 0.0
v 6.0 2.0 0.0
v 7.0 2.0 0.0
v 7.0 2.0 1.0
v 6.0 2.0 1.0
v 7.0 2.0 1.0
v 7.0 2.0 0.0
v 7.0 3.0 0.0
v 7.0 3.0 1.0
v 5.0 1.0 1.0
v 6.0 1.0 1.0
v 6.0 2.0 1.0
v 5.0 2.0 1.0
v 6.0 1.0 0.0
v 5.0 1.0 0.0
v 5.0 2.0 0.0
v 6.0 2.0 0.0
v 5.0 1.0 0.0
v 6.0 1.0 0.0
v 6.0 1.0 1.0
v 5.0 1.0 1.0
v 6.0 1.0 1.0
v 6.0 1.0 0.0
v 6.0 2.0 0.0
v 6.0 2.0 1.0
v 5.0 1.0 0.0
v 5.0 1.0 1.0
v 5.0 2.0 1.0
v 5.0 2.0 0.0
v 10.0 7.0 1.0
v 11.0 7.0 1.0
v 11.0 8.0 1.0
v 10.0 8.0 1.0
v 11.0 7.0 0.0
v 10.0 7.0 0.0
v 10.0 8.0 0.0
v 11.0 8.0 0.0
v 10.0 8.0 1.0
v 11.0 8.0 1.0
v 11.0 8.0 0.0
v 10.0 8.0 0.0
v 11.0 7.0 1.0
v 11.0 7.0 0.0
v 11.0 8.0 0.0
v 11.0 8.0 1.0
v 10.0 7.0 0.0
v 10.0 7.0 1.0
v 10.0 8.0 1.0
v 10.0 8.0 0.0
v 9.0 6.0 1.0
v 10.0 6.0 1.0
v 10.0 7.0 1.0
v 9.0 7.0 1.0
v 10.0 6.0 0.0
v 9.0 6.0 0.0
v 9.0 7.0 0.0
v 10.0 7.0 0.0
v 9.0 7.0 1.0
v 10.0 7.0 1.0
v 10.0 7.0 0.0
v 9.0 7.0 0.0
v 9.0 6.0 0.0
v 9.0 6.0 1.0
v 9.0 7.0 1.0
v 9.0 7.0 0.0
v 10.0 6.0 1.0
v 11.0 6.0 1.0
v 11.0 7.0 1.0
v 10.0 7.0 1.0
v 11.0 6.0 0.0
v 10.0 6.0 0.0
v 10.0 7.0 0.0
v 11.0 7.0 0.0
v 11.0 6.0 1.0
v 12.0 6.0 1.0
v 12.0 7.0 1.0
v 11.0 7.0 1.0
v 12.0 6.0 0.0
v 11.0 6.0 0.0
v 11.0 7.0 0.0
v 12.0 7.0 0.0
v 11.0 7.0 1.0
v 12.0 7.0 1.0
v 12.0 7.0 0.0
v 11.0 7.0 0.0
v 12.0 6.0 1.0
v 13.0 6.0 1.0
v 13.0 7.0 1.0
v 12.0 7.0 1.0
v 13.0 6.0 0.0
v 12.0 6.0 0.0
v 12.0 7.0 0.0
v 13.0 7.0 0.0
v 12.0 7.0 1.0
v 13.0 7.0 1.0
v 13.0 7.0 0.0
v 12.0 7.0 0.0
v 13.0 6.0 1.0
v 14.0 6.0 1.0
v 14.0 7.0 1.0
v 13.0 7.0 1.0
v 14.0 6.0 0.0
v 13.0 6.0 0.0
v 13.0 7.0 0.0
v 14.0 7.0 0.0
v 13.0 7.0 1.0
v 14.0 7.0 1.0
v 14.0 7.0 0.0
v 13.0 7.0 0.0
v 14.0 6.0 1.0
v 14.0 6.0 0.0
v 14.0 7.0 0.0
v 14.0 7.0 1.0
v 8.0 5.0 1.0
v 9.0 5.0 1.0
v 9.0 6.0 1.0
v 8.0 6.0 1.0
v 9.0 5.0 0.0
v 8.0 5.0 0.0
v 8.0 6.0 0.0
v 9.0 6.0 0.0
v 8.0 6.0 1.0
v 9.0 6.0 1.0
v 9.0 6.0 0.0
v 8.0 6.0 0.0
v 8.0 5.0 0.0
v 8.0 5.0 1.0
v 8.0 6.0 1.0
v 8.0 6.0 0.0
v 9.0 5.0 1.0
v 10.0 5.0 1.0
v 10.0 6.0 1.0
v 9.0 6.0 1.0
v 10.0 5.0 0.0
v 9.0 5.0 0.0
v 9.0 6.0 0.0
v 10.0 6.0 0.0
v 10.0 5.0 1.0
v 11.0 5.0 1.0
v 11.0 6.0 1.0
v 10.0 6.0 1.0
v 11.0 5.0 0.0
v 10.0 5.0 0.0
v 10.0 6.0 0.0
v 11.0 6.0 0.0
v 11.0 5.0 1.0
v 12.0 5.0 1.0
v 12.0 6.0 1.0
v 11.0 6.0 1.0
v 12.0 5.0 0.0
v 11.0 5.0 0.0
v 11.0 6.0 0.0
v 12.0 6.0 0.0
v 12.0 5.0 1.0
v 13.0 5.0 1.0
v 13.0 6.0 1.0
v 12.0 6.0 1.0
v 13.0 5.0 0.0
v 12.0 5.0 0.0
v 12.0 6.0 0.0
v 13.0 6.0 0.0
v 13.0 5.0 1.0
v 14.0 5.0 1.0
v 14.0 6.0 1.0
v 13.0 6.0 1.0
v 14.0 5.0 0.0
v 13.0 5.0 0.0
v 13.0 6.0 0.0
v 14.0 6.0 0.0
v 14.0 5.0 1.0
v 15.0 5.0 1.0
v 15.0 6.0 1.0
v 14.0 6.0 1.0
v 15.0 5.0 0.0
v 14.0 5.0 0.0
v 14.0 6.0 0.0
v 15.0 6.0 0.0
v 14.0 6.0 1.0
v 15.0 6.0 1.0
v 15.0 6.0 0.0
v 14.0 6.0 0.0
v 14.0 5.0 0.0
v 15.0 5.0 0.0
v 15.0 5.0 1.0
v 14.0 5.0 1.0
v 15.0 5.0 1.0
v 15.0 5.0 0.0
v 15.0 6.0 0.0
v 15.0 6.0 1.0
v 8.0 4.0 1.0
v 9.0 4.0 1.0
v 9.0 5.0 1.0
v 8.0 5.0 1.0
v 9.0 4.0 0.0
v 8.0 4.0 0.0
v 8.0 5.0 0.0
v 9.0 5.0 0.0
v 8.0 4.0 0.0
v 8.0 4.0 1.0
v 8.0 5.0 1.0
v 8.0 5.0 0.0
v 9.0 4.0 1.0
v 10.0 4.0 1.0
v 10.0 5.0 1.0
v 9.0 5.0 1.0
v 10.0 4.0 0.0
v 9.0 4.0 0.0
v 9.0 5.0 0.0
v 10.0 5.0 0.0
v 10.0 4.0 1.0
v 11.0 4.0 1.0
v 11.0 5.0 1.0
v 10.0 5.0 1.0
v 11.0 4.0 0.0
v 10.0 4.0 0.0
v 10.0 5.0 0.0
v 11.0 5.0 0.0
v 11.0 4.0 1.0
v 12.0 4.0 1.0
v 12.0 5.0 1.0
v 11.0 5.0 1.0
v 12.0 4.0 0.0
v 11.0 4.0 0.0
v 11.0 5.0 0.0
v 12.0 5.0 0.0
v 12.0 4.0 1.0
v 13.0 4.0 1.0
v 13.0 5.0 1.0
v 12.0 5.0 1.0
v 13.0 4.0 0.0
v 12.0 4.0 0.0
v 12.0 5.0 0.0
v 13.0 5.0 0.0
v 13.0 4.0 1.0
v 14.0 4.0 1.0
v 14.0 5.0 1.0
v 13.0 5.0 1.0
v 14.0 4.0 0.0
v 13.0 4.0 0.0
v 13.0 5.0 0.0
v 14.0 5.0 0.0
v 13.0 4.0 0.0
v 14.0 4.0 0.0
v 14.0 4.0 1.0
v 13.0 4.0 1.0
v 14.0 4.0 1.0
v 14.0 4.0 0.0
v 14.0 5.0 0.0
v 14.0 5.0 1.0
v 7.0 3.0 1.0
v 8.0 3.0 1.0
v 8.0 4.0 1.0
v 7.0 4.0 1.0
v 8.0 3.0 0.0
v 7.0 3.0 0.0
v 7.0 4.0 0.0
v 8.0 4.0 0.0
v 7.0 4.0 1.0
v 8.0 4.0 1.0
v 8.0 4.0 0.0
v 7.0 4.0 0.0
v 7.0 3.0 0.0
v 7.0 3.0 1.0
v 7.0 4.0 1.0
v 7.0 4.0 0.0
v 8.0 3.0 1.0
v 9.0 3.0 1.0
v 9.0 4.0 1.0
v 8.0 4.0 1.0
v 9.0 3.0 0.0
v 8.0 3.0 0.0
v 8.0 4.0 0.0
v 9.0 4.0 0.0
v 9.0 3.0 1.0
v 10.0 3.0 1.0
v 10.0 4.0 1.0
v 9.0 4.0 1.0
v 10.0 3.0 0.0
v 9.0 3.0 0.0
v 9.0 4.0 0.0
v 10.0 4.0 0.0
v 10.0 3.0 1.0
v 11.0 3.0 1.0
v 11.0 4.0 1.0
v 10.0 4.0 1.0
v 11.0 3.0 0.0
v 10.0 3.0 0.0
v 10.0 4.0 0.0
v 11.0 4.0 0.0
v 11.0 3.0 1.0
v 12.0 3.0 1.0
v 12.0 4.0 1.0
v 11.0 4.0 1.0
v 12.0 3.0 0.0
v 11.0 3.0 0.0
v 11.0 4.0 0.0
v 12.0 4.0 0.0
v 11.0 3.0 0.0
v 12.0 3.0 0.0
v 12.0 3.0 1.0
v 11.0 3.0 1.0
v 12.0 3.0 1.0
v 13.0 3.0 1.0
v 13.0 4.0 1.0
v 12.0 4.0 1.0
v 13.0 3.0 0.0
v 12.0 3.0 0.0
v 12.0 4.0 0.0
v 13.0 4.0 0.0
v 12.0 3.0 0.0
v 13.0 3.0 0.0
v 13.0 3.0 1.0
v 12.0 3.0 1.0
v 13.0 3.0 1.0
v 13.0 3.0 0.0
v 13.0 4.0 0.0
v 13.0 4.0 1.0
v 7.0 2.0 1.0
v 8.0 2.0 1.0
v 8.0 3.0 1.0
v 7.0 3.0 1.0
v 8.0 2.0 0.0
v 7.0 2.0 0.0
v 7.0 3.0 0.0
v 8.0 3.0 0.0
v 7.0 2.0 0.0
v 7.0 2.0 1.0
v 7.0 3.0 1.0
v 7.0 3.0 0.0
v 8.0 2.0 1.0
v 9.0 2.0 1.0
v 9.0 3.0 1.0
v 8.0 3.0 1.0
v 9.0 2.0 0.0
v 8.0 2.0 0.0
v 8.0 3.0 0.0
v 9.0 3.0 0.0
v 9.0 2.0 1.0
v 10.0 2.0 1.0
v 10.0 3.0 1.0
v 9.0 3.0 1.0
v 10.0 2.0 0.0
v 9.0 2.0 0.0
v 9.0 3.0 0.0
v 10.0 3.0 0.0
v 9.0 2.0 0.0
v 10.0 2.0 0.0
v 10.0 2.0 1.0
v 9.0 2.0 1.0
v 10.0 2.0 1.0
v 11.0 2.0 1.0
v 11.0 3.0 1.0
v 10.0 3.0 1.0
v 11.0 2.0 0.0
v 10.0 2.0 0.0
v 10.0 3.0 0.0
v 11.0 3.0 0.0
v 10.0 2.0 0.0
v 11.0 2.0 0.0
v 11.0 2.0 1.0
v 10.0 2.0 1.0
v 11.0 2.0 1.0
v 11.0 2.0 0.0
v 11.0 3.0 0.0
v 11.0 3.0 1.0
v 6.0 1.0 1.0
v 7.0 1.0 1.0
v 7.0 2.0 1.0
v 6.0 2.0 1.0
v 7.0 1.0 0.0
v 6.0 1.0 0.0
v 6.0 2.0 0.0
v 7.0 2.0 0.0
v 6.0 2.0 1.0
v 7.0 2.0 1.0
v 7.0 2.0 0.0
v 6.0 2.0 0.0
v 6.0 1.0 0.0
v 7.0 1.0 0.0
v 7.0 1.0 1.0
v 6.0 1.0 1.0
v 6.0 1.0 0.0
v 6.0 1.0 1.0
v 6.0 2.0 1.0
v 6.0 2.0 0.0
v 7.0 1.0 1.0
v 8.0 1.0 1.0
v 8.0 2.0 1.0
v 7.0 2.0 1.0
v 8.0 1.0 0.0
v 7.0 1.0 0.0
v 7.0 2.0 0.0
v 8.0 2.0 0.0
v 7.0 1.0 0.0
v 8.0 1.0 0.0
v 8.0 1.0 1.0
v 7.0 1.0 1.0
v 8.0 1.0 1.0
v 9.0 1.0 1.0
v 9.0 2.0 1.0
v 8.0 2.0 1.0
v 9.0 1.0 0.0
v 8.0 1.0 0.0
v 8.0 2.0 0.0
v 9.0 2.0 0.0
v 8.0 1.0 0.0
v 9.0 1.0 0.0
v 9.0 1.0 1.0
v 8.0 1.0 1.0
v 9.0 1.0 1.0
v 9.0 1.0 0.0
v 9.0 2.0 0.0
v 9.0 2.0 1.0
vn 0.0 0.0 1.0
vn 0.0 0.0 -1.0
vn 0.0 1.0 0.0
vn 0.0 -1.0 0.0
vn 1.0 0.0 0.0
vn -1.0 0.0 0.0
usemtl mat_combined
o mesh_mask_1
vt 0.546875 0.406250
vt 0.554688 0.406250
vt 0.554688 0.421875
vt 0.546875 0.421875
f 1/1/1 2/2/1 3/3/1 4/4/1
vt 0.554688 0.406250
vt 0.546875 0.406250
vt 0.546875 0.421875
vt 0.554688 0.421875
f 5/5/2 6/6/2 7/7/2 8/8/2
vt 0.546875 0.406250
vt 0.554688 0.406250
vt 0.554688 0.421875
vt 0.546875 0.421875
f 9/9/3 10/10/3 11/11/3 12/12/3
vt 0.546875 0.406250
vt 0.554688 0.406250
vt 0.554688 0.421875
vt 0.546875 0.421875
f 13/13/5 14/14/5 15/15/5 16/16/5
vt 0.546875 0.406250
vt 0.554688 0.406250
vt 0.554688 0.421875
vt 0.546875 0.421875
f 17/17/6 18/18/6 19/19/6 20/20/6
vt 0.546875 0.406250
vt 0.554688 0.406250
vt 0.554688 0.421875
vt 0.546875 0.421875
f 21/21/1 22/22/1 23/23/1 24/24/1
vt 0.554688 0.406250
vt 0.546875 0.406250
vt 0.546875 0.421875
vt 0.554688 0.421875
f 25/25/2 26/26/2 27/27/2 28/28/2
vt 0.546875 0.406250
vt 0.554688 0.406250
vt 0.554688 0.421875
vt 0.546875 0.421875
f 29/29/3 30/30/3 31/31/3 32/32/3
vt 0.546875 0.406250
vt 0.554688 0.406250
vt 0.554688 0.421875
vt 0.546875 0.421875
f 33/33/6 34/34/6 35/35/6 36/36/6
vt 0.546875 0.406250
vt 0.554688 0.406250
vt 0.554688 0.421875
vt 0.546875 0.421875
f 37/37/1 38/38/1 39/39/1 40/40/1
vt 0.554688 0.406250
vt 0.546875 0.406250
vt 0.546875 0.421875
vt 0.554688 0.421875
f 41/41/2 42/42/2 43/43/2 44/44/2
vt 0.546875 0.406250
vt 0.554688 0.406250
vt 0.554688 0.421875
vt 0.546875 0.421875
f 45/45/3 46/46/3 47/47/3 48/48/3
vt 0.578125 0.406250
vt 0.585938 0.406250
vt 0.585938 0.421875
vt 0.578125 0.421875
f 49/49/1 50/50/1 51/51/1 52/52/1
vt 0.585938 0.406250
vt 0.578125 0.406250
vt 0.578125 0.421875
vt 0.585938 0.421875
f 53/53/2 54/54/2 55/55/2 56/56/2
vt 0.578125 0.406250
vt 0.585938 0.406250
vt 0.585938 0.421875
vt 0.578125 0.421875
f 57/57/4 58/58/4 59/59/4 60/60/4
vt 0.578125 0.406250
vt 0.585938 0.406250
vt 0.585938 0.421875
vt 0.578125 0.421875
f 61/61/5 62/62/5 63/63/5 64/64/5
vt 0.546875 0.406250
vt 0.554688 0.406250
vt 0.554688 0.421875
vt 0.546875 0.421875
f 65/65/1 66/66/1 67/67/1 68/68/1
vt 0.554688 0.406250
vt 0.546875 0.406250
vt 0.546875 0.421875
vt 0.554688 0.421875
f 69/69/2 70/70/2 71/71/2 72/72/2
vt 0.546875 0.406250
vt 0.554688 0.406250
vt 0.554688 0.421875
vt 0.546875 0.421875
f 73/73/3 74/74/3 75/75/3 76/76/3
vt 0.546875 0.406250
vt 0.554688 0.406250
vt 0.554688 0.421875
vt 0.546875 0.421875
f 77/77/6 78/78/6 79/79/6 80/80/6
vt 0.585938 0.406250
vt 0.593750 0.406250
vt 0.593750 0.421875
vt 0.585938 0.421875
f 81/81/1 82/82/1 83/83/1 84/84/1
vt 0.593750 0.406250
vt 0.585938 0.406250
vt 0.585938 0.421875
vt 0.593750 0.421875
f 85/85/2 86/86/2 87/87/2 88/88/2
vt 0.585938 0.406250
vt 0.593750 0.406250
vt 0.593750 0.421875
vt 0.585938 0.421875
f 89/89/4 90/90/4 91/91/4 92/92/4
vt 0.585938 0.406250
vt 0.593750 0.406250
vt 0.593750 0.421875
vt 0.585938 0.421875
f 93/93/1 94/94/1 95/95/1 96/96/1
vt 0.593750 0.406250
vt 0.585938 0.406250
vt 0.585938 0.421875
vt 0.593750 0.421875
f 97/97/2 98/98/2 99/99/2 100/100/2
vt 0.585938 0.406250
vt 0.593750 0.406250
vt 0.593750 0.421875
vt 0.585938 0.421875
f 101/101/4 102/102/4 103/103/4 104/104/4
vt 0.585938 0.406250
vt 0.593750 0.406250
vt 0.593750 0.421875
vt 0.585938 0.421875
f 105/105/5 106/106/5 107/107/5 108/108/5
vt 0.546875 0.406250
vt 0.554688 0.406250
vt 0.554688 0.421875
vt 0.546875 0.421875
f 109/109/1 110/110/1 111/111/1 112/112/1
vt 0.554688 0.406250
vt 0.546875 0.406250
vt 0.546875 0.421875
vt 0.554688 0.421875
f 113/113/2 114/114/2 115/115/2 116/116/2
vt 0.546875 0.406250
vt 0.554688 0.406250
vt 0.554688 0.421875
vt 0.546875 0.421875
f 117/117/3 118/118/3 119/119/3 120/120/3
vt 0.546875 0.406250
vt 0.554688 0.406250
vt 0.554688 0.421875
vt 0.546875 0.421875
f 121/121/4 122/122/4 123/123/4 124/124/4
vt 0.546875 0.406250
vt 0.554688 0.406250
vt 0.554688 0.421875
vt 0.546875 0.421875
f 125/125/6 126/126/6 127/127/6 128/128/6
vt 0.585938 0.406250
vt 0.593750 0.406250
vt 0.593750 0.421875
vt 0.585938 0.421875
f 129/129/1 130/130/1 131/131/1 132/132/1
vt 0.593750 0.406250
vt 0.585938 0.406250
vt 0.585938 0.421875
vt 0.593750 0.421875
f 133/133/2 134/134/2 135/135/2 136/136/2
vt 0.585938 0.406250
vt 0.593750 0.406250
vt 0.593750 0.421875
vt 0.585938 0.421875
f 137/137/4 138/138/4 139/139/4 140/140/4
vt 0.585938 0.406250
vt 0.593750 0.406250
vt 0.593750 0.421875
vt 0.585938 0.421875
f 141/141/5 142/142/5 143/143/5 144/144/5
o mesh_mask_2
vt 0.546875 0.406250
vt 0.554688 0.406250
vt 0.554688 0.421875
vt 0.546875 0.421875
f 145/145/1 146/146/1 147/147/1 148/148/1
vt 0.554688 0.406250
vt 0.546875 0.406250
vt 0.546875 0.421875
vt 0.554688 0.421875
f 149/149/2 150/150/2 151/151/2 152/152/2
vt 0.546875 0.406250
vt 0.554688 0.406250
vt 0.554688 0.421875
vt 0.546875 0.421875
f 153/153/3 154/154/3 155/155/3 156/156/3
vt 0.546875 0.406250
vt 0.554688 0.406250
vt 0.554688 0.421875
vt 0.546875 0.421875
f 157/157/6 158/158/6 159/159/6 160/160/6
vt 0.546875 0.406250
vt 0.554688 0.406250
vt 0.554688 0.421875
vt 0.546875 0.421875
f 161/161/1 162/162/1 163/163/1 164/164/1
vt 0.554688 0.406250
vt 0.546875 0.406250
vt 0.546875 0.421875
vt 0.554688 0.421875
f 165/165/2 166/166/2 167/167/2 168/168/2
vt 0.546875 0.406250
vt 0.554688 0.406250
vt 0.554688 0.421875
vt 0.546875 0.421875
f 169/169/3 170/170/3 171/171/3 172/172/3
vt 0.546875 0.406250
vt 0.554688 0.406250
vt 0.554688 0.421875
vt 0.546875 0.421875
f 173/173/1 174/174/1 175/175/1 176/176/1
vt 0.554688 0.406250
vt 0.546875 0.406250
vt 0.546875 0.421875
vt 0.554688 0.421875
f 177/177/2 178/178/2 179/179/2 180/180/2
vt 0.546875 0.406250
vt 0.554688 0.406250
vt 0.554688 0.421875
vt 0.546875 0.421875
f 181/181/3 182/182/3 183/183/3 184/184/3
vt 0.546875 0.406250
vt 0.554688 0.406250
vt 0.554688 0.421875
vt 0.546875 0.421875
f 185/185/1 186/186/1 187/187/1 188/188/1
vt 0.554688 0.406250
vt 0.546875 0.406250
vt 0.546875 0.421875
vt 0.554688 0.421875
f 189/189/2 190/190/2 191/191/2 192/192/2
vt 0.546875 0.406250
vt 0.554688 0.406250
vt 0.554688 0.421875
vt 0.546875 0.421875
f 193/193/3 194/194/3 195/195/3 196/196/3
vt 0.546875 0.406250
vt 0.554688 0.406250
vt 0.554688 0.421875
vt 0.546875 0.421875
f 197/197/5 198/198/5 199/199/5 200/200/5
vt 0.585938 0.406250
vt 0.593750 0.406250
vt 0.593750 0.421875
vt 0.585938 0.421875
f 201/201/1 202/202/1 203/203/1 204/204/1
vt 0.593750 0.406250
vt 0.585938 0.406250
vt 0.585938 0.421875
vt 0.593750 0.421875
f 205/205/2 206/206/2 207/207/2 208/208/2
vt 0.585938 0.406250
vt 0.593750 0.406250
vt 0.593750 0.421875
vt 0.585938 0.421875
f 209/209/6 210/210/6 211/211/6 212/212/6
vt 0.585938 0.406250
vt 0.593750 0.406250
vt 0.593750 0.421875
vt 0.585938 0.421875
f 213/213/1 214/214/1 215/215/1 216/216/1
vt 0.593750 0.406250
vt 0.585938 0.406250
vt 0.585938 0.421875
vt 0.593750 0.421875
f 217/217/2 218/218/2 219/219/2 220/220/2
vt 0.570312 0.406250
vt 0.578125 0.406250
vt 0.578125 0.421875
vt 0.570312 0.421875
f 221/221/1 222/222/1 223/223/1 224/224/1
vt 0.578125 0.406250
vt 0.570312 0.406250
vt 0.570312 0.421875
vt 0.578125 0.421875
f 225/225/2 226/226/2 227/227/2 228/228/2
vt 0.570312 0.406250
vt 0.578125 0.406250
vt 0.578125 0.421875
vt 0.570312 0.421875
f 229/229/1 230/230/1 231/231/1 232/232/1
vt 0.578125 0.406250
vt 0.570312 0.406250
vt 0.570312 0.421875
vt 0.578125 0.421875
f 233/233/2 234/234/2 235/235/2 236/236/2
vt 0.546875 0.406250
vt 0.554688 0.406250
vt 0.554688 0.421875
vt 0.546875 0.421875
f 237/237/1 238/238/1 239/239/1 240/240/1
vt 0.554688 0.406250
vt 0.546875 0.406250
vt 0.546875 0.421875
vt 0.554688 0.421875
f 241/241/2 242/242/2 243/243/2 244/244/2
vt 0.546875 0.406250
vt 0.554688 0.406250
vt 0.554688 0.421875
vt 0.546875 0.421875
f 245/245/3 246/246/3 247/247/3 248/248/3
vt 0.546875 0.406250
vt 0.554688 0.406250
vt 0.554688 0.421875
vt 0.546875 0.421875
f 249/249/5 250/250/5 251/251/5 252/252/5
vt 0.703125 0.406250
vt 0.710938 0.406250
vt 0.710938 0.421875
vt 0.703125 0.421875
f 253/253/1 254/254/1 255/255/1 256/256/1
vt 0.710938 0.406250
vt 0.703125 0.406250
vt 0.703125 0.421875
vt 0.710938 0.421875
f 257/257/2 258/258/2 259/259/2 260/260/2
vt 0.703125 0.406250
vt 0.710938 0.406250
vt 0.710938 0.421875
vt 0.703125 0.421875
f 261/261/4 262/262/4 263/263/4 264/264/4
vt 0.703125 0.406250
vt 0.710938 0.406250
vt 0.710938 0.421875
vt 0.703125 0.421875
f 265/265/6 266/266/6 267/267/6 268/268/6
vt 0.703125 0.406250
vt 0.710938 0.406250
vt 0.710938 0.421875
vt 0.703125 0.421875
f 269/269/1 270/270/1 271/271/1 272/272/1
vt 0.710938 0.406250
vt 0.703125 0.406250
vt 0.703125 0.421875
vt 0.710938 0.421875
f 273/273/2 274/274/2 275/275/2 276/276/2
vt 0.703125 0.406250
vt 0.710938 0.406250
vt 0.710938 0.421875
vt 0.703125 0.421875
f 277/277/1 278/278/1 279/279/1 280/280/1
vt 0.710938 0.406250
vt 0.703125 0.406250
vt 0.703125 0.421875
vt 0.710938 0.421875
f 281/281/2 282/282/2 283/283/2 284/284/2
vt 0.703125 0.406250
vt 0.710938 0.406250
vt 0.710938 0.421875
vt 0.703125 0.421875
f 285/285/1 286/286/1 287/287/1 288/288/1
vt 0.710938 0.406250
vt 0.703125 0.406250
vt 0.703125 0.421875
vt 0.710938 0.421875
f 289/289/2 290/290/2 291/291/2 292/292/2
vt 0.703125 0.406250
vt 0.710938 0.406250
vt 0.710938 0.421875
vt 0.703125 0.421875
f 293/293/1 294/294/1 295/295/1 296/296/1
vt 0.710938 0.406250
vt 0.703125 0.406250
vt 0.703125 0.421875
vt 0.710938 0.421875
f 297/297/2 298/298/2 299/299/2 300/300/2
vt 0.546875 0.406250
vt 0.554688 0.406250
vt 0.554688 0.421875
vt 0.546875 0.421875
f 301/301/1 302/302/1 303/303/1 304/304/1
vt 0.554688 0.406250
vt 0.546875 0.406250
vt 0.546875 0.421875
vt 0.554688 0.421875
f 305/305/2 306/306/2 307/307/2 308/308/2
vt 0.546875 0.406250
vt 0.554688 0.406250
vt 0.554688 0.421875
vt 0.546875 0.421875
f 309/309/3 310/310/3 311/311/3 312/312/3
vt 0.546875 0.406250
vt 0.554688 0.406250
vt 0.554688 0.421875
vt 0.546875 0.421875
f 313/313/5 314/314/5 315/315/5 316/316/5
vt 0.710938 0.406250
vt 0.718750 0.406250
vt 0.718750 0.421875
vt 0.710938 0.421875
f 317/317/1 318/318/1 319/319/1 320/320/1
vt 0.718750 0.406250
vt 0.710938 0.406250
vt 0.710938 0.421875
vt 0.718750 0.421875
f 321/321/2 322/322/2 323/323/2 324/324/2
vt 0.710938 0.406250
vt 0.718750 0.406250
vt 0.718750 0.421875
vt 0.710938 0.421875
f 325/325/4 326/326/4 327/327/4 328/328/4
vt 0.710938 0.406250
vt 0.718750 0.406250
vt 0.718750 0.421875
vt 0.710938 0.421875
f 329/329/6 330/330/6 331/331/6 332/332/6
vt 0.710938 0.406250
vt 0.718750 0.406250
vt 0.718750 0.421875
vt 0.710938 0.421875
f 333/333/1 334/334/1 335/335/1 336/336/1
vt 0.718750 0.406250
vt 0.710938 0.406250
vt 0.710938 0.421875
vt 0.718750 0.421875
f 337/337/2 338/338/2 339/339/2 340/340/2
vt 0.718750 0.406250
vt 0.726562 0.406250
vt 0.726562 0.421875
vt 0.718750 0.421875
f 341/341/1 342/342/1 343/343/1 344/344/1
vt 0.726562 0.406250
vt 0.718750 0.406250
vt 0.718750 0.421875
vt 0.726562 0.421875
f 345/345/2 346/346/2 347/347/2 348/348/2
vt 0.726562 0.406250
vt 0.734375 0.406250
vt 0.734375 0.421875
vt 0.726562 0.421875
f 349/349/1 350/350/1 351/351/1 352/352/1
vt 0.734375 0.406250
vt 0.726562 0.406250
vt 0.726562 0.421875
vt 0.734375 0.421875
f 353/353/2 354/354/2 355/355/2 356/356/2
vt 0.546875 0.406250
vt 0.554688 0.406250
vt 0.554688 0.421875
vt 0.546875 0.421875
f 357/357/1 358/358/1 359/359/1 360/360/1
vt 0.554688 0.406250
vt 0.546875 0.406250
vt 0.546875 0.421875
vt 0.554688 0.421875
f 361/361/2 362/362/2 363/363/2 364/364/2
vt 0.546875 0.406250
vt 0.554688 0.406250
vt 0.554688 0.421875
vt 0.546875 0.421875
f 365/365/5 366/366/5 367/367/5 368/368/5
vt 0.718750 0.406250
vt 0.726562 0.406250
vt 0.726562 0.421875
vt 0.718750 0.421875
f 369/369/1 370/370/1 371/371/1 372/372/1
vt 0.726562 0.406250
vt 0.718750 0.406250
vt 0.718750 0.421875
vt 0.726562 0.421875
f 373/373/2 374/374/2 375/375/2 376/376/2
vt 0.718750 0.406250
vt 0.726562 0.406250
vt 0.726562 0.421875
vt 0.718750 0.421875
f 377/377/4 378/378/4 379/379/4 380/380/4
vt 0.718750 0.406250
vt 0.726562 0.406250
vt 0.726562 0.421875
vt 0.718750 0.421875
f 381/381/6 382/382/6 383/383/6 384/384/6
vt 0.703125 0.406250
vt 0.710938 0.406250
vt 0.710938 0.421875
vt 0.703125 0.421875
f 385/385/1 386/386/1 387/387/1 388/388/1
vt 0.710938 0.406250
vt 0.703125 0.406250
vt 0.703125 0.421875
vt 0.710938 0.421875
f 389/389/2 390/390/2 391/391/2 392/392/2
vt 0.703125 0.406250
vt 0.710938 0.406250
vt 0.710938 0.421875
vt 0.703125 0.421875
f 393/393/1 394/394/1 395/395/1 396/396/1
vt 0.710938 0.406250
vt 0.703125 0.406250
vt 0.703125 0.421875
vt 0.710938 0.421875
f 397/397/2 398/398/2 399/399/2 400/400/2
vt 0.570312 0.406250
vt 0.578125 0.406250
vt 0.578125 0.421875
vt 0.570312 0.421875
f 401/401/1 402/402/1 403/403/1 404/404/1
vt 0.578125 0.406250
vt 0.570312 0.406250
vt 0.570312 0.421875
vt 0.578125 0.421875
f 405/405/2 406/406/2 407/407/2 408/408/2
vt 0.546875 0.406250
vt 0.554688 0.406250
vt 0.554688 0.421875
vt 0.546875 0.421875
f 409/409/1 410/410/1 411/411/1 412/412/1
vt 0.554688 0.406250
vt 0.546875 0.406250
vt 0.546875 0.421875
vt 0.554688 0.421875
f 413/413/2 414/414/2 415/415/2 416/416/2
vt 0.546875 0.406250
vt 0.554688 0.406250
vt 0.554688 0.421875
vt 0.546875 0.421875
f 417/417/3 418/418/3 419/419/3 420/420/3
vt 0.546875 0.406250
vt 0.554688 0.406250
vt 0.554688 0.421875
vt 0.546875 0.421875
f 421/421/5 422/422/5 423/423/5 424/424/5
vt 0.585938 0.406250
vt 0.593750 0.406250
vt 0.593750 0.421875
vt 0.585938 0.421875
f 425/425/1 426/426/1 427/427/1 428/428/1
vt 0.593750 0.406250
vt 0.585938 0.406250
vt 0.585938 0.421875
vt 0.593750 0.421875
f 429/429/2 430/430/2 431/431/2 432/432/2
vt 0.585938 0.406250
vt 0.593750 0.406250
vt 0.593750 0.421875
vt 0.585938 0.421875
f 433/433/4 434/434/4 435/435/4 436/436/4
vt 0.585938 0.406250
vt 0.593750 0.406250
vt 0.593750 0.421875
vt 0.585938 0.421875
f 437/437/6 438/438/6 439/439/6 440/440/6
vt 0.570312 0.406250
vt 0.578125 0.406250
vt 0.578125 0.421875
vt 0.570312 0.421875
f 441/441/1 442/442/1 443/443/1 444/444/1
vt 0.578125 0.406250
vt 0.570312 0.406250
vt 0.570312 0.421875
vt 0.578125 0.421875
f 445/445/2 446/446/2 447/447/2 448/448/2
vt 0.570312 0.406250
vt 0.578125 0.406250
vt 0.578125 0.421875
vt 0.570312 0.421875
f 449/449/4 450/450/4 451/451/4 452/452/4
vt 0.570312 0.406250
vt 0.578125 0.406250
vt 0.578125 0.421875
vt 0.570312 0.421875
f 453/453/1 454/454/1 455/455/1 456/456/1
vt 0.578125 0.406250
vt 0.570312 0.406250
vt 0.570312 0.421875
vt 0.578125 0.421875
f 457/457/2 458/458/2 459/459/2 460/460/2
vt 0.570312 0.406250
vt 0.578125 0.406250
vt 0.578125 0.421875
vt 0.570312 0.421875
f 461/461/4 462/462/4 463/463/4 464/464/4
vt 0.593750 0.406250
vt 0.601562 0.406250
vt 0.601562 0.421875
vt 0.593750 0.421875
f 465/465/1 466/466/1 467/467/1 468/468/1
vt 0.601562 0.406250
vt 0.593750 0.406250
vt 0.593750 0.421875
vt 0.601562 0.421875
f 469/469/2 470/470/2 471/471/2 472/472/2
vt 0.593750 0.406250
vt 0.601562 0.406250
vt 0.601562 0.421875
vt 0.593750 0.421875
f 473/473/5 474/474/5 475/475/5 476/476/5
vt 0.593750 0.406250
vt 0.601562 0.406250
vt 0.601562 0.421875
vt 0.593750 0.421875
f 477/477/1 478/478/1 479/479/1 480/480/1
vt 0.601562 0.406250
vt 0.593750 0.406250
vt 0.593750 0.421875
vt 0.601562 0.421875
f 481/481/2 482/482/2 483/483/2 484/484/2
vt 0.593750 0.406250
vt 0.601562 0.406250
vt 0.601562 0.421875
vt 0.593750 0.421875
f 485/485/4 486/486/4 487/487/4 488/488/4
vt 0.593750 0.406250
vt 0.601562 0.406250
vt 0.601562 0.421875
vt 0.593750 0.421875
f 489/489/5 490/490/5 491/491/5 492/492/5
vt 0.593750 0.406250
vt 0.601562 0.406250
vt 0.601562 0.421875
vt 0.593750 0.421875
f 493/493/6 494/494/6 495/495/6 496/496/6
o mesh_mask_3
vt 0.570312 0.406250
vt 0.578125 0.406250
vt 0.578125 0.421875
vt 0.570312 0.421875
f 497/497/1 498/498/1 499/499/1 500/500/1
vt 0.578125 0.406250
vt 0.570312 0.406250
vt 0.570312 0.421875
vt 0.578125 0.421875
f 501/501/2 502/502/2 503/503/2 504/504/2
vt 0.570312 0.406250
vt 0.578125 0.406250
vt 0.578125 0.421875
vt 0.570312 0.421875
f 505/505/3 506/506/3 507/507/3 508/508/3
vt 0.570312 0.406250
vt 0.578125 0.406250
vt 0.578125 0.421875
vt 0.570312 0.421875
f 509/509/5 510/510/5 511/511/5 512/512/5
vt 0.570312 0.406250
vt 0.578125 0.406250
vt 0.578125 0.421875
vt 0.570312 0.421875
f 513/513/6 514/514/6 515/515/6 516/516/6
vt 0.570312 0.406250
vt 0.578125 0.406250
vt 0.578125 0.421875
vt 0.570312 0.421875
f 517/517/1 518/518/1 519/519/1 520/520/1
vt 0.578125 0.406250
vt 0.570312 0.406250
vt 0.570312 0.421875
vt 0.578125 0.421875
f 521/521/2 522/522/2 523/523/2 524/524/2
vt 0.570312 0.406250
vt 0.578125 0.406250
vt 0.578125 0.421875
vt 0.570312 0.421875
f 525/525/3 526/526/3 527/527/3 528/528/3
vt 0.570312 0.406250
vt 0.578125 0.406250
vt 0.578125 0.421875
vt 0.570312 0.421875
f 529/529/6 530/530/6 531/531/6 532/532/6
vt 0.703125 0.406250
vt 0.710938 0.406250
vt 0.710938 0.421875
vt 0.703125 0.421875
f 533/533/1 534/534/1 535/535/1 536/536/1
vt 0.710938 0.406250
vt 0.703125 0.406250
vt 0.703125 0.421875
vt 0.710938 0.421875
f 537/537/2 538/538/2 539/539/2 540/540/2
vt 0.703125 0.406250
vt 0.710938 0.406250
vt 0.710938 0.421875
vt 0.703125 0.421875
f 541/541/3 542/542/3 543/543/3 544/544/3
vt 0.703125 0.406250
vt 0.710938 0.406250
vt 0.710938 0.421875
vt 0.703125 0.421875
f 545/545/1 546/546/1 547/547/1 548/548/1
vt 0.710938 0.406250
vt 0.703125 0.406250
vt 0.703125 0.421875
vt 0.710938 0.421875
f 549/549/2 550/550/2 551/551/2 552/552/2
vt 0.718750 0.406250
vt 0.726562 0.406250
vt 0.726562 0.421875
vt 0.718750 0.421875
f 553/553/1 554/554/1 555/555/1 556/556/1
vt 0.726562 0.406250
vt 0.718750 0.406250
vt 0.718750 0.421875
vt 0.726562 0.421875
f 557/557/2 558/558/2 559/559/2 560/560/2
vt 0.718750 0.406250
vt 0.726562 0.406250
vt 0.726562 0.421875
vt 0.718750 0.421875
f 561/561/3 562/562/3 563/563/3 564/564/3
vt 0.718750 0.406250
vt 0.726562 0.406250
vt 0.726562 0.421875
vt 0.718750 0.421875
f 565/565/5 566/566/5 567/567/5 568/568/5
vt 0.546875 0.406250
vt 0.554688 0.406250
vt 0.554688 0.421875
vt 0.546875 0.421875
f 569/569/1 570/570/1 571/571/1 572/572/1
vt 0.554688 0.406250
vt 0.546875 0.406250
vt 0.546875 0.421875
vt 0.554688 0.421875
f 573/573/2 574/574/2 575/575/2 576/576/2
vt 0.546875 0.406250
vt 0.554688 0.406250
vt 0.554688 0.421875
vt 0.546875 0.421875
f 577/577/3 578/578/3 579/579/3 580/580/3
vt 0.546875 0.406250
vt 0.554688 0.406250
vt 0.554688 0.421875
vt 0.546875 0.421875
f 581/581/6 582/582/6 583/583/6 584/584/6
vt 0.570312 0.406250
vt 0.578125 0.406250
vt 0.578125 0.421875
vt 0.570312 0.421875
f 585/585/1 586/586/1 587/587/1 588/588/1
vt 0.578125 0.406250
vt 0.570312 0.406250
vt 0.570312 0.421875
vt 0.578125 0.421875
f 589/589/2 590/590/2 591/591/2 592/592/2
vt 0.570312 0.406250
vt 0.578125 0.406250
vt 0.578125 0.421875
vt 0.570312 0.421875
f 593/593/3 594/594/3 595/595/3 596/596/3
vt 0.703125 0.406250
vt 0.710938 0.406250
vt 0.710938 0.421875
vt 0.703125 0.421875
f 597/597/1 598/598/1 599/599/1 600/600/1
vt 0.710938 0.406250
vt 0.703125 0.406250
vt 0.703125 0.421875
vt 0.710938 0.421875
f 601/601/2 602/602/2 603/603/2 604/604/2
vt 0.718750 0.406250
vt 0.726562 0.406250
vt 0.726562 0.421875
vt 0.718750 0.421875
f 605/605/1 606/606/1 607/607/1 608/608/1
vt 0.726562 0.406250
vt 0.718750 0.406250
vt 0.718750 0.421875
vt 0.726562 0.421875
f 609/609/2 610/610/2 611/611/2 612/612/2
vt 0.710938 0.406250
vt 0.718750 0.406250
vt 0.718750 0.421875
vt 0.710938 0.421875
f 613/613/1 614/614/1 615/615/1 616/616/1
vt 0.718750 0.406250
vt 0.710938 0.406250
vt 0.710938 0.421875
vt 0.718750 0.421875
f 617/617/2 618/618/2 619/619/2 620/620/2
vt 0.710938 0.406250
vt 0.718750 0.406250
vt 0.718750 0.421875
vt 0.710938 0.421875
f 621/621/1 622/622/1 623/623/1 624/624/1
vt 0.718750 0.406250
vt 0.710938 0.406250
vt 0.710938 0.421875
vt 0.718750 0.421875
f 625/625/2 626/626/2 627/627/2 628/628/2
vt 0.710938 0.406250
vt 0.718750 0.406250
vt 0.718750 0.421875
vt 0.710938 0.421875
f 629/629/1 630/630/1 631/631/1 632/632/1
vt 0.718750 0.406250
vt 0.710938 0.406250
vt 0.710938 0.421875
vt 0.718750 0.421875
f 633/633/2 634/634/2 635/635/2 636/636/2
vt 0.710938 0.406250
vt 0.718750 0.406250
vt 0.718750 0.421875
vt 0.710938 0.421875
f 637/637/3 638/638/3 639/639/3 640/640/3
vt 0.710938 0.406250
vt 0.718750 0.406250
vt 0.718750 0.421875
vt 0.710938 0.421875
f 641/641/5 642/642/5 643/643/5 644/644/5
vt 0.546875 0.406250
vt 0.554688 0.406250
vt 0.554688 0.421875
vt 0.546875 0.421875
f 645/645/1 646/646/1 647/647/1 648/648/1
vt 0.554688 0.406250
vt 0.546875 0.406250
vt 0.546875 0.421875
vt 0.554688 0.421875
f 649/649/2 650/650/2 651/651/2 652/652/2
vt 0.546875 0.406250
vt 0.554688 0.406250
vt 0.554688 0.421875
vt 0.546875 0.421875
f 653/653/3 654/654/3 655/655/3 656/656/3
vt 0.546875 0.406250
vt 0.554688 0.406250
vt 0.554688 0.421875
vt 0.546875 0.421875
f 657/657/6 658/658/6 659/659/6 660/660/6
vt 0.578125 0.406250
vt 0.585938 0.406250
vt 0.585938 0.421875
vt 0.578125 0.421875
f 661/661/1 662/662/1 663/663/1 664/664/1
vt 0.585938 0.406250
vt 0.578125 0.406250
vt 0.578125 0.421875
vt 0.585938 0.421875
f 665/665/2 666/666/2 667/667/2 668/668/2
vt 0.703125 0.406250
vt 0.710938 0.406250
vt 0.710938 0.421875
vt 0.703125 0.421875
f 669/669/1 670/670/1 671/671/1 672/672/1
vt 0.710938 0.406250
vt 0.703125 0.406250
vt 0.703125 0.421875
vt 0.710938 0.421875
f 673/673/2 674/674/2 675/675/2 676/676/2
vt 0.718750 0.406250
vt 0.726562 0.406250
vt 0.726562 0.421875
vt 0.718750 0.421875
f 677/677/1 678/678/1 679/679/1 680/680/1
vt 0.726562 0.406250
vt 0.718750 0.406250
vt 0.718750 0.421875
vt 0.726562 0.421875
f 681/681/2 682/682/2 683/683/2 684/684/2
vt 0.710938 0.406250
vt 0.718750 0.406250
vt 0.718750 0.421875
vt 0.710938 0.421875
f 685/685/1 686/686/1 687/687/1 688/688/1
vt 0.718750 0.406250
vt 0.710938 0.406250
vt 0.710938 0.421875
vt 0.718750 0.421875
f 689/689/2 690/690/2 691/691/2 692/692/2
vt 0.710938 0.406250
vt 0.718750 0.406250
vt 0.718750 0.421875
vt 0.710938 0.421875
f 693/693/1 694/694/1 695/695/1 696/696/1
vt 0.718750 0.406250
vt 0.710938 0.406250
vt 0.710938 0.421875
vt 0.718750 0.421875
f 697/697/2 698/698/2 699/699/2 700/700/2
vt 0.710938 0.406250
vt 0.718750 0.406250
vt 0.718750 0.421875
vt 0.710938 0.421875
f 701/701/1 702/702/1 703/703/1 704/704/1
vt 0.718750 0.406250
vt 0.710938 0.406250
vt 0.710938 0.421875
vt 0.718750 0.421875
f 705/705/2 706/706/2 707/707/2 708/708/2
vt 0.718750 0.406250
vt 0.726562 0.406250
vt 0.726562 0.421875
vt 0.718750 0.421875
f 709/709/1 710/710/1 711/711/1 712/712/1
vt 0.726562 0.406250
vt 0.718750 0.406250
vt 0.718750 0.421875
vt 0.726562 0.421875
f 713/713/2 714/714/2 715/715/2 716/716/2
vt 0.718750 0.406250
vt 0.726562 0.406250
vt 0.726562 0.421875
vt 0.718750 0.421875
f 717/717/4 718/718/4 719/719/4 720/720/4
vt 0.718750 0.406250
vt 0.726562 0.406250
vt 0.726562 0.421875
vt 0.718750 0.421875
f 721/721/5 722/722/5 723/723/5 724/724/5
vt 0.546875 0.406250
vt 0.554688 0.406250
vt 0.554688 0.421875
vt 0.546875 0.421875
f 725/725/1 726/726/1 727/727/1 728/728/1
vt 0.554688 0.406250
vt 0.546875 0.406250
vt 0.546875 0.421875
vt 0.554688 0.421875
f 729/729/2 730/730/2 731/731/2 732/732/2
vt 0.546875 0.406250
vt 0.554688 0.406250
vt 0.554688 0.421875
vt 0.546875 0.421875
f 733/733/6 734/734/6 735/735/6 736/736/6
vt 0.585938 0.406250
vt 0.593750 0.406250
vt 0.593750 0.421875
vt 0.585938 0.421875
f 737/737/1 738/738/1 739/739/1 740/740/1
vt 0.593750 0.406250
vt 0.585938 0.406250
vt 0.585938 0.421875
vt 0.593750 0.421875
f 741/741/2 742/742/2 743/743/2 744/744/2
vt 0.703125 0.406250
vt 0.710938 0.406250
vt 0.710938 0.421875
vt 0.703125 0.421875
f 745/745/1 746/746/1 747/747/1 748/748/1
vt 0.710938 0.406250
vt 0.703125 0.406250
vt 0.703125 0.421875
vt 0.710938 0.421875
f 749/749/2 750/750/2 751/751/2 752/752/2
vt 0.710938 0.406250
vt 0.718750 0.406250
vt 0.718750 0.421875
vt 0.710938 0.421875
f 753/753/1 754/754/1 755/755/1 756/756/1
vt 0.718750 0.406250
vt 0.710938 0.406250
vt 0.710938 0.421875
vt 0.718750 0.421875
f 757/757/2 758/758/2 759/759/2 760/760/2
vt 0.710938 0.406250
vt 0.718750 0.406250
vt 0.718750 0.421875
vt 0.710938 0.421875
f 761/761/1 762/762/1 763/763/1 764/764/1
vt 0.718750 0.406250
vt 0.710938 0.406250
vt 0.710938 0.421875
vt 0.718750 0.421875
f 765/765/2 766/766/2 767/767/2 768/768/2
vt 0.718750 0.406250
vt 0.726562 0.406250
vt 0.726562 0.421875
vt 0.718750 0.421875
f 769/769/1 770/770/1 771/771/1 772/772/1
vt 0.726562 0.406250
vt 0.718750 0.406250
vt 0.718750 0.421875
vt 0.726562 0.421875
f 773/773/2 774/774/2 775/775/2 776/776/2
vt 0.726562 0.406250
vt 0.734375 0.406250
vt 0.734375 0.421875
vt 0.726562 0.421875
f 777/777/1 778/778/1 779/779/1 780/780/1
vt 0.734375 0.406250
vt 0.726562 0.406250
vt 0.726562 0.421875
vt 0.734375 0.421875
f 781/781/2 782/782/2 783/783/2 784/784/2
vt 0.726562 0.406250
vt 0.734375 0.406250
vt 0.734375 0.421875
vt 0.726562 0.421875
f 785/785/4 786/786/4 787/787/4 788/788/4
vt 0.726562 0.406250
vt 0.734375 0.406250
vt 0.734375 0.421875
vt 0.726562 0.421875
f 789/789/5 790/790/5 791/791/5 792/792/5
vt 0.546875 0.406250
vt 0.554688 0.406250
vt 0.554688 0.421875
vt 0.546875 0.421875
f 793/793/1 794/794/1 795/795/1 796/796/1
vt 0.554688 0.406250
vt 0.546875 0.406250
vt 0.546875 0.421875
vt 0.554688 0.421875
f 797/797/2 798/798/2 799/799/2 800/800/2
vt 0.546875 0.406250
vt 0.554688 0.406250
vt 0.554688 0.421875
vt 0.546875 0.421875
f 801/801/6 802/802/6 803/803/6 804/804/6
vt 0.570312 0.406250
vt 0.578125 0.406250
vt 0.578125 0.421875
vt 0.570312 0.421875
f 805/805/1 806/806/1 807/807/1 808/808/1
vt 0.578125 0.406250
vt 0.570312 0.406250
vt 0.570312 0.421875
vt 0.578125 0.421875
f 809/809/2 810/810/2 811/811/2 812/812/2
vt 0.703125 0.406250
vt 0.710938 0.406250
vt 0.710938 0.421875
vt 0.703125 0.421875
f 813/813/1 814/814/1 815/815/1 816/816/1
vt 0.710938 0.406250
vt 0.703125 0.406250
vt 0.703125 0.421875
vt 0.710938 0.421875
f 817/817/2 818/818/2 819/819/2 820/820/2
vt 0.718750 0.406250
vt 0.726562 0.406250
vt 0.726562 0.421875
vt 0.718750 0.421875
f 821/821/1 822/822/1 823/823/1 824/824/1
vt 0.726562 0.406250
vt 0.718750 0.406250
vt 0.718750 0.421875
vt 0.726562 0.421875
f 825/825/2 826/826/2 827/827/2 828/828/2
vt 0.726562 0.406250
vt 0.734375 0.406250
vt 0.734375 0.421875
vt 0.726562 0.421875
f 829/829/1 830/830/1 831/831/1 832/832/1
vt 0.734375 0.406250
vt 0.726562 0.406250
vt 0.726562 0.421875
vt 0.734375 0.421875
f 833/833/2 834/834/2 835/835/2 836/836/2
vt 0.703125 0.406250
vt 0.710938 0.406250
vt 0.710938 0.421875
vt 0.703125 0.421875
f 837/837/1 838/838/1 839/839/1 840/840/1
vt 0.710938 0.406250
vt 0.703125 0.406250
vt 0.703125 0.421875
vt 0.710938 0.421875
f 841/841/2 842/842/2 843/843/2 844/844/2
vt 0.703125 0.406250
vt 0.710938 0.406250
vt 0.710938 0.421875
vt 0.703125 0.421875
f 845/845/5 846/846/5 847/847/5 848/848/5
vt 0.546875 0.406250
vt 0.554688 0.406250
vt 0.554688 0.421875
vt 0.546875 0.421875
f 849/849/1 850/850/1 851/851/1 852/852/1
vt 0.554688 0.406250
vt 0.546875 0.406250
vt 0.546875 0.421875
vt 0.554688 0.421875
f 853/853/2 854/854/2 855/855/2 856/856/2
vt 0.546875 0.406250
vt 0.554688 0.406250
vt 0.554688 0.421875
vt 0.546875 0.421875
f 857/857/4 858/858/4 859/859/4 860/860/4
vt 0.546875 0.406250
vt 0.554688 0.406250
vt 0.554688 0.421875
vt 0.546875 0.421875
f 861/861/6 862/862/6 863/863/6 864/864/6
vt 0.703125 0.406250
vt 0.710938 0.406250
vt 0.710938 0.421875
vt 0.703125 0.421875
f 865/865/1 866/866/1 867/867/1 868/868/1
vt 0.710938 0.406250
vt 0.703125 0.406250
vt 0.703125 0.421875
vt 0.710938 0.421875
f 869/869/2 870/870/2 871/871/2 872/872/2
vt 0.726562 0.406250
vt 0.734375 0.406250
vt 0.734375 0.421875
vt 0.726562 0.421875
f 873/873/1 874/874/1 875/875/1 876/876/1
vt 0.734375 0.406250
vt 0.726562 0.406250
vt 0.726562 0.421875
vt 0.734375 0.421875
f 877/877/2 878/878/2 879/879/2 880/880/2
vt 0.726562 0.406250
vt 0.734375 0.406250
vt 0.734375 0.421875
vt 0.726562 0.421875
f 881/881/1 882/882/1 883/883/1 884/884/1
vt 0.734375 0.406250
vt 0.726562 0.406250
vt 0.726562 0.421875
vt 0.734375 0.421875
f 885/885/2 886/886/2 887/887/2 888/888/2
vt 0.703125 0.406250
vt 0.710938 0.406250
vt 0.710938 0.421875
vt 0.703125 0.421875
f 889/889/1 890/890/1 891/891/1 892/892/1
vt 0.710938 0.406250
vt 0.703125 0.406250
vt 0.703125 0.421875
vt 0.710938 0.421875
f 893/893/2 894/894/2 895/895/2 896/896/2
vt 0.585938 0.406250
vt 0.593750 0.406250
vt 0.593750 0.421875
vt 0.585938 0.421875
f 897/897/1 898/898/1 899/899/1 900/900/1
vt 0.593750 0.406250
vt 0.585938 0.406250
vt 0.585938 0.421875
vt 0.593750 0.421875
f 901/901/2 902/902/2 903/903/2 904/904/2
vt 0.585938 0.406250
vt 0.593750 0.406250
vt 0.593750 0.421875
vt 0.585938 0.421875
f 905/905/4 906/906/4 907/907/4 908/908/4
vt 0.585938 0.406250
vt 0.593750 0.406250
vt 0.593750 0.421875
vt 0.585938 0.421875
f 909/909/5 910/910/5 911/911/5 912/912/5
vt 0.593750 0.406250
vt 0.601562 0.406250
vt 0.601562 0.421875
vt 0.593750 0.421875
f 913/913/1 914/914/1 915/915/1 916/916/1
vt 0.601562 0.406250
vt 0.593750 0.406250
vt 0.593750 0.421875
vt 0.601562 0.421875
f 917/917/2 918/918/2 919/919/2 920/920/2
vt 0.593750 0.406250
vt 0.601562 0.406250
vt 0.601562 0.421875
vt 0.593750 0.421875
f 921/921/4 922/922/4 923/923/4 924/924/4
vt 0.593750 0.406250
vt 0.601562 0.406250
vt 0.601562 0.421875
vt 0.593750 0.421875
f 925/925/6 926/926/6 927/927/6 928/928/6
vt 0.726562 0.406250
vt 0.734375 0.406250
vt 0.734375 0.421875
vt 0.726562 0.421875
f 929/929/1 930/930/1 931/931/1 932/932/1
vt 0.734375 0.406250
vt 0.726562 0.406250
vt 0.726562 0.421875
vt 0.734375 0.421875
f 933/933/2 934/934/2 935/935/2 936/936/2
vt 0.703125 0.406250
vt 0.710938 0.406250
vt 0.710938 0.421875
vt 0.703125 0.421875
f 937/937/1 938/938/1 939/939/1 940/940/1
vt 0.710938 0.406250
vt 0.703125 0.406250
vt 0.703125 0.421875
vt 0.710938 0.421875
f 941/941/2 942/942/2 943/943/2 944/944/2
vt 0.570312 0.406250
vt 0.578125 0.406250
vt 0.578125 0.421875
vt 0.570312 0.421875
f 945/945/1 946/946/1 947/947/1 948/948/1
vt 0.578125 0.406250
vt 0.570312 0.406250
vt 0.570312 0.421875
vt 0.578125 0.421875
f 949/949/2 950/950/2 951/951/2 952/952/2
vt 0.570312 0.406250
vt 0.578125 0.406250
vt 0.578125 0.421875
vt 0.570312 0.421875
f 953/953/5 954/954/5 955/955/5 956/956/5
vt 0.593750 0.406250
vt 0.601562 0.406250
vt 0.601562 0.421875
vt 0.593750 0.421875
f 957/957/1 958/958/1 959/959/1 960/960/1
vt 0.601562 0.406250
vt 0.593750 0.406250
vt 0.593750 0.421875
vt 0.601562 0.421875
f 961/961/2 962/962/2 963/963/2 964/964/2
vt 0.593750 0.406250
vt 0.601562 0.406250
vt 0.601562 0.421875
vt 0.593750 0.421875
f 965/965/4 966/966/4 967/967/4 968/968/4
vt 0.593750 0.406250
vt 0.601562 0.406250
vt 0.601562 0.421875
vt 0.593750 0.421875
f 969/969/6 970/970/6 971/971/6 972/972/6
vt 0.601562 0.406250
vt 0.609375 0.406250
vt 0.609375 0.421875
vt 0.601562 0.421875
f 973/973/1 974/974/1 975/975/1 976/976/1
vt 0.609375 0.406250
vt 0.601562 0.406250
vt 0.601562 0.421875
vt 0.609375 0.421875
f 977/977/2 978/978/2 979/979/2 980/980/2
vt 0.578125 0.406250
vt 0.585938 0.406250
vt 0.585938 0.421875
vt 0.578125 0.421875
f 981/981/1 982/982/1 983/983/1 984/984/1
vt 0.585938 0.406250
vt 0.578125 0.406250
vt 0.578125 0.421875
vt 0.585938 0.421875
f 985/985/2 986/986/2 987/987/2 988/988/2
vt 0.578125 0.406250
vt 0.585938 0.406250
vt 0.585938 0.421875
vt 0.578125 0.421875
f 989/989/4 990/990/4 991/991/4 992/992/4
vt 0.578125 0.406250
vt 0.585938 0.406250
vt 0.585938 0.421875
vt 0.578125 0.421875
f 993/993/5 994/994/5 995/995/5 996/996/5
vt 0.593750 0.406250
vt 0.601562 0.406250
vt 0.601562 0.421875
vt 0.593750 0.421875
f 997/997/1 998/998/1 999/999/1 1000/1000/1
vt 0.601562 0.406250
vt 0.593750 0.406250
vt 0.593750 0.421875
vt 0.601562 0.421875
f 1001/1001/2 1002/1002/2 1003/1003/2 1004/1004/2
vt 0.593750 0.406250
vt 0.601562 0.406250
vt 0.601562 0.421875
vt 0.593750 0.421875
f 1005/1005/4 1006/1006/4 1007/1007/4 1008/1008/4
vt 0.593750 0.406250
vt 0.601562 0.406250
vt 0.601562 0.421875
vt 0.593750 0.421875
f 1009/1009/5 1010/1010/5 1011/1011/5 1012/1012/5
vt 0.593750 0.406250
vt 0.601562 0.406250
vt 0.601562 0.421875
vt 0.593750 0.421875
f 1013/1013/6 1014/1014/6 1015/1015/6 1016/1016/6
o mesh_mask_4
vt 0.703125 0.406250
vt 0.710938 0.406250
vt 0.710938 0.421875
vt 0.703125 0.421875
f 1017/1017/1 1018/1018/1 1019/1019/1 1020/1020/1
vt 0.710938 0.406250
vt 0.703125 0.406250
vt 0.703125 0.421875
vt 0.710938 0.421875
f 1021/1021/2 1022/1022/2 1023/1023/2 1024/1024/2
vt 0.703125 0.406250
vt 0.710938 0.406250
vt 0.710938 0.421875
vt 0.703125 0.421875
f 1025/1025/3 1026/1026/3 1027/1027/3 1028/1028/3
vt 0.703125 0.406250
vt 0.710938 0.406250
vt 0.710938 0.421875
vt 0.703125 0.421875
f 1029/1029/5 1030/1030/5 1031/1031/5 1032/1032/5
vt 0.703125 0.406250
vt 0.710938 0.406250
vt 0.710938 0.421875
vt 0.703125 0.421875
f 1033/1033/6 1034/1034/6 1035/1035/6 1036/1036/6
vt 0.703125 0.406250
vt 0.710938 0.406250
vt 0.710938 0.421875
vt 0.703125 0.421875
f 1037/1037/1 1038/1038/1 1039/1039/1 1040/1040/1
vt 0.710938 0.406250
vt 0.703125 0.406250
vt 0.703125 0.421875
vt 0.710938 0.421875
f 1041/1041/2 1042/1042/2 1043/1043/2 1044/1044/2
vt 0.703125 0.406250
vt 0.710938 0.406250
vt 0.710938 0.421875
vt 0.703125 0.421875
f 1045/1045/3 1046/1046/3 1047/1047/3 1048/1048/3
vt 0.703125 0.406250
vt 0.710938 0.406250
vt 0.710938 0.421875
vt 0.703125 0.421875
f 1049/1049/6 1050/1050/6 1051/1051/6 1052/1052/6
vt 0.585938 0.406250
vt 0.593750 0.406250
vt 0.593750 0.421875
vt 0.585938 0.421875
f 1053/1053/1 1054/1054/1 1055/1055/1 1056/1056/1
vt 0.593750 0.406250
vt 0.585938 0.406250
vt 0.585938 0.421875
vt 0.593750 0.421875
f 1057/1057/2 1058/1058/2 1059/1059/2 1060/1060/2
vt 0.585938 0.406250
vt 0.593750 0.406250
vt 0.593750 0.421875
vt 0.585938 0.421875
f 1061/1061/1 1062/1062/1 1063/1063/1 1064/1064/1
vt 0.593750 0.406250
vt 0.585938 0.406250
vt 0.585938 0.421875
vt 0.593750 0.421875
f 1065/1065/2 1066/1066/2 1067/1067/2 1068/1068/2
vt 0.585938 0.406250
vt 0.593750 0.406250
vt 0.593750 0.421875
vt 0.585938 0.421875
f 1069/1069/3 1070/1070/3 1071/1071/3 1072/1072/3
vt 0.570312 0.406250
vt 0.578125 0.406250
vt 0.578125 0.421875
vt 0.570312 0.421875
f 1073/1073/1 1074/1074/1 1075/1075/1 1076/1076/1
vt 0.578125 0.406250
vt 0.570312 0.406250
vt 0.570312 0.421875
vt 0.578125 0.421875
f 1077/1077/2 1078/1078/2 1079/1079/2 1080/1080/2
vt 0.570312 0.406250
vt 0.578125 0.406250
vt 0.578125 0.421875
vt 0.570312 0.421875
f 1081/1081/3 1082/1082/3 1083/1083/3 1084/1084/3
vt 0.601562 0.406250
vt 0.609375 0.406250
vt 0.609375 0.421875
vt 0.601562 0.421875
f 1085/1085/1 1086/1086/1 1087/1087/1 1088/1088/1
vt 0.609375 0.406250
vt 0.601562 0.406250
vt 0.601562 0.421875
vt 0.609375 0.421875
f 1089/1089/2 1090/1090/2 1091/1091/2 1092/1092/2
vt 0.601562 0.406250
vt 0.609375 0.406250
vt 0.609375 0.421875
vt 0.601562 0.421875
f 1093/1093/3 1094/1094/3 1095/1095/3 1096/1096/3
vt 0.601562 0.406250
vt 0.609375 0.406250
vt 0.609375 0.421875
vt 0.601562 0.421875
f 1097/1097/5 1098/1098/5 1099/1099/5 1100/1100/5
vt 0.703125 0.406250
vt 0.710938 0.406250
vt 0.710938 0.421875
vt 0.703125 0.421875
f 1101/1101/1 1102/1102/1 1103/1103/1 1104/1104/1
vt 0.710938 0.406250
vt 0.703125 0.406250
vt 0.703125 0.421875
vt 0.710938 0.421875
f 1105/1105/2 1106/1106/2 1107/1107/2 1108/1108/2
vt 0.703125 0.406250
vt 0.710938 0.406250
vt 0.710938 0.421875
vt 0.703125 0.421875
f 1109/1109/3 1110/1110/3 1111/1111/3 1112/1112/3
vt 0.703125 0.406250
vt 0.710938 0.406250
vt 0.710938 0.421875
vt 0.703125 0.421875
f 1113/1113/6 1114/1114/6 1115/1115/6 1116/1116/6
vt 0.585938 0.406250
vt 0.593750 0.406250
vt 0.593750 0.421875
vt 0.585938 0.421875
f 1117/1117/1 1118/1118/1 1119/1119/1 1120/1120/1
vt 0.593750 0.406250
vt 0.585938 0.406250
vt 0.585938 0.421875
vt 0.593750 0.421875
f 1121/1121/2 1122/1122/2 1123/1123/2 1124/1124/2
vt 0.585938 0.406250
vt 0.593750 0.406250
vt 0.593750 0.421875
vt 0.585938 0.421875
f 1125/1125/1 1126/1126/1 1127/1127/1 1128/1128/1
vt 0.593750 0.406250
vt 0.585938 0.406250
vt 0.585938 0.421875
vt 0.593750 0.421875
f 1129/1129/2 1130/1130/2 1131/1131/2 1132/1132/2
vt 0.570312 0.406250
vt 0.578125 0.406250
vt 0.578125 0.421875
vt 0.570312 0.421875
f 1133/1133/1 1134/1134/1 1135/1135/1 1136/1136/1
vt 0.578125 0.406250
vt 0.570312 0.406250
vt 0.570312 0.421875
vt 0.578125 0.421875
f 1137/1137/2 1138/1138/2 1139/1139/2 1140/1140/2
vt 0.703125 0.406250
vt 0.710938 0.406250
vt 0.710938 0.421875
vt 0.703125 0.421875
f 1141/1141/1 1142/1142/1 1143/1143/1 1144/1144/1
vt 0.710938 0.406250
vt 0.703125 0.406250
vt 0.703125 0.421875
vt 0.710938 0.421875
f 1145/1145/2 1146/1146/2 1147/1147/2 1148/1148/2
vt 0.703125 0.406250
vt 0.710938 0.406250
vt 0.710938 0.421875
vt 0.703125 0.421875
f 1149/1149/1 1150/1150/1 1151/1151/1 1152/1152/1
vt 0.710938 0.406250
vt 0.703125 0.406250
vt 0.703125 0.421875
vt 0.710938 0.421875
f 1153/1153/2 1154/1154/2 1155/1155/2 1156/1156/2
vt 0.593750 0.406250
vt 0.601562 0.406250
vt 0.601562 0.421875
vt 0.593750 0.421875
f 1157/1157/1 1158/1158/1 1159/1159/1 1160/1160/1
vt 0.601562 0.406250
vt 0.593750 0.406250
vt 0.593750 0.421875
vt 0.601562 0.421875
f 1161/1161/2 1162/1162/2 1163/1163/2 1164/1164/2
vt 0.593750 0.406250
vt 0.601562 0.406250
vt 0.601562 0.421875
vt 0.593750 0.421875
f 1165/1165/3 1166/1166/3 1167/1167/3 1168/1168/3
vt 0.593750 0.406250
vt 0.601562 0.406250
vt 0.601562 0.421875
vt 0.593750 0.421875
f 1169/1169/4 1170/1170/4 1171/1171/4 1172/1172/4
vt 0.593750 0.406250
vt 0.601562 0.406250
vt 0.601562 0.421875
vt 0.593750 0.421875
f 1173/1173/5 1174/1174/5 1175/1175/5 1176/1176/5
vt 0.585938 0.406250
vt 0.593750 0.406250
vt 0.593750 0.421875
vt 0.585938 0.421875
f 1177/1177/1 1178/1178/1 1179/1179/1 1180/1180/1
vt 0.593750 0.406250
vt 0.585938 0.406250
vt 0.585938 0.421875
vt 0.593750 0.421875
f 1181/1181/2 1182/1182/2 1183/1183/2 1184/1184/2
vt 0.585938 0.406250
vt 0.593750 0.406250
vt 0.593750 0.421875
vt 0.585938 0.421875
f 1185/1185/6 1186/1186/6 1187/1187/6 1188/1188/6
vt 0.578125 0.406250
vt 0.585938 0.406250
vt 0.585938 0.421875
vt 0.578125 0.421875
f 1189/1189/1 1190/1190/1 1191/1191/1 1192/1192/1
vt 0.585938 0.406250
vt 0.578125 0.406250
vt 0.578125 0.421875
vt 0.585938 0.421875
f 1193/1193/2 1194/1194/2 1195/1195/2 1196/1196/2
vt 0.570312 0.406250
vt 0.578125 0.406250
vt 0.578125 0.421875
vt 0.570312 0.421875
f 1197/1197/1 1198/1198/1 1199/1199/1 1200/1200/1
vt 0.578125 0.406250
vt 0.570312 0.406250
vt 0.570312 0.421875
vt 0.578125 0.421875
f 1201/1201/2 1202/1202/2 1203/1203/2 1204/1204/2
vt 0.703125 0.406250
vt 0.710938 0.406250
vt 0.710938 0.421875
vt 0.703125 0.421875
f 1205/1205/1 1206/1206/1 1207/1207/1 1208/1208/1
vt 0.710938 0.406250
vt 0.703125 0.406250
vt 0.703125 0.421875
vt 0.710938 0.421875
f 1209/1209/2 1210/1210/2 1211/1211/2 1212/1212/2
vt 0.601562 0.406250
vt 0.609375 0.406250
vt 0.609375 0.421875
vt 0.601562 0.421875
f 1213/1213/1 1214/1214/1 1215/1215/1 1216/1216/1
vt 0.609375 0.406250
vt 0.601562 0.406250
vt 0.601562 0.421875
vt 0.609375 0.421875
f 1217/1217/2 1218/1218/2 1219/1219/2 1220/1220/2
vt 0.593750 0.406250
vt 0.601562 0.406250
vt 0.601562 0.421875
vt 0.593750 0.421875
f 1221/1221/1 1222/1222/1 1223/1223/1 1224/1224/1
vt 0.601562 0.406250
vt 0.593750 0.406250
vt 0.593750 0.421875
vt 0.601562 0.421875
f 1225/1225/2 1226/1226/2 1227/1227/2 1228/1228/2
vt 0.593750 0.406250
vt 0.601562 0.406250
vt 0.601562 0.421875
vt 0.593750 0.421875
f 1229/1229/4 1230/1230/4 1231/1231/4 1232/1232/4
vt 0.593750 0.406250
vt 0.601562 0.406250
vt 0.601562 0.421875
vt 0.593750 0.421875
f 1233/1233/5 1234/1234/5 1235/1235/5 1236/1236/5
vt 0.585938 0.406250
vt 0.593750 0.406250
vt 0.593750 0.421875
vt 0.585938 0.421875
f 1237/1237/1 1238/1238/1 1239/1239/1 1240/1240/1
vt 0.593750 0.406250
vt 0.585938 0.406250
vt 0.585938 0.421875
vt 0.593750 0.421875
f 1241/1241/2 1242/1242/2 1243/1243/2 1244/1244/2
vt 0.585938 0.406250
vt 0.593750 0.406250
vt 0.593750 0.421875
vt 0.585938 0.421875
f 1245/1245/3 1246/1246/3 1247/1247/3 1248/1248/3
vt 0.585938 0.406250
vt 0.593750 0.406250
vt 0.593750 0.421875
vt 0.585938 0.421875
f 1249/1249/6 1250/1250/6 1251/1251/6 1252/1252/6
vt 0.570312 0.406250
vt 0.578125 0.406250
vt 0.578125 0.421875
vt 0.570312 0.421875
f 1253/1253/1 1254/1254/1 1255/1255/1 1256/1256/1
vt 0.578125 0.406250
vt 0.570312 0.406250
vt 0.570312 0.421875
vt 0.578125 0.421875
f 1257/1257/2 1258/1258/2 1259/1259/2 1260/1260/2
vt 0.570312 0.406250
vt 0.578125 0.406250
vt 0.578125 0.421875
vt 0.570312 0.421875
f 1261/1261/1 1262/1262/1 1263/1263/1 1264/1264/1
vt 0.578125 0.406250
vt 0.570312 0.406250
vt 0.570312 0.421875
vt 0.578125 0.421875
f 1265/1265/2 1266/1266/2 1267/1267/2 1268/1268/2
vt 0.703125 0.406250
vt 0.710938 0.406250
vt 0.710938 0.421875
vt 0.703125 0.421875
f 1269/1269/1 1270/1270/1 1271/1271/1 1272/1272/1
vt 0.710938 0.406250
vt 0.703125 0.406250
vt 0.703125 0.421875
vt 0.710938 0.421875
f 1273/1273/2 1274/1274/2 1275/1275/2 1276/1276/2
vt 0.593750 0.406250
vt 0.601562 0.406250
vt 0.601562 0.421875
vt 0.593750 0.421875
f 1277/1277/1 1278/1278/1 1279/1279/1 1280/1280/1
vt 0.601562 0.406250
vt 0.593750 0.406250
vt 0.593750 0.421875
vt 0.601562 0.421875
f 1281/1281/2 1282/1282/2 1283/1283/2 1284/1284/2
vt 0.593750 0.406250
vt 0.601562 0.406250
vt 0.601562 0.421875
vt 0.593750 0.421875
f 1285/1285/4 1286/1286/4 1287/1287/4 1288/1288/4
vt 0.593750 0.406250
vt 0.601562 0.406250
vt 0.601562 0.421875
vt 0.593750 0.421875
f 1289/1289/1 1290/1290/1 1291/1291/1 1292/1292/1
vt 0.601562 0.406250
vt 0.593750 0.406250
vt 0.593750 0.421875
vt 0.601562 0.421875
f 1293/1293/2 1294/1294/2 1295/1295/2 1296/1296/2
vt 0.593750 0.406250
vt 0.601562 0.406250
vt 0.601562 0.421875
vt 0.593750 0.421875
f 1297/1297/4 1298/1298/4 1299/1299/4 1300/1300/4
vt 0.593750 0.406250
vt 0.601562 0.406250
vt 0.601562 0.421875
vt 0.593750 0.421875
f 1301/1301/5 1302/1302/5 1303/1303/5 1304/1304/5
vt 0.578125 0.406250
vt 0.585938 0.406250
vt 0.585938 0.421875
vt 0.578125 0.421875
f 1305/1305/1 1306/1306/1 1307/1307/1 1308/1308/1
vt 0.585938 0.406250
vt 0.578125 0.406250
vt 0.578125 0.421875
vt 0.585938 0.421875
f 1309/1309/2 1310/1310/2 1311/1311/2 1312/1312/2
vt 0.578125 0.406250
vt 0.585938 0.406250
vt 0.585938 0.421875
vt 0.578125 0.421875
f 1313/1313/6 1314/1314/6 1315/1315/6 1316/1316/6
vt 0.703125 0.406250
vt 0.710938 0.406250
vt 0.710938 0.421875
vt 0.703125 0.421875
f 1317/1317/1 1318/1318/1 1319/1319/1 1320/1320/1
vt 0.710938 0.406250
vt 0.703125 0.406250
vt 0.703125 0.421875
vt 0.710938 0.421875
f 1321/1321/2 1322/1322/2 1323/1323/2 1324/1324/2
vt 0.593750 0.406250
vt 0.601562 0.406250
vt 0.601562 0.421875
vt 0.593750 0.421875
f 1325/1325/1 1326/1326/1 1327/1327/1 1328/1328/1
vt 0.601562 0.406250
vt 0.593750 0.406250
vt 0.593750 0.421875
vt 0.601562 0.421875
f 1329/1329/2 1330/1330/2 1331/1331/2 1332/1332/2
vt 0.593750 0.406250
vt 0.601562 0.406250
vt 0.601562 0.421875
vt 0.593750 0.421875
f 1333/1333/4 1334/1334/4 1335/1335/4 1336/1336/4
vt 0.593750 0.406250
vt 0.601562 0.406250
vt 0.601562 0.421875
vt 0.593750 0.421875
f 1337/1337/1 1338/1338/1 1339/1339/1 1340/1340/1
vt 0.601562 0.406250
vt 0.593750 0.406250
vt 0.593750 0.421875
vt 0.601562 0.421875
f 1341/1341/2 1342/1342/2 1343/1343/2 1344/1344/2
vt 0.593750 0.406250
vt 0.601562 0.406250
vt 0.601562 0.421875
vt 0.593750 0.421875
f 1345/1345/4 1346/1346/4 1347/1347/4 1348/1348/4
vt 0.593750 0.406250
vt 0.601562 0.406250
vt 0.601562 0.421875
vt 0.593750 0.421875
f 1349/1349/5 1350/1350/5 1351/1351/5 1352/1352/5
vt 0.593750 0.406250
vt 0.601562 0.406250
vt 0.601562 0.421875
vt 0.593750 0.421875
f 1353/1353/1 1354/1354/1 1355/1355/1 1356/1356/1
vt 0.601562 0.406250
vt 0.593750 0.406250
vt 0.593750 0.421875
vt 0.601562 0.421875
f 1357/1357/2 1358/1358/2 1359/1359/2 1360/1360/2
vt 0.593750 0.406250
vt 0.601562 0.406250
vt 0.601562 0.421875
vt 0.593750 0.421875
f 1361/1361/3 1362/1362/3 1363/1363/3 1364/1364/3
vt 0.593750 0.406250
vt 0.601562 0.406250
vt 0.601562 0.421875
vt 0.593750 0.421875
f 1365/1365/4 1366/1366/4 1367/1367/4 1368/1368/4
vt 0.593750 0.406250
vt 0.601562 0.406250
vt 0.601562 0.421875
vt 0.593750 0.421875
f 1369/1369/6 1370/1370/6 1371/1371/6 1372/1372/6
vt 0.593750 0.406250
vt 0.601562 0.406250
vt 0.601562 0.421875
vt 0.593750 0.421875
f 1373/1373/1 1374/1374/1 1375/1375/1 1376/1376/1
vt 0.601562 0.406250
vt 0.593750 0.406250
vt 0.593750 0.421875
vt 0.601562 0.421875
f 1377/1377/2 1378/1378/2 1379/1379/2 1380/1380/2
vt 0.593750 0.406250
vt 0.601562 0.406250
vt 0.601562 0.421875
vt 0.593750 0.421875
f 1381/1381/4 1382/1382/4 1383/1383/4 1384/1384/4
vt 0.593750 0.406250
vt 0.601562 0.406250
vt 0.601562 0.421875
vt 0.593750 0.421875
f 1385/1385/1 1386/1386/1 1387/1387/1 1388/1388/1
vt 0.601562 0.406250
vt 0.593750 0.406250
vt 0.593750 0.421875
vt 0.601562 0.421875
f 1389/1389/2 1390/1390/2 1391/1391/2 1392/1392/2
vt 0.593750 0.406250
vt 0.601562 0.406250
vt 0.601562 0.421875
vt 0.593750 0.421875
f 1393/1393/4 1394/1394/4 1395/1395/4 1396/1396/4
vt 0.593750 0.406250
vt 0.601562 0.406250
vt 0.601562 0.421875
vt 0.593750 0.421875
f 1397/1397/5 1398/1398/5 1399/1399/5 1400/1400/5
