mtllib combined.mtl
v 0.125 1.4375 0.125
v 0.125 1.4375 -0.125
v 0.125 0.5 0.125
v 0.125 0.5 -0.125
v -0.125 1.4375 -0.125
v -0.125 1.4375 0.125
v -0.125 0.5 -0.125
v -0.125 0.5 0.125
v 0.125 0.5 0.125
v 0.125 0.5 -0.125
v 0.125 -0.4375 0.125
v 0.125 -0.4375 -0.125
v -0.125 0.5 -0.125
v -0.125 0.5 0.125
v -0.125 -0.4375 -0.125
v -0.125 -0.4375 0.125
v 0.125 1.5 0.125
v 0.125 1.5 -0.125
v 0.125 1.4375 0.125
v 0.125 1.4375 -0.125
v -0.125 1.5 -0.125
v -0.125 1.5 0.125
v -0.125 1.4375 -0.125
v -0.125 1.4375 0.125
v 0.125 -0.4375 0.125
v 0.125 -0.4375 -0.125
v 0.125 -0.5 0.125
v 0.125 -0.5 -0.125
v -0.125 -0.4375 -0.125
v -0.125 -0.4375 0.125
v -0.125 -0.5 -0.125
v -0.125 -0.5 0.125
vn 0.0 0.0 -1.0
vn 1.0 0.0 0.0
vn 0.0 0.0 1.0
vn -1.0 0.0 0.0
vn 0.0 0.0 -1.0
vn 1.0 0.0 0.0
vn 0.0 0.0 1.0
vn -1.0 0.0 0.0
vn 0.0 0.0 -1.0
vn 1.0 0.0 0.0
vn 0.0 0.0 1.0
vn -1.0 0.0 0.0
vn 0.0 1.0 0.0
vn 0.0 0.0 -1.0
vn 1.0 0.0 0.0
vn 0.0 0.0 1.0
vn -1.0 0.0 0.0
vn 0.0 -1.0 0.0
usemtl mat_combined
o cube
vt 0.031250 0.765625
vt 0.062500 0.765625
vt 0.062500 1.000000
vt 0.031250 1.000000
f 4/1/1 7/2/1 5/3/1 2/4/1
vt 0.062500 0.765625
vt 0.093750 0.765625
vt 0.093750 1.000000
vt 0.062500 1.000000
f 3/5/2 4/6/2 2/7/2 1/8/2
vt 0.031250 0.765625
vt 0.062500 0.765625
vt 0.062500 1.000000
vt 0.031250 1.000000
f 8/9/3 3/10/3 1/11/3 6/12/3
vt 0.062500 0.765625
vt 0.093750 0.765625
vt 0.093750 1.000000
vt 0.062500 1.000000
f 7/13/4 8/14/4 6/15/4 5/16/4
vt 0.093750 0.765625
vt 0.125000 0.765625
vt 0.125000 1.000000
vt 0.093750 1.000000
f 12/17/5 15/18/5 13/19/5 10/20/5
vt 0.125000 0.765625
vt 0.156250 0.765625
vt 0.156250 1.000000
vt 0.125000 1.000000
f 11/21/6 12/22/6 10/23/6 9/24/6
vt 0.093750 0.765625
vt 0.125000 0.765625
vt 0.125000 1.000000
vt 0.093750 1.000000
f 16/25/7 11/26/7 9/27/7 14/28/7
vt 0.125000 0.765625
vt 0.156250 0.765625
vt 0.156250 1.000000
vt 0.125000 1.000000
f 15/29/8 16/30/8 14/31/8 13/32/8
vt 0.789062 0.375000
vt 0.820312 0.375000
vt 0.820312 0.390625
vt 0.789062 0.390625
f 20/33/9 23/34/9 21/35/9 18/36/9
vt 0.820312 0.375000
vt 0.851562 0.375000
vt 0.851562 0.390625
vt 0.820312 0.390625
f 19/37/10 20/38/10 18/39/10 17/40/10
vt 0.789062 0.375000
vt 0.820312 0.375000
vt 0.820312 0.390625
vt 0.789062 0.390625
f 24/41/11 19/42/11 17/43/11 22/44/11
vt 0.820312 0.375000
vt 0.851562 0.375000
vt 0.851562 0.390625
vt 0.820312 0.390625
f 23/45/12 24/46/12 22/47/12 21/48/12
vt 0.414062 0.468750
vt 0.445312 0.468750
vt 0.445312 0.531250
vt 0.414062 0.531250
f 22/49/13 17/50/13 18/51/13 21/52/13
vt 0.851562 0.375000
vt 0.882812 0.375000
vt 0.882812 0.390625
vt 0.851562 0.390625
f 28/53/14 31/54/14 29/55/14 26/56/14
vt 0.789062 0.375000
vt 0.820312 0.375000
vt 0.820312 0.390625
vt 0.789062 0.390625
f 27/57/15 28/58/15 26/59/15 25/60/15
vt 0.851562 0.375000
vt 0.882812 0.375000
vt 0.882812 0.390625
vt 0.851562 0.390625
f 32/61/16 27/62/16 25/63/16 30/64/16
vt 0.789062 0.375000
vt 0.820312 0.375000
vt 0.820312 0.390625
vt 0.789062 0.390625
f 31/65/17 32/66/17 30/67/17 29/68/17
vt 0.414062 0.468750
vt 0.445312 0.468750
vt 0.445312 0.531250
vt 0.414062 0.531250
f 31/69/18 28/70/18 27/71/18 32/72/18
