mtllib combined.mtl
v 10.0 13.0 1.0
v 11.0 13.0 1.0
v 11.0 14.0 1.0
v 10.0 14.0 1.0
v 11.0 13.0 0.0
v 10.0 13.0 0.0
v 10.0 14.0 0.0
v 11.0 14.0 0.0
v 10.0 14.0 1.0
v 11.0 14.0 1.0
v 11.0 14.0 0.0
v 10.0 14.0 0.0
v 10.0 13.0 0.0
v 10.0 13.0 1.0
v 10.0 14.0 1.0
v 10.0 14.0 0.0
v 11.0 13.0 1.0
v 12.0 13.0 1.0
v 12.0 14.0 1.0
v 11.0 14.0 1.0
v 12.0 13.0 0.0
v 11.0 13.0 0.0
v 11.0 14.0 0.0
v 12.0 14.0 0.0
v 11.0 14.0 1.0
v 12.0 14.0 1.0
v 12.0 14.0 0.0
v 11.0 14.0 0.0
v 12.0 13.0 1.0
v 12.0 13.0 0.0
v 12.0 14.0 0.0
v 12.0 14.0 1.0
v 9.0 12.0 1.0
v 10.0 12.0 1.0
v 10.0 13.0 1.0
v 9.0 13.0 1.0
v 10.0 12.0 0.0
v 9.0 12.0 0.0
v 9.0 13.0 0.0
v 10.0 13.0 0.0
v 9.0 13.0 1.0
v 10.0 13.0 1.0
v 10.0 13.0 0.0
v 9.0 13.0 0.0
v 9.0 12.0 0.0
v 9.0 12.0 1.0
v 9.0 13.0 1.0
v 9.0 13.0 0.0
v 10.0 12.0 1.0
v 11.0 12.0 1.0
v 11.0 13.0 1.0
v 10.0 13.0 1.0
v 11.0 12.0 0.0
v 10.0 12.0 0.0
v 10.0 13.0 0.0
v 11.0 13.0 0.0
v 11.0 12.0 1.0
v 12.0 12.0 1.0
v 12.0 13.0 1.0
v 11.0 13.0 1.0
v 12.0 12.0 0.0
v 11.0 12.0 0.0
v 11.0 13.0 0.0
v 12.0 13.0 0.0
v 12.0 12.0 1.0
v 13.0 12.0 1.0
v 13.0 13.0 1.0
v 12.0 13.0 1.0
v 13.0 12.0 0.0
v 12.0 12.0 0.0
v 12.0 13.0 0.0
v 13.0 13.0 0.0
v 12.0 13.0 1.0
v 13.0 13.0 1.0
v 13.0 13.0 0.0
v 12.0 13.0 0.0
v 13.0 12.0 1.0
v 13.0 12.0 0.0
v 13.0 13.0 0.0
v 13.0 13.0 1.0
v 8.0 11.0 1.0
v 9.0 11.0 1.0
v 9.0 12.0 1.0
v 8.0 12.0 1.0
v 9.0 11.0 0.0
v 8.0 11.0 0.0
v 8.0 12.0 0.0
v 9.0 12.0 0.0
v 8.0 12.0 1.0
v 9.0 12.0 1.0
v 9.0 12.0 0.0
v 8.0 12.0 0.0
v 8.0 11.0 0.0
v 8.0 11.0 1.0
v 8.0 12.0 1.0
v 8.0 12.0 0.0
v 9.0 11.0 1.0
v 10.0 11.0 1.0
v 10.0 12.0 1.0
v 9.0 12.0 1.0
v 10.0 11.0 0.0
v 9.0 11.0 0.0
v 9.0 12.0 0.0
v 10.0 12.0 0.0
v 10.0 11.0 1.0
v 11.0 11.0 1.0
v 11.0 12.0 1.0
v 10.0 12.0 1.0
v 11.0 11.0 0.0
v 10.0 11.0 0.0
v 10.0 12.0 0.0
v 11.0 12.0 0.0
v 11.0 11.0 1.0
v 12.0 11.0 1.0
v 12.0 12.0 1.0
v 11.0 12.0 1.0
v 12.0 11.0 0.0
v 11.0 11.0 0.0
v 11.0 12.0 0.0
v 12.0 12.0 0.0
v 12.0 11.0 1.0
v 13.0 11.0 1.0
v 13.0 12.0 1.0
v 12.0 12.0 1.0
v 13.0 11.0 0.0
v 12.0 11.0 0.0
v 12.0 12.0 0.0
v 13.0 12.0 0.0
v 13.0 11.0 1.0
v 14.0 11.0 1.0
v 14.0 12.0 1.0
v 13.0 12.0 1.0
v 14.0 11.0 0.0
v 13.0 11.0 0.0
v 13.0 12.0 0.0
v 14.0 12.0 0.0
v 13.0 12.0 1.0
v 14.0 12.0 1.0
v 14.0 12.0 0.0
v 13.0 12.0 0.0
v 14.0 11.0 1.0
v 14.0 11.0 0.0
v 14.0 12.0 0.0
v 14.0 12.0 1.0
v 8.0 10.0 1.0
v 9.0 10.0 1.0
v 9.0 11.0 1.0
v 8.0 11.0 1.0
v 9.0 10.0 0.0
v 8.0 10.0 0.0
v 8.0 11.0 0.0
v 9.0 11.0 0.0
v 8.0 10.0 0.0
v 9.0 10.0 0.0
v 9.0 10.0 1.0
v 8.0 10.0 1.0
v 8.0 10.0 0.0
v 8.0 10.0 1.0
v 8.0 11.0 1.0
v 8.0 11.0 0.0
v 9.0 10.0 1.0
v 10.0 10.0 1.0
v 10.0 11.0 1.0
v 9.0 11.0 1.0
v 10.0 10.0 0.0
v 9.0 10.0 0.0
v 9.0 11.0 0.0
v 10.0 11.0 0.0
v 10.0 10.0 1.0
v 11.0 10.0 1.0
v 11.0 11.0 1.0
v 10.0 11.0 1.0
v 11.0 10.0 0.0
v 10.0 10.0 0.0
v 10.0 11.0 0.0
v 11.0 11.0 0.0
v 11.0 10.0 1.0
v 12.0 10.0 1.0
v 12.0 11.0 1.0
v 11.0 11.0 1.0
v 12.0 10.0 0.0
v 11.0 10.0 0.0
v 11.0 11.0 0.0
v 12.0 11.0 0.0
v 12.0 10.0 1.0
v 13.0 10.0 1.0
v 13.0 11.0 1.0
v 12.0 11.0 1.0
v 13.0 10.0 0.0
v 12.0 10.0 0.0
v 12.0 11.0 0.0
v 13.0 11.0 0.0
v 13.0 10.0 1.0
v 14.0 10.0 1.0
v 14.0 11.0 1.0
v 13.0 11.0 1.0
v 14.0 10.0 0.0
v 13.0 10.0 0.0
v 13.0 11.0 0.0
v 14.0 11.0 0.0
v 14.0 10.0 1.0
v 14.0 10.0 0.0
v 14.0 11.0 0.0
v 14.0 11.0 1.0
v 9.0 9.0 1.0
v 10.0 9.0 1.0
v 10.0 10.0 1.0
v 9.0 10.0 1.0
v 10.0 9.0 0.0
v 9.0 9.0 0.0
v 9.0 10.0 0.0
v 10.0 10.0 0.0
v 9.0 9.0 0.0
v 10.0 9.0 0.0
v 10.0 9.0 1.0
v 9.0 9.0 1.0
v 9.0 9.0 0.0
v 9.0 9.0 1.0
v 9.0 10.0 1.0
v 9.0 10.0 0.0
v 10.0 9.0 1.0
v 11.0 9.0 1.0
v 11.0 10.0 1.0
v 10.0 10.0 1.0
v 11.0 9.0 0.0
v 10.0 9.0 0.0
v 10.0 10.0 0.0
v 11.0 10.0 0.0
v 11.0 9.0 1.0
v 12.0 9.0 1.0
v 12.0 10.0 1.0
v 11.0 10.0 1.0
v 12.0 9.0 0.0
v 11.0 9.0 0.0
v 11.0 10.0 0.0
v 12.0 10.0 0.0
v 12.0 9.0 1.0
v 13.0 9.0 1.0
v 13.0 10.0 1.0
v 12.0 10.0 1.0
v 13.0 9.0 0.0
v 12.0 9.0 0.0
v 12.0 10.0 0.0
v 13.0 10.0 0.0
v 13.0 9.0 1.0
v 14.0 9.0 1.0
v 14.0 10.0 1.0
v 13.0 10.0 1.0
v 14.0 9.0 0.0
v 13.0 9.0 0.0
v 13.0 10.0 0.0
v 14.0 10.0 0.0
v 14.0 9.0 1.0
v 14.0 9.0 0.0
v 14.0 10.0 0.0
v 14.0 10.0 1.0
v 10.0 8.0 1.0
v 11.0 8.0 1.0
v 11.0 9.0 1.0
v 10.0 9.0 1.0
v 11.0 8.0 0.0
v 10.0 8.0 0.0
v 10.0 9.0 0.0
v 11.0 9.0 0.0
v 10.0 8.0 0.0
v 11.0 8.0 0.0
v 11.0 8.0 1.0
v 10.0 8.0 1.0
v 10.0 8.0 0.0
v 10.0 8.0 1.0
v 10.0 9.0 1.0
v 10.0 9.0 0.0
v 11.0 8.0 1.0
v 12.0 8.0 1.0
v 12.0 9.0 1.0
v 11.0 9.0 1.0
v 12.0 8.0 0.0
v 11.0 8.0 0.0
v 11.0 9.0 0.0
v 12.0 9.0 0.0
v 12.0 8.0 1.0
v 13.0 8.0 1.0
v 13.0 9.0 1.0
v 12.0 9.0 1.0
v 13.0 8.0 0.0
v 12.0 8.0 0.0
v 12.0 9.0 0.0
v 13.0 9.0 0.0
v 13.0 8.0 1.0
v 14.0 8.0 1.0
v 14.0 9.0 1.0
v 13.0 9.0 1.0
v 14.0 8.0 0.0
v 13.0 8.0 0.0
v 13.0 9.0 0.0
v 14.0 9.0 0.0
v 14.0 8.0 1.0
v 14.0 8.0 0.0
v 14.0 9.0 0.0
v 14.0 9.0 1.0
v 11.0 7.0 1.0
v 12.0 7.0 1.0
v 12.0 8.0 1.0
v 11.0 8.0 1.0
v 12.0 7.0 0.0
v 11.0 7.0 0.0
v 11.0 8.0 0.0
v 12.0 8.0 0.0
v 11.0 7.0 0.0
v 12.0 7.0 0.0
v 12.0 7.0 1.0
v 11.0 7.0 1.0
v 11.0 7.0 0.0
v 11.0 7.0 1.0
v 11.0 8.0 1.0
v 11.0 8.0 0.0
v 12.0 7.0 1.0
v 13.0 7.0 1.0
v 13.0 8.0 1.0
v 12.0 8.0 1.0
v 13.0 7.0 0.0
v 12.0 7.0 0.0
v 12.0 8.0 0.0
v 13.0 8.0 0.0
v 12.0 7.0 0.0
v 13.0 7.0 0.0
v 13.0 7.0 1.0
v 12.0 7.0 1.0
v 13.0 7.0 1.0
v 14.0 7.0 1.0
v 14.0 8.0 1.0
v 13.0 8.0 1.0
v 14.0 7.0 0.0
v 13.0 7.0 0.0
v 13.0 8.0 0.0
v 14.0 8.0 0.0
v 13.0 7.0 0.0
v 14.0 7.0 0.0
v 14.0 7.0 1.0
v 13.0 7.0 1.0
v 14.0 7.0 1.0
v 14.0 7.0 0.0
v 14.0 8.0 0.0
v 14.0 8.0 1.0
v 7.0 10.0 1.0
v 8.0 10.0 1.0
v 8.0 11.0 1.0
v 7.0 11.0 1.0
v 8.0 10.0 0.0
v 7.0 10.0 0.0
v 7.0 11.0 0.0
v 8.0 11.0 0.0
v 7.0 11.0 1.0
v 8.0 11.0 1.0
v 8.0 11.0 0.0
v 7.0 11.0 0.0
v 8.0 10.0 1.0
v 8.0 10.0 0.0
v 8.0 11.0 0.0
v 8.0 11.0 1.0
v 7.0 10.0 0.0
v 7.0 10.0 1.0
v 7.0 11.0 1.0
v 7.0 11.0 0.0
v 6.0 9.0 1.0
v 7.0 9.0 1.0
v 7.0 10.0 1.0
v 6.0 10.0 1.0
v 7.0 9.0 0.0
v 6.0 9.0 0.0
v 6.0 10.0 0.0
v 7.0 10.0 0.0
v 6.0 10.0 1.0
v 7.0 10.0 1.0
v 7.0 10.0 0.0
v 6.0 10.0 0.0
v 6.0 9.0 0.0
v 6.0 9.0 1.0
v 6.0 10.0 1.0
v 6.0 10.0 0.0
v 7.0 9.0 1.0
v 8.0 9.0 1.0
v 8.0 10.0 1.0
v 7.0 10.0 1.0
v 8.0 9.0 0.0
v 7.0 9.0 0.0
v 7.0 10.0 0.0
v 8.0 10.0 0.0
v 8.0 9.0 1.0
v 9.0 9.0 1.0
v 9.0 10.0 1.0
v 8.0 10.0 1.0
v 9.0 9.0 0.0
v 8.0 9.0 0.0
v 8.0 10.0 0.0
v 9.0 10.0 0.0
v 8.0 10.0 1.0
v 9.0 10.0 1.0
v 9.0 10.0 0.0
v 8.0 10.0 0.0
v 9.0 9.0 1.0
v 9.0 9.0 0.0
v 9.0 10.0 0.0
v 9.0 10.0 1.0
v 5.0 8.0 1.0
v 6.0 8.0 1.0
v 6.0 9.0 1.0
v 5.0 9.0 1.0
v 6.0 8.0 0.0
v 5.0 8.0 0.0
v 5.0 9.0 0.0
v 6.0 9.0 0.0
v 5.0 9.0 1.0
v 6.0 9.0 1.0
v 6.0 9.0 0.0
v 5.0 9.0 0.0
v 5.0 8.0 0.0
v 5.0 8.0 1.0
v 5.0 9.0 1.0
v 5.0 9.0 0.0
v 6.0 8.0 1.0
v 7.0 8.0 1.0
v 7.0 9.0 1.0
v 6.0 9.0 1.0
v 7.0 8.0 0.0
v 6.0 8.0 0.0
v 6.0 9.0 0.0
v 7.0 9.0 0.0
v 7.0 8.0 1.0
v 8.0 8.0 1.0
v 8.0 9.0 1.0
v 7.0 9.0 1.0
v 8.0 8.0 0.0
v 7.0 8.0 0.0
v 7.0 9.0 0.0
v 8.0 9.0 0.0
v 8.0 8.0 1.0
v 9.0 8.0 1.0
v 9.0 9.0 1.0
v 8.0 9.0 1.0
v 9.0 8.0 0.0
v 8.0 8.0 0.0
v 8.0 9.0 0.0
v 9.0 9.0 0.0
v 9.0 8.0 1.0
v 10.0 8.0 1.0
v 10.0 9.0 1.0
v 9.0 9.0 1.0
v 10.0 8.0 0.0
v 9.0 8.0 0.0
v 9.0 9.0 0.0
v 10.0 9.0 0.0
v 9.0 9.0 1.0
v 10.0 9.0 1.0
v 10.0 9.0 0.0
v 9.0 9.0 0.0
v 10.0 8.0 1.0
v 10.0 8.0 0.0
v 10.0 9.0 0.0
v 10.0 9.0 1.0
v 4.0 7.0 1.0
v 5.0 7.0 1.0
v 5.0 8.0 1.0
v 4.0 8.0 1.0
v 5.0 7.0 0.0
v 4.0 7.0 0.0
v 4.0 8.0 0.0
v 5.0 8.0 0.0
v 4.0 8.0 1.0
v 5.0 8.0 1.0
v 5.0 8.0 0.0
v 4.0 8.0 0.0
v 4.0 7.0 0.0
v 4.0 7.0 1.0
v 4.0 8.0 1.0
v 4.0 8.0 0.0
v 5.0 7.0 1.0
v 6.0 7.0 1.0
v 6.0 8.0 1.0
v 5.0 8.0 1.0
v 6.0 7.0 0.0
v 5.0 7.0 0.0
v 5.0 8.0 0.0
v 6.0 8.0 0.0
v 6.0 7.0 1.0
v 7.0 7.0 1.0
v 7.0 8.0 1.0
v 6.0 8.0 1.0
v 7.0 7.0 0.0
v 6.0 7.0 0.0
v 6.0 8.0 0.0
v 7.0 8.0 0.0
v 7.0 7.0 1.0
v 8.0 7.0 1.0
v 8.0 8.0 1.0
v 7.0 8.0 1.0
v 8.0 7.0 0.0
v 7.0 7.0 0.0
v 7.0 8.0 0.0
v 8.0 8.0 0.0
v 8.0 7.0 1.0
v 9.0 7.0 1.0
v 9.0 8.0 1.0
v 8.0 8.0 1.0
v 9.0 7.0 0.0
v 8.0 7.0 0.0
v 8.0 8.0 0.0
v 9.0 8.0 0.0
v 9.0 7.0 1.0
v 10.0 7.0 1.0
v 10.0 8.0 1.0
v 9.0 8.0 1.0
v 10.0 7.0 0.0
v 9.0 7.0 0.0
v 9.0 8.0 0.0
v 10.0 8.0 0.0
v 9.0 7.0 0.0
v 10.0 7.0 0.0
v 10.0 7.0 1.0
v 9.0 7.0 1.0
v 10.0 7.0 1.0
v 10.0 7.0 0.0
v 10.0 8.0 0.0
v 10.0 8.0 1.0
v 3.0 6.0 1.0
v 4.0 6.0 1.0
v 4.0 7.0 1.0
v 3.0 7.0 1.0
v 4.0 6.0 0.0
v 3.0 6.0 0.0
v 3.0 7.0 0.0
v 4.0 7.0 0.0
v 3.0 7.0 1.0
v 4.0 7.0 1.0
v 4.0 7.0 0.0
v 3.0 7.0 0.0
v 3.0 6.0 0.0
v 3.0 6.0 1.0
v 3.0 7.0 1.0
v 3.0 7.0 0.0
v 4.0 6.0 1.0
v 5.0 6.0 1.0
v 5.0 7.0 1.0
v 4.0 7.0 1.0
v 5.0 6.0 0.0
v 4.0 6.0 0.0
v 4.0 7.0 0.0
v 5.0 7.0 0.0
v 5.0 6.0 1.0
v 6.0 6.0 1.0
v 6.0 7.0 1.0
v 5.0 7.0 1.0
v 6.0 6.0 0.0
v 5.0 6.0 0.0
v 5.0 7.0 0.0
v 6.0 7.0 0.0
v 6.0 6.0 1.0
v 7.0 6.0 1.0
v 7.0 7.0 1.0
v 6.0 7.0 1.0
v 7.0 6.0 0.0
v 6.0 6.0 0.0
v 6.0 7.0 0.0
v 7.0 7.0 0.0
v 7.0 6.0 1.0
v 8.0 6.0 1.0
v 8.0 7.0 1.0
v 7.0 7.0 1.0
v 8.0 6.0 0.0
v 7.0 6.0 0.0
v 7.0 7.0 0.0
v 8.0 7.0 0.0
v 8.0 6.0 1.0
v 9.0 6.0 1.0
v 9.0 7.0 1.0
v 8.0 7.0 1.0
v 9.0 6.0 0.0
v 8.0 6.0 0.0
v 8.0 7.0 0.0
v 9.0 7.0 0.0
v 8.0 6.0 0.0
v 9.0 6.0 0.0
v 9.0 6.0 1.0
v 8.0 6.0 1.0
v 9.0 6.0 1.0
v 9.0 6.0 0.0
v 9.0 7.0 0.0
v 9.0 7.0 1.0
v 2.0 5.0 1.0
v 3.0 5.0 1.0
v 3.0 6.0 1.0
v 2.0 6.0 1.0
v 3.0 5.0 0.0
v 2.0 5.0 0.0
v 2.0 6.0 0.0
v 3.0 6.0 0.0
v 2.0 6.0 1.0
v 3.0 6.0 1.0
v 3.0 6.0 0.0
v 2.0 6.0 0.0
v 2.0 5.0 0.0
v 2.0 5.0 1.0
v 2.0 6.0 1.0
v 2.0 6.0 0.0
v 3.0 5.0 1.0
v 4.0 5.0 1.0
v 4.0 6.0 1.0
v 3.0 6.0 1.0
v 4.0 5.0 0.0
v 3.0 5.0 0.0
v 3.0 6.0 0.0
v 4.0 6.0 0.0
v 4.0 5.0 1.0
v 5.0 5.0 1.0
v 5.0 6.0 1.0
v 4.0 6.0 1.0
v 5.0 5.0 0.0
v 4.0 5.0 0.0
v 4.0 6.0 0.0
v 5.0 6.0 0.0
v 5.0 5.0 1.0
v 6.0 5.0 1.0
v 6.0 6.0 1.0
v 5.0 6.0 1.0
v 6.0 5.0 0.0
v 5.0 5.0 0.0
v 5.0 6.0 0.0
v 6.0 6.0 0.0
v 6.0 5.0 1.0
v 7.0 5.0 1.0
v 7.0 6.0 1.0
v 6.0 6.0 1.0
v 7.0 5.0 0.0
v 6.0 5.0 0.0
v 6.0 6.0 0.0
v 7.0 6.0 0.0
v 7.0 5.0 1.0
v 8.0 5.0 1.0
v 8.0 6.0 1.0
v 7.0 6.0 1.0
v 8.0 5.0 0.0
v 7.0 5.0 0.0
v 7.0 6.0 0.0
v 8.0 6.0 0.0
v 8.0 5.0 1.0
v 8.0 5.0 0.0
v 8.0 6.0 0.0
v 8.0 6.0 1.0
v 1.0 4.0 1.0
v 2.0 4.0 1.0
v 2.0 5.0 1.0
v 1.0 5.0 1.0
v 2.0 4.0 0.0
v 1.0 4.0 0.0
v 1.0 5.0 0.0
v 2.0 5.0 0.0
v 1.0 5.0 1.0
v 2.0 5.0 1.0
v 2.0 5.0 0.0
v 1.0 5.0 0.0
v 1.0 4.0 0.0
v 1.0 4.0 1.0
v 1.0 5.0 1.0
v 1.0 5.0 0.0
v 2.0 4.0 1.0
v 3.0 4.0 1.0
v 3.0 5.0 1.0
v 2.0 5.0 1.0
v 3.0 4.0 0.0
v 2.0 4.0 0.0
v 2.0 5.0 0.0
v 3.0 5.0 0.0
v 3.0 4.0 1.0
v 4.0 4.0 1.0
v 4.0 5.0 1.0
v 3.0 5.0 1.0
v 4.0 4.0 0.0
v 3.0 4.0 0.0
v 3.0 5.0 0.0
v 4.0 5.0 0.0
v 4.0 4.0 1.0
v 5.0 4.0 1.0
v 5.0 5.0 1.0
v 4.0 5.0 1.0
v 5.0 4.0 0.0
v 4.0 4.0 0.0
v 4.0 5.0 0.0
v 5.0 5.0 0.0
v 5.0 4.0 1.0
v 6.0 4.0 1.0
v 6.0 5.0 1.0
v 5.0 5.0 1.0
v 6.0 4.0 0.0
v 5.0 4.0 0.0
v 5.0 5.0 0.0
v 6.0 5.0 0.0
v 6.0 4.0 1.0
v 7.0 4.0 1.0
v 7.0 5.0 1.0
v 6.0 5.0 1.0
v 7.0 4.0 0.0
v 6.0 4.0 0.0
v 6.0 5.0 0.0
v 7.0 5.0 0.0
v 7.0 4.0 1.0
v 8.0 4.0 1.0
v 8.0 5.0 1.0
v 7.0 5.0 1.0
v 8.0 4.0 0.0
v 7.0 4.0 0.0
v 7.0 5.0 0.0
v 8.0 5.0 0.0
v 7.0 4.0 0.0
v 8.0 4.0 0.0
v 8.0 4.0 1.0
v 7.0 4.0 1.0
v 8.0 4.0 1.0
v 8.0 4.0 0.0
v 8.0 5.0 0.0
v 8.0 5.0 1.0
v 1.0 3.0 1.0
v 2.0 3.0 1.0
v 2.0 4.0 1.0
v 1.0 4.0 1.0
v 2.0 3.0 0.0
v 1.0 3.0 0.0
v 1.0 4.0 0.0
v 2.0 4.0 0.0
v 1.0 3.0 0.0
v 2.0 3.0 0.0
v 2.0 3.0 1.0
v 1.0 3.0 1.0
v 1.0 3.0 0.0
v 1.0 3.0 1.0
v 1.0 4.0 1.0
v 1.0 4.0 0.0
v 2.0 3.0 1.0
v 3.0 3.0 1.0
v 3.0 4.0 1.0
v 2.0 4.0 1.0
v 3.0 3.0 0.0
v 2.0 3.0 0.0
v 2.0 4.0 0.0
v 3.0 4.0 0.0
v 3.0 3.0 1.0
v 4.0 3.0 1.0
v 4.0 4.0 1.0
v 3.0 4.0 1.0
v 4.0 3.0 0.0
v 3.0 3.0 0.0
v 3.0 4.0 0.0
v 4.0 4.0 0.0
v 4.0 3.0 1.0
v 5.0 3.0 1.0
v 5.0 4.0 1.0
v 4.0 4.0 1.0
v 5.0 3.0 0.0
v 4.0 3.0 0.0
v 4.0 4.0 0.0
v 5.0 4.0 0.0
v 5.0 3.0 1.0
v 6.0 3.0 1.0
v 6.0 4.0 1.0
v 5.0 4.0 1.0
v 6.0 3.0 0.0
v 5.0 3.0 0.0
v 5.0 4.0 0.0
v 6.0 4.0 0.0
v 6.0 3.0 1.0
v 7.0 3.0 1.0
v 7.0 4.0 1.0
v 6.0 4.0 1.0
v 7.0 3.0 0.0
v 6.0 3.0 0.0
v 6.0 4.0 0.0
v 7.0 4.0 0.0
v 7.0 3.0 1.0
v 7.0 3.0 0.0
v 7.0 4.0 0.0
v 7.0 4.0 1.0
v 2.0 2.0 1.0
v 3.0 2.0 1.0
v 3.0 3.0 1.0
v 2.0 3.0 1.0
v 3.0 2.0 0.0
v 2.0 2.0 0.0
v 2.0 3.0 0.0
v 3.0 3.0 0.0
v 2.0 2.0 0.0
v 3.0 2.0 0.0
v 3.0 2.0 1.0
v 2.0 2.0 1.0
v 2.0 2.0 0.0
v 2.0 2.0 1.0
v 2.0 3.0 1.0
v 2.0 3.0 0.0
v 3.0 2.0 1.0
v 4.0 2.0 1.0
v 4.0 3.0 1.0
v 3.0 3.0 1.0
v 4.0 2.0 0.0
v 3.0 2.0 0.0
v 3.0 3.0 0.0
v 4.0 3.0 0.0
v 4.0 2.0 1.0
v 5.0 2.0 1.0
v 5.0 3.0 1.0
v 4.0 3.0 1.0
v 5.0 2.0 0.0
v 4.0 2.0 0.0
v 4.0 3.0 0.0
v 5.0 3.0 0.0
v 5.0 2.0 1.0
v 6.0 2.0 1.0
v 6.0 3.0 1.0
v 5.0 3.0 1.0
v 6.0 2.0 0.0
v 5.0 2.0 0.0
v 5.0 3.0 0.0
v 6.0 3.0 0.0
v 6.0 2.0 1.0
v 7.0 2.0 1.0
v 7.0 3.0 1.0
v 6.0 3.0 1.0
v 7.0 2.0 0.0
v 6.0 2.0 0.0
v 6.0 3.0 0.0
v 7.0 3.0 0.0
v 6.0 2.0 0.0
v 7.0 2.0 0.0
v 7.0 2.0 1.0
v 6.0 2.0 1.0
v 7.0 2.0 1.0
v 7.0 2.0 0.0
v 7.0 3.0 0.0
v 7.0 3.0 1.0
v 3.0 1.0 1.0
v 4.0 1.0 1.0
v 4.0 2.0 1.0
v 3.0 2.0 1.0
v 4.0 1.0 0.0
v 3.0 1.0 0.0
v 3.0 2.0 0.0
v 4.0 2.0 0.0
v 3.0 1.0 0.0
v 4.0 1.0 0.0
v 4.0 1.0 1.0
v 3.0 1.0 1.0
v 3.0 1.0 0.0
v 3.0 1.0 1.0
v 3.0 2.0 1.0
v 3.0 2.0 0.0
v 4.0 1.0 1.0
v 5.0 1.0 1.0
v 5.0 2.0 1.0
v 4.0 2.0 1.0
v 5.0 1.0 0.0
v 4.0 1.0 0.0
v 4.0 2.0 0.0
v 5.0 2.0 0.0
v 4.0 1.0 0.0
v 5.0 1.0 0.0
v 5.0 1.0 1.0
v 4.0 1.0 1.0
v 5.0 1.0 1.0
v 6.0 1.0 1.0
v 6.0 2.0 1.0
v 5.0 2.0 1.0
v 6.0 1.0 0.0
v 5.0 1.0 0.0
v 5.0 2.0 0.0
v 6.0 2.0 0.0
v 5.0 1.0 0.0
v 6.0 1.0 0.0
v 6.0 1.0 1.0
v 5.0 1.0 1.0
v 6.0 1.0 1.0
v 6.0 1.0 0.0
v 6.0 2.0 0.0
v 6.0 2.0 1.0
v 10.0 7.0 1.0
v 11.0 7.0 1.0
v 11.0 8.0 1.0
v 10.0 8.0 1.0
v 11.0 7.0 0.0
v 10.0 7.0 0.0
v 10.0 8.0 0.0
v 11.0 8.0 0.0
v 10.0 8.0 1.0
v 11.0 8.0 1.0
v 11.0 8.0 0.0
v 10.0 8.0 0.0
v 11.0 7.0 1.0
v 11.0 7.0 0.0
v 11.0 8.0 0.0
v 11.0 8.0 1.0
v 10.0 7.0 0.0
v 10.0 7.0 1.0
v 10.0 8.0 1.0
v 10.0 8.0 0.0
v 9.0 6.0 1.0
v 10.0 6.0 1.0
v 10.0 7.0 1.0
v 9.0 7.0 1.0
v 10.0 6.0 0.0
v 9.0 6.0 0.0
v 9.0 7.0 0.0
v 10.0 7.0 0.0
v 9.0 7.0 1.0
v 10.0 7.0 1.0
v 10.0 7.0 0.0
v 9.0 7.0 0.0
v 9.0 6.0 0.0
v 9.0 6.0 1.0
v 9.0 7.0 1.0
v 9.0 7.0 0.0
v 10.0 6.0 1.0
v 11.0 6.0 1.0
v 11.0 7.0 1.0
v 10.0 7.0 1.0
v 11.0 6.0 0.0
v 10.0 6.0 0.0
v 10.0 7.0 0.0
v 11.0 7.0 0.0
v 11.0 6.0 1.0
v 12.0 6.0 1.0
v 12.0 7.0 1.0
v 11.0 7.0 1.0
v 12.0 6.0 0.0
v 11.0 6.0 0.0
v 11.0 7.0 0.0
v 12.0 7.0 0.0
v 11.0 7.0 1.0
v 12.0 7.0 1.0
v 12.0 7.0 0.0
v 11.0 7.0 0.0
v 12.0 6.0 1.0
v 13.0 6.0 1.0
v 13.0 7.0 1.0
v 12.0 7.0 1.0
v 13.0 6.0 0.0
v 12.0 6.0 0.0
v 12.0 7.0 0.0
v 13.0 7.0 0.0
v 12.0 7.0 1.0
v 13.0 7.0 1.0
v 13.0 7.0 0.0
v 12.0 7.0 0.0
v 13.0 6.0 1.0
v 14.0 6.0 1.0
v 14.0 7.0 1.0
v 13.0 7.0 1.0
v 14.0 6.0 0.0
v 13.0 6.0 0.0
v 13.0 7.0 0.0
v 14.0 7.0 0.0
v 13.0 7.0 1.0
v 14.0 7.0 1.0
v 14.0 7.0 0.0
v 13.0 7.0 0.0
v 13.0 6.0 0.0
v 14.0 6.0 0.0
v 14.0 6.0 1.0
v 13.0 6.0 1.0
v 14.0 6.0 1.0
v 14.0 6.0 0.0
v 14.0 7.0 0.0
v 14.0 7.0 1.0
v 8.0 5.0 1.0
v 9.0 5.0 1.0
v 9.0 6.0 1.0
v 8.0 6.0 1.0
v 9.0 5.0 0.0
v 8.0 5.0 0.0
v 8.0 6.0 0.0
v 9.0 6.0 0.0
v 8.0 6.0 1.0
v 9.0 6.0 1.0
v 9.0 6.0 0.0
v 8.0 6.0 0.0
v 8.0 5.0 0.0
v 8.0 5.0 1.0
v 8.0 6.0 1.0
v 8.0 6.0 0.0
v 9.0 5.0 1.0
v 10.0 5.0 1.0
v 10.0 6.0 1.0
v 9.0 6.0 1.0
v 10.0 5.0 0.0
v 9.0 5.0 0.0
v 9.0 6.0 0.0
v 10.0 6.0 0.0
v 10.0 5.0 1.0
v 11.0 5.0 1.0
v 11.0 6.0 1.0
v 10.0 6.0 1.0
v 11.0 5.0 0.0
v 10.0 5.0 0.0
v 10.0 6.0 0.0
v 11.0 6.0 0.0
v 11.0 5.0 1.0
v 12.0 5.0 1.0
v 12.0 6.0 1.0
v 11.0 6.0 1.0
v 12.0 5.0 0.0
v 11.0 5.0 0.0
v 11.0 6.0 0.0
v 12.0 6.0 0.0
v 12.0 5.0 1.0
v 13.0 5.0 1.0
v 13.0 6.0 1.0
v 12.0 6.0 1.0
v 13.0 5.0 0.0
v 12.0 5.0 0.0
v 12.0 6.0 0.0
v 13.0 6.0 0.0
v 13.0 5.0 1.0
v 13.0 5.0 0.0
v 13.0 6.0 0.0
v 13.0 6.0 1.0
v 8.0 4.0 1.0
v 9.0 4.0 1.0
v 9.0 5.0 1.0
v 8.0 5.0 1.0
v 9.0 4.0 0.0
v 8.0 4.0 0.0
v 8.0 5.0 0.0
v 9.0 5.0 0.0
v 8.0 4.0 0.0
v 8.0 4.0 1.0
v 8.0 5.0 1.0
v 8.0 5.0 0.0
v 9.0 4.0 1.0
v 10.0 4.0 1.0
v 10.0 5.0 1.0
v 9.0 5.0 1.0
v 10.0 4.0 0.0
v 9.0 4.0 0.0
v 9.0 5.0 0.0
v 10.0 5.0 0.0
v 10.0 4.0 1.0
v 11.0 4.0 1.0
v 11.0 5.0 1.0
v 10.0 5.0 1.0
v 11.0 4.0 0.0
v 10.0 4.0 0.0
v 10.0 5.0 0.0
v 11.0 5.0 0.0
v 11.0 4.0 1.0
v 12.0 4.0 1.0
v 12.0 5.0 1.0
v 11.0 5.0 1.0
v 12.0 4.0 0.0
v 11.0 4.0 0.0
v 11.0 5.0 0.0
v 12.0 5.0 0.0
v 12.0 4.0 1.0
v 13.0 4.0 1.0
v 13.0 5.0 1.0
v 12.0 5.0 1.0
v 13.0 4.0 0.0
v 12.0 4.0 0.0
v 12.0 5.0 0.0
v 13.0 5.0 0.0
v 12.0 4.0 0.0
v 13.0 4.0 0.0
v 13.0 4.0 1.0
v 12.0 4.0 1.0
v 13.0 4.0 1.0
v 13.0 4.0 0.0
v 13.0 5.0 0.0
v 13.0 5.0 1.0
v 7.0 3.0 1.0
v 8.0 3.0 1.0
v 8.0 4.0 1.0
v 7.0 4.0 1.0
v 8.0 3.0 0.0
v 7.0 3.0 0.0
v 7.0 4.0 0.0
v 8.0 4.0 0.0
v 7.0 4.0 1.0
v 8.0 4.0 1.0
v 8.0 4.0 0.0
v 7.0 4.0 0.0
v 7.0 3.0 0.0
v 7.0 3.0 1.0
v 7.0 4.0 1.0
v 7.0 4.0 0.0
v 8.0 3.0 1.0
v 9.0 3.0 1.0
v 9.0 4.0 1.0
v 8.0 4.0 1.0
v 9.0 3.0 0.0
v 8.0 3.0 0.0
v 8.0 4.0 0.0
v 9.0 4.0 0.0
v 9.0 3.0 1.0
v 10.0 3.0 1.0
v 10.0 4.0 1.0
v 9.0 4.0 1.0
v 10.0 3.0 0.0
v 9.0 3.0 0.0
v 9.0 4.0 0.0
v 10.0 4.0 0.0
v 10.0 3.0 1.0
v 11.0 3.0 1.0
v 11.0 4.0 1.0
v 10.0 4.0 1.0
v 11.0 3.0 0.0
v 10.0 3.0 0.0
v 10.0 4.0 0.0
v 11.0 4.0 0.0
v 11.0 3.0 1.0
v 12.0 3.0 1.0
v 12.0 4.0 1.0
v 11.0 4.0 1.0
v 12.0 3.0 0.0
v 11.0 3.0 0.0
v 11.0 4.0 0.0
v 12.0 4.0 0.0
v 11.0 3.0 0.0
v 12.0 3.0 0.0
v 12.0 3.0 1.0
v 11.0 3.0 1.0
v 12.0 3.0 1.0
v 12.0 3.0 0.0
v 12.0 4.0 0.0
v 12.0 4.0 1.0
v 7.0 2.0 1.0
v 8.0 2.0 1.0
v 8.0 3.0 1.0
v 7.0 3.0 1.0
v 8.0 2.0 0.0
v 7.0 2.0 0.0
v 7.0 3.0 0.0
v 8.0 3.0 0.0
v 7.0 2.0 0.0
v 7.0 2.0 1.0
v 7.0 3.0 1.0
v 7.0 3.0 0.0
v 8.0 2.0 1.0
v 9.0 2.0 1.0
v 9.0 3.0 1.0
v 8.0 3.0 1.0
v 9.0 2.0 0.0
v 8.0 2.0 0.0
v 8.0 3.0 0.0
v 9.0 3.0 0.0
v 9.0 2.0 1.0
v 10.0 2.0 1.0
v 10.0 3.0 1.0
v 9.0 3.0 1.0
v 10.0 2.0 0.0
v 9.0 2.0 0.0
v 9.0 3.0 0.0
v 10.0 3.0 0.0
v 9.0 2.0 0.0
v 10.0 2.0 0.0
v 10.0 2.0 1.0
v 9.0 2.0 1.0
v 10.0 2.0 1.0
v 11.0 2.0 1.0
v 11.0 3.0 1.0
v 10.0 3.0 1.0
v 11.0 2.0 0.0
v 10.0 2.0 0.0
v 10.0 3.0 0.0
v 11.0 3.0 0.0
v 10.0 2.0 0.0
v 11.0 2.0 0.0
v 11.0 2.0 1.0
v 10.0 2.0 1.0
v 11.0 2.0 1.0
v 11.0 2.0 0.0
v 11.0 3.0 0.0
v 11.0 3.0 1.0
v 6.0 1.0 1.0
v 7.0 1.0 1.0
v 7.0 2.0 1.0
v 6.0 2.0 1.0
v 7.0 1.0 0.0
v 6.0 1.0 0.0
v 6.0 2.0 0.0
v 7.0 2.0 0.0
v 6.0 2.0 1.0
v 7.0 2.0 1.0
v 7.0 2.0 0.0
v 6.0 2.0 0.0
v 6.0 1.0 0.0
v 7.0 1.0 0.0
v 7.0 1.0 1.0
v 6.0 1.0 1.0
v 6.0 1.0 0.0
v 6.0 1.0 1.0
v 6.0 2.0 1.0
v 6.0 2.0 0.0
v 7.0 1.0 1.0
v 8.0 1.0 1.0
v 8.0 2.0 1.0
v 7.0 2.0 1.0
v 8.0 1.0 0.0
v 7.0 1.0 0.0
v 7.0 2.0 0.0
v 8.0 2.0 0.0
v 7.0 1.0 0.0
v 8.0 1.0 0.0
v 8.0 1.0 1.0
v 7.0 1.0 1.0
v 8.0 1.0 1.0
v 9.0 1.0 1.0
v 9.0 2.0 1.0
v 8.0 2.0 1.0
v 9.0 1.0 0.0
v 8.0 1.0 0.0
v 8.0 2.0 0.0
v 9.0 2.0 0.0
v 8.0 1.0 0.0
v 9.0 1.0 0.0
v 9.0 1.0 1.0
v 8.0 1.0 1.0
v 9.0 1.0 1.0
v 9.0 1.0 0.0
v 9.0 2.0 0.0
v 9.0 2.0 1.0
vn 0.0 0.0 1.0
vn 0.0 0.0 -1.0
vn 0.0 1.0 0.0
vn 0.0 -1.0 0.0
vn 1.0 0.0 0.0
vn -1.0 0.0 0.0
usemtl mat_combined
o mesh_mask_2
vt 0.289062 0.375000
vt 0.296875 0.375000
vt 0.296875 0.390625
vt 0.289062 0.390625
f 1/1/1 2/2/1 3/3/1 4/4/1
vt 0.296875 0.375000
vt 0.289062 0.375000
vt 0.289062 0.390625
vt 0.296875 0.390625
f 5/5/2 6/6/2 7/7/2 8/8/2
vt 0.289062 0.375000
vt 0.296875 0.375000
vt 0.296875 0.390625
vt 0.289062 0.390625
f 9/9/3 10/10/3 11/11/3 12/12/3
vt 0.289062 0.375000
vt 0.296875 0.375000
vt 0.296875 0.390625
vt 0.289062 0.390625
f 13/13/6 14/14/6 15/15/6 16/16/6
vt 0.296875 0.375000
vt 0.304688 0.375000
vt 0.304688 0.390625
vt 0.296875 0.390625
f 17/17/1 18/18/1 19/19/1 20/20/1
vt 0.304688 0.375000
vt 0.296875 0.375000
vt 0.296875 0.390625
vt 0.304688 0.390625
f 21/21/2 22/22/2 23/23/2 24/24/2
vt 0.296875 0.375000
vt 0.304688 0.375000
vt 0.304688 0.390625
vt 0.296875 0.390625
f 25/25/3 26/26/3 27/27/3 28/28/3
vt 0.296875 0.375000
vt 0.304688 0.375000
vt 0.304688 0.390625
vt 0.296875 0.390625
f 29/29/5 30/30/5 31/31/5 32/32/5
vt 0.304688 0.375000
vt 0.312500 0.375000
vt 0.312500 0.390625
vt 0.304688 0.390625
f 33/33/1 34/34/1 35/35/1 36/36/1
vt 0.312500 0.375000
vt 0.304688 0.375000
vt 0.304688 0.390625
vt 0.312500 0.390625
f 37/37/2 38/38/2 39/39/2 40/40/2
vt 0.304688 0.375000
vt 0.312500 0.375000
vt 0.312500 0.390625
vt 0.304688 0.390625
f 41/41/3 42/42/3 43/43/3 44/44/3
vt 0.304688 0.375000
vt 0.312500 0.375000
vt 0.312500 0.390625
vt 0.304688 0.390625
f 45/45/6 46/46/6 47/47/6 48/48/6
vt 0.312500 0.375000
vt 0.320312 0.375000
vt 0.320312 0.390625
vt 0.312500 0.390625
f 49/49/1 50/50/1 51/51/1 52/52/1
vt 0.320312 0.375000
vt 0.312500 0.375000
vt 0.312500 0.390625
vt 0.320312 0.390625
f 53/53/2 54/54/2 55/55/2 56/56/2
vt 0.320312 0.375000
vt 0.328125 0.375000
vt 0.328125 0.390625
vt 0.320312 0.390625
f 57/57/1 58/58/1 59/59/1 60/60/1
vt 0.328125 0.375000
vt 0.320312 0.375000
vt 0.320312 0.390625
vt 0.328125 0.390625
f 61/61/2 62/62/2 63/63/2 64/64/2
vt 0.296875 0.375000
vt 0.304688 0.375000
vt 0.304688 0.390625
vt 0.296875 0.390625
f 65/65/1 66/66/1 67/67/1 68/68/1
vt 0.304688 0.375000
vt 0.296875 0.375000
vt 0.296875 0.390625
vt 0.304688 0.390625
f 69/69/2 70/70/2 71/71/2 72/72/2
vt 0.296875 0.375000
vt 0.304688 0.375000
vt 0.304688 0.390625
vt 0.296875 0.390625
f 73/73/3 74/74/3 75/75/3 76/76/3
vt 0.296875 0.375000
vt 0.304688 0.375000
vt 0.304688 0.390625
vt 0.296875 0.390625
f 77/77/5 78/78/5 79/79/5 80/80/5
vt 0.304688 0.375000
vt 0.312500 0.375000
vt 0.312500 0.390625
vt 0.304688 0.390625
f 81/81/1 82/82/1 83/83/1 84/84/1
vt 0.312500 0.375000
vt 0.304688 0.375000
vt 0.304688 0.390625
vt 0.312500 0.390625
f 85/85/2 86/86/2 87/87/2 88/88/2
vt 0.304688 0.375000
vt 0.312500 0.375000
vt 0.312500 0.390625
vt 0.304688 0.390625
f 89/89/3 90/90/3 91/91/3 92/92/3
vt 0.304688 0.375000
vt 0.312500 0.375000
vt 0.312500 0.390625
vt 0.304688 0.390625
f 93/93/6 94/94/6 95/95/6 96/96/6
vt 0.304688 0.375000
vt 0.312500 0.375000
vt 0.312500 0.390625
vt 0.304688 0.390625
f 97/97/1 98/98/1 99/99/1 100/100/1
vt 0.312500 0.375000
vt 0.304688 0.375000
vt 0.304688 0.390625
vt 0.312500 0.390625
f 101/101/2 102/102/2 103/103/2 104/104/2
vt 0.304688 0.375000
vt 0.312500 0.375000
vt 0.312500 0.390625
vt 0.304688 0.390625
f 105/105/1 106/106/1 107/107/1 108/108/1
vt 0.312500 0.375000
vt 0.304688 0.375000
vt 0.304688 0.390625
vt 0.312500 0.390625
f 109/109/2 110/110/2 111/111/2 112/112/2
vt 0.312500 0.375000
vt 0.320312 0.375000
vt 0.320312 0.390625
vt 0.312500 0.390625
f 113/113/1 114/114/1 115/115/1 116/116/1
vt 0.320312 0.375000
vt 0.312500 0.375000
vt 0.312500 0.390625
vt 0.320312 0.390625
f 117/117/2 118/118/2 119/119/2 120/120/2
vt 0.320312 0.375000
vt 0.328125 0.375000
vt 0.328125 0.390625
vt 0.320312 0.390625
f 121/121/1 122/122/1 123/123/1 124/124/1
vt 0.328125 0.375000
vt 0.320312 0.375000
vt 0.320312 0.390625
vt 0.328125 0.390625
f 125/125/2 126/126/2 127/127/2 128/128/2
vt 0.296875 0.375000
vt 0.304688 0.375000
vt 0.304688 0.390625
vt 0.296875 0.390625
f 129/129/1 130/130/1 131/131/1 132/132/1
vt 0.304688 0.375000
vt 0.296875 0.375000
vt 0.296875 0.390625
vt 0.304688 0.390625
f 133/133/2 134/134/2 135/135/2 136/136/2
vt 0.296875 0.375000
vt 0.304688 0.375000
vt 0.304688 0.390625
vt 0.296875 0.390625
f 137/137/3 138/138/3 139/139/3 140/140/3
vt 0.296875 0.375000
vt 0.304688 0.375000
vt 0.304688 0.390625
vt 0.296875 0.390625
f 141/141/5 142/142/5 143/143/5 144/144/5
vt 0.328125 0.375000
vt 0.335938 0.375000
vt 0.335938 0.390625
vt 0.328125 0.390625
f 145/145/1 146/146/1 147/147/1 148/148/1
vt 0.335938 0.375000
vt 0.328125 0.375000
vt 0.328125 0.390625
vt 0.335938 0.390625
f 149/149/2 150/150/2 151/151/2 152/152/2
vt 0.328125 0.375000
vt 0.335938 0.375000
vt 0.335938 0.390625
vt 0.328125 0.390625
f 153/153/4 154/154/4 155/155/4 156/156/4
vt 0.328125 0.375000
vt 0.335938 0.375000
vt 0.335938 0.390625
vt 0.328125 0.390625
f 157/157/6 158/158/6 159/159/6 160/160/6
vt 0.335938 0.375000
vt 0.343750 0.375000
vt 0.343750 0.390625
vt 0.335938 0.390625
f 161/161/1 162/162/1 163/163/1 164/164/1
vt 0.343750 0.375000
vt 0.335938 0.375000
vt 0.335938 0.390625
vt 0.343750 0.390625
f 165/165/2 166/166/2 167/167/2 168/168/2
vt 0.304688 0.375000
vt 0.312500 0.375000
vt 0.312500 0.390625
vt 0.304688 0.390625
f 169/169/1 170/170/1 171/171/1 172/172/1
vt 0.312500 0.375000
vt 0.304688 0.375000
vt 0.304688 0.390625
vt 0.312500 0.390625
f 173/173/2 174/174/2 175/175/2 176/176/2
vt 0.343750 0.375000
vt 0.351562 0.375000
vt 0.351562 0.390625
vt 0.343750 0.390625
f 177/177/1 178/178/1 179/179/1 180/180/1
vt 0.351562 0.375000
vt 0.343750 0.375000
vt 0.343750 0.390625
vt 0.351562 0.390625
f 181/181/2 182/182/2 183/183/2 184/184/2
vt 0.320312 0.375000
vt 0.328125 0.375000
vt 0.328125 0.390625
vt 0.320312 0.390625
f 185/185/1 186/186/1 187/187/1 188/188/1
vt 0.328125 0.375000
vt 0.320312 0.375000
vt 0.320312 0.390625
vt 0.328125 0.390625
f 189/189/2 190/190/2 191/191/2 192/192/2
vt 0.296875 0.375000
vt 0.304688 0.375000
vt 0.304688 0.390625
vt 0.296875 0.390625
f 193/193/1 194/194/1 195/195/1 196/196/1
vt 0.304688 0.375000
vt 0.296875 0.375000
vt 0.296875 0.390625
vt 0.304688 0.390625
f 197/197/2 198/198/2 199/199/2 200/200/2
vt 0.296875 0.375000
vt 0.304688 0.375000
vt 0.304688 0.390625
vt 0.296875 0.390625
f 201/201/5 202/202/5 203/203/5 204/204/5
vt 0.328125 0.375000
vt 0.335938 0.375000
vt 0.335938 0.390625
vt 0.328125 0.390625
f 205/205/1 206/206/1 207/207/1 208/208/1
vt 0.335938 0.375000
vt 0.328125 0.375000
vt 0.328125 0.390625
vt 0.335938 0.390625
f 209/209/2 210/210/2 211/211/2 212/212/2
vt 0.328125 0.375000
vt 0.335938 0.375000
vt 0.335938 0.390625
vt 0.328125 0.390625
f 213/213/4 214/214/4 215/215/4 216/216/4
vt 0.328125 0.375000
vt 0.335938 0.375000
vt 0.335938 0.390625
vt 0.328125 0.390625
f 217/217/6 218/218/6 219/219/6 220/220/6
vt 0.328125 0.375000
vt 0.335938 0.375000
vt 0.335938 0.390625
vt 0.328125 0.390625
f 221/221/1 222/222/1 223/223/1 224/224/1
vt 0.335938 0.375000
vt 0.328125 0.375000
vt 0.328125 0.390625
vt 0.335938 0.390625
f 225/225/2 226/226/2 227/227/2 228/228/2
vt 0.343750 0.375000
vt 0.351562 0.375000
vt 0.351562 0.390625
vt 0.343750 0.390625
f 229/229/1 230/230/1 231/231/1 232/232/1
vt 0.351562 0.375000
vt 0.343750 0.375000
vt 0.343750 0.390625
vt 0.351562 0.390625
f 233/233/2 234/234/2 235/235/2 236/236/2
vt 0.289062 0.375000
vt 0.296875 0.375000
vt 0.296875 0.390625
vt 0.289062 0.390625
f 237/237/1 238/238/1 239/239/1 240/240/1
vt 0.296875 0.375000
vt 0.289062 0.375000
vt 0.289062 0.390625
vt 0.296875 0.390625
f 241/241/2 242/242/2 243/243/2 244/244/2
vt 0.296875 0.375000
vt 0.304688 0.375000
vt 0.304688 0.390625
vt 0.296875 0.390625
f 245/245/1 246/246/1 247/247/1 248/248/1
vt 0.304688 0.375000
vt 0.296875 0.375000
vt 0.296875 0.390625
vt 0.304688 0.390625
f 249/249/2 250/250/2 251/251/2 252/252/2
vt 0.296875 0.375000
vt 0.304688 0.375000
vt 0.304688 0.390625
vt 0.296875 0.390625
f 253/253/5 254/254/5 255/255/5 256/256/5
vt 0.328125 0.375000
vt 0.335938 0.375000
vt 0.335938 0.390625
vt 0.328125 0.390625
f 257/257/1 258/258/1 259/259/1 260/260/1
vt 0.335938 0.375000
vt 0.328125 0.375000
vt 0.328125 0.390625
vt 0.335938 0.390625
f 261/261/2 262/262/2 263/263/2 264/264/2
vt 0.328125 0.375000
vt 0.335938 0.375000
vt 0.335938 0.390625
vt 0.328125 0.390625
f 265/265/4 266/266/4 267/267/4 268/268/4
vt 0.328125 0.375000
vt 0.335938 0.375000
vt 0.335938 0.390625
vt 0.328125 0.390625
f 269/269/6 270/270/6 271/271/6 272/272/6
vt 0.343750 0.375000
vt 0.351562 0.375000
vt 0.351562 0.390625
vt 0.343750 0.390625
f 273/273/1 274/274/1 275/275/1 276/276/1
vt 0.351562 0.375000
vt 0.343750 0.375000
vt 0.343750 0.390625
vt 0.351562 0.390625
f 277/277/2 278/278/2 279/279/2 280/280/2
vt 0.289062 0.375000
vt 0.296875 0.375000
vt 0.296875 0.390625
vt 0.289062 0.390625
f 281/281/1 282/282/1 283/283/1 284/284/1
vt 0.296875 0.375000
vt 0.289062 0.375000
vt 0.289062 0.390625
vt 0.296875 0.390625
f 285/285/2 286/286/2 287/287/2 288/288/2
vt 0.351562 0.375000
vt 0.359375 0.375000
vt 0.359375 0.390625
vt 0.351562 0.390625
f 289/289/1 290/290/1 291/291/1 292/292/1
vt 0.359375 0.375000
vt 0.351562 0.375000
vt 0.351562 0.390625
vt 0.359375 0.390625
f 293/293/2 294/294/2 295/295/2 296/296/2
vt 0.351562 0.375000
vt 0.359375 0.375000
vt 0.359375 0.390625
vt 0.351562 0.390625
f 297/297/5 298/298/5 299/299/5 300/300/5
vt 0.343750 0.375000
vt 0.351562 0.375000
vt 0.351562 0.390625
vt 0.343750 0.390625
f 301/301/1 302/302/1 303/303/1 304/304/1
vt 0.351562 0.375000
vt 0.343750 0.375000
vt 0.343750 0.390625
vt 0.351562 0.390625
f 305/305/2 306/306/2 307/307/2 308/308/2
vt 0.343750 0.375000
vt 0.351562 0.375000
vt 0.351562 0.390625
vt 0.343750 0.390625
f 309/309/4 310/310/4 311/311/4 312/312/4
vt 0.343750 0.375000
vt 0.351562 0.375000
vt 0.351562 0.390625
vt 0.343750 0.390625
f 313/313/6 314/314/6 315/315/6 316/316/6
vt 0.289062 0.375000
vt 0.296875 0.375000
vt 0.296875 0.390625
vt 0.289062 0.390625
f 317/317/1 318/318/1 319/319/1 320/320/1
vt 0.296875 0.375000
vt 0.289062 0.375000
vt 0.289062 0.390625
vt 0.296875 0.390625
f 321/321/2 322/322/2 323/323/2 324/324/2
vt 0.289062 0.375000
vt 0.296875 0.375000
vt 0.296875 0.390625
vt 0.289062 0.390625
f 325/325/4 326/326/4 327/327/4 328/328/4
vt 0.351562 0.375000
vt 0.359375 0.375000
vt 0.359375 0.390625
vt 0.351562 0.390625
f 329/329/1 330/330/1 331/331/1 332/332/1
vt 0.359375 0.375000
vt 0.351562 0.375000
vt 0.351562 0.390625
vt 0.359375 0.390625
f 333/333/2 334/334/2 335/335/2 336/336/2
vt 0.351562 0.375000
vt 0.359375 0.375000
vt 0.359375 0.390625
vt 0.351562 0.390625
f 337/337/4 338/338/4 339/339/4 340/340/4
vt 0.351562 0.375000
vt 0.359375 0.375000
vt 0.359375 0.390625
vt 0.351562 0.390625
f 341/341/5 342/342/5 343/343/5 344/344/5
o mesh_mask_3
vt 0.304688 0.375000
vt 0.312500 0.375000
vt 0.312500 0.390625
vt 0.304688 0.390625
f 345/345/1 346/346/1 347/347/1 348/348/1
vt 0.312500 0.375000
vt 0.304688 0.375000
vt 0.304688 0.390625
vt 0.312500 0.390625
f 349/349/2 350/350/2 351/351/2 352/352/2
vt 0.304688 0.375000
vt 0.312500 0.375000
vt 0.312500 0.390625
vt 0.304688 0.390625
f 353/353/3 354/354/3 355/355/3 356/356/3
vt 0.304688 0.375000
vt 0.312500 0.375000
vt 0.312500 0.390625
vt 0.304688 0.390625
f 357/357/5 358/358/5 359/359/5 360/360/5
vt 0.304688 0.375000
vt 0.312500 0.375000
vt 0.312500 0.390625
vt 0.304688 0.390625
f 361/361/6 362/362/6 363/363/6 364/364/6
vt 0.304688 0.375000
vt 0.312500 0.375000
vt 0.312500 0.390625
vt 0.304688 0.390625
f 365/365/1 366/366/1 367/367/1 368/368/1
vt 0.312500 0.375000
vt 0.304688 0.375000
vt 0.304688 0.390625
vt 0.312500 0.390625
f 369/369/2 370/370/2 371/371/2 372/372/2
vt 0.304688 0.375000
vt 0.312500 0.375000
vt 0.312500 0.390625
vt 0.304688 0.390625
f 373/373/3 374/374/3 375/375/3 376/376/3
vt 0.304688 0.375000
vt 0.312500 0.375000
vt 0.312500 0.390625
vt 0.304688 0.390625
f 377/377/6 378/378/6 379/379/6 380/380/6
vt 0.359375 0.375000
vt 0.367188 0.375000
vt 0.367188 0.390625
vt 0.359375 0.390625
f 381/381/1 382/382/1 383/383/1 384/384/1
vt 0.367188 0.375000
vt 0.359375 0.375000
vt 0.359375 0.390625
vt 0.367188 0.390625
f 385/385/2 386/386/2 387/387/2 388/388/2
vt 0.304688 0.375000
vt 0.312500 0.375000
vt 0.312500 0.390625
vt 0.304688 0.390625
f 389/389/1 390/390/1 391/391/1 392/392/1
vt 0.312500 0.375000
vt 0.304688 0.375000
vt 0.304688 0.390625
vt 0.312500 0.390625
f 393/393/2 394/394/2 395/395/2 396/396/2
vt 0.304688 0.375000
vt 0.312500 0.375000
vt 0.312500 0.390625
vt 0.304688 0.390625
f 397/397/3 398/398/3 399/399/3 400/400/3
vt 0.304688 0.375000
vt 0.312500 0.375000
vt 0.312500 0.390625
vt 0.304688 0.390625
f 401/401/5 402/402/5 403/403/5 404/404/5
vt 0.304688 0.375000
vt 0.312500 0.375000
vt 0.312500 0.390625
vt 0.304688 0.390625
f 405/405/1 406/406/1 407/407/1 408/408/1
vt 0.312500 0.375000
vt 0.304688 0.375000
vt 0.304688 0.390625
vt 0.312500 0.390625
f 409/409/2 410/410/2 411/411/2 412/412/2
vt 0.304688 0.375000
vt 0.312500 0.375000
vt 0.312500 0.390625
vt 0.304688 0.390625
f 413/413/3 414/414/3 415/415/3 416/416/3
vt 0.304688 0.375000
vt 0.312500 0.375000
vt 0.312500 0.390625
vt 0.304688 0.390625
f 417/417/6 418/418/6 419/419/6 420/420/6
vt 0.304688 0.375000
vt 0.312500 0.375000
vt 0.312500 0.390625
vt 0.304688 0.390625
f 421/421/1 422/422/1 423/423/1 424/424/1
vt 0.312500 0.375000
vt 0.304688 0.375000
vt 0.304688 0.390625
vt 0.312500 0.390625
f 425/425/2 426/426/2 427/427/2 428/428/2
vt 0.304688 0.375000
vt 0.312500 0.375000
vt 0.312500 0.390625
vt 0.304688 0.390625
f 429/429/1 430/430/1 431/431/1 432/432/1
vt 0.312500 0.375000
vt 0.304688 0.375000
vt 0.304688 0.390625
vt 0.312500 0.390625
f 433/433/2 434/434/2 435/435/2 436/436/2
vt 0.367188 0.375000
vt 0.375000 0.375000
vt 0.375000 0.390625
vt 0.367188 0.390625
f 437/437/1 438/438/1 439/439/1 440/440/1
vt 0.375000 0.375000
vt 0.367188 0.375000
vt 0.367188 0.390625
vt 0.375000 0.390625
f 441/441/2 442/442/2 443/443/2 444/444/2
vt 0.304688 0.375000
vt 0.312500 0.375000
vt 0.312500 0.390625
vt 0.304688 0.390625
f 445/445/1 446/446/1 447/447/1 448/448/1
vt 0.312500 0.375000
vt 0.304688 0.375000
vt 0.304688 0.390625
vt 0.312500 0.390625
f 449/449/2 450/450/2 451/451/2 452/452/2
vt 0.304688 0.375000
vt 0.312500 0.375000
vt 0.312500 0.390625
vt 0.304688 0.390625
f 453/453/3 454/454/3 455/455/3 456/456/3
vt 0.304688 0.375000
vt 0.312500 0.375000
vt 0.312500 0.390625
vt 0.304688 0.390625
f 457/457/5 458/458/5 459/459/5 460/460/5
vt 0.304688 0.375000
vt 0.312500 0.375000
vt 0.312500 0.390625
vt 0.304688 0.390625
f 461/461/1 462/462/1 463/463/1 464/464/1
vt 0.312500 0.375000
vt 0.304688 0.375000
vt 0.304688 0.390625
vt 0.312500 0.390625
f 465/465/2 466/466/2 467/467/2 468/468/2
vt 0.304688 0.375000
vt 0.312500 0.375000
vt 0.312500 0.390625
vt 0.304688 0.390625
f 469/469/3 470/470/3 471/471/3 472/472/3
vt 0.304688 0.375000
vt 0.312500 0.375000
vt 0.312500 0.390625
vt 0.304688 0.390625
f 473/473/6 474/474/6 475/475/6 476/476/6
vt 0.328125 0.375000
vt 0.335938 0.375000
vt 0.335938 0.390625
vt 0.328125 0.390625
f 477/477/1 478/478/1 479/479/1 480/480/1
vt 0.335938 0.375000
vt 0.328125 0.375000
vt 0.328125 0.390625
vt 0.335938 0.390625
f 481/481/2 482/482/2 483/483/2 484/484/2
vt 0.328125 0.375000
vt 0.335938 0.375000
vt 0.335938 0.390625
vt 0.328125 0.390625
f 485/485/1 486/486/1 487/487/1 488/488/1
vt 0.335938 0.375000
vt 0.328125 0.375000
vt 0.328125 0.390625
vt 0.335938 0.390625
f 489/489/2 490/490/2 491/491/2 492/492/2
vt 0.328125 0.375000
vt 0.335938 0.375000
vt 0.335938 0.390625
vt 0.328125 0.390625
f 493/493/1 494/494/1 495/495/1 496/496/1
vt 0.335938 0.375000
vt 0.328125 0.375000
vt 0.328125 0.390625
vt 0.335938 0.390625
f 497/497/2 498/498/2 499/499/2 500/500/2
vt 0.304688 0.375000
vt 0.312500 0.375000
vt 0.312500 0.390625
vt 0.304688 0.390625
f 501/501/1 502/502/1 503/503/1 504/504/1
vt 0.312500 0.375000
vt 0.304688 0.375000
vt 0.304688 0.390625
vt 0.312500 0.390625
f 505/505/2 506/506/2 507/507/2 508/508/2
vt 0.304688 0.375000
vt 0.312500 0.375000
vt 0.312500 0.390625
vt 0.304688 0.390625
f 509/509/1 510/510/1 511/511/1 512/512/1
vt 0.312500 0.375000
vt 0.304688 0.375000
vt 0.304688 0.390625
vt 0.312500 0.390625
f 513/513/2 514/514/2 515/515/2 516/516/2
vt 0.304688 0.375000
vt 0.312500 0.375000
vt 0.312500 0.390625
vt 0.304688 0.390625
f 517/517/4 518/518/4 519/519/4 520/520/4
vt 0.304688 0.375000
vt 0.312500 0.375000
vt 0.312500 0.390625
vt 0.304688 0.390625
f 521/521/5 522/522/5 523/523/5 524/524/5
vt 0.304688 0.375000
vt 0.312500 0.375000
vt 0.312500 0.390625
vt 0.304688 0.390625
f 525/525/1 526/526/1 527/527/1 528/528/1
vt 0.312500 0.375000
vt 0.304688 0.375000
vt 0.304688 0.390625
vt 0.312500 0.390625
f 529/529/2 530/530/2 531/531/2 532/532/2
vt 0.304688 0.375000
vt 0.312500 0.375000
vt 0.312500 0.390625
vt 0.304688 0.390625
f 533/533/3 534/534/3 535/535/3 536/536/3
vt 0.304688 0.375000
vt 0.312500 0.375000
vt 0.312500 0.390625
vt 0.304688 0.390625
f 537/537/6 538/538/6 539/539/6 540/540/6
vt 0.328125 0.375000
vt 0.335938 0.375000
vt 0.335938 0.390625
vt 0.328125 0.390625
f 541/541/1 542/542/1 543/543/1 544/544/1
vt 0.335938 0.375000
vt 0.328125 0.375000
vt 0.328125 0.390625
vt 0.335938 0.390625
f 545/545/2 546/546/2 547/547/2 548/548/2
vt 0.304688 0.375000
vt 0.312500 0.375000
vt 0.312500 0.390625
vt 0.304688 0.390625
f 549/549/1 550/550/1 551/551/1 552/552/1
vt 0.312500 0.375000
vt 0.304688 0.375000
vt 0.304688 0.390625
vt 0.312500 0.390625
f 553/553/2 554/554/2 555/555/2 556/556/2
vt 0.367188 0.375000
vt 0.375000 0.375000
vt 0.375000 0.390625
vt 0.367188 0.390625
f 557/557/1 558/558/1 559/559/1 560/560/1
vt 0.375000 0.375000
vt 0.367188 0.375000
vt 0.367188 0.390625
vt 0.375000 0.390625
f 561/561/2 562/562/2 563/563/2 564/564/2
vt 0.304688 0.375000
vt 0.312500 0.375000
vt 0.312500 0.390625
vt 0.304688 0.390625
f 565/565/1 566/566/1 567/567/1 568/568/1
vt 0.312500 0.375000
vt 0.304688 0.375000
vt 0.304688 0.390625
vt 0.312500 0.390625
f 569/569/2 570/570/2 571/571/2 572/572/2
vt 0.328125 0.375000
vt 0.335938 0.375000
vt 0.335938 0.390625
vt 0.328125 0.390625
f 573/573/1 574/574/1 575/575/1 576/576/1
vt 0.335938 0.375000
vt 0.328125 0.375000
vt 0.328125 0.390625
vt 0.335938 0.390625
f 577/577/2 578/578/2 579/579/2 580/580/2
vt 0.328125 0.375000
vt 0.335938 0.375000
vt 0.335938 0.390625
vt 0.328125 0.390625
f 581/581/4 582/582/4 583/583/4 584/584/4
vt 0.328125 0.375000
vt 0.335938 0.375000
vt 0.335938 0.390625
vt 0.328125 0.390625
f 585/585/5 586/586/5 587/587/5 588/588/5
vt 0.304688 0.375000
vt 0.312500 0.375000
vt 0.312500 0.390625
vt 0.304688 0.390625
f 589/589/1 590/590/1 591/591/1 592/592/1
vt 0.312500 0.375000
vt 0.304688 0.375000
vt 0.304688 0.390625
vt 0.312500 0.390625
f 593/593/2 594/594/2 595/595/2 596/596/2
vt 0.304688 0.375000
vt 0.312500 0.375000
vt 0.312500 0.390625
vt 0.304688 0.390625
f 597/597/3 598/598/3 599/599/3 600/600/3
vt 0.304688 0.375000
vt 0.312500 0.375000
vt 0.312500 0.390625
vt 0.304688 0.390625
f 601/601/6 602/602/6 603/603/6 604/604/6
vt 0.304688 0.375000
vt 0.312500 0.375000
vt 0.312500 0.390625
vt 0.304688 0.390625
f 605/605/1 606/606/1 607/607/1 608/608/1
vt 0.312500 0.375000
vt 0.304688 0.375000
vt 0.304688 0.390625
vt 0.312500 0.390625
f 609/609/2 610/610/2 611/611/2 612/612/2
vt 0.335938 0.375000
vt 0.343750 0.375000
vt 0.343750 0.390625
vt 0.335938 0.390625
f 613/613/1 614/614/1 615/615/1 616/616/1
vt 0.343750 0.375000
vt 0.335938 0.375000
vt 0.335938 0.390625
vt 0.343750 0.390625
f 617/617/2 618/618/2 619/619/2 620/620/2
vt 0.328125 0.375000
vt 0.335938 0.375000
vt 0.335938 0.390625
vt 0.328125 0.390625
f 621/621/1 622/622/1 623/623/1 624/624/1
vt 0.335938 0.375000
vt 0.328125 0.375000
vt 0.328125 0.390625
vt 0.335938 0.390625
f 625/625/2 626/626/2 627/627/2 628/628/2
vt 0.304688 0.375000
vt 0.312500 0.375000
vt 0.312500 0.390625
vt 0.304688 0.390625
f 629/629/1 630/630/1 631/631/1 632/632/1
vt 0.312500 0.375000
vt 0.304688 0.375000
vt 0.304688 0.390625
vt 0.312500 0.390625
f 633/633/2 634/634/2 635/635/2 636/636/2
vt 0.304688 0.375000
vt 0.312500 0.375000
vt 0.312500 0.390625
vt 0.304688 0.390625
f 637/637/1 638/638/1 639/639/1 640/640/1
vt 0.312500 0.375000
vt 0.304688 0.375000
vt 0.304688 0.390625
vt 0.312500 0.390625
f 641/641/2 642/642/2 643/643/2 644/644/2
vt 0.304688 0.375000
vt 0.312500 0.375000
vt 0.312500 0.390625
vt 0.304688 0.390625
f 645/645/5 646/646/5 647/647/5 648/648/5
vt 0.289062 0.375000
vt 0.296875 0.375000
vt 0.296875 0.390625
vt 0.289062 0.390625
f 649/649/1 650/650/1 651/651/1 652/652/1
vt 0.296875 0.375000
vt 0.289062 0.375000
vt 0.289062 0.390625
vt 0.296875 0.390625
f 653/653/2 654/654/2 655/655/2 656/656/2
vt 0.289062 0.375000
vt 0.296875 0.375000
vt 0.296875 0.390625
vt 0.289062 0.390625
f 657/657/3 658/658/3 659/659/3 660/660/3
vt 0.289062 0.375000
vt 0.296875 0.375000
vt 0.296875 0.390625
vt 0.289062 0.390625
f 661/661/6 662/662/6 663/663/6 664/664/6
vt 0.312500 0.375000
vt 0.320312 0.375000
vt 0.320312 0.390625
vt 0.312500 0.390625
f 665/665/1 666/666/1 667/667/1 668/668/1
vt 0.320312 0.375000
vt 0.312500 0.375000
vt 0.312500 0.390625
vt 0.320312 0.390625
f 669/669/2 670/670/2 671/671/2 672/672/2
vt 0.304688 0.375000
vt 0.312500 0.375000
vt 0.312500 0.390625
vt 0.304688 0.390625
f 673/673/1 674/674/1 675/675/1 676/676/1
vt 0.312500 0.375000
vt 0.304688 0.375000
vt 0.304688 0.390625
vt 0.312500 0.390625
f 677/677/2 678/678/2 679/679/2 680/680/2
vt 0.304688 0.375000
vt 0.312500 0.375000
vt 0.312500 0.390625
vt 0.304688 0.390625
f 681/681/1 682/682/1 683/683/1 684/684/1
vt 0.312500 0.375000
vt 0.304688 0.375000
vt 0.304688 0.390625
vt 0.312500 0.390625
f 685/685/2 686/686/2 687/687/2 688/688/2
vt 0.304688 0.375000
vt 0.312500 0.375000
vt 0.312500 0.390625
vt 0.304688 0.390625
f 689/689/1 690/690/1 691/691/1 692/692/1
vt 0.312500 0.375000
vt 0.304688 0.375000
vt 0.304688 0.390625
vt 0.312500 0.390625
f 693/693/2 694/694/2 695/695/2 696/696/2
vt 0.304688 0.375000
vt 0.312500 0.375000
vt 0.312500 0.390625
vt 0.304688 0.390625
f 697/697/1 698/698/1 699/699/1 700/700/1
vt 0.312500 0.375000
vt 0.304688 0.375000
vt 0.304688 0.390625
vt 0.312500 0.390625
f 701/701/2 702/702/2 703/703/2 704/704/2
vt 0.304688 0.375000
vt 0.312500 0.375000
vt 0.312500 0.390625
vt 0.304688 0.390625
f 705/705/1 706/706/1 707/707/1 708/708/1
vt 0.312500 0.375000
vt 0.304688 0.375000
vt 0.304688 0.390625
vt 0.312500 0.390625
f 709/709/2 710/710/2 711/711/2 712/712/2
vt 0.304688 0.375000
vt 0.312500 0.375000
vt 0.312500 0.390625
vt 0.304688 0.390625
f 713/713/4 714/714/4 715/715/4 716/716/4
vt 0.304688 0.375000
vt 0.312500 0.375000
vt 0.312500 0.390625
vt 0.304688 0.390625
f 717/717/5 718/718/5 719/719/5 720/720/5
vt 0.351562 0.375000
vt 0.359375 0.375000
vt 0.359375 0.390625
vt 0.351562 0.390625
f 721/721/1 722/722/1 723/723/1 724/724/1
vt 0.359375 0.375000
vt 0.351562 0.375000
vt 0.351562 0.390625
vt 0.359375 0.390625
f 725/725/2 726/726/2 727/727/2 728/728/2
vt 0.351562 0.375000
vt 0.359375 0.375000
vt 0.359375 0.390625
vt 0.351562 0.390625
f 729/729/4 730/730/4 731/731/4 732/732/4
vt 0.351562 0.375000
vt 0.359375 0.375000
vt 0.359375 0.390625
vt 0.351562 0.390625
f 733/733/6 734/734/6 735/735/6 736/736/6
vt 0.320312 0.375000
vt 0.328125 0.375000
vt 0.328125 0.390625
vt 0.320312 0.390625
f 737/737/1 738/738/1 739/739/1 740/740/1
vt 0.328125 0.375000
vt 0.320312 0.375000
vt 0.320312 0.390625
vt 0.328125 0.390625
f 741/741/2 742/742/2 743/743/2 744/744/2
vt 0.312500 0.375000
vt 0.320312 0.375000
vt 0.320312 0.390625
vt 0.312500 0.390625
f 745/745/1 746/746/1 747/747/1 748/748/1
vt 0.320312 0.375000
vt 0.312500 0.375000
vt 0.312500 0.390625
vt 0.320312 0.390625
f 749/749/2 750/750/2 751/751/2 752/752/2
vt 0.343750 0.375000
vt 0.351562 0.375000
vt 0.351562 0.390625
vt 0.343750 0.390625
f 753/753/1 754/754/1 755/755/1 756/756/1
vt 0.351562 0.375000
vt 0.343750 0.375000
vt 0.343750 0.390625
vt 0.351562 0.390625
f 757/757/2 758/758/2 759/759/2 760/760/2
vt 0.343750 0.375000
vt 0.351562 0.375000
vt 0.351562 0.390625
vt 0.343750 0.390625
f 761/761/1 762/762/1 763/763/1 764/764/1
vt 0.351562 0.375000
vt 0.343750 0.375000
vt 0.343750 0.390625
vt 0.351562 0.390625
f 765/765/2 766/766/2 767/767/2 768/768/2
vt 0.343750 0.375000
vt 0.351562 0.375000
vt 0.351562 0.390625
vt 0.343750 0.390625
f 769/769/1 770/770/1 771/771/1 772/772/1
vt 0.351562 0.375000
vt 0.343750 0.375000
vt 0.343750 0.390625
vt 0.351562 0.390625
f 773/773/2 774/774/2 775/775/2 776/776/2
vt 0.343750 0.375000
vt 0.351562 0.375000
vt 0.351562 0.390625
vt 0.343750 0.390625
f 777/777/5 778/778/5 779/779/5 780/780/5
vt 0.351562 0.375000
vt 0.359375 0.375000
vt 0.359375 0.390625
vt 0.351562 0.390625
f 781/781/1 782/782/1 783/783/1 784/784/1
vt 0.359375 0.375000
vt 0.351562 0.375000
vt 0.351562 0.390625
vt 0.359375 0.390625
f 785/785/2 786/786/2 787/787/2 788/788/2
vt 0.351562 0.375000
vt 0.359375 0.375000
vt 0.359375 0.390625
vt 0.351562 0.390625
f 789/789/4 790/790/4 791/791/4 792/792/4
vt 0.351562 0.375000
vt 0.359375 0.375000
vt 0.359375 0.390625
vt 0.351562 0.390625
f 793/793/6 794/794/6 795/795/6 796/796/6
vt 0.320312 0.375000
vt 0.328125 0.375000
vt 0.328125 0.390625
vt 0.320312 0.390625
f 797/797/1 798/798/1 799/799/1 800/800/1
vt 0.328125 0.375000
vt 0.320312 0.375000
vt 0.320312 0.390625
vt 0.328125 0.390625
f 801/801/2 802/802/2 803/803/2 804/804/2
vt 0.320312 0.375000
vt 0.328125 0.375000
vt 0.328125 0.390625
vt 0.320312 0.390625
f 805/805/1 806/806/1 807/807/1 808/808/1
vt 0.328125 0.375000
vt 0.320312 0.375000
vt 0.320312 0.390625
vt 0.328125 0.390625
f 809/809/2 810/810/2 811/811/2 812/812/2
vt 0.320312 0.375000
vt 0.328125 0.375000
vt 0.328125 0.390625
vt 0.320312 0.390625
f 813/813/1 814/814/1 815/815/1 816/816/1
vt 0.328125 0.375000
vt 0.320312 0.375000
vt 0.320312 0.390625
vt 0.328125 0.390625
f 817/817/2 818/818/2 819/819/2 820/820/2
vt 0.289062 0.375000
vt 0.296875 0.375000
vt 0.296875 0.390625
vt 0.289062 0.390625
f 821/821/1 822/822/1 823/823/1 824/824/1
vt 0.296875 0.375000
vt 0.289062 0.375000
vt 0.289062 0.390625
vt 0.296875 0.390625
f 825/825/2 826/826/2 827/827/2 828/828/2
vt 0.289062 0.375000
vt 0.296875 0.375000
vt 0.296875 0.390625
vt 0.289062 0.390625
f 829/829/4 830/830/4 831/831/4 832/832/4
vt 0.289062 0.375000
vt 0.296875 0.375000
vt 0.296875 0.390625
vt 0.289062 0.390625
f 833/833/5 834/834/5 835/835/5 836/836/5
vt 0.351562 0.375000
vt 0.359375 0.375000
vt 0.359375 0.390625
vt 0.351562 0.390625
f 837/837/1 838/838/1 839/839/1 840/840/1
vt 0.359375 0.375000
vt 0.351562 0.375000
vt 0.351562 0.390625
vt 0.359375 0.390625
f 841/841/2 842/842/2 843/843/2 844/844/2
vt 0.351562 0.375000
vt 0.359375 0.375000
vt 0.359375 0.390625
vt 0.351562 0.390625
f 845/845/4 846/846/4 847/847/4 848/848/4
vt 0.351562 0.375000
vt 0.359375 0.375000
vt 0.359375 0.390625
vt 0.351562 0.390625
f 849/849/6 850/850/6 851/851/6 852/852/6
vt 0.351562 0.375000
vt 0.359375 0.375000
vt 0.359375 0.390625
vt 0.351562 0.390625
f 853/853/1 854/854/1 855/855/1 856/856/1
vt 0.359375 0.375000
vt 0.351562 0.375000
vt 0.351562 0.390625
vt 0.359375 0.390625
f 857/857/2 858/858/2 859/859/2 860/860/2
vt 0.351562 0.375000
vt 0.359375 0.375000
vt 0.359375 0.390625
vt 0.351562 0.390625
f 861/861/4 862/862/4 863/863/4 864/864/4
vt 0.351562 0.375000
vt 0.359375 0.375000
vt 0.359375 0.390625
vt 0.351562 0.390625
f 865/865/1 866/866/1 867/867/1 868/868/1
vt 0.359375 0.375000
vt 0.351562 0.375000
vt 0.351562 0.390625
vt 0.359375 0.390625
f 869/869/2 870/870/2 871/871/2 872/872/2
vt 0.351562 0.375000
vt 0.359375 0.375000
vt 0.359375 0.390625
vt 0.351562 0.390625
f 873/873/4 874/874/4 875/875/4 876/876/4
vt 0.351562 0.375000
vt 0.359375 0.375000
vt 0.359375 0.390625
vt 0.351562 0.390625
f 877/877/5 878/878/5 879/879/5 880/880/5
o mesh_mask_4
vt 0.304688 0.375000
vt 0.312500 0.375000
vt 0.312500 0.390625
vt 0.304688 0.390625
f 881/881/1 882/882/1 883/883/1 884/884/1
vt 0.312500 0.375000
vt 0.304688 0.375000
vt 0.304688 0.390625
vt 0.312500 0.390625
f 885/885/2 886/886/2 887/887/2 888/888/2
vt 0.304688 0.375000
vt 0.312500 0.375000
vt 0.312500 0.390625
vt 0.304688 0.390625
f 889/889/3 890/890/3 891/891/3 892/892/3
vt 0.304688 0.375000
vt 0.312500 0.375000
vt 0.312500 0.390625
vt 0.304688 0.390625
f 893/893/5 894/894/5 895/895/5 896/896/5
vt 0.304688 0.375000
vt 0.312500 0.375000
vt 0.312500 0.390625
vt 0.304688 0.390625
f 897/897/6 898/898/6 899/899/6 900/900/6
vt 0.328125 0.375000
vt 0.335938 0.375000
vt 0.335938 0.390625
vt 0.328125 0.390625
f 901/901/1 902/902/1 903/903/1 904/904/1
vt 0.335938 0.375000
vt 0.328125 0.375000
vt 0.328125 0.390625
vt 0.335938 0.390625
f 905/905/2 906/906/2 907/907/2 908/908/2
vt 0.328125 0.375000
vt 0.335938 0.375000
vt 0.335938 0.390625
vt 0.328125 0.390625
f 909/909/3 910/910/3 911/911/3 912/912/3
vt 0.328125 0.375000
vt 0.335938 0.375000
vt 0.335938 0.390625
vt 0.328125 0.390625
f 913/913/6 914/914/6 915/915/6 916/916/6
vt 0.375000 0.375000
vt 0.382812 0.375000
vt 0.382812 0.390625
vt 0.375000 0.390625
f 917/917/1 918/918/1 919/919/1 920/920/1
vt 0.382812 0.375000
vt 0.375000 0.375000
vt 0.375000 0.390625
vt 0.382812 0.390625
f 921/921/2 922/922/2 923/923/2 924/924/2
vt 0.343750 0.375000
vt 0.351562 0.375000
vt 0.351562 0.390625
vt 0.343750 0.390625
f 925/925/1 926/926/1 927/927/1 928/928/1
vt 0.351562 0.375000
vt 0.343750 0.375000
vt 0.343750 0.390625
vt 0.351562 0.390625
f 929/929/2 930/930/2 931/931/2 932/932/2
vt 0.343750 0.375000
vt 0.351562 0.375000
vt 0.351562 0.390625
vt 0.343750 0.390625
f 933/933/3 934/934/3 935/935/3 936/936/3
vt 0.289062 0.375000
vt 0.296875 0.375000
vt 0.296875 0.390625
vt 0.289062 0.390625
f 937/937/1 938/938/1 939/939/1 940/940/1
vt 0.296875 0.375000
vt 0.289062 0.375000
vt 0.289062 0.390625
vt 0.296875 0.390625
f 941/941/2 942/942/2 943/943/2 944/944/2
vt 0.289062 0.375000
vt 0.296875 0.375000
vt 0.296875 0.390625
vt 0.289062 0.390625
f 945/945/3 946/946/3 947/947/3 948/948/3
vt 0.351562 0.375000
vt 0.359375 0.375000
vt 0.359375 0.390625
vt 0.351562 0.390625
f 949/949/1 950/950/1 951/951/1 952/952/1
vt 0.359375 0.375000
vt 0.351562 0.375000
vt 0.351562 0.390625
vt 0.359375 0.390625
f 953/953/2 954/954/2 955/955/2 956/956/2
vt 0.351562 0.375000
vt 0.359375 0.375000
vt 0.359375 0.390625
vt 0.351562 0.390625
f 957/957/3 958/958/3 959/959/3 960/960/3
vt 0.351562 0.375000
vt 0.359375 0.375000
vt 0.359375 0.390625
vt 0.351562 0.390625
f 961/961/4 962/962/4 963/963/4 964/964/4
vt 0.351562 0.375000
vt 0.359375 0.375000
vt 0.359375 0.390625
vt 0.351562 0.390625
f 965/965/5 966/966/5 967/967/5 968/968/5
vt 0.328125 0.375000
vt 0.335938 0.375000
vt 0.335938 0.390625
vt 0.328125 0.390625
f 969/969/1 970/970/1 971/971/1 972/972/1
vt 0.335938 0.375000
vt 0.328125 0.375000
vt 0.328125 0.390625
vt 0.335938 0.390625
f 973/973/2 974/974/2 975/975/2 976/976/2
vt 0.328125 0.375000
vt 0.335938 0.375000
vt 0.335938 0.390625
vt 0.328125 0.390625
f 977/977/3 978/978/3 979/979/3 980/980/3
vt 0.328125 0.375000
vt 0.335938 0.375000
vt 0.335938 0.390625
vt 0.328125 0.390625
f 981/981/6 982/982/6 983/983/6 984/984/6
vt 0.304688 0.375000
vt 0.312500 0.375000
vt 0.312500 0.390625
vt 0.304688 0.390625
f 985/985/1 986/986/1 987/987/1 988/988/1
vt 0.312500 0.375000
vt 0.304688 0.375000
vt 0.304688 0.390625
vt 0.312500 0.390625
f 989/989/2 990/990/2 991/991/2 992/992/2
vt 0.343750 0.375000
vt 0.351562 0.375000
vt 0.351562 0.390625
vt 0.343750 0.390625
f 993/993/1 994/994/1 995/995/1 996/996/1
vt 0.351562 0.375000
vt 0.343750 0.375000
vt 0.343750 0.390625
vt 0.351562 0.390625
f 997/997/2 998/998/2 999/999/2 1000/1000/2
vt 0.320312 0.375000
vt 0.328125 0.375000
vt 0.328125 0.390625
vt 0.320312 0.390625
f 1001/1001/1 1002/1002/1 1003/1003/1 1004/1004/1
vt 0.328125 0.375000
vt 0.320312 0.375000
vt 0.320312 0.390625
vt 0.328125 0.390625
f 1005/1005/2 1006/1006/2 1007/1007/2 1008/1008/2
vt 0.351562 0.375000
vt 0.359375 0.375000
vt 0.359375 0.390625
vt 0.351562 0.390625
f 1009/1009/1 1010/1010/1 1011/1011/1 1012/1012/1
vt 0.359375 0.375000
vt 0.351562 0.375000
vt 0.351562 0.390625
vt 0.359375 0.390625
f 1013/1013/2 1014/1014/2 1015/1015/2 1016/1016/2
vt 0.351562 0.375000
vt 0.359375 0.375000
vt 0.359375 0.390625
vt 0.351562 0.390625
f 1017/1017/5 1018/1018/5 1019/1019/5 1020/1020/5
vt 0.375000 0.375000
vt 0.382812 0.375000
vt 0.382812 0.390625
vt 0.375000 0.390625
f 1021/1021/1 1022/1022/1 1023/1023/1 1024/1024/1
vt 0.382812 0.375000
vt 0.375000 0.375000
vt 0.375000 0.390625
vt 0.382812 0.390625
f 1025/1025/2 1026/1026/2 1027/1027/2 1028/1028/2
vt 0.375000 0.375000
vt 0.382812 0.375000
vt 0.382812 0.390625
vt 0.375000 0.390625
f 1029/1029/6 1030/1030/6 1031/1031/6 1032/1032/6
vt 0.343750 0.375000
vt 0.351562 0.375000
vt 0.351562 0.390625
vt 0.343750 0.390625
f 1033/1033/1 1034/1034/1 1035/1035/1 1036/1036/1
vt 0.351562 0.375000
vt 0.343750 0.375000
vt 0.343750 0.390625
vt 0.351562 0.390625
f 1037/1037/2 1038/1038/2 1039/1039/2 1040/1040/2
vt 0.320312 0.375000
vt 0.328125 0.375000
vt 0.328125 0.390625
vt 0.320312 0.390625
f 1041/1041/1 1042/1042/1 1043/1043/1 1044/1044/1
vt 0.328125 0.375000
vt 0.320312 0.375000
vt 0.320312 0.390625
vt 0.328125 0.390625
f 1045/1045/2 1046/1046/2 1047/1047/2 1048/1048/2
vt 0.296875 0.375000
vt 0.304688 0.375000
vt 0.304688 0.390625
vt 0.296875 0.390625
f 1049/1049/1 1050/1050/1 1051/1051/1 1052/1052/1
vt 0.304688 0.375000
vt 0.296875 0.375000
vt 0.296875 0.390625
vt 0.304688 0.390625
f 1053/1053/2 1054/1054/2 1055/1055/2 1056/1056/2
vt 0.351562 0.375000
vt 0.359375 0.375000
vt 0.359375 0.390625
vt 0.351562 0.390625
f 1057/1057/1 1058/1058/1 1059/1059/1 1060/1060/1
vt 0.359375 0.375000
vt 0.351562 0.375000
vt 0.351562 0.390625
vt 0.359375 0.390625
f 1061/1061/2 1062/1062/2 1063/1063/2 1064/1064/2
vt 0.351562 0.375000
vt 0.359375 0.375000
vt 0.359375 0.390625
vt 0.351562 0.390625
f 1065/1065/4 1066/1066/4 1067/1067/4 1068/1068/4
vt 0.351562 0.375000
vt 0.359375 0.375000
vt 0.359375 0.390625
vt 0.351562 0.390625
f 1069/1069/5 1070/1070/5 1071/1071/5 1072/1072/5
vt 0.343750 0.375000
vt 0.351562 0.375000
vt 0.351562 0.390625
vt 0.343750 0.390625
f 1073/1073/1 1074/1074/1 1075/1075/1 1076/1076/1
vt 0.351562 0.375000
vt 0.343750 0.375000
vt 0.343750 0.390625
vt 0.351562 0.390625
f 1077/1077/2 1078/1078/2 1079/1079/2 1080/1080/2
vt 0.343750 0.375000
vt 0.351562 0.375000
vt 0.351562 0.390625
vt 0.343750 0.390625
f 1081/1081/3 1082/1082/3 1083/1083/3 1084/1084/3
vt 0.343750 0.375000
vt 0.351562 0.375000
vt 0.351562 0.390625
vt 0.343750 0.390625
f 1085/1085/6 1086/1086/6 1087/1087/6 1088/1088/6
vt 0.343750 0.375000
vt 0.351562 0.375000
vt 0.351562 0.390625
vt 0.343750 0.390625
f 1089/1089/1 1090/1090/1 1091/1091/1 1092/1092/1
vt 0.351562 0.375000
vt 0.343750 0.375000
vt 0.343750 0.390625
vt 0.351562 0.390625
f 1093/1093/2 1094/1094/2 1095/1095/2 1096/1096/2
vt 0.289062 0.375000
vt 0.296875 0.375000
vt 0.296875 0.390625
vt 0.289062 0.390625
f 1097/1097/1 1098/1098/1 1099/1099/1 1100/1100/1
vt 0.296875 0.375000
vt 0.289062 0.375000
vt 0.289062 0.390625
vt 0.296875 0.390625
f 1101/1101/2 1102/1102/2 1103/1103/2 1104/1104/2
vt 0.296875 0.375000
vt 0.304688 0.375000
vt 0.304688 0.390625
vt 0.296875 0.390625
f 1105/1105/1 1106/1106/1 1107/1107/1 1108/1108/1
vt 0.304688 0.375000
vt 0.296875 0.375000
vt 0.296875 0.390625
vt 0.304688 0.390625
f 1109/1109/2 1110/1110/2 1111/1111/2 1112/1112/2
vt 0.351562 0.375000
vt 0.359375 0.375000
vt 0.359375 0.390625
vt 0.351562 0.390625
f 1113/1113/1 1114/1114/1 1115/1115/1 1116/1116/1
vt 0.359375 0.375000
vt 0.351562 0.375000
vt 0.351562 0.390625
vt 0.359375 0.390625
f 1117/1117/2 1118/1118/2 1119/1119/2 1120/1120/2
vt 0.351562 0.375000
vt 0.359375 0.375000
vt 0.359375 0.390625
vt 0.351562 0.390625
f 1121/1121/4 1122/1122/4 1123/1123/4 1124/1124/4
vt 0.351562 0.375000
vt 0.359375 0.375000
vt 0.359375 0.390625
vt 0.351562 0.390625
f 1125/1125/5 1126/1126/5 1127/1127/5 1128/1128/5
vt 0.289062 0.375000
vt 0.296875 0.375000
vt 0.296875 0.390625
vt 0.289062 0.390625
f 1129/1129/1 1130/1130/1 1131/1131/1 1132/1132/1
vt 0.296875 0.375000
vt 0.289062 0.375000
vt 0.289062 0.390625
vt 0.296875 0.390625
f 1133/1133/2 1134/1134/2 1135/1135/2 1136/1136/2
vt 0.289062 0.375000
vt 0.296875 0.375000
vt 0.296875 0.390625
vt 0.289062 0.390625
f 1137/1137/6 1138/1138/6 1139/1139/6 1140/1140/6
vt 0.296875 0.375000
vt 0.304688 0.375000
vt 0.304688 0.390625
vt 0.296875 0.390625
f 1141/1141/1 1142/1142/1 1143/1143/1 1144/1144/1
vt 0.304688 0.375000
vt 0.296875 0.375000
vt 0.296875 0.390625
vt 0.304688 0.390625
f 1145/1145/2 1146/1146/2 1147/1147/2 1148/1148/2
vt 0.351562 0.375000
vt 0.359375 0.375000
vt 0.359375 0.390625
vt 0.351562 0.390625
f 1149/1149/1 1150/1150/1 1151/1151/1 1152/1152/1
vt 0.359375 0.375000
vt 0.351562 0.375000
vt 0.351562 0.390625
vt 0.359375 0.390625
f 1153/1153/2 1154/1154/2 1155/1155/2 1156/1156/2
vt 0.351562 0.375000
vt 0.359375 0.375000
vt 0.359375 0.390625
vt 0.351562 0.390625
f 1157/1157/4 1158/1158/4 1159/1159/4 1160/1160/4
vt 0.351562 0.375000
vt 0.359375 0.375000
vt 0.359375 0.390625
vt 0.351562 0.390625
f 1161/1161/1 1162/1162/1 1163/1163/1 1164/1164/1
vt 0.359375 0.375000
vt 0.351562 0.375000
vt 0.351562 0.390625
vt 0.359375 0.390625
f 1165/1165/2 1166/1166/2 1167/1167/2 1168/1168/2
vt 0.351562 0.375000
vt 0.359375 0.375000
vt 0.359375 0.390625
vt 0.351562 0.390625
f 1169/1169/4 1170/1170/4 1171/1171/4 1172/1172/4
vt 0.351562 0.375000
vt 0.359375 0.375000
vt 0.359375 0.390625
vt 0.351562 0.390625
f 1173/1173/5 1174/1174/5 1175/1175/5 1176/1176/5
vt 0.351562 0.375000
vt 0.359375 0.375000
vt 0.359375 0.390625
vt 0.351562 0.390625
f 1177/1177/1 1178/1178/1 1179/1179/1 1180/1180/1
vt 0.359375 0.375000
vt 0.351562 0.375000
vt 0.351562 0.390625
vt 0.359375 0.390625
f 1181/1181/2 1182/1182/2 1183/1183/2 1184/1184/2
vt 0.351562 0.375000
vt 0.359375 0.375000
vt 0.359375 0.390625
vt 0.351562 0.390625
f 1185/1185/3 1186/1186/3 1187/1187/3 1188/1188/3
vt 0.351562 0.375000
vt 0.359375 0.375000
vt 0.359375 0.390625
vt 0.351562 0.390625
f 1189/1189/4 1190/1190/4 1191/1191/4 1192/1192/4
vt 0.351562 0.375000
vt 0.359375 0.375000
vt 0.359375 0.390625
vt 0.351562 0.390625
f 1193/1193/6 1194/1194/6 1195/1195/6 1196/1196/6
vt 0.351562 0.375000
vt 0.359375 0.375000
vt 0.359375 0.390625
vt 0.351562 0.390625
f 1197/1197/1 1198/1198/1 1199/1199/1 1200/1200/1
vt 0.359375 0.375000
vt 0.351562 0.375000
vt 0.351562 0.390625
vt 0.359375 0.390625
f 1201/1201/2 1202/1202/2 1203/1203/2 1204/1204/2
vt 0.351562 0.375000
vt 0.359375 0.375000
vt 0.359375 0.390625
vt 0.351562 0.390625
f 1205/1205/4 1206/1206/4 1207/1207/4 1208/1208/4
vt 0.351562 0.375000
vt 0.359375 0.375000
vt 0.359375 0.390625
vt 0.351562 0.390625
f 1209/1209/1 1210/1210/1 1211/1211/1 1212/1212/1
vt 0.359375 0.375000
vt 0.351562 0.375000
vt 0.351562 0.390625
vt 0.359375 0.390625
f 1213/1213/2 1214/1214/2 1215/1215/2 1216/1216/2
vt 0.351562 0.375000
vt 0.359375 0.375000
vt 0.359375 0.390625
vt 0.351562 0.390625
f 1217/1217/4 1218/1218/4 1219/1219/4 1220/1220/4
vt 0.351562 0.375000
vt 0.359375 0.375000
vt 0.359375 0.390625
vt 0.351562 0.390625
f 1221/1221/5 1222/1222/5 1223/1223/5 1224/1224/5
