# Blender 5.1.1
# www.blender.org
mtllib 物品.mtl
o 纸棍
v 0.125000 0.055987 0.125000
v 0.125000 0.055987 -0.125000
v 0.125000 -0.006513 0.125000
v 0.125000 -0.006513 -0.125000
v -0.125000 0.055987 -0.125000
v -0.125000 0.055987 0.125000
v -0.125000 -0.006513 -0.125000
v -0.125000 -0.006513 0.125000
v 0.125000 1.930987 0.125000
v 0.125000 1.930987 -0.125000
v 0.125000 0.993487 0.125000
v 0.125000 0.993487 -0.125000
v -0.125000 1.930987 -0.125000
v -0.125000 1.930987 0.125000
v -0.125000 0.993487 -0.125000
v -0.125000 0.993487 0.125000
v 0.125000 1.993487 0.125000
v 0.125000 1.993487 -0.125000
v -0.125000 1.993487 -0.125000
v -0.125000 1.993487 0.125000
vn -0.0000 -0.0000 -1.0000
vn 1.0000 -0.0000 -0.0000
vn -0.0000 -0.0000 1.0000
vn -1.0000 -0.0000 -0.0000
vn -0.0000 -1.0000 -0.0000
vn -0.0000 1.0000 -0.0000
vt 0.208333 0.062500
vt 0.291667 0.062500
vt 0.291667 0.083333
vt 0.208333 0.083333
vt 0.208333 0.104167
vt 0.291667 0.104167
vt 0.291667 0.125000
vt 0.208333 0.125000
vt 0.208333 0.250000
vt 0.291667 0.250000
vt 0.291667 0.333333
vt 0.208333 0.333333
vt 0.104167 -0.000000
vt 0.187500 -0.000000
vt 0.187500 0.312500
vt 0.104167 0.312500
vt 0.000000 -0.000000
vt 0.083333 -0.000000
vt 0.083333 0.312500
vt 0.000000 0.312500
vt 0.104167 0.020833
vt 0.187500 0.020833
vt 0.187500 0.333333
vt 0.104167 0.333333
vt 0.000000 0.020833
vt 0.083333 0.020833
vt 0.083333 0.333333
vt 0.000000 0.333333
vt 0.208333 0.166667
vt 0.291667 0.166667
vt 0.291667 0.187500
vt 0.208333 0.187500
vt 0.208333 0.208333
vt 0.291667 0.208333
vt 0.291667 0.229167
vt 0.208333 0.229167
s 1
usemtl merge
f 4/1/1 7/2/1 5/3/1 2/4/1
f 3/5/2 4/6/2 2/7/2 1/8/2
f 8/1/3 3/2/3 1/3/3 6/4/3
f 7/5/4 8/6/4 6/7/4 5/8/4
f 7/9/5 4/10/5 3/11/5 8/12/5
f 12/13/1 15/14/1 13/15/1 10/16/1
f 11/17/2 12/18/2 10/19/2 9/20/2
f 16/13/3 11/14/3 9/15/3 14/16/3
f 15/17/4 16/18/4 14/19/4 13/20/4
f 2/21/1 5/22/1 15/23/1 12/24/1
f 1/25/2 2/26/2 12/27/2 11/28/2
f 6/21/3 1/22/3 11/23/3 16/24/3
f 5/25/4 6/26/4 16/27/4 15/28/4
f 10/29/1 13/30/1 19/31/1 18/32/1
f 9/33/2 10/34/2 18/35/2 17/36/2
f 14/29/3 9/30/3 17/31/3 20/32/3
f 13/33/4 14/34/4 20/35/4 19/36/4
f 20/9/6 17/10/6 18/11/6 19/12/6
o 物理手杖
v 0.319568 1.345721 0.003125
v 0.319568 1.345721 -0.003125
v 0.187500 1.062500 0.003125
v 0.187500 1.062500 -0.003125
v 0.206280 1.398548 -0.003125
v 0.206280 1.398548 0.003125
v 0.062500 0.062500 0.062500
v 0.062500 0.062500 -0.062500
v 0.062500 -0.937500 0.062500
v 0.062500 -0.937500 -0.062500
v -0.062500 0.062500 -0.062500
v -0.062500 0.062500 0.062500
v -0.062500 -0.937500 -0.062500
v -0.062500 -0.937500 0.062500
v 0.075000 -0.875000 0.075000
v 0.075000 -0.875000 -0.075000
v 0.075000 -1.000000 0.075000
v 0.075000 -1.000000 -0.075000
v -0.075000 -0.875000 -0.075000
v -0.075000 -0.875000 0.075000
v -0.075000 -1.000000 -0.075000
v -0.075000 -1.000000 0.075000
v 0.075000 0.406250 0.075000
v 0.075000 0.406250 -0.075000
v 0.075000 -0.031250 0.075000
v 0.075000 -0.031250 -0.075000
v -0.075000 0.406250 -0.075000
v -0.075000 0.406250 0.075000
v -0.075000 -0.031250 -0.075000
v -0.075000 -0.031250 0.075000
v 0.075000 1.156250 0.075000
v 0.075000 1.156250 -0.075000
v 0.075000 0.968750 0.075000
v 0.075000 0.968750 -0.075000
v -0.075000 1.156250 -0.075000
v -0.075000 1.156250 0.075000
v -0.075000 0.968750 -0.075000
v -0.075000 0.968750 0.075000
v 0.093750 0.625000 0.093750
v 0.093750 0.625000 -0.093750
v 0.093750 0.500000 0.093750
v 0.093750 0.500000 -0.093750
v -0.093750 0.625000 -0.093750
v -0.093750 0.625000 0.093750
v -0.093750 0.500000 -0.093750
v -0.093750 0.500000 0.093750
v -0.093750 1.000000 0.093750
v -0.093750 1.000000 -0.093750
v -0.093750 0.875000 0.093750
v -0.093750 0.875000 -0.093750
v 0.093750 1.000000 -0.093750
v 0.093750 1.000000 0.093750
v 0.093750 0.875000 -0.093750
v 0.093750 0.875000 0.093750
v -0.000000 1.250651 -0.000000
v 0.187825 1.062825 -0.000000
v -0.187825 1.062825 -0.000000
v 0.062500 0.562500 0.062500
v 0.062500 0.562500 -0.062500
v 0.062500 0.375000 0.062500
v 0.062500 0.375000 -0.062500
v -0.062500 0.562500 -0.062500
v -0.062500 0.562500 0.062500
v -0.062500 0.375000 -0.062500
v -0.062500 0.375000 0.062500
v 0.062500 0.937500 0.062500
v 0.062500 0.937500 -0.062500
v -0.062500 0.937500 -0.062500
v -0.062500 0.937500 0.062500
v -0.075000 0.531250 0.075000
v -0.075000 0.531250 -0.075000
v 0.075000 0.531250 -0.075000
v 0.075000 0.531250 0.075000
v 0.108243 1.373521 0.000130
v 0.036884 1.425457 -0.088388
v 0.034687 1.272455 0.000130
v -0.036673 1.324390 -0.088388
v -0.034687 1.477545 -0.000131
v 0.036673 1.425610 0.088388
v -0.108243 1.376479 -0.000131
v -0.036884 1.324543 0.088388
v 0.125000 0.968750 0.125000
v 0.125000 0.968750 -0.125000
v 0.125000 0.906250 0.125000
v 0.125000 0.906250 -0.125000
v -0.125000 0.968750 -0.125000
v -0.125000 0.968750 0.125000
v -0.125000 0.906250 -0.125000
v -0.125000 0.906250 0.125000
v -0.206280 1.398548 0.003125
v -0.206280 1.398548 -0.003125
v -0.319568 1.345721 -0.003125
v -0.319568 1.345721 0.003125
v -0.187500 1.062500 -0.003125
v -0.187500 1.062500 0.003125
v -0.130856 1.088914 -0.003125
v -0.262924 1.372135 -0.003125
v -0.130856 1.088914 0.003125
v -0.262924 1.372135 0.003125
v 0.130856 1.088914 -0.003125
v 0.262924 1.372135 -0.003125
v 0.130856 1.088914 0.003125
v 0.262924 1.372135 0.003125
v -0.179866 1.341904 -0.003125
v -0.293155 1.289077 -0.003125
v -0.266741 1.232433 -0.003125
v -0.240327 1.175789 -0.003125
v -0.213914 1.119144 -0.003125
v -0.293155 1.289077 0.003125
v -0.266741 1.232433 0.003125
v -0.240327 1.175789 0.003125
v -0.213914 1.119144 0.003125
v -0.179866 1.341904 0.003125
v -0.236510 1.315490 0.003125
v -0.236510 1.315490 -0.003125
v 0.293155 1.289077 -0.003125
v 0.266741 1.232433 -0.003125
v 0.240327 1.175789 -0.003125
v 0.213914 1.119144 -0.003125
v 0.179866 1.341904 -0.003125
v 0.293155 1.289077 0.003125
v 0.266741 1.232433 0.003125
v 0.240327 1.175789 0.003125
v 0.213914 1.119144 0.003125
v 0.179866 1.341904 0.003125
v 0.236510 1.315490 0.003125
v 0.236510 1.315490 -0.003125
v 0.140869 1.015869 -0.000000
v -0.046956 1.203694 -0.000000
v -0.093913 1.156738 -0.000000
v -0.140869 1.109782 -0.000000
v -0.140869 1.015869 -0.000000
v 0.046956 1.203694 -0.000000
v 0.093913 1.156738 -0.000000
v 0.140869 1.109782 -0.000000
v 0.093913 1.062825 -0.000000
v 0.046956 1.109782 -0.000000
v 0.000000 1.156738 -0.000000
v -0.046956 1.109782 -0.000000
v -0.093913 1.062825 -0.000000
vn -0.0000 -0.0000 -1.0000
vn 0.9063 -0.4226 -0.0000
vn -0.0000 -0.0000 1.0000
vn 0.4226 0.9063 -0.0000
vn 1.0000 -0.0000 -0.0000
vn -1.0000 -0.0000 -0.0000
vn -0.0000 1.0000 -0.0000
vn -0.0000 -1.0000 -0.0000
vn -0.5709 0.4155 -0.7081
vn 0.5726 -0.4167 -0.7061
vn 0.5709 -0.4155 0.7081
vn -0.5726 0.4167 0.7061
vn 0.5884 0.8085 -0.0000
vn -0.5884 -0.8085 -0.0000
vn -0.9063 -0.4226 -0.0000
vn -0.4226 0.9063 -0.0000
vt 0.895833 0.979167
vt 0.916667 0.979167
vt 0.916667 1.000000
vt 0.895833 1.000000
vt 0.875000 0.979167
vt 0.895833 0.979167
vt 0.895833 1.000000
vt 0.875000 1.000000
vt 0.979167 0.979167
vt 1.000000 0.979167
vt 1.000000 1.000000
vt 0.979167 1.000000
vt 0.895833 0.979167
vt 0.666667 0.666667
vt 0.708333 0.666667
vt 0.708333 1.000000
vt 0.666667 1.000000
vt 0.791667 0.666667
vt 0.833333 0.666667
vt 0.833333 0.708333
vt 0.791667 0.708333
vt 0.791667 0.750000
vt 0.812500 0.750000
vt 0.812500 0.770833
vt 0.791667 0.770833
vt 0.833333 0.750000
vt 0.750000 0.666667
vt 0.791667 0.812500
vt 0.750000 0.812500
vt 0.687500 0.916667
vt 0.708333 0.916667
vt 0.708333 0.937500
vt 0.687500 0.937500
vt 0.708333 0.770833
vt 0.750000 0.770833
vt 0.750000 0.833333
vt 0.708333 0.833333
vt 0.812500 0.833333
vt 0.812500 0.875000
vt 0.750000 0.875000
vt 0.812500 0.854167
vt 0.750000 0.854167
vt 0.812500 0.812500
vt 0.854167 0.937500
vt 0.854167 0.916667
vt 0.875000 0.916667
vt 0.875000 0.937500
vt 0.750000 0.958333
vt 0.708333 0.958333
vt 0.750000 0.895833
vt 0.770833 0.895833
vt 0.770833 0.916667
vt 0.750000 0.916667
vt 0.875000 0.666667
vt 0.875000 0.708333
vt 0.833333 0.875000
vt 0.833333 0.895833
vt 0.875000 0.979167
vt 0.958333 0.979167
vt 0.958333 1.000000
vt 0.895833 0.895833
vt 0.875000 0.958333
vt 0.875000 0.937500
vt 0.875000 0.916667
vt 0.875000 0.895833
vt 0.895833 0.895833
vt 0.895833 0.916667
vt 0.895833 0.937500
vt 0.895833 0.958333
vt 0.875000 0.958333
vt 1.000000 0.916667
vt 1.000000 0.937500
vt 1.000000 0.958333
vt 0.979167 0.895833
vt 1.000000 0.895833
vt 0.854167 1.000000
vt 0.854167 0.979167
vt 0.875000 0.979167
vt 0.854167 0.958333
vt 0.875000 0.958333
vt 0.791667 1.000000
vt 0.791667 0.979167
vt 0.812500 0.979167
vt 0.812500 1.000000
vt 0.833333 0.979167
vt 0.833333 1.000000
s 1
usemtl merge
f 147/37/7 140/38/7 25/39/7 121/40/7
f 141/41/8 136/42/8 22/43/8 21/44/8
f 146/45/9 141/46/9 21/47/9 123/48/9
f 123/40/10 21/44/10 22/41/10 121/49/10
f 30/50/7 33/51/7 31/52/7 28/53/7
f 29/50/11 30/51/11 28/52/11 27/53/11
f 34/50/9 29/51/9 27/52/9 32/53/9
f 33/50/12 34/51/12 32/52/12 31/53/12
f 38/54/7 41/55/7 39/56/7 36/57/7
f 37/54/11 38/55/11 36/56/11 35/57/11
f 42/54/9 37/55/9 35/56/9 40/57/9
f 41/54/12 42/55/12 40/56/12 39/57/12
f 40/58/13 35/59/13 36/60/13 39/61/13
f 41/57/14 38/56/14 37/62/14 42/58/14
f 46/63/7 49/54/7 47/64/7 44/65/7
f 45/63/11 46/54/11 44/64/11 43/65/11
f 50/63/9 45/54/9 43/64/9 48/65/9
f 49/63/12 50/54/12 48/64/12 47/65/12
f 48/66/13 43/67/13 44/68/13 47/69/13
f 49/66/14 46/67/14 45/68/14 50/69/14
f 54/70/7 57/71/7 55/72/7 52/73/7
f 53/70/11 54/71/11 52/72/11 51/73/11
f 58/70/9 53/71/9 51/72/9 56/73/9
f 57/70/12 58/71/12 56/72/12 55/73/12
f 56/66/13 51/67/13 52/68/13 55/69/13
f 57/66/14 54/67/14 53/68/14 58/69/14
f 62/72/7 65/74/7 63/75/7 60/76/7
f 61/72/11 62/74/11 60/75/11 59/76/11
f 66/72/9 61/74/9 59/75/9 64/76/9
f 65/72/12 66/74/12 64/75/12 63/76/12
f 65/66/14 62/67/14 61/68/14 66/69/14
f 70/77/7 73/78/7 71/65/7 68/79/7
f 69/77/11 70/78/11 68/65/11 67/79/11
f 74/77/9 69/78/9 67/65/9 72/79/9
f 73/77/12 74/78/12 72/65/12 71/79/12
f 72/68/13 67/69/13 68/66/13 71/67/13
f 160/80/7 152/81/7 77/82/7 151/83/7
f 81/70/7 84/71/7 82/72/7 79/73/7
f 80/70/11 81/71/11 79/72/11 78/73/11
f 85/70/9 80/71/9 78/72/9 83/73/9
f 84/70/12 85/71/12 83/72/12 82/73/12
f 79/73/7 82/72/7 88/84/7 87/85/7
f 78/73/11 79/72/11 87/84/11 86/85/11
f 83/73/9 78/72/9 86/84/9 89/85/9
f 82/73/12 83/72/12 89/84/12 88/85/12
f 91/86/7 92/87/7 54/88/7 57/89/7
f 90/86/11 91/87/11 57/88/11 58/89/11
f 93/86/9 90/87/9 58/88/9 53/89/9
f 92/86/12 93/87/12 53/88/12 54/89/12
f 97/90/15 100/91/15 98/56/15 95/55/15
f 96/55/16 97/90/16 95/91/16 94/56/16
f 101/90/17 96/91/17 94/56/17 99/55/17
f 100/55/18 101/90/18 99/91/18 98/56/18
f 99/55/19 94/90/19 95/91/19 98/56/19
f 100/55/20 97/90/20 96/91/20 101/56/20
f 105/76/7 108/92/7 106/93/7 103/86/7
f 104/76/11 105/92/11 103/93/11 102/86/11
f 109/76/9 104/92/9 102/93/9 107/86/9
f 108/76/12 109/92/12 107/93/12 106/86/12
f 135/45/7 125/46/7 112/47/7 117/48/7
f 134/37/9 133/38/9 110/39/9 119/40/9
f 125/41/21 129/42/21 113/43/21 112/44/21
f 119/49/22 110/38/22 111/39/22 117/40/22
f 113/41/22 119/49/22 117/40/22 112/44/22
f 129/94/9 134/37/9 119/40/9 113/44/9
f 124/95/7 135/45/7 117/48/7 111/96/7
f 26/39/10 123/40/10 121/49/10 25/38/10
f 145/95/9 146/45/9 123/48/9 26/96/9
f 136/94/7 147/37/7 121/40/7 22/44/7
f 118/97/9 134/37/9 129/94/9 130/98/9 131/99/9 132/100/9 115/101/9
f 114/101/21 115/102/21 132/103/21 128/100/21
f 128/100/21 132/103/21 131/104/21 127/99/21
f 127/99/21 131/104/21 130/105/21 126/106/21
f 126/106/21 130/105/21 129/42/21 125/41/21
f 128/107/7 127/108/7 126/109/7 125/46/7 135/45/7 116/110/7 114/111/7
f 24/101/7 120/97/7 147/37/7 136/94/7 137/98/7 138/99/7 139/100/7
f 122/110/9 23/111/9 144/107/9 143/108/9 142/109/9 141/46/9 146/45/9
f 23/101/8 24/102/8 139/103/8 144/100/8
f 144/100/8 139/103/8 138/104/8 143/99/8
f 143/99/8 138/104/8 137/105/8 142/106/8
f 142/106/8 137/105/8 136/42/8 141/41/8
f 153/112/7 158/113/7 149/114/7 75/44/7
f 158/113/7 159/115/7 150/116/7 149/114/7
f 159/115/7 160/80/7 151/83/7 150/116/7
f 76/117/7 148/118/7 156/119/7 155/120/7
f 155/120/7 156/119/7 157/121/7 154/122/7
f 154/122/7 157/121/7 158/113/7 153/112/7
o 物理手杖.001
v 0.074064 1.300936 0.074064
v 0.074064 1.300936 -0.074064
v 0.074064 1.449064 0.074064
v 0.074064 1.449064 -0.074064
v -0.074064 1.300936 -0.074064
v -0.074064 1.300936 0.074064
v -0.074064 1.449064 -0.074064
v -0.074064 1.449064 0.074064
vn -0.0000 -0.0000 -1.0000
vn 1.0000 -0.0000 -0.0000
vn -0.0000 -0.0000 1.0000
vn -1.0000 -0.0000 -0.0000
vn -0.0000 1.0000 -0.0000
vn -0.0000 -1.0000 -0.0000
vt 0.750000 0.895833
vt 0.770833 0.895833
vt 0.770833 0.916667
vt 0.750000 0.916667
s 1
usemtl merge
f 164/123/23 167/124/23 165/125/23 162/126/23
f 163/123/24 164/124/24 162/125/24 161/126/24
f 168/123/25 163/124/25 161/125/25 166/126/25
f 167/123/26 168/124/26 166/125/26 165/126/26
f 166/123/27 161/124/27 162/125/27 165/126/27
f 167/123/28 164/124/28 163/125/28 168/126/28
o 对称之杖
v 0.125000 1.937500 0.125000
v 0.125000 1.937500 -0.125000
v 0.125000 1.875000 0.125000
v 0.125000 1.875000 -0.125000
v -0.125000 1.937500 -0.125000
v -0.125000 1.937500 0.125000
v -0.125000 1.875000 -0.125000
v -0.125000 1.875000 0.125000
v 0.125000 0.437500 0.125000
v 0.125000 0.437500 -0.125000
v 0.125000 0.375000 0.125000
v 0.125000 0.375000 -0.125000
v -0.125000 0.437500 -0.125000
v -0.125000 0.437500 0.125000
v -0.125000 0.375000 -0.125000
v -0.125000 0.375000 0.125000
v 0.093750 0.375000 0.093750
v 0.093750 0.375000 -0.093750
v 0.093750 -0.312500 0.093750
v 0.093750 -0.312500 -0.093750
v -0.093750 0.375000 -0.093750
v -0.093750 0.375000 0.093750
v -0.093750 -0.312500 -0.093750
v -0.093750 -0.312500 0.093750
v 0.106250 0.312500 0.106250
v 0.106250 0.312500 -0.106250
v 0.106250 0.250000 0.106250
v 0.106250 0.250000 -0.106250
v -0.106250 0.312500 -0.106250
v -0.106250 0.312500 0.106250
v -0.106250 0.250000 -0.106250
v -0.106250 0.250000 0.106250
v 0.106250 -0.187500 0.106250
v 0.106250 -0.187500 -0.106250
v 0.106250 -0.250000 0.106250
v 0.106250 -0.250000 -0.106250
v -0.106250 -0.187500 -0.106250
v -0.106250 -0.187500 0.106250
v -0.106250 -0.250000 -0.106250
v -0.106250 -0.250000 0.106250
v 0.132583 1.062500 -0.000000
v -0.000000 1.062500 -0.132583
v 0.132583 0.437500 -0.000000
v -0.000000 0.437500 -0.132583
v -0.132583 1.062500 -0.000000
v 0.000000 1.062500 0.132582
v -0.132583 0.437500 -0.000000
v 0.000000 0.437500 0.132582
v 0.062500 1.625000 0.062500
v 0.062500 1.625000 -0.062500
v 0.062500 1.125000 0.062500
v 0.062500 1.125000 -0.062500
v -0.062500 1.625000 -0.062500
v -0.062500 1.625000 0.062500
v -0.062500 1.125000 -0.062500
v -0.062500 1.125000 0.062500
v 0.132583 1.875000 -0.000000
v -0.000000 1.875000 -0.132583
v 0.132583 1.687500 -0.000000
v -0.000000 1.687500 -0.132583
v -0.132583 1.875000 -0.000000
v 0.000000 1.875000 0.132582
v -0.132583 1.687500 -0.000000
v 0.000000 1.687500 0.132582
v -0.173636 1.588388 0.031250
v -0.173636 1.588388 -0.031250
v -0.129442 1.544194 0.031250
v -0.129442 1.544194 -0.031250
v -0.217830 1.544194 -0.031250
v -0.217830 1.544194 0.031250
v -0.173636 1.500000 -0.031250
v -0.173636 1.500000 0.031250
v 0.031250 1.544194 -0.143306
v 0.031250 1.588388 -0.187500
v 0.031250 1.500000 -0.187500
v 0.031250 1.544194 -0.231694
v -0.031250 1.588388 -0.187500
v -0.031250 1.544194 -0.143306
v -0.031250 1.544194 -0.231694
v -0.031250 1.500000 -0.187500
v 0.031250 1.544194 0.231694
v 0.031250 1.588388 0.187500
v 0.031250 1.500000 0.187500
v 0.031250 1.544194 0.143306
v -0.031250 1.588388 0.187500
v -0.031250 1.544194 0.231694
v -0.031250 1.544194 0.143306
v -0.031250 1.500000 0.187500
v 0.179917 1.588388 0.031250
v 0.179917 1.588388 -0.031250
v 0.224112 1.544194 0.031250
v 0.224112 1.544194 -0.031250
v 0.135723 1.544194 -0.031250
v 0.135723 1.544194 0.031250
v 0.179917 1.500000 -0.031250
v 0.179917 1.500000 0.031250
vn -0.0000 -0.0000 -1.0000
vn 1.0000 -0.0000 -0.0000
vn -0.0000 -0.0000 1.0000
vn -1.0000 -0.0000 -0.0000
vn -0.0000 1.0000 -0.0000
vn -0.0000 -1.0000 -0.0000
vn -0.7071 -0.0000 -0.7071
vn 0.7071 -0.0000 -0.7071
vn 0.7071 -0.0000 0.7071
vn -0.7071 -0.0000 0.7071
vn 0.7071 0.7071 -0.0000
vn -0.7071 -0.7071 -0.0000
vn -0.7071 0.7071 -0.0000
vn 0.7071 -0.7071 -0.0000
vn -0.0000 0.7071 -0.7071
vn -0.0000 -0.7071 0.7071
vn -0.0000 0.7071 0.7071
vn -0.0000 -0.7071 -0.7071
vt 0.458333 0.895833
vt 0.541667 0.895833
vt 0.541667 0.916667
vt 0.458333 0.916667
vt 0.458333 0.833333
vt 0.375000 0.833333
vt 0.375000 0.750000
vt 0.458333 0.750000
vt 0.541667 0.937500
vt 0.458333 0.937500
vt 0.458333 0.875000
vt 0.541667 0.875000
vt 0.458333 1.000000
vt 0.375000 1.000000
vt 0.375000 0.916667
vt -0.000000 0.770833
vt 0.062500 0.770833
vt 0.062500 1.000000
vt -0.000000 1.000000
vt 0.125000 0.770833
vt 0.125000 1.000000
vt 0.187500 0.770833
vt 0.187500 1.000000
vt 0.250000 0.770833
vt 0.250000 1.000000
vt 0.479167 0.750000
vt 0.416667 0.750000
vt 0.416667 0.687500
vt 0.479167 0.687500
vt 0.479167 0.625000
vt 0.416667 0.625000
vt 0.458333 0.770833
vt 0.520833 0.770833
vt 0.520833 0.791667
vt 0.458333 0.791667
vt -0.000000 0.562500
vt 0.062500 0.562500
vt 0.125000 0.562500
vt 0.187500 0.562500
vt 0.250000 0.562500
vt 0.437500 0.583333
vt 0.375000 0.583333
vt 0.375000 0.520833
vt 0.437500 0.520833
vt 0.062500 0.500000
vt -0.000000 0.500000
vt 0.250000 0.458333
vt 0.291667 0.458333
vt 0.291667 0.625000
vt 0.250000 0.625000
vt 0.416667 0.583333
vt 0.333333 0.458333
vt 0.333333 0.625000
vt 0.375000 0.458333
vt 0.375000 0.625000
vt 0.500000 0.875000
vt 0.500000 0.833333
vt 0.500000 0.791667
vt 0.125000 0.500000
vt 0.187500 0.500000
vt 0.250000 0.500000
vt 0.437500 0.562500
vt 0.500000 0.562500
vt 0.500000 0.625000
vt 0.437500 0.625000
vt 0.416667 0.604167
vt 0.437500 0.604167
vt 0.479167 0.770833
vt 0.500000 0.750000
vt 0.500000 0.770833
vt 0.479167 0.729167
vt 0.500000 0.729167
vt 0.500000 0.708333
vt 0.479167 0.708333
s 1
usemtl merge
f 172/127/29 175/128/29 173/129/29 170/130/29
f 171/127/30 172/128/30 170/129/30 169/130/30
f 176/127/31 171/128/31 169/129/31 174/130/31
f 175/127/32 176/128/32 174/129/32 173/130/32
f 174/131/33 169/132/33 170/133/33 173/134/33
f 175/134/34 172/133/34 171/132/34 176/131/34
f 180/130/29 183/129/29 181/135/29 178/136/29
f 179/127/30 180/128/30 178/129/30 177/130/30
f 184/127/31 179/128/31 177/129/31 182/130/31
f 183/137/32 184/138/32 182/128/32 181/127/32
f 182/139/33 177/140/33 178/141/33 181/130/33
f 183/131/34 180/132/34 179/141/34 184/130/34
f 188/142/29 191/143/29 189/144/29 186/145/29
f 187/143/30 188/146/30 186/147/30 185/144/30
f 192/146/31 187/148/31 185/149/31 190/147/31
f 191/148/32 192/150/32 190/151/32 189/149/32
f 190/152/33 185/153/33 186/154/33 189/155/33
f 191/156/34 188/157/34 187/154/34 192/155/34
f 196/158/29 199/159/29 197/160/29 194/161/29
f 195/158/30 196/159/30 194/160/30 193/161/30
f 200/158/31 195/159/31 193/160/31 198/161/31
f 199/158/32 200/159/32 198/160/32 197/161/32
f 204/158/29 207/159/29 205/160/29 202/161/29
f 203/158/30 204/159/30 202/160/30 201/161/30
f 208/158/31 203/159/31 201/160/31 206/161/31
f 207/158/32 208/159/32 206/160/32 205/161/32
f 212/162/35 215/163/35 213/143/35 210/142/35
f 211/163/36 212/164/36 210/146/36 209/143/36
f 216/164/37 211/165/37 209/148/37 214/146/37
f 215/165/38 216/166/38 214/150/38 213/148/38
f 214/167/33 209/168/33 210/169/33 213/170/33
f 215/171/34 212/172/34 211/162/34 216/163/34
f 220/173/29 223/174/29 221/175/29 218/176/29
f 219/168/30 220/177/30 218/153/30 217/133/30
f 224/174/31 219/178/31 217/179/31 222/175/31
f 223/178/32 224/180/32 222/181/32 221/179/32
f 222/182/33 217/137/33 218/131/33 221/183/33
f 223/184/34 220/161/34 219/131/34 224/183/34
f 228/171/35 231/185/35 229/164/35 226/163/35
f 227/185/36 228/186/36 226/165/36 225/164/36
f 232/186/37 227/187/37 225/166/37 230/165/37
f 231/188/38 232/189/38 230/190/38 229/191/38
f 230/167/33 225/168/33 226/169/33 229/170/33
f 231/170/34 228/169/34 227/168/34 232/167/34
f 236/192/29 239/193/29 237/191/29 234/157/29
f 235/192/39 236/193/39 234/191/39 233/157/39
f 240/192/31 235/193/31 233/191/31 238/157/31
f 239/192/40 240/193/40 238/191/40 237/157/40
f 238/191/41 233/157/41 234/192/41 237/193/41
f 239/193/42 236/192/42 235/157/42 240/191/42
f 244/192/43 247/193/43 245/191/43 242/157/43
f 243/177/30 244/167/30 242/193/30 241/192/30
f 248/134/44 243/152/44 241/194/44 246/158/44
f 247/152/32 248/195/32 246/196/32 245/194/32
f 246/195/45 241/152/45 242/197/45 245/198/45
f 247/199/46 244/200/46 243/197/46 248/198/46
f 252/192/43 255/193/43 253/191/43 250/157/43
f 251/192/30 252/193/30 250/191/30 249/157/30
f 256/192/44 251/193/44 249/191/44 254/157/44
f 255/192/32 256/193/32 254/191/32 253/157/32
f 254/191/45 249/157/45 250/192/45 253/193/45
f 255/193/46 252/192/46 251/157/46 256/191/46
f 260/192/29 263/193/29 261/191/29 258/157/29
f 259/192/39 260/193/39 258/191/39 257/157/39
f 264/192/31 259/193/31 257/191/31 262/157/31
f 263/192/40 264/193/40 262/191/40 261/157/40
f 262/191/41 257/157/41 258/192/41 261/193/41
f 263/193/42 260/192/42 259/157/42 264/191/42
o 对称之杖.001
v 0.093750 1.656250 0.093750
v 0.093750 1.656250 -0.093750
v 0.093750 1.093750 0.093750
v 0.093750 1.093750 -0.093750
v -0.093750 1.656250 -0.093750
v -0.093750 1.656250 0.093750
v -0.093750 1.093750 -0.093750
v -0.093750 1.093750 0.093750
vn -0.0000 -0.0000 -1.0000
vn 1.0000 -0.0000 -0.0000
vn -0.0000 -0.0000 1.0000
vn -1.0000 -0.0000 -0.0000
vn -0.0000 1.0000 -0.0000
vn -0.0000 -1.0000 -0.0000
vt 0.250000 0.812500
vt 0.312500 0.812500
vt 0.312500 1.000000
vt 0.250000 1.000000
vt 0.250000 0.625000
vt 0.312500 0.625000
vt 0.375000 0.812500
vt 0.375000 1.000000
vt 0.375000 0.625000
vt 0.500000 0.562500
vt 0.437500 0.562500
vt 0.437500 0.500000
vt 0.500000 0.500000
vt 0.520833 0.937500
vt 0.458333 0.937500
vt 0.458333 1.000000
vt 0.520833 1.000000
s 1
usemtl merge
f 268/201/47 271/202/47 269/203/47 266/204/47
f 267/205/48 268/206/48 266/202/48 265/201/48
f 272/202/49 267/207/49 265/208/49 270/203/49
f 271/206/50 272/209/50 270/207/50 269/202/50
f 270/210/51 265/211/51 266/212/51 269/213/51
f 271/214/52 268/215/52 267/216/52 272/217/52
o 扳手
v 0.031250 0.906250 0.031250
v 0.031250 0.906250 -0.031250
v 0.031250 0.531250 0.031250
v 0.031250 0.531250 -0.031250
v -0.093750 0.906250 -0.031250
v -0.093750 0.906250 0.031250
v -0.093750 0.531250 -0.031250
v -0.093750 0.531250 0.031250
v 0.062500 0.750000 0.044194
v 0.106694 0.750000 -0.000000
v 0.062500 0.312500 0.044194
v 0.106694 0.312500 -0.000000
v 0.062500 0.750000 -0.044194
v 0.018306 0.750000 -0.000000
v 0.062500 0.312500 -0.044194
v 0.018306 0.312500 -0.000000
v 0.187500 0.812500 0.062500
v 0.187500 0.812500 -0.062500
v 0.187500 0.750000 0.062500
v 0.187500 0.750000 -0.062500
v 0.000000 0.812500 -0.062500
v 0.000000 0.812500 0.062500
v 0.000000 0.750000 -0.062500
v 0.000000 0.750000 0.062500
v 0.172985 0.500000 -0.066291
v 0.128791 0.500000 -0.110485
v 0.172985 0.437500 -0.066291
v 0.128791 0.437500 -0.110485
v -0.047985 0.500000 0.066291
v -0.003791 0.500000 0.110485
v -0.047985 0.437500 0.066291
v -0.003791 0.437500 0.110485
v 0.093750 0.500000 0.125000
v 0.093750 0.500000 -0.125000
v 0.093750 0.437500 0.125000
v 0.093750 0.437500 -0.125000
v 0.031250 0.500000 -0.125000
v 0.031250 0.500000 0.125000
v 0.031250 0.437500 -0.125000
v 0.031250 0.437500 0.125000
v 0.172985 0.500000 0.066291
v -0.003791 0.500000 -0.110485
v 0.172985 0.437500 0.066291
v -0.003791 0.437500 -0.110485
v -0.047985 0.500000 -0.066291
v 0.128791 0.500000 0.110485
v -0.047985 0.437500 -0.066291
v 0.128791 0.437500 0.110485
v 0.187500 0.500000 0.031250
v 0.187500 0.500000 -0.031250
v 0.187500 0.437500 0.031250
v 0.187500 0.437500 -0.031250
v -0.062500 0.500000 -0.031250
v -0.062500 0.500000 0.031250
v -0.062500 0.437500 -0.031250
v -0.062500 0.437500 0.031250
v 0.119638 0.437500 -0.000000
v 0.031250 0.437500 -0.088388
v 0.119638 0.375000 -0.000000
v 0.031250 0.375000 -0.088388
v -0.057138 0.437500 -0.000000
v 0.031250 0.437500 0.088388
v -0.057138 0.375000 -0.000000
v 0.031250 0.375000 0.088388
v 0.150000 0.562500 0.062500
v 0.150000 0.562500 -0.062500
v 0.150000 0.500000 0.062500
v 0.150000 0.500000 -0.062500
v -0.100000 0.562500 -0.062500
v -0.100000 0.562500 0.062500
v -0.100000 0.500000 -0.062500
v -0.100000 0.500000 0.062500
v 0.037500 0.437500 0.031250
v 0.037500 0.437500 -0.031250
v 0.037500 0.000000 0.031250
v 0.037500 -0.000000 -0.031250
v -0.025000 0.437500 -0.031250
v -0.025000 0.437500 0.031250
v -0.025000 -0.000000 -0.031250
v -0.025000 0.000000 0.031250
v 0.187500 0.937500 0.062500
v 0.187500 0.937500 -0.062500
v 0.187500 0.875000 0.062500
v 0.187500 0.875000 -0.062500
v -0.062500 0.937500 -0.062500
v -0.062500 0.937500 0.062500
v -0.062500 0.875000 -0.062500
v -0.062500 0.875000 0.062500
vn -0.0000 -0.0000 -1.0000
vn 1.0000 -0.0000 -0.0000
vn -0.0000 -0.0000 1.0000
vn -1.0000 -0.0000 -0.0000
vn -0.0000 1.0000 -0.0000
vn -0.0000 -1.0000 -0.0000
vn 0.7071 -0.0000 -0.7071
vn 0.7071 -0.0000 0.7071
vn -0.7071 -0.0000 0.7071
vn -0.7071 -0.0000 -0.7071
vt 0.916667 0.416667
vt 1.000000 0.416667
vt 1.000000 0.666667
vt 0.916667 0.666667
vt 0.958333 0.416667
vt 0.958333 0.666667
vt 0.812500 0.500000
vt 0.812500 0.520833
vt 0.770833 0.520833
vt 0.770833 0.500000
vt 0.666667 0.645833
vt 0.687500 0.645833
vt 0.687500 0.666667
vt 0.666667 0.666667
vt 0.666667 0.375000
vt 0.708333 0.375000
vt 0.708333 0.666667
vt 0.666667 0.333333
vt 0.708333 0.333333
vt 0.708333 0.625000
vt 0.666667 0.625000
vt 0.750000 0.500000
vt 0.875000 0.500000
vt 0.875000 0.458333
vt 0.750000 0.458333
vt 0.833333 0.666667
vt 0.750000 0.666667
vt 0.750000 0.625000
vt 0.833333 0.625000
vt 0.833333 0.500000
vt 0.833333 0.541667
vt 0.750000 0.541667
vt 0.916667 0.541667
vt 0.875000 0.375000
vt 0.875000 0.333333
vt 0.916667 0.333333
vt 0.916667 0.375000
vt 1.000000 0.375000
vt 1.000000 0.333333
vt 0.750000 0.416667
vt 0.916667 0.458333
vt 0.791667 0.375000
vt 0.791667 0.458333
vt 0.750000 0.375000
vt 0.750000 0.395833
vt 0.916667 0.395833
vt 0.708333 0.416667
vt 0.916667 0.500000
s 1
usemtl merge
f 276/218/53 279/219/53 277/220/53 274/221/53
f 275/222/54 276/219/54 274/220/54 273/223/54
f 280/219/55 275/218/55 273/221/55 278/220/55
f 279/219/56 280/222/56 278/223/56 277/220/56
f 278/224/57 273/225/57 274/226/57 277/227/57
f 279/228/58 276/229/58 275/230/58 280/231/58
f 284/232/59 287/233/59 285/234/59 282/231/59
f 283/235/60 284/236/60 282/237/60 281/238/60
f 288/232/61 283/233/61 281/234/61 286/231/61
f 287/235/62 288/236/62 286/237/62 285/238/62
f 286/228/57 281/229/57 282/230/57 285/231/57
f 287/228/58 284/229/58 283/230/58 288/231/58
f 292/239/53 295/240/53 293/241/53 290/242/53
f 291/243/54 292/244/54 290/245/54 289/246/54
f 296/240/55 291/239/55 289/242/55 294/241/55
f 295/239/56 296/247/56 294/248/56 293/249/56
f 294/250/57 289/221/57 290/243/57 293/248/57
f 295/248/58 292/243/58 291/244/58 296/249/58
f 300/251/62 303/233/62 301/236/62 298/252/62
f 299/252/59 300/253/59 298/254/59 297/251/59
f 304/251/60 299/233/60 297/236/60 302/252/60
f 303/252/61 304/253/61 302/254/61 301/251/61
f 302/236/57 297/252/57 298/251/57 301/233/57
f 303/251/58 300/233/58 299/236/58 304/252/58
f 308/252/53 311/253/53 309/254/53 306/251/53
f 307/251/54 308/233/54 306/236/54 305/252/54
f 312/252/55 307/253/55 305/254/55 310/251/55
f 311/251/56 312/233/56 310/236/56 309/252/56
f 310/252/57 305/251/57 306/233/57 309/236/57
f 311/252/58 308/251/58 307/233/58 312/236/58
f 316/252/62 319/253/62 317/254/62 314/251/62
f 315/251/59 316/233/59 314/236/59 313/252/59
f 320/252/60 315/253/60 313/254/60 318/251/60
f 319/251/61 320/233/61 318/236/61 317/252/61
f 318/252/57 313/251/57 314/233/57 317/236/57
f 319/252/58 316/251/58 315/233/58 320/236/58
f 324/251/53 327/233/53 325/236/53 322/252/53
f 323/252/54 324/253/54 322/254/54 321/251/54
f 328/251/55 323/233/55 321/236/55 326/252/55
f 327/252/56 328/253/56 326/254/56 325/251/56
f 326/236/57 321/252/57 322/251/57 325/233/57
f 327/251/58 324/233/58 323/236/58 328/252/58
f 332/254/62 335/255/62 333/219/62 330/218/62
f 331/254/59 332/255/59 330/219/59 329/218/59
f 336/254/60 331/255/60 329/219/60 334/218/60
f 335/254/61 336/255/61 334/219/61 333/218/61
f 334/253/57 329/256/57 330/219/57 333/218/57
f 335/253/58 332/256/58 331/219/58 336/218/58
f 340/257/53 343/218/53 341/258/53 338/242/53
f 339/259/54 340/260/54 338/242/54 337/261/54
f 344/218/55 339/257/55 337/242/55 342/258/55
f 343/259/56 344/260/56 342/242/56 341/261/56
f 342/258/57 337/242/57 338/261/57 341/254/57
f 343/258/58 340/242/58 339/262/58 344/263/58
f 348/233/53 351/261/53 349/244/53 346/234/53
f 347/233/54 348/261/54 346/244/54 345/234/54
f 352/233/55 347/261/55 345/244/55 350/234/55
f 351/233/56 352/261/56 350/244/56 349/234/56
f 351/233/58 348/261/58 347/257/58 352/264/58
f 356/242/53 359/258/53 357/265/53 354/239/53
f 355/245/54 356/246/54 354/243/54 353/244/54
f 360/258/55 355/242/55 353/239/55 358/265/55
f 359/248/56 360/249/56 358/239/56 357/247/56
f 358/247/57 353/243/57 354/244/57 357/239/57
f 359/265/58 356/221/58 355/243/58 360/247/58
o 巧克力浆果
v 0.000000 0.300000 -0.050000
v 0.000000 0.300000 0.000000
v 0.000000 0.300000 0.050000
v 0.000000 0.300000 0.100000
v 0.000000 0.350000 -0.100000
v 0.000000 0.350000 -0.050000
v 0.000000 0.350000 0.000000
v 0.000000 0.350000 0.050000
v 0.000000 0.350000 0.100000
v 0.000000 0.350000 0.150000
v 0.000000 0.350000 0.300000
v 0.000000 0.350000 0.350000
v 0.000000 0.400000 -0.250000
v 0.000000 0.400000 -0.200000
v 0.000000 0.400000 -0.100000
v 0.000000 0.400000 -0.050000
v 0.000000 0.400000 0.000000
v 0.000000 0.400000 0.050000
v 0.000000 0.400000 0.100000
v 0.000000 0.400000 0.150000
v 0.000000 0.400000 0.250000
v 0.000000 0.400000 0.300000
v 0.000000 0.400000 0.350000
v 0.000000 0.450000 -0.300000
v 0.000000 0.450000 -0.250000
v 0.000000 0.450000 -0.200000
v 0.000000 0.450000 -0.150000
v 0.000000 0.450000 -0.100000
v 0.000000 0.450000 -0.050000
v 0.000000 0.450000 0.000000
v 0.000000 0.450000 0.050000
v 0.000000 0.450000 0.100000
v 0.000000 0.450000 0.150000
v 0.000000 0.450000 0.200000
v 0.000000 0.450000 0.250000
v 0.000000 0.450000 0.300000
v 0.000000 0.450000 0.350000
v 0.000000 0.500000 -0.300000
v 0.000000 0.500000 -0.250000
v 0.000000 0.500000 -0.200000
v 0.000000 0.500000 -0.150000
v 0.000000 0.500000 -0.100000
v 0.000000 0.500000 -0.050000
v 0.000000 0.500000 0.000000
v 0.000000 0.500000 0.050000
v 0.000000 0.500000 0.100000
v 0.000000 0.500000 0.150000
v 0.000000 0.500000 0.200000
v 0.000000 0.500000 0.250000
v 0.000000 0.500000 0.300000
v 0.000000 0.550000 -0.300000
v 0.000000 0.550000 -0.250000
v 0.000000 0.550000 -0.200000
v 0.000000 0.550000 -0.150000
v 0.000000 0.550000 -0.100000
v 0.000000 0.550000 -0.050000
v 0.000000 0.550000 0.000000
v 0.000000 0.550000 0.050000
v 0.000000 0.550000 0.100000
v 0.000000 0.550000 0.150000
v 0.000000 0.550000 0.200000
v 0.000000 0.550000 0.250000
v 0.000000 0.550000 0.300000
v 0.000000 0.600000 -0.300000
v 0.000000 0.600000 -0.250000
v 0.000000 0.600000 -0.200000
v 0.000000 0.600000 -0.150000
v 0.000000 0.600000 -0.100000
v 0.000000 0.600000 -0.050000
v 0.000000 0.600000 0.000000
v 0.000000 0.600000 0.050000
v 0.000000 0.600000 0.100000
v 0.000000 0.600000 0.150000
v 0.000000 0.600000 0.200000
v 0.000000 0.600000 0.250000
v 0.000000 0.600000 0.300000
v 0.000000 0.600000 0.350000
v 0.000000 0.650000 -0.350000
v 0.000000 0.650000 -0.300000
v 0.000000 0.650000 -0.250000
v 0.000000 0.650000 -0.200000
v 0.000000 0.650000 -0.150000
v 0.000000 0.650000 -0.100000
v 0.000000 0.650000 -0.050000
v 0.000000 0.650000 0.000000
v 0.000000 0.650000 0.050000
v 0.000000 0.650000 0.100000
v 0.000000 0.650000 0.150000
v 0.000000 0.650000 0.200000
v 0.000000 0.650000 0.250000
v 0.000000 0.650000 0.300000
v 0.000000 0.650000 0.350000
v 0.000000 0.700000 -0.350000
v 0.000000 0.700000 -0.300000
v 0.000000 0.700000 -0.250000
v 0.000000 0.700000 -0.200000
v 0.000000 0.700000 -0.150000
v 0.000000 0.700000 -0.100000
v 0.000000 0.700000 -0.050000
v 0.000000 0.700000 -0.000000
v 0.000000 0.700000 0.050000
v 0.000000 0.700000 0.100000
v 0.000000 0.700000 0.150000
v 0.000000 0.700000 0.200000
v 0.000000 0.700000 0.250000
v 0.000000 0.700000 0.300000
v 0.000000 0.700000 0.350000
v 0.000000 0.750000 -0.350000
v 0.000000 0.750000 -0.300000
v 0.000000 0.750000 -0.250000
v 0.000000 0.750000 -0.200000
v 0.000000 0.750000 -0.150000
v 0.000000 0.750000 -0.100000
v 0.000000 0.750000 -0.050000
v 0.000000 0.750000 -0.000000
v 0.000000 0.750000 0.050000
v 0.000000 0.750000 0.100000
v 0.000000 0.750000 0.150000
v 0.000000 0.750000 0.200000
v 0.000000 0.750000 0.250000
v 0.000000 0.750000 0.300000
v 0.000000 0.750000 0.350000
v 0.000000 0.800000 -0.300000
v 0.000000 0.800000 -0.250000
v 0.000000 0.800000 -0.200000
v 0.000000 0.800000 -0.100000
v 0.000000 0.800000 -0.050000
v 0.000000 0.800000 -0.000000
v 0.000000 0.800000 0.050000
v 0.000000 0.800000 0.100000
v 0.000000 0.800000 0.150000
v 0.000000 0.850000 -0.100000
v 0.000000 0.850000 -0.050000
v 0.000000 0.850000 -0.000000
v 0.000000 0.850000 0.050000
v 0.000000 0.850000 0.100000
v 0.000000 0.850000 0.150000
v 0.000000 0.900000 -0.050000
v 0.000000 0.900000 -0.000000
v 0.000000 0.900000 0.050000
v 0.000000 0.900000 0.100000
v 0.050000 0.300000 -0.050000
v 0.050000 0.300000 0.000000
v 0.050000 0.300000 0.050000
v 0.050000 0.300000 0.100000
v 0.050000 0.350000 -0.100000
v 0.050000 0.350000 -0.050000
v 0.050000 0.350000 0.000000
v 0.050000 0.350000 0.050000
v 0.050000 0.350000 0.100000
v 0.050000 0.350000 0.150000
v 0.050000 0.350000 0.300000
v 0.050000 0.350000 0.350000
v 0.050000 0.400000 -0.250000
v 0.050000 0.400000 -0.200000
v 0.050000 0.400000 -0.100000
v 0.050000 0.400000 -0.050000
v 0.050000 0.400000 0.000000
v 0.050000 0.400000 0.050000
v 0.050000 0.400000 0.100000
v 0.050000 0.400000 0.150000
v 0.050000 0.400000 0.250000
v 0.050000 0.400000 0.300000
v 0.050000 0.400000 0.350000
v 0.050000 0.450000 -0.300000
v 0.050000 0.450000 -0.250000
v 0.050000 0.450000 -0.200000
v 0.050000 0.450000 -0.150000
v 0.050000 0.450000 -0.100000
v 0.050000 0.450000 -0.050000
v 0.050000 0.450000 0.000000
v 0.050000 0.450000 0.050000
v 0.050000 0.450000 0.100000
v 0.050000 0.450000 0.150000
v 0.050000 0.450000 0.200000
v 0.050000 0.450000 0.250000
v 0.050000 0.450000 0.300000
v 0.050000 0.450000 0.350000
v 0.050000 0.500000 -0.300000
v 0.050000 0.500000 -0.250000
v 0.050000 0.500000 -0.200000
v 0.050000 0.500000 -0.150000
v 0.050000 0.500000 -0.100000
v 0.050000 0.500000 -0.050000
v 0.050000 0.500000 0.000000
v 0.050000 0.500000 0.050000
v 0.050000 0.500000 0.100000
v 0.050000 0.500000 0.150000
v 0.050000 0.500000 0.200000
v 0.050000 0.500000 0.250000
v 0.050000 0.500000 0.300000
v 0.050000 0.550000 -0.300000
v 0.050000 0.550000 -0.250000
v 0.050000 0.550000 -0.200000
v 0.050000 0.550000 -0.150000
v 0.050000 0.550000 -0.100000
v 0.050000 0.550000 -0.050000
v 0.050000 0.550000 0.000000
v 0.050000 0.550000 0.050000
v 0.050000 0.550000 0.100000
v 0.050000 0.550000 0.150000
v 0.050000 0.550000 0.200000
v 0.050000 0.550000 0.250000
v 0.050000 0.550000 0.300000
v 0.050000 0.600000 -0.300000
v 0.050000 0.600000 -0.250000
v 0.050000 0.600000 -0.200000
v 0.050000 0.600000 -0.150000
v 0.050000 0.600000 -0.100000
v 0.050000 0.600000 -0.050000
v 0.050000 0.600000 0.000000
v 0.050000 0.600000 0.050000
v 0.050000 0.600000 0.100000
v 0.050000 0.600000 0.150000
v 0.050000 0.600000 0.200000
v 0.050000 0.600000 0.250000
v 0.050000 0.600000 0.300000
v 0.050000 0.600000 0.350000
v 0.050000 0.650000 -0.350000
v 0.050000 0.650000 -0.300000
v 0.050000 0.650000 -0.250000
v 0.050000 0.650000 -0.200000
v 0.050000 0.650000 -0.150000
v 0.050000 0.650000 -0.100000
v 0.050000 0.650000 -0.050000
v 0.050000 0.650000 0.000000
v 0.050000 0.650000 0.050000
v 0.050000 0.650000 0.100000
v 0.050000 0.650000 0.150000
v 0.050000 0.650000 0.200000
v 0.050000 0.650000 0.250000
v 0.050000 0.650000 0.300000
v 0.050000 0.650000 0.350000
v 0.050000 0.700000 -0.350000
v 0.050000 0.700000 -0.300000
v 0.050000 0.700000 -0.250000
v 0.050000 0.700000 -0.200000
v 0.050000 0.700000 -0.150000
v 0.050000 0.700000 -0.100000
v 0.050000 0.700000 -0.050000
v 0.050000 0.700000 -0.000000
v 0.050000 0.700000 0.050000
v 0.050000 0.700000 0.100000
v 0.050000 0.700000 0.150000
v 0.050000 0.700000 0.200000
v 0.050000 0.700000 0.250000
v 0.050000 0.700000 0.300000
v 0.050000 0.700000 0.350000
v 0.050000 0.750000 -0.350000
v 0.050000 0.750000 -0.300000
v 0.050000 0.750000 -0.250000
v 0.050000 0.750000 -0.200000
v 0.050000 0.750000 -0.150000
v 0.050000 0.750000 -0.100000
v 0.050000 0.750000 -0.050000
v 0.050000 0.750000 -0.000000
v 0.050000 0.750000 0.050000
v 0.050000 0.750000 0.100000
v 0.050000 0.750000 0.150000
v 0.050000 0.750000 0.200000
v 0.050000 0.750000 0.250000
v 0.050000 0.750000 0.300000
v 0.050000 0.750000 0.350000
v 0.050000 0.800000 -0.300000
v 0.050000 0.800000 -0.250000
v 0.050000 0.800000 -0.200000
v 0.050000 0.800000 -0.100000
v 0.050000 0.800000 -0.050000
v 0.050000 0.800000 -0.000000
v 0.050000 0.800000 0.050000
v 0.050000 0.800000 0.100000
v 0.050000 0.800000 0.150000
v 0.050000 0.850000 -0.100000
v 0.050000 0.850000 -0.050000
v 0.050000 0.850000 -0.000000
v 0.050000 0.850000 0.050000
v 0.050000 0.850000 0.100000
v 0.050000 0.850000 0.150000
v 0.050000 0.900000 -0.050000
v 0.050000 0.900000 -0.000000
v 0.050000 0.900000 0.050000
v 0.050000 0.900000 0.100000
vn -1.0000 -0.0000 -0.0000
vn 1.0000 -0.0000 -0.0000
vn -0.0000 -0.0000 -1.0000
vn -0.0000 -1.0000 -0.0000
vn -0.0000 1.0000 -0.0000
vn -0.0000 -0.0000 1.0000
vt 0.458333 0.270833
vt 0.458333 0.291667
vt 0.479167 0.291667
vt 0.479167 0.270833
vt 0.500000 0.291667
vt 0.500000 0.270833
vt 0.520833 0.291667
vt 0.520833 0.270833
vt 0.437500 0.250000
vt 0.437500 0.270833
vt 0.458333 0.250000
vt 0.479167 0.250000
vt 0.500000 0.250000
vt 0.520833 0.250000
vt 0.541667 0.270833
vt 0.541667 0.250000
vt 0.437500 0.229167
vt 0.458333 0.229167
vt 0.479167 0.229167
vt 0.500000 0.229167
vt 0.520833 0.229167
vt 0.541667 0.229167
vt 0.583333 0.229167
vt 0.583333 0.250000
vt 0.604167 0.250000
vt 0.604167 0.229167
vt 0.625000 0.250000
vt 0.625000 0.229167
vt 0.354167 0.208333
vt 0.354167 0.229167
vt 0.375000 0.229167
vt 0.375000 0.208333
vt 0.395833 0.229167
vt 0.395833 0.208333
vt 0.416667 0.229167
vt 0.416667 0.208333
vt 0.437500 0.208333
vt 0.458333 0.208333
vt 0.479167 0.208333
vt 0.500000 0.208333
vt 0.520833 0.208333
vt 0.541667 0.208333
vt 0.562500 0.208333
vt 0.562500 0.229167
vt 0.583333 0.208333
vt 0.604167 0.208333
vt 0.625000 0.208333
vt 0.645833 0.229167
vt 0.645833 0.208333
vt 0.354167 0.187500
vt 0.375000 0.187500
vt 0.395833 0.187500
vt 0.416667 0.187500
vt 0.437500 0.187500
vt 0.458333 0.187500
vt 0.479167 0.187500
vt 0.500000 0.187500
vt 0.520833 0.187500
vt 0.541667 0.187500
vt 0.562500 0.187500
vt 0.583333 0.187500
vt 0.604167 0.187500
vt 0.625000 0.187500
vt 0.645833 0.187500
vt 0.354167 0.166667
vt 0.375000 0.166667
vt 0.395833 0.166667
vt 0.416667 0.166667
vt 0.437500 0.166667
vt 0.458333 0.166667
vt 0.479167 0.166667
vt 0.500000 0.166667
vt 0.520833 0.166667
vt 0.541667 0.166667
vt 0.562500 0.166667
vt 0.583333 0.166667
vt 0.604167 0.166667
vt 0.625000 0.166667
vt 0.375000 0.145833
vt 0.395833 0.145833
vt 0.416667 0.145833
vt 0.437500 0.145833
vt 0.458333 0.145833
vt 0.479167 0.145833
vt 0.500000 0.145833
vt 0.520833 0.145833
vt 0.541667 0.145833
vt 0.562500 0.145833
vt 0.583333 0.145833
vt 0.604167 0.145833
vt 0.375000 0.125000
vt 0.395833 0.125000
vt 0.416667 0.125000
vt 0.437500 0.125000
vt 0.458333 0.125000
vt 0.479167 0.125000
vt 0.500000 0.125000
vt 0.520833 0.125000
vt 0.541667 0.125000
vt 0.562500 0.125000
vt 0.583333 0.125000
vt 0.604167 0.125000
vt 0.625000 0.145833
vt 0.625000 0.125000
vt 0.375000 0.104167
vt 0.395833 0.104167
vt 0.416667 0.104167
vt 0.437500 0.104167
vt 0.458333 0.104167
vt 0.479167 0.104167
vt 0.500000 0.104167
vt 0.520833 0.104167
vt 0.541667 0.104167
vt 0.562500 0.104167
vt 0.583333 0.104167
vt 0.604167 0.104167
vt 0.625000 0.104167
vt 0.354167 0.083333
vt 0.354167 0.104167
vt 0.375000 0.083333
vt 0.395833 0.083333
vt 0.437500 0.083333
vt 0.458333 0.083333
vt 0.479167 0.083333
vt 0.500000 0.083333
vt 0.520833 0.083333
vt 0.541667 0.083333
vt 0.583333 0.083333
vt 0.604167 0.083333
vt 0.354167 0.062500
vt 0.375000 0.062500
vt 0.437500 0.062500
vt 0.458333 0.062500
vt 0.479167 0.062500
vt 0.500000 0.062500
vt 0.520833 0.062500
vt 0.541667 0.062500
vt 0.458333 0.041667
vt 0.479167 0.041667
vt 0.500000 0.041667
vt 0.520833 0.041667
vt 0.620625 0.229167
vt 0.620625 0.250000
vt 0.437500 0.067708
vt 0.458333 0.067708
vt 0.516459 0.041667
vt 0.516459 0.062500
vt 0.541667 0.266276
vt 0.520833 0.266276
vt 0.568242 0.125000
vt 0.568242 0.104167
vt 0.458333 0.162109
vt 0.437500 0.162109
vt 0.360319 0.229167
vt 0.360319 0.208333
vt 0.354167 0.067708
vt 0.375000 0.067708
vt 0.583333 0.088541
vt 0.604167 0.088541
vt 0.620625 0.104167
vt 0.620625 0.125000
vt 0.437500 0.202799
vt 0.416667 0.202799
vt 0.599284 0.145833
vt 0.599284 0.166667
vt 0.641459 0.187500
vt 0.641459 0.208333
vt 0.416667 0.130208
vt 0.437500 0.130208
vt 0.412292 0.208333
vt 0.412292 0.229167
vt 0.458333 0.266276
vt 0.437500 0.266276
vt 0.360319 0.104167
vt 0.360319 0.083333
vt 0.379883 0.145833
vt 0.379883 0.125000
vt 0.354167 0.171875
vt 0.375000 0.171875
vt 0.360319 0.187500
vt 0.360319 0.166667
vt 0.443242 0.229167
vt 0.443242 0.208333
vt 0.520833 0.287109
vt 0.500000 0.287109
vt 0.479167 0.287109
vt 0.391459 0.083333
vt 0.391459 0.104167
vt 0.625000 0.141276
vt 0.604167 0.141276
vt 0.458333 0.287109
vt 0.443242 0.104167
vt 0.443242 0.083333
vt 0.645833 0.224609
vt 0.625000 0.224609
vt 0.375000 0.088541
vt 0.395833 0.088541
vt 0.464075 0.291667
vt 0.464075 0.270833
vt 0.433125 0.166667
vt 0.433125 0.187500
vt 0.464075 0.187500
vt 0.464075 0.166667
vt 0.604167 0.109375
vt 0.625000 0.109375
vt 0.537292 0.208333
vt 0.537292 0.229167
vt 0.583333 0.224609
vt 0.562500 0.224609
vt 0.541667 0.182943
vt 0.520833 0.182943
vt 0.568242 0.229167
vt 0.568242 0.208333
vt 0.516459 0.270833
vt 0.516459 0.291667
vt 0.562500 0.109375
vt 0.583333 0.109375
vt 0.443242 0.270833
vt 0.443242 0.250000
vt 0.537292 0.083333
vt 0.537292 0.104167
vt 0.589075 0.104167
vt 0.589075 0.083333
vt 0.599792 0.083333
vt 0.599792 0.104167
vt 0.437500 0.192708
vt 0.458333 0.192708
vt 0.641459 0.229167
vt 0.360319 0.062500
vt 0.370625 0.062500
vt 0.370625 0.083333
vt 0.416667 0.224609
vt 0.395833 0.224609
vt 0.620625 0.145833
vt 0.537292 0.250000
vt 0.537292 0.270833
vt 0.443242 0.062500
vt 0.375000 0.224609
vt 0.379883 0.104167
vt 0.620625 0.166667
vt 0.620625 0.187500
vt 0.395833 0.109375
vt 0.416667 0.109375
vt 0.354167 0.224609
vt 0.379883 0.166667
vt 0.604167 0.171875
vt 0.625000 0.171875
vt 0.500000 0.046875
vt 0.520833 0.046875
vt 0.625000 0.245443
vt 0.604167 0.245443
vt 0.412292 0.104167
vt 0.412292 0.125000
vt 0.375000 0.099609
vt 0.354167 0.099609
vt 0.479167 0.046875
vt 0.583333 0.245443
vt 0.443242 0.125000
vt 0.458333 0.046875
vt 0.520833 0.067708
vt 0.541667 0.067708
vt 0.537292 0.062500
vt 0.464075 0.062500
vt 0.464075 0.041667
vt 0.562500 0.203776
vt 0.541667 0.203776
vt 0.516459 0.187500
vt 0.516459 0.208333
vt 0.541667 0.130208
vt 0.562500 0.130208
vt 0.589075 0.250000
vt 0.589075 0.229167
vt 0.520833 0.213541
vt 0.541667 0.213541
vt 0.547409 0.208333
vt 0.547409 0.187500
vt 0.537292 0.125000
s 0
usemtl merge
f 496/266/63 501/267/63 500/268/63 495/269/63
f 495/269/63 500/268/63 499/270/63 494/271/63
f 494/271/63 499/270/63 498/272/63 493/273/63
f 491/274/63 497/275/63 496/266/63 490/276/63
f 490/276/63 496/266/63 495/269/63 489/277/63
f 489/277/63 495/269/63 494/271/63 488/278/63
f 488/278/63 494/271/63 493/273/63 487/279/63
f 487/279/63 493/273/63 492/280/63 486/281/63
f 478/282/63 491/274/63 490/276/63 477/283/63
f 477/283/63 490/276/63 489/277/63 476/284/63
f 476/284/63 489/277/63 488/278/63 475/285/63
f 475/285/63 488/278/63 487/279/63 474/286/63
f 474/286/63 487/279/63 486/281/63 473/287/63
f 471/288/63 485/289/63 484/290/63 470/291/63
f 470/291/63 484/290/63 483/292/63 469/293/63
f 467/294/63 482/295/63 481/296/63 466/297/63
f 466/297/63 481/296/63 480/298/63 465/299/63
f 465/299/63 480/298/63 479/300/63 464/301/63
f 463/302/63 478/282/63 477/283/63 462/303/63
f 462/303/63 477/283/63 476/284/63 461/304/63
f 461/304/63 476/284/63 475/285/63 460/305/63
f 460/305/63 475/285/63 474/286/63 459/306/63
f 459/306/63 474/286/63 473/287/63 458/307/63
f 457/308/63 472/309/63 471/288/63 456/310/63
f 456/310/63 471/288/63 470/291/63 455/311/63
f 455/311/63 470/291/63 469/293/63 454/312/63
f 454/312/63 469/293/63 468/313/63 453/314/63
f 452/315/63 467/294/63 466/297/63 451/316/63
f 451/316/63 466/297/63 465/299/63 450/317/63
f 450/317/63 465/299/63 464/301/63 449/318/63
f 449/318/63 464/301/63 463/302/63 448/319/63
f 448/319/63 463/302/63 462/303/63 447/320/63
f 447/320/63 462/303/63 461/304/63 446/321/63
f 446/321/63 461/304/63 460/305/63 445/322/63
f 445/322/63 460/305/63 459/306/63 444/323/63
f 443/324/63 458/307/63 457/308/63 442/325/63
f 442/325/63 457/308/63 456/310/63 441/326/63
f 441/326/63 456/310/63 455/311/63 440/327/63
f 440/327/63 455/311/63 454/312/63 439/328/63
f 439/328/63 454/312/63 453/314/63 438/329/63
f 437/330/63 452/315/63 451/316/63 436/331/63
f 436/331/63 451/316/63 450/317/63 435/332/63
f 435/332/63 450/317/63 449/318/63 434/333/63
f 434/333/63 449/318/63 448/319/63 433/334/63
f 432/335/63 447/320/63 446/321/63 431/336/63
f 431/336/63 446/321/63 445/322/63 430/337/63
f 430/337/63 445/322/63 444/323/63 429/338/63
f 429/338/63 444/323/63 443/324/63 428/339/63
f 428/339/63 443/324/63 442/325/63 427/340/63
f 427/340/63 442/325/63 441/326/63 426/341/63
f 426/341/63 441/326/63 440/327/63 425/342/63
f 425/342/63 440/327/63 439/328/63 424/343/63
f 423/344/63 436/331/63 435/332/63 422/345/63
f 422/345/63 435/332/63 434/333/63 421/346/63
f 421/346/63 434/333/63 433/334/63 420/347/63
f 420/347/63 433/334/63 432/335/63 419/348/63
f 419/348/63 432/335/63 431/336/63 418/349/63
f 418/349/63 431/336/63 430/337/63 417/350/63
f 417/350/63 430/337/63 429/338/63 416/351/63
f 416/351/63 429/338/63 428/339/63 415/352/63
f 415/352/63 428/339/63 427/340/63 414/353/63
f 414/353/63 427/340/63 426/341/63 413/354/63
f 413/354/63 426/341/63 425/342/63 412/355/63
f 410/356/63 423/344/63 422/345/63 409/357/63
f 409/357/63 422/345/63 421/346/63 408/358/63
f 408/358/63 421/346/63 420/347/63 407/359/63
f 407/359/63 420/347/63 419/348/63 406/360/63
f 406/360/63 419/348/63 418/349/63 405/361/63
f 405/361/63 418/349/63 417/350/63 404/362/63
f 404/362/63 417/350/63 416/351/63 403/363/63
f 403/363/63 416/351/63 415/352/63 402/364/63
f 402/364/63 415/352/63 414/353/63 401/365/63
f 401/365/63 414/353/63 413/354/63 400/366/63
f 400/366/63 413/354/63 412/355/63 399/367/63
f 399/367/63 412/355/63 411/368/63 398/369/63
f 396/370/63 410/356/63 409/357/63 395/371/63
f 395/371/63 409/357/63 408/358/63 394/372/63
f 393/373/63 407/359/63 406/360/63 392/374/63
f 392/374/63 406/360/63 405/361/63 391/375/63
f 391/375/63 405/361/63 404/362/63 390/376/63
f 390/376/63 404/362/63 403/363/63 389/377/63
f 389/377/63 403/363/63 402/364/63 388/378/63
f 387/379/63 401/365/63 400/366/63 386/380/63
f 386/380/63 400/366/63 399/367/63 385/381/63
f 385/381/63 399/367/63 398/369/63 384/382/63
f 383/383/63 397/384/63 396/370/63 382/385/63
f 382/385/63 396/370/63 395/371/63 381/386/63
f 380/387/63 393/373/63 392/374/63 379/388/63
f 379/388/63 392/374/63 391/375/63 378/389/63
f 378/389/63 391/375/63 390/376/63 377/390/63
f 377/390/63 390/376/63 389/377/63 376/391/63
f 376/391/63 389/377/63 388/378/63 375/392/63
f 374/393/63 386/380/63 385/381/63 373/394/63
f 372/395/63 383/383/63 382/385/63 371/396/63
f 370/397/63 380/387/63 379/388/63 369/398/63
f 369/398/63 379/388/63 378/389/63 368/399/63
f 368/399/63 378/389/63 377/390/63 367/400/63
f 367/400/63 377/390/63 376/391/63 366/401/63
f 366/401/63 376/391/63 375/392/63 365/402/63
f 364/403/63 369/398/63 368/399/63 363/404/63
f 363/404/63 368/399/63 367/400/63 362/405/63
f 362/405/63 367/400/63 366/401/63 361/406/63
f 637/266/64 636/269/64 641/268/64 642/267/64
f 636/269/64 635/271/64 640/270/64 641/268/64
f 635/271/64 634/273/64 639/272/64 640/270/64
f 632/274/64 631/276/64 637/266/64 638/275/64
f 631/276/64 630/277/64 636/269/64 637/266/64
f 630/277/64 629/278/64 635/271/64 636/269/64
f 629/278/64 628/279/64 634/273/64 635/271/64
f 628/279/64 627/281/64 633/280/64 634/273/64
f 619/282/64 618/283/64 631/276/64 632/274/64
f 618/283/64 617/284/64 630/277/64 631/276/64
f 617/284/64 616/285/64 629/278/64 630/277/64
f 616/285/64 615/286/64 628/279/64 629/278/64
f 615/286/64 614/287/64 627/281/64 628/279/64
f 612/288/64 611/291/64 625/290/64 626/289/64
f 611/291/64 610/293/64 624/292/64 625/290/64
f 608/294/64 607/297/64 622/296/64 623/295/64
f 607/297/64 606/299/64 621/298/64 622/296/64
f 606/299/64 605/301/64 620/300/64 621/298/64
f 604/302/64 603/303/64 618/283/64 619/282/64
f 603/303/64 602/304/64 617/284/64 618/283/64
f 602/304/64 601/305/64 616/285/64 617/284/64
f 601/305/64 600/306/64 615/286/64 616/285/64
f 600/306/64 599/307/64 614/287/64 615/286/64
f 598/308/64 597/310/64 612/288/64 613/309/64
f 597/310/64 596/311/64 611/291/64 612/288/64
f 596/311/64 595/312/64 610/293/64 611/291/64
f 595/312/64 594/314/64 609/313/64 610/293/64
f 593/315/64 592/316/64 607/297/64 608/294/64
f 592/316/64 591/317/64 606/299/64 607/297/64
f 591/317/64 590/318/64 605/301/64 606/299/64
f 590/318/64 589/319/64 604/302/64 605/301/64
f 589/319/64 588/320/64 603/303/64 604/302/64
f 588/320/64 587/321/64 602/304/64 603/303/64
f 587/321/64 586/322/64 601/305/64 602/304/64
f 586/322/64 585/323/64 600/306/64 601/305/64
f 584/324/64 583/325/64 598/308/64 599/307/64
f 583/325/64 582/326/64 597/310/64 598/308/64
f 582/326/64 581/327/64 596/311/64 597/310/64
f 581/327/64 580/328/64 595/312/64 596/311/64
f 580/328/64 579/329/64 594/314/64 595/312/64
f 578/330/64 577/331/64 592/316/64 593/315/64
f 577/331/64 576/332/64 591/317/64 592/316/64
f 576/332/64 575/333/64 590/318/64 591/317/64
f 575/333/64 574/334/64 589/319/64 590/318/64
f 573/335/64 572/336/64 587/321/64 588/320/64
f 572/336/64 571/337/64 586/322/64 587/321/64
f 571/337/64 570/338/64 585/323/64 586/322/64
f 570/338/64 569/339/64 584/324/64 585/323/64
f 569/339/64 568/340/64 583/325/64 584/324/64
f 568/340/64 567/341/64 582/326/64 583/325/64
f 567/341/64 566/342/64 581/327/64 582/326/64
f 566/342/64 565/343/64 580/328/64 581/327/64
f 564/344/64 563/345/64 576/332/64 577/331/64
f 563/345/64 562/346/64 575/333/64 576/332/64
f 562/346/64 561/347/64 574/334/64 575/333/64
f 561/347/64 560/348/64 573/335/64 574/334/64
f 560/348/64 559/349/64 572/336/64 573/335/64
f 559/349/64 558/350/64 571/337/64 572/336/64
f 558/350/64 557/351/64 570/338/64 571/337/64
f 557/351/64 556/352/64 569/339/64 570/338/64
f 556/352/64 555/353/64 568/340/64 569/339/64
f 555/353/64 554/354/64 567/341/64 568/340/64
f 554/354/64 553/355/64 566/342/64 567/341/64
f 551/356/64 550/357/64 563/345/64 564/344/64
f 550/357/64 549/358/64 562/346/64 563/345/64
f 549/358/64 548/359/64 561/347/64 562/346/64
f 548/359/64 547/360/64 560/348/64 561/347/64
f 547/360/64 546/361/64 559/349/64 560/348/64
f 546/361/64 545/362/64 558/350/64 559/349/64
f 545/362/64 544/363/64 557/351/64 558/350/64
f 544/363/64 543/364/64 556/352/64 557/351/64
f 543/364/64 542/365/64 555/353/64 556/352/64
f 542/365/64 541/366/64 554/354/64 555/353/64
f 541/366/64 540/367/64 553/355/64 554/354/64
f 540/367/64 539/369/64 552/368/64 553/355/64
f 537/370/64 536/371/64 550/357/64 551/356/64
f 536/371/64 535/372/64 549/358/64 550/357/64
f 534/373/64 533/374/64 547/360/64 548/359/64
f 533/374/64 532/375/64 546/361/64 547/360/64
f 532/375/64 531/376/64 545/362/64 546/361/64
f 531/376/64 530/377/64 544/363/64 545/362/64
f 530/377/64 529/378/64 543/364/64 544/363/64
f 528/379/64 527/380/64 541/366/64 542/365/64
f 527/380/64 526/381/64 540/367/64 541/366/64
f 526/381/64 525/382/64 539/369/64 540/367/64
f 524/383/64 523/385/64 537/370/64 538/384/64
f 523/385/64 522/386/64 536/371/64 537/370/64
f 521/387/64 520/388/64 533/374/64 534/373/64
f 520/388/64 519/389/64 532/375/64 533/374/64
f 519/389/64 518/390/64 531/376/64 532/375/64
f 518/390/64 517/391/64 530/377/64 531/376/64
f 517/391/64 516/392/64 529/378/64 530/377/64
f 515/393/64 514/394/64 526/381/64 527/380/64
f 513/395/64 512/396/64 523/385/64 524/383/64
f 511/397/64 510/398/64 520/388/64 521/387/64
f 510/398/64 509/399/64 519/389/64 520/388/64
f 509/399/64 508/400/64 518/390/64 519/389/64
f 508/400/64 507/401/64 517/391/64 518/390/64
f 507/401/64 506/402/64 516/392/64 517/391/64
f 505/403/64 504/404/64 509/399/64 510/398/64
f 504/404/64 503/405/64 508/400/64 509/399/64
f 503/405/64 502/406/64 507/401/64 508/400/64
f 469/407/65 483/408/65 624/408/65 610/407/65
f 370/409/66 369/410/66 510/410/66 511/409/66
f 361/411/65 366/412/65 507/412/65 502/411/65
f 492/413/67 493/414/67 634/414/67 633/413/67
f 401/415/68 387/416/68 528/416/68 542/415/68
f 432/417/67 433/418/67 574/418/67 573/417/67
f 482/419/68 467/420/68 608/420/68 623/419/68
f 372/421/66 371/422/66 512/422/66 513/421/66
f 374/423/66 373/424/66 514/424/66 515/423/66
f 384/425/65 398/426/65 539/426/65 525/425/65
f 463/427/67 464/428/67 605/428/67 604/427/67
f 412/429/65 425/430/65 566/430/65 553/429/65
f 438/431/65 453/432/65 594/432/65 579/431/65
f 408/433/66 407/434/66 548/434/66 549/433/66
f 464/435/65 479/436/65 620/436/65 605/435/65
f 496/437/67 497/438/67 638/438/67 637/437/67
f 397/439/68 383/440/68 524/440/68 538/439/68
f 423/441/68 410/442/68 551/442/68 564/441/68
f 437/443/66 436/444/66 577/444/66 578/443/66
f 452/445/68 437/446/68 578/446/68 593/445/68
f 478/447/68 463/448/68 604/448/68 619/447/68
f 498/449/67 499/450/67 640/450/67 639/449/67
f 439/328/66 438/329/66 579/329/66 580/328/66
f 499/450/67 500/451/67 641/451/67 640/450/67
f 381/452/65 395/453/65 536/453/65 522/452/65
f 411/454/67 412/455/67 553/455/67 552/454/67
f 500/451/67 501/456/67 642/456/67 641/451/67
f 393/457/68 380/458/68 521/458/68 534/457/68
f 468/459/67 469/460/67 610/460/67 609/459/67
f 382/461/66 381/462/66 522/462/66 523/461/66
f 501/463/68 496/464/68 637/464/68 642/463/68
f 433/465/65 448/466/65 589/466/65 574/465/65
f 447/467/68 432/468/68 573/468/68 588/467/68
f 385/469/66 384/470/66 525/470/66 526/469/66
f 458/471/65 473/472/65 614/472/65 599/471/65
f 471/473/67 472/474/67 613/474/67 612/473/67
f 443/475/67 444/476/67 585/476/67 584/475/67
f 472/477/68 457/478/68 598/478/68 613/477/68
f 493/479/65 498/480/65 639/480/65 634/479/65
f 387/481/66 386/482/66 527/482/66 528/481/66
f 497/483/68 491/484/68 632/484/68 638/483/68
f 375/485/65 388/486/65 529/486/65 516/485/65
f 386/487/68 374/488/68 515/488/68 527/487/68
f 373/489/65 385/490/65 526/490/65 514/489/65
f 448/491/66 447/492/66 588/492/66 589/491/66
f 453/432/65 468/493/65 609/493/65 594/432/65
f 383/440/68 372/494/68 513/494/68 524/440/68
f 467/420/68 452/445/68 593/445/68 608/420/68
f 371/495/65 382/496/65 523/496/65 512/495/65
f 479/497/67 480/498/67 621/498/67 620/497/67
f 398/426/65 411/499/65 552/499/65 539/426/65
f 486/500/65 492/501/65 633/501/65 627/500/65
f 380/458/68 370/502/68 511/502/68 521/458/68
f 480/498/67 481/503/67 622/503/67 621/498/67
f 410/442/68 396/504/68 537/504/68 551/442/68
f 424/505/65 439/506/65 580/506/65 565/505/65
f 395/507/66 394/508/66 535/508/66 536/507/66
f 491/484/68 478/447/68 619/447/68 632/484/68
f 481/503/67 482/509/67 623/509/67 622/503/67
f 436/510/68 423/441/68 564/441/68 577/510/68
f 425/511/66 424/512/66 565/512/66 566/511/66
f 362/513/66 361/514/66 502/514/66 503/513/66
f 483/515/67 484/516/67 625/516/67 624/515/67
f 394/517/65 408/518/65 549/518/65 535/517/65
f 396/519/67 397/520/67 538/520/67 537/519/67
f 363/521/66 362/513/66 503/513/66 504/521/66
f 484/516/67 485/522/67 626/522/67 625/516/67
f 407/523/68 393/457/68 534/457/68 548/523/68
f 364/524/66 363/521/66 504/521/66 505/524/66
f 366/525/66 365/526/66 506/526/66 507/525/66
f 365/527/65 375/485/65 516/485/65 506/527/65
f 473/472/65 486/500/65 627/500/65 614/472/65
f 369/528/68 364/529/68 505/529/68 510/528/68
f 457/530/67 458/531/67 599/531/67 598/530/67
f 444/532/65 459/533/65 600/533/65 585/532/65
f 402/534/66 401/535/66 542/535/66 543/534/66
f 485/536/68 471/537/68 612/537/68 626/536/68
f 459/538/66 458/539/66 599/539/66 600/538/66
f 458/540/68 443/541/68 584/541/68 599/540/68
f 388/486/65 402/542/65 543/542/65 529/486/65
o 甜甜卷
v 0.000000 0.300000 -0.100000
v 0.000000 0.300000 -0.050000
v 0.000000 0.300000 0.000000
v 0.000000 0.300000 0.050000
v 0.000000 0.300000 0.100000
v 0.000000 0.350000 -0.200000
v 0.000000 0.350000 -0.150000
v 0.000000 0.350000 -0.100000
v 0.000000 0.350000 -0.050000
v 0.000000 0.350000 0.000000
v 0.000000 0.350000 0.050000
v 0.000000 0.350000 0.100000
v 0.000000 0.350000 0.150000
v 0.000000 0.350000 0.200000
v 0.000000 0.400000 -0.250000
v 0.000000 0.400000 -0.200000
v 0.000000 0.400000 -0.150000
v 0.000000 0.400000 -0.100000
v 0.000000 0.400000 -0.050000
v 0.000000 0.400000 0.000000
v 0.000000 0.400000 0.050000
v 0.000000 0.400000 0.100000
v 0.000000 0.400000 0.150000
v 0.000000 0.400000 0.200000
v 0.000000 0.400000 0.250000
v 0.000000 0.450000 -0.300000
v 0.000000 0.450000 -0.250000
v 0.000000 0.450000 -0.200000
v 0.000000 0.450000 -0.150000
v 0.000000 0.450000 -0.100000
v 0.000000 0.450000 -0.050000
v 0.000000 0.450000 0.000000
v 0.000000 0.450000 0.050000
v 0.000000 0.450000 0.100000
v 0.000000 0.450000 0.150000
v 0.000000 0.450000 0.200000
v 0.000000 0.450000 0.250000
v 0.000000 0.450000 0.300000
v 0.000000 0.500000 -0.300000
v 0.000000 0.500000 -0.250000
v 0.000000 0.500000 -0.200000
v 0.000000 0.500000 -0.150000
v 0.000000 0.500000 -0.100000
v 0.000000 0.500000 -0.050000
v 0.000000 0.500000 0.000000
v 0.000000 0.500000 0.050000
v 0.000000 0.500000 0.100000
v 0.000000 0.500000 0.150000
v 0.000000 0.500000 0.200000
v 0.000000 0.500000 0.250000
v 0.000000 0.500000 0.300000
v 0.000000 0.550000 -0.300000
v 0.000000 0.550000 -0.250000
v 0.000000 0.550000 -0.200000
v 0.000000 0.550000 -0.150000
v 0.000000 0.550000 -0.100000
v 0.000000 0.550000 -0.050000
v 0.000000 0.550000 0.000000
v 0.000000 0.550000 0.050000
v 0.000000 0.550000 0.100000
v 0.000000 0.550000 0.150000
v 0.000000 0.550000 0.200000
v 0.000000 0.550000 0.250000
v 0.000000 0.550000 0.300000
v 0.000000 0.600000 -0.300000
v 0.000000 0.600000 -0.250000
v 0.000000 0.600000 -0.200000
v 0.000000 0.600000 -0.150000
v 0.000000 0.600000 -0.100000
v 0.000000 0.600000 -0.050000
v 0.000000 0.600000 0.000000
v 0.000000 0.600000 0.050000
v 0.000000 0.600000 0.100000
v 0.000000 0.600000 0.150000
v 0.000000 0.600000 0.200000
v 0.000000 0.600000 0.250000
v 0.000000 0.600000 0.300000
v 0.000000 0.650000 -0.300000
v 0.000000 0.650000 -0.250000
v 0.000000 0.650000 -0.200000
v 0.000000 0.650000 -0.150000
v 0.000000 0.650000 -0.100000
v 0.000000 0.650000 -0.050000
v 0.000000 0.650000 0.000000
v 0.000000 0.650000 0.050000
v 0.000000 0.650000 0.100000
v 0.000000 0.650000 0.150000
v 0.000000 0.650000 0.200000
v 0.000000 0.650000 0.250000
v 0.000000 0.650000 0.300000
v 0.000000 0.700000 -0.300000
v 0.000000 0.700000 -0.250000
v 0.000000 0.700000 -0.200000
v 0.000000 0.700000 -0.150000
v 0.000000 0.700000 -0.100000
v 0.000000 0.700000 -0.050000
v 0.000000 0.700000 -0.000000
v 0.000000 0.700000 0.050000
v 0.000000 0.700000 0.100000
v 0.000000 0.700000 0.150000
v 0.000000 0.700000 0.200000
v 0.000000 0.700000 0.250000
v 0.000000 0.700000 0.300000
v 0.000000 0.750000 -0.250000
v 0.000000 0.750000 -0.200000
v 0.000000 0.750000 -0.150000
v 0.000000 0.750000 -0.100000
v 0.000000 0.750000 -0.050000
v 0.000000 0.750000 -0.000000
v 0.000000 0.750000 0.050000
v 0.000000 0.750000 0.100000
v 0.000000 0.750000 0.150000
v 0.000000 0.750000 0.200000
v 0.000000 0.750000 0.250000
v 0.000000 0.800000 -0.250000
v 0.000000 0.800000 -0.200000
v 0.000000 0.800000 -0.150000
v 0.000000 0.800000 -0.100000
v 0.000000 0.800000 -0.050000
v 0.000000 0.800000 -0.000000
v 0.000000 0.800000 0.050000
v 0.000000 0.800000 0.100000
v 0.000000 0.800000 0.150000
v 0.000000 0.800000 0.200000
v 0.000000 0.800000 0.250000
v 0.000000 0.850000 -0.200000
v 0.000000 0.850000 -0.150000
v 0.000000 0.850000 -0.100000
v 0.000000 0.850000 -0.050000
v 0.000000 0.850000 -0.000000
v 0.000000 0.850000 0.050000
v 0.000000 0.850000 0.100000
v 0.000000 0.850000 0.150000
v 0.000000 0.850000 0.200000
v 0.000000 0.900000 -0.100000
v 0.000000 0.900000 -0.050000
v 0.000000 0.900000 -0.000000
v 0.000000 0.900000 0.050000
v 0.000000 0.900000 0.100000
v 0.050000 0.300000 -0.100000
v 0.050000 0.300000 -0.050000
v 0.050000 0.300000 0.000000
v 0.050000 0.300000 0.050000
v 0.050000 0.300000 0.100000
v 0.050000 0.350000 -0.200000
v 0.050000 0.350000 -0.150000
v 0.050000 0.350000 -0.100000
v 0.050000 0.350000 -0.050000
v 0.050000 0.350000 0.000000
v 0.050000 0.350000 0.050000
v 0.050000 0.350000 0.100000
v 0.050000 0.350000 0.150000
v 0.050000 0.350000 0.200000
v 0.050000 0.400000 -0.250000
v 0.050000 0.400000 -0.200000
v 0.050000 0.400000 -0.150000
v 0.050000 0.400000 -0.100000
v 0.050000 0.400000 -0.050000
v 0.050000 0.400000 0.000000
v 0.050000 0.400000 0.050000
v 0.050000 0.400000 0.100000
v 0.050000 0.400000 0.150000
v 0.050000 0.400000 0.200000
v 0.050000 0.400000 0.250000
v 0.050000 0.450000 -0.300000
v 0.050000 0.450000 -0.250000
v 0.050000 0.450000 -0.200000
v 0.050000 0.450000 -0.150000
v 0.050000 0.450000 -0.100000
v 0.050000 0.450000 -0.050000
v 0.050000 0.450000 0.000000
v 0.050000 0.450000 0.050000
v 0.050000 0.450000 0.100000
v 0.050000 0.450000 0.150000
v 0.050000 0.450000 0.200000
v 0.050000 0.450000 0.250000
v 0.050000 0.450000 0.300000
v 0.050000 0.500000 -0.300000
v 0.050000 0.500000 -0.250000
v 0.050000 0.500000 -0.200000
v 0.050000 0.500000 -0.150000
v 0.050000 0.500000 -0.100000
v 0.050000 0.500000 -0.050000
v 0.050000 0.500000 0.000000
v 0.050000 0.500000 0.050000
v 0.050000 0.500000 0.100000
v 0.050000 0.500000 0.150000
v 0.050000 0.500000 0.200000
v 0.050000 0.500000 0.250000
v 0.050000 0.500000 0.300000
v 0.050000 0.550000 -0.300000
v 0.050000 0.550000 -0.250000
v 0.050000 0.550000 -0.200000
v 0.050000 0.550000 -0.150000
v 0.050000 0.550000 -0.100000
v 0.050000 0.550000 -0.050000
v 0.050000 0.550000 0.000000
v 0.050000 0.550000 0.050000
v 0.050000 0.550000 0.100000
v 0.050000 0.550000 0.150000
v 0.050000 0.550000 0.200000
v 0.050000 0.550000 0.250000
v 0.050000 0.550000 0.300000
v 0.050000 0.600000 -0.300000
v 0.050000 0.600000 -0.250000
v 0.050000 0.600000 -0.200000
v 0.050000 0.600000 -0.150000
v 0.050000 0.600000 -0.100000
v 0.050000 0.600000 -0.050000
v 0.050000 0.600000 0.000000
v 0.050000 0.600000 0.050000
v 0.050000 0.600000 0.100000
v 0.050000 0.600000 0.150000
v 0.050000 0.600000 0.200000
v 0.050000 0.600000 0.250000
v 0.050000 0.600000 0.300000
v 0.050000 0.650000 -0.300000
v 0.050000 0.650000 -0.250000
v 0.050000 0.650000 -0.200000
v 0.050000 0.650000 -0.150000
v 0.050000 0.650000 -0.100000
v 0.050000 0.650000 -0.050000
v 0.050000 0.650000 0.000000
v 0.050000 0.650000 0.050000
v 0.050000 0.650000 0.100000
v 0.050000 0.650000 0.150000
v 0.050000 0.650000 0.200000
v 0.050000 0.650000 0.250000
v 0.050000 0.650000 0.300000
v 0.050000 0.700000 -0.300000
v 0.050000 0.700000 -0.250000
v 0.050000 0.700000 -0.200000
v 0.050000 0.700000 -0.150000
v 0.050000 0.700000 -0.100000
v 0.050000 0.700000 -0.050000
v 0.050000 0.700000 -0.000000
v 0.050000 0.700000 0.050000
v 0.050000 0.700000 0.100000
v 0.050000 0.700000 0.150000
v 0.050000 0.700000 0.200000
v 0.050000 0.700000 0.250000
v 0.050000 0.700000 0.300000
v 0.050000 0.750000 -0.250000
v 0.050000 0.750000 -0.200000
v 0.050000 0.750000 -0.150000
v 0.050000 0.750000 -0.100000
v 0.050000 0.750000 -0.050000
v 0.050000 0.750000 -0.000000
v 0.050000 0.750000 0.050000
v 0.050000 0.750000 0.100000
v 0.050000 0.750000 0.150000
v 0.050000 0.750000 0.200000
v 0.050000 0.750000 0.250000
v 0.050000 0.800000 -0.250000
v 0.050000 0.800000 -0.200000
v 0.050000 0.800000 -0.150000
v 0.050000 0.800000 -0.100000
v 0.050000 0.800000 -0.050000
v 0.050000 0.800000 -0.000000
v 0.050000 0.800000 0.050000
v 0.050000 0.800000 0.100000
v 0.050000 0.800000 0.150000
v 0.050000 0.800000 0.200000
v 0.050000 0.800000 0.250000
v 0.050000 0.850000 -0.200000
v 0.050000 0.850000 -0.150000
v 0.050000 0.850000 -0.100000
v 0.050000 0.850000 -0.050000
v 0.050000 0.850000 -0.000000
v 0.050000 0.850000 0.050000
v 0.050000 0.850000 0.100000
v 0.050000 0.850000 0.150000
v 0.050000 0.850000 0.200000
v 0.050000 0.900000 -0.100000
v 0.050000 0.900000 -0.050000
v 0.050000 0.900000 -0.000000
v 0.050000 0.900000 0.050000
v 0.050000 0.900000 0.100000
vn -1.0000 -0.0000 -0.0000
vn 1.0000 -0.0000 -0.0000
vn -0.0000 -0.0000 -1.0000
vn -0.0000 -0.0000 1.0000
vn -0.0000 1.0000 -0.0000
vn -0.0000 -1.0000 -0.0000
vt 0.791667 0.270833
vt 0.791667 0.291667
vt 0.812500 0.291667
vt 0.812500 0.270833
vt 0.833333 0.291667
vt 0.833333 0.270833
vt 0.854167 0.291667
vt 0.854167 0.270833
vt 0.875000 0.291667
vt 0.875000 0.270833
vt 0.750000 0.250000
vt 0.750000 0.270833
vt 0.770833 0.270833
vt 0.770833 0.250000
vt 0.791667 0.250000
vt 0.812500 0.250000
vt 0.833333 0.250000
vt 0.854167 0.250000
vt 0.875000 0.250000
vt 0.895833 0.270833
vt 0.895833 0.250000
vt 0.916667 0.270833
vt 0.916667 0.250000
vt 0.729167 0.229167
vt 0.729167 0.250000
vt 0.750000 0.229167
vt 0.770833 0.229167
vt 0.791667 0.229167
vt 0.812500 0.229167
vt 0.833333 0.229167
vt 0.854167 0.229167
vt 0.875000 0.229167
vt 0.895833 0.229167
vt 0.916667 0.229167
vt 0.937500 0.250000
vt 0.937500 0.229167
vt 0.729167 0.208333
vt 0.750000 0.208333
vt 0.770833 0.208333
vt 0.791667 0.208333
vt 0.812500 0.208333
vt 0.833333 0.208333
vt 0.854167 0.208333
vt 0.875000 0.208333
vt 0.895833 0.208333
vt 0.916667 0.208333
vt 0.937500 0.208333
vt 0.708333 0.187500
vt 0.708333 0.208333
vt 0.729167 0.187500
vt 0.750000 0.187500
vt 0.770833 0.187500
vt 0.791667 0.187500
vt 0.812500 0.187500
vt 0.833333 0.187500
vt 0.854167 0.187500
vt 0.875000 0.187500
vt 0.895833 0.187500
vt 0.916667 0.187500
vt 0.937500 0.187500
vt 0.958333 0.208333
vt 0.958333 0.187500
vt 0.708333 0.166667
vt 0.729167 0.166667
vt 0.750000 0.166667
vt 0.770833 0.166667
vt 0.791667 0.166667
vt 0.812500 0.166667
vt 0.833333 0.166667
vt 0.854167 0.166667
vt 0.875000 0.166667
vt 0.895833 0.166667
vt 0.916667 0.166667
vt 0.937500 0.166667
vt 0.958333 0.166667
vt 0.708333 0.145833
vt 0.729167 0.145833
vt 0.750000 0.145833
vt 0.770833 0.145833
vt 0.791667 0.145833
vt 0.812500 0.145833
vt 0.833333 0.145833
vt 0.854167 0.145833
vt 0.875000 0.145833
vt 0.895833 0.145833
vt 0.916667 0.145833
vt 0.937500 0.145833
vt 0.958333 0.145833
vt 0.708333 0.125000
vt 0.729167 0.125000
vt 0.750000 0.125000
vt 0.770833 0.125000
vt 0.791667 0.125000
vt 0.812500 0.125000
vt 0.833333 0.125000
vt 0.854167 0.125000
vt 0.875000 0.125000
vt 0.895833 0.125000
vt 0.916667 0.125000
vt 0.937500 0.125000
vt 0.958333 0.125000
vt 0.708333 0.104167
vt 0.729167 0.104167
vt 0.750000 0.104167
vt 0.770833 0.104167
vt 0.791667 0.104167
vt 0.812500 0.104167
vt 0.833333 0.104167
vt 0.854167 0.104167
vt 0.875000 0.104167
vt 0.895833 0.104167
vt 0.916667 0.104167
vt 0.937500 0.104167
vt 0.958333 0.104167
vt 0.729167 0.083333
vt 0.750000 0.083333
vt 0.770833 0.083333
vt 0.791667 0.083333
vt 0.812500 0.083333
vt 0.833333 0.083333
vt 0.854167 0.083333
vt 0.875000 0.083333
vt 0.895833 0.083333
vt 0.916667 0.083333
vt 0.937500 0.083333
vt 0.750000 0.062500
vt 0.770833 0.062500
vt 0.791667 0.062500
vt 0.812500 0.062500
vt 0.833333 0.062500
vt 0.854167 0.062500
vt 0.875000 0.062500
vt 0.895833 0.062500
vt 0.916667 0.062500
vt 0.791667 0.041667
vt 0.812500 0.041667
vt 0.833333 0.041667
vt 0.854167 0.041667
vt 0.875000 0.041667
vt 0.953002 0.145833
vt 0.953002 0.166667
vt 0.733678 0.104167
vt 0.733678 0.083333
vt 0.729167 0.202592
vt 0.708333 0.202592
vt 0.953002 0.187500
vt 0.791667 0.265092
vt 0.770833 0.265092
vt 0.712845 0.125000
vt 0.712845 0.104167
vt 0.953002 0.208333
vt 0.712845 0.145833
vt 0.854167 0.046998
vt 0.875000 0.046998
vt 0.932168 0.208333
vt 0.932168 0.229167
vt 0.712845 0.166667
vt 0.750000 0.265092
vt 0.712845 0.187500
vt 0.833333 0.046998
vt 0.712845 0.208333
vt 0.875000 0.285925
vt 0.854167 0.285925
vt 0.958333 0.202592
vt 0.937500 0.202592
vt 0.812500 0.046998
vt 0.833333 0.285925
vt 0.932168 0.250000
vt 0.791667 0.046998
vt 0.812500 0.285925
vt 0.733678 0.229167
vt 0.733678 0.208333
vt 0.895833 0.067832
vt 0.916667 0.067832
vt 0.791667 0.285925
vt 0.911335 0.062500
vt 0.911335 0.083333
vt 0.911335 0.250000
vt 0.911335 0.270833
vt 0.875000 0.067832
vt 0.796178 0.291667
vt 0.796178 0.270833
vt 0.796178 0.062500
vt 0.796178 0.041667
vt 0.750000 0.244259
vt 0.729167 0.244259
vt 0.733678 0.250000
vt 0.708333 0.109498
vt 0.729167 0.109498
vt 0.916667 0.265092
vt 0.895833 0.265092
vt 0.729167 0.088665
vt 0.750000 0.088665
vt 0.875000 0.265092
vt 0.937500 0.109498
vt 0.958333 0.109498
vt 0.932168 0.083333
vt 0.932168 0.104167
vt 0.869668 0.270833
vt 0.869668 0.291667
vt 0.869668 0.041667
vt 0.869668 0.062500
vt 0.770833 0.067832
vt 0.791667 0.067832
vt 0.754511 0.083333
vt 0.754511 0.062500
vt 0.937500 0.244259
vt 0.916667 0.244259
vt 0.754511 0.270833
vt 0.754511 0.250000
vt 0.750000 0.067832
vt 0.953002 0.104167
vt 0.953002 0.125000
vt 0.916667 0.088665
vt 0.937500 0.088665
s 0
usemtl merge.001
f 774/543/69 781/544/69 780/545/69 773/546/69
f 773/546/69 780/545/69 779/547/69 772/548/69
f 772/548/69 779/547/69 778/549/69 771/550/69
f 771/550/69 778/549/69 777/551/69 770/552/69
f 766/553/69 776/554/69 775/555/69 765/556/69
f 765/556/69 775/555/69 774/543/69 764/557/69
f 764/557/69 774/543/69 773/546/69 763/558/69
f 763/558/69 773/546/69 772/548/69 762/559/69
f 762/559/69 772/548/69 771/550/69 761/560/69
f 761/560/69 771/550/69 770/552/69 760/561/69
f 760/561/69 770/552/69 769/562/69 759/563/69
f 759/563/69 769/562/69 768/564/69 758/565/69
f 756/566/69 767/567/69 766/553/69 755/568/69
f 755/568/69 766/553/69 765/556/69 754/569/69
f 754/569/69 765/556/69 764/557/69 753/570/69
f 753/570/69 764/557/69 763/558/69 752/571/69
f 752/571/69 763/558/69 762/559/69 751/572/69
f 751/572/69 762/559/69 761/560/69 750/573/69
f 750/573/69 761/560/69 760/561/69 749/574/69
f 749/574/69 760/561/69 759/563/69 748/575/69
f 748/575/69 759/563/69 758/565/69 747/576/69
f 747/576/69 758/565/69 757/577/69 746/578/69
f 744/579/69 756/566/69 755/568/69 743/580/69
f 743/580/69 755/568/69 754/569/69 742/581/69
f 742/581/69 754/569/69 753/570/69 741/582/69
f 741/582/69 753/570/69 752/571/69 740/583/69
f 740/583/69 752/571/69 751/572/69 739/584/69
f 739/584/69 751/572/69 750/573/69 738/585/69
f 738/585/69 750/573/69 749/574/69 737/586/69
f 737/586/69 749/574/69 748/575/69 736/587/69
f 736/587/69 748/575/69 747/576/69 735/588/69
f 735/588/69 747/576/69 746/578/69 734/589/69
f 732/590/69 745/591/69 744/579/69 731/592/69
f 731/592/69 744/579/69 743/580/69 730/593/69
f 730/593/69 743/580/69 742/581/69 729/594/69
f 729/594/69 742/581/69 741/582/69 728/595/69
f 728/595/69 741/582/69 740/583/69 727/596/69
f 727/596/69 740/583/69 739/584/69 726/597/69
f 726/597/69 739/584/69 738/585/69 725/598/69
f 725/598/69 738/585/69 737/586/69 724/599/69
f 724/599/69 737/586/69 736/587/69 723/600/69
f 723/600/69 736/587/69 735/588/69 722/601/69
f 722/601/69 735/588/69 734/589/69 721/602/69
f 721/602/69 734/589/69 733/603/69 720/604/69
f 719/605/69 732/590/69 731/592/69 718/606/69
f 718/606/69 731/592/69 730/593/69 717/607/69
f 717/607/69 730/593/69 729/594/69 716/608/69
f 716/608/69 729/594/69 728/595/69 715/609/69
f 715/609/69 728/595/69 727/596/69 714/610/69
f 714/610/69 727/596/69 726/597/69 713/611/69
f 713/611/69 726/597/69 725/598/69 712/612/69
f 712/612/69 725/598/69 724/599/69 711/613/69
f 711/613/69 724/599/69 723/600/69 710/614/69
f 710/614/69 723/600/69 722/601/69 709/615/69
f 709/615/69 722/601/69 721/602/69 708/616/69
f 708/616/69 721/602/69 720/604/69 707/617/69
f 706/618/69 719/605/69 718/606/69 705/619/69
f 705/619/69 718/606/69 717/607/69 704/620/69
f 704/620/69 717/607/69 716/608/69 703/621/69
f 703/621/69 716/608/69 715/609/69 702/622/69
f 702/622/69 715/609/69 714/610/69 701/623/69
f 701/623/69 714/610/69 713/611/69 700/624/69
f 700/624/69 713/611/69 712/612/69 699/625/69
f 699/625/69 712/612/69 711/613/69 698/626/69
f 698/626/69 711/613/69 710/614/69 697/627/69
f 697/627/69 710/614/69 709/615/69 696/628/69
f 696/628/69 709/615/69 708/616/69 695/629/69
f 695/629/69 708/616/69 707/617/69 694/630/69
f 693/631/69 706/618/69 705/619/69 692/632/69
f 692/632/69 705/619/69 704/620/69 691/633/69
f 691/633/69 704/620/69 703/621/69 690/634/69
f 690/634/69 703/621/69 702/622/69 689/635/69
f 689/635/69 702/622/69 701/623/69 688/636/69
f 688/636/69 701/623/69 700/624/69 687/637/69
f 687/637/69 700/624/69 699/625/69 686/638/69
f 686/638/69 699/625/69 698/626/69 685/639/69
f 685/639/69 698/626/69 697/627/69 684/640/69
f 684/640/69 697/627/69 696/628/69 683/641/69
f 683/641/69 696/628/69 695/629/69 682/642/69
f 682/642/69 695/629/69 694/630/69 681/643/69
f 680/644/69 693/631/69 692/632/69 679/645/69
f 679/645/69 692/632/69 691/633/69 678/646/69
f 678/646/69 691/633/69 690/634/69 677/647/69
f 677/647/69 690/634/69 689/635/69 676/648/69
f 676/648/69 689/635/69 688/636/69 675/649/69
f 675/649/69 688/636/69 687/637/69 674/650/69
f 674/650/69 687/637/69 686/638/69 673/651/69
f 673/651/69 686/638/69 685/639/69 672/652/69
f 672/652/69 685/639/69 684/640/69 671/653/69
f 671/653/69 684/640/69 683/641/69 670/654/69
f 670/654/69 683/641/69 682/642/69 669/655/69
f 669/655/69 682/642/69 681/643/69 668/656/69
f 667/657/69 679/645/69 678/646/69 666/658/69
f 666/658/69 678/646/69 677/647/69 665/659/69
f 665/659/69 677/647/69 676/648/69 664/660/69
f 664/660/69 676/648/69 675/649/69 663/661/69
f 663/661/69 675/649/69 674/650/69 662/662/69
f 662/662/69 674/650/69 673/651/69 661/663/69
f 661/663/69 673/651/69 672/652/69 660/664/69
f 660/664/69 672/652/69 671/653/69 659/665/69
f 659/665/69 671/653/69 670/654/69 658/666/69
f 658/666/69 670/654/69 669/655/69 657/667/69
f 656/668/69 666/658/69 665/659/69 655/669/69
f 655/669/69 665/659/69 664/660/69 654/670/69
f 654/670/69 664/660/69 663/661/69 653/671/69
f 653/671/69 663/661/69 662/662/69 652/672/69
f 652/672/69 662/662/69 661/663/69 651/673/69
f 651/673/69 661/663/69 660/664/69 650/674/69
f 650/674/69 660/664/69 659/665/69 649/675/69
f 649/675/69 659/665/69 658/666/69 648/676/69
f 647/677/69 654/670/69 653/671/69 646/678/69
f 646/678/69 653/671/69 652/672/69 645/679/69
f 645/679/69 652/672/69 651/673/69 644/680/69
f 644/680/69 651/673/69 650/674/69 643/681/69
f 913/543/70 912/546/70 919/545/70 920/544/70
f 912/546/70 911/548/70 918/547/70 919/545/70
f 911/548/70 910/550/70 917/549/70 918/547/70
f 910/550/70 909/552/70 916/551/70 917/549/70
f 905/553/70 904/556/70 914/555/70 915/554/70
f 904/556/70 903/557/70 913/543/70 914/555/70
f 903/557/70 902/558/70 912/546/70 913/543/70
f 902/558/70 901/559/70 911/548/70 912/546/70
f 901/559/70 900/560/70 910/550/70 911/548/70
f 900/560/70 899/561/70 909/552/70 910/550/70
f 899/561/70 898/563/70 908/562/70 909/552/70
f 898/563/70 897/565/70 907/564/70 908/562/70
f 895/566/70 894/568/70 905/553/70 906/567/70
f 894/568/70 893/569/70 904/556/70 905/553/70
f 893/569/70 892/570/70 903/557/70 904/556/70
f 892/570/70 891/571/70 902/558/70 903/557/70
f 891/571/70 890/572/70 901/559/70 902/558/70
f 890/572/70 889/573/70 900/560/70 901/559/70
f 889/573/70 888/574/70 899/561/70 900/560/70
f 888/574/70 887/575/70 898/563/70 899/561/70
f 887/575/70 886/576/70 897/565/70 898/563/70
f 886/576/70 885/578/70 896/577/70 897/565/70
f 883/579/70 882/580/70 894/568/70 895/566/70
f 882/580/70 881/581/70 893/569/70 894/568/70
f 881/581/70 880/582/70 892/570/70 893/569/70
f 880/582/70 879/583/70 891/571/70 892/570/70
f 879/583/70 878/584/70 890/572/70 891/571/70
f 878/584/70 877/585/70 889/573/70 890/572/70
f 877/585/70 876/586/70 888/574/70 889/573/70
f 876/586/70 875/587/70 887/575/70 888/574/70
f 875/587/70 874/588/70 886/576/70 887/575/70
f 874/588/70 873/589/70 885/578/70 886/576/70
f 871/590/70 870/592/70 883/579/70 884/591/70
f 870/592/70 869/593/70 882/580/70 883/579/70
f 869/593/70 868/594/70 881/581/70 882/580/70
f 868/594/70 867/595/70 880/582/70 881/581/70
f 867/595/70 866/596/70 879/583/70 880/582/70
f 866/596/70 865/597/70 878/584/70 879/583/70
f 865/597/70 864/598/70 877/585/70 878/584/70
f 864/598/70 863/599/70 876/586/70 877/585/70
f 863/599/70 862/600/70 875/587/70 876/586/70
f 862/600/70 861/601/70 874/588/70 875/587/70
f 861/601/70 860/602/70 873/589/70 874/588/70
f 860/602/70 859/604/70 872/603/70 873/589/70
f 858/605/70 857/606/70 870/592/70 871/590/70
f 857/606/70 856/607/70 869/593/70 870/592/70
f 856/607/70 855/608/70 868/594/70 869/593/70
f 855/608/70 854/609/70 867/595/70 868/594/70
f 854/609/70 853/610/70 866/596/70 867/595/70
f 853/610/70 852/611/70 865/597/70 866/596/70
f 852/611/70 851/612/70 864/598/70 865/597/70
f 851/612/70 850/613/70 863/599/70 864/598/70
f 850/613/70 849/614/70 862/600/70 863/599/70
f 849/614/70 848/615/70 861/601/70 862/600/70
f 848/615/70 847/616/70 860/602/70 861/601/70
f 847/616/70 846/617/70 859/604/70 860/602/70
f 845/618/70 844/619/70 857/606/70 858/605/70
f 844/619/70 843/620/70 856/607/70 857/606/70
f 843/620/70 842/621/70 855/608/70 856/607/70
f 842/621/70 841/622/70 854/609/70 855/608/70
f 841/622/70 840/623/70 853/610/70 854/609/70
f 840/623/70 839/624/70 852/611/70 853/610/70
f 839/624/70 838/625/70 851/612/70 852/611/70
f 838/625/70 837/626/70 850/613/70 851/612/70
f 837/626/70 836/627/70 849/614/70 850/613/70
f 836/627/70 835/628/70 848/615/70 849/614/70
f 835/628/70 834/629/70 847/616/70 848/615/70
f 834/629/70 833/630/70 846/617/70 847/616/70
f 832/631/70 831/632/70 844/619/70 845/618/70
f 831/632/70 830/633/70 843/620/70 844/619/70
f 830/633/70 829/634/70 842/621/70 843/620/70
f 829/634/70 828/635/70 841/622/70 842/621/70
f 828/635/70 827/636/70 840/623/70 841/622/70
f 827/636/70 826/637/70 839/624/70 840/623/70
f 826/637/70 825/638/70 838/625/70 839/624/70
f 825/638/70 824/639/70 837/626/70 838/625/70
f 824/639/70 823/640/70 836/627/70 837/626/70
f 823/640/70 822/641/70 835/628/70 836/627/70
f 822/641/70 821/642/70 834/629/70 835/628/70
f 821/642/70 820/643/70 833/630/70 834/629/70
f 819/644/70 818/645/70 831/632/70 832/631/70
f 818/645/70 817/646/70 830/633/70 831/632/70
f 817/646/70 816/647/70 829/634/70 830/633/70
f 816/647/70 815/648/70 828/635/70 829/634/70
f 815/648/70 814/649/70 827/636/70 828/635/70
f 814/649/70 813/650/70 826/637/70 827/636/70
f 813/650/70 812/651/70 825/638/70 826/637/70
f 812/651/70 811/652/70 824/639/70 825/638/70
f 811/652/70 810/653/70 823/640/70 824/639/70
f 810/653/70 809/654/70 822/641/70 823/640/70
f 809/654/70 808/655/70 821/642/70 822/641/70
f 808/655/70 807/656/70 820/643/70 821/642/70
f 806/657/70 805/658/70 817/646/70 818/645/70
f 805/658/70 804/659/70 816/647/70 817/646/70
f 804/659/70 803/660/70 815/648/70 816/647/70
f 803/660/70 802/661/70 814/649/70 815/648/70
f 802/661/70 801/662/70 813/650/70 814/649/70
f 801/662/70 800/663/70 812/651/70 813/650/70
f 800/663/70 799/664/70 811/652/70 812/651/70
f 799/664/70 798/665/70 810/653/70 811/652/70
f 798/665/70 797/666/70 809/654/70 810/653/70
f 797/666/70 796/667/70 808/655/70 809/654/70
f 795/668/70 794/669/70 804/659/70 805/658/70
f 794/669/70 793/670/70 803/660/70 804/659/70
f 793/670/70 792/671/70 802/661/70 803/660/70
f 792/671/70 791/672/70 801/662/70 802/661/70
f 791/672/70 790/673/70 800/663/70 801/662/70
f 790/673/70 789/674/70 799/664/70 800/663/70
f 789/674/70 788/675/70 798/665/70 799/664/70
f 788/675/70 787/676/70 797/666/70 798/665/70
f 786/677/70 785/678/70 792/671/70 793/670/70
f 785/678/70 784/679/70 791/672/70 792/671/70
f 784/679/70 783/680/70 790/673/70 791/672/70
f 783/680/70 782/681/70 789/674/70 790/673/70
f 694/682/71 707/683/71 846/683/71 833/682/71
f 679/684/72 667/685/72 806/685/72 818/684/72
f 744/686/73 745/687/73 884/687/73 883/686/73
f 707/683/71 720/688/71 859/688/71 846/683/71
f 774/689/73 775/690/73 914/690/73 913/689/73
f 693/691/72 680/692/72 819/692/72 832/691/72
f 720/688/71 733/693/71 872/693/71 859/688/71
f 706/694/72 693/691/72 832/691/72 845/694/72
f 644/695/74 643/696/74 782/696/74 783/695/74
f 734/697/71 746/698/71 885/698/71 873/697/71
f 719/699/72 706/694/72 845/694/72 858/699/72
f 775/690/73 776/700/73 915/700/73 914/690/73
f 732/701/72 719/699/72 858/699/72 871/701/72
f 645/702/74 644/695/74 783/695/74 784/702/74
f 745/703/72 732/701/72 871/701/72 884/703/72
f 777/704/73 778/705/73 917/705/73 916/704/73
f 733/706/73 734/707/73 873/707/73 872/706/73
f 646/708/74 645/702/74 784/702/74 785/708/74
f 778/705/73 779/709/73 918/709/73 917/705/73
f 746/698/71 757/710/71 896/710/71 885/698/71
f 647/711/74 646/708/74 785/708/74 786/711/74
f 779/709/73 780/712/73 919/712/73 918/709/73
f 756/713/72 744/714/72 883/714/72 895/713/72
f 649/715/74 648/716/74 787/716/74 788/715/74
f 780/712/73 781/717/73 920/717/73 919/712/73
f 648/718/71 658/719/71 797/719/71 787/718/71
f 758/720/71 768/721/71 907/721/71 897/720/71
f 650/722/74 649/715/74 788/715/74 789/722/74
f 781/723/72 774/724/72 913/724/72 920/723/72
f 654/725/72 647/726/72 786/726/72 793/725/72
f 766/727/73 767/728/73 906/728/73 905/727/73
f 767/729/72 756/713/72 895/713/72 906/729/72
f 680/730/74 679/731/74 818/731/74 819/730/74
f 768/732/73 769/733/73 908/733/73 907/732/73
f 667/734/74 666/735/74 805/735/74 806/734/74
f 769/733/73 770/736/73 909/736/73 908/733/73
f 669/737/74 668/738/74 807/738/74 808/737/74
f 657/739/71 669/740/71 808/740/71 796/739/71
f 770/741/71 777/742/71 916/742/71 909/741/71
f 643/743/71 650/744/71 789/744/71 782/743/71
f 655/745/74 654/746/74 793/746/74 794/745/74
f 666/747/72 656/748/72 795/748/72 805/747/72
f 757/749/73 758/750/73 897/750/73 896/749/73
f 776/751/72 766/752/72 905/752/72 915/751/72
f 656/753/74 655/745/74 794/745/74 795/753/74
f 668/754/71 681/755/71 820/755/71 807/754/71
f 681/755/71 694/682/71 833/682/71 820/755/71
f 658/756/74 657/757/74 796/757/74 797/756/74
