mtllib 毒马铃薯.mtl
vn 0 0 1
vn 0 0 -1
vn 0 1 0
vn 0 -1 0
vn 1 0 0
vn -1 0 0
o mesh_mask_1
usemtl mat_毒马铃薯
v 2 11 1.0
v 3 11 1.0
v 3 12 1.0
v 2 12 1.0
vt 0.125 0.6875
vt 0.1875 0.6875
vt 0.1875 0.75
vt 0.125 0.75
f 1/1/1 2/2/1 3/3/1 4/4/1
v 3 11 0.0
v 2 11 0.0
v 2 12 0.0
v 3 12 0.0
vt 0.1875 0.6875
vt 0.125 0.6875
vt 0.125 0.75
vt 0.1875 0.75
f 5/5/2 6/6/2 7/7/2 8/8/2
v 2 12 1.0
v 3 12 1.0
v 3 12 0.0
v 2 12 0.0
vt 0.125 0.6875
vt 0.1875 0.6875
vt 0.1875 0.75
vt 0.125 0.75
f 9/9/3 10/10/3 11/11/3 12/12/3
v 2 11 0.0
v 2 11 1.0
v 2 12 1.0
v 2 12 0.0
vt 0.125 0.6875
vt 0.1875 0.6875
vt 0.1875 0.75
vt 0.125 0.75
f 13/13/6 14/14/6 15/15/6 16/16/6
v 3 11 1.0
v 4 11 1.0
v 4 12 1.0
v 3 12 1.0
vt 0.1875 0.6875
vt 0.25 0.6875
vt 0.25 0.75
vt 0.1875 0.75
f 17/17/1 18/18/1 19/19/1 20/20/1
v 4 11 0.0
v 3 11 0.0
v 3 12 0.0
v 4 12 0.0
vt 0.25 0.6875
vt 0.1875 0.6875
vt 0.1875 0.75
vt 0.25 0.75
f 21/21/2 22/22/2 23/23/2 24/24/2
v 3 12 1.0
v 4 12 1.0
v 4 12 0.0
v 3 12 0.0
vt 0.1875 0.6875
vt 0.25 0.6875
vt 0.25 0.75
vt 0.1875 0.75
f 25/25/3 26/26/3 27/27/3 28/28/3
v 4 11 1.0
v 4 11 0.0
v 4 12 0.0
v 4 12 1.0
vt 0.1875 0.6875
vt 0.25 0.6875
vt 0.25 0.75
vt 0.1875 0.75
f 29/29/5 30/30/5 31/31/5 32/32/5
v 1 10 1.0
v 2 10 1.0
v 2 11 1.0
v 1 11 1.0
vt 0.0625 0.625
vt 0.125 0.625
vt 0.125 0.6875
vt 0.0625 0.6875
f 33/33/1 34/34/1 35/35/1 36/36/1
v 2 10 0.0
v 1 10 0.0
v 1 11 0.0
v 2 11 0.0
vt 0.125 0.625
vt 0.0625 0.625
vt 0.0625 0.6875
vt 0.125 0.6875
f 37/37/2 38/38/2 39/39/2 40/40/2
v 1 11 1.0
v 2 11 1.0
v 2 11 0.0
v 1 11 0.0
vt 0.0625 0.625
vt 0.125 0.625
vt 0.125 0.6875
vt 0.0625 0.6875
f 41/41/3 42/42/3 43/43/3 44/44/3
v 1 10 0.0
v 1 10 1.0
v 1 11 1.0
v 1 11 0.0
vt 0.0625 0.625
vt 0.125 0.625
vt 0.125 0.6875
vt 0.0625 0.6875
f 45/45/6 46/46/6 47/47/6 48/48/6
v 2 10 1.0
v 3 10 1.0
v 3 11 1.0
v 2 11 1.0
vt 0.125 0.625
vt 0.1875 0.625
vt 0.1875 0.6875
vt 0.125 0.6875
f 49/49/1 50/50/1 51/51/1 52/52/1
v 3 10 0.0
v 2 10 0.0
v 2 11 0.0
v 3 11 0.0
vt 0.1875 0.625
vt 0.125 0.625
vt 0.125 0.6875
vt 0.1875 0.6875
f 53/53/2 54/54/2 55/55/2 56/56/2
v 3 10 1.0
v 4 10 1.0
v 4 11 1.0
v 3 11 1.0
vt 0.1875 0.625
vt 0.25 0.625
vt 0.25 0.6875
vt 0.1875 0.6875
f 57/57/1 58/58/1 59/59/1 60/60/1
v 4 10 0.0
v 3 10 0.0
v 3 11 0.0
v 4 11 0.0
vt 0.25 0.625
vt 0.1875 0.625
vt 0.1875 0.6875
vt 0.25 0.6875
f 61/61/2 62/62/2 63/63/2 64/64/2
v 4 10 1.0
v 5 10 1.0
v 5 11 1.0
v 4 11 1.0
vt 0.25 0.625
vt 0.3125 0.625
vt 0.3125 0.6875
vt 0.25 0.6875
f 65/65/1 66/66/1 67/67/1 68/68/1
v 5 10 0.0
v 4 10 0.0
v 4 11 0.0
v 5 11 0.0
vt 0.3125 0.625
vt 0.25 0.625
vt 0.25 0.6875
vt 0.3125 0.6875
f 69/69/2 70/70/2 71/71/2 72/72/2
v 4 11 1.0
v 5 11 1.0
v 5 11 0.0
v 4 11 0.0
vt 0.25 0.625
vt 0.3125 0.625
vt 0.3125 0.6875
vt 0.25 0.6875
f 73/73/3 74/74/3 75/75/3 76/76/3
v 5 10 1.0
v 6 10 1.0
v 6 11 1.0
v 5 11 1.0
vt 0.3125 0.625
vt 0.375 0.625
vt 0.375 0.6875
vt 0.3125 0.6875
f 77/77/1 78/78/1 79/79/1 80/80/1
v 6 10 0.0
v 5 10 0.0
v 5 11 0.0
v 6 11 0.0
vt 0.375 0.625
vt 0.3125 0.625
vt 0.3125 0.6875
vt 0.375 0.6875
f 81/81/2 82/82/2 83/83/2 84/84/2
v 5 11 1.0
v 6 11 1.0
v 6 11 0.0
v 5 11 0.0
vt 0.3125 0.625
vt 0.375 0.625
vt 0.375 0.6875
vt 0.3125 0.6875
f 85/85/3 86/86/3 87/87/3 88/88/3
v 5 10 0.0
v 6 10 0.0
v 6 10 1.0
v 5 10 1.0
vt 0.3125 0.625
vt 0.375 0.625
vt 0.375 0.6875
vt 0.3125 0.6875
f 89/89/4 90/90/4 91/91/4 92/92/4
v 6 10 1.0
v 7 10 1.0
v 7 11 1.0
v 6 11 1.0
vt 0.375 0.625
vt 0.4375 0.625
vt 0.4375 0.6875
vt 0.375 0.6875
f 93/93/1 94/94/1 95/95/1 96/96/1
v 7 10 0.0
v 6 10 0.0
v 6 11 0.0
v 7 11 0.0
vt 0.4375 0.625
vt 0.375 0.625
vt 0.375 0.6875
vt 0.4375 0.6875
f 97/97/2 98/98/2 99/99/2 100/100/2
v 6 11 1.0
v 7 11 1.0
v 7 11 0.0
v 6 11 0.0
vt 0.375 0.625
vt 0.4375 0.625
vt 0.4375 0.6875
vt 0.375 0.6875
f 101/101/3 102/102/3 103/103/3 104/104/3
v 6 10 0.0
v 7 10 0.0
v 7 10 1.0
v 6 10 1.0
vt 0.375 0.625
vt 0.4375 0.625
vt 0.4375 0.6875
vt 0.375 0.6875
f 105/105/4 106/106/4 107/107/4 108/108/4
v 7 10 1.0
v 7 10 0.0
v 7 11 0.0
v 7 11 1.0
vt 0.375 0.625
vt 0.4375 0.625
vt 0.4375 0.6875
vt 0.375 0.6875
f 109/109/5 110/110/5 111/111/5 112/112/5
v 1 9 1.0
v 2 9 1.0
v 2 10 1.0
v 1 10 1.0
vt 0.0625 0.5625
vt 0.125 0.5625
vt 0.125 0.625
vt 0.0625 0.625
f 113/113/1 114/114/1 115/115/1 116/116/1
v 2 9 0.0
v 1 9 0.0
v 1 10 0.0
v 2 10 0.0
vt 0.125 0.5625
vt 0.0625 0.5625
vt 0.0625 0.625
vt 0.125 0.625
f 117/117/2 118/118/2 119/119/2 120/120/2
v 1 9 0.0
v 2 9 0.0
v 2 9 1.0
v 1 9 1.0
vt 0.0625 0.5625
vt 0.125 0.5625
vt 0.125 0.625
vt 0.0625 0.625
f 121/121/4 122/122/4 123/123/4 124/124/4
v 1 9 0.0
v 1 9 1.0
v 1 10 1.0
v 1 10 0.0
vt 0.0625 0.5625
vt 0.125 0.5625
vt 0.125 0.625
vt 0.0625 0.625
f 125/125/6 126/126/6 127/127/6 128/128/6
v 2 9 1.0
v 3 9 1.0
v 3 10 1.0
v 2 10 1.0
vt 0.125 0.5625
vt 0.1875 0.5625
vt 0.1875 0.625
vt 0.125 0.625
f 129/129/1 130/130/1 131/131/1 132/132/1
v 3 9 0.0
v 2 9 0.0
v 2 10 0.0
v 3 10 0.0
vt 0.1875 0.5625
vt 0.125 0.5625
vt 0.125 0.625
vt 0.1875 0.625
f 133/133/2 134/134/2 135/135/2 136/136/2
v 3 9 1.0
v 4 9 1.0
v 4 10 1.0
v 3 10 1.0
vt 0.1875 0.5625
vt 0.25 0.5625
vt 0.25 0.625
vt 0.1875 0.625
f 137/137/1 138/138/1 139/139/1 140/140/1
v 4 9 0.0
v 3 9 0.0
v 3 10 0.0
v 4 10 0.0
vt 0.25 0.5625
vt 0.1875 0.5625
vt 0.1875 0.625
vt 0.25 0.625
f 141/141/2 142/142/2 143/143/2 144/144/2
v 3 9 0.0
v 4 9 0.0
v 4 9 1.0
v 3 9 1.0
vt 0.1875 0.5625
vt 0.25 0.5625
vt 0.25 0.625
vt 0.1875 0.625
f 145/145/4 146/146/4 147/147/4 148/148/4
v 4 9 1.0
v 5 9 1.0
v 5 10 1.0
v 4 10 1.0
vt 0.25 0.5625
vt 0.3125 0.5625
vt 0.3125 0.625
vt 0.25 0.625
f 149/149/1 150/150/1 151/151/1 152/152/1
v 5 9 0.0
v 4 9 0.0
v 4 10 0.0
v 5 10 0.0
vt 0.3125 0.5625
vt 0.25 0.5625
vt 0.25 0.625
vt 0.3125 0.625
f 153/153/2 154/154/2 155/155/2 156/156/2
v 4 9 0.0
v 5 9 0.0
v 5 9 1.0
v 4 9 1.0
vt 0.25 0.5625
vt 0.3125 0.5625
vt 0.3125 0.625
vt 0.25 0.625
f 157/157/4 158/158/4 159/159/4 160/160/4
v 5 9 1.0
v 5 9 0.0
v 5 10 0.0
v 5 10 1.0
vt 0.25 0.5625
vt 0.3125 0.5625
vt 0.3125 0.625
vt 0.25 0.625
f 161/161/5 162/162/5 163/163/5 164/164/5
v 2 8 1.0
v 3 8 1.0
v 3 9 1.0
v 2 9 1.0
vt 0.125 0.5
vt 0.1875 0.5
vt 0.1875 0.5625
vt 0.125 0.5625
f 165/165/1 166/166/1 167/167/1 168/168/1
v 3 8 0.0
v 2 8 0.0
v 2 9 0.0
v 3 9 0.0
vt 0.1875 0.5
vt 0.125 0.5
vt 0.125 0.5625
vt 0.1875 0.5625
f 169/169/2 170/170/2 171/171/2 172/172/2
v 2 8 0.0
v 3 8 0.0
v 3 8 1.0
v 2 8 1.0
vt 0.125 0.5
vt 0.1875 0.5
vt 0.1875 0.5625
vt 0.125 0.5625
f 173/173/4 174/174/4 175/175/4 176/176/4
v 3 8 1.0
v 3 8 0.0
v 3 9 0.0
v 3 9 1.0
vt 0.125 0.5
vt 0.1875 0.5
vt 0.1875 0.5625
vt 0.125 0.5625
f 177/177/5 178/178/5 179/179/5 180/180/5
v 2 8 0.0
v 2 8 1.0
v 2 9 1.0
v 2 9 0.0
vt 0.125 0.5
vt 0.1875 0.5
vt 0.1875 0.5625
vt 0.125 0.5625
f 181/181/6 182/182/6 183/183/6 184/184/6
o mesh_mask_2
usemtl mat_毒马铃薯
v 12 13 1.0
v 13 13 1.0
v 13 14 1.0
v 12 14 1.0
vt 0.75 0.8125
vt 0.8125 0.8125
vt 0.8125 0.875
vt 0.75 0.875
f 185/185/1 186/186/1 187/187/1 188/188/1
v 13 13 0.0
v 12 13 0.0
v 12 14 0.0
v 13 14 0.0
vt 0.8125 0.8125
vt 0.75 0.8125
vt 0.75 0.875
vt 0.8125 0.875
f 189/189/2 190/190/2 191/191/2 192/192/2
v 12 14 1.0
v 13 14 1.0
v 13 14 0.0
v 12 14 0.0
vt 0.75 0.8125
vt 0.8125 0.8125
vt 0.8125 0.875
vt 0.75 0.875
f 193/193/3 194/194/3 195/195/3 196/196/3
v 12 13 0.0
v 12 13 1.0
v 12 14 1.0
v 12 14 0.0
vt 0.75 0.8125
vt 0.8125 0.8125
vt 0.8125 0.875
vt 0.75 0.875
f 197/197/6 198/198/6 199/199/6 200/200/6
v 13 13 1.0
v 14 13 1.0
v 14 14 1.0
v 13 14 1.0
vt 0.8125 0.8125
vt 0.875 0.8125
vt 0.875 0.875
vt 0.8125 0.875
f 201/201/1 202/202/1 203/203/1 204/204/1
v 14 13 0.0
v 13 13 0.0
v 13 14 0.0
v 14 14 0.0
vt 0.875 0.8125
vt 0.8125 0.8125
vt 0.8125 0.875
vt 0.875 0.875
f 205/205/2 206/206/2 207/207/2 208/208/2
v 13 14 1.0
v 14 14 1.0
v 14 14 0.0
v 13 14 0.0
vt 0.8125 0.8125
vt 0.875 0.8125
vt 0.875 0.875
vt 0.8125 0.875
f 209/209/3 210/210/3 211/211/3 212/212/3
v 14 13 1.0
v 14 13 0.0
v 14 14 0.0
v 14 14 1.0
vt 0.8125 0.8125
vt 0.875 0.8125
vt 0.875 0.875
vt 0.8125 0.875
f 213/213/5 214/214/5 215/215/5 216/216/5
v 11 12 1.0
v 12 12 1.0
v 12 13 1.0
v 11 13 1.0
vt 0.6875 0.75
vt 0.75 0.75
vt 0.75 0.8125
vt 0.6875 0.8125
f 217/217/1 218/218/1 219/219/1 220/220/1
v 12 12 0.0
v 11 12 0.0
v 11 13 0.0
v 12 13 0.0
vt 0.75 0.75
vt 0.6875 0.75
vt 0.6875 0.8125
vt 0.75 0.8125
f 221/221/2 222/222/2 223/223/2 224/224/2
v 11 13 1.0
v 12 13 1.0
v 12 13 0.0
v 11 13 0.0
vt 0.6875 0.75
vt 0.75 0.75
vt 0.75 0.8125
vt 0.6875 0.8125
f 225/225/3 226/226/3 227/227/3 228/228/3
v 11 12 0.0
v 11 12 1.0
v 11 13 1.0
v 11 13 0.0
vt 0.6875 0.75
vt 0.75 0.75
vt 0.75 0.8125
vt 0.6875 0.8125
f 229/229/6 230/230/6 231/231/6 232/232/6
v 12 12 1.0
v 13 12 1.0
v 13 13 1.0
v 12 13 1.0
vt 0.75 0.75
vt 0.8125 0.75
vt 0.8125 0.8125
vt 0.75 0.8125
f 233/233/1 234/234/1 235/235/1 236/236/1
v 13 12 0.0
v 12 12 0.0
v 12 13 0.0
v 13 13 0.0
vt 0.8125 0.75
vt 0.75 0.75
vt 0.75 0.8125
vt 0.8125 0.8125
f 237/237/2 238/238/2 239/239/2 240/240/2
v 13 12 1.0
v 14 12 1.0
v 14 13 1.0
v 13 13 1.0
vt 0.8125 0.75
vt 0.875 0.75
vt 0.875 0.8125
vt 0.8125 0.8125
f 241/241/1 242/242/1 243/243/1 244/244/1
v 14 12 0.0
v 13 12 0.0
v 13 13 0.0
v 14 13 0.0
vt 0.875 0.75
vt 0.8125 0.75
vt 0.8125 0.8125
vt 0.875 0.8125
f 245/245/2 246/246/2 247/247/2 248/248/2
v 14 12 1.0
v 14 12 0.0
v 14 13 0.0
v 14 13 1.0
vt 0.8125 0.75
vt 0.875 0.75
vt 0.875 0.8125
vt 0.8125 0.8125
f 249/249/5 250/250/5 251/251/5 252/252/5
v 8 11 1.0
v 9 11 1.0
v 9 12 1.0
v 8 12 1.0
vt 0.5 0.6875
vt 0.5625 0.6875
vt 0.5625 0.75
vt 0.5 0.75
f 253/253/1 254/254/1 255/255/1 256/256/1
v 9 11 0.0
v 8 11 0.0
v 8 12 0.0
v 9 12 0.0
vt 0.5625 0.6875
vt 0.5 0.6875
vt 0.5 0.75
vt 0.5625 0.75
f 257/257/2 258/258/2 259/259/2 260/260/2
v 8 12 1.0
v 9 12 1.0
v 9 12 0.0
v 8 12 0.0
vt 0.5 0.6875
vt 0.5625 0.6875
vt 0.5625 0.75
vt 0.5 0.75
f 261/261/3 262/262/3 263/263/3 264/264/3
v 8 11 0.0
v 8 11 1.0
v 8 12 1.0
v 8 12 0.0
vt 0.5 0.6875
vt 0.5625 0.6875
vt 0.5625 0.75
vt 0.5 0.75
f 265/265/6 266/266/6 267/267/6 268/268/6
v 9 11 1.0
v 10 11 1.0
v 10 12 1.0
v 9 12 1.0
vt 0.5625 0.6875
vt 0.625 0.6875
vt 0.625 0.75
vt 0.5625 0.75
f 269/269/1 270/270/1 271/271/1 272/272/1
v 10 11 0.0
v 9 11 0.0
v 9 12 0.0
v 10 12 0.0
vt 0.625 0.6875
vt 0.5625 0.6875
vt 0.5625 0.75
vt 0.625 0.75
f 273/273/2 274/274/2 275/275/2 276/276/2
v 9 12 1.0
v 10 12 1.0
v 10 12 0.0
v 9 12 0.0
vt 0.5625 0.6875
vt 0.625 0.6875
vt 0.625 0.75
vt 0.5625 0.75
f 277/277/3 278/278/3 279/279/3 280/280/3
v 10 11 1.0
v 11 11 1.0
v 11 12 1.0
v 10 12 1.0
vt 0.625 0.6875
vt 0.6875 0.6875
vt 0.6875 0.75
vt 0.625 0.75
f 281/281/1 282/282/1 283/283/1 284/284/1
v 11 11 0.0
v 10 11 0.0
v 10 12 0.0
v 11 12 0.0
vt 0.6875 0.6875
vt 0.625 0.6875
vt 0.625 0.75
vt 0.6875 0.75
f 285/285/2 286/286/2 287/287/2 288/288/2
v 10 12 1.0
v 11 12 1.0
v 11 12 0.0
v 10 12 0.0
vt 0.625 0.6875
vt 0.6875 0.6875
vt 0.6875 0.75
vt 0.625 0.75
f 289/289/3 290/290/3 291/291/3 292/292/3
v 11 11 1.0
v 12 11 1.0
v 12 12 1.0
v 11 12 1.0
vt 0.6875 0.6875
vt 0.75 0.6875
vt 0.75 0.75
vt 0.6875 0.75
f 293/293/1 294/294/1 295/295/1 296/296/1
v 12 11 0.0
v 11 11 0.0
v 11 12 0.0
v 12 12 0.0
vt 0.75 0.6875
vt 0.6875 0.6875
vt 0.6875 0.75
vt 0.75 0.75
f 297/297/2 298/298/2 299/299/2 300/300/2
v 12 11 1.0
v 13 11 1.0
v 13 12 1.0
v 12 12 1.0
vt 0.75 0.6875
vt 0.8125 0.6875
vt 0.8125 0.75
vt 0.75 0.75
f 301/301/1 302/302/1 303/303/1 304/304/1
v 13 11 0.0
v 12 11 0.0
v 12 12 0.0
v 13 12 0.0
vt 0.8125 0.6875
vt 0.75 0.6875
vt 0.75 0.75
vt 0.8125 0.75
f 305/305/2 306/306/2 307/307/2 308/308/2
v 13 11 1.0
v 14 11 1.0
v 14 12 1.0
v 13 12 1.0
vt 0.8125 0.6875
vt 0.875 0.6875
vt 0.875 0.75
vt 0.8125 0.75
f 309/309/1 310/310/1 311/311/1 312/312/1
v 14 11 0.0
v 13 11 0.0
v 13 12 0.0
v 14 12 0.0
vt 0.875 0.6875
vt 0.8125 0.6875
vt 0.8125 0.75
vt 0.875 0.75
f 313/313/2 314/314/2 315/315/2 316/316/2
v 13 11 0.0
v 14 11 0.0
v 14 11 1.0
v 13 11 1.0
vt 0.8125 0.6875
vt 0.875 0.6875
vt 0.875 0.75
vt 0.8125 0.75
f 317/317/4 318/318/4 319/319/4 320/320/4
v 14 11 1.0
v 14 11 0.0
v 14 12 0.0
v 14 12 1.0
vt 0.8125 0.6875
vt 0.875 0.6875
vt 0.875 0.75
vt 0.8125 0.75
f 321/321/5 322/322/5 323/323/5 324/324/5
v 8 10 1.0
v 9 10 1.0
v 9 11 1.0
v 8 11 1.0
vt 0.5 0.625
vt 0.5625 0.625
vt 0.5625 0.6875
vt 0.5 0.6875
f 325/325/1 326/326/1 327/327/1 328/328/1
v 9 10 0.0
v 8 10 0.0
v 8 11 0.0
v 9 11 0.0
vt 0.5625 0.625
vt 0.5 0.625
vt 0.5 0.6875
vt 0.5625 0.6875
f 329/329/2 330/330/2 331/331/2 332/332/2
v 8 10 0.0
v 9 10 0.0
v 9 10 1.0
v 8 10 1.0
vt 0.5 0.625
vt 0.5625 0.625
vt 0.5625 0.6875
vt 0.5 0.6875
f 333/333/4 334/334/4 335/335/4 336/336/4
v 8 10 0.0
v 8 10 1.0
v 8 11 1.0
v 8 11 0.0
vt 0.5 0.625
vt 0.5625 0.625
vt 0.5625 0.6875
vt 0.5 0.6875
f 337/337/6 338/338/6 339/339/6 340/340/6
v 9 10 1.0
v 10 10 1.0
v 10 11 1.0
v 9 11 1.0
vt 0.5625 0.625
vt 0.625 0.625
vt 0.625 0.6875
vt 0.5625 0.6875
f 341/341/1 342/342/1 343/343/1 344/344/1
v 10 10 0.0
v 9 10 0.0
v 9 11 0.0
v 10 11 0.0
vt 0.625 0.625
vt 0.5625 0.625
vt 0.5625 0.6875
vt 0.625 0.6875
f 345/345/2 346/346/2 347/347/2 348/348/2
v 10 10 1.0
v 11 10 1.0
v 11 11 1.0
v 10 11 1.0
vt 0.625 0.625
vt 0.6875 0.625
vt 0.6875 0.6875
vt 0.625 0.6875
f 349/349/1 350/350/1 351/351/1 352/352/1
v 11 10 0.0
v 10 10 0.0
v 10 11 0.0
v 11 11 0.0
vt 0.6875 0.625
vt 0.625 0.625
vt 0.625 0.6875
vt 0.6875 0.6875
f 353/353/2 354/354/2 355/355/2 356/356/2
v 11 10 1.0
v 12 10 1.0
v 12 11 1.0
v 11 11 1.0
vt 0.6875 0.625
vt 0.75 0.625
vt 0.75 0.6875
vt 0.6875 0.6875
f 357/357/1 358/358/1 359/359/1 360/360/1
v 12 10 0.0
v 11 10 0.0
v 11 11 0.0
v 12 11 0.0
vt 0.75 0.625
vt 0.6875 0.625
vt 0.6875 0.6875
vt 0.75 0.6875
f 361/361/2 362/362/2 363/363/2 364/364/2
v 12 10 1.0
v 13 10 1.0
v 13 11 1.0
v 12 11 1.0
vt 0.75 0.625
vt 0.8125 0.625
vt 0.8125 0.6875
vt 0.75 0.6875
f 365/365/1 366/366/1 367/367/1 368/368/1
v 13 10 0.0
v 12 10 0.0
v 12 11 0.0
v 13 11 0.0
vt 0.8125 0.625
vt 0.75 0.625
vt 0.75 0.6875
vt 0.8125 0.6875
f 369/369/2 370/370/2 371/371/2 372/372/2
v 13 10 1.0
v 13 10 0.0
v 13 11 0.0
v 13 11 1.0
vt 0.75 0.625
vt 0.8125 0.625
vt 0.8125 0.6875
vt 0.75 0.6875
f 373/373/5 374/374/5 375/375/5 376/376/5
v 9 9 1.0
v 10 9 1.0
v 10 10 1.0
v 9 10 1.0
vt 0.5625 0.5625
vt 0.625 0.5625
vt 0.625 0.625
vt 0.5625 0.625
f 377/377/1 378/378/1 379/379/1 380/380/1
v 10 9 0.0
v 9 9 0.0
v 9 10 0.0
v 10 10 0.0
vt 0.625 0.5625
vt 0.5625 0.5625
vt 0.5625 0.625
vt 0.625 0.625
f 381/381/2 382/382/2 383/383/2 384/384/2
v 9 9 0.0
v 10 9 0.0
v 10 9 1.0
v 9 9 1.0
vt 0.5625 0.5625
vt 0.625 0.5625
vt 0.625 0.625
vt 0.5625 0.625
f 385/385/4 386/386/4 387/387/4 388/388/4
v 9 9 0.0
v 9 9 1.0
v 9 10 1.0
v 9 10 0.0
vt 0.5625 0.5625
vt 0.625 0.5625
vt 0.625 0.625
vt 0.5625 0.625
f 389/389/6 390/390/6 391/391/6 392/392/6
v 10 9 1.0
v 11 9 1.0
v 11 10 1.0
v 10 10 1.0
vt 0.625 0.5625
vt 0.6875 0.5625
vt 0.6875 0.625
vt 0.625 0.625
f 393/393/1 394/394/1 395/395/1 396/396/1
v 11 9 0.0
v 10 9 0.0
v 10 10 0.0
v 11 10 0.0
vt 0.6875 0.5625
vt 0.625 0.5625
vt 0.625 0.625
vt 0.6875 0.625
f 397/397/2 398/398/2 399/399/2 400/400/2
v 11 9 1.0
v 12 9 1.0
v 12 10 1.0
v 11 10 1.0
vt 0.6875 0.5625
vt 0.75 0.5625
vt 0.75 0.625
vt 0.6875 0.625
f 401/401/1 402/402/1 403/403/1 404/404/1
v 12 9 0.0
v 11 9 0.0
v 11 10 0.0
v 12 10 0.0
vt 0.75 0.5625
vt 0.6875 0.5625
vt 0.6875 0.625
vt 0.75 0.625
f 405/405/2 406/406/2 407/407/2 408/408/2
v 12 9 1.0
v 13 9 1.0
v 13 10 1.0
v 12 10 1.0
vt 0.75 0.5625
vt 0.8125 0.5625
vt 0.8125 0.625
vt 0.75 0.625
f 409/409/1 410/410/1 411/411/1 412/412/1
v 13 9 0.0
v 12 9 0.0
v 12 10 0.0
v 13 10 0.0
vt 0.8125 0.5625
vt 0.75 0.5625
vt 0.75 0.625
vt 0.8125 0.625
f 413/413/2 414/414/2 415/415/2 416/416/2
v 13 9 1.0
v 14 9 1.0
v 14 10 1.0
v 13 10 1.0
vt 0.8125 0.5625
vt 0.875 0.5625
vt 0.875 0.625
vt 0.8125 0.625
f 417/417/1 418/418/1 419/419/1 420/420/1
v 14 9 0.0
v 13 9 0.0
v 13 10 0.0
v 14 10 0.0
vt 0.875 0.5625
vt 0.8125 0.5625
vt 0.8125 0.625
vt 0.875 0.625
f 421/421/2 422/422/2 423/423/2 424/424/2
v 13 10 1.0
v 14 10 1.0
v 14 10 0.0
v 13 10 0.0
vt 0.8125 0.5625
vt 0.875 0.5625
vt 0.875 0.625
vt 0.8125 0.625
f 425/425/3 426/426/3 427/427/3 428/428/3
v 14 9 1.0
v 14 9 0.0
v 14 10 0.0
v 14 10 1.0
vt 0.8125 0.5625
vt 0.875 0.5625
vt 0.875 0.625
vt 0.8125 0.625
f 429/429/5 430/430/5 431/431/5 432/432/5
v 10 8 1.0
v 11 8 1.0
v 11 9 1.0
v 10 9 1.0
vt 0.625 0.5
vt 0.6875 0.5
vt 0.6875 0.5625
vt 0.625 0.5625
f 433/433/1 434/434/1 435/435/1 436/436/1
v 11 8 0.0
v 10 8 0.0
v 10 9 0.0
v 11 9 0.0
vt 0.6875 0.5
vt 0.625 0.5
vt 0.625 0.5625
vt 0.6875 0.5625
f 437/437/2 438/438/2 439/439/2 440/440/2
v 10 8 0.0
v 11 8 0.0
v 11 8 1.0
v 10 8 1.0
vt 0.625 0.5
vt 0.6875 0.5
vt 0.6875 0.5625
vt 0.625 0.5625
f 441/441/4 442/442/4 443/443/4 444/444/4
v 10 8 0.0
v 10 8 1.0
v 10 9 1.0
v 10 9 0.0
vt 0.625 0.5
vt 0.6875 0.5
vt 0.6875 0.5625
vt 0.625 0.5625
f 445/445/6 446/446/6 447/447/6 448/448/6
v 11 8 1.0
v 12 8 1.0
v 12 9 1.0
v 11 9 1.0
vt 0.6875 0.5
vt 0.75 0.5
vt 0.75 0.5625
vt 0.6875 0.5625
f 449/449/1 450/450/1 451/451/1 452/452/1
v 12 8 0.0
v 11 8 0.0
v 11 9 0.0
v 12 9 0.0
vt 0.75 0.5
vt 0.6875 0.5
vt 0.6875 0.5625
vt 0.75 0.5625
f 453/453/2 454/454/2 455/455/2 456/456/2
v 12 8 1.0
v 13 8 1.0
v 13 9 1.0
v 12 9 1.0
vt 0.75 0.5
vt 0.8125 0.5
vt 0.8125 0.5625
vt 0.75 0.5625
f 457/457/1 458/458/1 459/459/1 460/460/1
v 13 8 0.0
v 12 8 0.0
v 12 9 0.0
v 13 9 0.0
vt 0.8125 0.5
vt 0.75 0.5
vt 0.75 0.5625
vt 0.8125 0.5625
f 461/461/2 462/462/2 463/463/2 464/464/2
v 13 8 1.0
v 14 8 1.0
v 14 9 1.0
v 13 9 1.0
vt 0.8125 0.5
vt 0.875 0.5
vt 0.875 0.5625
vt 0.8125 0.5625
f 465/465/1 466/466/1 467/467/1 468/468/1
v 14 8 0.0
v 13 8 0.0
v 13 9 0.0
v 14 9 0.0
vt 0.875 0.5
vt 0.8125 0.5
vt 0.8125 0.5625
vt 0.875 0.5625
f 469/469/2 470/470/2 471/471/2 472/472/2
v 14 8 1.0
v 14 8 0.0
v 14 9 0.0
v 14 9 1.0
vt 0.8125 0.5
vt 0.875 0.5
vt 0.875 0.5625
vt 0.8125 0.5625
f 473/473/5 474/474/5 475/475/5 476/476/5
v 11 7 1.0
v 12 7 1.0
v 12 8 1.0
v 11 8 1.0
vt 0.6875 0.4375
vt 0.75 0.4375
vt 0.75 0.5
vt 0.6875 0.5
f 477/477/1 478/478/1 479/479/1 480/480/1
v 12 7 0.0
v 11 7 0.0
v 11 8 0.0
v 12 8 0.0
vt 0.75 0.4375
vt 0.6875 0.4375
vt 0.6875 0.5
vt 0.75 0.5
f 481/481/2 482/482/2 483/483/2 484/484/2
v 11 7 0.0
v 12 7 0.0
v 12 7 1.0
v 11 7 1.0
vt 0.6875 0.4375
vt 0.75 0.4375
vt 0.75 0.5
vt 0.6875 0.5
f 485/485/4 486/486/4 487/487/4 488/488/4
v 11 7 0.0
v 11 7 1.0
v 11 8 1.0
v 11 8 0.0
vt 0.6875 0.4375
vt 0.75 0.4375
vt 0.75 0.5
vt 0.6875 0.5
f 489/489/6 490/490/6 491/491/6 492/492/6
v 12 7 1.0
v 13 7 1.0
v 13 8 1.0
v 12 8 1.0
vt 0.75 0.4375
vt 0.8125 0.4375
vt 0.8125 0.5
vt 0.75 0.5
f 493/493/1 494/494/1 495/495/1 496/496/1
v 13 7 0.0
v 12 7 0.0
v 12 8 0.0
v 13 8 0.0
vt 0.8125 0.4375
vt 0.75 0.4375
vt 0.75 0.5
vt 0.8125 0.5
f 497/497/2 498/498/2 499/499/2 500/500/2
v 12 7 0.0
v 13 7 0.0
v 13 7 1.0
v 12 7 1.0
vt 0.75 0.4375
vt 0.8125 0.4375
vt 0.8125 0.5
vt 0.75 0.5
f 501/501/4 502/502/4 503/503/4 504/504/4
v 13 7 1.0
v 14 7 1.0
v 14 8 1.0
v 13 8 1.0
vt 0.8125 0.4375
vt 0.875 0.4375
vt 0.875 0.5
vt 0.8125 0.5
f 505/505/1 506/506/1 507/507/1 508/508/1
v 14 7 0.0
v 13 7 0.0
v 13 8 0.0
v 14 8 0.0
vt 0.875 0.4375
vt 0.8125 0.4375
vt 0.8125 0.5
vt 0.875 0.5
f 509/509/2 510/510/2 511/511/2 512/512/2
v 13 7 0.0
v 14 7 0.0
v 14 7 1.0
v 13 7 1.0
vt 0.8125 0.4375
vt 0.875 0.4375
vt 0.875 0.5
vt 0.8125 0.5
f 513/513/4 514/514/4 515/515/4 516/516/4
v 14 7 1.0
v 14 7 0.0
v 14 8 0.0
v 14 8 1.0
vt 0.8125 0.4375
vt 0.875 0.4375
vt 0.875 0.5
vt 0.8125 0.5
f 517/517/5 518/518/5 519/519/5 520/520/5
o mesh_mask_3
usemtl mat_毒马铃薯
v 7 10 1.0
v 8 10 1.0
v 8 11 1.0
v 7 11 1.0
vt 0.4375 0.625
vt 0.5 0.625
vt 0.5 0.6875
vt 0.4375 0.6875
f 521/521/1 522/522/1 523/523/1 524/524/1
v 8 10 0.0
v 7 10 0.0
v 7 11 0.0
v 8 11 0.0
vt 0.5 0.625
vt 0.4375 0.625
vt 0.4375 0.6875
vt 0.5 0.6875
f 525/525/2 526/526/2 527/527/2 528/528/2
v 7 11 1.0
v 8 11 1.0
v 8 11 0.0
v 7 11 0.0
vt 0.4375 0.625
vt 0.5 0.625
vt 0.5 0.6875
vt 0.4375 0.6875
f 529/529/3 530/530/3 531/531/3 532/532/3
v 8 10 1.0
v 8 10 0.0
v 8 11 0.0
v 8 11 1.0
vt 0.4375 0.625
vt 0.5 0.625
vt 0.5 0.6875
vt 0.4375 0.6875
f 533/533/5 534/534/5 535/535/5 536/536/5
v 7 10 0.0
v 7 10 1.0
v 7 11 1.0
v 7 11 0.0
vt 0.4375 0.625
vt 0.5 0.625
vt 0.5 0.6875
vt 0.4375 0.6875
f 537/537/6 538/538/6 539/539/6 540/540/6
v 5 9 1.0
v 6 9 1.0
v 6 10 1.0
v 5 10 1.0
vt 0.3125 0.5625
vt 0.375 0.5625
vt 0.375 0.625
vt 0.3125 0.625
f 541/541/1 542/542/1 543/543/1 544/544/1
v 6 9 0.0
v 5 9 0.0
v 5 10 0.0
v 6 10 0.0
vt 0.375 0.5625
vt 0.3125 0.5625
vt 0.3125 0.625
vt 0.375 0.625
f 545/545/2 546/546/2 547/547/2 548/548/2
v 5 10 1.0
v 6 10 1.0
v 6 10 0.0
v 5 10 0.0
vt 0.3125 0.5625
vt 0.375 0.5625
vt 0.375 0.625
vt 0.3125 0.625
f 549/549/3 550/550/3 551/551/3 552/552/3
v 5 9 0.0
v 5 9 1.0
v 5 10 1.0
v 5 10 0.0
vt 0.3125 0.5625
vt 0.375 0.5625
vt 0.375 0.625
vt 0.3125 0.625
f 553/553/6 554/554/6 555/555/6 556/556/6
v 6 9 1.0
v 7 9 1.0
v 7 10 1.0
v 6 10 1.0
vt 0.375 0.5625
vt 0.4375 0.5625
vt 0.4375 0.625
vt 0.375 0.625
f 557/557/1 558/558/1 559/559/1 560/560/1
v 7 9 0.0
v 6 9 0.0
v 6 10 0.0
v 7 10 0.0
vt 0.4375 0.5625
vt 0.375 0.5625
vt 0.375 0.625
vt 0.4375 0.625
f 561/561/2 562/562/2 563/563/2 564/564/2
v 6 10 1.0
v 7 10 1.0
v 7 10 0.0
v 6 10 0.0
vt 0.375 0.5625
vt 0.4375 0.5625
vt 0.4375 0.625
vt 0.375 0.625
f 565/565/3 566/566/3 567/567/3 568/568/3
v 7 9 1.0
v 8 9 1.0
v 8 10 1.0
v 7 10 1.0
vt 0.4375 0.5625
vt 0.5 0.5625
vt 0.5 0.625
vt 0.4375 0.625
f 569/569/1 570/570/1 571/571/1 572/572/1
v 8 9 0.0
v 7 9 0.0
v 7 10 0.0
v 8 10 0.0
vt 0.5 0.5625
vt 0.4375 0.5625
vt 0.4375 0.625
vt 0.5 0.625
f 573/573/2 574/574/2 575/575/2 576/576/2
v 8 9 1.0
v 9 9 1.0
v 9 10 1.0
v 8 10 1.0
vt 0.5 0.5625
vt 0.5625 0.5625
vt 0.5625 0.625
vt 0.5 0.625
f 577/577/1 578/578/1 579/579/1 580/580/1
v 9 9 0.0
v 8 9 0.0
v 8 10 0.0
v 9 10 0.0
vt 0.5625 0.5625
vt 0.5 0.5625
vt 0.5 0.625
vt 0.5625 0.625
f 581/581/2 582/582/2 583/583/2 584/584/2
v 8 10 1.0
v 9 10 1.0
v 9 10 0.0
v 8 10 0.0
vt 0.5 0.5625
vt 0.5625 0.5625
vt 0.5625 0.625
vt 0.5 0.625
f 585/585/3 586/586/3 587/587/3 588/588/3
v 9 9 1.0
v 9 9 0.0
v 9 10 0.0
v 9 10 1.0
vt 0.5 0.5625
vt 0.5625 0.5625
vt 0.5625 0.625
vt 0.5 0.625
f 589/589/5 590/590/5 591/591/5 592/592/5
v 3 8 1.0
v 4 8 1.0
v 4 9 1.0
v 3 9 1.0
vt 0.1875 0.5
vt 0.25 0.5
vt 0.25 0.5625
vt 0.1875 0.5625
f 593/593/1 594/594/1 595/595/1 596/596/1
v 4 8 0.0
v 3 8 0.0
v 3 9 0.0
v 4 9 0.0
vt 0.25 0.5
vt 0.1875 0.5
vt 0.1875 0.5625
vt 0.25 0.5625
f 597/597/2 598/598/2 599/599/2 600/600/2
v 3 9 1.0
v 4 9 1.0
v 4 9 0.0
v 3 9 0.0
vt 0.1875 0.5
vt 0.25 0.5
vt 0.25 0.5625
vt 0.1875 0.5625
f 601/601/3 602/602/3 603/603/3 604/604/3
v 3 8 0.0
v 3 8 1.0
v 3 9 1.0
v 3 9 0.0
vt 0.1875 0.5
vt 0.25 0.5
vt 0.25 0.5625
vt 0.1875 0.5625
f 605/605/6 606/606/6 607/607/6 608/608/6
v 4 8 1.0
v 5 8 1.0
v 5 9 1.0
v 4 9 1.0
vt 0.25 0.5
vt 0.3125 0.5
vt 0.3125 0.5625
vt 0.25 0.5625
f 609/609/1 610/610/1 611/611/1 612/612/1
v 5 8 0.0
v 4 8 0.0
v 4 9 0.0
v 5 9 0.0
vt 0.3125 0.5
vt 0.25 0.5
vt 0.25 0.5625
vt 0.3125 0.5625
f 613/613/2 614/614/2 615/615/2 616/616/2
v 4 9 1.0
v 5 9 1.0
v 5 9 0.0
v 4 9 0.0
vt 0.25 0.5
vt 0.3125 0.5
vt 0.3125 0.5625
vt 0.25 0.5625
f 617/617/3 618/618/3 619/619/3 620/620/3
v 5 8 1.0
v 6 8 1.0
v 6 9 1.0
v 5 9 1.0
vt 0.3125 0.5
vt 0.375 0.5
vt 0.375 0.5625
vt 0.3125 0.5625
f 621/621/1 622/622/1 623/623/1 624/624/1
v 6 8 0.0
v 5 8 0.0
v 5 9 0.0
v 6 9 0.0
vt 0.375 0.5
vt 0.3125 0.5
vt 0.3125 0.5625
vt 0.375 0.5625
f 625/625/2 626/626/2 627/627/2 628/628/2
v 6 8 1.0
v 7 8 1.0
v 7 9 1.0
v 6 9 1.0
vt 0.375 0.5
vt 0.4375 0.5
vt 0.4375 0.5625
vt 0.375 0.5625
f 629/629/1 630/630/1 631/631/1 632/632/1
v 7 8 0.0
v 6 8 0.0
v 6 9 0.0
v 7 9 0.0
vt 0.4375 0.5
vt 0.375 0.5
vt 0.375 0.5625
vt 0.4375 0.5625
f 633/633/2 634/634/2 635/635/2 636/636/2
v 7 8 1.0
v 8 8 1.0
v 8 9 1.0
v 7 9 1.0
vt 0.4375 0.5
vt 0.5 0.5
vt 0.5 0.5625
vt 0.4375 0.5625
f 637/637/1 638/638/1 639/639/1 640/640/1
v 8 8 0.0
v 7 8 0.0
v 7 9 0.0
v 8 9 0.0
vt 0.5 0.5
vt 0.4375 0.5
vt 0.4375 0.5625
vt 0.5 0.5625
f 641/641/2 642/642/2 643/643/2 644/644/2
v 8 8 1.0
v 9 8 1.0
v 9 9 1.0
v 8 9 1.0
vt 0.5 0.5
vt 0.5625 0.5
vt 0.5625 0.5625
vt 0.5 0.5625
f 645/645/1 646/646/1 647/647/1 648/648/1
v 9 8 0.0
v 8 8 0.0
v 8 9 0.0
v 9 9 0.0
vt 0.5625 0.5
vt 0.5 0.5
vt 0.5 0.5625
vt 0.5625 0.5625
f 649/649/2 650/650/2 651/651/2 652/652/2
v 9 8 1.0
v 10 8 1.0
v 10 9 1.0
v 9 9 1.0
vt 0.5625 0.5
vt 0.625 0.5
vt 0.625 0.5625
vt 0.5625 0.5625
f 653/653/1 654/654/1 655/655/1 656/656/1
v 10 8 0.0
v 9 8 0.0
v 9 9 0.0
v 10 9 0.0
vt 0.625 0.5
vt 0.5625 0.5
vt 0.5625 0.5625
vt 0.625 0.5625
f 657/657/2 658/658/2 659/659/2 660/660/2
v 9 9 1.0
v 10 9 1.0
v 10 9 0.0
v 9 9 0.0
vt 0.5625 0.5
vt 0.625 0.5
vt 0.625 0.5625
vt 0.5625 0.5625
f 661/661/3 662/662/3 663/663/3 664/664/3
v 10 8 1.0
v 10 8 0.0
v 10 9 0.0
v 10 9 1.0
vt 0.5625 0.5
vt 0.625 0.5
vt 0.625 0.5625
vt 0.5625 0.5625
f 665/665/5 666/666/5 667/667/5 668/668/5
v 2 7 1.0
v 3 7 1.0
v 3 8 1.0
v 2 8 1.0
vt 0.125 0.4375
vt 0.1875 0.4375
vt 0.1875 0.5
vt 0.125 0.5
f 669/669/1 670/670/1 671/671/1 672/672/1
v 3 7 0.0
v 2 7 0.0
v 2 8 0.0
v 3 8 0.0
vt 0.1875 0.4375
vt 0.125 0.4375
vt 0.125 0.5
vt 0.1875 0.5
f 673/673/2 674/674/2 675/675/2 676/676/2
v 2 8 1.0
v 3 8 1.0
v 3 8 0.0
v 2 8 0.0
vt 0.125 0.4375
vt 0.1875 0.4375
vt 0.1875 0.5
vt 0.125 0.5
f 677/677/3 678/678/3 679/679/3 680/680/3
v 2 7 0.0
v 2 7 1.0
v 2 8 1.0
v 2 8 0.0
vt 0.125 0.4375
vt 0.1875 0.4375
vt 0.1875 0.5
vt 0.125 0.5
f 681/681/6 682/682/6 683/683/6 684/684/6
v 3 7 1.0
v 4 7 1.0
v 4 8 1.0
v 3 8 1.0
vt 0.1875 0.4375
vt 0.25 0.4375
vt 0.25 0.5
vt 0.1875 0.5
f 685/685/1 686/686/1 687/687/1 688/688/1
v 4 7 0.0
v 3 7 0.0
v 3 8 0.0
v 4 8 0.0
vt 0.25 0.4375
vt 0.1875 0.4375
vt 0.1875 0.5
vt 0.25 0.5
f 689/689/2 690/690/2 691/691/2 692/692/2
v 4 7 1.0
v 5 7 1.0
v 5 8 1.0
v 4 8 1.0
vt 0.25 0.4375
vt 0.3125 0.4375
vt 0.3125 0.5
vt 0.25 0.5
f 693/693/1 694/694/1 695/695/1 696/696/1
v 5 7 0.0
v 4 7 0.0
v 4 8 0.0
v 5 8 0.0
vt 0.3125 0.4375
vt 0.25 0.4375
vt 0.25 0.5
vt 0.3125 0.5
f 697/697/2 698/698/2 699/699/2 700/700/2
v 5 7 1.0
v 6 7 1.0
v 6 8 1.0
v 5 8 1.0
vt 0.3125 0.4375
vt 0.375 0.4375
vt 0.375 0.5
vt 0.3125 0.5
f 701/701/1 702/702/1 703/703/1 704/704/1
v 6 7 0.0
v 5 7 0.0
v 5 8 0.0
v 6 8 0.0
vt 0.375 0.4375
vt 0.3125 0.4375
vt 0.3125 0.5
vt 0.375 0.5
f 705/705/2 706/706/2 707/707/2 708/708/2
v 6 7 1.0
v 7 7 1.0
v 7 8 1.0
v 6 8 1.0
vt 0.375 0.4375
vt 0.4375 0.4375
vt 0.4375 0.5
vt 0.375 0.5
f 709/709/1 710/710/1 711/711/1 712/712/1
v 7 7 0.0
v 6 7 0.0
v 6 8 0.0
v 7 8 0.0
vt 0.4375 0.4375
vt 0.375 0.4375
vt 0.375 0.5
vt 0.4375 0.5
f 713/713/2 714/714/2 715/715/2 716/716/2
v 7 7 1.0
v 8 7 1.0
v 8 8 1.0
v 7 8 1.0
vt 0.4375 0.4375
vt 0.5 0.4375
vt 0.5 0.5
vt 0.4375 0.5
f 717/717/1 718/718/1 719/719/1 720/720/1
v 8 7 0.0
v 7 7 0.0
v 7 8 0.0
v 8 8 0.0
vt 0.5 0.4375
vt 0.4375 0.4375
vt 0.4375 0.5
vt 0.5 0.5
f 721/721/2 722/722/2 723/723/2 724/724/2
v 8 7 1.0
v 9 7 1.0
v 9 8 1.0
v 8 8 1.0
vt 0.5 0.4375
vt 0.5625 0.4375
vt 0.5625 0.5
vt 0.5 0.5
f 725/725/1 726/726/1 727/727/1 728/728/1
v 9 7 0.0
v 8 7 0.0
v 8 8 0.0
v 9 8 0.0
vt 0.5625 0.4375
vt 0.5 0.4375
vt 0.5 0.5
vt 0.5625 0.5
f 729/729/2 730/730/2 731/731/2 732/732/2
v 9 7 1.0
v 10 7 1.0
v 10 8 1.0
v 9 8 1.0
vt 0.5625 0.4375
vt 0.625 0.4375
vt 0.625 0.5
vt 0.5625 0.5
f 733/733/1 734/734/1 735/735/1 736/736/1
v 10 7 0.0
v 9 7 0.0
v 9 8 0.0
v 10 8 0.0
vt 0.625 0.4375
vt 0.5625 0.4375
vt 0.5625 0.5
vt 0.625 0.5
f 737/737/2 738/738/2 739/739/2 740/740/2
v 9 7 0.0
v 10 7 0.0
v 10 7 1.0
v 9 7 1.0
vt 0.5625 0.4375
vt 0.625 0.4375
vt 0.625 0.5
vt 0.5625 0.5
f 741/741/4 742/742/4 743/743/4 744/744/4
v 10 7 1.0
v 10 7 0.0
v 10 8 0.0
v 10 8 1.0
vt 0.5625 0.4375
vt 0.625 0.4375
vt 0.625 0.5
vt 0.5625 0.5
f 745/745/5 746/746/5 747/747/5 748/748/5
v 2 6 1.0
v 3 6 1.0
v 3 7 1.0
v 2 7 1.0
vt 0.125 0.375
vt 0.1875 0.375
vt 0.1875 0.4375
vt 0.125 0.4375
f 749/749/1 750/750/1 751/751/1 752/752/1
v 3 6 0.0
v 2 6 0.0
v 2 7 0.0
v 3 7 0.0
vt 0.1875 0.375
vt 0.125 0.375
vt 0.125 0.4375
vt 0.1875 0.4375
f 753/753/2 754/754/2 755/755/2 756/756/2
v 2 6 0.0
v 2 6 1.0
v 2 7 1.0
v 2 7 0.0
vt 0.125 0.375
vt 0.1875 0.375
vt 0.1875 0.4375
vt 0.125 0.4375
f 757/757/6 758/758/6 759/759/6 760/760/6
v 3 6 1.0
v 4 6 1.0
v 4 7 1.0
v 3 7 1.0
vt 0.1875 0.375
vt 0.25 0.375
vt 0.25 0.4375
vt 0.1875 0.4375
f 761/761/1 762/762/1 763/763/1 764/764/1
v 4 6 0.0
v 3 6 0.0
v 3 7 0.0
v 4 7 0.0
vt 0.25 0.375
vt 0.1875 0.375
vt 0.1875 0.4375
vt 0.25 0.4375
f 765/765/2 766/766/2 767/767/2 768/768/2
v 4 6 1.0
v 5 6 1.0
v 5 7 1.0
v 4 7 1.0
vt 0.25 0.375
vt 0.3125 0.375
vt 0.3125 0.4375
vt 0.25 0.4375
f 769/769/1 770/770/1 771/771/1 772/772/1
v 5 6 0.0
v 4 6 0.0
v 4 7 0.0
v 5 7 0.0
vt 0.3125 0.375
vt 0.25 0.375
vt 0.25 0.4375
vt 0.3125 0.4375
f 773/773/2 774/774/2 775/775/2 776/776/2
v 5 6 1.0
v 6 6 1.0
v 6 7 1.0
v 5 7 1.0
vt 0.3125 0.375
vt 0.375 0.375
vt 0.375 0.4375
vt 0.3125 0.4375
f 777/777/1 778/778/1 779/779/1 780/780/1
v 6 6 0.0
v 5 6 0.0
v 5 7 0.0
v 6 7 0.0
vt 0.375 0.375
vt 0.3125 0.375
vt 0.3125 0.4375
vt 0.375 0.4375
f 781/781/2 782/782/2 783/783/2 784/784/2
v 6 6 1.0
v 7 6 1.0
v 7 7 1.0
v 6 7 1.0
vt 0.375 0.375
vt 0.4375 0.375
vt 0.4375 0.4375
vt 0.375 0.4375
f 785/785/1 786/786/1 787/787/1 788/788/1
v 7 6 0.0
v 6 6 0.0
v 6 7 0.0
v 7 7 0.0
vt 0.4375 0.375
vt 0.375 0.375
vt 0.375 0.4375
vt 0.4375 0.4375
f 789/789/2 790/790/2 791/791/2 792/792/2
v 7 6 1.0
v 8 6 1.0
v 8 7 1.0
v 7 7 1.0
vt 0.4375 0.375
vt 0.5 0.375
vt 0.5 0.4375
vt 0.4375 0.4375
f 793/793/1 794/794/1 795/795/1 796/796/1
v 8 6 0.0
v 7 6 0.0
v 7 7 0.0
v 8 7 0.0
vt 0.5 0.375
vt 0.4375 0.375
vt 0.4375 0.4375
vt 0.5 0.4375
f 797/797/2 798/798/2 799/799/2 800/800/2
v 8 6 1.0
v 9 6 1.0
v 9 7 1.0
v 8 7 1.0
vt 0.5 0.375
vt 0.5625 0.375
vt 0.5625 0.4375
vt 0.5 0.4375
f 801/801/1 802/802/1 803/803/1 804/804/1
v 9 6 0.0
v 8 6 0.0
v 8 7 0.0
v 9 7 0.0
vt 0.5625 0.375
vt 0.5 0.375
vt 0.5 0.4375
vt 0.5625 0.4375
f 805/805/2 806/806/2 807/807/2 808/808/2
v 8 6 0.0
v 9 6 0.0
v 9 6 1.0
v 8 6 1.0
vt 0.5 0.375
vt 0.5625 0.375
vt 0.5625 0.4375
vt 0.5 0.4375
f 809/809/4 810/810/4 811/811/4 812/812/4
v 9 6 1.0
v 9 6 0.0
v 9 7 0.0
v 9 7 1.0
vt 0.5 0.375
vt 0.5625 0.375
vt 0.5625 0.4375
vt 0.5 0.4375
f 813/813/5 814/814/5 815/815/5 816/816/5
v 2 5 1.0
v 3 5 1.0
v 3 6 1.0
v 2 6 1.0
vt 0.125 0.3125
vt 0.1875 0.3125
vt 0.1875 0.375
vt 0.125 0.375
f 817/817/1 818/818/1 819/819/1 820/820/1
v 3 5 0.0
v 2 5 0.0
v 2 6 0.0
v 3 6 0.0
vt 0.1875 0.3125
vt 0.125 0.3125
vt 0.125 0.375
vt 0.1875 0.375
f 821/821/2 822/822/2 823/823/2 824/824/2
v 2 5 0.0
v 2 5 1.0
v 2 6 1.0
v 2 6 0.0
vt 0.125 0.3125
vt 0.1875 0.3125
vt 0.1875 0.375
vt 0.125 0.375
f 825/825/6 826/826/6 827/827/6 828/828/6
v 3 5 1.0
v 4 5 1.0
v 4 6 1.0
v 3 6 1.0
vt 0.1875 0.3125
vt 0.25 0.3125
vt 0.25 0.375
vt 0.1875 0.375
f 829/829/1 830/830/1 831/831/1 832/832/1
v 4 5 0.0
v 3 5 0.0
v 3 6 0.0
v 4 6 0.0
vt 0.25 0.3125
vt 0.1875 0.3125
vt 0.1875 0.375
vt 0.25 0.375
f 833/833/2 834/834/2 835/835/2 836/836/2
v 4 5 1.0
v 5 5 1.0
v 5 6 1.0
v 4 6 1.0
vt 0.25 0.3125
vt 0.3125 0.3125
vt 0.3125 0.375
vt 0.25 0.375
f 837/837/1 838/838/1 839/839/1 840/840/1
v 5 5 0.0
v 4 5 0.0
v 4 6 0.0
v 5 6 0.0
vt 0.3125 0.3125
vt 0.25 0.3125
vt 0.25 0.375
vt 0.3125 0.375
f 841/841/2 842/842/2 843/843/2 844/844/2
v 5 5 1.0
v 6 5 1.0
v 6 6 1.0
v 5 6 1.0
vt 0.3125 0.3125
vt 0.375 0.3125
vt 0.375 0.375
vt 0.3125 0.375
f 845/845/1 846/846/1 847/847/1 848/848/1
v 6 5 0.0
v 5 5 0.0
v 5 6 0.0
v 6 6 0.0
vt 0.375 0.3125
vt 0.3125 0.3125
vt 0.3125 0.375
vt 0.375 0.375
f 849/849/2 850/850/2 851/851/2 852/852/2
v 6 5 1.0
v 7 5 1.0
v 7 6 1.0
v 6 6 1.0
vt 0.375 0.3125
vt 0.4375 0.3125
vt 0.4375 0.375
vt 0.375 0.375
f 853/853/1 854/854/1 855/855/1 856/856/1
v 7 5 0.0
v 6 5 0.0
v 6 6 0.0
v 7 6 0.0
vt 0.4375 0.3125
vt 0.375 0.3125
vt 0.375 0.375
vt 0.4375 0.375
f 857/857/2 858/858/2 859/859/2 860/860/2
v 7 5 1.0
v 8 5 1.0
v 8 6 1.0
v 7 6 1.0
vt 0.4375 0.3125
vt 0.5 0.3125
vt 0.5 0.375
vt 0.4375 0.375
f 861/861/1 862/862/1 863/863/1 864/864/1
v 8 5 0.0
v 7 5 0.0
v 7 6 0.0
v 8 6 0.0
vt 0.5 0.3125
vt 0.4375 0.3125
vt 0.4375 0.375
vt 0.5 0.375
f 865/865/2 866/866/2 867/867/2 868/868/2
v 8 5 1.0
v 8 5 0.0
v 8 6 0.0
v 8 6 1.0
vt 0.4375 0.3125
vt 0.5 0.3125
vt 0.5 0.375
vt 0.4375 0.375
f 869/869/5 870/870/5 871/871/5 872/872/5
v 2 4 1.0
v 3 4 1.0
v 3 5 1.0
v 2 5 1.0
vt 0.125 0.25
vt 0.1875 0.25
vt 0.1875 0.3125
vt 0.125 0.3125
f 873/873/1 874/874/1 875/875/1 876/876/1
v 3 4 0.0
v 2 4 0.0
v 2 5 0.0
v 3 5 0.0
vt 0.1875 0.25
vt 0.125 0.25
vt 0.125 0.3125
vt 0.1875 0.3125
f 877/877/2 878/878/2 879/879/2 880/880/2
v 2 4 0.0
v 3 4 0.0
v 3 4 1.0
v 2 4 1.0
vt 0.125 0.25
vt 0.1875 0.25
vt 0.1875 0.3125
vt 0.125 0.3125
f 881/881/4 882/882/4 883/883/4 884/884/4
v 2 4 0.0
v 2 4 1.0
v 2 5 1.0
v 2 5 0.0
vt 0.125 0.25
vt 0.1875 0.25
vt 0.1875 0.3125
vt 0.125 0.3125
f 885/885/6 886/886/6 887/887/6 888/888/6
v 3 4 1.0
v 4 4 1.0
v 4 5 1.0
v 3 5 1.0
vt 0.1875 0.25
vt 0.25 0.25
vt 0.25 0.3125
vt 0.1875 0.3125
f 889/889/1 890/890/1 891/891/1 892/892/1
v 4 4 0.0
v 3 4 0.0
v 3 5 0.0
v 4 5 0.0
vt 0.25 0.25
vt 0.1875 0.25
vt 0.1875 0.3125
vt 0.25 0.3125
f 893/893/2 894/894/2 895/895/2 896/896/2
v 4 4 1.0
v 5 4 1.0
v 5 5 1.0
v 4 5 1.0
vt 0.25 0.25
vt 0.3125 0.25
vt 0.3125 0.3125
vt 0.25 0.3125
f 897/897/1 898/898/1 899/899/1 900/900/1
v 5 4 0.0
v 4 4 0.0
v 4 5 0.0
v 5 5 0.0
vt 0.3125 0.25
vt 0.25 0.25
vt 0.25 0.3125
vt 0.3125 0.3125
f 901/901/2 902/902/2 903/903/2 904/904/2
v 5 4 1.0
v 6 4 1.0
v 6 5 1.0
v 5 5 1.0
vt 0.3125 0.25
vt 0.375 0.25
vt 0.375 0.3125
vt 0.3125 0.3125
f 905/905/1 906/906/1 907/907/1 908/908/1
v 6 4 0.0
v 5 4 0.0
v 5 5 0.0
v 6 5 0.0
vt 0.375 0.25
vt 0.3125 0.25
vt 0.3125 0.3125
vt 0.375 0.3125
f 909/909/2 910/910/2 911/911/2 912/912/2
v 6 4 1.0
v 7 4 1.0
v 7 5 1.0
v 6 5 1.0
vt 0.375 0.25
vt 0.4375 0.25
vt 0.4375 0.3125
vt 0.375 0.3125
f 913/913/1 914/914/1 915/915/1 916/916/1
v 7 4 0.0
v 6 4 0.0
v 6 5 0.0
v 7 5 0.0
vt 0.4375 0.25
vt 0.375 0.25
vt 0.375 0.3125
vt 0.4375 0.3125
f 917/917/2 918/918/2 919/919/2 920/920/2
v 7 4 1.0
v 8 4 1.0
v 8 5 1.0
v 7 5 1.0
vt 0.4375 0.25
vt 0.5 0.25
vt 0.5 0.3125
vt 0.4375 0.3125
f 921/921/1 922/922/1 923/923/1 924/924/1
v 8 4 0.0
v 7 4 0.0
v 7 5 0.0
v 8 5 0.0
vt 0.5 0.25
vt 0.4375 0.25
vt 0.4375 0.3125
vt 0.5 0.3125
f 925/925/2 926/926/2 927/927/2 928/928/2
v 7 4 0.0
v 8 4 0.0
v 8 4 1.0
v 7 4 1.0
vt 0.4375 0.25
vt 0.5 0.25
vt 0.5 0.3125
vt 0.4375 0.3125
f 929/929/4 930/930/4 931/931/4 932/932/4
v 8 4 1.0
v 8 4 0.0
v 8 5 0.0
v 8 5 1.0
vt 0.4375 0.25
vt 0.5 0.25
vt 0.5 0.3125
vt 0.4375 0.3125
f 933/933/5 934/934/5 935/935/5 936/936/5
v 3 3 1.0
v 4 3 1.0
v 4 4 1.0
v 3 4 1.0
vt 0.1875 0.1875
vt 0.25 0.1875
vt 0.25 0.25
vt 0.1875 0.25
f 937/937/1 938/938/1 939/939/1 940/940/1
v 4 3 0.0
v 3 3 0.0
v 3 4 0.0
v 4 4 0.0
vt 0.25 0.1875
vt 0.1875 0.1875
vt 0.1875 0.25
vt 0.25 0.25
f 941/941/2 942/942/2 943/943/2 944/944/2
v 3 3 0.0
v 3 3 1.0
v 3 4 1.0
v 3 4 0.0
vt 0.1875 0.1875
vt 0.25 0.1875
vt 0.25 0.25
vt 0.1875 0.25
f 945/945/6 946/946/6 947/947/6 948/948/6
v 4 3 1.0
v 5 3 1.0
v 5 4 1.0
v 4 4 1.0
vt 0.25 0.1875
vt 0.3125 0.1875
vt 0.3125 0.25
vt 0.25 0.25
f 949/949/1 950/950/1 951/951/1 952/952/1
v 5 3 0.0
v 4 3 0.0
v 4 4 0.0
v 5 4 0.0
vt 0.3125 0.1875
vt 0.25 0.1875
vt 0.25 0.25
vt 0.3125 0.25
f 953/953/2 954/954/2 955/955/2 956/956/2
v 5 3 1.0
v 6 3 1.0
v 6 4 1.0
v 5 4 1.0
vt 0.3125 0.1875
vt 0.375 0.1875
vt 0.375 0.25
vt 0.3125 0.25
f 957/957/1 958/958/1 959/959/1 960/960/1
v 6 3 0.0
v 5 3 0.0
v 5 4 0.0
v 6 4 0.0
vt 0.375 0.1875
vt 0.3125 0.1875
vt 0.3125 0.25
vt 0.375 0.25
f 961/961/2 962/962/2 963/963/2 964/964/2
v 6 3 1.0
v 7 3 1.0
v 7 4 1.0
v 6 4 1.0
vt 0.375 0.1875
vt 0.4375 0.1875
vt 0.4375 0.25
vt 0.375 0.25
f 965/965/1 966/966/1 967/967/1 968/968/1
v 7 3 0.0
v 6 3 0.0
v 6 4 0.0
v 7 4 0.0
vt 0.4375 0.1875
vt 0.375 0.1875
vt 0.375 0.25
vt 0.4375 0.25
f 969/969/2 970/970/2 971/971/2 972/972/2
v 7 3 1.0
v 7 3 0.0
v 7 4 0.0
v 7 4 1.0
vt 0.375 0.1875
vt 0.4375 0.1875
vt 0.4375 0.25
vt 0.375 0.25
f 973/973/5 974/974/5 975/975/5 976/976/5
v 3 2 1.0
v 4 2 1.0
v 4 3 1.0
v 3 3 1.0
vt 0.1875 0.125
vt 0.25 0.125
vt 0.25 0.1875
vt 0.1875 0.1875
f 977/977/1 978/978/1 979/979/1 980/980/1
v 4 2 0.0
v 3 2 0.0
v 3 3 0.0
v 4 3 0.0
vt 0.25 0.125
vt 0.1875 0.125
vt 0.1875 0.1875
vt 0.25 0.1875
f 981/981/2 982/982/2 983/983/2 984/984/2
v 3 2 0.0
v 4 2 0.0
v 4 2 1.0
v 3 2 1.0
vt 0.1875 0.125
vt 0.25 0.125
vt 0.25 0.1875
vt 0.1875 0.1875
f 985/985/4 986/986/4 987/987/4 988/988/4
v 3 2 0.0
v 3 2 1.0
v 3 3 1.0
v 3 3 0.0
vt 0.1875 0.125
vt 0.25 0.125
vt 0.25 0.1875
vt 0.1875 0.1875
f 989/989/6 990/990/6 991/991/6 992/992/6
v 4 2 1.0
v 5 2 1.0
v 5 3 1.0
v 4 3 1.0
vt 0.25 0.125
vt 0.3125 0.125
vt 0.3125 0.1875
vt 0.25 0.1875
f 993/993/1 994/994/1 995/995/1 996/996/1
v 5 2 0.0
v 4 2 0.0
v 4 3 0.0
v 5 3 0.0
vt 0.3125 0.125
vt 0.25 0.125
vt 0.25 0.1875
vt 0.3125 0.1875
f 997/997/2 998/998/2 999/999/2 1000/1000/2
v 4 2 0.0
v 5 2 0.0
v 5 2 1.0
v 4 2 1.0
vt 0.25 0.125
vt 0.3125 0.125
vt 0.3125 0.1875
vt 0.25 0.1875
f 1001/1001/4 1002/1002/4 1003/1003/4 1004/1004/4
v 5 2 1.0
v 6 2 1.0
v 6 3 1.0
v 5 3 1.0
vt 0.3125 0.125
vt 0.375 0.125
vt 0.375 0.1875
vt 0.3125 0.1875
f 1005/1005/1 1006/1006/1 1007/1007/1 1008/1008/1
v 6 2 0.0
v 5 2 0.0
v 5 3 0.0
v 6 3 0.0
vt 0.375 0.125
vt 0.3125 0.125
vt 0.3125 0.1875
vt 0.375 0.1875
f 1009/1009/2 1010/1010/2 1011/1011/2 1012/1012/2
v 5 2 0.0
v 6 2 0.0
v 6 2 1.0
v 5 2 1.0
vt 0.3125 0.125
vt 0.375 0.125
vt 0.375 0.1875
vt 0.3125 0.1875
f 1013/1013/4 1014/1014/4 1015/1015/4 1016/1016/4
v 6 2 1.0
v 7 2 1.0
v 7 3 1.0
v 6 3 1.0
vt 0.375 0.125
vt 0.4375 0.125
vt 0.4375 0.1875
vt 0.375 0.1875
f 1017/1017/1 1018/1018/1 1019/1019/1 1020/1020/1
v 7 2 0.0
v 6 2 0.0
v 6 3 0.0
v 7 3 0.0
vt 0.4375 0.125
vt 0.375 0.125
vt 0.375 0.1875
vt 0.4375 0.1875
f 1021/1021/2 1022/1022/2 1023/1023/2 1024/1024/2
v 6 2 0.0
v 7 2 0.0
v 7 2 1.0
v 6 2 1.0
vt 0.375 0.125
vt 0.4375 0.125
vt 0.4375 0.1875
vt 0.375 0.1875
f 1025/1025/4 1026/1026/4 1027/1027/4 1028/1028/4
v 7 2 1.0
v 7 2 0.0
v 7 3 0.0
v 7 3 1.0
vt 0.375 0.125
vt 0.4375 0.125
vt 0.4375 0.1875
vt 0.375 0.1875
f 1029/1029/5 1030/1030/5 1031/1031/5 1032/1032/5
o mesh_mask_4
usemtl mat_毒马铃薯
v 10 7 1.0
v 11 7 1.0
v 11 8 1.0
v 10 8 1.0
vt 0.625 0.4375
vt 0.6875 0.4375
vt 0.6875 0.5
vt 0.625 0.5
f 1033/1033/1 1034/1034/1 1035/1035/1 1036/1036/1
v 11 7 0.0
v 10 7 0.0
v 10 8 0.0
v 11 8 0.0
vt 0.6875 0.4375
vt 0.625 0.4375
vt 0.625 0.5
vt 0.6875 0.5
f 1037/1037/2 1038/1038/2 1039/1039/2 1040/1040/2
v 10 8 1.0
v 11 8 1.0
v 11 8 0.0
v 10 8 0.0
vt 0.625 0.4375
vt 0.6875 0.4375
vt 0.6875 0.5
vt 0.625 0.5
f 1041/1041/3 1042/1042/3 1043/1043/3 1044/1044/3
v 11 7 1.0
v 11 7 0.0
v 11 8 0.0
v 11 8 1.0
vt 0.625 0.4375
vt 0.6875 0.4375
vt 0.6875 0.5
vt 0.625 0.5
f 1045/1045/5 1046/1046/5 1047/1047/5 1048/1048/5
v 10 7 0.0
v 10 7 1.0
v 10 8 1.0
v 10 8 0.0
vt 0.625 0.4375
vt 0.6875 0.4375
vt 0.6875 0.5
vt 0.625 0.5
f 1049/1049/6 1050/1050/6 1051/1051/6 1052/1052/6
v 9 6 1.0
v 10 6 1.0
v 10 7 1.0
v 9 7 1.0
vt 0.5625 0.375
vt 0.625 0.375
vt 0.625 0.4375
vt 0.5625 0.4375
f 1053/1053/1 1054/1054/1 1055/1055/1 1056/1056/1
v 10 6 0.0
v 9 6 0.0
v 9 7 0.0
v 10 7 0.0
vt 0.625 0.375
vt 0.5625 0.375
vt 0.5625 0.4375
vt 0.625 0.4375
f 1057/1057/2 1058/1058/2 1059/1059/2 1060/1060/2
v 9 7 1.0
v 10 7 1.0
v 10 7 0.0
v 9 7 0.0
vt 0.5625 0.375
vt 0.625 0.375
vt 0.625 0.4375
vt 0.5625 0.4375
f 1061/1061/3 1062/1062/3 1063/1063/3 1064/1064/3
v 9 6 0.0
v 9 6 1.0
v 9 7 1.0
v 9 7 0.0
vt 0.5625 0.375
vt 0.625 0.375
vt 0.625 0.4375
vt 0.5625 0.4375
f 1065/1065/6 1066/1066/6 1067/1067/6 1068/1068/6
v 10 6 1.0
v 11 6 1.0
v 11 7 1.0
v 10 7 1.0
vt 0.625 0.375
vt 0.6875 0.375
vt 0.6875 0.4375
vt 0.625 0.4375
f 1069/1069/1 1070/1070/1 1071/1071/1 1072/1072/1
v 11 6 0.0
v 10 6 0.0
v 10 7 0.0
v 11 7 0.0
vt 0.6875 0.375
vt 0.625 0.375
vt 0.625 0.4375
vt 0.6875 0.4375
f 1073/1073/2 1074/1074/2 1075/1075/2 1076/1076/2
v 11 6 1.0
v 12 6 1.0
v 12 7 1.0
v 11 7 1.0
vt 0.6875 0.375
vt 0.75 0.375
vt 0.75 0.4375
vt 0.6875 0.4375
f 1077/1077/1 1078/1078/1 1079/1079/1 1080/1080/1
v 12 6 0.0
v 11 6 0.0
v 11 7 0.0
v 12 7 0.0
vt 0.75 0.375
vt 0.6875 0.375
vt 0.6875 0.4375
vt 0.75 0.4375
f 1081/1081/2 1082/1082/2 1083/1083/2 1084/1084/2
v 11 7 1.0
v 12 7 1.0
v 12 7 0.0
v 11 7 0.0
vt 0.6875 0.375
vt 0.75 0.375
vt 0.75 0.4375
vt 0.6875 0.4375
f 1085/1085/3 1086/1086/3 1087/1087/3 1088/1088/3
v 12 6 1.0
v 13 6 1.0
v 13 7 1.0
v 12 7 1.0
vt 0.75 0.375
vt 0.8125 0.375
vt 0.8125 0.4375
vt 0.75 0.4375
f 1089/1089/1 1090/1090/1 1091/1091/1 1092/1092/1
v 13 6 0.0
v 12 6 0.0
v 12 7 0.0
v 13 7 0.0
vt 0.8125 0.375
vt 0.75 0.375
vt 0.75 0.4375
vt 0.8125 0.4375
f 1093/1093/2 1094/1094/2 1095/1095/2 1096/1096/2
v 12 7 1.0
v 13 7 1.0
v 13 7 0.0
v 12 7 0.0
vt 0.75 0.375
vt 0.8125 0.375
vt 0.8125 0.4375
vt 0.75 0.4375
f 1097/1097/3 1098/1098/3 1099/1099/3 1100/1100/3
v 13 6 1.0
v 14 6 1.0
v 14 7 1.0
v 13 7 1.0
vt 0.8125 0.375
vt 0.875 0.375
vt 0.875 0.4375
vt 0.8125 0.4375
f 1101/1101/1 1102/1102/1 1103/1103/1 1104/1104/1
v 14 6 0.0
v 13 6 0.0
v 13 7 0.0
v 14 7 0.0
vt 0.875 0.375
vt 0.8125 0.375
vt 0.8125 0.4375
vt 0.875 0.4375
f 1105/1105/2 1106/1106/2 1107/1107/2 1108/1108/2
v 13 7 1.0
v 14 7 1.0
v 14 7 0.0
v 13 7 0.0
vt 0.8125 0.375
vt 0.875 0.375
vt 0.875 0.4375
vt 0.8125 0.4375
f 1109/1109/3 1110/1110/3 1111/1111/3 1112/1112/3
v 13 6 0.0
v 14 6 0.0
v 14 6 1.0
v 13 6 1.0
vt 0.8125 0.375
vt 0.875 0.375
vt 0.875 0.4375
vt 0.8125 0.4375
f 1113/1113/4 1114/1114/4 1115/1115/4 1116/1116/4
v 14 6 1.0
v 14 6 0.0
v 14 7 0.0
v 14 7 1.0
vt 0.8125 0.375
vt 0.875 0.375
vt 0.875 0.4375
vt 0.8125 0.4375
f 1117/1117/5 1118/1118/5 1119/1119/5 1120/1120/5
v 8 5 1.0
v 9 5 1.0
v 9 6 1.0
v 8 6 1.0
vt 0.5 0.3125
vt 0.5625 0.3125
vt 0.5625 0.375
vt 0.5 0.375
f 1121/1121/1 1122/1122/1 1123/1123/1 1124/1124/1
v 9 5 0.0
v 8 5 0.0
v 8 6 0.0
v 9 6 0.0
vt 0.5625 0.3125
vt 0.5 0.3125
vt 0.5 0.375
vt 0.5625 0.375
f 1125/1125/2 1126/1126/2 1127/1127/2 1128/1128/2
v 8 6 1.0
v 9 6 1.0
v 9 6 0.0
v 8 6 0.0
vt 0.5 0.3125
vt 0.5625 0.3125
vt 0.5625 0.375
vt 0.5 0.375
f 1129/1129/3 1130/1130/3 1131/1131/3 1132/1132/3
v 8 5 0.0
v 8 5 1.0
v 8 6 1.0
v 8 6 0.0
vt 0.5 0.3125
vt 0.5625 0.3125
vt 0.5625 0.375
vt 0.5 0.375
f 1133/1133/6 1134/1134/6 1135/1135/6 1136/1136/6
v 9 5 1.0
v 10 5 1.0
v 10 6 1.0
v 9 6 1.0
vt 0.5625 0.3125
vt 0.625 0.3125
vt 0.625 0.375
vt 0.5625 0.375
f 1137/1137/1 1138/1138/1 1139/1139/1 1140/1140/1
v 10 5 0.0
v 9 5 0.0
v 9 6 0.0
v 10 6 0.0
vt 0.625 0.3125
vt 0.5625 0.3125
vt 0.5625 0.375
vt 0.625 0.375
f 1141/1141/2 1142/1142/2 1143/1143/2 1144/1144/2
v 10 5 1.0
v 11 5 1.0
v 11 6 1.0
v 10 6 1.0
vt 0.625 0.3125
vt 0.6875 0.3125
vt 0.6875 0.375
vt 0.625 0.375
f 1145/1145/1 1146/1146/1 1147/1147/1 1148/1148/1
v 11 5 0.0
v 10 5 0.0
v 10 6 0.0
v 11 6 0.0
vt 0.6875 0.3125
vt 0.625 0.3125
vt 0.625 0.375
vt 0.6875 0.375
f 1149/1149/2 1150/1150/2 1151/1151/2 1152/1152/2
v 11 5 1.0
v 12 5 1.0
v 12 6 1.0
v 11 6 1.0
vt 0.6875 0.3125
vt 0.75 0.3125
vt 0.75 0.375
vt 0.6875 0.375
f 1153/1153/1 1154/1154/1 1155/1155/1 1156/1156/1
v 12 5 0.0
v 11 5 0.0
v 11 6 0.0
v 12 6 0.0
vt 0.75 0.3125
vt 0.6875 0.3125
vt 0.6875 0.375
vt 0.75 0.375
f 1157/1157/2 1158/1158/2 1159/1159/2 1160/1160/2
v 12 5 1.0
v 13 5 1.0
v 13 6 1.0
v 12 6 1.0
vt 0.75 0.3125
vt 0.8125 0.3125
vt 0.8125 0.375
vt 0.75 0.375
f 1161/1161/1 1162/1162/1 1163/1163/1 1164/1164/1
v 13 5 0.0
v 12 5 0.0
v 12 6 0.0
v 13 6 0.0
vt 0.8125 0.3125
vt 0.75 0.3125
vt 0.75 0.375
vt 0.8125 0.375
f 1165/1165/2 1166/1166/2 1167/1167/2 1168/1168/2
v 13 5 1.0
v 13 5 0.0
v 13 6 0.0
v 13 6 1.0
vt 0.75 0.3125
vt 0.8125 0.3125
vt 0.8125 0.375
vt 0.75 0.375
f 1169/1169/5 1170/1170/5 1171/1171/5 1172/1172/5
v 8 4 1.0
v 9 4 1.0
v 9 5 1.0
v 8 5 1.0
vt 0.5 0.25
vt 0.5625 0.25
vt 0.5625 0.3125
vt 0.5 0.3125
f 1173/1173/1 1174/1174/1 1175/1175/1 1176/1176/1
v 9 4 0.0
v 8 4 0.0
v 8 5 0.0
v 9 5 0.0
vt 0.5625 0.25
vt 0.5 0.25
vt 0.5 0.3125
vt 0.5625 0.3125
f 1177/1177/2 1178/1178/2 1179/1179/2 1180/1180/2
v 8 4 0.0
v 8 4 1.0
v 8 5 1.0
v 8 5 0.0
vt 0.5 0.25
vt 0.5625 0.25
vt 0.5625 0.3125
vt 0.5 0.3125
f 1181/1181/6 1182/1182/6 1183/1183/6 1184/1184/6
v 9 4 1.0
v 10 4 1.0
v 10 5 1.0
v 9 5 1.0
vt 0.5625 0.25
vt 0.625 0.25
vt 0.625 0.3125
vt 0.5625 0.3125
f 1185/1185/1 1186/1186/1 1187/1187/1 1188/1188/1
v 10 4 0.0
v 9 4 0.0
v 9 5 0.0
v 10 5 0.0
vt 0.625 0.25
vt 0.5625 0.25
vt 0.5625 0.3125
vt 0.625 0.3125
f 1189/1189/2 1190/1190/2 1191/1191/2 1192/1192/2
v 10 4 1.0
v 11 4 1.0
v 11 5 1.0
v 10 5 1.0
vt 0.625 0.25
vt 0.6875 0.25
vt 0.6875 0.3125
vt 0.625 0.3125
f 1193/1193/1 1194/1194/1 1195/1195/1 1196/1196/1
v 11 4 0.0
v 10 4 0.0
v 10 5 0.0
v 11 5 0.0
vt 0.6875 0.25
vt 0.625 0.25
vt 0.625 0.3125
vt 0.6875 0.3125
f 1197/1197/2 1198/1198/2 1199/1199/2 1200/1200/2
v 10 4 0.0
v 11 4 0.0
v 11 4 1.0
v 10 4 1.0
vt 0.625 0.25
vt 0.6875 0.25
vt 0.6875 0.3125
vt 0.625 0.3125
f 1201/1201/4 1202/1202/4 1203/1203/4 1204/1204/4
v 11 4 1.0
v 12 4 1.0
v 12 5 1.0
v 11 5 1.0
vt 0.6875 0.25
vt 0.75 0.25
vt 0.75 0.3125
vt 0.6875 0.3125
f 1205/1205/1 1206/1206/1 1207/1207/1 1208/1208/1
v 12 4 0.0
v 11 4 0.0
v 11 5 0.0
v 12 5 0.0
vt 0.75 0.25
vt 0.6875 0.25
vt 0.6875 0.3125
vt 0.75 0.3125
f 1209/1209/2 1210/1210/2 1211/1211/2 1212/1212/2
v 11 4 0.0
v 12 4 0.0
v 12 4 1.0
v 11 4 1.0
vt 0.6875 0.25
vt 0.75 0.25
vt 0.75 0.3125
vt 0.6875 0.3125
f 1213/1213/4 1214/1214/4 1215/1215/4 1216/1216/4
v 12 4 1.0
v 13 4 1.0
v 13 5 1.0
v 12 5 1.0
vt 0.75 0.25
vt 0.8125 0.25
vt 0.8125 0.3125
vt 0.75 0.3125
f 1217/1217/1 1218/1218/1 1219/1219/1 1220/1220/1
v 13 4 0.0
v 12 4 0.0
v 12 5 0.0
v 13 5 0.0
vt 0.8125 0.25
vt 0.75 0.25
vt 0.75 0.3125
vt 0.8125 0.3125
f 1221/1221/2 1222/1222/2 1223/1223/2 1224/1224/2
v 12 4 0.0
v 13 4 0.0
v 13 4 1.0
v 12 4 1.0
vt 0.75 0.25
vt 0.8125 0.25
vt 0.8125 0.3125
vt 0.75 0.3125
f 1225/1225/4 1226/1226/4 1227/1227/4 1228/1228/4
v 13 4 1.0
v 13 4 0.0
v 13 5 0.0
v 13 5 1.0
vt 0.75 0.25
vt 0.8125 0.25
vt 0.8125 0.3125
vt 0.75 0.3125
f 1229/1229/5 1230/1230/5 1231/1231/5 1232/1232/5
v 7 3 1.0
v 8 3 1.0
v 8 4 1.0
v 7 4 1.0
vt 0.4375 0.1875
vt 0.5 0.1875
vt 0.5 0.25
vt 0.4375 0.25
f 1233/1233/1 1234/1234/1 1235/1235/1 1236/1236/1
v 8 3 0.0
v 7 3 0.0
v 7 4 0.0
v 8 4 0.0
vt 0.5 0.1875
vt 0.4375 0.1875
vt 0.4375 0.25
vt 0.5 0.25
f 1237/1237/2 1238/1238/2 1239/1239/2 1240/1240/2
v 7 4 1.0
v 8 4 1.0
v 8 4 0.0
v 7 4 0.0
vt 0.4375 0.1875
vt 0.5 0.1875
vt 0.5 0.25
vt 0.4375 0.25
f 1241/1241/3 1242/1242/3 1243/1243/3 1244/1244/3
v 7 3 0.0
v 7 3 1.0
v 7 4 1.0
v 7 4 0.0
vt 0.4375 0.1875
vt 0.5 0.1875
vt 0.5 0.25
vt 0.4375 0.25
f 1245/1245/6 1246/1246/6 1247/1247/6 1248/1248/6
v 8 3 1.0
v 9 3 1.0
v 9 4 1.0
v 8 4 1.0
vt 0.5 0.1875
vt 0.5625 0.1875
vt 0.5625 0.25
vt 0.5 0.25
f 1249/1249/1 1250/1250/1 1251/1251/1 1252/1252/1
v 9 3 0.0
v 8 3 0.0
v 8 4 0.0
v 9 4 0.0
vt 0.5625 0.1875
vt 0.5 0.1875
vt 0.5 0.25
vt 0.5625 0.25
f 1253/1253/2 1254/1254/2 1255/1255/2 1256/1256/2
v 8 3 0.0
v 9 3 0.0
v 9 3 1.0
v 8 3 1.0
vt 0.5 0.1875
vt 0.5625 0.1875
vt 0.5625 0.25
vt 0.5 0.25
f 1257/1257/4 1258/1258/4 1259/1259/4 1260/1260/4
v 9 3 1.0
v 10 3 1.0
v 10 4 1.0
v 9 4 1.0
vt 0.5625 0.1875
vt 0.625 0.1875
vt 0.625 0.25
vt 0.5625 0.25
f 1261/1261/1 1262/1262/1 1263/1263/1 1264/1264/1
v 10 3 0.0
v 9 3 0.0
v 9 4 0.0
v 10 4 0.0
vt 0.625 0.1875
vt 0.5625 0.1875
vt 0.5625 0.25
vt 0.625 0.25
f 1265/1265/2 1266/1266/2 1267/1267/2 1268/1268/2
v 9 3 0.0
v 10 3 0.0
v 10 3 1.0
v 9 3 1.0
vt 0.5625 0.1875
vt 0.625 0.1875
vt 0.625 0.25
vt 0.5625 0.25
f 1269/1269/4 1270/1270/4 1271/1271/4 1272/1272/4
v 10 3 1.0
v 10 3 0.0
v 10 4 0.0
v 10 4 1.0
vt 0.5625 0.1875
vt 0.625 0.1875
vt 0.625 0.25
vt 0.5625 0.25
f 1273/1273/5 1274/1274/5 1275/1275/5 1276/1276/5
v 7 2 1.0
v 8 2 1.0
v 8 3 1.0
v 7 3 1.0
vt 0.4375 0.125
vt 0.5 0.125
vt 0.5 0.1875
vt 0.4375 0.1875
f 1277/1277/1 1278/1278/1 1279/1279/1 1280/1280/1
v 8 2 0.0
v 7 2 0.0
v 7 3 0.0
v 8 3 0.0
vt 0.5 0.125
vt 0.4375 0.125
vt 0.4375 0.1875
vt 0.5 0.1875
f 1281/1281/2 1282/1282/2 1283/1283/2 1284/1284/2
v 7 2 0.0
v 8 2 0.0
v 8 2 1.0
v 7 2 1.0
vt 0.4375 0.125
vt 0.5 0.125
vt 0.5 0.1875
vt 0.4375 0.1875
f 1285/1285/4 1286/1286/4 1287/1287/4 1288/1288/4
v 8 2 1.0
v 8 2 0.0
v 8 3 0.0
v 8 3 1.0
vt 0.4375 0.125
vt 0.5 0.125
vt 0.5 0.1875
vt 0.4375 0.1875
f 1289/1289/5 1290/1290/5 1291/1291/5 1292/1292/5
v 7 2 0.0
v 7 2 1.0
v 7 3 1.0
v 7 3 0.0
vt 0.4375 0.125
vt 0.5 0.125
vt 0.5 0.1875
vt 0.4375 0.1875
f 1293/1293/6 1294/1294/6 1295/1295/6 1296/1296/6
