mtllib 南瓜派.mtl
vn 0 0 1
vn 0 0 -1
vn 0 1 0
vn 0 -1 0
vn 1 0 0
vn -1 0 0
o mesh_mask_1
usemtl mat_南瓜派
v 5 11 1.0
v 6 11 1.0
v 6 12 1.0
v 5 12 1.0
vt 0.3125 0.6875
vt 0.375 0.6875
vt 0.375 0.75
vt 0.3125 0.75
f 1/1/1 2/2/1 3/3/1 4/4/1
v 6 11 0.0
v 5 11 0.0
v 5 12 0.0
v 6 12 0.0
vt 0.375 0.6875
vt 0.3125 0.6875
vt 0.3125 0.75
vt 0.375 0.75
f 5/5/2 6/6/2 7/7/2 8/8/2
v 5 12 1.0
v 6 12 1.0
v 6 12 0.0
v 5 12 0.0
vt 0.3125 0.6875
vt 0.375 0.6875
vt 0.375 0.75
vt 0.3125 0.75
f 9/9/3 10/10/3 11/11/3 12/12/3
v 5 11 0.0
v 5 11 1.0
v 5 12 1.0
v 5 12 0.0
vt 0.3125 0.6875
vt 0.375 0.6875
vt 0.375 0.75
vt 0.3125 0.75
f 13/13/6 14/14/6 15/15/6 16/16/6
v 6 11 1.0
v 7 11 1.0
v 7 12 1.0
v 6 12 1.0
vt 0.375 0.6875
vt 0.4375 0.6875
vt 0.4375 0.75
vt 0.375 0.75
f 17/17/1 18/18/1 19/19/1 20/20/1
v 7 11 0.0
v 6 11 0.0
v 6 12 0.0
v 7 12 0.0
vt 0.4375 0.6875
vt 0.375 0.6875
vt 0.375 0.75
vt 0.4375 0.75
f 21/21/2 22/22/2 23/23/2 24/24/2
v 6 12 1.0
v 7 12 1.0
v 7 12 0.0
v 6 12 0.0
vt 0.375 0.6875
vt 0.4375 0.6875
vt 0.4375 0.75
vt 0.375 0.75
f 25/25/3 26/26/3 27/27/3 28/28/3
v 7 11 1.0
v 8 11 1.0
v 8 12 1.0
v 7 12 1.0
vt 0.4375 0.6875
vt 0.5 0.6875
vt 0.5 0.75
vt 0.4375 0.75
f 29/29/1 30/30/1 31/31/1 32/32/1
v 8 11 0.0
v 7 11 0.0
v 7 12 0.0
v 8 12 0.0
vt 0.5 0.6875
vt 0.4375 0.6875
vt 0.4375 0.75
vt 0.5 0.75
f 33/33/2 34/34/2 35/35/2 36/36/2
v 7 12 1.0
v 8 12 1.0
v 8 12 0.0
v 7 12 0.0
vt 0.4375 0.6875
vt 0.5 0.6875
vt 0.5 0.75
vt 0.4375 0.75
f 37/37/3 38/38/3 39/39/3 40/40/3
v 7 11 0.0
v 8 11 0.0
v 8 11 1.0
v 7 11 1.0
vt 0.4375 0.6875
vt 0.5 0.6875
vt 0.5 0.75
vt 0.4375 0.75
f 41/41/4 42/42/4 43/43/4 44/44/4
v 8 11 1.0
v 8 11 0.0
v 8 12 0.0
v 8 12 1.0
vt 0.4375 0.6875
vt 0.5 0.6875
vt 0.5 0.75
vt 0.4375 0.75
f 45/45/5 46/46/5 47/47/5 48/48/5
v 3 10 1.0
v 4 10 1.0
v 4 11 1.0
v 3 11 1.0
vt 0.1875 0.625
vt 0.25 0.625
vt 0.25 0.6875
vt 0.1875 0.6875
f 49/49/1 50/50/1 51/51/1 52/52/1
v 4 10 0.0
v 3 10 0.0
v 3 11 0.0
v 4 11 0.0
vt 0.25 0.625
vt 0.1875 0.625
vt 0.1875 0.6875
vt 0.25 0.6875
f 53/53/2 54/54/2 55/55/2 56/56/2
v 3 11 1.0
v 4 11 1.0
v 4 11 0.0
v 3 11 0.0
vt 0.1875 0.625
vt 0.25 0.625
vt 0.25 0.6875
vt 0.1875 0.6875
f 57/57/3 58/58/3 59/59/3 60/60/3
v 3 10 0.0
v 3 10 1.0
v 3 11 1.0
v 3 11 0.0
vt 0.1875 0.625
vt 0.25 0.625
vt 0.25 0.6875
vt 0.1875 0.6875
f 61/61/6 62/62/6 63/63/6 64/64/6
v 4 10 1.0
v 5 10 1.0
v 5 11 1.0
v 4 11 1.0
vt 0.25 0.625
vt 0.3125 0.625
vt 0.3125 0.6875
vt 0.25 0.6875
f 65/65/1 66/66/1 67/67/1 68/68/1
v 5 10 0.0
v 4 10 0.0
v 4 11 0.0
v 5 11 0.0
vt 0.3125 0.625
vt 0.25 0.625
vt 0.25 0.6875
vt 0.3125 0.6875
f 69/69/2 70/70/2 71/71/2 72/72/2
v 4 11 1.0
v 5 11 1.0
v 5 11 0.0
v 4 11 0.0
vt 0.25 0.625
vt 0.3125 0.625
vt 0.3125 0.6875
vt 0.25 0.6875
f 73/73/3 74/74/3 75/75/3 76/76/3
v 5 10 1.0
v 6 10 1.0
v 6 11 1.0
v 5 11 1.0
vt 0.3125 0.625
vt 0.375 0.625
vt 0.375 0.6875
vt 0.3125 0.6875
f 77/77/1 78/78/1 79/79/1 80/80/1
v 6 10 0.0
v 5 10 0.0
v 5 11 0.0
v 6 11 0.0
vt 0.375 0.625
vt 0.3125 0.625
vt 0.3125 0.6875
vt 0.375 0.6875
f 81/81/2 82/82/2 83/83/2 84/84/2
v 5 10 0.0
v 6 10 0.0
v 6 10 1.0
v 5 10 1.0
vt 0.3125 0.625
vt 0.375 0.625
vt 0.375 0.6875
vt 0.3125 0.6875
f 85/85/4 86/86/4 87/87/4 88/88/4
v 6 10 1.0
v 7 10 1.0
v 7 11 1.0
v 6 11 1.0
vt 0.375 0.625
vt 0.4375 0.625
vt 0.4375 0.6875
vt 0.375 0.6875
f 89/89/1 90/90/1 91/91/1 92/92/1
v 7 10 0.0
v 6 10 0.0
v 6 11 0.0
v 7 11 0.0
vt 0.4375 0.625
vt 0.375 0.625
vt 0.375 0.6875
vt 0.4375 0.6875
f 93/93/2 94/94/2 95/95/2 96/96/2
v 6 10 0.0
v 7 10 0.0
v 7 10 1.0
v 6 10 1.0
vt 0.375 0.625
vt 0.4375 0.625
vt 0.4375 0.6875
vt 0.375 0.6875
f 97/97/4 98/98/4 99/99/4 100/100/4
v 7 10 1.0
v 7 10 0.0
v 7 11 0.0
v 7 11 1.0
vt 0.375 0.625
vt 0.4375 0.625
vt 0.4375 0.6875
vt 0.375 0.6875
f 101/101/5 102/102/5 103/103/5 104/104/5
v 2 9 1.0
v 3 9 1.0
v 3 10 1.0
v 2 10 1.0
vt 0.125 0.5625
vt 0.1875 0.5625
vt 0.1875 0.625
vt 0.125 0.625
f 105/105/1 106/106/1 107/107/1 108/108/1
v 3 9 0.0
v 2 9 0.0
v 2 10 0.0
v 3 10 0.0
vt 0.1875 0.5625
vt 0.125 0.5625
vt 0.125 0.625
vt 0.1875 0.625
f 109/109/2 110/110/2 111/111/2 112/112/2
v 2 10 1.0
v 3 10 1.0
v 3 10 0.0
v 2 10 0.0
vt 0.125 0.5625
vt 0.1875 0.5625
vt 0.1875 0.625
vt 0.125 0.625
f 113/113/3 114/114/3 115/115/3 116/116/3
v 2 9 0.0
v 2 9 1.0
v 2 10 1.0
v 2 10 0.0
vt 0.125 0.5625
vt 0.1875 0.5625
vt 0.1875 0.625
vt 0.125 0.625
f 117/117/6 118/118/6 119/119/6 120/120/6
v 3 9 1.0
v 4 9 1.0
v 4 10 1.0
v 3 10 1.0
vt 0.1875 0.5625
vt 0.25 0.5625
vt 0.25 0.625
vt 0.1875 0.625
f 121/121/1 122/122/1 123/123/1 124/124/1
v 4 9 0.0
v 3 9 0.0
v 3 10 0.0
v 4 10 0.0
vt 0.25 0.5625
vt 0.1875 0.5625
vt 0.1875 0.625
vt 0.25 0.625
f 125/125/2 126/126/2 127/127/2 128/128/2
v 3 9 0.0
v 4 9 0.0
v 4 9 1.0
v 3 9 1.0
vt 0.1875 0.5625
vt 0.25 0.5625
vt 0.25 0.625
vt 0.1875 0.625
f 129/129/4 130/130/4 131/131/4 132/132/4
v 4 9 1.0
v 5 9 1.0
v 5 10 1.0
v 4 10 1.0
vt 0.25 0.5625
vt 0.3125 0.5625
vt 0.3125 0.625
vt 0.25 0.625
f 133/133/1 134/134/1 135/135/1 136/136/1
v 5 9 0.0
v 4 9 0.0
v 4 10 0.0
v 5 10 0.0
vt 0.3125 0.5625
vt 0.25 0.5625
vt 0.25 0.625
vt 0.3125 0.625
f 137/137/2 138/138/2 139/139/2 140/140/2
v 4 9 0.0
v 5 9 0.0
v 5 9 1.0
v 4 9 1.0
vt 0.25 0.5625
vt 0.3125 0.5625
vt 0.3125 0.625
vt 0.25 0.625
f 141/141/4 142/142/4 143/143/4 144/144/4
v 5 9 1.0
v 5 9 0.0
v 5 10 0.0
v 5 10 1.0
vt 0.25 0.5625
vt 0.3125 0.5625
vt 0.3125 0.625
vt 0.25 0.625
f 145/145/5 146/146/5 147/147/5 148/148/5
v 1 8 1.0
v 2 8 1.0
v 2 9 1.0
v 1 9 1.0
vt 0.0625 0.5
vt 0.125 0.5
vt 0.125 0.5625
vt 0.0625 0.5625
f 149/149/1 150/150/1 151/151/1 152/152/1
v 2 8 0.0
v 1 8 0.0
v 1 9 0.0
v 2 9 0.0
vt 0.125 0.5
vt 0.0625 0.5
vt 0.0625 0.5625
vt 0.125 0.5625
f 153/153/2 154/154/2 155/155/2 156/156/2
v 1 9 1.0
v 2 9 1.0
v 2 9 0.0
v 1 9 0.0
vt 0.0625 0.5
vt 0.125 0.5
vt 0.125 0.5625
vt 0.0625 0.5625
f 157/157/3 158/158/3 159/159/3 160/160/3
v 1 8 0.0
v 2 8 0.0
v 2 8 1.0
v 1 8 1.0
vt 0.0625 0.5
vt 0.125 0.5
vt 0.125 0.5625
vt 0.0625 0.5625
f 161/161/4 162/162/4 163/163/4 164/164/4
v 1 8 0.0
v 1 8 1.0
v 1 9 1.0
v 1 9 0.0
vt 0.0625 0.5
vt 0.125 0.5
vt 0.125 0.5625
vt 0.0625 0.5625
f 165/165/6 166/166/6 167/167/6 168/168/6
v 2 8 1.0
v 3 8 1.0
v 3 9 1.0
v 2 9 1.0
vt 0.125 0.5
vt 0.1875 0.5
vt 0.1875 0.5625
vt 0.125 0.5625
f 169/169/1 170/170/1 171/171/1 172/172/1
v 3 8 0.0
v 2 8 0.0
v 2 9 0.0
v 3 9 0.0
vt 0.1875 0.5
vt 0.125 0.5
vt 0.125 0.5625
vt 0.1875 0.5625
f 173/173/2 174/174/2 175/175/2 176/176/2
v 2 8 0.0
v 3 8 0.0
v 3 8 1.0
v 2 8 1.0
vt 0.125 0.5
vt 0.1875 0.5
vt 0.1875 0.5625
vt 0.125 0.5625
f 177/177/4 178/178/4 179/179/4 180/180/4
v 3 8 1.0
v 3 8 0.0
v 3 9 0.0
v 3 9 1.0
vt 0.125 0.5
vt 0.1875 0.5
vt 0.1875 0.5625
vt 0.125 0.5625
f 181/181/5 182/182/5 183/183/5 184/184/5
o mesh_mask_2
usemtl mat_南瓜派
v 8 11 1.0
v 9 11 1.0
v 9 12 1.0
v 8 12 1.0
vt 0.5 0.6875
vt 0.5625 0.6875
vt 0.5625 0.75
vt 0.5 0.75
f 185/185/1 186/186/1 187/187/1 188/188/1
v 9 11 0.0
v 8 11 0.0
v 8 12 0.0
v 9 12 0.0
vt 0.5625 0.6875
vt 0.5 0.6875
vt 0.5 0.75
vt 0.5625 0.75
f 189/189/2 190/190/2 191/191/2 192/192/2
v 8 12 1.0
v 9 12 1.0
v 9 12 0.0
v 8 12 0.0
vt 0.5 0.6875
vt 0.5625 0.6875
vt 0.5625 0.75
vt 0.5 0.75
f 193/193/3 194/194/3 195/195/3 196/196/3
v 8 11 0.0
v 8 11 1.0
v 8 12 1.0
v 8 12 0.0
vt 0.5 0.6875
vt 0.5625 0.6875
vt 0.5625 0.75
vt 0.5 0.75
f 197/197/6 198/198/6 199/199/6 200/200/6
v 9 11 1.0
v 10 11 1.0
v 10 12 1.0
v 9 12 1.0
vt 0.5625 0.6875
vt 0.625 0.6875
vt 0.625 0.75
vt 0.5625 0.75
f 201/201/1 202/202/1 203/203/1 204/204/1
v 10 11 0.0
v 9 11 0.0
v 9 12 0.0
v 10 12 0.0
vt 0.625 0.6875
vt 0.5625 0.6875
vt 0.5625 0.75
vt 0.625 0.75
f 205/205/2 206/206/2 207/207/2 208/208/2
v 9 12 1.0
v 10 12 1.0
v 10 12 0.0
v 9 12 0.0
vt 0.5625 0.6875
vt 0.625 0.6875
vt 0.625 0.75
vt 0.5625 0.75
f 209/209/3 210/210/3 211/211/3 212/212/3
v 10 11 1.0
v 11 11 1.0
v 11 12 1.0
v 10 12 1.0
vt 0.625 0.6875
vt 0.6875 0.6875
vt 0.6875 0.75
vt 0.625 0.75
f 213/213/1 214/214/1 215/215/1 216/216/1
v 11 11 0.0
v 10 11 0.0
v 10 12 0.0
v 11 12 0.0
vt 0.6875 0.6875
vt 0.625 0.6875
vt 0.625 0.75
vt 0.6875 0.75
f 217/217/2 218/218/2 219/219/2 220/220/2
v 10 12 1.0
v 11 12 1.0
v 11 12 0.0
v 10 12 0.0
vt 0.625 0.6875
vt 0.6875 0.6875
vt 0.6875 0.75
vt 0.625 0.75
f 221/221/3 222/222/3 223/223/3 224/224/3
v 11 11 1.0
v 11 11 0.0
v 11 12 0.0
v 11 12 1.0
vt 0.625 0.6875
vt 0.6875 0.6875
vt 0.6875 0.75
vt 0.625 0.75
f 225/225/5 226/226/5 227/227/5 228/228/5
v 8 10 1.0
v 9 10 1.0
v 9 11 1.0
v 8 11 1.0
vt 0.5 0.625
vt 0.5625 0.625
vt 0.5625 0.6875
vt 0.5 0.6875
f 229/229/1 230/230/1 231/231/1 232/232/1
v 9 10 0.0
v 8 10 0.0
v 8 11 0.0
v 9 11 0.0
vt 0.5625 0.625
vt 0.5 0.625
vt 0.5 0.6875
vt 0.5625 0.6875
f 233/233/2 234/234/2 235/235/2 236/236/2
v 8 10 0.0
v 9 10 0.0
v 9 10 1.0
v 8 10 1.0
vt 0.5 0.625
vt 0.5625 0.625
vt 0.5625 0.6875
vt 0.5 0.6875
f 237/237/4 238/238/4 239/239/4 240/240/4
v 8 10 0.0
v 8 10 1.0
v 8 11 1.0
v 8 11 0.0
vt 0.5 0.625
vt 0.5625 0.625
vt 0.5625 0.6875
vt 0.5 0.6875
f 241/241/6 242/242/6 243/243/6 244/244/6
v 9 10 1.0
v 10 10 1.0
v 10 11 1.0
v 9 11 1.0
vt 0.5625 0.625
vt 0.625 0.625
vt 0.625 0.6875
vt 0.5625 0.6875
f 245/245/1 246/246/1 247/247/1 248/248/1
v 10 10 0.0
v 9 10 0.0
v 9 11 0.0
v 10 11 0.0
vt 0.625 0.625
vt 0.5625 0.625
vt 0.5625 0.6875
vt 0.625 0.6875
f 249/249/2 250/250/2 251/251/2 252/252/2
v 10 10 1.0
v 11 10 1.0
v 11 11 1.0
v 10 11 1.0
vt 0.625 0.625
vt 0.6875 0.625
vt 0.6875 0.6875
vt 0.625 0.6875
f 253/253/1 254/254/1 255/255/1 256/256/1
v 11 10 0.0
v 10 10 0.0
v 10 11 0.0
v 11 11 0.0
vt 0.6875 0.625
vt 0.625 0.625
vt 0.625 0.6875
vt 0.6875 0.6875
f 257/257/2 258/258/2 259/259/2 260/260/2
v 11 10 1.0
v 12 10 1.0
v 12 11 1.0
v 11 11 1.0
vt 0.6875 0.625
vt 0.75 0.625
vt 0.75 0.6875
vt 0.6875 0.6875
f 261/261/1 262/262/1 263/263/1 264/264/1
v 12 10 0.0
v 11 10 0.0
v 11 11 0.0
v 12 11 0.0
vt 0.75 0.625
vt 0.6875 0.625
vt 0.6875 0.6875
vt 0.75 0.6875
f 265/265/2 266/266/2 267/267/2 268/268/2
v 11 11 1.0
v 12 11 1.0
v 12 11 0.0
v 11 11 0.0
vt 0.6875 0.625
vt 0.75 0.625
vt 0.75 0.6875
vt 0.6875 0.6875
f 269/269/3 270/270/3 271/271/3 272/272/3
v 12 10 1.0
v 13 10 1.0
v 13 11 1.0
v 12 11 1.0
vt 0.75 0.625
vt 0.8125 0.625
vt 0.8125 0.6875
vt 0.75 0.6875
f 273/273/1 274/274/1 275/275/1 276/276/1
v 13 10 0.0
v 12 10 0.0
v 12 11 0.0
v 13 11 0.0
vt 0.8125 0.625
vt 0.75 0.625
vt 0.75 0.6875
vt 0.8125 0.6875
f 277/277/2 278/278/2 279/279/2 280/280/2
v 12 11 1.0
v 13 11 1.0
v 13 11 0.0
v 12 11 0.0
vt 0.75 0.625
vt 0.8125 0.625
vt 0.8125 0.6875
vt 0.75 0.6875
f 281/281/3 282/282/3 283/283/3 284/284/3
v 13 10 1.0
v 13 10 0.0
v 13 11 0.0
v 13 11 1.0
vt 0.75 0.625
vt 0.8125 0.625
vt 0.8125 0.6875
vt 0.75 0.6875
f 285/285/5 286/286/5 287/287/5 288/288/5
v 9 9 1.0
v 10 9 1.0
v 10 10 1.0
v 9 10 1.0
vt 0.5625 0.5625
vt 0.625 0.5625
vt 0.625 0.625
vt 0.5625 0.625
f 289/289/1 290/290/1 291/291/1 292/292/1
v 10 9 0.0
v 9 9 0.0
v 9 10 0.0
v 10 10 0.0
vt 0.625 0.5625
vt 0.5625 0.5625
vt 0.5625 0.625
vt 0.625 0.625
f 293/293/2 294/294/2 295/295/2 296/296/2
v 9 9 0.0
v 10 9 0.0
v 10 9 1.0
v 9 9 1.0
vt 0.5625 0.5625
vt 0.625 0.5625
vt 0.625 0.625
vt 0.5625 0.625
f 297/297/4 298/298/4 299/299/4 300/300/4
v 9 9 0.0
v 9 9 1.0
v 9 10 1.0
v 9 10 0.0
vt 0.5625 0.5625
vt 0.625 0.5625
vt 0.625 0.625
vt 0.5625 0.625
f 301/301/6 302/302/6 303/303/6 304/304/6
v 10 9 1.0
v 11 9 1.0
v 11 10 1.0
v 10 10 1.0
vt 0.625 0.5625
vt 0.6875 0.5625
vt 0.6875 0.625
vt 0.625 0.625
f 305/305/1 306/306/1 307/307/1 308/308/1
v 11 9 0.0
v 10 9 0.0
v 10 10 0.0
v 11 10 0.0
vt 0.6875 0.5625
vt 0.625 0.5625
vt 0.625 0.625
vt 0.6875 0.625
f 309/309/2 310/310/2 311/311/2 312/312/2
v 11 9 1.0
v 12 9 1.0
v 12 10 1.0
v 11 10 1.0
vt 0.6875 0.5625
vt 0.75 0.5625
vt 0.75 0.625
vt 0.6875 0.625
f 313/313/1 314/314/1 315/315/1 316/316/1
v 12 9 0.0
v 11 9 0.0
v 11 10 0.0
v 12 10 0.0
vt 0.75 0.5625
vt 0.6875 0.5625
vt 0.6875 0.625
vt 0.75 0.625
f 317/317/2 318/318/2 319/319/2 320/320/2
v 12 9 1.0
v 13 9 1.0
v 13 10 1.0
v 12 10 1.0
vt 0.75 0.5625
vt 0.8125 0.5625
vt 0.8125 0.625
vt 0.75 0.625
f 321/321/1 322/322/1 323/323/1 324/324/1
v 13 9 0.0
v 12 9 0.0
v 12 10 0.0
v 13 10 0.0
vt 0.8125 0.5625
vt 0.75 0.5625
vt 0.75 0.625
vt 0.8125 0.625
f 325/325/2 326/326/2 327/327/2 328/328/2
v 13 9 1.0
v 14 9 1.0
v 14 10 1.0
v 13 10 1.0
vt 0.8125 0.5625
vt 0.875 0.5625
vt 0.875 0.625
vt 0.8125 0.625
f 329/329/1 330/330/1 331/331/1 332/332/1
v 14 9 0.0
v 13 9 0.0
v 13 10 0.0
v 14 10 0.0
vt 0.875 0.5625
vt 0.8125 0.5625
vt 0.8125 0.625
vt 0.875 0.625
f 333/333/2 334/334/2 335/335/2 336/336/2
v 13 10 1.0
v 14 10 1.0
v 14 10 0.0
v 13 10 0.0
vt 0.8125 0.5625
vt 0.875 0.5625
vt 0.875 0.625
vt 0.8125 0.625
f 337/337/3 338/338/3 339/339/3 340/340/3
v 14 9 1.0
v 14 9 0.0
v 14 10 0.0
v 14 10 1.0
vt 0.8125 0.5625
vt 0.875 0.5625
vt 0.875 0.625
vt 0.8125 0.625
f 341/341/5 342/342/5 343/343/5 344/344/5
v 10 8 1.0
v 11 8 1.0
v 11 9 1.0
v 10 9 1.0
vt 0.625 0.5
vt 0.6875 0.5
vt 0.6875 0.5625
vt 0.625 0.5625
f 345/345/1 346/346/1 347/347/1 348/348/1
v 11 8 0.0
v 10 8 0.0
v 10 9 0.0
v 11 9 0.0
vt 0.6875 0.5
vt 0.625 0.5
vt 0.625 0.5625
vt 0.6875 0.5625
f 349/349/2 350/350/2 351/351/2 352/352/2
v 10 8 0.0
v 11 8 0.0
v 11 8 1.0
v 10 8 1.0
vt 0.625 0.5
vt 0.6875 0.5
vt 0.6875 0.5625
vt 0.625 0.5625
f 353/353/4 354/354/4 355/355/4 356/356/4
v 10 8 0.0
v 10 8 1.0
v 10 9 1.0
v 10 9 0.0
vt 0.625 0.5
vt 0.6875 0.5
vt 0.6875 0.5625
vt 0.625 0.5625
f 357/357/6 358/358/6 359/359/6 360/360/6
v 11 8 1.0
v 12 8 1.0
v 12 9 1.0
v 11 9 1.0
vt 0.6875 0.5
vt 0.75 0.5
vt 0.75 0.5625
vt 0.6875 0.5625
f 361/361/1 362/362/1 363/363/1 364/364/1
v 12 8 0.0
v 11 8 0.0
v 11 9 0.0
v 12 9 0.0
vt 0.75 0.5
vt 0.6875 0.5
vt 0.6875 0.5625
vt 0.75 0.5625
f 365/365/2 366/366/2 367/367/2 368/368/2
v 12 8 1.0
v 13 8 1.0
v 13 9 1.0
v 12 9 1.0
vt 0.75 0.5
vt 0.8125 0.5
vt 0.8125 0.5625
vt 0.75 0.5625
f 369/369/1 370/370/1 371/371/1 372/372/1
v 13 8 0.0
v 12 8 0.0
v 12 9 0.0
v 13 9 0.0
vt 0.8125 0.5
vt 0.75 0.5
vt 0.75 0.5625
vt 0.8125 0.5625
f 373/373/2 374/374/2 375/375/2 376/376/2
v 13 8 1.0
v 14 8 1.0
v 14 9 1.0
v 13 9 1.0
vt 0.8125 0.5
vt 0.875 0.5
vt 0.875 0.5625
vt 0.8125 0.5625
f 377/377/1 378/378/1 379/379/1 380/380/1
v 14 8 0.0
v 13 8 0.0
v 13 9 0.0
v 14 9 0.0
vt 0.875 0.5
vt 0.8125 0.5
vt 0.8125 0.5625
vt 0.875 0.5625
f 381/381/2 382/382/2 383/383/2 384/384/2
v 14 8 1.0
v 15 8 1.0
v 15 9 1.0
v 14 9 1.0
vt 0.875 0.5
vt 0.9375 0.5
vt 0.9375 0.5625
vt 0.875 0.5625
f 385/385/1 386/386/1 387/387/1 388/388/1
v 15 8 0.0
v 14 8 0.0
v 14 9 0.0
v 15 9 0.0
vt 0.9375 0.5
vt 0.875 0.5
vt 0.875 0.5625
vt 0.9375 0.5625
f 389/389/2 390/390/2 391/391/2 392/392/2
v 14 9 1.0
v 15 9 1.0
v 15 9 0.0
v 14 9 0.0
vt 0.875 0.5
vt 0.9375 0.5
vt 0.9375 0.5625
vt 0.875 0.5625
f 393/393/3 394/394/3 395/395/3 396/396/3
v 15 8 1.0
v 15 8 0.0
v 15 9 0.0
v 15 9 1.0
vt 0.875 0.5
vt 0.9375 0.5
vt 0.9375 0.5625
vt 0.875 0.5625
f 397/397/5 398/398/5 399/399/5 400/400/5
v 11 7 1.0
v 12 7 1.0
v 12 8 1.0
v 11 8 1.0
vt 0.6875 0.4375
vt 0.75 0.4375
vt 0.75 0.5
vt 0.6875 0.5
f 401/401/1 402/402/1 403/403/1 404/404/1
v 12 7 0.0
v 11 7 0.0
v 11 8 0.0
v 12 8 0.0
vt 0.75 0.4375
vt 0.6875 0.4375
vt 0.6875 0.5
vt 0.75 0.5
f 405/405/2 406/406/2 407/407/2 408/408/2
v 11 7 0.0
v 12 7 0.0
v 12 7 1.0
v 11 7 1.0
vt 0.6875 0.4375
vt 0.75 0.4375
vt 0.75 0.5
vt 0.6875 0.5
f 409/409/4 410/410/4 411/411/4 412/412/4
v 11 7 0.0
v 11 7 1.0
v 11 8 1.0
v 11 8 0.0
vt 0.6875 0.4375
vt 0.75 0.4375
vt 0.75 0.5
vt 0.6875 0.5
f 413/413/6 414/414/6 415/415/6 416/416/6
v 12 7 1.0
v 13 7 1.0
v 13 8 1.0
v 12 8 1.0
vt 0.75 0.4375
vt 0.8125 0.4375
vt 0.8125 0.5
vt 0.75 0.5
f 417/417/1 418/418/1 419/419/1 420/420/1
v 13 7 0.0
v 12 7 0.0
v 12 8 0.0
v 13 8 0.0
vt 0.8125 0.4375
vt 0.75 0.4375
vt 0.75 0.5
vt 0.8125 0.5
f 421/421/2 422/422/2 423/423/2 424/424/2
v 12 7 0.0
v 13 7 0.0
v 13 7 1.0
v 12 7 1.0
vt 0.75 0.4375
vt 0.8125 0.4375
vt 0.8125 0.5
vt 0.75 0.5
f 425/425/4 426/426/4 427/427/4 428/428/4
v 13 7 1.0
v 14 7 1.0
v 14 8 1.0
v 13 8 1.0
vt 0.8125 0.4375
vt 0.875 0.4375
vt 0.875 0.5
vt 0.8125 0.5
f 429/429/1 430/430/1 431/431/1 432/432/1
v 14 7 0.0
v 13 7 0.0
v 13 8 0.0
v 14 8 0.0
vt 0.875 0.4375
vt 0.8125 0.4375
vt 0.8125 0.5
vt 0.875 0.5
f 433/433/2 434/434/2 435/435/2 436/436/2
v 13 7 0.0
v 14 7 0.0
v 14 7 1.0
v 13 7 1.0
vt 0.8125 0.4375
vt 0.875 0.4375
vt 0.875 0.5
vt 0.8125 0.5
f 437/437/4 438/438/4 439/439/4 440/440/4
v 14 7 1.0
v 15 7 1.0
v 15 8 1.0
v 14 8 1.0
vt 0.875 0.4375
vt 0.9375 0.4375
vt 0.9375 0.5
vt 0.875 0.5
f 441/441/1 442/442/1 443/443/1 444/444/1
v 15 7 0.0
v 14 7 0.0
v 14 8 0.0
v 15 8 0.0
vt 0.9375 0.4375
vt 0.875 0.4375
vt 0.875 0.5
vt 0.9375 0.5
f 445/445/2 446/446/2 447/447/2 448/448/2
v 15 7 1.0
v 15 7 0.0
v 15 8 0.0
v 15 8 1.0
vt 0.875 0.4375
vt 0.9375 0.4375
vt 0.9375 0.5
vt 0.875 0.5
f 449/449/5 450/450/5 451/451/5 452/452/5
v 14 6 1.0
v 15 6 1.0
v 15 7 1.0
v 14 7 1.0
vt 0.875 0.375
vt 0.9375 0.375
vt 0.9375 0.4375
vt 0.875 0.4375
f 453/453/1 454/454/1 455/455/1 456/456/1
v 15 6 0.0
v 14 6 0.0
v 14 7 0.0
v 15 7 0.0
vt 0.9375 0.375
vt 0.875 0.375
vt 0.875 0.4375
vt 0.9375 0.4375
f 457/457/2 458/458/2 459/459/2 460/460/2
v 14 6 0.0
v 15 6 0.0
v 15 6 1.0
v 14 6 1.0
vt 0.875 0.375
vt 0.9375 0.375
vt 0.9375 0.4375
vt 0.875 0.4375
f 461/461/4 462/462/4 463/463/4 464/464/4
v 15 6 1.0
v 15 6 0.0
v 15 7 0.0
v 15 7 1.0
vt 0.875 0.375
vt 0.9375 0.375
vt 0.9375 0.4375
vt 0.875 0.4375
f 465/465/5 466/466/5 467/467/5 468/468/5
v 14 6 0.0
v 14 6 1.0
v 14 7 1.0
v 14 7 0.0
vt 0.875 0.375
vt 0.9375 0.375
vt 0.9375 0.4375
vt 0.875 0.4375
f 469/469/6 470/470/6 471/471/6 472/472/6
o mesh_mask_3
usemtl mat_南瓜派
v 7 10 1.0
v 8 10 1.0
v 8 11 1.0
v 7 11 1.0
vt 0.4375 0.625
vt 0.5 0.625
vt 0.5 0.6875
vt 0.4375 0.6875
f 473/473/1 474/474/1 475/475/1 476/476/1
v 8 10 0.0
v 7 10 0.0
v 7 11 0.0
v 8 11 0.0
vt 0.5 0.625
vt 0.4375 0.625
vt 0.4375 0.6875
vt 0.5 0.6875
f 477/477/2 478/478/2 479/479/2 480/480/2
v 7 11 1.0
v 8 11 1.0
v 8 11 0.0
v 7 11 0.0
vt 0.4375 0.625
vt 0.5 0.625
vt 0.5 0.6875
vt 0.4375 0.6875
f 481/481/3 482/482/3 483/483/3 484/484/3
v 8 10 1.0
v 8 10 0.0
v 8 11 0.0
v 8 11 1.0
vt 0.4375 0.625
vt 0.5 0.625
vt 0.5 0.6875
vt 0.4375 0.6875
f 485/485/5 486/486/5 487/487/5 488/488/5
v 7 10 0.0
v 7 10 1.0
v 7 11 1.0
v 7 11 0.0
vt 0.4375 0.625
vt 0.5 0.625
vt 0.5 0.6875
vt 0.4375 0.6875
f 489/489/6 490/490/6 491/491/6 492/492/6
v 5 9 1.0
v 6 9 1.0
v 6 10 1.0
v 5 10 1.0
vt 0.3125 0.5625
vt 0.375 0.5625
vt 0.375 0.625
vt 0.3125 0.625
f 493/493/1 494/494/1 495/495/1 496/496/1
v 6 9 0.0
v 5 9 0.0
v 5 10 0.0
v 6 10 0.0
vt 0.375 0.5625
vt 0.3125 0.5625
vt 0.3125 0.625
vt 0.375 0.625
f 497/497/2 498/498/2 499/499/2 500/500/2
v 5 10 1.0
v 6 10 1.0
v 6 10 0.0
v 5 10 0.0
vt 0.3125 0.5625
vt 0.375 0.5625
vt 0.375 0.625
vt 0.3125 0.625
f 501/501/3 502/502/3 503/503/3 504/504/3
v 5 9 0.0
v 5 9 1.0
v 5 10 1.0
v 5 10 0.0
vt 0.3125 0.5625
vt 0.375 0.5625
vt 0.375 0.625
vt 0.3125 0.625
f 505/505/6 506/506/6 507/507/6 508/508/6
v 6 9 1.0
v 7 9 1.0
v 7 10 1.0
v 6 10 1.0
vt 0.375 0.5625
vt 0.4375 0.5625
vt 0.4375 0.625
vt 0.375 0.625
f 509/509/1 510/510/1 511/511/1 512/512/1
v 7 9 0.0
v 6 9 0.0
v 6 10 0.0
v 7 10 0.0
vt 0.4375 0.5625
vt 0.375 0.5625
vt 0.375 0.625
vt 0.4375 0.625
f 513/513/2 514/514/2 515/515/2 516/516/2
v 6 10 1.0
v 7 10 1.0
v 7 10 0.0
v 6 10 0.0
vt 0.375 0.5625
vt 0.4375 0.5625
vt 0.4375 0.625
vt 0.375 0.625
f 517/517/3 518/518/3 519/519/3 520/520/3
v 7 9 1.0
v 8 9 1.0
v 8 10 1.0
v 7 10 1.0
vt 0.4375 0.5625
vt 0.5 0.5625
vt 0.5 0.625
vt 0.4375 0.625
f 521/521/1 522/522/1 523/523/1 524/524/1
v 8 9 0.0
v 7 9 0.0
v 7 10 0.0
v 8 10 0.0
vt 0.5 0.5625
vt 0.4375 0.5625
vt 0.4375 0.625
vt 0.5 0.625
f 525/525/2 526/526/2 527/527/2 528/528/2
v 8 9 1.0
v 9 9 1.0
v 9 10 1.0
v 8 10 1.0
vt 0.5 0.5625
vt 0.5625 0.5625
vt 0.5625 0.625
vt 0.5 0.625
f 529/529/1 530/530/1 531/531/1 532/532/1
v 9 9 0.0
v 8 9 0.0
v 8 10 0.0
v 9 10 0.0
vt 0.5625 0.5625
vt 0.5 0.5625
vt 0.5 0.625
vt 0.5625 0.625
f 533/533/2 534/534/2 535/535/2 536/536/2
v 8 10 1.0
v 9 10 1.0
v 9 10 0.0
v 8 10 0.0
vt 0.5 0.5625
vt 0.5625 0.5625
vt 0.5625 0.625
vt 0.5 0.625
f 537/537/3 538/538/3 539/539/3 540/540/3
v 9 9 1.0
v 9 9 0.0
v 9 10 0.0
v 9 10 1.0
vt 0.5 0.5625
vt 0.5625 0.5625
vt 0.5625 0.625
vt 0.5 0.625
f 541/541/5 542/542/5 543/543/5 544/544/5
v 3 8 1.0
v 4 8 1.0
v 4 9 1.0
v 3 9 1.0
vt 0.1875 0.5
vt 0.25 0.5
vt 0.25 0.5625
vt 0.1875 0.5625
f 545/545/1 546/546/1 547/547/1 548/548/1
v 4 8 0.0
v 3 8 0.0
v 3 9 0.0
v 4 9 0.0
vt 0.25 0.5
vt 0.1875 0.5
vt 0.1875 0.5625
vt 0.25 0.5625
f 549/549/2 550/550/2 551/551/2 552/552/2
v 3 9 1.0
v 4 9 1.0
v 4 9 0.0
v 3 9 0.0
vt 0.1875 0.5
vt 0.25 0.5
vt 0.25 0.5625
vt 0.1875 0.5625
f 553/553/3 554/554/3 555/555/3 556/556/3
v 3 8 0.0
v 3 8 1.0
v 3 9 1.0
v 3 9 0.0
vt 0.1875 0.5
vt 0.25 0.5
vt 0.25 0.5625
vt 0.1875 0.5625
f 557/557/6 558/558/6 559/559/6 560/560/6
v 4 8 1.0
v 5 8 1.0
v 5 9 1.0
v 4 9 1.0
vt 0.25 0.5
vt 0.3125 0.5
vt 0.3125 0.5625
vt 0.25 0.5625
f 561/561/1 562/562/1 563/563/1 564/564/1
v 5 8 0.0
v 4 8 0.0
v 4 9 0.0
v 5 9 0.0
vt 0.3125 0.5
vt 0.25 0.5
vt 0.25 0.5625
vt 0.3125 0.5625
f 565/565/2 566/566/2 567/567/2 568/568/2
v 4 9 1.0
v 5 9 1.0
v 5 9 0.0
v 4 9 0.0
vt 0.25 0.5
vt 0.3125 0.5
vt 0.3125 0.5625
vt 0.25 0.5625
f 569/569/3 570/570/3 571/571/3 572/572/3
v 5 8 1.0
v 6 8 1.0
v 6 9 1.0
v 5 9 1.0
vt 0.3125 0.5
vt 0.375 0.5
vt 0.375 0.5625
vt 0.3125 0.5625
f 573/573/1 574/574/1 575/575/1 576/576/1
v 6 8 0.0
v 5 8 0.0
v 5 9 0.0
v 6 9 0.0
vt 0.375 0.5
vt 0.3125 0.5
vt 0.3125 0.5625
vt 0.375 0.5625
f 577/577/2 578/578/2 579/579/2 580/580/2
v 6 8 1.0
v 7 8 1.0
v 7 9 1.0
v 6 9 1.0
vt 0.375 0.5
vt 0.4375 0.5
vt 0.4375 0.5625
vt 0.375 0.5625
f 581/581/1 582/582/1 583/583/1 584/584/1
v 7 8 0.0
v 6 8 0.0
v 6 9 0.0
v 7 9 0.0
vt 0.4375 0.5
vt 0.375 0.5
vt 0.375 0.5625
vt 0.4375 0.5625
f 585/585/2 586/586/2 587/587/2 588/588/2
v 7 8 1.0
v 8 8 1.0
v 8 9 1.0
v 7 9 1.0
vt 0.4375 0.5
vt 0.5 0.5
vt 0.5 0.5625
vt 0.4375 0.5625
f 589/589/1 590/590/1 591/591/1 592/592/1
v 8 8 0.0
v 7 8 0.0
v 7 9 0.0
v 8 9 0.0
vt 0.5 0.5
vt 0.4375 0.5
vt 0.4375 0.5625
vt 0.5 0.5625
f 593/593/2 594/594/2 595/595/2 596/596/2
v 8 8 1.0
v 9 8 1.0
v 9 9 1.0
v 8 9 1.0
vt 0.5 0.5
vt 0.5625 0.5
vt 0.5625 0.5625
vt 0.5 0.5625
f 597/597/1 598/598/1 599/599/1 600/600/1
v 9 8 0.0
v 8 8 0.0
v 8 9 0.0
v 9 9 0.0
vt 0.5625 0.5
vt 0.5 0.5
vt 0.5 0.5625
vt 0.5625 0.5625
f 601/601/2 602/602/2 603/603/2 604/604/2
v 9 8 1.0
v 10 8 1.0
v 10 9 1.0
v 9 9 1.0
vt 0.5625 0.5
vt 0.625 0.5
vt 0.625 0.5625
vt 0.5625 0.5625
f 605/605/1 606/606/1 607/607/1 608/608/1
v 10 8 0.0
v 9 8 0.0
v 9 9 0.0
v 10 9 0.0
vt 0.625 0.5
vt 0.5625 0.5
vt 0.5625 0.5625
vt 0.625 0.5625
f 609/609/2 610/610/2 611/611/2 612/612/2
v 9 9 1.0
v 10 9 1.0
v 10 9 0.0
v 9 9 0.0
vt 0.5625 0.5
vt 0.625 0.5
vt 0.625 0.5625
vt 0.5625 0.5625
f 613/613/3 614/614/3 615/615/3 616/616/3
v 10 8 1.0
v 10 8 0.0
v 10 9 0.0
v 10 9 1.0
vt 0.5625 0.5
vt 0.625 0.5
vt 0.625 0.5625
vt 0.5625 0.5625
f 617/617/5 618/618/5 619/619/5 620/620/5
v 1 7 1.0
v 2 7 1.0
v 2 8 1.0
v 1 8 1.0
vt 0.0625 0.4375
vt 0.125 0.4375
vt 0.125 0.5
vt 0.0625 0.5
f 621/621/1 622/622/1 623/623/1 624/624/1
v 2 7 0.0
v 1 7 0.0
v 1 8 0.0
v 2 8 0.0
vt 0.125 0.4375
vt 0.0625 0.4375
vt 0.0625 0.5
vt 0.125 0.5
f 625/625/2 626/626/2 627/627/2 628/628/2
v 1 8 1.0
v 2 8 1.0
v 2 8 0.0
v 1 8 0.0
vt 0.0625 0.4375
vt 0.125 0.4375
vt 0.125 0.5
vt 0.0625 0.5
f 629/629/3 630/630/3 631/631/3 632/632/3
v 1 7 0.0
v 1 7 1.0
v 1 8 1.0
v 1 8 0.0
vt 0.0625 0.4375
vt 0.125 0.4375
vt 0.125 0.5
vt 0.0625 0.5
f 633/633/6 634/634/6 635/635/6 636/636/6
v 2 7 1.0
v 3 7 1.0
v 3 8 1.0
v 2 8 1.0
vt 0.125 0.4375
vt 0.1875 0.4375
vt 0.1875 0.5
vt 0.125 0.5
f 637/637/1 638/638/1 639/639/1 640/640/1
v 3 7 0.0
v 2 7 0.0
v 2 8 0.0
v 3 8 0.0
vt 0.1875 0.4375
vt 0.125 0.4375
vt 0.125 0.5
vt 0.1875 0.5
f 641/641/2 642/642/2 643/643/2 644/644/2
v 2 8 1.0
v 3 8 1.0
v 3 8 0.0
v 2 8 0.0
vt 0.125 0.4375
vt 0.1875 0.4375
vt 0.1875 0.5
vt 0.125 0.5
f 645/645/3 646/646/3 647/647/3 648/648/3
v 3 7 1.0
v 4 7 1.0
v 4 8 1.0
v 3 8 1.0
vt 0.1875 0.4375
vt 0.25 0.4375
vt 0.25 0.5
vt 0.1875 0.5
f 649/649/1 650/650/1 651/651/1 652/652/1
v 4 7 0.0
v 3 7 0.0
v 3 8 0.0
v 4 8 0.0
vt 0.25 0.4375
vt 0.1875 0.4375
vt 0.1875 0.5
vt 0.25 0.5
f 653/653/2 654/654/2 655/655/2 656/656/2
v 4 7 1.0
v 5 7 1.0
v 5 8 1.0
v 4 8 1.0
vt 0.25 0.4375
vt 0.3125 0.4375
vt 0.3125 0.5
vt 0.25 0.5
f 657/657/1 658/658/1 659/659/1 660/660/1
v 5 7 0.0
v 4 7 0.0
v 4 8 0.0
v 5 8 0.0
vt 0.3125 0.4375
vt 0.25 0.4375
vt 0.25 0.5
vt 0.3125 0.5
f 661/661/2 662/662/2 663/663/2 664/664/2
v 5 7 1.0
v 6 7 1.0
v 6 8 1.0
v 5 8 1.0
vt 0.3125 0.4375
vt 0.375 0.4375
vt 0.375 0.5
vt 0.3125 0.5
f 665/665/1 666/666/1 667/667/1 668/668/1
v 6 7 0.0
v 5 7 0.0
v 5 8 0.0
v 6 8 0.0
vt 0.375 0.4375
vt 0.3125 0.4375
vt 0.3125 0.5
vt 0.375 0.5
f 669/669/2 670/670/2 671/671/2 672/672/2
v 6 7 1.0
v 7 7 1.0
v 7 8 1.0
v 6 8 1.0
vt 0.375 0.4375
vt 0.4375 0.4375
vt 0.4375 0.5
vt 0.375 0.5
f 673/673/1 674/674/1 675/675/1 676/676/1
v 7 7 0.0
v 6 7 0.0
v 6 8 0.0
v 7 8 0.0
vt 0.4375 0.4375
vt 0.375 0.4375
vt 0.375 0.5
vt 0.4375 0.5
f 677/677/2 678/678/2 679/679/2 680/680/2
v 7 7 1.0
v 8 7 1.0
v 8 8 1.0
v 7 8 1.0
vt 0.4375 0.4375
vt 0.5 0.4375
vt 0.5 0.5
vt 0.4375 0.5
f 681/681/1 682/682/1 683/683/1 684/684/1
v 8 7 0.0
v 7 7 0.0
v 7 8 0.0
v 8 8 0.0
vt 0.5 0.4375
vt 0.4375 0.4375
vt 0.4375 0.5
vt 0.5 0.5
f 685/685/2 686/686/2 687/687/2 688/688/2
v 8 7 1.0
v 9 7 1.0
v 9 8 1.0
v 8 8 1.0
vt 0.5 0.4375
vt 0.5625 0.4375
vt 0.5625 0.5
vt 0.5 0.5
f 689/689/1 690/690/1 691/691/1 692/692/1
v 9 7 0.0
v 8 7 0.0
v 8 8 0.0
v 9 8 0.0
vt 0.5625 0.4375
vt 0.5 0.4375
vt 0.5 0.5
vt 0.5625 0.5
f 693/693/2 694/694/2 695/695/2 696/696/2
v 9 7 1.0
v 10 7 1.0
v 10 8 1.0
v 9 8 1.0
vt 0.5625 0.4375
vt 0.625 0.4375
vt 0.625 0.5
vt 0.5625 0.5
f 697/697/1 698/698/1 699/699/1 700/700/1
v 10 7 0.0
v 9 7 0.0
v 9 8 0.0
v 10 8 0.0
vt 0.625 0.4375
vt 0.5625 0.4375
vt 0.5625 0.5
vt 0.625 0.5
f 701/701/2 702/702/2 703/703/2 704/704/2
v 9 7 0.0
v 10 7 0.0
v 10 7 1.0
v 9 7 1.0
vt 0.5625 0.4375
vt 0.625 0.4375
vt 0.625 0.5
vt 0.5625 0.5
f 705/705/4 706/706/4 707/707/4 708/708/4
v 10 7 1.0
v 10 7 0.0
v 10 8 0.0
v 10 8 1.0
vt 0.5625 0.4375
vt 0.625 0.4375
vt 0.625 0.5
vt 0.5625 0.5
f 709/709/5 710/710/5 711/711/5 712/712/5
v 1 6 1.0
v 2 6 1.0
v 2 7 1.0
v 1 7 1.0
vt 0.0625 0.375
vt 0.125 0.375
vt 0.125 0.4375
vt 0.0625 0.4375
f 713/713/1 714/714/1 715/715/1 716/716/1
v 2 6 0.0
v 1 6 0.0
v 1 7 0.0
v 2 7 0.0
vt 0.125 0.375
vt 0.0625 0.375
vt 0.0625 0.4375
vt 0.125 0.4375
f 717/717/2 718/718/2 719/719/2 720/720/2
v 1 6 0.0
v 1 6 1.0
v 1 7 1.0
v 1 7 0.0
vt 0.0625 0.375
vt 0.125 0.375
vt 0.125 0.4375
vt 0.0625 0.4375
f 721/721/6 722/722/6 723/723/6 724/724/6
v 2 6 1.0
v 3 6 1.0
v 3 7 1.0
v 2 7 1.0
vt 0.125 0.375
vt 0.1875 0.375
vt 0.1875 0.4375
vt 0.125 0.4375
f 725/725/1 726/726/1 727/727/1 728/728/1
v 3 6 0.0
v 2 6 0.0
v 2 7 0.0
v 3 7 0.0
vt 0.1875 0.375
vt 0.125 0.375
vt 0.125 0.4375
vt 0.1875 0.4375
f 729/729/2 730/730/2 731/731/2 732/732/2
v 3 6 1.0
v 4 6 1.0
v 4 7 1.0
v 3 7 1.0
vt 0.1875 0.375
vt 0.25 0.375
vt 0.25 0.4375
vt 0.1875 0.4375
f 733/733/1 734/734/1 735/735/1 736/736/1
v 4 6 0.0
v 3 6 0.0
v 3 7 0.0
v 4 7 0.0
vt 0.25 0.375
vt 0.1875 0.375
vt 0.1875 0.4375
vt 0.25 0.4375
f 737/737/2 738/738/2 739/739/2 740/740/2
v 4 6 1.0
v 5 6 1.0
v 5 7 1.0
v 4 7 1.0
vt 0.25 0.375
vt 0.3125 0.375
vt 0.3125 0.4375
vt 0.25 0.4375
f 741/741/1 742/742/1 743/743/1 744/744/1
v 5 6 0.0
v 4 6 0.0
v 4 7 0.0
v 5 7 0.0
vt 0.3125 0.375
vt 0.25 0.375
vt 0.25 0.4375
vt 0.3125 0.4375
f 745/745/2 746/746/2 747/747/2 748/748/2
v 5 6 1.0
v 6 6 1.0
v 6 7 1.0
v 5 7 1.0
vt 0.3125 0.375
vt 0.375 0.375
vt 0.375 0.4375
vt 0.3125 0.4375
f 749/749/1 750/750/1 751/751/1 752/752/1
v 6 6 0.0
v 5 6 0.0
v 5 7 0.0
v 6 7 0.0
vt 0.375 0.375
vt 0.3125 0.375
vt 0.3125 0.4375
vt 0.375 0.4375
f 753/753/2 754/754/2 755/755/2 756/756/2
v 6 6 1.0
v 7 6 1.0
v 7 7 1.0
v 6 7 1.0
vt 0.375 0.375
vt 0.4375 0.375
vt 0.4375 0.4375
vt 0.375 0.4375
f 757/757/1 758/758/1 759/759/1 760/760/1
v 7 6 0.0
v 6 6 0.0
v 6 7 0.0
v 7 7 0.0
vt 0.4375 0.375
vt 0.375 0.375
vt 0.375 0.4375
vt 0.4375 0.4375
f 761/761/2 762/762/2 763/763/2 764/764/2
v 7 6 1.0
v 8 6 1.0
v 8 7 1.0
v 7 7 1.0
vt 0.4375 0.375
vt 0.5 0.375
vt 0.5 0.4375
vt 0.4375 0.4375
f 765/765/1 766/766/1 767/767/1 768/768/1
v 8 6 0.0
v 7 6 0.0
v 7 7 0.0
v 8 7 0.0
vt 0.5 0.375
vt 0.4375 0.375
vt 0.4375 0.4375
vt 0.5 0.4375
f 769/769/2 770/770/2 771/771/2 772/772/2
v 8 6 1.0
v 9 6 1.0
v 9 7 1.0
v 8 7 1.0
vt 0.5 0.375
vt 0.5625 0.375
vt 0.5625 0.4375
vt 0.5 0.4375
f 773/773/1 774/774/1 775/775/1 776/776/1
v 9 6 0.0
v 8 6 0.0
v 8 7 0.0
v 9 7 0.0
vt 0.5625 0.375
vt 0.5 0.375
vt 0.5 0.4375
vt 0.5625 0.4375
f 777/777/2 778/778/2 779/779/2 780/780/2
v 8 6 0.0
v 9 6 0.0
v 9 6 1.0
v 8 6 1.0
vt 0.5 0.375
vt 0.5625 0.375
vt 0.5625 0.4375
vt 0.5 0.4375
f 781/781/4 782/782/4 783/783/4 784/784/4
v 9 6 1.0
v 9 6 0.0
v 9 7 0.0
v 9 7 1.0
vt 0.5 0.375
vt 0.5625 0.375
vt 0.5625 0.4375
vt 0.5 0.4375
f 785/785/5 786/786/5 787/787/5 788/788/5
v 1 5 1.0
v 2 5 1.0
v 2 6 1.0
v 1 6 1.0
vt 0.0625 0.3125
vt 0.125 0.3125
vt 0.125 0.375
vt 0.0625 0.375
f 789/789/1 790/790/1 791/791/1 792/792/1
v 2 5 0.0
v 1 5 0.0
v 1 6 0.0
v 2 6 0.0
vt 0.125 0.3125
vt 0.0625 0.3125
vt 0.0625 0.375
vt 0.125 0.375
f 793/793/2 794/794/2 795/795/2 796/796/2
v 1 5 0.0
v 1 5 1.0
v 1 6 1.0
v 1 6 0.0
vt 0.0625 0.3125
vt 0.125 0.3125
vt 0.125 0.375
vt 0.0625 0.375
f 797/797/6 798/798/6 799/799/6 800/800/6
v 2 5 1.0
v 3 5 1.0
v 3 6 1.0
v 2 6 1.0
vt 0.125 0.3125
vt 0.1875 0.3125
vt 0.1875 0.375
vt 0.125 0.375
f 801/801/1 802/802/1 803/803/1 804/804/1
v 3 5 0.0
v 2 5 0.0
v 2 6 0.0
v 3 6 0.0
vt 0.1875 0.3125
vt 0.125 0.3125
vt 0.125 0.375
vt 0.1875 0.375
f 805/805/2 806/806/2 807/807/2 808/808/2
v 3 5 1.0
v 4 5 1.0
v 4 6 1.0
v 3 6 1.0
vt 0.1875 0.3125
vt 0.25 0.3125
vt 0.25 0.375
vt 0.1875 0.375
f 809/809/1 810/810/1 811/811/1 812/812/1
v 4 5 0.0
v 3 5 0.0
v 3 6 0.0
v 4 6 0.0
vt 0.25 0.3125
vt 0.1875 0.3125
vt 0.1875 0.375
vt 0.25 0.375
f 813/813/2 814/814/2 815/815/2 816/816/2
v 4 5 1.0
v 5 5 1.0
v 5 6 1.0
v 4 6 1.0
vt 0.25 0.3125
vt 0.3125 0.3125
vt 0.3125 0.375
vt 0.25 0.375
f 817/817/1 818/818/1 819/819/1 820/820/1
v 5 5 0.0
v 4 5 0.0
v 4 6 0.0
v 5 6 0.0
vt 0.3125 0.3125
vt 0.25 0.3125
vt 0.25 0.375
vt 0.3125 0.375
f 821/821/2 822/822/2 823/823/2 824/824/2
v 5 5 1.0
v 6 5 1.0
v 6 6 1.0
v 5 6 1.0
vt 0.3125 0.3125
vt 0.375 0.3125
vt 0.375 0.375
vt 0.3125 0.375
f 825/825/1 826/826/1 827/827/1 828/828/1
v 6 5 0.0
v 5 5 0.0
v 5 6 0.0
v 6 6 0.0
vt 0.375 0.3125
vt 0.3125 0.3125
vt 0.3125 0.375
vt 0.375 0.375
f 829/829/2 830/830/2 831/831/2 832/832/2
v 6 5 1.0
v 7 5 1.0
v 7 6 1.0
v 6 6 1.0
vt 0.375 0.3125
vt 0.4375 0.3125
vt 0.4375 0.375
vt 0.375 0.375
f 833/833/1 834/834/1 835/835/1 836/836/1
v 7 5 0.0
v 6 5 0.0
v 6 6 0.0
v 7 6 0.0
vt 0.4375 0.3125
vt 0.375 0.3125
vt 0.375 0.375
vt 0.4375 0.375
f 837/837/2 838/838/2 839/839/2 840/840/2
v 7 5 1.0
v 8 5 1.0
v 8 6 1.0
v 7 6 1.0
vt 0.4375 0.3125
vt 0.5 0.3125
vt 0.5 0.375
vt 0.4375 0.375
f 841/841/1 842/842/1 843/843/1 844/844/1
v 8 5 0.0
v 7 5 0.0
v 7 6 0.0
v 8 6 0.0
vt 0.5 0.3125
vt 0.4375 0.3125
vt 0.4375 0.375
vt 0.5 0.375
f 845/845/2 846/846/2 847/847/2 848/848/2
v 8 5 1.0
v 8 5 0.0
v 8 6 0.0
v 8 6 1.0
vt 0.4375 0.3125
vt 0.5 0.3125
vt 0.5 0.375
vt 0.4375 0.375
f 849/849/5 850/850/5 851/851/5 852/852/5
v 1 4 1.0
v 2 4 1.0
v 2 5 1.0
v 1 5 1.0
vt 0.0625 0.25
vt 0.125 0.25
vt 0.125 0.3125
vt 0.0625 0.3125
f 853/853/1 854/854/1 855/855/1 856/856/1
v 2 4 0.0
v 1 4 0.0
v 1 5 0.0
v 2 5 0.0
vt 0.125 0.25
vt 0.0625 0.25
vt 0.0625 0.3125
vt 0.125 0.3125
f 857/857/2 858/858/2 859/859/2 860/860/2
v 1 4 0.0
v 2 4 0.0
v 2 4 1.0
v 1 4 1.0
vt 0.0625 0.25
vt 0.125 0.25
vt 0.125 0.3125
vt 0.0625 0.3125
f 861/861/4 862/862/4 863/863/4 864/864/4
v 1 4 0.0
v 1 4 1.0
v 1 5 1.0
v 1 5 0.0
vt 0.0625 0.25
vt 0.125 0.25
vt 0.125 0.3125
vt 0.0625 0.3125
f 865/865/6 866/866/6 867/867/6 868/868/6
v 2 4 1.0
v 3 4 1.0
v 3 5 1.0
v 2 5 1.0
vt 0.125 0.25
vt 0.1875 0.25
vt 0.1875 0.3125
vt 0.125 0.3125
f 869/869/1 870/870/1 871/871/1 872/872/1
v 3 4 0.0
v 2 4 0.0
v 2 5 0.0
v 3 5 0.0
vt 0.1875 0.25
vt 0.125 0.25
vt 0.125 0.3125
vt 0.1875 0.3125
f 873/873/2 874/874/2 875/875/2 876/876/2
v 3 4 1.0
v 4 4 1.0
v 4 5 1.0
v 3 5 1.0
vt 0.1875 0.25
vt 0.25 0.25
vt 0.25 0.3125
vt 0.1875 0.3125
f 877/877/1 878/878/1 879/879/1 880/880/1
v 4 4 0.0
v 3 4 0.0
v 3 5 0.0
v 4 5 0.0
vt 0.25 0.25
vt 0.1875 0.25
vt 0.1875 0.3125
vt 0.25 0.3125
f 881/881/2 882/882/2 883/883/2 884/884/2
v 4 4 1.0
v 5 4 1.0
v 5 5 1.0
v 4 5 1.0
vt 0.25 0.25
vt 0.3125 0.25
vt 0.3125 0.3125
vt 0.25 0.3125
f 885/885/1 886/886/1 887/887/1 888/888/1
v 5 4 0.0
v 4 4 0.0
v 4 5 0.0
v 5 5 0.0
vt 0.3125 0.25
vt 0.25 0.25
vt 0.25 0.3125
vt 0.3125 0.3125
f 889/889/2 890/890/2 891/891/2 892/892/2
v 5 4 1.0
v 6 4 1.0
v 6 5 1.0
v 5 5 1.0
vt 0.3125 0.25
vt 0.375 0.25
vt 0.375 0.3125
vt 0.3125 0.3125
f 893/893/1 894/894/1 895/895/1 896/896/1
v 6 4 0.0
v 5 4 0.0
v 5 5 0.0
v 6 5 0.0
vt 0.375 0.25
vt 0.3125 0.25
vt 0.3125 0.3125
vt 0.375 0.3125
f 897/897/2 898/898/2 899/899/2 900/900/2
v 5 4 0.0
v 6 4 0.0
v 6 4 1.0
v 5 4 1.0
vt 0.3125 0.25
vt 0.375 0.25
vt 0.375 0.3125
vt 0.3125 0.3125
f 901/901/4 902/902/4 903/903/4 904/904/4
v 6 4 1.0
v 7 4 1.0
v 7 5 1.0
v 6 5 1.0
vt 0.375 0.25
vt 0.4375 0.25
vt 0.4375 0.3125
vt 0.375 0.3125
f 905/905/1 906/906/1 907/907/1 908/908/1
v 7 4 0.0
v 6 4 0.0
v 6 5 0.0
v 7 5 0.0
vt 0.4375 0.25
vt 0.375 0.25
vt 0.375 0.3125
vt 0.4375 0.3125
f 909/909/2 910/910/2 911/911/2 912/912/2
v 7 4 1.0
v 8 4 1.0
v 8 5 1.0
v 7 5 1.0
vt 0.4375 0.25
vt 0.5 0.25
vt 0.5 0.3125
vt 0.4375 0.3125
f 913/913/1 914/914/1 915/915/1 916/916/1
v 8 4 0.0
v 7 4 0.0
v 7 5 0.0
v 8 5 0.0
vt 0.5 0.25
vt 0.4375 0.25
vt 0.4375 0.3125
vt 0.5 0.3125
f 917/917/2 918/918/2 919/919/2 920/920/2
v 7 4 0.0
v 8 4 0.0
v 8 4 1.0
v 7 4 1.0
vt 0.4375 0.25
vt 0.5 0.25
vt 0.5 0.3125
vt 0.4375 0.3125
f 921/921/4 922/922/4 923/923/4 924/924/4
v 8 4 1.0
v 8 4 0.0
v 8 5 0.0
v 8 5 1.0
vt 0.4375 0.25
vt 0.5 0.25
vt 0.5 0.3125
vt 0.4375 0.3125
f 925/925/5 926/926/5 927/927/5 928/928/5
v 2 3 1.0
v 3 3 1.0
v 3 4 1.0
v 2 4 1.0
vt 0.125 0.1875
vt 0.1875 0.1875
vt 0.1875 0.25
vt 0.125 0.25
f 929/929/1 930/930/1 931/931/1 932/932/1
v 3 3 0.0
v 2 3 0.0
v 2 4 0.0
v 3 4 0.0
vt 0.1875 0.1875
vt 0.125 0.1875
vt 0.125 0.25
vt 0.1875 0.25
f 933/933/2 934/934/2 935/935/2 936/936/2
v 2 3 0.0
v 3 3 0.0
v 3 3 1.0
v 2 3 1.0
vt 0.125 0.1875
vt 0.1875 0.1875
vt 0.1875 0.25
vt 0.125 0.25
f 937/937/4 938/938/4 939/939/4 940/940/4
v 2 3 0.0
v 2 3 1.0
v 2 4 1.0
v 2 4 0.0
vt 0.125 0.1875
vt 0.1875 0.1875
vt 0.1875 0.25
vt 0.125 0.25
f 941/941/6 942/942/6 943/943/6 944/944/6
v 3 3 1.0
v 4 3 1.0
v 4 4 1.0
v 3 4 1.0
vt 0.1875 0.1875
vt 0.25 0.1875
vt 0.25 0.25
vt 0.1875 0.25
f 945/945/1 946/946/1 947/947/1 948/948/1
v 4 3 0.0
v 3 3 0.0
v 3 4 0.0
v 4 4 0.0
vt 0.25 0.1875
vt 0.1875 0.1875
vt 0.1875 0.25
vt 0.25 0.25
f 949/949/2 950/950/2 951/951/2 952/952/2
v 3 3 0.0
v 4 3 0.0
v 4 3 1.0
v 3 3 1.0
vt 0.1875 0.1875
vt 0.25 0.1875
vt 0.25 0.25
vt 0.1875 0.25
f 953/953/4 954/954/4 955/955/4 956/956/4
v 4 3 1.0
v 5 3 1.0
v 5 4 1.0
v 4 4 1.0
vt 0.25 0.1875
vt 0.3125 0.1875
vt 0.3125 0.25
vt 0.25 0.25
f 957/957/1 958/958/1 959/959/1 960/960/1
v 5 3 0.0
v 4 3 0.0
v 4 4 0.0
v 5 4 0.0
vt 0.3125 0.1875
vt 0.25 0.1875
vt 0.25 0.25
vt 0.3125 0.25
f 961/961/2 962/962/2 963/963/2 964/964/2
v 4 3 0.0
v 5 3 0.0
v 5 3 1.0
v 4 3 1.0
vt 0.25 0.1875
vt 0.3125 0.1875
vt 0.3125 0.25
vt 0.25 0.25
f 965/965/4 966/966/4 967/967/4 968/968/4
v 5 3 1.0
v 5 3 0.0
v 5 4 0.0
v 5 4 1.0
vt 0.25 0.1875
vt 0.3125 0.1875
vt 0.3125 0.25
vt 0.25 0.25
f 969/969/5 970/970/5 971/971/5 972/972/5
v 6 3 1.0
v 7 3 1.0
v 7 4 1.0
v 6 4 1.0
vt 0.375 0.1875
vt 0.4375 0.1875
vt 0.4375 0.25
vt 0.375 0.25
f 973/973/1 974/974/1 975/975/1 976/976/1
v 7 3 0.0
v 6 3 0.0
v 6 4 0.0
v 7 4 0.0
vt 0.4375 0.1875
vt 0.375 0.1875
vt 0.375 0.25
vt 0.4375 0.25
f 977/977/2 978/978/2 979/979/2 980/980/2
v 7 3 1.0
v 7 3 0.0
v 7 4 0.0
v 7 4 1.0
vt 0.375 0.1875
vt 0.4375 0.1875
vt 0.4375 0.25
vt 0.375 0.25
f 981/981/5 982/982/5 983/983/5 984/984/5
v 6 3 0.0
v 6 3 1.0
v 6 4 1.0
v 6 4 0.0
vt 0.375 0.1875
vt 0.4375 0.1875
vt 0.4375 0.25
vt 0.375 0.25
f 985/985/6 986/986/6 987/987/6 988/988/6
v 6 2 1.0
v 7 2 1.0
v 7 3 1.0
v 6 3 1.0
vt 0.375 0.125
vt 0.4375 0.125
vt 0.4375 0.1875
vt 0.375 0.1875
f 989/989/1 990/990/1 991/991/1 992/992/1
v 7 2 0.0
v 6 2 0.0
v 6 3 0.0
v 7 3 0.0
vt 0.4375 0.125
vt 0.375 0.125
vt 0.375 0.1875
vt 0.4375 0.1875
f 993/993/2 994/994/2 995/995/2 996/996/2
v 6 2 0.0
v 7 2 0.0
v 7 2 1.0
v 6 2 1.0
vt 0.375 0.125
vt 0.4375 0.125
vt 0.4375 0.1875
vt 0.375 0.1875
f 997/997/4 998/998/4 999/999/4 1000/1000/4
v 7 2 1.0
v 7 2 0.0
v 7 3 0.0
v 7 3 1.0
vt 0.375 0.125
vt 0.4375 0.125
vt 0.4375 0.1875
vt 0.375 0.1875
f 1001/1001/5 1002/1002/5 1003/1003/5 1004/1004/5
v 6 2 0.0
v 6 2 1.0
v 6 3 1.0
v 6 3 0.0
vt 0.375 0.125
vt 0.4375 0.125
vt 0.4375 0.1875
vt 0.375 0.1875
f 1005/1005/6 1006/1006/6 1007/1007/6 1008/1008/6
o mesh_mask_4
usemtl mat_南瓜派
v 10 7 1.0
v 11 7 1.0
v 11 8 1.0
v 10 8 1.0
vt 0.625 0.4375
vt 0.6875 0.4375
vt 0.6875 0.5
vt 0.625 0.5
f 1009/1009/1 1010/1010/1 1011/1011/1 1012/1012/1
v 11 7 0.0
v 10 7 0.0
v 10 8 0.0
v 11 8 0.0
vt 0.6875 0.4375
vt 0.625 0.4375
vt 0.625 0.5
vt 0.6875 0.5
f 1013/1013/2 1014/1014/2 1015/1015/2 1016/1016/2
v 10 8 1.0
v 11 8 1.0
v 11 8 0.0
v 10 8 0.0
vt 0.625 0.4375
vt 0.6875 0.4375
vt 0.6875 0.5
vt 0.625 0.5
f 1017/1017/3 1018/1018/3 1019/1019/3 1020/1020/3
v 11 7 1.0
v 11 7 0.0
v 11 8 0.0
v 11 8 1.0
vt 0.625 0.4375
vt 0.6875 0.4375
vt 0.6875 0.5
vt 0.625 0.5
f 1021/1021/5 1022/1022/5 1023/1023/5 1024/1024/5
v 10 7 0.0
v 10 7 1.0
v 10 8 1.0
v 10 8 0.0
vt 0.625 0.4375
vt 0.6875 0.4375
vt 0.6875 0.5
vt 0.625 0.5
f 1025/1025/6 1026/1026/6 1027/1027/6 1028/1028/6
v 9 6 1.0
v 10 6 1.0
v 10 7 1.0
v 9 7 1.0
vt 0.5625 0.375
vt 0.625 0.375
vt 0.625 0.4375
vt 0.5625 0.4375
f 1029/1029/1 1030/1030/1 1031/1031/1 1032/1032/1
v 10 6 0.0
v 9 6 0.0
v 9 7 0.0
v 10 7 0.0
vt 0.625 0.375
vt 0.5625 0.375
vt 0.5625 0.4375
vt 0.625 0.4375
f 1033/1033/2 1034/1034/2 1035/1035/2 1036/1036/2
v 9 7 1.0
v 10 7 1.0
v 10 7 0.0
v 9 7 0.0
vt 0.5625 0.375
vt 0.625 0.375
vt 0.625 0.4375
vt 0.5625 0.4375
f 1037/1037/3 1038/1038/3 1039/1039/3 1040/1040/3
v 9 6 0.0
v 9 6 1.0
v 9 7 1.0
v 9 7 0.0
vt 0.5625 0.375
vt 0.625 0.375
vt 0.625 0.4375
vt 0.5625 0.4375
f 1041/1041/6 1042/1042/6 1043/1043/6 1044/1044/6
v 10 6 1.0
v 11 6 1.0
v 11 7 1.0
v 10 7 1.0
vt 0.625 0.375
vt 0.6875 0.375
vt 0.6875 0.4375
vt 0.625 0.4375
f 1045/1045/1 1046/1046/1 1047/1047/1 1048/1048/1
v 11 6 0.0
v 10 6 0.0
v 10 7 0.0
v 11 7 0.0
vt 0.6875 0.375
vt 0.625 0.375
vt 0.625 0.4375
vt 0.6875 0.4375
f 1049/1049/2 1050/1050/2 1051/1051/2 1052/1052/2
v 11 6 1.0
v 12 6 1.0
v 12 7 1.0
v 11 7 1.0
vt 0.6875 0.375
vt 0.75 0.375
vt 0.75 0.4375
vt 0.6875 0.4375
f 1053/1053/1 1054/1054/1 1055/1055/1 1056/1056/1
v 12 6 0.0
v 11 6 0.0
v 11 7 0.0
v 12 7 0.0
vt 0.75 0.375
vt 0.6875 0.375
vt 0.6875 0.4375
vt 0.75 0.4375
f 1057/1057/2 1058/1058/2 1059/1059/2 1060/1060/2
v 11 7 1.0
v 12 7 1.0
v 12 7 0.0
v 11 7 0.0
vt 0.6875 0.375
vt 0.75 0.375
vt 0.75 0.4375
vt 0.6875 0.4375
f 1061/1061/3 1062/1062/3 1063/1063/3 1064/1064/3
v 12 6 1.0
v 13 6 1.0
v 13 7 1.0
v 12 7 1.0
vt 0.75 0.375
vt 0.8125 0.375
vt 0.8125 0.4375
vt 0.75 0.4375
f 1065/1065/1 1066/1066/1 1067/1067/1 1068/1068/1
v 13 6 0.0
v 12 6 0.0
v 12 7 0.0
v 13 7 0.0
vt 0.8125 0.375
vt 0.75 0.375
vt 0.75 0.4375
vt 0.8125 0.4375
f 1069/1069/2 1070/1070/2 1071/1071/2 1072/1072/2
v 12 7 1.0
v 13 7 1.0
v 13 7 0.0
v 12 7 0.0
vt 0.75 0.375
vt 0.8125 0.375
vt 0.8125 0.4375
vt 0.75 0.4375
f 1073/1073/3 1074/1074/3 1075/1075/3 1076/1076/3
v 13 6 1.0
v 14 6 1.0
v 14 7 1.0
v 13 7 1.0
vt 0.8125 0.375
vt 0.875 0.375
vt 0.875 0.4375
vt 0.8125 0.4375
f 1077/1077/1 1078/1078/1 1079/1079/1 1080/1080/1
v 14 6 0.0
v 13 6 0.0
v 13 7 0.0
v 14 7 0.0
vt 0.875 0.375
vt 0.8125 0.375
vt 0.8125 0.4375
vt 0.875 0.4375
f 1081/1081/2 1082/1082/2 1083/1083/2 1084/1084/2
v 13 7 1.0
v 14 7 1.0
v 14 7 0.0
v 13 7 0.0
vt 0.8125 0.375
vt 0.875 0.375
vt 0.875 0.4375
vt 0.8125 0.4375
f 1085/1085/3 1086/1086/3 1087/1087/3 1088/1088/3
v 14 6 1.0
v 14 6 0.0
v 14 7 0.0
v 14 7 1.0
vt 0.8125 0.375
vt 0.875 0.375
vt 0.875 0.4375
vt 0.8125 0.4375
f 1089/1089/5 1090/1090/5 1091/1091/5 1092/1092/5
v 8 5 1.0
v 9 5 1.0
v 9 6 1.0
v 8 6 1.0
vt 0.5 0.3125
vt 0.5625 0.3125
vt 0.5625 0.375
vt 0.5 0.375
f 1093/1093/1 1094/1094/1 1095/1095/1 1096/1096/1
v 9 5 0.0
v 8 5 0.0
v 8 6 0.0
v 9 6 0.0
vt 0.5625 0.3125
vt 0.5 0.3125
vt 0.5 0.375
vt 0.5625 0.375
f 1097/1097/2 1098/1098/2 1099/1099/2 1100/1100/2
v 8 6 1.0
v 9 6 1.0
v 9 6 0.0
v 8 6 0.0
vt 0.5 0.3125
vt 0.5625 0.3125
vt 0.5625 0.375
vt 0.5 0.375
f 1101/1101/3 1102/1102/3 1103/1103/3 1104/1104/3
v 8 5 0.0
v 8 5 1.0
v 8 6 1.0
v 8 6 0.0
vt 0.5 0.3125
vt 0.5625 0.3125
vt 0.5625 0.375
vt 0.5 0.375
f 1105/1105/6 1106/1106/6 1107/1107/6 1108/1108/6
v 9 5 1.0
v 10 5 1.0
v 10 6 1.0
v 9 6 1.0
vt 0.5625 0.3125
vt 0.625 0.3125
vt 0.625 0.375
vt 0.5625 0.375
f 1109/1109/1 1110/1110/1 1111/1111/1 1112/1112/1
v 10 5 0.0
v 9 5 0.0
v 9 6 0.0
v 10 6 0.0
vt 0.625 0.3125
vt 0.5625 0.3125
vt 0.5625 0.375
vt 0.625 0.375
f 1113/1113/2 1114/1114/2 1115/1115/2 1116/1116/2
v 10 5 1.0
v 11 5 1.0
v 11 6 1.0
v 10 6 1.0
vt 0.625 0.3125
vt 0.6875 0.3125
vt 0.6875 0.375
vt 0.625 0.375
f 1117/1117/1 1118/1118/1 1119/1119/1 1120/1120/1
v 11 5 0.0
v 10 5 0.0
v 10 6 0.0
v 11 6 0.0
vt 0.6875 0.3125
vt 0.625 0.3125
vt 0.625 0.375
vt 0.6875 0.375
f 1121/1121/2 1122/1122/2 1123/1123/2 1124/1124/2
v 11 5 1.0
v 12 5 1.0
v 12 6 1.0
v 11 6 1.0
vt 0.6875 0.3125
vt 0.75 0.3125
vt 0.75 0.375
vt 0.6875 0.375
f 1125/1125/1 1126/1126/1 1127/1127/1 1128/1128/1
v 12 5 0.0
v 11 5 0.0
v 11 6 0.0
v 12 6 0.0
vt 0.75 0.3125
vt 0.6875 0.3125
vt 0.6875 0.375
vt 0.75 0.375
f 1129/1129/2 1130/1130/2 1131/1131/2 1132/1132/2
v 12 5 1.0
v 13 5 1.0
v 13 6 1.0
v 12 6 1.0
vt 0.75 0.3125
vt 0.8125 0.3125
vt 0.8125 0.375
vt 0.75 0.375
f 1133/1133/1 1134/1134/1 1135/1135/1 1136/1136/1
v 13 5 0.0
v 12 5 0.0
v 12 6 0.0
v 13 6 0.0
vt 0.8125 0.3125
vt 0.75 0.3125
vt 0.75 0.375
vt 0.8125 0.375
f 1137/1137/2 1138/1138/2 1139/1139/2 1140/1140/2
v 13 5 1.0
v 14 5 1.0
v 14 6 1.0
v 13 6 1.0
vt 0.8125 0.3125
vt 0.875 0.3125
vt 0.875 0.375
vt 0.8125 0.375
f 1141/1141/1 1142/1142/1 1143/1143/1 1144/1144/1
v 14 5 0.0
v 13 5 0.0
v 13 6 0.0
v 14 6 0.0
vt 0.875 0.3125
vt 0.8125 0.3125
vt 0.8125 0.375
vt 0.875 0.375
f 1145/1145/2 1146/1146/2 1147/1147/2 1148/1148/2
v 14 5 1.0
v 15 5 1.0
v 15 6 1.0
v 14 6 1.0
vt 0.875 0.3125
vt 0.9375 0.3125
vt 0.9375 0.375
vt 0.875 0.375
f 1149/1149/1 1150/1150/1 1151/1151/1 1152/1152/1
v 15 5 0.0
v 14 5 0.0
v 14 6 0.0
v 15 6 0.0
vt 0.9375 0.3125
vt 0.875 0.3125
vt 0.875 0.375
vt 0.9375 0.375
f 1153/1153/2 1154/1154/2 1155/1155/2 1156/1156/2
v 14 6 1.0
v 15 6 1.0
v 15 6 0.0
v 14 6 0.0
vt 0.875 0.3125
vt 0.9375 0.3125
vt 0.9375 0.375
vt 0.875 0.375
f 1157/1157/3 1158/1158/3 1159/1159/3 1160/1160/3
v 15 5 1.0
v 15 5 0.0
v 15 6 0.0
v 15 6 1.0
vt 0.875 0.3125
vt 0.9375 0.3125
vt 0.9375 0.375
vt 0.875 0.375
f 1161/1161/5 1162/1162/5 1163/1163/5 1164/1164/5
v 8 4 1.0
v 9 4 1.0
v 9 5 1.0
v 8 5 1.0
vt 0.5 0.25
vt 0.5625 0.25
vt 0.5625 0.3125
vt 0.5 0.3125
f 1165/1165/1 1166/1166/1 1167/1167/1 1168/1168/1
v 9 4 0.0
v 8 4 0.0
v 8 5 0.0
v 9 5 0.0
vt 0.5625 0.25
vt 0.5 0.25
vt 0.5 0.3125
vt 0.5625 0.3125
f 1169/1169/2 1170/1170/2 1171/1171/2 1172/1172/2
v 8 4 0.0
v 8 4 1.0
v 8 5 1.0
v 8 5 0.0
vt 0.5 0.25
vt 0.5625 0.25
vt 0.5625 0.3125
vt 0.5 0.3125
f 1173/1173/6 1174/1174/6 1175/1175/6 1176/1176/6
v 9 4 1.0
v 10 4 1.0
v 10 5 1.0
v 9 5 1.0
vt 0.5625 0.25
vt 0.625 0.25
vt 0.625 0.3125
vt 0.5625 0.3125
f 1177/1177/1 1178/1178/1 1179/1179/1 1180/1180/1
v 10 4 0.0
v 9 4 0.0
v 9 5 0.0
v 10 5 0.0
vt 0.625 0.25
vt 0.5625 0.25
vt 0.5625 0.3125
vt 0.625 0.3125
f 1181/1181/2 1182/1182/2 1183/1183/2 1184/1184/2
v 10 4 1.0
v 11 4 1.0
v 11 5 1.0
v 10 5 1.0
vt 0.625 0.25
vt 0.6875 0.25
vt 0.6875 0.3125
vt 0.625 0.3125
f 1185/1185/1 1186/1186/1 1187/1187/1 1188/1188/1
v 11 4 0.0
v 10 4 0.0
v 10 5 0.0
v 11 5 0.0
vt 0.6875 0.25
vt 0.625 0.25
vt 0.625 0.3125
vt 0.6875 0.3125
f 1189/1189/2 1190/1190/2 1191/1191/2 1192/1192/2
v 11 4 1.0
v 12 4 1.0
v 12 5 1.0
v 11 5 1.0
vt 0.6875 0.25
vt 0.75 0.25
vt 0.75 0.3125
vt 0.6875 0.3125
f 1193/1193/1 1194/1194/1 1195/1195/1 1196/1196/1
v 12 4 0.0
v 11 4 0.0
v 11 5 0.0
v 12 5 0.0
vt 0.75 0.25
vt 0.6875 0.25
vt 0.6875 0.3125
vt 0.75 0.3125
f 1197/1197/2 1198/1198/2 1199/1199/2 1200/1200/2
v 12 4 1.0
v 13 4 1.0
v 13 5 1.0
v 12 5 1.0
vt 0.75 0.25
vt 0.8125 0.25
vt 0.8125 0.3125
vt 0.75 0.3125
f 1201/1201/1 1202/1202/1 1203/1203/1 1204/1204/1
v 13 4 0.0
v 12 4 0.0
v 12 5 0.0
v 13 5 0.0
vt 0.8125 0.25
vt 0.75 0.25
vt 0.75 0.3125
vt 0.8125 0.3125
f 1205/1205/2 1206/1206/2 1207/1207/2 1208/1208/2
v 13 4 1.0
v 14 4 1.0
v 14 5 1.0
v 13 5 1.0
vt 0.8125 0.25
vt 0.875 0.25
vt 0.875 0.3125
vt 0.8125 0.3125
f 1209/1209/1 1210/1210/1 1211/1211/1 1212/1212/1
v 14 4 0.0
v 13 4 0.0
v 13 5 0.0
v 14 5 0.0
vt 0.875 0.25
vt 0.8125 0.25
vt 0.8125 0.3125
vt 0.875 0.3125
f 1213/1213/2 1214/1214/2 1215/1215/2 1216/1216/2
v 14 4 1.0
v 15 4 1.0
v 15 5 1.0
v 14 5 1.0
vt 0.875 0.25
vt 0.9375 0.25
vt 0.9375 0.3125
vt 0.875 0.3125
f 1217/1217/1 1218/1218/1 1219/1219/1 1220/1220/1
v 15 4 0.0
v 14 4 0.0
v 14 5 0.0
v 15 5 0.0
vt 0.9375 0.25
vt 0.875 0.25
vt 0.875 0.3125
vt 0.9375 0.3125
f 1221/1221/2 1222/1222/2 1223/1223/2 1224/1224/2
v 14 4 0.0
v 15 4 0.0
v 15 4 1.0
v 14 4 1.0
vt 0.875 0.25
vt 0.9375 0.25
vt 0.9375 0.3125
vt 0.875 0.3125
f 1225/1225/4 1226/1226/4 1227/1227/4 1228/1228/4
v 15 4 1.0
v 15 4 0.0
v 15 5 0.0
v 15 5 1.0
vt 0.875 0.25
vt 0.9375 0.25
vt 0.9375 0.3125
vt 0.875 0.3125
f 1229/1229/5 1230/1230/5 1231/1231/5 1232/1232/5
v 7 3 1.0
v 8 3 1.0
v 8 4 1.0
v 7 4 1.0
vt 0.4375 0.1875
vt 0.5 0.1875
vt 0.5 0.25
vt 0.4375 0.25
f 1233/1233/1 1234/1234/1 1235/1235/1 1236/1236/1
v 8 3 0.0
v 7 3 0.0
v 7 4 0.0
v 8 4 0.0
vt 0.5 0.1875
vt 0.4375 0.1875
vt 0.4375 0.25
vt 0.5 0.25
f 1237/1237/2 1238/1238/2 1239/1239/2 1240/1240/2
v 7 4 1.0
v 8 4 1.0
v 8 4 0.0
v 7 4 0.0
vt 0.4375 0.1875
vt 0.5 0.1875
vt 0.5 0.25
vt 0.4375 0.25
f 1241/1241/3 1242/1242/3 1243/1243/3 1244/1244/3
v 7 3 0.0
v 7 3 1.0
v 7 4 1.0
v 7 4 0.0
vt 0.4375 0.1875
vt 0.5 0.1875
vt 0.5 0.25
vt 0.4375 0.25
f 1245/1245/6 1246/1246/6 1247/1247/6 1248/1248/6
v 8 3 1.0
v 9 3 1.0
v 9 4 1.0
v 8 4 1.0
vt 0.5 0.1875
vt 0.5625 0.1875
vt 0.5625 0.25
vt 0.5 0.25
f 1249/1249/1 1250/1250/1 1251/1251/1 1252/1252/1
v 9 3 0.0
v 8 3 0.0
v 8 4 0.0
v 9 4 0.0
vt 0.5625 0.1875
vt 0.5 0.1875
vt 0.5 0.25
vt 0.5625 0.25
f 1253/1253/2 1254/1254/2 1255/1255/2 1256/1256/2
v 9 3 1.0
v 10 3 1.0
v 10 4 1.0
v 9 4 1.0
vt 0.5625 0.1875
vt 0.625 0.1875
vt 0.625 0.25
vt 0.5625 0.25
f 1257/1257/1 1258/1258/1 1259/1259/1 1260/1260/1
v 10 3 0.0
v 9 3 0.0
v 9 4 0.0
v 10 4 0.0
vt 0.625 0.1875
vt 0.5625 0.1875
vt 0.5625 0.25
vt 0.625 0.25
f 1261/1261/2 1262/1262/2 1263/1263/2 1264/1264/2
v 10 3 1.0
v 11 3 1.0
v 11 4 1.0
v 10 4 1.0
vt 0.625 0.1875
vt 0.6875 0.1875
vt 0.6875 0.25
vt 0.625 0.25
f 1265/1265/1 1266/1266/1 1267/1267/1 1268/1268/1
v 11 3 0.0
v 10 3 0.0
v 10 4 0.0
v 11 4 0.0
vt 0.6875 0.1875
vt 0.625 0.1875
vt 0.625 0.25
vt 0.6875 0.25
f 1269/1269/2 1270/1270/2 1271/1271/2 1272/1272/2
v 11 3 1.0
v 12 3 1.0
v 12 4 1.0
v 11 4 1.0
vt 0.6875 0.1875
vt 0.75 0.1875
vt 0.75 0.25
vt 0.6875 0.25
f 1273/1273/1 1274/1274/1 1275/1275/1 1276/1276/1
v 12 3 0.0
v 11 3 0.0
v 11 4 0.0
v 12 4 0.0
vt 0.75 0.1875
vt 0.6875 0.1875
vt 0.6875 0.25
vt 0.75 0.25
f 1277/1277/2 1278/1278/2 1279/1279/2 1280/1280/2
v 12 3 1.0
v 13 3 1.0
v 13 4 1.0
v 12 4 1.0
vt 0.75 0.1875
vt 0.8125 0.1875
vt 0.8125 0.25
vt 0.75 0.25
f 1281/1281/1 1282/1282/1 1283/1283/1 1284/1284/1
v 13 3 0.0
v 12 3 0.0
v 12 4 0.0
v 13 4 0.0
vt 0.8125 0.1875
vt 0.75 0.1875
vt 0.75 0.25
vt 0.8125 0.25
f 1285/1285/2 1286/1286/2 1287/1287/2 1288/1288/2
v 13 3 1.0
v 14 3 1.0
v 14 4 1.0
v 13 4 1.0
vt 0.8125 0.1875
vt 0.875 0.1875
vt 0.875 0.25
vt 0.8125 0.25
f 1289/1289/1 1290/1290/1 1291/1291/1 1292/1292/1
v 14 3 0.0
v 13 3 0.0
v 13 4 0.0
v 14 4 0.0
vt 0.875 0.1875
vt 0.8125 0.1875
vt 0.8125 0.25
vt 0.875 0.25
f 1293/1293/2 1294/1294/2 1295/1295/2 1296/1296/2
v 13 3 0.0
v 14 3 0.0
v 14 3 1.0
v 13 3 1.0
vt 0.8125 0.1875
vt 0.875 0.1875
vt 0.875 0.25
vt 0.8125 0.25
f 1297/1297/4 1298/1298/4 1299/1299/4 1300/1300/4
v 14 3 1.0
v 14 3 0.0
v 14 4 0.0
v 14 4 1.0
vt 0.8125 0.1875
vt 0.875 0.1875
vt 0.875 0.25
vt 0.8125 0.25
f 1301/1301/5 1302/1302/5 1303/1303/5 1304/1304/5
v 7 2 1.0
v 8 2 1.0
v 8 3 1.0
v 7 3 1.0
vt 0.4375 0.125
vt 0.5 0.125
vt 0.5 0.1875
vt 0.4375 0.1875
f 1305/1305/1 1306/1306/1 1307/1307/1 1308/1308/1
v 8 2 0.0
v 7 2 0.0
v 7 3 0.0
v 8 3 0.0
vt 0.5 0.125
vt 0.4375 0.125
vt 0.4375 0.1875
vt 0.5 0.1875
f 1309/1309/2 1310/1310/2 1311/1311/2 1312/1312/2
v 7 2 0.0
v 7 2 1.0
v 7 3 1.0
v 7 3 0.0
vt 0.4375 0.125
vt 0.5 0.125
vt 0.5 0.1875
vt 0.4375 0.1875
f 1313/1313/6 1314/1314/6 1315/1315/6 1316/1316/6
v 8 2 1.0
v 9 2 1.0
v 9 3 1.0
v 8 3 1.0
vt 0.5 0.125
vt 0.5625 0.125
vt 0.5625 0.1875
vt 0.5 0.1875
f 1317/1317/1 1318/1318/1 1319/1319/1 1320/1320/1
v 9 2 0.0
v 8 2 0.0
v 8 3 0.0
v 9 3 0.0
vt 0.5625 0.125
vt 0.5 0.125
vt 0.5 0.1875
vt 0.5625 0.1875
f 1321/1321/2 1322/1322/2 1323/1323/2 1324/1324/2
v 9 2 1.0
v 10 2 1.0
v 10 3 1.0
v 9 3 1.0
vt 0.5625 0.125
vt 0.625 0.125
vt 0.625 0.1875
vt 0.5625 0.1875
f 1325/1325/1 1326/1326/1 1327/1327/1 1328/1328/1
v 10 2 0.0
v 9 2 0.0
v 9 3 0.0
v 10 3 0.0
vt 0.625 0.125
vt 0.5625 0.125
vt 0.5625 0.1875
vt 0.625 0.1875
f 1329/1329/2 1330/1330/2 1331/1331/2 1332/1332/2
v 10 2 1.0
v 11 2 1.0
v 11 3 1.0
v 10 3 1.0
vt 0.625 0.125
vt 0.6875 0.125
vt 0.6875 0.1875
vt 0.625 0.1875
f 1333/1333/1 1334/1334/1 1335/1335/1 1336/1336/1
v 11 2 0.0
v 10 2 0.0
v 10 3 0.0
v 11 3 0.0
vt 0.6875 0.125
vt 0.625 0.125
vt 0.625 0.1875
vt 0.6875 0.1875
f 1337/1337/2 1338/1338/2 1339/1339/2 1340/1340/2
v 11 2 1.0
v 12 2 1.0
v 12 3 1.0
v 11 3 1.0
vt 0.6875 0.125
vt 0.75 0.125
vt 0.75 0.1875
vt 0.6875 0.1875
f 1341/1341/1 1342/1342/1 1343/1343/1 1344/1344/1
v 12 2 0.0
v 11 2 0.0
v 11 3 0.0
v 12 3 0.0
vt 0.75 0.125
vt 0.6875 0.125
vt 0.6875 0.1875
vt 0.75 0.1875
f 1345/1345/2 1346/1346/2 1347/1347/2 1348/1348/2
v 11 2 0.0
v 12 2 0.0
v 12 2 1.0
v 11 2 1.0
vt 0.6875 0.125
vt 0.75 0.125
vt 0.75 0.1875
vt 0.6875 0.1875
f 1349/1349/4 1350/1350/4 1351/1351/4 1352/1352/4
v 12 2 1.0
v 13 2 1.0
v 13 3 1.0
v 12 3 1.0
vt 0.75 0.125
vt 0.8125 0.125
vt 0.8125 0.1875
vt 0.75 0.1875
f 1353/1353/1 1354/1354/1 1355/1355/1 1356/1356/1
v 13 2 0.0
v 12 2 0.0
v 12 3 0.0
v 13 3 0.0
vt 0.8125 0.125
vt 0.75 0.125
vt 0.75 0.1875
vt 0.8125 0.1875
f 1357/1357/2 1358/1358/2 1359/1359/2 1360/1360/2
v 12 2 0.0
v 13 2 0.0
v 13 2 1.0
v 12 2 1.0
vt 0.75 0.125
vt 0.8125 0.125
vt 0.8125 0.1875
vt 0.75 0.1875
f 1361/1361/4 1362/1362/4 1363/1363/4 1364/1364/4
v 13 2 1.0
v 13 2 0.0
v 13 3 0.0
v 13 3 1.0
vt 0.75 0.125
vt 0.8125 0.125
vt 0.8125 0.1875
vt 0.75 0.1875
f 1365/1365/5 1366/1366/5 1367/1367/5 1368/1368/5
v 7 1 1.0
v 8 1 1.0
v 8 2 1.0
v 7 2 1.0
vt 0.4375 0.0625
vt 0.5 0.0625
vt 0.5 0.125
vt 0.4375 0.125
f 1369/1369/1 1370/1370/1 1371/1371/1 1372/1372/1
v 8 1 0.0
v 7 1 0.0
v 7 2 0.0
v 8 2 0.0
vt 0.5 0.0625
vt 0.4375 0.0625
vt 0.4375 0.125
vt 0.5 0.125
f 1373/1373/2 1374/1374/2 1375/1375/2 1376/1376/2
v 7 1 0.0
v 8 1 0.0
v 8 1 1.0
v 7 1 1.0
vt 0.4375 0.0625
vt 0.5 0.0625
vt 0.5 0.125
vt 0.4375 0.125
f 1377/1377/4 1378/1378/4 1379/1379/4 1380/1380/4
v 7 1 0.0
v 7 1 1.0
v 7 2 1.0
v 7 2 0.0
vt 0.4375 0.0625
vt 0.5 0.0625
vt 0.5 0.125
vt 0.4375 0.125
f 1381/1381/6 1382/1382/6 1383/1383/6 1384/1384/6
v 8 1 1.0
v 9 1 1.0
v 9 2 1.0
v 8 2 1.0
vt 0.5 0.0625
vt 0.5625 0.0625
vt 0.5625 0.125
vt 0.5 0.125
f 1385/1385/1 1386/1386/1 1387/1387/1 1388/1388/1
v 9 1 0.0
v 8 1 0.0
v 8 2 0.0
v 9 2 0.0
vt 0.5625 0.0625
vt 0.5 0.0625
vt 0.5 0.125
vt 0.5625 0.125
f 1389/1389/2 1390/1390/2 1391/1391/2 1392/1392/2
v 8 1 0.0
v 9 1 0.0
v 9 1 1.0
v 8 1 1.0
vt 0.5 0.0625
vt 0.5625 0.0625
vt 0.5625 0.125
vt 0.5 0.125
f 1393/1393/4 1394/1394/4 1395/1395/4 1396/1396/4
v 9 1 1.0
v 10 1 1.0
v 10 2 1.0
v 9 2 1.0
vt 0.5625 0.0625
vt 0.625 0.0625
vt 0.625 0.125
vt 0.5625 0.125
f 1397/1397/1 1398/1398/1 1399/1399/1 1400/1400/1
v 10 1 0.0
v 9 1 0.0
v 9 2 0.0
v 10 2 0.0
vt 0.625 0.0625
vt 0.5625 0.0625
vt 0.5625 0.125
vt 0.625 0.125
f 1401/1401/2 1402/1402/2 1403/1403/2 1404/1404/2
v 9 1 0.0
v 10 1 0.0
v 10 1 1.0
v 9 1 1.0
vt 0.5625 0.0625
vt 0.625 0.0625
vt 0.625 0.125
vt 0.5625 0.125
f 1405/1405/4 1406/1406/4 1407/1407/4 1408/1408/4
v 10 1 1.0
v 11 1 1.0
v 11 2 1.0
v 10 2 1.0
vt 0.625 0.0625
vt 0.6875 0.0625
vt 0.6875 0.125
vt 0.625 0.125
f 1409/1409/1 1410/1410/1 1411/1411/1 1412/1412/1
v 11 1 0.0
v 10 1 0.0
v 10 2 0.0
v 11 2 0.0
vt 0.6875 0.0625
vt 0.625 0.0625
vt 0.625 0.125
vt 0.6875 0.125
f 1413/1413/2 1414/1414/2 1415/1415/2 1416/1416/2
v 10 1 0.0
v 11 1 0.0
v 11 1 1.0
v 10 1 1.0
vt 0.625 0.0625
vt 0.6875 0.0625
vt 0.6875 0.125
vt 0.625 0.125
f 1417/1417/4 1418/1418/4 1419/1419/4 1420/1420/4
v 11 1 1.0
v 11 1 0.0
v 11 2 0.0
v 11 2 1.0
vt 0.625 0.0625
vt 0.6875 0.0625
vt 0.6875 0.125
vt 0.625 0.125
f 1421/1421/5 1422/1422/5 1423/1423/5 1424/1424/5
