mtllib 发光浆果.mtl
vn 0 0 1
vn 0 0 -1
vn 0 1 0
vn 0 -1 0
vn 1 0 0
vn -1 0 0
o mesh_mask_1
usemtl mat_发光浆果
v 8 14 1.0
v 9 14 1.0
v 9 15 1.0
v 8 15 1.0
vt 0.5 0.875
vt 0.5625 0.875
vt 0.5625 0.9375
vt 0.5 0.9375
f 1/1/1 2/2/1 3/3/1 4/4/1
v 9 14 0.0
v 8 14 0.0
v 8 15 0.0
v 9 15 0.0
vt 0.5625 0.875
vt 0.5 0.875
vt 0.5 0.9375
vt 0.5625 0.9375
f 5/5/2 6/6/2 7/7/2 8/8/2
v 8 15 1.0
v 9 15 1.0
v 9 15 0.0
v 8 15 0.0
vt 0.5 0.875
vt 0.5625 0.875
vt 0.5625 0.9375
vt 0.5 0.9375
f 9/9/3 10/10/3 11/11/3 12/12/3
v 8 14 0.0
v 9 14 0.0
v 9 14 1.0
v 8 14 1.0
vt 0.5 0.875
vt 0.5625 0.875
vt 0.5625 0.9375
vt 0.5 0.9375
f 13/13/4 14/14/4 15/15/4 16/16/4
v 9 14 1.0
v 9 14 0.0
v 9 15 0.0
v 9 15 1.0
vt 0.5 0.875
vt 0.5625 0.875
vt 0.5625 0.9375
vt 0.5 0.9375
f 17/17/5 18/18/5 19/19/5 20/20/5
v 8 14 0.0
v 8 14 1.0
v 8 15 1.0
v 8 15 0.0
vt 0.5 0.875
vt 0.5625 0.875
vt 0.5625 0.9375
vt 0.5 0.9375
f 21/21/6 22/22/6 23/23/6 24/24/6
v 7 13 1.0
v 8 13 1.0
v 8 14 1.0
v 7 14 1.0
vt 0.4375 0.8125
vt 0.5 0.8125
vt 0.5 0.875
vt 0.4375 0.875
f 25/25/1 26/26/1 27/27/1 28/28/1
v 8 13 0.0
v 7 13 0.0
v 7 14 0.0
v 8 14 0.0
vt 0.5 0.8125
vt 0.4375 0.8125
vt 0.4375 0.875
vt 0.5 0.875
f 29/29/2 30/30/2 31/31/2 32/32/2
v 7 14 1.0
v 8 14 1.0
v 8 14 0.0
v 7 14 0.0
vt 0.4375 0.8125
vt 0.5 0.8125
vt 0.5 0.875
vt 0.4375 0.875
f 33/33/3 34/34/3 35/35/3 36/36/3
v 8 13 1.0
v 8 13 0.0
v 8 14 0.0
v 8 14 1.0
vt 0.4375 0.8125
vt 0.5 0.8125
vt 0.5 0.875
vt 0.4375 0.875
f 37/37/5 38/38/5 39/39/5 40/40/5
v 7 13 0.0
v 7 13 1.0
v 7 14 1.0
v 7 14 0.0
vt 0.4375 0.8125
vt 0.5 0.8125
vt 0.5 0.875
vt 0.4375 0.875
f 41/41/6 42/42/6 43/43/6 44/44/6
v 7 12 1.0
v 8 12 1.0
v 8 13 1.0
v 7 13 1.0
vt 0.4375 0.75
vt 0.5 0.75
vt 0.5 0.8125
vt 0.4375 0.8125
f 45/45/1 46/46/1 47/47/1 48/48/1
v 8 12 0.0
v 7 12 0.0
v 7 13 0.0
v 8 13 0.0
vt 0.5 0.75
vt 0.4375 0.75
vt 0.4375 0.8125
vt 0.5 0.8125
f 49/49/2 50/50/2 51/51/2 52/52/2
v 8 12 1.0
v 8 12 0.0
v 8 13 0.0
v 8 13 1.0
vt 0.4375 0.75
vt 0.5 0.75
vt 0.5 0.8125
vt 0.4375 0.8125
f 53/53/5 54/54/5 55/55/5 56/56/5
v 7 12 0.0
v 7 12 1.0
v 7 13 1.0
v 7 13 0.0
vt 0.4375 0.75
vt 0.5 0.75
vt 0.5 0.8125
vt 0.4375 0.8125
f 57/57/6 58/58/6 59/59/6 60/60/6
v 6 11 1.0
v 7 11 1.0
v 7 12 1.0
v 6 12 1.0
vt 0.375 0.6875
vt 0.4375 0.6875
vt 0.4375 0.75
vt 0.375 0.75
f 61/61/1 62/62/1 63/63/1 64/64/1
v 7 11 0.0
v 6 11 0.0
v 6 12 0.0
v 7 12 0.0
vt 0.4375 0.6875
vt 0.375 0.6875
vt 0.375 0.75
vt 0.4375 0.75
f 65/65/2 66/66/2 67/67/2 68/68/2
v 6 12 1.0
v 7 12 1.0
v 7 12 0.0
v 6 12 0.0
vt 0.375 0.6875
vt 0.4375 0.6875
vt 0.4375 0.75
vt 0.375 0.75
f 69/69/3 70/70/3 71/71/3 72/72/3
v 6 11 0.0
v 6 11 1.0
v 6 12 1.0
v 6 12 0.0
vt 0.375 0.6875
vt 0.4375 0.6875
vt 0.4375 0.75
vt 0.375 0.75
f 73/73/6 74/74/6 75/75/6 76/76/6
v 7 11 1.0
v 8 11 1.0
v 8 12 1.0
v 7 12 1.0
vt 0.4375 0.6875
vt 0.5 0.6875
vt 0.5 0.75
vt 0.4375 0.75
f 77/77/1 78/78/1 79/79/1 80/80/1
v 8 11 0.0
v 7 11 0.0
v 7 12 0.0
v 8 12 0.0
vt 0.5 0.6875
vt 0.4375 0.6875
vt 0.4375 0.75
vt 0.5 0.75
f 81/81/2 82/82/2 83/83/2 84/84/2
v 7 11 0.0
v 8 11 0.0
v 8 11 1.0
v 7 11 1.0
vt 0.4375 0.6875
vt 0.5 0.6875
vt 0.5 0.75
vt 0.4375 0.75
f 85/85/4 86/86/4 87/87/4 88/88/4
v 8 11 1.0
v 8 11 0.0
v 8 12 0.0
v 8 12 1.0
vt 0.4375 0.6875
vt 0.5 0.6875
vt 0.5 0.75
vt 0.4375 0.75
f 89/89/5 90/90/5 91/91/5 92/92/5
v 5 10 1.0
v 6 10 1.0
v 6 11 1.0
v 5 11 1.0
vt 0.3125 0.625
vt 0.375 0.625
vt 0.375 0.6875
vt 0.3125 0.6875
f 93/93/1 94/94/1 95/95/1 96/96/1
v 6 10 0.0
v 5 10 0.0
v 5 11 0.0
v 6 11 0.0
vt 0.375 0.625
vt 0.3125 0.625
vt 0.3125 0.6875
vt 0.375 0.6875
f 97/97/2 98/98/2 99/99/2 100/100/2
v 5 11 1.0
v 6 11 1.0
v 6 11 0.0
v 5 11 0.0
vt 0.3125 0.625
vt 0.375 0.625
vt 0.375 0.6875
vt 0.3125 0.6875
f 101/101/3 102/102/3 103/103/3 104/104/3
v 5 10 0.0
v 6 10 0.0
v 6 10 1.0
v 5 10 1.0
vt 0.3125 0.625
vt 0.375 0.625
vt 0.375 0.6875
vt 0.3125 0.6875
f 105/105/4 106/106/4 107/107/4 108/108/4
v 5 10 0.0
v 5 10 1.0
v 5 11 1.0
v 5 11 0.0
vt 0.3125 0.625
vt 0.375 0.625
vt 0.375 0.6875
vt 0.3125 0.6875
f 109/109/6 110/110/6 111/111/6 112/112/6
v 6 10 1.0
v 7 10 1.0
v 7 11 1.0
v 6 11 1.0
vt 0.375 0.625
vt 0.4375 0.625
vt 0.4375 0.6875
vt 0.375 0.6875
f 113/113/1 114/114/1 115/115/1 116/116/1
v 7 10 0.0
v 6 10 0.0
v 6 11 0.0
v 7 11 0.0
vt 0.4375 0.625
vt 0.375 0.625
vt 0.375 0.6875
vt 0.4375 0.6875
f 117/117/2 118/118/2 119/119/2 120/120/2
v 6 10 0.0
v 7 10 0.0
v 7 10 1.0
v 6 10 1.0
vt 0.375 0.625
vt 0.4375 0.625
vt 0.4375 0.6875
vt 0.375 0.6875
f 121/121/4 122/122/4 123/123/4 124/124/4
v 7 10 1.0
v 7 10 0.0
v 7 11 0.0
v 7 11 1.0
vt 0.375 0.625
vt 0.4375 0.625
vt 0.4375 0.6875
vt 0.375 0.6875
f 125/125/5 126/126/5 127/127/5 128/128/5
v 3 9 1.0
v 4 9 1.0
v 4 10 1.0
v 3 10 1.0
vt 0.1875 0.5625
vt 0.25 0.5625
vt 0.25 0.625
vt 0.1875 0.625
f 129/129/1 130/130/1 131/131/1 132/132/1
v 4 9 0.0
v 3 9 0.0
v 3 10 0.0
v 4 10 0.0
vt 0.25 0.5625
vt 0.1875 0.5625
vt 0.1875 0.625
vt 0.25 0.625
f 133/133/2 134/134/2 135/135/2 136/136/2
v 3 10 1.0
v 4 10 1.0
v 4 10 0.0
v 3 10 0.0
vt 0.1875 0.5625
vt 0.25 0.5625
vt 0.25 0.625
vt 0.1875 0.625
f 137/137/3 138/138/3 139/139/3 140/140/3
v 3 9 0.0
v 4 9 0.0
v 4 9 1.0
v 3 9 1.0
vt 0.1875 0.5625
vt 0.25 0.5625
vt 0.25 0.625
vt 0.1875 0.625
f 141/141/4 142/142/4 143/143/4 144/144/4
v 3 9 0.0
v 3 9 1.0
v 3 10 1.0
v 3 10 0.0
vt 0.1875 0.5625
vt 0.25 0.5625
vt 0.25 0.625
vt 0.1875 0.625
f 145/145/6 146/146/6 147/147/6 148/148/6
v 4 9 1.0
v 5 9 1.0
v 5 10 1.0
v 4 10 1.0
vt 0.25 0.5625
vt 0.3125 0.5625
vt 0.3125 0.625
vt 0.25 0.625
f 149/149/1 150/150/1 151/151/1 152/152/1
v 5 9 0.0
v 4 9 0.0
v 4 10 0.0
v 5 10 0.0
vt 0.3125 0.5625
vt 0.25 0.5625
vt 0.25 0.625
vt 0.3125 0.625
f 153/153/2 154/154/2 155/155/2 156/156/2
v 4 10 1.0
v 5 10 1.0
v 5 10 0.0
v 4 10 0.0
vt 0.25 0.5625
vt 0.3125 0.5625
vt 0.3125 0.625
vt 0.25 0.625
f 157/157/3 158/158/3 159/159/3 160/160/3
v 4 9 0.0
v 5 9 0.0
v 5 9 1.0
v 4 9 1.0
vt 0.25 0.5625
vt 0.3125 0.5625
vt 0.3125 0.625
vt 0.25 0.625
f 161/161/4 162/162/4 163/163/4 164/164/4
v 5 9 1.0
v 5 9 0.0
v 5 10 0.0
v 5 10 1.0
vt 0.25 0.5625
vt 0.3125 0.5625
vt 0.3125 0.625
vt 0.25 0.625
f 165/165/5 166/166/5 167/167/5 168/168/5
v 2 8 1.0
v 3 8 1.0
v 3 9 1.0
v 2 9 1.0
vt 0.125 0.5
vt 0.1875 0.5
vt 0.1875 0.5625
vt 0.125 0.5625
f 169/169/1 170/170/1 171/171/1 172/172/1
v 3 8 0.0
v 2 8 0.0
v 2 9 0.0
v 3 9 0.0
vt 0.1875 0.5
vt 0.125 0.5
vt 0.125 0.5625
vt 0.1875 0.5625
f 173/173/2 174/174/2 175/175/2 176/176/2
v 2 9 1.0
v 3 9 1.0
v 3 9 0.0
v 2 9 0.0
vt 0.125 0.5
vt 0.1875 0.5
vt 0.1875 0.5625
vt 0.125 0.5625
f 177/177/3 178/178/3 179/179/3 180/180/3
v 2 8 0.0
v 3 8 0.0
v 3 8 1.0
v 2 8 1.0
vt 0.125 0.5
vt 0.1875 0.5
vt 0.1875 0.5625
vt 0.125 0.5625
f 181/181/4 182/182/4 183/183/4 184/184/4
v 3 8 1.0
v 3 8 0.0
v 3 9 0.0
v 3 9 1.0
vt 0.125 0.5
vt 0.1875 0.5
vt 0.1875 0.5625
vt 0.125 0.5625
f 185/185/5 186/186/5 187/187/5 188/188/5
v 2 8 0.0
v 2 8 1.0
v 2 9 1.0
v 2 9 0.0
vt 0.125 0.5
vt 0.1875 0.5
vt 0.1875 0.5625
vt 0.125 0.5625
f 189/189/6 190/190/6 191/191/6 192/192/6
o mesh_mask_2
usemtl mat_发光浆果
v 9 14 1.0
v 10 14 1.0
v 10 15 1.0
v 9 15 1.0
vt 0.5625 0.875
vt 0.625 0.875
vt 0.625 0.9375
vt 0.5625 0.9375
f 193/193/1 194/194/1 195/195/1 196/196/1
v 10 14 0.0
v 9 14 0.0
v 9 15 0.0
v 10 15 0.0
vt 0.625 0.875
vt 0.5625 0.875
vt 0.5625 0.9375
vt 0.625 0.9375
f 197/197/2 198/198/2 199/199/2 200/200/2
v 9 15 1.0
v 10 15 1.0
v 10 15 0.0
v 9 15 0.0
vt 0.5625 0.875
vt 0.625 0.875
vt 0.625 0.9375
vt 0.5625 0.9375
f 201/201/3 202/202/3 203/203/3 204/204/3
v 9 14 0.0
v 9 14 1.0
v 9 15 1.0
v 9 15 0.0
vt 0.5625 0.875
vt 0.625 0.875
vt 0.625 0.9375
vt 0.5625 0.9375
f 205/205/6 206/206/6 207/207/6 208/208/6
v 10 14 1.0
v 11 14 1.0
v 11 15 1.0
v 10 15 1.0
vt 0.625 0.875
vt 0.6875 0.875
vt 0.6875 0.9375
vt 0.625 0.9375
f 209/209/1 210/210/1 211/211/1 212/212/1
v 11 14 0.0
v 10 14 0.0
v 10 15 0.0
v 11 15 0.0
vt 0.6875 0.875
vt 0.625 0.875
vt 0.625 0.9375
vt 0.6875 0.9375
f 213/213/2 214/214/2 215/215/2 216/216/2
v 10 15 1.0
v 11 15 1.0
v 11 15 0.0
v 10 15 0.0
vt 0.625 0.875
vt 0.6875 0.875
vt 0.6875 0.9375
vt 0.625 0.9375
f 217/217/3 218/218/3 219/219/3 220/220/3
v 11 14 1.0
v 11 14 0.0
v 11 15 0.0
v 11 15 1.0
vt 0.625 0.875
vt 0.6875 0.875
vt 0.6875 0.9375
vt 0.625 0.9375
f 221/221/5 222/222/5 223/223/5 224/224/5
v 8 13 1.0
v 9 13 1.0
v 9 14 1.0
v 8 14 1.0
vt 0.5 0.8125
vt 0.5625 0.8125
vt 0.5625 0.875
vt 0.5 0.875
f 225/225/1 226/226/1 227/227/1 228/228/1
v 9 13 0.0
v 8 13 0.0
v 8 14 0.0
v 9 14 0.0
vt 0.5625 0.8125
vt 0.5 0.8125
vt 0.5 0.875
vt 0.5625 0.875
f 229/229/2 230/230/2 231/231/2 232/232/2
v 8 14 1.0
v 9 14 1.0
v 9 14 0.0
v 8 14 0.0
vt 0.5 0.8125
vt 0.5625 0.8125
vt 0.5625 0.875
vt 0.5 0.875
f 233/233/3 234/234/3 235/235/3 236/236/3
v 8 13 0.0
v 8 13 1.0
v 8 14 1.0
v 8 14 0.0
vt 0.5 0.8125
vt 0.5625 0.8125
vt 0.5625 0.875
vt 0.5 0.875
f 237/237/6 238/238/6 239/239/6 240/240/6
v 9 13 1.0
v 10 13 1.0
v 10 14 1.0
v 9 14 1.0
vt 0.5625 0.8125
vt 0.625 0.8125
vt 0.625 0.875
vt 0.5625 0.875
f 241/241/1 242/242/1 243/243/1 244/244/1
v 10 13 0.0
v 9 13 0.0
v 9 14 0.0
v 10 14 0.0
vt 0.625 0.8125
vt 0.5625 0.8125
vt 0.5625 0.875
vt 0.625 0.875
f 245/245/2 246/246/2 247/247/2 248/248/2
v 10 13 1.0
v 11 13 1.0
v 11 14 1.0
v 10 14 1.0
vt 0.625 0.8125
vt 0.6875 0.8125
vt 0.6875 0.875
vt 0.625 0.875
f 249/249/1 250/250/1 251/251/1 252/252/1
v 11 13 0.0
v 10 13 0.0
v 10 14 0.0
v 11 14 0.0
vt 0.6875 0.8125
vt 0.625 0.8125
vt 0.625 0.875
vt 0.6875 0.875
f 253/253/2 254/254/2 255/255/2 256/256/2
v 11 13 1.0
v 12 13 1.0
v 12 14 1.0
v 11 14 1.0
vt 0.6875 0.8125
vt 0.75 0.8125
vt 0.75 0.875
vt 0.6875 0.875
f 257/257/1 258/258/1 259/259/1 260/260/1
v 12 13 0.0
v 11 13 0.0
v 11 14 0.0
v 12 14 0.0
vt 0.75 0.8125
vt 0.6875 0.8125
vt 0.6875 0.875
vt 0.75 0.875
f 261/261/2 262/262/2 263/263/2 264/264/2
v 11 14 1.0
v 12 14 1.0
v 12 14 0.0
v 11 14 0.0
vt 0.6875 0.8125
vt 0.75 0.8125
vt 0.75 0.875
vt 0.6875 0.875
f 265/265/3 266/266/3 267/267/3 268/268/3
v 12 13 1.0
v 12 13 0.0
v 12 14 0.0
v 12 14 1.0
vt 0.6875 0.8125
vt 0.75 0.8125
vt 0.75 0.875
vt 0.6875 0.875
f 269/269/5 270/270/5 271/271/5 272/272/5
v 8 12 1.0
v 9 12 1.0
v 9 13 1.0
v 8 13 1.0
vt 0.5 0.75
vt 0.5625 0.75
vt 0.5625 0.8125
vt 0.5 0.8125
f 273/273/1 274/274/1 275/275/1 276/276/1
v 9 12 0.0
v 8 12 0.0
v 8 13 0.0
v 9 13 0.0
vt 0.5625 0.75
vt 0.5 0.75
vt 0.5 0.8125
vt 0.5625 0.8125
f 277/277/2 278/278/2 279/279/2 280/280/2
v 8 12 0.0
v 8 12 1.0
v 8 13 1.0
v 8 13 0.0
vt 0.5 0.75
vt 0.5625 0.75
vt 0.5625 0.8125
vt 0.5 0.8125
f 281/281/6 282/282/6 283/283/6 284/284/6
v 9 12 1.0
v 10 12 1.0
v 10 13 1.0
v 9 13 1.0
vt 0.5625 0.75
vt 0.625 0.75
vt 0.625 0.8125
vt 0.5625 0.8125
f 285/285/1 286/286/1 287/287/1 288/288/1
v 10 12 0.0
v 9 12 0.0
v 9 13 0.0
v 10 13 0.0
vt 0.625 0.75
vt 0.5625 0.75
vt 0.5625 0.8125
vt 0.625 0.8125
f 289/289/2 290/290/2 291/291/2 292/292/2
v 10 12 1.0
v 11 12 1.0
v 11 13 1.0
v 10 13 1.0
vt 0.625 0.75
vt 0.6875 0.75
vt 0.6875 0.8125
vt 0.625 0.8125
f 293/293/1 294/294/1 295/295/1 296/296/1
v 11 12 0.0
v 10 12 0.0
v 10 13 0.0
v 11 13 0.0
vt 0.6875 0.75
vt 0.625 0.75
vt 0.625 0.8125
vt 0.6875 0.8125
f 297/297/2 298/298/2 299/299/2 300/300/2
v 11 12 1.0
v 12 12 1.0
v 12 13 1.0
v 11 13 1.0
vt 0.6875 0.75
vt 0.75 0.75
vt 0.75 0.8125
vt 0.6875 0.8125
f 301/301/1 302/302/1 303/303/1 304/304/1
v 12 12 0.0
v 11 12 0.0
v 11 13 0.0
v 12 13 0.0
vt 0.75 0.75
vt 0.6875 0.75
vt 0.6875 0.8125
vt 0.75 0.8125
f 305/305/2 306/306/2 307/307/2 308/308/2
v 12 12 1.0
v 13 12 1.0
v 13 13 1.0
v 12 13 1.0
vt 0.75 0.75
vt 0.8125 0.75
vt 0.8125 0.8125
vt 0.75 0.8125
f 309/309/1 310/310/1 311/311/1 312/312/1
v 13 12 0.0
v 12 12 0.0
v 12 13 0.0
v 13 13 0.0
vt 0.8125 0.75
vt 0.75 0.75
vt 0.75 0.8125
vt 0.8125 0.8125
f 313/313/2 314/314/2 315/315/2 316/316/2
v 12 13 1.0
v 13 13 1.0
v 13 13 0.0
v 12 13 0.0
vt 0.75 0.75
vt 0.8125 0.75
vt 0.8125 0.8125
vt 0.75 0.8125
f 317/317/3 318/318/3 319/319/3 320/320/3
v 13 12 1.0
v 13 12 0.0
v 13 13 0.0
v 13 13 1.0
vt 0.75 0.75
vt 0.8125 0.75
vt 0.8125 0.8125
vt 0.75 0.8125
f 321/321/5 322/322/5 323/323/5 324/324/5
v 8 11 1.0
v 9 11 1.0
v 9 12 1.0
v 8 12 1.0
vt 0.5 0.6875
vt 0.5625 0.6875
vt 0.5625 0.75
vt 0.5 0.75
f 325/325/1 326/326/1 327/327/1 328/328/1
v 9 11 0.0
v 8 11 0.0
v 8 12 0.0
v 9 12 0.0
vt 0.5625 0.6875
vt 0.5 0.6875
vt 0.5 0.75
vt 0.5625 0.75
f 329/329/2 330/330/2 331/331/2 332/332/2
v 8 11 0.0
v 8 11 1.0
v 8 12 1.0
v 8 12 0.0
vt 0.5 0.6875
vt 0.5625 0.6875
vt 0.5625 0.75
vt 0.5 0.75
f 333/333/6 334/334/6 335/335/6 336/336/6
v 9 11 1.0
v 10 11 1.0
v 10 12 1.0
v 9 12 1.0
vt 0.5625 0.6875
vt 0.625 0.6875
vt 0.625 0.75
vt 0.5625 0.75
f 337/337/1 338/338/1 339/339/1 340/340/1
v 10 11 0.0
v 9 11 0.0
v 9 12 0.0
v 10 12 0.0
vt 0.625 0.6875
vt 0.5625 0.6875
vt 0.5625 0.75
vt 0.625 0.75
f 341/341/2 342/342/2 343/343/2 344/344/2
v 9 11 0.0
v 10 11 0.0
v 10 11 1.0
v 9 11 1.0
vt 0.5625 0.6875
vt 0.625 0.6875
vt 0.625 0.75
vt 0.5625 0.75
f 345/345/4 346/346/4 347/347/4 348/348/4
v 10 11 1.0
v 11 11 1.0
v 11 12 1.0
v 10 12 1.0
vt 0.625 0.6875
vt 0.6875 0.6875
vt 0.6875 0.75
vt 0.625 0.75
f 349/349/1 350/350/1 351/351/1 352/352/1
v 11 11 0.0
v 10 11 0.0
v 10 12 0.0
v 11 12 0.0
vt 0.6875 0.6875
vt 0.625 0.6875
vt 0.625 0.75
vt 0.6875 0.75
f 353/353/2 354/354/2 355/355/2 356/356/2
v 11 11 1.0
v 12 11 1.0
v 12 12 1.0
v 11 12 1.0
vt 0.6875 0.6875
vt 0.75 0.6875
vt 0.75 0.75
vt 0.6875 0.75
f 357/357/1 358/358/1 359/359/1 360/360/1
v 12 11 0.0
v 11 11 0.0
v 11 12 0.0
v 12 12 0.0
vt 0.75 0.6875
vt 0.6875 0.6875
vt 0.6875 0.75
vt 0.75 0.75
f 361/361/2 362/362/2 363/363/2 364/364/2
v 12 11 1.0
v 13 11 1.0
v 13 12 1.0
v 12 12 1.0
vt 0.75 0.6875
vt 0.8125 0.6875
vt 0.8125 0.75
vt 0.75 0.75
f 365/365/1 366/366/1 367/367/1 368/368/1
v 13 11 0.0
v 12 11 0.0
v 12 12 0.0
v 13 12 0.0
vt 0.8125 0.6875
vt 0.75 0.6875
vt 0.75 0.75
vt 0.8125 0.75
f 369/369/2 370/370/2 371/371/2 372/372/2
v 13 11 1.0
v 13 11 0.0
v 13 12 0.0
v 13 12 1.0
vt 0.75 0.6875
vt 0.8125 0.6875
vt 0.8125 0.75
vt 0.75 0.75
f 373/373/5 374/374/5 375/375/5 376/376/5
v 8 10 1.0
v 9 10 1.0
v 9 11 1.0
v 8 11 1.0
vt 0.5 0.625
vt 0.5625 0.625
vt 0.5625 0.6875
vt 0.5 0.6875
f 377/377/1 378/378/1 379/379/1 380/380/1
v 9 10 0.0
v 8 10 0.0
v 8 11 0.0
v 9 11 0.0
vt 0.5625 0.625
vt 0.5 0.625
vt 0.5 0.6875
vt 0.5625 0.6875
f 381/381/2 382/382/2 383/383/2 384/384/2
v 8 10 0.0
v 9 10 0.0
v 9 10 1.0
v 8 10 1.0
vt 0.5 0.625
vt 0.5625 0.625
vt 0.5625 0.6875
vt 0.5 0.6875
f 385/385/4 386/386/4 387/387/4 388/388/4
v 9 10 1.0
v 9 10 0.0
v 9 11 0.0
v 9 11 1.0
vt 0.5 0.625
vt 0.5625 0.625
vt 0.5625 0.6875
vt 0.5 0.6875
f 389/389/5 390/390/5 391/391/5 392/392/5
v 8 10 0.0
v 8 10 1.0
v 8 11 1.0
v 8 11 0.0
vt 0.5 0.625
vt 0.5625 0.625
vt 0.5625 0.6875
vt 0.5 0.6875
f 393/393/6 394/394/6 395/395/6 396/396/6
v 10 10 1.0
v 11 10 1.0
v 11 11 1.0
v 10 11 1.0
vt 0.625 0.625
vt 0.6875 0.625
vt 0.6875 0.6875
vt 0.625 0.6875
f 397/397/1 398/398/1 399/399/1 400/400/1
v 11 10 0.0
v 10 10 0.0
v 10 11 0.0
v 11 11 0.0
vt 0.6875 0.625
vt 0.625 0.625
vt 0.625 0.6875
vt 0.6875 0.6875
f 401/401/2 402/402/2 403/403/2 404/404/2
v 10 10 0.0
v 11 10 0.0
v 11 10 1.0
v 10 10 1.0
vt 0.625 0.625
vt 0.6875 0.625
vt 0.6875 0.6875
vt 0.625 0.6875
f 405/405/4 406/406/4 407/407/4 408/408/4
v 10 10 0.0
v 10 10 1.0
v 10 11 1.0
v 10 11 0.0
vt 0.625 0.625
vt 0.6875 0.625
vt 0.6875 0.6875
vt 0.625 0.6875
f 409/409/6 410/410/6 411/411/6 412/412/6
v 11 10 1.0
v 12 10 1.0
v 12 11 1.0
v 11 11 1.0
vt 0.6875 0.625
vt 0.75 0.625
vt 0.75 0.6875
vt 0.6875 0.6875
f 413/413/1 414/414/1 415/415/1 416/416/1
v 12 10 0.0
v 11 10 0.0
v 11 11 0.0
v 12 11 0.0
vt 0.75 0.625
vt 0.6875 0.625
vt 0.6875 0.6875
vt 0.75 0.6875
f 417/417/2 418/418/2 419/419/2 420/420/2
v 12 10 1.0
v 13 10 1.0
v 13 11 1.0
v 12 11 1.0
vt 0.75 0.625
vt 0.8125 0.625
vt 0.8125 0.6875
vt 0.75 0.6875
f 421/421/1 422/422/1 423/423/1 424/424/1
v 13 10 0.0
v 12 10 0.0
v 12 11 0.0
v 13 11 0.0
vt 0.8125 0.625
vt 0.75 0.625
vt 0.75 0.6875
vt 0.8125 0.6875
f 425/425/2 426/426/2 427/427/2 428/428/2
v 13 10 1.0
v 14 10 1.0
v 14 11 1.0
v 13 11 1.0
vt 0.8125 0.625
vt 0.875 0.625
vt 0.875 0.6875
vt 0.8125 0.6875
f 429/429/1 430/430/1 431/431/1 432/432/1
v 14 10 0.0
v 13 10 0.0
v 13 11 0.0
v 14 11 0.0
vt 0.875 0.625
vt 0.8125 0.625
vt 0.8125 0.6875
vt 0.875 0.6875
f 433/433/2 434/434/2 435/435/2 436/436/2
v 13 11 1.0
v 14 11 1.0
v 14 11 0.0
v 13 11 0.0
vt 0.8125 0.625
vt 0.875 0.625
vt 0.875 0.6875
vt 0.8125 0.6875
f 437/437/3 438/438/3 439/439/3 440/440/3
v 14 10 1.0
v 14 10 0.0
v 14 11 0.0
v 14 11 1.0
vt 0.8125 0.625
vt 0.875 0.625
vt 0.875 0.6875
vt 0.8125 0.6875
f 441/441/5 442/442/5 443/443/5 444/444/5
v 11 9 1.0
v 12 9 1.0
v 12 10 1.0
v 11 10 1.0
vt 0.6875 0.5625
vt 0.75 0.5625
vt 0.75 0.625
vt 0.6875 0.625
f 445/445/1 446/446/1 447/447/1 448/448/1
v 12 9 0.0
v 11 9 0.0
v 11 10 0.0
v 12 10 0.0
vt 0.75 0.5625
vt 0.6875 0.5625
vt 0.6875 0.625
vt 0.75 0.625
f 449/449/2 450/450/2 451/451/2 452/452/2
v 11 9 0.0
v 11 9 1.0
v 11 10 1.0
v 11 10 0.0
vt 0.6875 0.5625
vt 0.75 0.5625
vt 0.75 0.625
vt 0.6875 0.625
f 453/453/6 454/454/6 455/455/6 456/456/6
v 12 9 1.0
v 13 9 1.0
v 13 10 1.0
v 12 10 1.0
vt 0.75 0.5625
vt 0.8125 0.5625
vt 0.8125 0.625
vt 0.75 0.625
f 457/457/1 458/458/1 459/459/1 460/460/1
v 13 9 0.0
v 12 9 0.0
v 12 10 0.0
v 13 10 0.0
vt 0.8125 0.5625
vt 0.75 0.5625
vt 0.75 0.625
vt 0.8125 0.625
f 461/461/2 462/462/2 463/463/2 464/464/2
v 13 9 1.0
v 14 9 1.0
v 14 10 1.0
v 13 10 1.0
vt 0.8125 0.5625
vt 0.875 0.5625
vt 0.875 0.625
vt 0.8125 0.625
f 465/465/1 466/466/1 467/467/1 468/468/1
v 14 9 0.0
v 13 9 0.0
v 13 10 0.0
v 14 10 0.0
vt 0.875 0.5625
vt 0.8125 0.5625
vt 0.8125 0.625
vt 0.875 0.625
f 469/469/2 470/470/2 471/471/2 472/472/2
v 14 9 1.0
v 14 9 0.0
v 14 10 0.0
v 14 10 1.0
vt 0.8125 0.5625
vt 0.875 0.5625
vt 0.875 0.625
vt 0.8125 0.625
f 473/473/5 474/474/5 475/475/5 476/476/5
v 11 8 1.0
v 12 8 1.0
v 12 9 1.0
v 11 9 1.0
vt 0.6875 0.5
vt 0.75 0.5
vt 0.75 0.5625
vt 0.6875 0.5625
f 477/477/1 478/478/1 479/479/1 480/480/1
v 12 8 0.0
v 11 8 0.0
v 11 9 0.0
v 12 9 0.0
vt 0.75 0.5
vt 0.6875 0.5
vt 0.6875 0.5625
vt 0.75 0.5625
f 481/481/2 482/482/2 483/483/2 484/484/2
v 11 8 0.0
v 11 8 1.0
v 11 9 1.0
v 11 9 0.0
vt 0.6875 0.5
vt 0.75 0.5
vt 0.75 0.5625
vt 0.6875 0.5625
f 485/485/6 486/486/6 487/487/6 488/488/6
v 12 8 1.0
v 13 8 1.0
v 13 9 1.0
v 12 9 1.0
vt 0.75 0.5
vt 0.8125 0.5
vt 0.8125 0.5625
vt 0.75 0.5625
f 489/489/1 490/490/1 491/491/1 492/492/1
v 13 8 0.0
v 12 8 0.0
v 12 9 0.0
v 13 9 0.0
vt 0.8125 0.5
vt 0.75 0.5
vt 0.75 0.5625
vt 0.8125 0.5625
f 493/493/2 494/494/2 495/495/2 496/496/2
v 13 8 1.0
v 14 8 1.0
v 14 9 1.0
v 13 9 1.0
vt 0.8125 0.5
vt 0.875 0.5
vt 0.875 0.5625
vt 0.8125 0.5625
f 497/497/1 498/498/1 499/499/1 500/500/1
v 14 8 0.0
v 13 8 0.0
v 13 9 0.0
v 14 9 0.0
vt 0.875 0.5
vt 0.8125 0.5
vt 0.8125 0.5625
vt 0.875 0.5625
f 501/501/2 502/502/2 503/503/2 504/504/2
v 14 8 1.0
v 14 8 0.0
v 14 9 0.0
v 14 9 1.0
vt 0.8125 0.5
vt 0.875 0.5
vt 0.875 0.5625
vt 0.8125 0.5625
f 505/505/5 506/506/5 507/507/5 508/508/5
v 11 7 1.0
v 12 7 1.0
v 12 8 1.0
v 11 8 1.0
vt 0.6875 0.4375
vt 0.75 0.4375
vt 0.75 0.5
vt 0.6875 0.5
f 509/509/1 510/510/1 511/511/1 512/512/1
v 12 7 0.0
v 11 7 0.0
v 11 8 0.0
v 12 8 0.0
vt 0.75 0.4375
vt 0.6875 0.4375
vt 0.6875 0.5
vt 0.75 0.5
f 513/513/2 514/514/2 515/515/2 516/516/2
v 11 7 0.0
v 12 7 0.0
v 12 7 1.0
v 11 7 1.0
vt 0.6875 0.4375
vt 0.75 0.4375
vt 0.75 0.5
vt 0.6875 0.5
f 517/517/4 518/518/4 519/519/4 520/520/4
v 11 7 0.0
v 11 7 1.0
v 11 8 1.0
v 11 8 0.0
vt 0.6875 0.4375
vt 0.75 0.4375
vt 0.75 0.5
vt 0.6875 0.5
f 521/521/6 522/522/6 523/523/6 524/524/6
v 12 7 1.0
v 13 7 1.0
v 13 8 1.0
v 12 8 1.0
vt 0.75 0.4375
vt 0.8125 0.4375
vt 0.8125 0.5
vt 0.75 0.5
f 525/525/1 526/526/1 527/527/1 528/528/1
v 13 7 0.0
v 12 7 0.0
v 12 8 0.0
v 13 8 0.0
vt 0.8125 0.4375
vt 0.75 0.4375
vt 0.75 0.5
vt 0.8125 0.5
f 529/529/2 530/530/2 531/531/2 532/532/2
v 12 7 0.0
v 13 7 0.0
v 13 7 1.0
v 12 7 1.0
vt 0.75 0.4375
vt 0.8125 0.4375
vt 0.8125 0.5
vt 0.75 0.5
f 533/533/4 534/534/4 535/535/4 536/536/4
v 13 7 1.0
v 14 7 1.0
v 14 8 1.0
v 13 8 1.0
vt 0.8125 0.4375
vt 0.875 0.4375
vt 0.875 0.5
vt 0.8125 0.5
f 537/537/1 538/538/1 539/539/1 540/540/1
v 14 7 0.0
v 13 7 0.0
v 13 8 0.0
v 14 8 0.0
vt 0.875 0.4375
vt 0.8125 0.4375
vt 0.8125 0.5
vt 0.875 0.5
f 541/541/2 542/542/2 543/543/2 544/544/2
v 13 7 0.0
v 14 7 0.0
v 14 7 1.0
v 13 7 1.0
vt 0.8125 0.4375
vt 0.875 0.4375
vt 0.875 0.5
vt 0.8125 0.5
f 545/545/4 546/546/4 547/547/4 548/548/4
v 14 7 1.0
v 14 7 0.0
v 14 8 0.0
v 14 8 1.0
vt 0.8125 0.4375
vt 0.875 0.4375
vt 0.875 0.5
vt 0.8125 0.5
f 549/549/5 550/550/5 551/551/5 552/552/5
o mesh_mask_3
usemtl mat_发光浆果
v 5 9 1.0
v 6 9 1.0
v 6 10 1.0
v 5 10 1.0
vt 0.3125 0.5625
vt 0.375 0.5625
vt 0.375 0.625
vt 0.3125 0.625
f 553/553/1 554/554/1 555/555/1 556/556/1
v 6 9 0.0
v 5 9 0.0
v 5 10 0.0
v 6 10 0.0
vt 0.375 0.5625
vt 0.3125 0.5625
vt 0.3125 0.625
vt 0.375 0.625
f 557/557/2 558/558/2 559/559/2 560/560/2
v 5 10 1.0
v 6 10 1.0
v 6 10 0.0
v 5 10 0.0
vt 0.3125 0.5625
vt 0.375 0.5625
vt 0.375 0.625
vt 0.3125 0.625
f 561/561/3 562/562/3 563/563/3 564/564/3
v 5 9 0.0
v 5 9 1.0
v 5 10 1.0
v 5 10 0.0
vt 0.3125 0.5625
vt 0.375 0.5625
vt 0.375 0.625
vt 0.3125 0.625
f 565/565/6 566/566/6 567/567/6 568/568/6
v 6 9 1.0
v 7 9 1.0
v 7 10 1.0
v 6 10 1.0
vt 0.375 0.5625
vt 0.4375 0.5625
vt 0.4375 0.625
vt 0.375 0.625
f 569/569/1 570/570/1 571/571/1 572/572/1
v 7 9 0.0
v 6 9 0.0
v 6 10 0.0
v 7 10 0.0
vt 0.4375 0.5625
vt 0.375 0.5625
vt 0.375 0.625
vt 0.4375 0.625
f 573/573/2 574/574/2 575/575/2 576/576/2
v 6 10 1.0
v 7 10 1.0
v 7 10 0.0
v 6 10 0.0
vt 0.375 0.5625
vt 0.4375 0.5625
vt 0.4375 0.625
vt 0.375 0.625
f 577/577/3 578/578/3 579/579/3 580/580/3
v 7 9 1.0
v 7 9 0.0
v 7 10 0.0
v 7 10 1.0
vt 0.375 0.5625
vt 0.4375 0.5625
vt 0.4375 0.625
vt 0.375 0.625
f 581/581/5 582/582/5 583/583/5 584/584/5
v 8 9 1.0
v 9 9 1.0
v 9 10 1.0
v 8 10 1.0
vt 0.5 0.5625
vt 0.5625 0.5625
vt 0.5625 0.625
vt 0.5 0.625
f 585/585/1 586/586/1 587/587/1 588/588/1
v 9 9 0.0
v 8 9 0.0
v 8 10 0.0
v 9 10 0.0
vt 0.5625 0.5625
vt 0.5 0.5625
vt 0.5 0.625
vt 0.5625 0.625
f 589/589/2 590/590/2 591/591/2 592/592/2
v 8 10 1.0
v 9 10 1.0
v 9 10 0.0
v 8 10 0.0
vt 0.5 0.5625
vt 0.5625 0.5625
vt 0.5625 0.625
vt 0.5 0.625
f 593/593/3 594/594/3 595/595/3 596/596/3
v 8 9 0.0
v 9 9 0.0
v 9 9 1.0
v 8 9 1.0
vt 0.5 0.5625
vt 0.5625 0.5625
vt 0.5625 0.625
vt 0.5 0.625
f 597/597/4 598/598/4 599/599/4 600/600/4
v 9 9 1.0
v 9 9 0.0
v 9 10 0.0
v 9 10 1.0
vt 0.5 0.5625
vt 0.5625 0.5625
vt 0.5625 0.625
vt 0.5 0.625
f 601/601/5 602/602/5 603/603/5 604/604/5
v 8 9 0.0
v 8 9 1.0
v 8 10 1.0
v 8 10 0.0
vt 0.5 0.5625
vt 0.5625 0.5625
vt 0.5625 0.625
vt 0.5 0.625
f 605/605/6 606/606/6 607/607/6 608/608/6
v 3 8 1.0
v 4 8 1.0
v 4 9 1.0
v 3 9 1.0
vt 0.1875 0.5
vt 0.25 0.5
vt 0.25 0.5625
vt 0.1875 0.5625
f 609/609/1 610/610/1 611/611/1 612/612/1
v 4 8 0.0
v 3 8 0.0
v 3 9 0.0
v 4 9 0.0
vt 0.25 0.5
vt 0.1875 0.5
vt 0.1875 0.5625
vt 0.25 0.5625
f 613/613/2 614/614/2 615/615/2 616/616/2
v 3 9 1.0
v 4 9 1.0
v 4 9 0.0
v 3 9 0.0
vt 0.1875 0.5
vt 0.25 0.5
vt 0.25 0.5625
vt 0.1875 0.5625
f 617/617/3 618/618/3 619/619/3 620/620/3
v 3 8 0.0
v 3 8 1.0
v 3 9 1.0
v 3 9 0.0
vt 0.1875 0.5
vt 0.25 0.5
vt 0.25 0.5625
vt 0.1875 0.5625
f 621/621/6 622/622/6 623/623/6 624/624/6
v 4 8 1.0
v 5 8 1.0
v 5 9 1.0
v 4 9 1.0
vt 0.25 0.5
vt 0.3125 0.5
vt 0.3125 0.5625
vt 0.25 0.5625
f 625/625/1 626/626/1 627/627/1 628/628/1
v 5 8 0.0
v 4 8 0.0
v 4 9 0.0
v 5 9 0.0
vt 0.3125 0.5
vt 0.25 0.5
vt 0.25 0.5625
vt 0.3125 0.5625
f 629/629/2 630/630/2 631/631/2 632/632/2
v 4 9 1.0
v 5 9 1.0
v 5 9 0.0
v 4 9 0.0
vt 0.25 0.5
vt 0.3125 0.5
vt 0.3125 0.5625
vt 0.25 0.5625
f 633/633/3 634/634/3 635/635/3 636/636/3
v 5 8 1.0
v 6 8 1.0
v 6 9 1.0
v 5 9 1.0
vt 0.3125 0.5
vt 0.375 0.5
vt 0.375 0.5625
vt 0.3125 0.5625
f 637/637/1 638/638/1 639/639/1 640/640/1
v 6 8 0.0
v 5 8 0.0
v 5 9 0.0
v 6 9 0.0
vt 0.375 0.5
vt 0.3125 0.5
vt 0.3125 0.5625
vt 0.375 0.5625
f 641/641/2 642/642/2 643/643/2 644/644/2
v 6 8 1.0
v 7 8 1.0
v 7 9 1.0
v 6 9 1.0
vt 0.375 0.5
vt 0.4375 0.5
vt 0.4375 0.5625
vt 0.375 0.5625
f 645/645/1 646/646/1 647/647/1 648/648/1
v 7 8 0.0
v 6 8 0.0
v 6 9 0.0
v 7 9 0.0
vt 0.4375 0.5
vt 0.375 0.5
vt 0.375 0.5625
vt 0.4375 0.5625
f 649/649/2 650/650/2 651/651/2 652/652/2
v 7 8 1.0
v 8 8 1.0
v 8 9 1.0
v 7 9 1.0
vt 0.4375 0.5
vt 0.5 0.5
vt 0.5 0.5625
vt 0.4375 0.5625
f 653/653/1 654/654/1 655/655/1 656/656/1
v 8 8 0.0
v 7 8 0.0
v 7 9 0.0
v 8 9 0.0
vt 0.5 0.5
vt 0.4375 0.5
vt 0.4375 0.5625
vt 0.5 0.5625
f 657/657/2 658/658/2 659/659/2 660/660/2
v 7 9 1.0
v 8 9 1.0
v 8 9 0.0
v 7 9 0.0
vt 0.4375 0.5
vt 0.5 0.5
vt 0.5 0.5625
vt 0.4375 0.5625
f 661/661/3 662/662/3 663/663/3 664/664/3
v 8 8 1.0
v 8 8 0.0
v 8 9 0.0
v 8 9 1.0
vt 0.4375 0.5
vt 0.5 0.5
vt 0.5 0.5625
vt 0.4375 0.5625
f 665/665/5 666/666/5 667/667/5 668/668/5
v 9 8 1.0
v 10 8 1.0
v 10 9 1.0
v 9 9 1.0
vt 0.5625 0.5
vt 0.625 0.5
vt 0.625 0.5625
vt 0.5625 0.5625
f 669/669/1 670/670/1 671/671/1 672/672/1
v 10 8 0.0
v 9 8 0.0
v 9 9 0.0
v 10 9 0.0
vt 0.625 0.5
vt 0.5625 0.5
vt 0.5625 0.5625
vt 0.625 0.5625
f 673/673/2 674/674/2 675/675/2 676/676/2
v 9 9 1.0
v 10 9 1.0
v 10 9 0.0
v 9 9 0.0
vt 0.5625 0.5
vt 0.625 0.5
vt 0.625 0.5625
vt 0.5625 0.5625
f 677/677/3 678/678/3 679/679/3 680/680/3
v 10 8 1.0
v 10 8 0.0
v 10 9 0.0
v 10 9 1.0
vt 0.5625 0.5
vt 0.625 0.5
vt 0.625 0.5625
vt 0.5625 0.5625
f 681/681/5 682/682/5 683/683/5 684/684/5
v 9 8 0.0
v 9 8 1.0
v 9 9 1.0
v 9 9 0.0
vt 0.5625 0.5
vt 0.625 0.5
vt 0.625 0.5625
vt 0.5625 0.5625
f 685/685/6 686/686/6 687/687/6 688/688/6
v 1 7 1.0
v 2 7 1.0
v 2 8 1.0
v 1 8 1.0
vt 0.0625 0.4375
vt 0.125 0.4375
vt 0.125 0.5
vt 0.0625 0.5
f 689/689/1 690/690/1 691/691/1 692/692/1
v 2 7 0.0
v 1 7 0.0
v 1 8 0.0
v 2 8 0.0
vt 0.125 0.4375
vt 0.0625 0.4375
vt 0.0625 0.5
vt 0.125 0.5
f 693/693/2 694/694/2 695/695/2 696/696/2
v 1 8 1.0
v 2 8 1.0
v 2 8 0.0
v 1 8 0.0
vt 0.0625 0.4375
vt 0.125 0.4375
vt 0.125 0.5
vt 0.0625 0.5
f 697/697/3 698/698/3 699/699/3 700/700/3
v 1 7 0.0
v 1 7 1.0
v 1 8 1.0
v 1 8 0.0
vt 0.0625 0.4375
vt 0.125 0.4375
vt 0.125 0.5
vt 0.0625 0.5
f 701/701/6 702/702/6 703/703/6 704/704/6
v 2 7 1.0
v 3 7 1.0
v 3 8 1.0
v 2 8 1.0
vt 0.125 0.4375
vt 0.1875 0.4375
vt 0.1875 0.5
vt 0.125 0.5
f 705/705/1 706/706/1 707/707/1 708/708/1
v 3 7 0.0
v 2 7 0.0
v 2 8 0.0
v 3 8 0.0
vt 0.1875 0.4375
vt 0.125 0.4375
vt 0.125 0.5
vt 0.1875 0.5
f 709/709/2 710/710/2 711/711/2 712/712/2
v 2 8 1.0
v 3 8 1.0
v 3 8 0.0
v 2 8 0.0
vt 0.125 0.4375
vt 0.1875 0.4375
vt 0.1875 0.5
vt 0.125 0.5
f 713/713/3 714/714/3 715/715/3 716/716/3
v 3 7 1.0
v 4 7 1.0
v 4 8 1.0
v 3 8 1.0
vt 0.1875 0.4375
vt 0.25 0.4375
vt 0.25 0.5
vt 0.1875 0.5
f 717/717/1 718/718/1 719/719/1 720/720/1
v 4 7 0.0
v 3 7 0.0
v 3 8 0.0
v 4 8 0.0
vt 0.25 0.4375
vt 0.1875 0.4375
vt 0.1875 0.5
vt 0.25 0.5
f 721/721/2 722/722/2 723/723/2 724/724/2
v 4 7 1.0
v 5 7 1.0
v 5 8 1.0
v 4 8 1.0
vt 0.25 0.4375
vt 0.3125 0.4375
vt 0.3125 0.5
vt 0.25 0.5
f 725/725/1 726/726/1 727/727/1 728/728/1
v 5 7 0.0
v 4 7 0.0
v 4 8 0.0
v 5 8 0.0
vt 0.3125 0.4375
vt 0.25 0.4375
vt 0.25 0.5
vt 0.3125 0.5
f 729/729/2 730/730/2 731/731/2 732/732/2
v 5 7 1.0
v 6 7 1.0
v 6 8 1.0
v 5 8 1.0
vt 0.3125 0.4375
vt 0.375 0.4375
vt 0.375 0.5
vt 0.3125 0.5
f 733/733/1 734/734/1 735/735/1 736/736/1
v 6 7 0.0
v 5 7 0.0
v 5 8 0.0
v 6 8 0.0
vt 0.375 0.4375
vt 0.3125 0.4375
vt 0.3125 0.5
vt 0.375 0.5
f 737/737/2 738/738/2 739/739/2 740/740/2
v 6 7 1.0
v 7 7 1.0
v 7 8 1.0
v 6 8 1.0
vt 0.375 0.4375
vt 0.4375 0.4375
vt 0.4375 0.5
vt 0.375 0.5
f 741/741/1 742/742/1 743/743/1 744/744/1
v 7 7 0.0
v 6 7 0.0
v 6 8 0.0
v 7 8 0.0
vt 0.4375 0.4375
vt 0.375 0.4375
vt 0.375 0.5
vt 0.4375 0.5
f 745/745/2 746/746/2 747/747/2 748/748/2
v 7 7 1.0
v 8 7 1.0
v 8 8 1.0
v 7 8 1.0
vt 0.4375 0.4375
vt 0.5 0.4375
vt 0.5 0.5
vt 0.4375 0.5
f 749/749/1 750/750/1 751/751/1 752/752/1
v 8 7 0.0
v 7 7 0.0
v 7 8 0.0
v 8 8 0.0
vt 0.5 0.4375
vt 0.4375 0.4375
vt 0.4375 0.5
vt 0.5 0.5
f 753/753/2 754/754/2 755/755/2 756/756/2
v 8 7 1.0
v 9 7 1.0
v 9 8 1.0
v 8 8 1.0
vt 0.5 0.4375
vt 0.5625 0.4375
vt 0.5625 0.5
vt 0.5 0.5
f 757/757/1 758/758/1 759/759/1 760/760/1
v 9 7 0.0
v 8 7 0.0
v 8 8 0.0
v 9 8 0.0
vt 0.5625 0.4375
vt 0.5 0.4375
vt 0.5 0.5
vt 0.5625 0.5
f 761/761/2 762/762/2 763/763/2 764/764/2
v 8 8 1.0
v 9 8 1.0
v 9 8 0.0
v 8 8 0.0
vt 0.5 0.4375
vt 0.5625 0.4375
vt 0.5625 0.5
vt 0.5 0.5
f 765/765/3 766/766/3 767/767/3 768/768/3
v 9 7 1.0
v 10 7 1.0
v 10 8 1.0
v 9 8 1.0
vt 0.5625 0.4375
vt 0.625 0.4375
vt 0.625 0.5
vt 0.5625 0.5
f 769/769/1 770/770/1 771/771/1 772/772/1
v 10 7 0.0
v 9 7 0.0
v 9 8 0.0
v 10 8 0.0
vt 0.625 0.4375
vt 0.5625 0.4375
vt 0.5625 0.5
vt 0.625 0.5
f 773/773/2 774/774/2 775/775/2 776/776/2
v 9 7 0.0
v 10 7 0.0
v 10 7 1.0
v 9 7 1.0
vt 0.5625 0.4375
vt 0.625 0.4375
vt 0.625 0.5
vt 0.5625 0.5
f 777/777/4 778/778/4 779/779/4 780/780/4
v 10 7 1.0
v 10 7 0.0
v 10 8 0.0
v 10 8 1.0
vt 0.5625 0.4375
vt 0.625 0.4375
vt 0.625 0.5
vt 0.5625 0.5
f 781/781/5 782/782/5 783/783/5 784/784/5
v 1 6 1.0
v 2 6 1.0
v 2 7 1.0
v 1 7 1.0
vt 0.0625 0.375
vt 0.125 0.375
vt 0.125 0.4375
vt 0.0625 0.4375
f 785/785/1 786/786/1 787/787/1 788/788/1
v 2 6 0.0
v 1 6 0.0
v 1 7 0.0
v 2 7 0.0
vt 0.125 0.375
vt 0.0625 0.375
vt 0.0625 0.4375
vt 0.125 0.4375
f 789/789/2 790/790/2 791/791/2 792/792/2
v 1 6 0.0
v 1 6 1.0
v 1 7 1.0
v 1 7 0.0
vt 0.0625 0.375
vt 0.125 0.375
vt 0.125 0.4375
vt 0.0625 0.4375
f 793/793/6 794/794/6 795/795/6 796/796/6
v 2 6 1.0
v 3 6 1.0
v 3 7 1.0
v 2 7 1.0
vt 0.125 0.375
vt 0.1875 0.375
vt 0.1875 0.4375
vt 0.125 0.4375
f 797/797/1 798/798/1 799/799/1 800/800/1
v 3 6 0.0
v 2 6 0.0
v 2 7 0.0
v 3 7 0.0
vt 0.1875 0.375
vt 0.125 0.375
vt 0.125 0.4375
vt 0.1875 0.4375
f 801/801/2 802/802/2 803/803/2 804/804/2
v 3 6 1.0
v 4 6 1.0
v 4 7 1.0
v 3 7 1.0
vt 0.1875 0.375
vt 0.25 0.375
vt 0.25 0.4375
vt 0.1875 0.4375
f 805/805/1 806/806/1 807/807/1 808/808/1
v 4 6 0.0
v 3 6 0.0
v 3 7 0.0
v 4 7 0.0
vt 0.25 0.375
vt 0.1875 0.375
vt 0.1875 0.4375
vt 0.25 0.4375
f 809/809/2 810/810/2 811/811/2 812/812/2
v 4 6 1.0
v 5 6 1.0
v 5 7 1.0
v 4 7 1.0
vt 0.25 0.375
vt 0.3125 0.375
vt 0.3125 0.4375
vt 0.25 0.4375
f 813/813/1 814/814/1 815/815/1 816/816/1
v 5 6 0.0
v 4 6 0.0
v 4 7 0.0
v 5 7 0.0
vt 0.3125 0.375
vt 0.25 0.375
vt 0.25 0.4375
vt 0.3125 0.4375
f 817/817/2 818/818/2 819/819/2 820/820/2
v 5 6 1.0
v 6 6 1.0
v 6 7 1.0
v 5 7 1.0
vt 0.3125 0.375
vt 0.375 0.375
vt 0.375 0.4375
vt 0.3125 0.4375
f 821/821/1 822/822/1 823/823/1 824/824/1
v 6 6 0.0
v 5 6 0.0
v 5 7 0.0
v 6 7 0.0
vt 0.375 0.375
vt 0.3125 0.375
vt 0.3125 0.4375
vt 0.375 0.4375
f 825/825/2 826/826/2 827/827/2 828/828/2
v 6 6 1.0
v 7 6 1.0
v 7 7 1.0
v 6 7 1.0
vt 0.375 0.375
vt 0.4375 0.375
vt 0.4375 0.4375
vt 0.375 0.4375
f 829/829/1 830/830/1 831/831/1 832/832/1
v 7 6 0.0
v 6 6 0.0
v 6 7 0.0
v 7 7 0.0
vt 0.4375 0.375
vt 0.375 0.375
vt 0.375 0.4375
vt 0.4375 0.4375
f 833/833/2 834/834/2 835/835/2 836/836/2
v 7 6 1.0
v 8 6 1.0
v 8 7 1.0
v 7 7 1.0
vt 0.4375 0.375
vt 0.5 0.375
vt 0.5 0.4375
vt 0.4375 0.4375
f 837/837/1 838/838/1 839/839/1 840/840/1
v 8 6 0.0
v 7 6 0.0
v 7 7 0.0
v 8 7 0.0
vt 0.5 0.375
vt 0.4375 0.375
vt 0.4375 0.4375
vt 0.5 0.4375
f 841/841/2 842/842/2 843/843/2 844/844/2
v 8 6 1.0
v 9 6 1.0
v 9 7 1.0
v 8 7 1.0
vt 0.5 0.375
vt 0.5625 0.375
vt 0.5625 0.4375
vt 0.5 0.4375
f 845/845/1 846/846/1 847/847/1 848/848/1
v 9 6 0.0
v 8 6 0.0
v 8 7 0.0
v 9 7 0.0
vt 0.5625 0.375
vt 0.5 0.375
vt 0.5 0.4375
vt 0.5625 0.4375
f 849/849/2 850/850/2 851/851/2 852/852/2
v 8 6 0.0
v 9 6 0.0
v 9 6 1.0
v 8 6 1.0
vt 0.5 0.375
vt 0.5625 0.375
vt 0.5625 0.4375
vt 0.5 0.4375
f 853/853/4 854/854/4 855/855/4 856/856/4
v 9 6 1.0
v 9 6 0.0
v 9 7 0.0
v 9 7 1.0
vt 0.5 0.375
vt 0.5625 0.375
vt 0.5625 0.4375
vt 0.5 0.4375
f 857/857/5 858/858/5 859/859/5 860/860/5
v 1 5 1.0
v 2 5 1.0
v 2 6 1.0
v 1 6 1.0
vt 0.0625 0.3125
vt 0.125 0.3125
vt 0.125 0.375
vt 0.0625 0.375
f 861/861/1 862/862/1 863/863/1 864/864/1
v 2 5 0.0
v 1 5 0.0
v 1 6 0.0
v 2 6 0.0
vt 0.125 0.3125
vt 0.0625 0.3125
vt 0.0625 0.375
vt 0.125 0.375
f 865/865/2 866/866/2 867/867/2 868/868/2
v 1 5 0.0
v 1 5 1.0
v 1 6 1.0
v 1 6 0.0
vt 0.0625 0.3125
vt 0.125 0.3125
vt 0.125 0.375
vt 0.0625 0.375
f 869/869/6 870/870/6 871/871/6 872/872/6
v 2 5 1.0
v 3 5 1.0
v 3 6 1.0
v 2 6 1.0
vt 0.125 0.3125
vt 0.1875 0.3125
vt 0.1875 0.375
vt 0.125 0.375
f 873/873/1 874/874/1 875/875/1 876/876/1
v 3 5 0.0
v 2 5 0.0
v 2 6 0.0
v 3 6 0.0
vt 0.1875 0.3125
vt 0.125 0.3125
vt 0.125 0.375
vt 0.1875 0.375
f 877/877/2 878/878/2 879/879/2 880/880/2
v 3 5 1.0
v 4 5 1.0
v 4 6 1.0
v 3 6 1.0
vt 0.1875 0.3125
vt 0.25 0.3125
vt 0.25 0.375
vt 0.1875 0.375
f 881/881/1 882/882/1 883/883/1 884/884/1
v 4 5 0.0
v 3 5 0.0
v 3 6 0.0
v 4 6 0.0
vt 0.25 0.3125
vt 0.1875 0.3125
vt 0.1875 0.375
vt 0.25 0.375
f 885/885/2 886/886/2 887/887/2 888/888/2
v 4 5 1.0
v 5 5 1.0
v 5 6 1.0
v 4 6 1.0
vt 0.25 0.3125
vt 0.3125 0.3125
vt 0.3125 0.375
vt 0.25 0.375
f 889/889/1 890/890/1 891/891/1 892/892/1
v 5 5 0.0
v 4 5 0.0
v 4 6 0.0
v 5 6 0.0
vt 0.3125 0.3125
vt 0.25 0.3125
vt 0.25 0.375
vt 0.3125 0.375
f 893/893/2 894/894/2 895/895/2 896/896/2
v 5 5 1.0
v 6 5 1.0
v 6 6 1.0
v 5 6 1.0
vt 0.3125 0.3125
vt 0.375 0.3125
vt 0.375 0.375
vt 0.3125 0.375
f 897/897/1 898/898/1 899/899/1 900/900/1
v 6 5 0.0
v 5 5 0.0
v 5 6 0.0
v 6 6 0.0
vt 0.375 0.3125
vt 0.3125 0.3125
vt 0.3125 0.375
vt 0.375 0.375
f 901/901/2 902/902/2 903/903/2 904/904/2
v 6 5 1.0
v 7 5 1.0
v 7 6 1.0
v 6 6 1.0
vt 0.375 0.3125
vt 0.4375 0.3125
vt 0.4375 0.375
vt 0.375 0.375
f 905/905/1 906/906/1 907/907/1 908/908/1
v 7 5 0.0
v 6 5 0.0
v 6 6 0.0
v 7 6 0.0
vt 0.4375 0.3125
vt 0.375 0.3125
vt 0.375 0.375
vt 0.4375 0.375
f 909/909/2 910/910/2 911/911/2 912/912/2
v 7 5 1.0
v 8 5 1.0
v 8 6 1.0
v 7 6 1.0
vt 0.4375 0.3125
vt 0.5 0.3125
vt 0.5 0.375
vt 0.4375 0.375
f 913/913/1 914/914/1 915/915/1 916/916/1
v 8 5 0.0
v 7 5 0.0
v 7 6 0.0
v 8 6 0.0
vt 0.5 0.3125
vt 0.4375 0.3125
vt 0.4375 0.375
vt 0.5 0.375
f 917/917/2 918/918/2 919/919/2 920/920/2
v 8 5 1.0
v 8 5 0.0
v 8 6 0.0
v 8 6 1.0
vt 0.4375 0.3125
vt 0.5 0.3125
vt 0.5 0.375
vt 0.4375 0.375
f 921/921/5 922/922/5 923/923/5 924/924/5
v 1 4 1.0
v 2 4 1.0
v 2 5 1.0
v 1 5 1.0
vt 0.0625 0.25
vt 0.125 0.25
vt 0.125 0.3125
vt 0.0625 0.3125
f 925/925/1 926/926/1 927/927/1 928/928/1
v 2 4 0.0
v 1 4 0.0
v 1 5 0.0
v 2 5 0.0
vt 0.125 0.25
vt 0.0625 0.25
vt 0.0625 0.3125
vt 0.125 0.3125
f 929/929/2 930/930/2 931/931/2 932/932/2
v 1 4 0.0
v 2 4 0.0
v 2 4 1.0
v 1 4 1.0
vt 0.0625 0.25
vt 0.125 0.25
vt 0.125 0.3125
vt 0.0625 0.3125
f 933/933/4 934/934/4 935/935/4 936/936/4
v 1 4 0.0
v 1 4 1.0
v 1 5 1.0
v 1 5 0.0
vt 0.0625 0.25
vt 0.125 0.25
vt 0.125 0.3125
vt 0.0625 0.3125
f 937/937/6 938/938/6 939/939/6 940/940/6
v 2 4 1.0
v 3 4 1.0
v 3 5 1.0
v 2 5 1.0
vt 0.125 0.25
vt 0.1875 0.25
vt 0.1875 0.3125
vt 0.125 0.3125
f 941/941/1 942/942/1 943/943/1 944/944/1
v 3 4 0.0
v 2 4 0.0
v 2 5 0.0
v 3 5 0.0
vt 0.1875 0.25
vt 0.125 0.25
vt 0.125 0.3125
vt 0.1875 0.3125
f 945/945/2 946/946/2 947/947/2 948/948/2
v 3 4 1.0
v 4 4 1.0
v 4 5 1.0
v 3 5 1.0
vt 0.1875 0.25
vt 0.25 0.25
vt 0.25 0.3125
vt 0.1875 0.3125
f 949/949/1 950/950/1 951/951/1 952/952/1
v 4 4 0.0
v 3 4 0.0
v 3 5 0.0
v 4 5 0.0
vt 0.25 0.25
vt 0.1875 0.25
vt 0.1875 0.3125
vt 0.25 0.3125
f 953/953/2 954/954/2 955/955/2 956/956/2
v 4 4 1.0
v 5 4 1.0
v 5 5 1.0
v 4 5 1.0
vt 0.25 0.25
vt 0.3125 0.25
vt 0.3125 0.3125
vt 0.25 0.3125
f 957/957/1 958/958/1 959/959/1 960/960/1
v 5 4 0.0
v 4 4 0.0
v 4 5 0.0
v 5 5 0.0
vt 0.3125 0.25
vt 0.25 0.25
vt 0.25 0.3125
vt 0.3125 0.3125
f 961/961/2 962/962/2 963/963/2 964/964/2
v 5 4 1.0
v 6 4 1.0
v 6 5 1.0
v 5 5 1.0
vt 0.3125 0.25
vt 0.375 0.25
vt 0.375 0.3125
vt 0.3125 0.3125
f 965/965/1 966/966/1 967/967/1 968/968/1
v 6 4 0.0
v 5 4 0.0
v 5 5 0.0
v 6 5 0.0
vt 0.375 0.25
vt 0.3125 0.25
vt 0.3125 0.3125
vt 0.375 0.3125
f 969/969/2 970/970/2 971/971/2 972/972/2
v 6 4 1.0
v 7 4 1.0
v 7 5 1.0
v 6 5 1.0
vt 0.375 0.25
vt 0.4375 0.25
vt 0.4375 0.3125
vt 0.375 0.3125
f 973/973/1 974/974/1 975/975/1 976/976/1
v 7 4 0.0
v 6 4 0.0
v 6 5 0.0
v 7 5 0.0
vt 0.4375 0.25
vt 0.375 0.25
vt 0.375 0.3125
vt 0.4375 0.3125
f 977/977/2 978/978/2 979/979/2 980/980/2
v 7 4 1.0
v 8 4 1.0
v 8 5 1.0
v 7 5 1.0
vt 0.4375 0.25
vt 0.5 0.25
vt 0.5 0.3125
vt 0.4375 0.3125
f 981/981/1 982/982/1 983/983/1 984/984/1
v 8 4 0.0
v 7 4 0.0
v 7 5 0.0
v 8 5 0.0
vt 0.5 0.25
vt 0.4375 0.25
vt 0.4375 0.3125
vt 0.5 0.3125
f 985/985/2 986/986/2 987/987/2 988/988/2
v 7 4 0.0
v 8 4 0.0
v 8 4 1.0
v 7 4 1.0
vt 0.4375 0.25
vt 0.5 0.25
vt 0.5 0.3125
vt 0.4375 0.3125
f 989/989/4 990/990/4 991/991/4 992/992/4
v 8 4 1.0
v 8 4 0.0
v 8 5 0.0
v 8 5 1.0
vt 0.4375 0.25
vt 0.5 0.25
vt 0.5 0.3125
vt 0.4375 0.3125
f 993/993/5 994/994/5 995/995/5 996/996/5
v 2 3 1.0
v 3 3 1.0
v 3 4 1.0
v 2 4 1.0
vt 0.125 0.1875
vt 0.1875 0.1875
vt 0.1875 0.25
vt 0.125 0.25
f 997/997/1 998/998/1 999/999/1 1000/1000/1
v 3 3 0.0
v 2 3 0.0
v 2 4 0.0
v 3 4 0.0
vt 0.1875 0.1875
vt 0.125 0.1875
vt 0.125 0.25
vt 0.1875 0.25
f 1001/1001/2 1002/1002/2 1003/1003/2 1004/1004/2
v 2 3 0.0
v 3 3 0.0
v 3 3 1.0
v 2 3 1.0
vt 0.125 0.1875
vt 0.1875 0.1875
vt 0.1875 0.25
vt 0.125 0.25
f 1005/1005/4 1006/1006/4 1007/1007/4 1008/1008/4
v 2 3 0.0
v 2 3 1.0
v 2 4 1.0
v 2 4 0.0
vt 0.125 0.1875
vt 0.1875 0.1875
vt 0.1875 0.25
vt 0.125 0.25
f 1009/1009/6 1010/1010/6 1011/1011/6 1012/1012/6
v 3 3 1.0
v 4 3 1.0
v 4 4 1.0
v 3 4 1.0
vt 0.1875 0.1875
vt 0.25 0.1875
vt 0.25 0.25
vt 0.1875 0.25
f 1013/1013/1 1014/1014/1 1015/1015/1 1016/1016/1
v 4 3 0.0
v 3 3 0.0
v 3 4 0.0
v 4 4 0.0
vt 0.25 0.1875
vt 0.1875 0.1875
vt 0.1875 0.25
vt 0.25 0.25
f 1017/1017/2 1018/1018/2 1019/1019/2 1020/1020/2
v 4 3 1.0
v 5 3 1.0
v 5 4 1.0
v 4 4 1.0
vt 0.25 0.1875
vt 0.3125 0.1875
vt 0.3125 0.25
vt 0.25 0.25
f 1021/1021/1 1022/1022/1 1023/1023/1 1024/1024/1
v 5 3 0.0
v 4 3 0.0
v 4 4 0.0
v 5 4 0.0
vt 0.3125 0.1875
vt 0.25 0.1875
vt 0.25 0.25
vt 0.3125 0.25
f 1025/1025/2 1026/1026/2 1027/1027/2 1028/1028/2
v 5 3 1.0
v 6 3 1.0
v 6 4 1.0
v 5 4 1.0
vt 0.3125 0.1875
vt 0.375 0.1875
vt 0.375 0.25
vt 0.3125 0.25
f 1029/1029/1 1030/1030/1 1031/1031/1 1032/1032/1
v 6 3 0.0
v 5 3 0.0
v 5 4 0.0
v 6 4 0.0
vt 0.375 0.1875
vt 0.3125 0.1875
vt 0.3125 0.25
vt 0.375 0.25
f 1033/1033/2 1034/1034/2 1035/1035/2 1036/1036/2
v 6 3 1.0
v 7 3 1.0
v 7 4 1.0
v 6 4 1.0
vt 0.375 0.1875
vt 0.4375 0.1875
vt 0.4375 0.25
vt 0.375 0.25
f 1037/1037/1 1038/1038/1 1039/1039/1 1040/1040/1
v 7 3 0.0
v 6 3 0.0
v 6 4 0.0
v 7 4 0.0
vt 0.4375 0.1875
vt 0.375 0.1875
vt 0.375 0.25
vt 0.4375 0.25
f 1041/1041/2 1042/1042/2 1043/1043/2 1044/1044/2
v 7 3 1.0
v 7 3 0.0
v 7 4 0.0
v 7 4 1.0
vt 0.375 0.1875
vt 0.4375 0.1875
vt 0.4375 0.25
vt 0.375 0.25
f 1045/1045/5 1046/1046/5 1047/1047/5 1048/1048/5
v 3 2 1.0
v 4 2 1.0
v 4 3 1.0
v 3 3 1.0
vt 0.1875 0.125
vt 0.25 0.125
vt 0.25 0.1875
vt 0.1875 0.1875
f 1049/1049/1 1050/1050/1 1051/1051/1 1052/1052/1
v 4 2 0.0
v 3 2 0.0
v 3 3 0.0
v 4 3 0.0
vt 0.25 0.125
vt 0.1875 0.125
vt 0.1875 0.1875
vt 0.25 0.1875
f 1053/1053/2 1054/1054/2 1055/1055/2 1056/1056/2
v 3 2 0.0
v 4 2 0.0
v 4 2 1.0
v 3 2 1.0
vt 0.1875 0.125
vt 0.25 0.125
vt 0.25 0.1875
vt 0.1875 0.1875
f 1057/1057/4 1058/1058/4 1059/1059/4 1060/1060/4
v 3 2 0.0
v 3 2 1.0
v 3 3 1.0
v 3 3 0.0
vt 0.1875 0.125
vt 0.25 0.125
vt 0.25 0.1875
vt 0.1875 0.1875
f 1061/1061/6 1062/1062/6 1063/1063/6 1064/1064/6
v 4 2 1.0
v 5 2 1.0
v 5 3 1.0
v 4 3 1.0
vt 0.25 0.125
vt 0.3125 0.125
vt 0.3125 0.1875
vt 0.25 0.1875
f 1065/1065/1 1066/1066/1 1067/1067/1 1068/1068/1
v 5 2 0.0
v 4 2 0.0
v 4 3 0.0
v 5 3 0.0
vt 0.3125 0.125
vt 0.25 0.125
vt 0.25 0.1875
vt 0.3125 0.1875
f 1069/1069/2 1070/1070/2 1071/1071/2 1072/1072/2
v 4 2 0.0
v 5 2 0.0
v 5 2 1.0
v 4 2 1.0
vt 0.25 0.125
vt 0.3125 0.125
vt 0.3125 0.1875
vt 0.25 0.1875
f 1073/1073/4 1074/1074/4 1075/1075/4 1076/1076/4
v 5 2 1.0
v 6 2 1.0
v 6 3 1.0
v 5 3 1.0
vt 0.3125 0.125
vt 0.375 0.125
vt 0.375 0.1875
vt 0.3125 0.1875
f 1077/1077/1 1078/1078/1 1079/1079/1 1080/1080/1
v 6 2 0.0
v 5 2 0.0
v 5 3 0.0
v 6 3 0.0
vt 0.375 0.125
vt 0.3125 0.125
vt 0.3125 0.1875
vt 0.375 0.1875
f 1081/1081/2 1082/1082/2 1083/1083/2 1084/1084/2
v 5 2 0.0
v 6 2 0.0
v 6 2 1.0
v 5 2 1.0
vt 0.3125 0.125
vt 0.375 0.125
vt 0.375 0.1875
vt 0.3125 0.1875
f 1085/1085/4 1086/1086/4 1087/1087/4 1088/1088/4
v 6 2 1.0
v 7 2 1.0
v 7 3 1.0
v 6 3 1.0
vt 0.375 0.125
vt 0.4375 0.125
vt 0.4375 0.1875
vt 0.375 0.1875
f 1089/1089/1 1090/1090/1 1091/1091/1 1092/1092/1
v 7 2 0.0
v 6 2 0.0
v 6 3 0.0
v 7 3 0.0
vt 0.4375 0.125
vt 0.375 0.125
vt 0.375 0.1875
vt 0.4375 0.1875
f 1093/1093/2 1094/1094/2 1095/1095/2 1096/1096/2
v 6 2 0.0
v 7 2 0.0
v 7 2 1.0
v 6 2 1.0
vt 0.375 0.125
vt 0.4375 0.125
vt 0.4375 0.1875
vt 0.375 0.1875
f 1097/1097/4 1098/1098/4 1099/1099/4 1100/1100/4
v 7 2 1.0
v 7 2 0.0
v 7 3 0.0
v 7 3 1.0
vt 0.375 0.125
vt 0.4375 0.125
vt 0.4375 0.1875
vt 0.375 0.1875
f 1101/1101/5 1102/1102/5 1103/1103/5 1104/1104/5
o mesh_mask_4
usemtl mat_发光浆果
v 9 6 1.0
v 10 6 1.0
v 10 7 1.0
v 9 7 1.0
vt 0.5625 0.375
vt 0.625 0.375
vt 0.625 0.4375
vt 0.5625 0.4375
f 1105/1105/1 1106/1106/1 1107/1107/1 1108/1108/1
v 10 6 0.0
v 9 6 0.0
v 9 7 0.0
v 10 7 0.0
vt 0.625 0.375
vt 0.5625 0.375
vt 0.5625 0.4375
vt 0.625 0.4375
f 1109/1109/2 1110/1110/2 1111/1111/2 1112/1112/2
v 9 7 1.0
v 10 7 1.0
v 10 7 0.0
v 9 7 0.0
vt 0.5625 0.375
vt 0.625 0.375
vt 0.625 0.4375
vt 0.5625 0.4375
f 1113/1113/3 1114/1114/3 1115/1115/3 1116/1116/3
v 10 6 1.0
v 10 6 0.0
v 10 7 0.0
v 10 7 1.0
vt 0.5625 0.375
vt 0.625 0.375
vt 0.625 0.4375
vt 0.5625 0.4375
f 1117/1117/5 1118/1118/5 1119/1119/5 1120/1120/5
v 9 6 0.0
v 9 6 1.0
v 9 7 1.0
v 9 7 0.0
vt 0.5625 0.375
vt 0.625 0.375
vt 0.625 0.4375
vt 0.5625 0.4375
f 1121/1121/6 1122/1122/6 1123/1123/6 1124/1124/6
v 12 6 1.0
v 13 6 1.0
v 13 7 1.0
v 12 7 1.0
vt 0.75 0.375
vt 0.8125 0.375
vt 0.8125 0.4375
vt 0.75 0.4375
f 1125/1125/1 1126/1126/1 1127/1127/1 1128/1128/1
v 13 6 0.0
v 12 6 0.0
v 12 7 0.0
v 13 7 0.0
vt 0.8125 0.375
vt 0.75 0.375
vt 0.75 0.4375
vt 0.8125 0.4375
f 1129/1129/2 1130/1130/2 1131/1131/2 1132/1132/2
v 12 7 1.0
v 13 7 1.0
v 13 7 0.0
v 12 7 0.0
vt 0.75 0.375
vt 0.8125 0.375
vt 0.8125 0.4375
vt 0.75 0.4375
f 1133/1133/3 1134/1134/3 1135/1135/3 1136/1136/3
v 12 6 0.0
v 12 6 1.0
v 12 7 1.0
v 12 7 0.0
vt 0.75 0.375
vt 0.8125 0.375
vt 0.8125 0.4375
vt 0.75 0.4375
f 1137/1137/6 1138/1138/6 1139/1139/6 1140/1140/6
v 13 6 1.0
v 14 6 1.0
v 14 7 1.0
v 13 7 1.0
vt 0.8125 0.375
vt 0.875 0.375
vt 0.875 0.4375
vt 0.8125 0.4375
f 1141/1141/1 1142/1142/1 1143/1143/1 1144/1144/1
v 14 6 0.0
v 13 6 0.0
v 13 7 0.0
v 14 7 0.0
vt 0.875 0.375
vt 0.8125 0.375
vt 0.8125 0.4375
vt 0.875 0.4375
f 1145/1145/2 1146/1146/2 1147/1147/2 1148/1148/2
v 13 7 1.0
v 14 7 1.0
v 14 7 0.0
v 13 7 0.0
vt 0.8125 0.375
vt 0.875 0.375
vt 0.875 0.4375
vt 0.8125 0.4375
f 1149/1149/3 1150/1150/3 1151/1151/3 1152/1152/3
v 13 6 0.0
v 14 6 0.0
v 14 6 1.0
v 13 6 1.0
vt 0.8125 0.375
vt 0.875 0.375
vt 0.875 0.4375
vt 0.8125 0.4375
f 1153/1153/4 1154/1154/4 1155/1155/4 1156/1156/4
v 14 6 1.0
v 14 6 0.0
v 14 7 0.0
v 14 7 1.0
vt 0.8125 0.375
vt 0.875 0.375
vt 0.875 0.4375
vt 0.8125 0.4375
f 1157/1157/5 1158/1158/5 1159/1159/5 1160/1160/5
v 8 5 1.0
v 9 5 1.0
v 9 6 1.0
v 8 6 1.0
vt 0.5 0.3125
vt 0.5625 0.3125
vt 0.5625 0.375
vt 0.5 0.375
f 1161/1161/1 1162/1162/1 1163/1163/1 1164/1164/1
v 9 5 0.0
v 8 5 0.0
v 8 6 0.0
v 9 6 0.0
vt 0.5625 0.3125
vt 0.5 0.3125
vt 0.5 0.375
vt 0.5625 0.375
f 1165/1165/2 1166/1166/2 1167/1167/2 1168/1168/2
v 8 6 1.0
v 9 6 1.0
v 9 6 0.0
v 8 6 0.0
vt 0.5 0.3125
vt 0.5625 0.3125
vt 0.5625 0.375
vt 0.5 0.375
f 1169/1169/3 1170/1170/3 1171/1171/3 1172/1172/3
v 8 5 0.0
v 8 5 1.0
v 8 6 1.0
v 8 6 0.0
vt 0.5 0.3125
vt 0.5625 0.3125
vt 0.5625 0.375
vt 0.5 0.375
f 1173/1173/6 1174/1174/6 1175/1175/6 1176/1176/6
v 9 5 1.0
v 10 5 1.0
v 10 6 1.0
v 9 6 1.0
vt 0.5625 0.3125
vt 0.625 0.3125
vt 0.625 0.375
vt 0.5625 0.375
f 1177/1177/1 1178/1178/1 1179/1179/1 1180/1180/1
v 10 5 0.0
v 9 5 0.0
v 9 6 0.0
v 10 6 0.0
vt 0.625 0.3125
vt 0.5625 0.3125
vt 0.5625 0.375
vt 0.625 0.375
f 1181/1181/2 1182/1182/2 1183/1183/2 1184/1184/2
v 10 5 1.0
v 11 5 1.0
v 11 6 1.0
v 10 6 1.0
vt 0.625 0.3125
vt 0.6875 0.3125
vt 0.6875 0.375
vt 0.625 0.375
f 1185/1185/1 1186/1186/1 1187/1187/1 1188/1188/1
v 11 5 0.0
v 10 5 0.0
v 10 6 0.0
v 11 6 0.0
vt 0.6875 0.3125
vt 0.625 0.3125
vt 0.625 0.375
vt 0.6875 0.375
f 1189/1189/2 1190/1190/2 1191/1191/2 1192/1192/2
v 10 6 1.0
v 11 6 1.0
v 11 6 0.0
v 10 6 0.0
vt 0.625 0.3125
vt 0.6875 0.3125
vt 0.6875 0.375
vt 0.625 0.375
f 1193/1193/3 1194/1194/3 1195/1195/3 1196/1196/3
v 11 5 1.0
v 11 5 0.0
v 11 6 0.0
v 11 6 1.0
vt 0.625 0.3125
vt 0.6875 0.3125
vt 0.6875 0.375
vt 0.625 0.375
f 1197/1197/5 1198/1198/5 1199/1199/5 1200/1200/5
v 12 5 1.0
v 13 5 1.0
v 13 6 1.0
v 12 6 1.0
vt 0.75 0.3125
vt 0.8125 0.3125
vt 0.8125 0.375
vt 0.75 0.375
f 1201/1201/1 1202/1202/1 1203/1203/1 1204/1204/1
v 13 5 0.0
v 12 5 0.0
v 12 6 0.0
v 13 6 0.0
vt 0.8125 0.3125
vt 0.75 0.3125
vt 0.75 0.375
vt 0.8125 0.375
f 1205/1205/2 1206/1206/2 1207/1207/2 1208/1208/2
v 12 5 0.0
v 13 5 0.0
v 13 5 1.0
v 12 5 1.0
vt 0.75 0.3125
vt 0.8125 0.3125
vt 0.8125 0.375
vt 0.75 0.375
f 1209/1209/4 1210/1210/4 1211/1211/4 1212/1212/4
v 13 5 1.0
v 13 5 0.0
v 13 6 0.0
v 13 6 1.0
vt 0.75 0.3125
vt 0.8125 0.3125
vt 0.8125 0.375
vt 0.75 0.375
f 1213/1213/5 1214/1214/5 1215/1215/5 1216/1216/5
v 12 5 0.0
v 12 5 1.0
v 12 6 1.0
v 12 6 0.0
vt 0.75 0.3125
vt 0.8125 0.3125
vt 0.8125 0.375
vt 0.75 0.375
f 1217/1217/6 1218/1218/6 1219/1219/6 1220/1220/6
v 8 4 1.0
v 9 4 1.0
v 9 5 1.0
v 8 5 1.0
vt 0.5 0.25
vt 0.5625 0.25
vt 0.5625 0.3125
vt 0.5 0.3125
f 1221/1221/1 1222/1222/1 1223/1223/1 1224/1224/1
v 9 4 0.0
v 8 4 0.0
v 8 5 0.0
v 9 5 0.0
vt 0.5625 0.25
vt 0.5 0.25
vt 0.5 0.3125
vt 0.5625 0.3125
f 1225/1225/2 1226/1226/2 1227/1227/2 1228/1228/2
v 8 4 0.0
v 8 4 1.0
v 8 5 1.0
v 8 5 0.0
vt 0.5 0.25
vt 0.5625 0.25
vt 0.5625 0.3125
vt 0.5 0.3125
f 1229/1229/6 1230/1230/6 1231/1231/6 1232/1232/6
v 9 4 1.0
v 10 4 1.0
v 10 5 1.0
v 9 5 1.0
vt 0.5625 0.25
vt 0.625 0.25
vt 0.625 0.3125
vt 0.5625 0.3125
f 1233/1233/1 1234/1234/1 1235/1235/1 1236/1236/1
v 10 4 0.0
v 9 4 0.0
v 9 5 0.0
v 10 5 0.0
vt 0.625 0.25
vt 0.5625 0.25
vt 0.5625 0.3125
vt 0.625 0.3125
f 1237/1237/2 1238/1238/2 1239/1239/2 1240/1240/2
v 10 4 1.0
v 11 4 1.0
v 11 5 1.0
v 10 5 1.0
vt 0.625 0.25
vt 0.6875 0.25
vt 0.6875 0.3125
vt 0.625 0.3125
f 1241/1241/1 1242/1242/1 1243/1243/1 1244/1244/1
v 11 4 0.0
v 10 4 0.0
v 10 5 0.0
v 11 5 0.0
vt 0.6875 0.25
vt 0.625 0.25
vt 0.625 0.3125
vt 0.6875 0.3125
f 1245/1245/2 1246/1246/2 1247/1247/2 1248/1248/2
v 11 4 1.0
v 12 4 1.0
v 12 5 1.0
v 11 5 1.0
vt 0.6875 0.25
vt 0.75 0.25
vt 0.75 0.3125
vt 0.6875 0.3125
f 1249/1249/1 1250/1250/1 1251/1251/1 1252/1252/1
v 12 4 0.0
v 11 4 0.0
v 11 5 0.0
v 12 5 0.0
vt 0.75 0.25
vt 0.6875 0.25
vt 0.6875 0.3125
vt 0.75 0.3125
f 1253/1253/2 1254/1254/2 1255/1255/2 1256/1256/2
v 11 5 1.0
v 12 5 1.0
v 12 5 0.0
v 11 5 0.0
vt 0.6875 0.25
vt 0.75 0.25
vt 0.75 0.3125
vt 0.6875 0.3125
f 1257/1257/3 1258/1258/3 1259/1259/3 1260/1260/3
v 12 4 1.0
v 12 4 0.0
v 12 5 0.0
v 12 5 1.0
vt 0.6875 0.25
vt 0.75 0.25
vt 0.75 0.3125
vt 0.6875 0.3125
f 1261/1261/5 1262/1262/5 1263/1263/5 1264/1264/5
v 7 3 1.0
v 8 3 1.0
v 8 4 1.0
v 7 4 1.0
vt 0.4375 0.1875
vt 0.5 0.1875
vt 0.5 0.25
vt 0.4375 0.25
f 1265/1265/1 1266/1266/1 1267/1267/1 1268/1268/1
v 8 3 0.0
v 7 3 0.0
v 7 4 0.0
v 8 4 0.0
vt 0.5 0.1875
vt 0.4375 0.1875
vt 0.4375 0.25
vt 0.5 0.25
f 1269/1269/2 1270/1270/2 1271/1271/2 1272/1272/2
v 7 4 1.0
v 8 4 1.0
v 8 4 0.0
v 7 4 0.0
vt 0.4375 0.1875
vt 0.5 0.1875
vt 0.5 0.25
vt 0.4375 0.25
f 1273/1273/3 1274/1274/3 1275/1275/3 1276/1276/3
v 7 3 0.0
v 7 3 1.0
v 7 4 1.0
v 7 4 0.0
vt 0.4375 0.1875
vt 0.5 0.1875
vt 0.5 0.25
vt 0.4375 0.25
f 1277/1277/6 1278/1278/6 1279/1279/6 1280/1280/6
v 8 3 1.0
v 9 3 1.0
v 9 4 1.0
v 8 4 1.0
vt 0.5 0.1875
vt 0.5625 0.1875
vt 0.5625 0.25
vt 0.5 0.25
f 1281/1281/1 1282/1282/1 1283/1283/1 1284/1284/1
v 9 3 0.0
v 8 3 0.0
v 8 4 0.0
v 9 4 0.0
vt 0.5625 0.1875
vt 0.5 0.1875
vt 0.5 0.25
vt 0.5625 0.25
f 1285/1285/2 1286/1286/2 1287/1287/2 1288/1288/2
v 9 3 1.0
v 10 3 1.0
v 10 4 1.0
v 9 4 1.0
vt 0.5625 0.1875
vt 0.625 0.1875
vt 0.625 0.25
vt 0.5625 0.25
f 1289/1289/1 1290/1290/1 1291/1291/1 1292/1292/1
v 10 3 0.0
v 9 3 0.0
v 9 4 0.0
v 10 4 0.0
vt 0.625 0.1875
vt 0.5625 0.1875
vt 0.5625 0.25
vt 0.625 0.25
f 1293/1293/2 1294/1294/2 1295/1295/2 1296/1296/2
v 10 3 1.0
v 11 3 1.0
v 11 4 1.0
v 10 4 1.0
vt 0.625 0.1875
vt 0.6875 0.1875
vt 0.6875 0.25
vt 0.625 0.25
f 1297/1297/1 1298/1298/1 1299/1299/1 1300/1300/1
v 11 3 0.0
v 10 3 0.0
v 10 4 0.0
v 11 4 0.0
vt 0.6875 0.1875
vt 0.625 0.1875
vt 0.625 0.25
vt 0.6875 0.25
f 1301/1301/2 1302/1302/2 1303/1303/2 1304/1304/2
v 11 3 1.0
v 12 3 1.0
v 12 4 1.0
v 11 4 1.0
vt 0.6875 0.1875
vt 0.75 0.1875
vt 0.75 0.25
vt 0.6875 0.25
f 1305/1305/1 1306/1306/1 1307/1307/1 1308/1308/1
v 12 3 0.0
v 11 3 0.0
v 11 4 0.0
v 12 4 0.0
vt 0.75 0.1875
vt 0.6875 0.1875
vt 0.6875 0.25
vt 0.75 0.25
f 1309/1309/2 1310/1310/2 1311/1311/2 1312/1312/2
v 12 3 1.0
v 12 3 0.0
v 12 4 0.0
v 12 4 1.0
vt 0.6875 0.1875
vt 0.75 0.1875
vt 0.75 0.25
vt 0.6875 0.25
f 1313/1313/5 1314/1314/5 1315/1315/5 1316/1316/5
v 7 2 1.0
v 8 2 1.0
v 8 3 1.0
v 7 3 1.0
vt 0.4375 0.125
vt 0.5 0.125
vt 0.5 0.1875
vt 0.4375 0.1875
f 1317/1317/1 1318/1318/1 1319/1319/1 1320/1320/1
v 8 2 0.0
v 7 2 0.0
v 7 3 0.0
v 8 3 0.0
vt 0.5 0.125
vt 0.4375 0.125
vt 0.4375 0.1875
vt 0.5 0.1875
f 1321/1321/2 1322/1322/2 1323/1323/2 1324/1324/2
v 7 2 0.0
v 8 2 0.0
v 8 2 1.0
v 7 2 1.0
vt 0.4375 0.125
vt 0.5 0.125
vt 0.5 0.1875
vt 0.4375 0.1875
f 1325/1325/4 1326/1326/4 1327/1327/4 1328/1328/4
v 7 2 0.0
v 7 2 1.0
v 7 3 1.0
v 7 3 0.0
vt 0.4375 0.125
vt 0.5 0.125
vt 0.5 0.1875
vt 0.4375 0.1875
f 1329/1329/6 1330/1330/6 1331/1331/6 1332/1332/6
v 8 2 1.0
v 9 2 1.0
v 9 3 1.0
v 8 3 1.0
vt 0.5 0.125
vt 0.5625 0.125
vt 0.5625 0.1875
vt 0.5 0.1875
f 1333/1333/1 1334/1334/1 1335/1335/1 1336/1336/1
v 9 2 0.0
v 8 2 0.0
v 8 3 0.0
v 9 3 0.0
vt 0.5625 0.125
vt 0.5 0.125
vt 0.5 0.1875
vt 0.5625 0.1875
f 1337/1337/2 1338/1338/2 1339/1339/2 1340/1340/2
v 9 2 1.0
v 10 2 1.0
v 10 3 1.0
v 9 3 1.0
vt 0.5625 0.125
vt 0.625 0.125
vt 0.625 0.1875
vt 0.5625 0.1875
f 1341/1341/1 1342/1342/1 1343/1343/1 1344/1344/1
v 10 2 0.0
v 9 2 0.0
v 9 3 0.0
v 10 3 0.0
vt 0.625 0.125
vt 0.5625 0.125
vt 0.5625 0.1875
vt 0.625 0.1875
f 1345/1345/2 1346/1346/2 1347/1347/2 1348/1348/2
v 10 2 1.0
v 11 2 1.0
v 11 3 1.0
v 10 3 1.0
vt 0.625 0.125
vt 0.6875 0.125
vt 0.6875 0.1875
vt 0.625 0.1875
f 1349/1349/1 1350/1350/1 1351/1351/1 1352/1352/1
v 11 2 0.0
v 10 2 0.0
v 10 3 0.0
v 11 3 0.0
vt 0.6875 0.125
vt 0.625 0.125
vt 0.625 0.1875
vt 0.6875 0.1875
f 1353/1353/2 1354/1354/2 1355/1355/2 1356/1356/2
v 11 2 1.0
v 12 2 1.0
v 12 3 1.0
v 11 3 1.0
vt 0.6875 0.125
vt 0.75 0.125
vt 0.75 0.1875
vt 0.6875 0.1875
f 1357/1357/1 1358/1358/1 1359/1359/1 1360/1360/1
v 12 2 0.0
v 11 2 0.0
v 11 3 0.0
v 12 3 0.0
vt 0.75 0.125
vt 0.6875 0.125
vt 0.6875 0.1875
vt 0.75 0.1875
f 1361/1361/2 1362/1362/2 1363/1363/2 1364/1364/2
v 11 2 0.0
v 12 2 0.0
v 12 2 1.0
v 11 2 1.0
vt 0.6875 0.125
vt 0.75 0.125
vt 0.75 0.1875
vt 0.6875 0.1875
f 1365/1365/4 1366/1366/4 1367/1367/4 1368/1368/4
v 12 2 1.0
v 12 2 0.0
v 12 3 0.0
v 12 3 1.0
vt 0.6875 0.125
vt 0.75 0.125
vt 0.75 0.1875
vt 0.6875 0.1875
f 1369/1369/5 1370/1370/5 1371/1371/5 1372/1372/5
v 8 1 1.0
v 9 1 1.0
v 9 2 1.0
v 8 2 1.0
vt 0.5 0.0625
vt 0.5625 0.0625
vt 0.5625 0.125
vt 0.5 0.125
f 1373/1373/1 1374/1374/1 1375/1375/1 1376/1376/1
v 9 1 0.0
v 8 1 0.0
v 8 2 0.0
v 9 2 0.0
vt 0.5625 0.0625
vt 0.5 0.0625
vt 0.5 0.125
vt 0.5625 0.125
f 1377/1377/2 1378/1378/2 1379/1379/2 1380/1380/2
v 8 1 0.0
v 9 1 0.0
v 9 1 1.0
v 8 1 1.0
vt 0.5 0.0625
vt 0.5625 0.0625
vt 0.5625 0.125
vt 0.5 0.125
f 1381/1381/4 1382/1382/4 1383/1383/4 1384/1384/4
v 8 1 0.0
v 8 1 1.0
v 8 2 1.0
v 8 2 0.0
vt 0.5 0.0625
vt 0.5625 0.0625
vt 0.5625 0.125
vt 0.5 0.125
f 1385/1385/6 1386/1386/6 1387/1387/6 1388/1388/6
v 9 1 1.0
v 10 1 1.0
v 10 2 1.0
v 9 2 1.0
vt 0.5625 0.0625
vt 0.625 0.0625
vt 0.625 0.125
vt 0.5625 0.125
f 1389/1389/1 1390/1390/1 1391/1391/1 1392/1392/1
v 10 1 0.0
v 9 1 0.0
v 9 2 0.0
v 10 2 0.0
vt 0.625 0.0625
vt 0.5625 0.0625
vt 0.5625 0.125
vt 0.625 0.125
f 1393/1393/2 1394/1394/2 1395/1395/2 1396/1396/2
v 9 1 0.0
v 10 1 0.0
v 10 1 1.0
v 9 1 1.0
vt 0.5625 0.0625
vt 0.625 0.0625
vt 0.625 0.125
vt 0.5625 0.125
f 1397/1397/4 1398/1398/4 1399/1399/4 1400/1400/4
v 10 1 1.0
v 11 1 1.0
v 11 2 1.0
v 10 2 1.0
vt 0.625 0.0625
vt 0.6875 0.0625
vt 0.6875 0.125
vt 0.625 0.125
f 1401/1401/1 1402/1402/1 1403/1403/1 1404/1404/1
v 11 1 0.0
v 10 1 0.0
v 10 2 0.0
v 11 2 0.0
vt 0.6875 0.0625
vt 0.625 0.0625
vt 0.625 0.125
vt 0.6875 0.125
f 1405/1405/2 1406/1406/2 1407/1407/2 1408/1408/2
v 10 1 0.0
v 11 1 0.0
v 11 1 1.0
v 10 1 1.0
vt 0.625 0.0625
vt 0.6875 0.0625
vt 0.6875 0.125
vt 0.625 0.125
f 1409/1409/4 1410/1410/4 1411/1411/4 1412/1412/4
v 11 1 1.0
v 11 1 0.0
v 11 2 0.0
v 11 2 1.0
vt 0.625 0.0625
vt 0.6875 0.0625
vt 0.6875 0.125
vt 0.625 0.125
f 1413/1413/5 1414/1414/5 1415/1415/5 1416/1416/5
