mtllib 建筑工茶饮.mtl
vn 0 0 1
vn 0 0 -1
vn 0 1 0
vn 0 -1 0
vn 1 0 0
vn -1 0 0
o mesh_mask_1
usemtl mat_建筑工茶饮
v 4 11 1.0
v 5 11 1.0
v 5 12 1.0
v 4 12 1.0
vt 0.25 0.6875
vt 0.3125 0.6875
vt 0.3125 0.75
vt 0.25 0.75
f 1/1/1 2/2/1 3/3/1 4/4/1
v 5 11 0.0
v 4 11 0.0
v 4 12 0.0
v 5 12 0.0
vt 0.3125 0.6875
vt 0.25 0.6875
vt 0.25 0.75
vt 0.3125 0.75
f 5/5/2 6/6/2 7/7/2 8/8/2
v 4 12 1.0
v 5 12 1.0
v 5 12 0.0
v 4 12 0.0
vt 0.25 0.6875
vt 0.3125 0.6875
vt 0.3125 0.75
vt 0.25 0.75
f 9/9/3 10/10/3 11/11/3 12/12/3
v 4 11 0.0
v 4 11 1.0
v 4 12 1.0
v 4 12 0.0
vt 0.25 0.6875
vt 0.3125 0.6875
vt 0.3125 0.75
vt 0.25 0.75
f 13/13/6 14/14/6 15/15/6 16/16/6
v 5 11 1.0
v 6 11 1.0
v 6 12 1.0
v 5 12 1.0
vt 0.3125 0.6875
vt 0.375 0.6875
vt 0.375 0.75
vt 0.3125 0.75
f 17/17/1 18/18/1 19/19/1 20/20/1
v 6 11 0.0
v 5 11 0.0
v 5 12 0.0
v 6 12 0.0
vt 0.375 0.6875
vt 0.3125 0.6875
vt 0.3125 0.75
vt 0.375 0.75
f 21/21/2 22/22/2 23/23/2 24/24/2
v 5 12 1.0
v 6 12 1.0
v 6 12 0.0
v 5 12 0.0
vt 0.3125 0.6875
vt 0.375 0.6875
vt 0.375 0.75
vt 0.3125 0.75
f 25/25/3 26/26/3 27/27/3 28/28/3
v 5 11 0.0
v 6 11 0.0
v 6 11 1.0
v 5 11 1.0
vt 0.3125 0.6875
vt 0.375 0.6875
vt 0.375 0.75
vt 0.3125 0.75
f 29/29/4 30/30/4 31/31/4 32/32/4
v 6 11 1.0
v 7 11 1.0
v 7 12 1.0
v 6 12 1.0
vt 0.375 0.6875
vt 0.4375 0.6875
vt 0.4375 0.75
vt 0.375 0.75
f 33/33/1 34/34/1 35/35/1 36/36/1
v 7 11 0.0
v 6 11 0.0
v 6 12 0.0
v 7 12 0.0
vt 0.4375 0.6875
vt 0.375 0.6875
vt 0.375 0.75
vt 0.4375 0.75
f 37/37/2 38/38/2 39/39/2 40/40/2
v 6 12 1.0
v 7 12 1.0
v 7 12 0.0
v 6 12 0.0
vt 0.375 0.6875
vt 0.4375 0.6875
vt 0.4375 0.75
vt 0.375 0.75
f 41/41/3 42/42/3 43/43/3 44/44/3
v 6 11 0.0
v 7 11 0.0
v 7 11 1.0
v 6 11 1.0
vt 0.375 0.6875
vt 0.4375 0.6875
vt 0.4375 0.75
vt 0.375 0.75
f 45/45/4 46/46/4 47/47/4 48/48/4
v 7 11 1.0
v 8 11 1.0
v 8 12 1.0
v 7 12 1.0
vt 0.4375 0.6875
vt 0.5 0.6875
vt 0.5 0.75
vt 0.4375 0.75
f 49/49/1 50/50/1 51/51/1 52/52/1
v 8 11 0.0
v 7 11 0.0
v 7 12 0.0
v 8 12 0.0
vt 0.5 0.6875
vt 0.4375 0.6875
vt 0.4375 0.75
vt 0.5 0.75
f 53/53/2 54/54/2 55/55/2 56/56/2
v 7 12 1.0
v 8 12 1.0
v 8 12 0.0
v 7 12 0.0
vt 0.4375 0.6875
vt 0.5 0.6875
vt 0.5 0.75
vt 0.4375 0.75
f 57/57/3 58/58/3 59/59/3 60/60/3
v 7 11 0.0
v 8 11 0.0
v 8 11 1.0
v 7 11 1.0
vt 0.4375 0.6875
vt 0.5 0.6875
vt 0.5 0.75
vt 0.4375 0.75
f 61/61/4 62/62/4 63/63/4 64/64/4
v 8 11 1.0
v 8 11 0.0
v 8 12 0.0
v 8 12 1.0
vt 0.4375 0.6875
vt 0.5 0.6875
vt 0.5 0.75
vt 0.4375 0.75
f 65/65/5 66/66/5 67/67/5 68/68/5
v 3 10 1.0
v 4 10 1.0
v 4 11 1.0
v 3 11 1.0
vt 0.1875 0.625
vt 0.25 0.625
vt 0.25 0.6875
vt 0.1875 0.6875
f 69/69/1 70/70/1 71/71/1 72/72/1
v 4 10 0.0
v 3 10 0.0
v 3 11 0.0
v 4 11 0.0
vt 0.25 0.625
vt 0.1875 0.625
vt 0.1875 0.6875
vt 0.25 0.6875
f 73/73/2 74/74/2 75/75/2 76/76/2
v 3 11 1.0
v 4 11 1.0
v 4 11 0.0
v 3 11 0.0
vt 0.1875 0.625
vt 0.25 0.625
vt 0.25 0.6875
vt 0.1875 0.6875
f 77/77/3 78/78/3 79/79/3 80/80/3
v 3 10 0.0
v 4 10 0.0
v 4 10 1.0
v 3 10 1.0
vt 0.1875 0.625
vt 0.25 0.625
vt 0.25 0.6875
vt 0.1875 0.6875
f 81/81/4 82/82/4 83/83/4 84/84/4
v 3 10 0.0
v 3 10 1.0
v 3 11 1.0
v 3 11 0.0
vt 0.1875 0.625
vt 0.25 0.625
vt 0.25 0.6875
vt 0.1875 0.6875
f 85/85/6 86/86/6 87/87/6 88/88/6
v 4 10 1.0
v 5 10 1.0
v 5 11 1.0
v 4 11 1.0
vt 0.25 0.625
vt 0.3125 0.625
vt 0.3125 0.6875
vt 0.25 0.6875
f 89/89/1 90/90/1 91/91/1 92/92/1
v 5 10 0.0
v 4 10 0.0
v 4 11 0.0
v 5 11 0.0
vt 0.3125 0.625
vt 0.25 0.625
vt 0.25 0.6875
vt 0.3125 0.6875
f 93/93/2 94/94/2 95/95/2 96/96/2
v 5 10 1.0
v 5 10 0.0
v 5 11 0.0
v 5 11 1.0
vt 0.25 0.625
vt 0.3125 0.625
vt 0.3125 0.6875
vt 0.25 0.6875
f 97/97/5 98/98/5 99/99/5 100/100/5
v 4 9 1.0
v 5 9 1.0
v 5 10 1.0
v 4 10 1.0
vt 0.25 0.5625
vt 0.3125 0.5625
vt 0.3125 0.625
vt 0.25 0.625
f 101/101/1 102/102/1 103/103/1 104/104/1
v 5 9 0.0
v 4 9 0.0
v 4 10 0.0
v 5 10 0.0
vt 0.3125 0.5625
vt 0.25 0.5625
vt 0.25 0.625
vt 0.3125 0.625
f 105/105/2 106/106/2 107/107/2 108/108/2
v 4 9 0.0
v 5 9 0.0
v 5 9 1.0
v 4 9 1.0
vt 0.25 0.5625
vt 0.3125 0.5625
vt 0.3125 0.625
vt 0.25 0.625
f 109/109/4 110/110/4 111/111/4 112/112/4
v 5 9 1.0
v 5 9 0.0
v 5 10 0.0
v 5 10 1.0
vt 0.25 0.5625
vt 0.3125 0.5625
vt 0.3125 0.625
vt 0.25 0.625
f 113/113/5 114/114/5 115/115/5 116/116/5
v 4 9 0.0
v 4 9 1.0
v 4 10 1.0
v 4 10 0.0
vt 0.25 0.5625
vt 0.3125 0.5625
vt 0.3125 0.625
vt 0.25 0.625
f 117/117/6 118/118/6 119/119/6 120/120/6
o mesh_mask_2
usemtl mat_建筑工茶饮
v 9 12 1.0
v 10 12 1.0
v 10 13 1.0
v 9 13 1.0
vt 0.5625 0.75
vt 0.625 0.75
vt 0.625 0.8125
vt 0.5625 0.8125
f 121/121/1 122/122/1 123/123/1 124/124/1
v 10 12 0.0
v 9 12 0.0
v 9 13 0.0
v 10 13 0.0
vt 0.625 0.75
vt 0.5625 0.75
vt 0.5625 0.8125
vt 0.625 0.8125
f 125/125/2 126/126/2 127/127/2 128/128/2
v 9 13 1.0
v 10 13 1.0
v 10 13 0.0
v 9 13 0.0
vt 0.5625 0.75
vt 0.625 0.75
vt 0.625 0.8125
vt 0.5625 0.8125
f 129/129/3 130/130/3 131/131/3 132/132/3
v 9 12 0.0
v 9 12 1.0
v 9 13 1.0
v 9 13 0.0
vt 0.5625 0.75
vt 0.625 0.75
vt 0.625 0.8125
vt 0.5625 0.8125
f 133/133/6 134/134/6 135/135/6 136/136/6
v 10 12 1.0
v 11 12 1.0
v 11 13 1.0
v 10 13 1.0
vt 0.625 0.75
vt 0.6875 0.75
vt 0.6875 0.8125
vt 0.625 0.8125
f 137/137/1 138/138/1 139/139/1 140/140/1
v 11 12 0.0
v 10 12 0.0
v 10 13 0.0
v 11 13 0.0
vt 0.6875 0.75
vt 0.625 0.75
vt 0.625 0.8125
vt 0.6875 0.8125
f 141/141/2 142/142/2 143/143/2 144/144/2
v 10 13 1.0
v 11 13 1.0
v 11 13 0.0
v 10 13 0.0
vt 0.625 0.75
vt 0.6875 0.75
vt 0.6875 0.8125
vt 0.625 0.8125
f 145/145/3 146/146/3 147/147/3 148/148/3
v 11 12 1.0
v 11 12 0.0
v 11 13 0.0
v 11 13 1.0
vt 0.625 0.75
vt 0.6875 0.75
vt 0.6875 0.8125
vt 0.625 0.8125
f 149/149/5 150/150/5 151/151/5 152/152/5
v 8 11 1.0
v 9 11 1.0
v 9 12 1.0
v 8 12 1.0
vt 0.5 0.6875
vt 0.5625 0.6875
vt 0.5625 0.75
vt 0.5 0.75
f 153/153/1 154/154/1 155/155/1 156/156/1
v 9 11 0.0
v 8 11 0.0
v 8 12 0.0
v 9 12 0.0
vt 0.5625 0.6875
vt 0.5 0.6875
vt 0.5 0.75
vt 0.5625 0.75
f 157/157/2 158/158/2 159/159/2 160/160/2
v 8 12 1.0
v 9 12 1.0
v 9 12 0.0
v 8 12 0.0
vt 0.5 0.6875
vt 0.5625 0.6875
vt 0.5625 0.75
vt 0.5 0.75
f 161/161/3 162/162/3 163/163/3 164/164/3
v 8 11 0.0
v 8 11 1.0
v 8 12 1.0
v 8 12 0.0
vt 0.5 0.6875
vt 0.5625 0.6875
vt 0.5625 0.75
vt 0.5 0.75
f 165/165/6 166/166/6 167/167/6 168/168/6
v 9 11 1.0
v 10 11 1.0
v 10 12 1.0
v 9 12 1.0
vt 0.5625 0.6875
vt 0.625 0.6875
vt 0.625 0.75
vt 0.5625 0.75
f 169/169/1 170/170/1 171/171/1 172/172/1
v 10 11 0.0
v 9 11 0.0
v 9 12 0.0
v 10 12 0.0
vt 0.625 0.6875
vt 0.5625 0.6875
vt 0.5625 0.75
vt 0.625 0.75
f 173/173/2 174/174/2 175/175/2 176/176/2
v 10 11 1.0
v 11 11 1.0
v 11 12 1.0
v 10 12 1.0
vt 0.625 0.6875
vt 0.6875 0.6875
vt 0.6875 0.75
vt 0.625 0.75
f 177/177/1 178/178/1 179/179/1 180/180/1
v 11 11 0.0
v 10 11 0.0
v 10 12 0.0
v 11 12 0.0
vt 0.6875 0.6875
vt 0.625 0.6875
vt 0.625 0.75
vt 0.6875 0.75
f 181/181/2 182/182/2 183/183/2 184/184/2
v 11 11 1.0
v 12 11 1.0
v 12 12 1.0
v 11 12 1.0
vt 0.6875 0.6875
vt 0.75 0.6875
vt 0.75 0.75
vt 0.6875 0.75
f 185/185/1 186/186/1 187/187/1 188/188/1
v 12 11 0.0
v 11 11 0.0
v 11 12 0.0
v 12 12 0.0
vt 0.75 0.6875
vt 0.6875 0.6875
vt 0.6875 0.75
vt 0.75 0.75
f 189/189/2 190/190/2 191/191/2 192/192/2
v 11 12 1.0
v 12 12 1.0
v 12 12 0.0
v 11 12 0.0
vt 0.6875 0.6875
vt 0.75 0.6875
vt 0.75 0.75
vt 0.6875 0.75
f 193/193/3 194/194/3 195/195/3 196/196/3
v 12 11 1.0
v 13 11 1.0
v 13 12 1.0
v 12 12 1.0
vt 0.75 0.6875
vt 0.8125 0.6875
vt 0.8125 0.75
vt 0.75 0.75
f 197/197/1 198/198/1 199/199/1 200/200/1
v 13 11 0.0
v 12 11 0.0
v 12 12 0.0
v 13 12 0.0
vt 0.8125 0.6875
vt 0.75 0.6875
vt 0.75 0.75
vt 0.8125 0.75
f 201/201/2 202/202/2 203/203/2 204/204/2
v 12 12 1.0
v 13 12 1.0
v 13 12 0.0
v 12 12 0.0
vt 0.75 0.6875
vt 0.8125 0.6875
vt 0.8125 0.75
vt 0.75 0.75
f 205/205/3 206/206/3 207/207/3 208/208/3
v 13 11 1.0
v 13 11 0.0
v 13 12 0.0
v 13 12 1.0
vt 0.75 0.6875
vt 0.8125 0.6875
vt 0.8125 0.75
vt 0.75 0.75
f 209/209/5 210/210/5 211/211/5 212/212/5
v 8 10 1.0
v 9 10 1.0
v 9 11 1.0
v 8 11 1.0
vt 0.5 0.625
vt 0.5625 0.625
vt 0.5625 0.6875
vt 0.5 0.6875
f 213/213/1 214/214/1 215/215/1 216/216/1
v 9 10 0.0
v 8 10 0.0
v 8 11 0.0
v 9 11 0.0
vt 0.5625 0.625
vt 0.5 0.625
vt 0.5 0.6875
vt 0.5625 0.6875
f 217/217/2 218/218/2 219/219/2 220/220/2
v 8 10 0.0
v 9 10 0.0
v 9 10 1.0
v 8 10 1.0
vt 0.5 0.625
vt 0.5625 0.625
vt 0.5625 0.6875
vt 0.5 0.6875
f 221/221/4 222/222/4 223/223/4 224/224/4
v 8 10 0.0
v 8 10 1.0
v 8 11 1.0
v 8 11 0.0
vt 0.5 0.625
vt 0.5625 0.625
vt 0.5625 0.6875
vt 0.5 0.6875
f 225/225/6 226/226/6 227/227/6 228/228/6
v 9 10 1.0
v 10 10 1.0
v 10 11 1.0
v 9 11 1.0
vt 0.5625 0.625
vt 0.625 0.625
vt 0.625 0.6875
vt 0.5625 0.6875
f 229/229/1 230/230/1 231/231/1 232/232/1
v 10 10 0.0
v 9 10 0.0
v 9 11 0.0
v 10 11 0.0
vt 0.625 0.625
vt 0.5625 0.625
vt 0.5625 0.6875
vt 0.625 0.6875
f 233/233/2 234/234/2 235/235/2 236/236/2
v 10 10 1.0
v 11 10 1.0
v 11 11 1.0
v 10 11 1.0
vt 0.625 0.625
vt 0.6875 0.625
vt 0.6875 0.6875
vt 0.625 0.6875
f 237/237/1 238/238/1 239/239/1 240/240/1
v 11 10 0.0
v 10 10 0.0
v 10 11 0.0
v 11 11 0.0
vt 0.6875 0.625
vt 0.625 0.625
vt 0.625 0.6875
vt 0.6875 0.6875
f 241/241/2 242/242/2 243/243/2 244/244/2
v 11 10 1.0
v 12 10 1.0
v 12 11 1.0
v 11 11 1.0
vt 0.6875 0.625
vt 0.75 0.625
vt 0.75 0.6875
vt 0.6875 0.6875
f 245/245/1 246/246/1 247/247/1 248/248/1
v 12 10 0.0
v 11 10 0.0
v 11 11 0.0
v 12 11 0.0
vt 0.75 0.625
vt 0.6875 0.625
vt 0.6875 0.6875
vt 0.75 0.6875
f 249/249/2 250/250/2 251/251/2 252/252/2
v 12 10 1.0
v 13 10 1.0
v 13 11 1.0
v 12 11 1.0
vt 0.75 0.625
vt 0.8125 0.625
vt 0.8125 0.6875
vt 0.75 0.6875
f 253/253/1 254/254/1 255/255/1 256/256/1
v 13 10 0.0
v 12 10 0.0
v 12 11 0.0
v 13 11 0.0
vt 0.8125 0.625
vt 0.75 0.625
vt 0.75 0.6875
vt 0.8125 0.6875
f 257/257/2 258/258/2 259/259/2 260/260/2
v 12 10 0.0
v 13 10 0.0
v 13 10 1.0
v 12 10 1.0
vt 0.75 0.625
vt 0.8125 0.625
vt 0.8125 0.6875
vt 0.75 0.6875
f 261/261/4 262/262/4 263/263/4 264/264/4
v 13 10 1.0
v 13 10 0.0
v 13 11 0.0
v 13 11 1.0
vt 0.75 0.625
vt 0.8125 0.625
vt 0.8125 0.6875
vt 0.75 0.6875
f 265/265/5 266/266/5 267/267/5 268/268/5
v 9 9 1.0
v 10 9 1.0
v 10 10 1.0
v 9 10 1.0
vt 0.5625 0.5625
vt 0.625 0.5625
vt 0.625 0.625
vt 0.5625 0.625
f 269/269/1 270/270/1 271/271/1 272/272/1
v 10 9 0.0
v 9 9 0.0
v 9 10 0.0
v 10 10 0.0
vt 0.625 0.5625
vt 0.5625 0.5625
vt 0.5625 0.625
vt 0.625 0.625
f 273/273/2 274/274/2 275/275/2 276/276/2
v 9 9 0.0
v 10 9 0.0
v 10 9 1.0
v 9 9 1.0
vt 0.5625 0.5625
vt 0.625 0.5625
vt 0.625 0.625
vt 0.5625 0.625
f 277/277/4 278/278/4 279/279/4 280/280/4
v 9 9 0.0
v 9 9 1.0
v 9 10 1.0
v 9 10 0.0
vt 0.5625 0.5625
vt 0.625 0.5625
vt 0.625 0.625
vt 0.5625 0.625
f 281/281/6 282/282/6 283/283/6 284/284/6
v 10 9 1.0
v 11 9 1.0
v 11 10 1.0
v 10 10 1.0
vt 0.625 0.5625
vt 0.6875 0.5625
vt 0.6875 0.625
vt 0.625 0.625
f 285/285/1 286/286/1 287/287/1 288/288/1
v 11 9 0.0
v 10 9 0.0
v 10 10 0.0
v 11 10 0.0
vt 0.6875 0.5625
vt 0.625 0.5625
vt 0.625 0.625
vt 0.6875 0.625
f 289/289/2 290/290/2 291/291/2 292/292/2
v 11 9 1.0
v 12 9 1.0
v 12 10 1.0
v 11 10 1.0
vt 0.6875 0.5625
vt 0.75 0.5625
vt 0.75 0.625
vt 0.6875 0.625
f 293/293/1 294/294/1 295/295/1 296/296/1
v 12 9 0.0
v 11 9 0.0
v 11 10 0.0
v 12 10 0.0
vt 0.75 0.5625
vt 0.6875 0.5625
vt 0.6875 0.625
vt 0.75 0.625
f 297/297/2 298/298/2 299/299/2 300/300/2
v 12 9 1.0
v 12 9 0.0
v 12 10 0.0
v 12 10 1.0
vt 0.6875 0.5625
vt 0.75 0.5625
vt 0.75 0.625
vt 0.6875 0.625
f 301/301/5 302/302/5 303/303/5 304/304/5
v 10 8 1.0
v 11 8 1.0
v 11 9 1.0
v 10 9 1.0
vt 0.625 0.5
vt 0.6875 0.5
vt 0.6875 0.5625
vt 0.625 0.5625
f 305/305/1 306/306/1 307/307/1 308/308/1
v 11 8 0.0
v 10 8 0.0
v 10 9 0.0
v 11 9 0.0
vt 0.6875 0.5
vt 0.625 0.5
vt 0.625 0.5625
vt 0.6875 0.5625
f 309/309/2 310/310/2 311/311/2 312/312/2
v 10 8 0.0
v 11 8 0.0
v 11 8 1.0
v 10 8 1.0
vt 0.625 0.5
vt 0.6875 0.5
vt 0.6875 0.5625
vt 0.625 0.5625
f 313/313/4 314/314/4 315/315/4 316/316/4
v 10 8 0.0
v 10 8 1.0
v 10 9 1.0
v 10 9 0.0
vt 0.625 0.5
vt 0.6875 0.5
vt 0.6875 0.5625
vt 0.625 0.5625
f 317/317/6 318/318/6 319/319/6 320/320/6
v 11 8 1.0
v 12 8 1.0
v 12 9 1.0
v 11 9 1.0
vt 0.6875 0.5
vt 0.75 0.5
vt 0.75 0.5625
vt 0.6875 0.5625
f 321/321/1 322/322/1 323/323/1 324/324/1
v 12 8 0.0
v 11 8 0.0
v 11 9 0.0
v 12 9 0.0
vt 0.75 0.5
vt 0.6875 0.5
vt 0.6875 0.5625
vt 0.75 0.5625
f 325/325/2 326/326/2 327/327/2 328/328/2
v 11 8 0.0
v 12 8 0.0
v 12 8 1.0
v 11 8 1.0
vt 0.6875 0.5
vt 0.75 0.5
vt 0.75 0.5625
vt 0.6875 0.5625
f 329/329/4 330/330/4 331/331/4 332/332/4
v 12 8 1.0
v 13 8 1.0
v 13 9 1.0
v 12 9 1.0
vt 0.75 0.5
vt 0.8125 0.5
vt 0.8125 0.5625
vt 0.75 0.5625
f 333/333/1 334/334/1 335/335/1 336/336/1
v 13 8 0.0
v 12 8 0.0
v 12 9 0.0
v 13 9 0.0
vt 0.8125 0.5
vt 0.75 0.5
vt 0.75 0.5625
vt 0.8125 0.5625
f 337/337/2 338/338/2 339/339/2 340/340/2
v 12 9 1.0
v 13 9 1.0
v 13 9 0.0
v 12 9 0.0
vt 0.75 0.5
vt 0.8125 0.5
vt 0.8125 0.5625
vt 0.75 0.5625
f 341/341/3 342/342/3 343/343/3 344/344/3
v 12 8 0.0
v 13 8 0.0
v 13 8 1.0
v 12 8 1.0
vt 0.75 0.5
vt 0.8125 0.5
vt 0.8125 0.5625
vt 0.75 0.5625
f 345/345/4 346/346/4 347/347/4 348/348/4
v 13 8 1.0
v 14 8 1.0
v 14 9 1.0
v 13 9 1.0
vt 0.8125 0.5
vt 0.875 0.5
vt 0.875 0.5625
vt 0.8125 0.5625
f 349/349/1 350/350/1 351/351/1 352/352/1
v 14 8 0.0
v 13 8 0.0
v 13 9 0.0
v 14 9 0.0
vt 0.875 0.5
vt 0.8125 0.5
vt 0.8125 0.5625
vt 0.875 0.5625
f 353/353/2 354/354/2 355/355/2 356/356/2
v 13 9 1.0
v 14 9 1.0
v 14 9 0.0
v 13 9 0.0
vt 0.8125 0.5
vt 0.875 0.5
vt 0.875 0.5625
vt 0.8125 0.5625
f 357/357/3 358/358/3 359/359/3 360/360/3
v 13 8 0.0
v 14 8 0.0
v 14 8 1.0
v 13 8 1.0
vt 0.8125 0.5
vt 0.875 0.5
vt 0.875 0.5625
vt 0.8125 0.5625
f 361/361/4 362/362/4 363/363/4 364/364/4
v 14 8 1.0
v 14 8 0.0
v 14 9 0.0
v 14 9 1.0
vt 0.8125 0.5
vt 0.875 0.5
vt 0.875 0.5625
vt 0.8125 0.5625
f 365/365/5 366/366/5 367/367/5 368/368/5
v 14 7 1.0
v 15 7 1.0
v 15 8 1.0
v 14 8 1.0
vt 0.875 0.4375
vt 0.9375 0.4375
vt 0.9375 0.5
vt 0.875 0.5
f 369/369/1 370/370/1 371/371/1 372/372/1
v 15 7 0.0
v 14 7 0.0
v 14 8 0.0
v 15 8 0.0
vt 0.9375 0.4375
vt 0.875 0.4375
vt 0.875 0.5
vt 0.9375 0.5
f 373/373/2 374/374/2 375/375/2 376/376/2
v 14 8 1.0
v 15 8 1.0
v 15 8 0.0
v 14 8 0.0
vt 0.875 0.4375
vt 0.9375 0.4375
vt 0.9375 0.5
vt 0.875 0.5
f 377/377/3 378/378/3 379/379/3 380/380/3
v 15 7 1.0
v 15 7 0.0
v 15 8 0.0
v 15 8 1.0
vt 0.875 0.4375
vt 0.9375 0.4375
vt 0.9375 0.5
vt 0.875 0.5
f 381/381/5 382/382/5 383/383/5 384/384/5
v 14 7 0.0
v 14 7 1.0
v 14 8 1.0
v 14 8 0.0
vt 0.875 0.4375
vt 0.9375 0.4375
vt 0.9375 0.5
vt 0.875 0.5
f 385/385/6 386/386/6 387/387/6 388/388/6
v 14 6 1.0
v 15 6 1.0
v 15 7 1.0
v 14 7 1.0
vt 0.875 0.375
vt 0.9375 0.375
vt 0.9375 0.4375
vt 0.875 0.4375
f 389/389/1 390/390/1 391/391/1 392/392/1
v 15 6 0.0
v 14 6 0.0
v 14 7 0.0
v 15 7 0.0
vt 0.9375 0.375
vt 0.875 0.375
vt 0.875 0.4375
vt 0.9375 0.4375
f 393/393/2 394/394/2 395/395/2 396/396/2
v 14 6 0.0
v 15 6 0.0
v 15 6 1.0
v 14 6 1.0
vt 0.875 0.375
vt 0.9375 0.375
vt 0.9375 0.4375
vt 0.875 0.4375
f 397/397/4 398/398/4 399/399/4 400/400/4
v 15 6 1.0
v 15 6 0.0
v 15 7 0.0
v 15 7 1.0
vt 0.875 0.375
vt 0.9375 0.375
vt 0.9375 0.4375
vt 0.875 0.4375
f 401/401/5 402/402/5 403/403/5 404/404/5
v 14 6 0.0
v 14 6 1.0
v 14 7 1.0
v 14 7 0.0
vt 0.875 0.375
vt 0.9375 0.375
vt 0.9375 0.4375
vt 0.875 0.4375
f 405/405/6 406/406/6 407/407/6 408/408/6
o mesh_mask_3
usemtl mat_建筑工茶饮
v 5 9 1.0
v 6 9 1.0
v 6 10 1.0
v 5 10 1.0
vt 0.3125 0.5625
vt 0.375 0.5625
vt 0.375 0.625
vt 0.3125 0.625
f 409/409/1 410/410/1 411/411/1 412/412/1
v 6 9 0.0
v 5 9 0.0
v 5 10 0.0
v 6 10 0.0
vt 0.375 0.5625
vt 0.3125 0.5625
vt 0.3125 0.625
vt 0.375 0.625
f 413/413/2 414/414/2 415/415/2 416/416/2
v 5 10 1.0
v 6 10 1.0
v 6 10 0.0
v 5 10 0.0
vt 0.3125 0.5625
vt 0.375 0.5625
vt 0.375 0.625
vt 0.3125 0.625
f 417/417/3 418/418/3 419/419/3 420/420/3
v 5 9 0.0
v 5 9 1.0
v 5 10 1.0
v 5 10 0.0
vt 0.3125 0.5625
vt 0.375 0.5625
vt 0.375 0.625
vt 0.3125 0.625
f 421/421/6 422/422/6 423/423/6 424/424/6
v 6 9 1.0
v 7 9 1.0
v 7 10 1.0
v 6 10 1.0
vt 0.375 0.5625
vt 0.4375 0.5625
vt 0.4375 0.625
vt 0.375 0.625
f 425/425/1 426/426/1 427/427/1 428/428/1
v 7 9 0.0
v 6 9 0.0
v 6 10 0.0
v 7 10 0.0
vt 0.4375 0.5625
vt 0.375 0.5625
vt 0.375 0.625
vt 0.4375 0.625
f 429/429/2 430/430/2 431/431/2 432/432/2
v 6 10 1.0
v 7 10 1.0
v 7 10 0.0
v 6 10 0.0
vt 0.375 0.5625
vt 0.4375 0.5625
vt 0.4375 0.625
vt 0.375 0.625
f 433/433/3 434/434/3 435/435/3 436/436/3
v 7 9 1.0
v 8 9 1.0
v 8 10 1.0
v 7 10 1.0
vt 0.4375 0.5625
vt 0.5 0.5625
vt 0.5 0.625
vt 0.4375 0.625
f 437/437/1 438/438/1 439/439/1 440/440/1
v 8 9 0.0
v 7 9 0.0
v 7 10 0.0
v 8 10 0.0
vt 0.5 0.5625
vt 0.4375 0.5625
vt 0.4375 0.625
vt 0.5 0.625
f 441/441/2 442/442/2 443/443/2 444/444/2
v 7 10 1.0
v 8 10 1.0
v 8 10 0.0
v 7 10 0.0
vt 0.4375 0.5625
vt 0.5 0.5625
vt 0.5 0.625
vt 0.4375 0.625
f 445/445/3 446/446/3 447/447/3 448/448/3
v 8 9 1.0
v 9 9 1.0
v 9 10 1.0
v 8 10 1.0
vt 0.5 0.5625
vt 0.5625 0.5625
vt 0.5625 0.625
vt 0.5 0.625
f 449/449/1 450/450/1 451/451/1 452/452/1
v 9 9 0.0
v 8 9 0.0
v 8 10 0.0
v 9 10 0.0
vt 0.5625 0.5625
vt 0.5 0.5625
vt 0.5 0.625
vt 0.5625 0.625
f 453/453/2 454/454/2 455/455/2 456/456/2
v 8 10 1.0
v 9 10 1.0
v 9 10 0.0
v 8 10 0.0
vt 0.5 0.5625
vt 0.5625 0.5625
vt 0.5625 0.625
vt 0.5 0.625
f 457/457/3 458/458/3 459/459/3 460/460/3
v 9 9 1.0
v 9 9 0.0
v 9 10 0.0
v 9 10 1.0
vt 0.5 0.5625
vt 0.5625 0.5625
vt 0.5625 0.625
vt 0.5 0.625
f 461/461/5 462/462/5 463/463/5 464/464/5
v 4 8 1.0
v 5 8 1.0
v 5 9 1.0
v 4 9 1.0
vt 0.25 0.5
vt 0.3125 0.5
vt 0.3125 0.5625
vt 0.25 0.5625
f 465/465/1 466/466/1 467/467/1 468/468/1
v 5 8 0.0
v 4 8 0.0
v 4 9 0.0
v 5 9 0.0
vt 0.3125 0.5
vt 0.25 0.5
vt 0.25 0.5625
vt 0.3125 0.5625
f 469/469/2 470/470/2 471/471/2 472/472/2
v 4 9 1.0
v 5 9 1.0
v 5 9 0.0
v 4 9 0.0
vt 0.25 0.5
vt 0.3125 0.5
vt 0.3125 0.5625
vt 0.25 0.5625
f 473/473/3 474/474/3 475/475/3 476/476/3
v 4 8 0.0
v 4 8 1.0
v 4 9 1.0
v 4 9 0.0
vt 0.25 0.5
vt 0.3125 0.5
vt 0.3125 0.5625
vt 0.25 0.5625
f 477/477/6 478/478/6 479/479/6 480/480/6
v 5 8 1.0
v 6 8 1.0
v 6 9 1.0
v 5 9 1.0
vt 0.3125 0.5
vt 0.375 0.5
vt 0.375 0.5625
vt 0.3125 0.5625
f 481/481/1 482/482/1 483/483/1 484/484/1
v 6 8 0.0
v 5 8 0.0
v 5 9 0.0
v 6 9 0.0
vt 0.375 0.5
vt 0.3125 0.5
vt 0.3125 0.5625
vt 0.375 0.5625
f 485/485/2 486/486/2 487/487/2 488/488/2
v 6 8 1.0
v 7 8 1.0
v 7 9 1.0
v 6 9 1.0
vt 0.375 0.5
vt 0.4375 0.5
vt 0.4375 0.5625
vt 0.375 0.5625
f 489/489/1 490/490/1 491/491/1 492/492/1
v 7 8 0.0
v 6 8 0.0
v 6 9 0.0
v 7 9 0.0
vt 0.4375 0.5
vt 0.375 0.5
vt 0.375 0.5625
vt 0.4375 0.5625
f 493/493/2 494/494/2 495/495/2 496/496/2
v 7 8 1.0
v 8 8 1.0
v 8 9 1.0
v 7 9 1.0
vt 0.4375 0.5
vt 0.5 0.5
vt 0.5 0.5625
vt 0.4375 0.5625
f 497/497/1 498/498/1 499/499/1 500/500/1
v 8 8 0.0
v 7 8 0.0
v 7 9 0.0
v 8 9 0.0
vt 0.5 0.5
vt 0.4375 0.5
vt 0.4375 0.5625
vt 0.5 0.5625
f 501/501/2 502/502/2 503/503/2 504/504/2
v 8 8 1.0
v 9 8 1.0
v 9 9 1.0
v 8 9 1.0
vt 0.5 0.5
vt 0.5625 0.5
vt 0.5625 0.5625
vt 0.5 0.5625
f 505/505/1 506/506/1 507/507/1 508/508/1
v 9 8 0.0
v 8 8 0.0
v 8 9 0.0
v 9 9 0.0
vt 0.5625 0.5
vt 0.5 0.5
vt 0.5 0.5625
vt 0.5625 0.5625
f 509/509/2 510/510/2 511/511/2 512/512/2
v 9 8 1.0
v 10 8 1.0
v 10 9 1.0
v 9 9 1.0
vt 0.5625 0.5
vt 0.625 0.5
vt 0.625 0.5625
vt 0.5625 0.5625
f 513/513/1 514/514/1 515/515/1 516/516/1
v 10 8 0.0
v 9 8 0.0
v 9 9 0.0
v 10 9 0.0
vt 0.625 0.5
vt 0.5625 0.5
vt 0.5625 0.5625
vt 0.625 0.5625
f 517/517/2 518/518/2 519/519/2 520/520/2
v 9 9 1.0
v 10 9 1.0
v 10 9 0.0
v 9 9 0.0
vt 0.5625 0.5
vt 0.625 0.5
vt 0.625 0.5625
vt 0.5625 0.5625
f 521/521/3 522/522/3 523/523/3 524/524/3
v 10 8 1.0
v 10 8 0.0
v 10 9 0.0
v 10 9 1.0
vt 0.5625 0.5
vt 0.625 0.5
vt 0.625 0.5625
vt 0.5625 0.5625
f 525/525/5 526/526/5 527/527/5 528/528/5
v 4 7 1.0
v 5 7 1.0
v 5 8 1.0
v 4 8 1.0
vt 0.25 0.4375
vt 0.3125 0.4375
vt 0.3125 0.5
vt 0.25 0.5
f 529/529/1 530/530/1 531/531/1 532/532/1
v 5 7 0.0
v 4 7 0.0
v 4 8 0.0
v 5 8 0.0
vt 0.3125 0.4375
vt 0.25 0.4375
vt 0.25 0.5
vt 0.3125 0.5
f 533/533/2 534/534/2 535/535/2 536/536/2
v 4 7 0.0
v 4 7 1.0
v 4 8 1.0
v 4 8 0.0
vt 0.25 0.4375
vt 0.3125 0.4375
vt 0.3125 0.5
vt 0.25 0.5
f 537/537/6 538/538/6 539/539/6 540/540/6
v 5 7 1.0
v 6 7 1.0
v 6 8 1.0
v 5 8 1.0
vt 0.3125 0.4375
vt 0.375 0.4375
vt 0.375 0.5
vt 0.3125 0.5
f 541/541/1 542/542/1 543/543/1 544/544/1
v 6 7 0.0
v 5 7 0.0
v 5 8 0.0
v 6 8 0.0
vt 0.375 0.4375
vt 0.3125 0.4375
vt 0.3125 0.5
vt 0.375 0.5
f 545/545/2 546/546/2 547/547/2 548/548/2
v 6 7 1.0
v 7 7 1.0
v 7 8 1.0
v 6 8 1.0
vt 0.375 0.4375
vt 0.4375 0.4375
vt 0.4375 0.5
vt 0.375 0.5
f 549/549/1 550/550/1 551/551/1 552/552/1
v 7 7 0.0
v 6 7 0.0
v 6 8 0.0
v 7 8 0.0
vt 0.4375 0.4375
vt 0.375 0.4375
vt 0.375 0.5
vt 0.4375 0.5
f 553/553/2 554/554/2 555/555/2 556/556/2
v 7 7 1.0
v 8 7 1.0
v 8 8 1.0
v 7 8 1.0
vt 0.4375 0.4375
vt 0.5 0.4375
vt 0.5 0.5
vt 0.4375 0.5
f 557/557/1 558/558/1 559/559/1 560/560/1
v 8 7 0.0
v 7 7 0.0
v 7 8 0.0
v 8 8 0.0
vt 0.5 0.4375
vt 0.4375 0.4375
vt 0.4375 0.5
vt 0.5 0.5
f 561/561/2 562/562/2 563/563/2 564/564/2
v 8 7 1.0
v 9 7 1.0
v 9 8 1.0
v 8 8 1.0
vt 0.5 0.4375
vt 0.5625 0.4375
vt 0.5625 0.5
vt 0.5 0.5
f 565/565/1 566/566/1 567/567/1 568/568/1
v 9 7 0.0
v 8 7 0.0
v 8 8 0.0
v 9 8 0.0
vt 0.5625 0.4375
vt 0.5 0.4375
vt 0.5 0.5
vt 0.5625 0.5
f 569/569/2 570/570/2 571/571/2 572/572/2
v 9 7 1.0
v 10 7 1.0
v 10 8 1.0
v 9 8 1.0
vt 0.5625 0.4375
vt 0.625 0.4375
vt 0.625 0.5
vt 0.5625 0.5
f 573/573/1 574/574/1 575/575/1 576/576/1
v 10 7 0.0
v 9 7 0.0
v 9 8 0.0
v 10 8 0.0
vt 0.625 0.4375
vt 0.5625 0.4375
vt 0.5625 0.5
vt 0.625 0.5
f 577/577/2 578/578/2 579/579/2 580/580/2
v 9 7 0.0
v 10 7 0.0
v 10 7 1.0
v 9 7 1.0
vt 0.5625 0.4375
vt 0.625 0.4375
vt 0.625 0.5
vt 0.5625 0.5
f 581/581/4 582/582/4 583/583/4 584/584/4
v 10 7 1.0
v 10 7 0.0
v 10 8 0.0
v 10 8 1.0
vt 0.5625 0.4375
vt 0.625 0.4375
vt 0.625 0.5
vt 0.5625 0.5
f 585/585/5 586/586/5 587/587/5 588/588/5
v 3 6 1.0
v 4 6 1.0
v 4 7 1.0
v 3 7 1.0
vt 0.1875 0.375
vt 0.25 0.375
vt 0.25 0.4375
vt 0.1875 0.4375
f 589/589/1 590/590/1 591/591/1 592/592/1
v 4 6 0.0
v 3 6 0.0
v 3 7 0.0
v 4 7 0.0
vt 0.25 0.375
vt 0.1875 0.375
vt 0.1875 0.4375
vt 0.25 0.4375
f 593/593/2 594/594/2 595/595/2 596/596/2
v 3 7 1.0
v 4 7 1.0
v 4 7 0.0
v 3 7 0.0
vt 0.1875 0.375
vt 0.25 0.375
vt 0.25 0.4375
vt 0.1875 0.4375
f 597/597/3 598/598/3 599/599/3 600/600/3
v 3 6 0.0
v 3 6 1.0
v 3 7 1.0
v 3 7 0.0
vt 0.1875 0.375
vt 0.25 0.375
vt 0.25 0.4375
vt 0.1875 0.4375
f 601/601/6 602/602/6 603/603/6 604/604/6
v 4 6 1.0
v 5 6 1.0
v 5 7 1.0
v 4 7 1.0
vt 0.25 0.375
vt 0.3125 0.375
vt 0.3125 0.4375
vt 0.25 0.4375
f 605/605/1 606/606/1 607/607/1 608/608/1
v 5 6 0.0
v 4 6 0.0
v 4 7 0.0
v 5 7 0.0
vt 0.3125 0.375
vt 0.25 0.375
vt 0.25 0.4375
vt 0.3125 0.4375
f 609/609/2 610/610/2 611/611/2 612/612/2
v 5 6 1.0
v 6 6 1.0
v 6 7 1.0
v 5 7 1.0
vt 0.3125 0.375
vt 0.375 0.375
vt 0.375 0.4375
vt 0.3125 0.4375
f 613/613/1 614/614/1 615/615/1 616/616/1
v 6 6 0.0
v 5 6 0.0
v 5 7 0.0
v 6 7 0.0
vt 0.375 0.375
vt 0.3125 0.375
vt 0.3125 0.4375
vt 0.375 0.4375
f 617/617/2 618/618/2 619/619/2 620/620/2
v 6 6 1.0
v 7 6 1.0
v 7 7 1.0
v 6 7 1.0
vt 0.375 0.375
vt 0.4375 0.375
vt 0.4375 0.4375
vt 0.375 0.4375
f 621/621/1 622/622/1 623/623/1 624/624/1
v 7 6 0.0
v 6 6 0.0
v 6 7 0.0
v 7 7 0.0
vt 0.4375 0.375
vt 0.375 0.375
vt 0.375 0.4375
vt 0.4375 0.4375
f 625/625/2 626/626/2 627/627/2 628/628/2
v 7 6 1.0
v 8 6 1.0
v 8 7 1.0
v 7 7 1.0
vt 0.4375 0.375
vt 0.5 0.375
vt 0.5 0.4375
vt 0.4375 0.4375
f 629/629/1 630/630/1 631/631/1 632/632/1
v 8 6 0.0
v 7 6 0.0
v 7 7 0.0
v 8 7 0.0
vt 0.5 0.375
vt 0.4375 0.375
vt 0.4375 0.4375
vt 0.5 0.4375
f 633/633/2 634/634/2 635/635/2 636/636/2
v 8 6 1.0
v 9 6 1.0
v 9 7 1.0
v 8 7 1.0
vt 0.5 0.375
vt 0.5625 0.375
vt 0.5625 0.4375
vt 0.5 0.4375
f 637/637/1 638/638/1 639/639/1 640/640/1
v 9 6 0.0
v 8 6 0.0
v 8 7 0.0
v 9 7 0.0
vt 0.5625 0.375
vt 0.5 0.375
vt 0.5 0.4375
vt 0.5625 0.4375
f 641/641/2 642/642/2 643/643/2 644/644/2
v 8 6 0.0
v 9 6 0.0
v 9 6 1.0
v 8 6 1.0
vt 0.5 0.375
vt 0.5625 0.375
vt 0.5625 0.4375
vt 0.5 0.4375
f 645/645/4 646/646/4 647/647/4 648/648/4
v 9 6 1.0
v 9 6 0.0
v 9 7 0.0
v 9 7 1.0
vt 0.5 0.375
vt 0.5625 0.375
vt 0.5625 0.4375
vt 0.5 0.4375
f 649/649/5 650/650/5 651/651/5 652/652/5
v 3 5 1.0
v 4 5 1.0
v 4 6 1.0
v 3 6 1.0
vt 0.1875 0.3125
vt 0.25 0.3125
vt 0.25 0.375
vt 0.1875 0.375
f 653/653/1 654/654/1 655/655/1 656/656/1
v 4 5 0.0
v 3 5 0.0
v 3 6 0.0
v 4 6 0.0
vt 0.25 0.3125
vt 0.1875 0.3125
vt 0.1875 0.375
vt 0.25 0.375
f 657/657/2 658/658/2 659/659/2 660/660/2
v 3 5 0.0
v 3 5 1.0
v 3 6 1.0
v 3 6 0.0
vt 0.1875 0.3125
vt 0.25 0.3125
vt 0.25 0.375
vt 0.1875 0.375
f 661/661/6 662/662/6 663/663/6 664/664/6
v 4 5 1.0
v 5 5 1.0
v 5 6 1.0
v 4 6 1.0
vt 0.25 0.3125
vt 0.3125 0.3125
vt 0.3125 0.375
vt 0.25 0.375
f 665/665/1 666/666/1 667/667/1 668/668/1
v 5 5 0.0
v 4 5 0.0
v 4 6 0.0
v 5 6 0.0
vt 0.3125 0.3125
vt 0.25 0.3125
vt 0.25 0.375
vt 0.3125 0.375
f 669/669/2 670/670/2 671/671/2 672/672/2
v 5 5 1.0
v 6 5 1.0
v 6 6 1.0
v 5 6 1.0
vt 0.3125 0.3125
vt 0.375 0.3125
vt 0.375 0.375
vt 0.3125 0.375
f 673/673/1 674/674/1 675/675/1 676/676/1
v 6 5 0.0
v 5 5 0.0
v 5 6 0.0
v 6 6 0.0
vt 0.375 0.3125
vt 0.3125 0.3125
vt 0.3125 0.375
vt 0.375 0.375
f 677/677/2 678/678/2 679/679/2 680/680/2
v 6 5 1.0
v 7 5 1.0
v 7 6 1.0
v 6 6 1.0
vt 0.375 0.3125
vt 0.4375 0.3125
vt 0.4375 0.375
vt 0.375 0.375
f 681/681/1 682/682/1 683/683/1 684/684/1
v 7 5 0.0
v 6 5 0.0
v 6 6 0.0
v 7 6 0.0
vt 0.4375 0.3125
vt 0.375 0.3125
vt 0.375 0.375
vt 0.4375 0.375
f 685/685/2 686/686/2 687/687/2 688/688/2
v 7 5 1.0
v 8 5 1.0
v 8 6 1.0
v 7 6 1.0
vt 0.4375 0.3125
vt 0.5 0.3125
vt 0.5 0.375
vt 0.4375 0.375
f 689/689/1 690/690/1 691/691/1 692/692/1
v 8 5 0.0
v 7 5 0.0
v 7 6 0.0
v 8 6 0.0
vt 0.5 0.3125
vt 0.4375 0.3125
vt 0.4375 0.375
vt 0.5 0.375
f 693/693/2 694/694/2 695/695/2 696/696/2
v 8 5 1.0
v 8 5 0.0
v 8 6 0.0
v 8 6 1.0
vt 0.4375 0.3125
vt 0.5 0.3125
vt 0.5 0.375
vt 0.4375 0.375
f 697/697/5 698/698/5 699/699/5 700/700/5
v 3 4 1.0
v 4 4 1.0
v 4 5 1.0
v 3 5 1.0
vt 0.1875 0.25
vt 0.25 0.25
vt 0.25 0.3125
vt 0.1875 0.3125
f 701/701/1 702/702/1 703/703/1 704/704/1
v 4 4 0.0
v 3 4 0.0
v 3 5 0.0
v 4 5 0.0
vt 0.25 0.25
vt 0.1875 0.25
vt 0.1875 0.3125
vt 0.25 0.3125
f 705/705/2 706/706/2 707/707/2 708/708/2
v 3 4 0.0
v 3 4 1.0
v 3 5 1.0
v 3 5 0.0
vt 0.1875 0.25
vt 0.25 0.25
vt 0.25 0.3125
vt 0.1875 0.3125
f 709/709/6 710/710/6 711/711/6 712/712/6
v 4 4 1.0
v 5 4 1.0
v 5 5 1.0
v 4 5 1.0
vt 0.25 0.25
vt 0.3125 0.25
vt 0.3125 0.3125
vt 0.25 0.3125
f 713/713/1 714/714/1 715/715/1 716/716/1
v 5 4 0.0
v 4 4 0.0
v 4 5 0.0
v 5 5 0.0
vt 0.3125 0.25
vt 0.25 0.25
vt 0.25 0.3125
vt 0.3125 0.3125
f 717/717/2 718/718/2 719/719/2 720/720/2
v 5 4 1.0
v 6 4 1.0
v 6 5 1.0
v 5 5 1.0
vt 0.3125 0.25
vt 0.375 0.25
vt 0.375 0.3125
vt 0.3125 0.3125
f 721/721/1 722/722/1 723/723/1 724/724/1
v 6 4 0.0
v 5 4 0.0
v 5 5 0.0
v 6 5 0.0
vt 0.375 0.25
vt 0.3125 0.25
vt 0.3125 0.3125
vt 0.375 0.3125
f 725/725/2 726/726/2 727/727/2 728/728/2
v 6 4 1.0
v 7 4 1.0
v 7 5 1.0
v 6 5 1.0
vt 0.375 0.25
vt 0.4375 0.25
vt 0.4375 0.3125
vt 0.375 0.3125
f 729/729/1 730/730/1 731/731/1 732/732/1
v 7 4 0.0
v 6 4 0.0
v 6 5 0.0
v 7 5 0.0
vt 0.4375 0.25
vt 0.375 0.25
vt 0.375 0.3125
vt 0.4375 0.3125
f 733/733/2 734/734/2 735/735/2 736/736/2
v 7 4 1.0
v 8 4 1.0
v 8 5 1.0
v 7 5 1.0
vt 0.4375 0.25
vt 0.5 0.25
vt 0.5 0.3125
vt 0.4375 0.3125
f 737/737/1 738/738/1 739/739/1 740/740/1
v 8 4 0.0
v 7 4 0.0
v 7 5 0.0
v 8 5 0.0
vt 0.5 0.25
vt 0.4375 0.25
vt 0.4375 0.3125
vt 0.5 0.3125
f 741/741/2 742/742/2 743/743/2 744/744/2
v 7 4 0.0
v 8 4 0.0
v 8 4 1.0
v 7 4 1.0
vt 0.4375 0.25
vt 0.5 0.25
vt 0.5 0.3125
vt 0.4375 0.3125
f 745/745/4 746/746/4 747/747/4 748/748/4
v 8 4 1.0
v 8 4 0.0
v 8 5 0.0
v 8 5 1.0
vt 0.4375 0.25
vt 0.5 0.25
vt 0.5 0.3125
vt 0.4375 0.3125
f 749/749/5 750/750/5 751/751/5 752/752/5
v 3 3 1.0
v 4 3 1.0
v 4 4 1.0
v 3 4 1.0
vt 0.1875 0.1875
vt 0.25 0.1875
vt 0.25 0.25
vt 0.1875 0.25
f 753/753/1 754/754/1 755/755/1 756/756/1
v 4 3 0.0
v 3 3 0.0
v 3 4 0.0
v 4 4 0.0
vt 0.25 0.1875
vt 0.1875 0.1875
vt 0.1875 0.25
vt 0.25 0.25
f 757/757/2 758/758/2 759/759/2 760/760/2
v 3 3 0.0
v 4 3 0.0
v 4 3 1.0
v 3 3 1.0
vt 0.1875 0.1875
vt 0.25 0.1875
vt 0.25 0.25
vt 0.1875 0.25
f 761/761/4 762/762/4 763/763/4 764/764/4
v 3 3 0.0
v 3 3 1.0
v 3 4 1.0
v 3 4 0.0
vt 0.1875 0.1875
vt 0.25 0.1875
vt 0.25 0.25
vt 0.1875 0.25
f 765/765/6 766/766/6 767/767/6 768/768/6
v 4 3 1.0
v 5 3 1.0
v 5 4 1.0
v 4 4 1.0
vt 0.25 0.1875
vt 0.3125 0.1875
vt 0.3125 0.25
vt 0.25 0.25
f 769/769/1 770/770/1 771/771/1 772/772/1
v 5 3 0.0
v 4 3 0.0
v 4 4 0.0
v 5 4 0.0
vt 0.3125 0.1875
vt 0.25 0.1875
vt 0.25 0.25
vt 0.3125 0.25
f 773/773/2 774/774/2 775/775/2 776/776/2
v 5 3 1.0
v 6 3 1.0
v 6 4 1.0
v 5 4 1.0
vt 0.3125 0.1875
vt 0.375 0.1875
vt 0.375 0.25
vt 0.3125 0.25
f 777/777/1 778/778/1 779/779/1 780/780/1
v 6 3 0.0
v 5 3 0.0
v 5 4 0.0
v 6 4 0.0
vt 0.375 0.1875
vt 0.3125 0.1875
vt 0.3125 0.25
vt 0.375 0.25
f 781/781/2 782/782/2 783/783/2 784/784/2
v 6 3 1.0
v 7 3 1.0
v 7 4 1.0
v 6 4 1.0
vt 0.375 0.1875
vt 0.4375 0.1875
vt 0.4375 0.25
vt 0.375 0.25
f 785/785/1 786/786/1 787/787/1 788/788/1
v 7 3 0.0
v 6 3 0.0
v 6 4 0.0
v 7 4 0.0
vt 0.4375 0.1875
vt 0.375 0.1875
vt 0.375 0.25
vt 0.4375 0.25
f 789/789/2 790/790/2 791/791/2 792/792/2
v 7 3 1.0
v 7 3 0.0
v 7 4 0.0
v 7 4 1.0
vt 0.375 0.1875
vt 0.4375 0.1875
vt 0.4375 0.25
vt 0.375 0.25
f 793/793/5 794/794/5 795/795/5 796/796/5
v 4 2 1.0
v 5 2 1.0
v 5 3 1.0
v 4 3 1.0
vt 0.25 0.125
vt 0.3125 0.125
vt 0.3125 0.1875
vt 0.25 0.1875
f 797/797/1 798/798/1 799/799/1 800/800/1
v 5 2 0.0
v 4 2 0.0
v 4 3 0.0
v 5 3 0.0
vt 0.3125 0.125
vt 0.25 0.125
vt 0.25 0.1875
vt 0.3125 0.1875
f 801/801/2 802/802/2 803/803/2 804/804/2
v 4 2 0.0
v 5 2 0.0
v 5 2 1.0
v 4 2 1.0
vt 0.25 0.125
vt 0.3125 0.125
vt 0.3125 0.1875
vt 0.25 0.1875
f 805/805/4 806/806/4 807/807/4 808/808/4
v 4 2 0.0
v 4 2 1.0
v 4 3 1.0
v 4 3 0.0
vt 0.25 0.125
vt 0.3125 0.125
vt 0.3125 0.1875
vt 0.25 0.1875
f 809/809/6 810/810/6 811/811/6 812/812/6
v 5 2 1.0
v 6 2 1.0
v 6 3 1.0
v 5 3 1.0
vt 0.3125 0.125
vt 0.375 0.125
vt 0.375 0.1875
vt 0.3125 0.1875
f 813/813/1 814/814/1 815/815/1 816/816/1
v 6 2 0.0
v 5 2 0.0
v 5 3 0.0
v 6 3 0.0
vt 0.375 0.125
vt 0.3125 0.125
vt 0.3125 0.1875
vt 0.375 0.1875
f 817/817/2 818/818/2 819/819/2 820/820/2
v 6 2 1.0
v 7 2 1.0
v 7 3 1.0
v 6 3 1.0
vt 0.375 0.125
vt 0.4375 0.125
vt 0.4375 0.1875
vt 0.375 0.1875
f 821/821/1 822/822/1 823/823/1 824/824/1
v 7 2 0.0
v 6 2 0.0
v 6 3 0.0
v 7 3 0.0
vt 0.4375 0.125
vt 0.375 0.125
vt 0.375 0.1875
vt 0.4375 0.1875
f 825/825/2 826/826/2 827/827/2 828/828/2
v 6 2 0.0
v 7 2 0.0
v 7 2 1.0
v 6 2 1.0
vt 0.375 0.125
vt 0.4375 0.125
vt 0.4375 0.1875
vt 0.375 0.1875
f 829/829/4 830/830/4 831/831/4 832/832/4
v 7 2 1.0
v 7 2 0.0
v 7 3 0.0
v 7 3 1.0
vt 0.375 0.125
vt 0.4375 0.125
vt 0.4375 0.1875
vt 0.375 0.1875
f 833/833/5 834/834/5 835/835/5 836/836/5
v 5 1 1.0
v 6 1 1.0
v 6 2 1.0
v 5 2 1.0
vt 0.3125 0.0625
vt 0.375 0.0625
vt 0.375 0.125
vt 0.3125 0.125
f 837/837/1 838/838/1 839/839/1 840/840/1
v 6 1 0.0
v 5 1 0.0
v 5 2 0.0
v 6 2 0.0
vt 0.375 0.0625
vt 0.3125 0.0625
vt 0.3125 0.125
vt 0.375 0.125
f 841/841/2 842/842/2 843/843/2 844/844/2
v 5 1 0.0
v 6 1 0.0
v 6 1 1.0
v 5 1 1.0
vt 0.3125 0.0625
vt 0.375 0.0625
vt 0.375 0.125
vt 0.3125 0.125
f 845/845/4 846/846/4 847/847/4 848/848/4
v 6 1 1.0
v 6 1 0.0
v 6 2 0.0
v 6 2 1.0
vt 0.3125 0.0625
vt 0.375 0.0625
vt 0.375 0.125
vt 0.3125 0.125
f 849/849/5 850/850/5 851/851/5 852/852/5
v 5 1 0.0
v 5 1 1.0
v 5 2 1.0
v 5 2 0.0
vt 0.3125 0.0625
vt 0.375 0.0625
vt 0.375 0.125
vt 0.3125 0.125
f 853/853/6 854/854/6 855/855/6 856/856/6
o mesh_mask_4
usemtl mat_建筑工茶饮
v 10 7 1.0
v 11 7 1.0
v 11 8 1.0
v 10 8 1.0
vt 0.625 0.4375
vt 0.6875 0.4375
vt 0.6875 0.5
vt 0.625 0.5
f 857/857/1 858/858/1 859/859/1 860/860/1
v 11 7 0.0
v 10 7 0.0
v 10 8 0.0
v 11 8 0.0
vt 0.6875 0.4375
vt 0.625 0.4375
vt 0.625 0.5
vt 0.6875 0.5
f 861/861/2 862/862/2 863/863/2 864/864/2
v 10 8 1.0
v 11 8 1.0
v 11 8 0.0
v 10 8 0.0
vt 0.625 0.4375
vt 0.6875 0.4375
vt 0.6875 0.5
vt 0.625 0.5
f 865/865/3 866/866/3 867/867/3 868/868/3
v 11 7 1.0
v 11 7 0.0
v 11 8 0.0
v 11 8 1.0
vt 0.625 0.4375
vt 0.6875 0.4375
vt 0.6875 0.5
vt 0.625 0.5
f 869/869/5 870/870/5 871/871/5 872/872/5
v 10 7 0.0
v 10 7 1.0
v 10 8 1.0
v 10 8 0.0
vt 0.625 0.4375
vt 0.6875 0.4375
vt 0.6875 0.5
vt 0.625 0.5
f 873/873/6 874/874/6 875/875/6 876/876/6
v 9 6 1.0
v 10 6 1.0
v 10 7 1.0
v 9 7 1.0
vt 0.5625 0.375
vt 0.625 0.375
vt 0.625 0.4375
vt 0.5625 0.4375
f 877/877/1 878/878/1 879/879/1 880/880/1
v 10 6 0.0
v 9 6 0.0
v 9 7 0.0
v 10 7 0.0
vt 0.625 0.375
vt 0.5625 0.375
vt 0.5625 0.4375
vt 0.625 0.4375
f 881/881/2 882/882/2 883/883/2 884/884/2
v 9 7 1.0
v 10 7 1.0
v 10 7 0.0
v 9 7 0.0
vt 0.5625 0.375
vt 0.625 0.375
vt 0.625 0.4375
vt 0.5625 0.4375
f 885/885/3 886/886/3 887/887/3 888/888/3
v 9 6 0.0
v 9 6 1.0
v 9 7 1.0
v 9 7 0.0
vt 0.5625 0.375
vt 0.625 0.375
vt 0.625 0.4375
vt 0.5625 0.4375
f 889/889/6 890/890/6 891/891/6 892/892/6
v 10 6 1.0
v 11 6 1.0
v 11 7 1.0
v 10 7 1.0
vt 0.625 0.375
vt 0.6875 0.375
vt 0.6875 0.4375
vt 0.625 0.4375
f 893/893/1 894/894/1 895/895/1 896/896/1
v 11 6 0.0
v 10 6 0.0
v 10 7 0.0
v 11 7 0.0
vt 0.6875 0.375
vt 0.625 0.375
vt 0.625 0.4375
vt 0.6875 0.4375
f 897/897/2 898/898/2 899/899/2 900/900/2
v 11 6 1.0
v 12 6 1.0
v 12 7 1.0
v 11 7 1.0
vt 0.6875 0.375
vt 0.75 0.375
vt 0.75 0.4375
vt 0.6875 0.4375
f 901/901/1 902/902/1 903/903/1 904/904/1
v 12 6 0.0
v 11 6 0.0
v 11 7 0.0
v 12 7 0.0
vt 0.75 0.375
vt 0.6875 0.375
vt 0.6875 0.4375
vt 0.75 0.4375
f 905/905/2 906/906/2 907/907/2 908/908/2
v 11 7 1.0
v 12 7 1.0
v 12 7 0.0
v 11 7 0.0
vt 0.6875 0.375
vt 0.75 0.375
vt 0.75 0.4375
vt 0.6875 0.4375
f 909/909/3 910/910/3 911/911/3 912/912/3
v 12 6 1.0
v 12 6 0.0
v 12 7 0.0
v 12 7 1.0
vt 0.6875 0.375
vt 0.75 0.375
vt 0.75 0.4375
vt 0.6875 0.4375
f 913/913/5 914/914/5 915/915/5 916/916/5
v 8 5 1.0
v 9 5 1.0
v 9 6 1.0
v 8 6 1.0
vt 0.5 0.3125
vt 0.5625 0.3125
vt 0.5625 0.375
vt 0.5 0.375
f 917/917/1 918/918/1 919/919/1 920/920/1
v 9 5 0.0
v 8 5 0.0
v 8 6 0.0
v 9 6 0.0
vt 0.5625 0.3125
vt 0.5 0.3125
vt 0.5 0.375
vt 0.5625 0.375
f 921/921/2 922/922/2 923/923/2 924/924/2
v 8 6 1.0
v 9 6 1.0
v 9 6 0.0
v 8 6 0.0
vt 0.5 0.3125
vt 0.5625 0.3125
vt 0.5625 0.375
vt 0.5 0.375
f 925/925/3 926/926/3 927/927/3 928/928/3
v 8 5 0.0
v 8 5 1.0
v 8 6 1.0
v 8 6 0.0
vt 0.5 0.3125
vt 0.5625 0.3125
vt 0.5625 0.375
vt 0.5 0.375
f 929/929/6 930/930/6 931/931/6 932/932/6
v 9 5 1.0
v 10 5 1.0
v 10 6 1.0
v 9 6 1.0
vt 0.5625 0.3125
vt 0.625 0.3125
vt 0.625 0.375
vt 0.5625 0.375
f 933/933/1 934/934/1 935/935/1 936/936/1
v 10 5 0.0
v 9 5 0.0
v 9 6 0.0
v 10 6 0.0
vt 0.625 0.3125
vt 0.5625 0.3125
vt 0.5625 0.375
vt 0.625 0.375
f 937/937/2 938/938/2 939/939/2 940/940/2
v 10 5 1.0
v 11 5 1.0
v 11 6 1.0
v 10 6 1.0
vt 0.625 0.3125
vt 0.6875 0.3125
vt 0.6875 0.375
vt 0.625 0.375
f 941/941/1 942/942/1 943/943/1 944/944/1
v 11 5 0.0
v 10 5 0.0
v 10 6 0.0
v 11 6 0.0
vt 0.6875 0.3125
vt 0.625 0.3125
vt 0.625 0.375
vt 0.6875 0.375
f 945/945/2 946/946/2 947/947/2 948/948/2
v 11 5 1.0
v 12 5 1.0
v 12 6 1.0
v 11 6 1.0
vt 0.6875 0.3125
vt 0.75 0.3125
vt 0.75 0.375
vt 0.6875 0.375
f 949/949/1 950/950/1 951/951/1 952/952/1
v 12 5 0.0
v 11 5 0.0
v 11 6 0.0
v 12 6 0.0
vt 0.75 0.3125
vt 0.6875 0.3125
vt 0.6875 0.375
vt 0.75 0.375
f 953/953/2 954/954/2 955/955/2 956/956/2
v 12 5 1.0
v 12 5 0.0
v 12 6 0.0
v 12 6 1.0
vt 0.6875 0.3125
vt 0.75 0.3125
vt 0.75 0.375
vt 0.6875 0.375
f 957/957/5 958/958/5 959/959/5 960/960/5
v 13 5 1.0
v 14 5 1.0
v 14 6 1.0
v 13 6 1.0
vt 0.8125 0.3125
vt 0.875 0.3125
vt 0.875 0.375
vt 0.8125 0.375
f 961/961/1 962/962/1 963/963/1 964/964/1
v 14 5 0.0
v 13 5 0.0
v 13 6 0.0
v 14 6 0.0
vt 0.875 0.3125
vt 0.8125 0.3125
vt 0.8125 0.375
vt 0.875 0.375
f 965/965/2 966/966/2 967/967/2 968/968/2
v 13 6 1.0
v 14 6 1.0
v 14 6 0.0
v 13 6 0.0
vt 0.8125 0.3125
vt 0.875 0.3125
vt 0.875 0.375
vt 0.8125 0.375
f 969/969/3 970/970/3 971/971/3 972/972/3
v 13 5 0.0
v 14 5 0.0
v 14 5 1.0
v 13 5 1.0
vt 0.8125 0.3125
vt 0.875 0.3125
vt 0.875 0.375
vt 0.8125 0.375
f 973/973/4 974/974/4 975/975/4 976/976/4
v 14 5 1.0
v 14 5 0.0
v 14 6 0.0
v 14 6 1.0
vt 0.8125 0.3125
vt 0.875 0.3125
vt 0.875 0.375
vt 0.8125 0.375
f 977/977/5 978/978/5 979/979/5 980/980/5
v 13 5 0.0
v 13 5 1.0
v 13 6 1.0
v 13 6 0.0
vt 0.8125 0.3125
vt 0.875 0.3125
vt 0.875 0.375
vt 0.8125 0.375
f 981/981/6 982/982/6 983/983/6 984/984/6
v 8 4 1.0
v 9 4 1.0
v 9 5 1.0
v 8 5 1.0
vt 0.5 0.25
vt 0.5625 0.25
vt 0.5625 0.3125
vt 0.5 0.3125
f 985/985/1 986/986/1 987/987/1 988/988/1
v 9 4 0.0
v 8 4 0.0
v 8 5 0.0
v 9 5 0.0
vt 0.5625 0.25
vt 0.5 0.25
vt 0.5 0.3125
vt 0.5625 0.3125
f 989/989/2 990/990/2 991/991/2 992/992/2
v 8 4 0.0
v 8 4 1.0
v 8 5 1.0
v 8 5 0.0
vt 0.5 0.25
vt 0.5625 0.25
vt 0.5625 0.3125
vt 0.5 0.3125
f 993/993/6 994/994/6 995/995/6 996/996/6
v 9 4 1.0
v 10 4 1.0
v 10 5 1.0
v 9 5 1.0
vt 0.5625 0.25
vt 0.625 0.25
vt 0.625 0.3125
vt 0.5625 0.3125
f 997/997/1 998/998/1 999/999/1 1000/1000/1
v 10 4 0.0
v 9 4 0.0
v 9 5 0.0
v 10 5 0.0
vt 0.625 0.25
vt 0.5625 0.25
vt 0.5625 0.3125
vt 0.625 0.3125
f 1001/1001/2 1002/1002/2 1003/1003/2 1004/1004/2
v 10 4 1.0
v 11 4 1.0
v 11 5 1.0
v 10 5 1.0
vt 0.625 0.25
vt 0.6875 0.25
vt 0.6875 0.3125
vt 0.625 0.3125
f 1005/1005/1 1006/1006/1 1007/1007/1 1008/1008/1
v 11 4 0.0
v 10 4 0.0
v 10 5 0.0
v 11 5 0.0
vt 0.6875 0.25
vt 0.625 0.25
vt 0.625 0.3125
vt 0.6875 0.3125
f 1009/1009/2 1010/1010/2 1011/1011/2 1012/1012/2
v 11 4 1.0
v 12 4 1.0
v 12 5 1.0
v 11 5 1.0
vt 0.6875 0.25
vt 0.75 0.25
vt 0.75 0.3125
vt 0.6875 0.3125
f 1013/1013/1 1014/1014/1 1015/1015/1 1016/1016/1
v 12 4 0.0
v 11 4 0.0
v 11 5 0.0
v 12 5 0.0
vt 0.75 0.25
vt 0.6875 0.25
vt 0.6875 0.3125
vt 0.75 0.3125
f 1017/1017/2 1018/1018/2 1019/1019/2 1020/1020/2
v 12 4 1.0
v 13 4 1.0
v 13 5 1.0
v 12 5 1.0
vt 0.75 0.25
vt 0.8125 0.25
vt 0.8125 0.3125
vt 0.75 0.3125
f 1021/1021/1 1022/1022/1 1023/1023/1 1024/1024/1
v 13 4 0.0
v 12 4 0.0
v 12 5 0.0
v 13 5 0.0
vt 0.8125 0.25
vt 0.75 0.25
vt 0.75 0.3125
vt 0.8125 0.3125
f 1025/1025/2 1026/1026/2 1027/1027/2 1028/1028/2
v 12 5 1.0
v 13 5 1.0
v 13 5 0.0
v 12 5 0.0
vt 0.75 0.25
vt 0.8125 0.25
vt 0.8125 0.3125
vt 0.75 0.3125
f 1029/1029/3 1030/1030/3 1031/1031/3 1032/1032/3
v 12 4 0.0
v 13 4 0.0
v 13 4 1.0
v 12 4 1.0
vt 0.75 0.25
vt 0.8125 0.25
vt 0.8125 0.3125
vt 0.75 0.3125
f 1033/1033/4 1034/1034/4 1035/1035/4 1036/1036/4
v 13 4 1.0
v 13 4 0.0
v 13 5 0.0
v 13 5 1.0
vt 0.75 0.25
vt 0.8125 0.25
vt 0.8125 0.3125
vt 0.75 0.3125
f 1037/1037/5 1038/1038/5 1039/1039/5 1040/1040/5
v 7 3 1.0
v 8 3 1.0
v 8 4 1.0
v 7 4 1.0
vt 0.4375 0.1875
vt 0.5 0.1875
vt 0.5 0.25
vt 0.4375 0.25
f 1041/1041/1 1042/1042/1 1043/1043/1 1044/1044/1
v 8 3 0.0
v 7 3 0.0
v 7 4 0.0
v 8 4 0.0
vt 0.5 0.1875
vt 0.4375 0.1875
vt 0.4375 0.25
vt 0.5 0.25
f 1045/1045/2 1046/1046/2 1047/1047/2 1048/1048/2
v 7 4 1.0
v 8 4 1.0
v 8 4 0.0
v 7 4 0.0
vt 0.4375 0.1875
vt 0.5 0.1875
vt 0.5 0.25
vt 0.4375 0.25
f 1049/1049/3 1050/1050/3 1051/1051/3 1052/1052/3
v 7 3 0.0
v 7 3 1.0
v 7 4 1.0
v 7 4 0.0
vt 0.4375 0.1875
vt 0.5 0.1875
vt 0.5 0.25
vt 0.4375 0.25
f 1053/1053/6 1054/1054/6 1055/1055/6 1056/1056/6
v 8 3 1.0
v 9 3 1.0
v 9 4 1.0
v 8 4 1.0
vt 0.5 0.1875
vt 0.5625 0.1875
vt 0.5625 0.25
vt 0.5 0.25
f 1057/1057/1 1058/1058/1 1059/1059/1 1060/1060/1
v 9 3 0.0
v 8 3 0.0
v 8 4 0.0
v 9 4 0.0
vt 0.5625 0.1875
vt 0.5 0.1875
vt 0.5 0.25
vt 0.5625 0.25
f 1061/1061/2 1062/1062/2 1063/1063/2 1064/1064/2
v 9 3 1.0
v 10 3 1.0
v 10 4 1.0
v 9 4 1.0
vt 0.5625 0.1875
vt 0.625 0.1875
vt 0.625 0.25
vt 0.5625 0.25
f 1065/1065/1 1066/1066/1 1067/1067/1 1068/1068/1
v 10 3 0.0
v 9 3 0.0
v 9 4 0.0
v 10 4 0.0
vt 0.625 0.1875
vt 0.5625 0.1875
vt 0.5625 0.25
vt 0.625 0.25
f 1069/1069/2 1070/1070/2 1071/1071/2 1072/1072/2
v 10 3 1.0
v 11 3 1.0
v 11 4 1.0
v 10 4 1.0
vt 0.625 0.1875
vt 0.6875 0.1875
vt 0.6875 0.25
vt 0.625 0.25
f 1073/1073/1 1074/1074/1 1075/1075/1 1076/1076/1
v 11 3 0.0
v 10 3 0.0
v 10 4 0.0
v 11 4 0.0
vt 0.6875 0.1875
vt 0.625 0.1875
vt 0.625 0.25
vt 0.6875 0.25
f 1077/1077/2 1078/1078/2 1079/1079/2 1080/1080/2
v 11 3 1.0
v 12 3 1.0
v 12 4 1.0
v 11 4 1.0
vt 0.6875 0.1875
vt 0.75 0.1875
vt 0.75 0.25
vt 0.6875 0.25
f 1081/1081/1 1082/1082/1 1083/1083/1 1084/1084/1
v 12 3 0.0
v 11 3 0.0
v 11 4 0.0
v 12 4 0.0
vt 0.75 0.1875
vt 0.6875 0.1875
vt 0.6875 0.25
vt 0.75 0.25
f 1085/1085/2 1086/1086/2 1087/1087/2 1088/1088/2
v 11 3 0.0
v 12 3 0.0
v 12 3 1.0
v 11 3 1.0
vt 0.6875 0.1875
vt 0.75 0.1875
vt 0.75 0.25
vt 0.6875 0.25
f 1089/1089/4 1090/1090/4 1091/1091/4 1092/1092/4
v 12 3 1.0
v 12 3 0.0
v 12 4 0.0
v 12 4 1.0
vt 0.6875 0.1875
vt 0.75 0.1875
vt 0.75 0.25
vt 0.6875 0.25
f 1093/1093/5 1094/1094/5 1095/1095/5 1096/1096/5
v 7 2 1.0
v 8 2 1.0
v 8 3 1.0
v 7 3 1.0
vt 0.4375 0.125
vt 0.5 0.125
vt 0.5 0.1875
vt 0.4375 0.1875
f 1097/1097/1 1098/1098/1 1099/1099/1 1100/1100/1
v 8 2 0.0
v 7 2 0.0
v 7 3 0.0
v 8 3 0.0
vt 0.5 0.125
vt 0.4375 0.125
vt 0.4375 0.1875
vt 0.5 0.1875
f 1101/1101/2 1102/1102/2 1103/1103/2 1104/1104/2
v 7 2 0.0
v 7 2 1.0
v 7 3 1.0
v 7 3 0.0
vt 0.4375 0.125
vt 0.5 0.125
vt 0.5 0.1875
vt 0.4375 0.1875
f 1105/1105/6 1106/1106/6 1107/1107/6 1108/1108/6
v 8 2 1.0
v 9 2 1.0
v 9 3 1.0
v 8 3 1.0
vt 0.5 0.125
vt 0.5625 0.125
vt 0.5625 0.1875
vt 0.5 0.1875
f 1109/1109/1 1110/1110/1 1111/1111/1 1112/1112/1
v 9 2 0.0
v 8 2 0.0
v 8 3 0.0
v 9 3 0.0
vt 0.5625 0.125
vt 0.5 0.125
vt 0.5 0.1875
vt 0.5625 0.1875
f 1113/1113/2 1114/1114/2 1115/1115/2 1116/1116/2
v 9 2 1.0
v 10 2 1.0
v 10 3 1.0
v 9 3 1.0
vt 0.5625 0.125
vt 0.625 0.125
vt 0.625 0.1875
vt 0.5625 0.1875
f 1117/1117/1 1118/1118/1 1119/1119/1 1120/1120/1
v 10 2 0.0
v 9 2 0.0
v 9 3 0.0
v 10 3 0.0
vt 0.625 0.125
vt 0.5625 0.125
vt 0.5625 0.1875
vt 0.625 0.1875
f 1121/1121/2 1122/1122/2 1123/1123/2 1124/1124/2
v 10 2 1.0
v 11 2 1.0
v 11 3 1.0
v 10 3 1.0
vt 0.625 0.125
vt 0.6875 0.125
vt 0.6875 0.1875
vt 0.625 0.1875
f 1125/1125/1 1126/1126/1 1127/1127/1 1128/1128/1
v 11 2 0.0
v 10 2 0.0
v 10 3 0.0
v 11 3 0.0
vt 0.6875 0.125
vt 0.625 0.125
vt 0.625 0.1875
vt 0.6875 0.1875
f 1129/1129/2 1130/1130/2 1131/1131/2 1132/1132/2
v 10 2 0.0
v 11 2 0.0
v 11 2 1.0
v 10 2 1.0
vt 0.625 0.125
vt 0.6875 0.125
vt 0.6875 0.1875
vt 0.625 0.1875
f 1133/1133/4 1134/1134/4 1135/1135/4 1136/1136/4
v 11 2 1.0
v 11 2 0.0
v 11 3 0.0
v 11 3 1.0
vt 0.625 0.125
vt 0.6875 0.125
vt 0.6875 0.1875
vt 0.625 0.1875
f 1137/1137/5 1138/1138/5 1139/1139/5 1140/1140/5
v 6 1 1.0
v 7 1 1.0
v 7 2 1.0
v 6 2 1.0
vt 0.375 0.0625
vt 0.4375 0.0625
vt 0.4375 0.125
vt 0.375 0.125
f 1141/1141/1 1142/1142/1 1143/1143/1 1144/1144/1
v 7 1 0.0
v 6 1 0.0
v 6 2 0.0
v 7 2 0.0
vt 0.4375 0.0625
vt 0.375 0.0625
vt 0.375 0.125
vt 0.4375 0.125
f 1145/1145/2 1146/1146/2 1147/1147/2 1148/1148/2
v 6 2 1.0
v 7 2 1.0
v 7 2 0.0
v 6 2 0.0
vt 0.375 0.0625
vt 0.4375 0.0625
vt 0.4375 0.125
vt 0.375 0.125
f 1149/1149/3 1150/1150/3 1151/1151/3 1152/1152/3
v 6 1 0.0
v 7 1 0.0
v 7 1 1.0
v 6 1 1.0
vt 0.375 0.0625
vt 0.4375 0.0625
vt 0.4375 0.125
vt 0.375 0.125
f 1153/1153/4 1154/1154/4 1155/1155/4 1156/1156/4
v 6 1 0.0
v 6 1 1.0
v 6 2 1.0
v 6 2 0.0
vt 0.375 0.0625
vt 0.4375 0.0625
vt 0.4375 0.125
vt 0.375 0.125
f 1157/1157/6 1158/1158/6 1159/1159/6 1160/1160/6
v 7 1 1.0
v 8 1 1.0
v 8 2 1.0
v 7 2 1.0
vt 0.4375 0.0625
vt 0.5 0.0625
vt 0.5 0.125
vt 0.4375 0.125
f 1161/1161/1 1162/1162/1 1163/1163/1 1164/1164/1
v 8 1 0.0
v 7 1 0.0
v 7 2 0.0
v 8 2 0.0
vt 0.5 0.0625
vt 0.4375 0.0625
vt 0.4375 0.125
vt 0.5 0.125
f 1165/1165/2 1166/1166/2 1167/1167/2 1168/1168/2
v 7 1 0.0
v 8 1 0.0
v 8 1 1.0
v 7 1 1.0
vt 0.4375 0.0625
vt 0.5 0.0625
vt 0.5 0.125
vt 0.4375 0.125
f 1169/1169/4 1170/1170/4 1171/1171/4 1172/1172/4
v 8 1 1.0
v 9 1 1.0
v 9 2 1.0
v 8 2 1.0
vt 0.5 0.0625
vt 0.5625 0.0625
vt 0.5625 0.125
vt 0.5 0.125
f 1173/1173/1 1174/1174/1 1175/1175/1 1176/1176/1
v 9 1 0.0
v 8 1 0.0
v 8 2 0.0
v 9 2 0.0
vt 0.5625 0.0625
vt 0.5 0.0625
vt 0.5 0.125
vt 0.5625 0.125
f 1177/1177/2 1178/1178/2 1179/1179/2 1180/1180/2
v 8 1 0.0
v 9 1 0.0
v 9 1 1.0
v 8 1 1.0
vt 0.5 0.0625
vt 0.5625 0.0625
vt 0.5625 0.125
vt 0.5 0.125
f 1181/1181/4 1182/1182/4 1183/1183/4 1184/1184/4
v 9 1 1.0
v 10 1 1.0
v 10 2 1.0
v 9 2 1.0
vt 0.5625 0.0625
vt 0.625 0.0625
vt 0.625 0.125
vt 0.5625 0.125
f 1185/1185/1 1186/1186/1 1187/1187/1 1188/1188/1
v 10 1 0.0
v 9 1 0.0
v 9 2 0.0
v 10 2 0.0
vt 0.625 0.0625
vt 0.5625 0.0625
vt 0.5625 0.125
vt 0.625 0.125
f 1189/1189/2 1190/1190/2 1191/1191/2 1192/1192/2
v 9 1 0.0
v 10 1 0.0
v 10 1 1.0
v 9 1 1.0
vt 0.5625 0.0625
vt 0.625 0.0625
vt 0.625 0.125
vt 0.5625 0.125
f 1193/1193/4 1194/1194/4 1195/1195/4 1196/1196/4
v 10 1 1.0
v 10 1 0.0
v 10 2 0.0
v 10 2 1.0
vt 0.5625 0.0625
vt 0.625 0.0625
vt 0.625 0.125
vt 0.5625 0.125
f 1197/1197/5 1198/1198/5 1199/1199/5 1200/1200/5
