mtllib 烈焰蛋糕.mtl
vn 0 0 1
vn 0 0 -1
vn 0 1 0
vn 0 -1 0
vn 1 0 0
vn -1 0 0
o mesh_mask_1
usemtl mat_烈焰蛋糕
v 5 13 1.0
v 6 13 1.0
v 6 14 1.0
v 5 14 1.0
vt 0.3125 0.8125
vt 0.375 0.8125
vt 0.375 0.875
vt 0.3125 0.875
f 1/1/1 2/2/1 3/3/1 4/4/1
v 6 13 0.0
v 5 13 0.0
v 5 14 0.0
v 6 14 0.0
vt 0.375 0.8125
vt 0.3125 0.8125
vt 0.3125 0.875
vt 0.375 0.875
f 5/5/2 6/6/2 7/7/2 8/8/2
v 5 14 1.0
v 6 14 1.0
v 6 14 0.0
v 5 14 0.0
vt 0.3125 0.8125
vt 0.375 0.8125
vt 0.375 0.875
vt 0.3125 0.875
f 9/9/3 10/10/3 11/11/3 12/12/3
v 5 13 0.0
v 5 13 1.0
v 5 14 1.0
v 5 14 0.0
vt 0.3125 0.8125
vt 0.375 0.8125
vt 0.375 0.875
vt 0.3125 0.875
f 13/13/6 14/14/6 15/15/6 16/16/6
v 6 13 1.0
v 7 13 1.0
v 7 14 1.0
v 6 14 1.0
vt 0.375 0.8125
vt 0.4375 0.8125
vt 0.4375 0.875
vt 0.375 0.875
f 17/17/1 18/18/1 19/19/1 20/20/1
v 7 13 0.0
v 6 13 0.0
v 6 14 0.0
v 7 14 0.0
vt 0.4375 0.8125
vt 0.375 0.8125
vt 0.375 0.875
vt 0.4375 0.875
f 21/21/2 22/22/2 23/23/2 24/24/2
v 6 14 1.0
v 7 14 1.0
v 7 14 0.0
v 6 14 0.0
vt 0.375 0.8125
vt 0.4375 0.8125
vt 0.4375 0.875
vt 0.375 0.875
f 25/25/3 26/26/3 27/27/3 28/28/3
v 7 13 1.0
v 8 13 1.0
v 8 14 1.0
v 7 14 1.0
vt 0.4375 0.8125
vt 0.5 0.8125
vt 0.5 0.875
vt 0.4375 0.875
f 29/29/1 30/30/1 31/31/1 32/32/1
v 8 13 0.0
v 7 13 0.0
v 7 14 0.0
v 8 14 0.0
vt 0.5 0.8125
vt 0.4375 0.8125
vt 0.4375 0.875
vt 0.5 0.875
f 33/33/2 34/34/2 35/35/2 36/36/2
v 7 14 1.0
v 8 14 1.0
v 8 14 0.0
v 7 14 0.0
vt 0.4375 0.8125
vt 0.5 0.8125
vt 0.5 0.875
vt 0.4375 0.875
f 37/37/3 38/38/3 39/39/3 40/40/3
v 8 13 1.0
v 8 13 0.0
v 8 14 0.0
v 8 14 1.0
vt 0.4375 0.8125
vt 0.5 0.8125
vt 0.5 0.875
vt 0.4375 0.875
f 41/41/5 42/42/5 43/43/5 44/44/5
v 3 12 1.0
v 4 12 1.0
v 4 13 1.0
v 3 13 1.0
vt 0.1875 0.75
vt 0.25 0.75
vt 0.25 0.8125
vt 0.1875 0.8125
f 45/45/1 46/46/1 47/47/1 48/48/1
v 4 12 0.0
v 3 12 0.0
v 3 13 0.0
v 4 13 0.0
vt 0.25 0.75
vt 0.1875 0.75
vt 0.1875 0.8125
vt 0.25 0.8125
f 49/49/2 50/50/2 51/51/2 52/52/2
v 3 13 1.0
v 4 13 1.0
v 4 13 0.0
v 3 13 0.0
vt 0.1875 0.75
vt 0.25 0.75
vt 0.25 0.8125
vt 0.1875 0.8125
f 53/53/3 54/54/3 55/55/3 56/56/3
v 3 12 0.0
v 3 12 1.0
v 3 13 1.0
v 3 13 0.0
vt 0.1875 0.75
vt 0.25 0.75
vt 0.25 0.8125
vt 0.1875 0.8125
f 57/57/6 58/58/6 59/59/6 60/60/6
v 4 12 1.0
v 5 12 1.0
v 5 13 1.0
v 4 13 1.0
vt 0.25 0.75
vt 0.3125 0.75
vt 0.3125 0.8125
vt 0.25 0.8125
f 61/61/1 62/62/1 63/63/1 64/64/1
v 5 12 0.0
v 4 12 0.0
v 4 13 0.0
v 5 13 0.0
vt 0.3125 0.75
vt 0.25 0.75
vt 0.25 0.8125
vt 0.3125 0.8125
f 65/65/2 66/66/2 67/67/2 68/68/2
v 4 13 1.0
v 5 13 1.0
v 5 13 0.0
v 4 13 0.0
vt 0.25 0.75
vt 0.3125 0.75
vt 0.3125 0.8125
vt 0.25 0.8125
f 69/69/3 70/70/3 71/71/3 72/72/3
v 5 12 1.0
v 6 12 1.0
v 6 13 1.0
v 5 13 1.0
vt 0.3125 0.75
vt 0.375 0.75
vt 0.375 0.8125
vt 0.3125 0.8125
f 73/73/1 74/74/1 75/75/1 76/76/1
v 6 12 0.0
v 5 12 0.0
v 5 13 0.0
v 6 13 0.0
vt 0.375 0.75
vt 0.3125 0.75
vt 0.3125 0.8125
vt 0.375 0.8125
f 77/77/2 78/78/2 79/79/2 80/80/2
v 6 12 1.0
v 7 12 1.0
v 7 13 1.0
v 6 13 1.0
vt 0.375 0.75
vt 0.4375 0.75
vt 0.4375 0.8125
vt 0.375 0.8125
f 81/81/1 82/82/1 83/83/1 84/84/1
v 7 12 0.0
v 6 12 0.0
v 6 13 0.0
v 7 13 0.0
vt 0.4375 0.75
vt 0.375 0.75
vt 0.375 0.8125
vt 0.4375 0.8125
f 85/85/2 86/86/2 87/87/2 88/88/2
v 7 12 1.0
v 8 12 1.0
v 8 13 1.0
v 7 13 1.0
vt 0.4375 0.75
vt 0.5 0.75
vt 0.5 0.8125
vt 0.4375 0.8125
f 89/89/1 90/90/1 91/91/1 92/92/1
v 8 12 0.0
v 7 12 0.0
v 7 13 0.0
v 8 13 0.0
vt 0.5 0.75
vt 0.4375 0.75
vt 0.4375 0.8125
vt 0.5 0.8125
f 93/93/2 94/94/2 95/95/2 96/96/2
v 8 12 1.0
v 8 12 0.0
v 8 13 0.0
v 8 13 1.0
vt 0.4375 0.75
vt 0.5 0.75
vt 0.5 0.8125
vt 0.4375 0.8125
f 97/97/5 98/98/5 99/99/5 100/100/5
v 2 11 1.0
v 3 11 1.0
v 3 12 1.0
v 2 12 1.0
vt 0.125 0.6875
vt 0.1875 0.6875
vt 0.1875 0.75
vt 0.125 0.75
f 101/101/1 102/102/1 103/103/1 104/104/1
v 3 11 0.0
v 2 11 0.0
v 2 12 0.0
v 3 12 0.0
vt 0.1875 0.6875
vt 0.125 0.6875
vt 0.125 0.75
vt 0.1875 0.75
f 105/105/2 106/106/2 107/107/2 108/108/2
v 2 12 1.0
v 3 12 1.0
v 3 12 0.0
v 2 12 0.0
vt 0.125 0.6875
vt 0.1875 0.6875
vt 0.1875 0.75
vt 0.125 0.75
f 109/109/3 110/110/3 111/111/3 112/112/3
v 2 11 0.0
v 2 11 1.0
v 2 12 1.0
v 2 12 0.0
vt 0.125 0.6875
vt 0.1875 0.6875
vt 0.1875 0.75
vt 0.125 0.75
f 113/113/6 114/114/6 115/115/6 116/116/6
v 3 11 1.0
v 4 11 1.0
v 4 12 1.0
v 3 12 1.0
vt 0.1875 0.6875
vt 0.25 0.6875
vt 0.25 0.75
vt 0.1875 0.75
f 117/117/1 118/118/1 119/119/1 120/120/1
v 4 11 0.0
v 3 11 0.0
v 3 12 0.0
v 4 12 0.0
vt 0.25 0.6875
vt 0.1875 0.6875
vt 0.1875 0.75
vt 0.25 0.75
f 121/121/2 122/122/2 123/123/2 124/124/2
v 4 11 1.0
v 5 11 1.0
v 5 12 1.0
v 4 12 1.0
vt 0.25 0.6875
vt 0.3125 0.6875
vt 0.3125 0.75
vt 0.25 0.75
f 125/125/1 126/126/1 127/127/1 128/128/1
v 5 11 0.0
v 4 11 0.0
v 4 12 0.0
v 5 12 0.0
vt 0.3125 0.6875
vt 0.25 0.6875
vt 0.25 0.75
vt 0.3125 0.75
f 129/129/2 130/130/2 131/131/2 132/132/2
v 5 11 1.0
v 6 11 1.0
v 6 12 1.0
v 5 12 1.0
vt 0.3125 0.6875
vt 0.375 0.6875
vt 0.375 0.75
vt 0.3125 0.75
f 133/133/1 134/134/1 135/135/1 136/136/1
v 6 11 0.0
v 5 11 0.0
v 5 12 0.0
v 6 12 0.0
vt 0.375 0.6875
vt 0.3125 0.6875
vt 0.3125 0.75
vt 0.375 0.75
f 137/137/2 138/138/2 139/139/2 140/140/2
v 6 11 1.0
v 7 11 1.0
v 7 12 1.0
v 6 12 1.0
vt 0.375 0.6875
vt 0.4375 0.6875
vt 0.4375 0.75
vt 0.375 0.75
f 141/141/1 142/142/1 143/143/1 144/144/1
v 7 11 0.0
v 6 11 0.0
v 6 12 0.0
v 7 12 0.0
vt 0.4375 0.6875
vt 0.375 0.6875
vt 0.375 0.75
vt 0.4375 0.75
f 145/145/2 146/146/2 147/147/2 148/148/2
v 7 11 1.0
v 8 11 1.0
v 8 12 1.0
v 7 12 1.0
vt 0.4375 0.6875
vt 0.5 0.6875
vt 0.5 0.75
vt 0.4375 0.75
f 149/149/1 150/150/1 151/151/1 152/152/1
v 8 11 0.0
v 7 11 0.0
v 7 12 0.0
v 8 12 0.0
vt 0.5 0.6875
vt 0.4375 0.6875
vt 0.4375 0.75
vt 0.5 0.75
f 153/153/2 154/154/2 155/155/2 156/156/2
v 7 11 0.0
v 8 11 0.0
v 8 11 1.0
v 7 11 1.0
vt 0.4375 0.6875
vt 0.5 0.6875
vt 0.5 0.75
vt 0.4375 0.75
f 157/157/4 158/158/4 159/159/4 160/160/4
v 8 11 1.0
v 8 11 0.0
v 8 12 0.0
v 8 12 1.0
vt 0.4375 0.6875
vt 0.5 0.6875
vt 0.5 0.75
vt 0.4375 0.75
f 161/161/5 162/162/5 163/163/5 164/164/5
v 1 10 1.0
v 2 10 1.0
v 2 11 1.0
v 1 11 1.0
vt 0.0625 0.625
vt 0.125 0.625
vt 0.125 0.6875
vt 0.0625 0.6875
f 165/165/1 166/166/1 167/167/1 168/168/1
v 2 10 0.0
v 1 10 0.0
v 1 11 0.0
v 2 11 0.0
vt 0.125 0.625
vt 0.0625 0.625
vt 0.0625 0.6875
vt 0.125 0.6875
f 169/169/2 170/170/2 171/171/2 172/172/2
v 1 11 1.0
v 2 11 1.0
v 2 11 0.0
v 1 11 0.0
vt 0.0625 0.625
vt 0.125 0.625
vt 0.125 0.6875
vt 0.0625 0.6875
f 173/173/3 174/174/3 175/175/3 176/176/3
v 1 10 0.0
v 1 10 1.0
v 1 11 1.0
v 1 11 0.0
vt 0.0625 0.625
vt 0.125 0.625
vt 0.125 0.6875
vt 0.0625 0.6875
f 177/177/6 178/178/6 179/179/6 180/180/6
v 2 10 1.0
v 3 10 1.0
v 3 11 1.0
v 2 11 1.0
vt 0.125 0.625
vt 0.1875 0.625
vt 0.1875 0.6875
vt 0.125 0.6875
f 181/181/1 182/182/1 183/183/1 184/184/1
v 3 10 0.0
v 2 10 0.0
v 2 11 0.0
v 3 11 0.0
vt 0.1875 0.625
vt 0.125 0.625
vt 0.125 0.6875
vt 0.1875 0.6875
f 185/185/2 186/186/2 187/187/2 188/188/2
v 3 10 1.0
v 4 10 1.0
v 4 11 1.0
v 3 11 1.0
vt 0.1875 0.625
vt 0.25 0.625
vt 0.25 0.6875
vt 0.1875 0.6875
f 189/189/1 190/190/1 191/191/1 192/192/1
v 4 10 0.0
v 3 10 0.0
v 3 11 0.0
v 4 11 0.0
vt 0.25 0.625
vt 0.1875 0.625
vt 0.1875 0.6875
vt 0.25 0.6875
f 193/193/2 194/194/2 195/195/2 196/196/2
v 4 10 1.0
v 5 10 1.0
v 5 11 1.0
v 4 11 1.0
vt 0.25 0.625
vt 0.3125 0.625
vt 0.3125 0.6875
vt 0.25 0.6875
f 197/197/1 198/198/1 199/199/1 200/200/1
v 5 10 0.0
v 4 10 0.0
v 4 11 0.0
v 5 11 0.0
vt 0.3125 0.625
vt 0.25 0.625
vt 0.25 0.6875
vt 0.3125 0.6875
f 201/201/2 202/202/2 203/203/2 204/204/2
v 5 10 1.0
v 6 10 1.0
v 6 11 1.0
v 5 11 1.0
vt 0.3125 0.625
vt 0.375 0.625
vt 0.375 0.6875
vt 0.3125 0.6875
f 205/205/1 206/206/1 207/207/1 208/208/1
v 6 10 0.0
v 5 10 0.0
v 5 11 0.0
v 6 11 0.0
vt 0.375 0.625
vt 0.3125 0.625
vt 0.3125 0.6875
vt 0.375 0.6875
f 209/209/2 210/210/2 211/211/2 212/212/2
v 5 10 0.0
v 6 10 0.0
v 6 10 1.0
v 5 10 1.0
vt 0.3125 0.625
vt 0.375 0.625
vt 0.375 0.6875
vt 0.3125 0.6875
f 213/213/4 214/214/4 215/215/4 216/216/4
v 6 10 1.0
v 7 10 1.0
v 7 11 1.0
v 6 11 1.0
vt 0.375 0.625
vt 0.4375 0.625
vt 0.4375 0.6875
vt 0.375 0.6875
f 217/217/1 218/218/1 219/219/1 220/220/1
v 7 10 0.0
v 6 10 0.0
v 6 11 0.0
v 7 11 0.0
vt 0.4375 0.625
vt 0.375 0.625
vt 0.375 0.6875
vt 0.4375 0.6875
f 221/221/2 222/222/2 223/223/2 224/224/2
v 6 10 0.0
v 7 10 0.0
v 7 10 1.0
v 6 10 1.0
vt 0.375 0.625
vt 0.4375 0.625
vt 0.4375 0.6875
vt 0.375 0.6875
f 225/225/4 226/226/4 227/227/4 228/228/4
v 7 10 1.0
v 7 10 0.0
v 7 11 0.0
v 7 11 1.0
vt 0.375 0.625
vt 0.4375 0.625
vt 0.4375 0.6875
vt 0.375 0.6875
f 229/229/5 230/230/5 231/231/5 232/232/5
v 1 9 1.0
v 2 9 1.0
v 2 10 1.0
v 1 10 1.0
vt 0.0625 0.5625
vt 0.125 0.5625
vt 0.125 0.625
vt 0.0625 0.625
f 233/233/1 234/234/1 235/235/1 236/236/1
v 2 9 0.0
v 1 9 0.0
v 1 10 0.0
v 2 10 0.0
vt 0.125 0.5625
vt 0.0625 0.5625
vt 0.0625 0.625
vt 0.125 0.625
f 237/237/2 238/238/2 239/239/2 240/240/2
v 1 9 0.0
v 1 9 1.0
v 1 10 1.0
v 1 10 0.0
vt 0.0625 0.5625
vt 0.125 0.5625
vt 0.125 0.625
vt 0.0625 0.625
f 241/241/6 242/242/6 243/243/6 244/244/6
v 2 9 1.0
v 3 9 1.0
v 3 10 1.0
v 2 10 1.0
vt 0.125 0.5625
vt 0.1875 0.5625
vt 0.1875 0.625
vt 0.125 0.625
f 245/245/1 246/246/1 247/247/1 248/248/1
v 3 9 0.0
v 2 9 0.0
v 2 10 0.0
v 3 10 0.0
vt 0.1875 0.5625
vt 0.125 0.5625
vt 0.125 0.625
vt 0.1875 0.625
f 249/249/2 250/250/2 251/251/2 252/252/2
v 3 9 1.0
v 4 9 1.0
v 4 10 1.0
v 3 10 1.0
vt 0.1875 0.5625
vt 0.25 0.5625
vt 0.25 0.625
vt 0.1875 0.625
f 253/253/1 254/254/1 255/255/1 256/256/1
v 4 9 0.0
v 3 9 0.0
v 3 10 0.0
v 4 10 0.0
vt 0.25 0.5625
vt 0.1875 0.5625
vt 0.1875 0.625
vt 0.25 0.625
f 257/257/2 258/258/2 259/259/2 260/260/2
v 3 9 0.0
v 4 9 0.0
v 4 9 1.0
v 3 9 1.0
vt 0.1875 0.5625
vt 0.25 0.5625
vt 0.25 0.625
vt 0.1875 0.625
f 261/261/4 262/262/4 263/263/4 264/264/4
v 4 9 1.0
v 5 9 1.0
v 5 10 1.0
v 4 10 1.0
vt 0.25 0.5625
vt 0.3125 0.5625
vt 0.3125 0.625
vt 0.25 0.625
f 265/265/1 266/266/1 267/267/1 268/268/1
v 5 9 0.0
v 4 9 0.0
v 4 10 0.0
v 5 10 0.0
vt 0.3125 0.5625
vt 0.25 0.5625
vt 0.25 0.625
vt 0.3125 0.625
f 269/269/2 270/270/2 271/271/2 272/272/2
v 4 9 0.0
v 5 9 0.0
v 5 9 1.0
v 4 9 1.0
vt 0.25 0.5625
vt 0.3125 0.5625
vt 0.3125 0.625
vt 0.25 0.625
f 273/273/4 274/274/4 275/275/4 276/276/4
v 5 9 1.0
v 5 9 0.0
v 5 10 0.0
v 5 10 1.0
vt 0.25 0.5625
vt 0.3125 0.5625
vt 0.3125 0.625
vt 0.25 0.625
f 277/277/5 278/278/5 279/279/5 280/280/5
v 1 8 1.0
v 2 8 1.0
v 2 9 1.0
v 1 9 1.0
vt 0.0625 0.5
vt 0.125 0.5
vt 0.125 0.5625
vt 0.0625 0.5625
f 281/281/1 282/282/1 283/283/1 284/284/1
v 2 8 0.0
v 1 8 0.0
v 1 9 0.0
v 2 9 0.0
vt 0.125 0.5
vt 0.0625 0.5
vt 0.0625 0.5625
vt 0.125 0.5625
f 285/285/2 286/286/2 287/287/2 288/288/2
v 1 8 0.0
v 2 8 0.0
v 2 8 1.0
v 1 8 1.0
vt 0.0625 0.5
vt 0.125 0.5
vt 0.125 0.5625
vt 0.0625 0.5625
f 289/289/4 290/290/4 291/291/4 292/292/4
v 1 8 0.0
v 1 8 1.0
v 1 9 1.0
v 1 9 0.0
vt 0.0625 0.5
vt 0.125 0.5
vt 0.125 0.5625
vt 0.0625 0.5625
f 293/293/6 294/294/6 295/295/6 296/296/6
v 2 8 1.0
v 3 8 1.0
v 3 9 1.0
v 2 9 1.0
vt 0.125 0.5
vt 0.1875 0.5
vt 0.1875 0.5625
vt 0.125 0.5625
f 297/297/1 298/298/1 299/299/1 300/300/1
v 3 8 0.0
v 2 8 0.0
v 2 9 0.0
v 3 9 0.0
vt 0.1875 0.5
vt 0.125 0.5
vt 0.125 0.5625
vt 0.1875 0.5625
f 301/301/2 302/302/2 303/303/2 304/304/2
v 2 8 0.0
v 3 8 0.0
v 3 8 1.0
v 2 8 1.0
vt 0.125 0.5
vt 0.1875 0.5
vt 0.1875 0.5625
vt 0.125 0.5625
f 305/305/4 306/306/4 307/307/4 308/308/4
v 3 8 1.0
v 3 8 0.0
v 3 9 0.0
v 3 9 1.0
vt 0.125 0.5
vt 0.1875 0.5
vt 0.1875 0.5625
vt 0.125 0.5625
f 309/309/5 310/310/5 311/311/5 312/312/5
o mesh_mask_2
usemtl mat_烈焰蛋糕
v 8 13 1.0
v 9 13 1.0
v 9 14 1.0
v 8 14 1.0
vt 0.5 0.8125
vt 0.5625 0.8125
vt 0.5625 0.875
vt 0.5 0.875
f 313/313/1 314/314/1 315/315/1 316/316/1
v 9 13 0.0
v 8 13 0.0
v 8 14 0.0
v 9 14 0.0
vt 0.5625 0.8125
vt 0.5 0.8125
vt 0.5 0.875
vt 0.5625 0.875
f 317/317/2 318/318/2 319/319/2 320/320/2
v 8 14 1.0
v 9 14 1.0
v 9 14 0.0
v 8 14 0.0
vt 0.5 0.8125
vt 0.5625 0.8125
vt 0.5625 0.875
vt 0.5 0.875
f 321/321/3 322/322/3 323/323/3 324/324/3
v 8 13 0.0
v 8 13 1.0
v 8 14 1.0
v 8 14 0.0
vt 0.5 0.8125
vt 0.5625 0.8125
vt 0.5625 0.875
vt 0.5 0.875
f 325/325/6 326/326/6 327/327/6 328/328/6
v 9 13 1.0
v 10 13 1.0
v 10 14 1.0
v 9 14 1.0
vt 0.5625 0.8125
vt 0.625 0.8125
vt 0.625 0.875
vt 0.5625 0.875
f 329/329/1 330/330/1 331/331/1 332/332/1
v 10 13 0.0
v 9 13 0.0
v 9 14 0.0
v 10 14 0.0
vt 0.625 0.8125
vt 0.5625 0.8125
vt 0.5625 0.875
vt 0.625 0.875
f 333/333/2 334/334/2 335/335/2 336/336/2
v 9 14 1.0
v 10 14 1.0
v 10 14 0.0
v 9 14 0.0
vt 0.5625 0.8125
vt 0.625 0.8125
vt 0.625 0.875
vt 0.5625 0.875
f 337/337/3 338/338/3 339/339/3 340/340/3
v 10 13 1.0
v 11 13 1.0
v 11 14 1.0
v 10 14 1.0
vt 0.625 0.8125
vt 0.6875 0.8125
vt 0.6875 0.875
vt 0.625 0.875
f 341/341/1 342/342/1 343/343/1 344/344/1
v 11 13 0.0
v 10 13 0.0
v 10 14 0.0
v 11 14 0.0
vt 0.6875 0.8125
vt 0.625 0.8125
vt 0.625 0.875
vt 0.6875 0.875
f 345/345/2 346/346/2 347/347/2 348/348/2
v 10 14 1.0
v 11 14 1.0
v 11 14 0.0
v 10 14 0.0
vt 0.625 0.8125
vt 0.6875 0.8125
vt 0.6875 0.875
vt 0.625 0.875
f 349/349/3 350/350/3 351/351/3 352/352/3
v 11 13 1.0
v 11 13 0.0
v 11 14 0.0
v 11 14 1.0
vt 0.625 0.8125
vt 0.6875 0.8125
vt 0.6875 0.875
vt 0.625 0.875
f 353/353/5 354/354/5 355/355/5 356/356/5
v 8 12 1.0
v 9 12 1.0
v 9 13 1.0
v 8 13 1.0
vt 0.5 0.75
vt 0.5625 0.75
vt 0.5625 0.8125
vt 0.5 0.8125
f 357/357/1 358/358/1 359/359/1 360/360/1
v 9 12 0.0
v 8 12 0.0
v 8 13 0.0
v 9 13 0.0
vt 0.5625 0.75
vt 0.5 0.75
vt 0.5 0.8125
vt 0.5625 0.8125
f 361/361/2 362/362/2 363/363/2 364/364/2
v 8 12 0.0
v 8 12 1.0
v 8 13 1.0
v 8 13 0.0
vt 0.5 0.75
vt 0.5625 0.75
vt 0.5625 0.8125
vt 0.5 0.8125
f 365/365/6 366/366/6 367/367/6 368/368/6
v 9 12 1.0
v 10 12 1.0
v 10 13 1.0
v 9 13 1.0
vt 0.5625 0.75
vt 0.625 0.75
vt 0.625 0.8125
vt 0.5625 0.8125
f 369/369/1 370/370/1 371/371/1 372/372/1
v 10 12 0.0
v 9 12 0.0
v 9 13 0.0
v 10 13 0.0
vt 0.625 0.75
vt 0.5625 0.75
vt 0.5625 0.8125
vt 0.625 0.8125
f 373/373/2 374/374/2 375/375/2 376/376/2
v 10 12 1.0
v 11 12 1.0
v 11 13 1.0
v 10 13 1.0
vt 0.625 0.75
vt 0.6875 0.75
vt 0.6875 0.8125
vt 0.625 0.8125
f 377/377/1 378/378/1 379/379/1 380/380/1
v 11 12 0.0
v 10 12 0.0
v 10 13 0.0
v 11 13 0.0
vt 0.6875 0.75
vt 0.625 0.75
vt 0.625 0.8125
vt 0.6875 0.8125
f 381/381/2 382/382/2 383/383/2 384/384/2
v 11 12 1.0
v 12 12 1.0
v 12 13 1.0
v 11 13 1.0
vt 0.6875 0.75
vt 0.75 0.75
vt 0.75 0.8125
vt 0.6875 0.8125
f 385/385/1 386/386/1 387/387/1 388/388/1
v 12 12 0.0
v 11 12 0.0
v 11 13 0.0
v 12 13 0.0
vt 0.75 0.75
vt 0.6875 0.75
vt 0.6875 0.8125
vt 0.75 0.8125
f 389/389/2 390/390/2 391/391/2 392/392/2
v 11 13 1.0
v 12 13 1.0
v 12 13 0.0
v 11 13 0.0
vt 0.6875 0.75
vt 0.75 0.75
vt 0.75 0.8125
vt 0.6875 0.8125
f 393/393/3 394/394/3 395/395/3 396/396/3
v 12 12 1.0
v 13 12 1.0
v 13 13 1.0
v 12 13 1.0
vt 0.75 0.75
vt 0.8125 0.75
vt 0.8125 0.8125
vt 0.75 0.8125
f 397/397/1 398/398/1 399/399/1 400/400/1
v 13 12 0.0
v 12 12 0.0
v 12 13 0.0
v 13 13 0.0
vt 0.8125 0.75
vt 0.75 0.75
vt 0.75 0.8125
vt 0.8125 0.8125
f 401/401/2 402/402/2 403/403/2 404/404/2
v 12 13 1.0
v 13 13 1.0
v 13 13 0.0
v 12 13 0.0
vt 0.75 0.75
vt 0.8125 0.75
vt 0.8125 0.8125
vt 0.75 0.8125
f 405/405/3 406/406/3 407/407/3 408/408/3
v 13 12 1.0
v 13 12 0.0
v 13 13 0.0
v 13 13 1.0
vt 0.75 0.75
vt 0.8125 0.75
vt 0.8125 0.8125
vt 0.75 0.8125
f 409/409/5 410/410/5 411/411/5 412/412/5
v 8 11 1.0
v 9 11 1.0
v 9 12 1.0
v 8 12 1.0
vt 0.5 0.6875
vt 0.5625 0.6875
vt 0.5625 0.75
vt 0.5 0.75
f 413/413/1 414/414/1 415/415/1 416/416/1
v 9 11 0.0
v 8 11 0.0
v 8 12 0.0
v 9 12 0.0
vt 0.5625 0.6875
vt 0.5 0.6875
vt 0.5 0.75
vt 0.5625 0.75
f 417/417/2 418/418/2 419/419/2 420/420/2
v 8 11 0.0
v 8 11 1.0
v 8 12 1.0
v 8 12 0.0
vt 0.5 0.6875
vt 0.5625 0.6875
vt 0.5625 0.75
vt 0.5 0.75
f 421/421/6 422/422/6 423/423/6 424/424/6
v 9 11 1.0
v 10 11 1.0
v 10 12 1.0
v 9 12 1.0
vt 0.5625 0.6875
vt 0.625 0.6875
vt 0.625 0.75
vt 0.5625 0.75
f 425/425/1 426/426/1 427/427/1 428/428/1
v 10 11 0.0
v 9 11 0.0
v 9 12 0.0
v 10 12 0.0
vt 0.625 0.6875
vt 0.5625 0.6875
vt 0.5625 0.75
vt 0.625 0.75
f 429/429/2 430/430/2 431/431/2 432/432/2
v 10 11 1.0
v 11 11 1.0
v 11 12 1.0
v 10 12 1.0
vt 0.625 0.6875
vt 0.6875 0.6875
vt 0.6875 0.75
vt 0.625 0.75
f 433/433/1 434/434/1 435/435/1 436/436/1
v 11 11 0.0
v 10 11 0.0
v 10 12 0.0
v 11 12 0.0
vt 0.6875 0.6875
vt 0.625 0.6875
vt 0.625 0.75
vt 0.6875 0.75
f 437/437/2 438/438/2 439/439/2 440/440/2
v 11 11 1.0
v 12 11 1.0
v 12 12 1.0
v 11 12 1.0
vt 0.6875 0.6875
vt 0.75 0.6875
vt 0.75 0.75
vt 0.6875 0.75
f 441/441/1 442/442/1 443/443/1 444/444/1
v 12 11 0.0
v 11 11 0.0
v 11 12 0.0
v 12 12 0.0
vt 0.75 0.6875
vt 0.6875 0.6875
vt 0.6875 0.75
vt 0.75 0.75
f 445/445/2 446/446/2 447/447/2 448/448/2
v 12 11 1.0
v 13 11 1.0
v 13 12 1.0
v 12 12 1.0
vt 0.75 0.6875
vt 0.8125 0.6875
vt 0.8125 0.75
vt 0.75 0.75
f 449/449/1 450/450/1 451/451/1 452/452/1
v 13 11 0.0
v 12 11 0.0
v 12 12 0.0
v 13 12 0.0
vt 0.8125 0.6875
vt 0.75 0.6875
vt 0.75 0.75
vt 0.8125 0.75
f 453/453/2 454/454/2 455/455/2 456/456/2
v 13 11 1.0
v 14 11 1.0
v 14 12 1.0
v 13 12 1.0
vt 0.8125 0.6875
vt 0.875 0.6875
vt 0.875 0.75
vt 0.8125 0.75
f 457/457/1 458/458/1 459/459/1 460/460/1
v 14 11 0.0
v 13 11 0.0
v 13 12 0.0
v 14 12 0.0
vt 0.875 0.6875
vt 0.8125 0.6875
vt 0.8125 0.75
vt 0.875 0.75
f 461/461/2 462/462/2 463/463/2 464/464/2
v 13 12 1.0
v 14 12 1.0
v 14 12 0.0
v 13 12 0.0
vt 0.8125 0.6875
vt 0.875 0.6875
vt 0.875 0.75
vt 0.8125 0.75
f 465/465/3 466/466/3 467/467/3 468/468/3
v 14 11 1.0
v 14 11 0.0
v 14 12 0.0
v 14 12 1.0
vt 0.8125 0.6875
vt 0.875 0.6875
vt 0.875 0.75
vt 0.8125 0.75
f 469/469/5 470/470/5 471/471/5 472/472/5
v 8 10 1.0
v 9 10 1.0
v 9 11 1.0
v 8 11 1.0
vt 0.5 0.625
vt 0.5625 0.625
vt 0.5625 0.6875
vt 0.5 0.6875
f 473/473/1 474/474/1 475/475/1 476/476/1
v 9 10 0.0
v 8 10 0.0
v 8 11 0.0
v 9 11 0.0
vt 0.5625 0.625
vt 0.5 0.625
vt 0.5 0.6875
vt 0.5625 0.6875
f 477/477/2 478/478/2 479/479/2 480/480/2
v 8 10 0.0
v 9 10 0.0
v 9 10 1.0
v 8 10 1.0
vt 0.5 0.625
vt 0.5625 0.625
vt 0.5625 0.6875
vt 0.5 0.6875
f 481/481/4 482/482/4 483/483/4 484/484/4
v 8 10 0.0
v 8 10 1.0
v 8 11 1.0
v 8 11 0.0
vt 0.5 0.625
vt 0.5625 0.625
vt 0.5625 0.6875
vt 0.5 0.6875
f 485/485/6 486/486/6 487/487/6 488/488/6
v 9 10 1.0
v 10 10 1.0
v 10 11 1.0
v 9 11 1.0
vt 0.5625 0.625
vt 0.625 0.625
vt 0.625 0.6875
vt 0.5625 0.6875
f 489/489/1 490/490/1 491/491/1 492/492/1
v 10 10 0.0
v 9 10 0.0
v 9 11 0.0
v 10 11 0.0
vt 0.625 0.625
vt 0.5625 0.625
vt 0.5625 0.6875
vt 0.625 0.6875
f 493/493/2 494/494/2 495/495/2 496/496/2
v 10 10 1.0
v 11 10 1.0
v 11 11 1.0
v 10 11 1.0
vt 0.625 0.625
vt 0.6875 0.625
vt 0.6875 0.6875
vt 0.625 0.6875
f 497/497/1 498/498/1 499/499/1 500/500/1
v 11 10 0.0
v 10 10 0.0
v 10 11 0.0
v 11 11 0.0
vt 0.6875 0.625
vt 0.625 0.625
vt 0.625 0.6875
vt 0.6875 0.6875
f 501/501/2 502/502/2 503/503/2 504/504/2
v 11 10 1.0
v 12 10 1.0
v 12 11 1.0
v 11 11 1.0
vt 0.6875 0.625
vt 0.75 0.625
vt 0.75 0.6875
vt 0.6875 0.6875
f 505/505/1 506/506/1 507/507/1 508/508/1
v 12 10 0.0
v 11 10 0.0
v 11 11 0.0
v 12 11 0.0
vt 0.75 0.625
vt 0.6875 0.625
vt 0.6875 0.6875
vt 0.75 0.6875
f 509/509/2 510/510/2 511/511/2 512/512/2
v 12 10 1.0
v 13 10 1.0
v 13 11 1.0
v 12 11 1.0
vt 0.75 0.625
vt 0.8125 0.625
vt 0.8125 0.6875
vt 0.75 0.6875
f 513/513/1 514/514/1 515/515/1 516/516/1
v 13 10 0.0
v 12 10 0.0
v 12 11 0.0
v 13 11 0.0
vt 0.8125 0.625
vt 0.75 0.625
vt 0.75 0.6875
vt 0.8125 0.6875
f 517/517/2 518/518/2 519/519/2 520/520/2
v 13 10 1.0
v 14 10 1.0
v 14 11 1.0
v 13 11 1.0
vt 0.8125 0.625
vt 0.875 0.625
vt 0.875 0.6875
vt 0.8125 0.6875
f 521/521/1 522/522/1 523/523/1 524/524/1
v 14 10 0.0
v 13 10 0.0
v 13 11 0.0
v 14 11 0.0
vt 0.875 0.625
vt 0.8125 0.625
vt 0.8125 0.6875
vt 0.875 0.6875
f 525/525/2 526/526/2 527/527/2 528/528/2
v 14 10 1.0
v 15 10 1.0
v 15 11 1.0
v 14 11 1.0
vt 0.875 0.625
vt 0.9375 0.625
vt 0.9375 0.6875
vt 0.875 0.6875
f 529/529/1 530/530/1 531/531/1 532/532/1
v 15 10 0.0
v 14 10 0.0
v 14 11 0.0
v 15 11 0.0
vt 0.9375 0.625
vt 0.875 0.625
vt 0.875 0.6875
vt 0.9375 0.6875
f 533/533/2 534/534/2 535/535/2 536/536/2
v 14 11 1.0
v 15 11 1.0
v 15 11 0.0
v 14 11 0.0
vt 0.875 0.625
vt 0.9375 0.625
vt 0.9375 0.6875
vt 0.875 0.6875
f 537/537/3 538/538/3 539/539/3 540/540/3
v 15 10 1.0
v 15 10 0.0
v 15 11 0.0
v 15 11 1.0
vt 0.875 0.625
vt 0.9375 0.625
vt 0.9375 0.6875
vt 0.875 0.6875
f 541/541/5 542/542/5 543/543/5 544/544/5
v 9 9 1.0
v 10 9 1.0
v 10 10 1.0
v 9 10 1.0
vt 0.5625 0.5625
vt 0.625 0.5625
vt 0.625 0.625
vt 0.5625 0.625
f 545/545/1 546/546/1 547/547/1 548/548/1
v 10 9 0.0
v 9 9 0.0
v 9 10 0.0
v 10 10 0.0
vt 0.625 0.5625
vt 0.5625 0.5625
vt 0.5625 0.625
vt 0.625 0.625
f 549/549/2 550/550/2 551/551/2 552/552/2
v 9 9 0.0
v 10 9 0.0
v 10 9 1.0
v 9 9 1.0
vt 0.5625 0.5625
vt 0.625 0.5625
vt 0.625 0.625
vt 0.5625 0.625
f 553/553/4 554/554/4 555/555/4 556/556/4
v 9 9 0.0
v 9 9 1.0
v 9 10 1.0
v 9 10 0.0
vt 0.5625 0.5625
vt 0.625 0.5625
vt 0.625 0.625
vt 0.5625 0.625
f 557/557/6 558/558/6 559/559/6 560/560/6
v 10 9 1.0
v 11 9 1.0
v 11 10 1.0
v 10 10 1.0
vt 0.625 0.5625
vt 0.6875 0.5625
vt 0.6875 0.625
vt 0.625 0.625
f 561/561/1 562/562/1 563/563/1 564/564/1
v 11 9 0.0
v 10 9 0.0
v 10 10 0.0
v 11 10 0.0
vt 0.6875 0.5625
vt 0.625 0.5625
vt 0.625 0.625
vt 0.6875 0.625
f 565/565/2 566/566/2 567/567/2 568/568/2
v 11 9 1.0
v 12 9 1.0
v 12 10 1.0
v 11 10 1.0
vt 0.6875 0.5625
vt 0.75 0.5625
vt 0.75 0.625
vt 0.6875 0.625
f 569/569/1 570/570/1 571/571/1 572/572/1
v 12 9 0.0
v 11 9 0.0
v 11 10 0.0
v 12 10 0.0
vt 0.75 0.5625
vt 0.6875 0.5625
vt 0.6875 0.625
vt 0.75 0.625
f 573/573/2 574/574/2 575/575/2 576/576/2
v 12 9 1.0
v 13 9 1.0
v 13 10 1.0
v 12 10 1.0
vt 0.75 0.5625
vt 0.8125 0.5625
vt 0.8125 0.625
vt 0.75 0.625
f 577/577/1 578/578/1 579/579/1 580/580/1
v 13 9 0.0
v 12 9 0.0
v 12 10 0.0
v 13 10 0.0
vt 0.8125 0.5625
vt 0.75 0.5625
vt 0.75 0.625
vt 0.8125 0.625
f 581/581/2 582/582/2 583/583/2 584/584/2
v 13 9 1.0
v 14 9 1.0
v 14 10 1.0
v 13 10 1.0
vt 0.8125 0.5625
vt 0.875 0.5625
vt 0.875 0.625
vt 0.8125 0.625
f 585/585/1 586/586/1 587/587/1 588/588/1
v 14 9 0.0
v 13 9 0.0
v 13 10 0.0
v 14 10 0.0
vt 0.875 0.5625
vt 0.8125 0.5625
vt 0.8125 0.625
vt 0.875 0.625
f 589/589/2 590/590/2 591/591/2 592/592/2
v 14 9 1.0
v 15 9 1.0
v 15 10 1.0
v 14 10 1.0
vt 0.875 0.5625
vt 0.9375 0.5625
vt 0.9375 0.625
vt 0.875 0.625
f 593/593/1 594/594/1 595/595/1 596/596/1
v 15 9 0.0
v 14 9 0.0
v 14 10 0.0
v 15 10 0.0
vt 0.9375 0.5625
vt 0.875 0.5625
vt 0.875 0.625
vt 0.9375 0.625
f 597/597/2 598/598/2 599/599/2 600/600/2
v 15 9 1.0
v 15 9 0.0
v 15 10 0.0
v 15 10 1.0
vt 0.875 0.5625
vt 0.9375 0.5625
vt 0.9375 0.625
vt 0.875 0.625
f 601/601/5 602/602/5 603/603/5 604/604/5
v 10 8 1.0
v 11 8 1.0
v 11 9 1.0
v 10 9 1.0
vt 0.625 0.5
vt 0.6875 0.5
vt 0.6875 0.5625
vt 0.625 0.5625
f 605/605/1 606/606/1 607/607/1 608/608/1
v 11 8 0.0
v 10 8 0.0
v 10 9 0.0
v 11 9 0.0
vt 0.6875 0.5
vt 0.625 0.5
vt 0.625 0.5625
vt 0.6875 0.5625
f 609/609/2 610/610/2 611/611/2 612/612/2
v 10 8 0.0
v 11 8 0.0
v 11 8 1.0
v 10 8 1.0
vt 0.625 0.5
vt 0.6875 0.5
vt 0.6875 0.5625
vt 0.625 0.5625
f 613/613/4 614/614/4 615/615/4 616/616/4
v 10 8 0.0
v 10 8 1.0
v 10 9 1.0
v 10 9 0.0
vt 0.625 0.5
vt 0.6875 0.5
vt 0.6875 0.5625
vt 0.625 0.5625
f 617/617/6 618/618/6 619/619/6 620/620/6
v 11 8 1.0
v 12 8 1.0
v 12 9 1.0
v 11 9 1.0
vt 0.6875 0.5
vt 0.75 0.5
vt 0.75 0.5625
vt 0.6875 0.5625
f 621/621/1 622/622/1 623/623/1 624/624/1
v 12 8 0.0
v 11 8 0.0
v 11 9 0.0
v 12 9 0.0
vt 0.75 0.5
vt 0.6875 0.5
vt 0.6875 0.5625
vt 0.75 0.5625
f 625/625/2 626/626/2 627/627/2 628/628/2
v 12 8 1.0
v 13 8 1.0
v 13 9 1.0
v 12 9 1.0
vt 0.75 0.5
vt 0.8125 0.5
vt 0.8125 0.5625
vt 0.75 0.5625
f 629/629/1 630/630/1 631/631/1 632/632/1
v 13 8 0.0
v 12 8 0.0
v 12 9 0.0
v 13 9 0.0
vt 0.8125 0.5
vt 0.75 0.5
vt 0.75 0.5625
vt 0.8125 0.5625
f 633/633/2 634/634/2 635/635/2 636/636/2
v 13 8 1.0
v 14 8 1.0
v 14 9 1.0
v 13 9 1.0
vt 0.8125 0.5
vt 0.875 0.5
vt 0.875 0.5625
vt 0.8125 0.5625
f 637/637/1 638/638/1 639/639/1 640/640/1
v 14 8 0.0
v 13 8 0.0
v 13 9 0.0
v 14 9 0.0
vt 0.875 0.5
vt 0.8125 0.5
vt 0.8125 0.5625
vt 0.875 0.5625
f 641/641/2 642/642/2 643/643/2 644/644/2
v 14 8 1.0
v 15 8 1.0
v 15 9 1.0
v 14 9 1.0
vt 0.875 0.5
vt 0.9375 0.5
vt 0.9375 0.5625
vt 0.875 0.5625
f 645/645/1 646/646/1 647/647/1 648/648/1
v 15 8 0.0
v 14 8 0.0
v 14 9 0.0
v 15 9 0.0
vt 0.9375 0.5
vt 0.875 0.5
vt 0.875 0.5625
vt 0.9375 0.5625
f 649/649/2 650/650/2 651/651/2 652/652/2
v 15 8 1.0
v 15 8 0.0
v 15 9 0.0
v 15 9 1.0
vt 0.875 0.5
vt 0.9375 0.5
vt 0.9375 0.5625
vt 0.875 0.5625
f 653/653/5 654/654/5 655/655/5 656/656/5
v 11 7 1.0
v 12 7 1.0
v 12 8 1.0
v 11 8 1.0
vt 0.6875 0.4375
vt 0.75 0.4375
vt 0.75 0.5
vt 0.6875 0.5
f 657/657/1 658/658/1 659/659/1 660/660/1
v 12 7 0.0
v 11 7 0.0
v 11 8 0.0
v 12 8 0.0
vt 0.75 0.4375
vt 0.6875 0.4375
vt 0.6875 0.5
vt 0.75 0.5
f 661/661/2 662/662/2 663/663/2 664/664/2
v 11 7 0.0
v 12 7 0.0
v 12 7 1.0
v 11 7 1.0
vt 0.6875 0.4375
vt 0.75 0.4375
vt 0.75 0.5
vt 0.6875 0.5
f 665/665/4 666/666/4 667/667/4 668/668/4
v 11 7 0.0
v 11 7 1.0
v 11 8 1.0
v 11 8 0.0
vt 0.6875 0.4375
vt 0.75 0.4375
vt 0.75 0.5
vt 0.6875 0.5
f 669/669/6 670/670/6 671/671/6 672/672/6
v 12 7 1.0
v 13 7 1.0
v 13 8 1.0
v 12 8 1.0
vt 0.75 0.4375
vt 0.8125 0.4375
vt 0.8125 0.5
vt 0.75 0.5
f 673/673/1 674/674/1 675/675/1 676/676/1
v 13 7 0.0
v 12 7 0.0
v 12 8 0.0
v 13 8 0.0
vt 0.8125 0.4375
vt 0.75 0.4375
vt 0.75 0.5
vt 0.8125 0.5
f 677/677/2 678/678/2 679/679/2 680/680/2
v 12 7 0.0
v 13 7 0.0
v 13 7 1.0
v 12 7 1.0
vt 0.75 0.4375
vt 0.8125 0.4375
vt 0.8125 0.5
vt 0.75 0.5
f 681/681/4 682/682/4 683/683/4 684/684/4
v 13 7 1.0
v 14 7 1.0
v 14 8 1.0
v 13 8 1.0
vt 0.8125 0.4375
vt 0.875 0.4375
vt 0.875 0.5
vt 0.8125 0.5
f 685/685/1 686/686/1 687/687/1 688/688/1
v 14 7 0.0
v 13 7 0.0
v 13 8 0.0
v 14 8 0.0
vt 0.875 0.4375
vt 0.8125 0.4375
vt 0.8125 0.5
vt 0.875 0.5
f 689/689/2 690/690/2 691/691/2 692/692/2
v 13 7 0.0
v 14 7 0.0
v 14 7 1.0
v 13 7 1.0
vt 0.8125 0.4375
vt 0.875 0.4375
vt 0.875 0.5
vt 0.8125 0.5
f 693/693/4 694/694/4 695/695/4 696/696/4
v 14 7 1.0
v 15 7 1.0
v 15 8 1.0
v 14 8 1.0
vt 0.875 0.4375
vt 0.9375 0.4375
vt 0.9375 0.5
vt 0.875 0.5
f 697/697/1 698/698/1 699/699/1 700/700/1
v 15 7 0.0
v 14 7 0.0
v 14 8 0.0
v 15 8 0.0
vt 0.9375 0.4375
vt 0.875 0.4375
vt 0.875 0.5
vt 0.9375 0.5
f 701/701/2 702/702/2 703/703/2 704/704/2
v 15 7 1.0
v 15 7 0.0
v 15 8 0.0
v 15 8 1.0
vt 0.875 0.4375
vt 0.9375 0.4375
vt 0.9375 0.5
vt 0.875 0.5
f 705/705/5 706/706/5 707/707/5 708/708/5
v 14 6 1.0
v 15 6 1.0
v 15 7 1.0
v 14 7 1.0
vt 0.875 0.375
vt 0.9375 0.375
vt 0.9375 0.4375
vt 0.875 0.4375
f 709/709/1 710/710/1 711/711/1 712/712/1
v 15 6 0.0
v 14 6 0.0
v 14 7 0.0
v 15 7 0.0
vt 0.9375 0.375
vt 0.875 0.375
vt 0.875 0.4375
vt 0.9375 0.4375
f 713/713/2 714/714/2 715/715/2 716/716/2
v 14 6 0.0
v 15 6 0.0
v 15 6 1.0
v 14 6 1.0
vt 0.875 0.375
vt 0.9375 0.375
vt 0.9375 0.4375
vt 0.875 0.4375
f 717/717/4 718/718/4 719/719/4 720/720/4
v 15 6 1.0
v 15 6 0.0
v 15 7 0.0
v 15 7 1.0
vt 0.875 0.375
vt 0.9375 0.375
vt 0.9375 0.4375
vt 0.875 0.4375
f 721/721/5 722/722/5 723/723/5 724/724/5
v 14 6 0.0
v 14 6 1.0
v 14 7 1.0
v 14 7 0.0
vt 0.875 0.375
vt 0.9375 0.375
vt 0.9375 0.4375
vt 0.875 0.4375
f 725/725/6 726/726/6 727/727/6 728/728/6
o mesh_mask_3
usemtl mat_烈焰蛋糕
v 7 10 1.0
v 8 10 1.0
v 8 11 1.0
v 7 11 1.0
vt 0.4375 0.625
vt 0.5 0.625
vt 0.5 0.6875
vt 0.4375 0.6875
f 729/729/1 730/730/1 731/731/1 732/732/1
v 8 10 0.0
v 7 10 0.0
v 7 11 0.0
v 8 11 0.0
vt 0.5 0.625
vt 0.4375 0.625
vt 0.4375 0.6875
vt 0.5 0.6875
f 733/733/2 734/734/2 735/735/2 736/736/2
v 7 11 1.0
v 8 11 1.0
v 8 11 0.0
v 7 11 0.0
vt 0.4375 0.625
vt 0.5 0.625
vt 0.5 0.6875
vt 0.4375 0.6875
f 737/737/3 738/738/3 739/739/3 740/740/3
v 8 10 1.0
v 8 10 0.0
v 8 11 0.0
v 8 11 1.0
vt 0.4375 0.625
vt 0.5 0.625
vt 0.5 0.6875
vt 0.4375 0.6875
f 741/741/5 742/742/5 743/743/5 744/744/5
v 7 10 0.0
v 7 10 1.0
v 7 11 1.0
v 7 11 0.0
vt 0.4375 0.625
vt 0.5 0.625
vt 0.5 0.6875
vt 0.4375 0.6875
f 745/745/6 746/746/6 747/747/6 748/748/6
v 5 9 1.0
v 6 9 1.0
v 6 10 1.0
v 5 10 1.0
vt 0.3125 0.5625
vt 0.375 0.5625
vt 0.375 0.625
vt 0.3125 0.625
f 749/749/1 750/750/1 751/751/1 752/752/1
v 6 9 0.0
v 5 9 0.0
v 5 10 0.0
v 6 10 0.0
vt 0.375 0.5625
vt 0.3125 0.5625
vt 0.3125 0.625
vt 0.375 0.625
f 753/753/2 754/754/2 755/755/2 756/756/2
v 5 10 1.0
v 6 10 1.0
v 6 10 0.0
v 5 10 0.0
vt 0.3125 0.5625
vt 0.375 0.5625
vt 0.375 0.625
vt 0.3125 0.625
f 757/757/3 758/758/3 759/759/3 760/760/3
v 5 9 0.0
v 5 9 1.0
v 5 10 1.0
v 5 10 0.0
vt 0.3125 0.5625
vt 0.375 0.5625
vt 0.375 0.625
vt 0.3125 0.625
f 761/761/6 762/762/6 763/763/6 764/764/6
v 6 9 1.0
v 7 9 1.0
v 7 10 1.0
v 6 10 1.0
vt 0.375 0.5625
vt 0.4375 0.5625
vt 0.4375 0.625
vt 0.375 0.625
f 765/765/1 766/766/1 767/767/1 768/768/1
v 7 9 0.0
v 6 9 0.0
v 6 10 0.0
v 7 10 0.0
vt 0.4375 0.5625
vt 0.375 0.5625
vt 0.375 0.625
vt 0.4375 0.625
f 769/769/2 770/770/2 771/771/2 772/772/2
v 6 10 1.0
v 7 10 1.0
v 7 10 0.0
v 6 10 0.0
vt 0.375 0.5625
vt 0.4375 0.5625
vt 0.4375 0.625
vt 0.375 0.625
f 773/773/3 774/774/3 775/775/3 776/776/3
v 7 9 1.0
v 8 9 1.0
v 8 10 1.0
v 7 10 1.0
vt 0.4375 0.5625
vt 0.5 0.5625
vt 0.5 0.625
vt 0.4375 0.625
f 777/777/1 778/778/1 779/779/1 780/780/1
v 8 9 0.0
v 7 9 0.0
v 7 10 0.0
v 8 10 0.0
vt 0.5 0.5625
vt 0.4375 0.5625
vt 0.4375 0.625
vt 0.5 0.625
f 781/781/2 782/782/2 783/783/2 784/784/2
v 8 9 1.0
v 9 9 1.0
v 9 10 1.0
v 8 10 1.0
vt 0.5 0.5625
vt 0.5625 0.5625
vt 0.5625 0.625
vt 0.5 0.625
f 785/785/1 786/786/1 787/787/1 788/788/1
v 9 9 0.0
v 8 9 0.0
v 8 10 0.0
v 9 10 0.0
vt 0.5625 0.5625
vt 0.5 0.5625
vt 0.5 0.625
vt 0.5625 0.625
f 789/789/2 790/790/2 791/791/2 792/792/2
v 8 10 1.0
v 9 10 1.0
v 9 10 0.0
v 8 10 0.0
vt 0.5 0.5625
vt 0.5625 0.5625
vt 0.5625 0.625
vt 0.5 0.625
f 793/793/3 794/794/3 795/795/3 796/796/3
v 9 9 1.0
v 9 9 0.0
v 9 10 0.0
v 9 10 1.0
vt 0.5 0.5625
vt 0.5625 0.5625
vt 0.5625 0.625
vt 0.5 0.625
f 797/797/5 798/798/5 799/799/5 800/800/5
v 3 8 1.0
v 4 8 1.0
v 4 9 1.0
v 3 9 1.0
vt 0.1875 0.5
vt 0.25 0.5
vt 0.25 0.5625
vt 0.1875 0.5625
f 801/801/1 802/802/1 803/803/1 804/804/1
v 4 8 0.0
v 3 8 0.0
v 3 9 0.0
v 4 9 0.0
vt 0.25 0.5
vt 0.1875 0.5
vt 0.1875 0.5625
vt 0.25 0.5625
f 805/805/2 806/806/2 807/807/2 808/808/2
v 3 9 1.0
v 4 9 1.0
v 4 9 0.0
v 3 9 0.0
vt 0.1875 0.5
vt 0.25 0.5
vt 0.25 0.5625
vt 0.1875 0.5625
f 809/809/3 810/810/3 811/811/3 812/812/3
v 3 8 0.0
v 3 8 1.0
v 3 9 1.0
v 3 9 0.0
vt 0.1875 0.5
vt 0.25 0.5
vt 0.25 0.5625
vt 0.1875 0.5625
f 813/813/6 814/814/6 815/815/6 816/816/6
v 4 8 1.0
v 5 8 1.0
v 5 9 1.0
v 4 9 1.0
vt 0.25 0.5
vt 0.3125 0.5
vt 0.3125 0.5625
vt 0.25 0.5625
f 817/817/1 818/818/1 819/819/1 820/820/1
v 5 8 0.0
v 4 8 0.0
v 4 9 0.0
v 5 9 0.0
vt 0.3125 0.5
vt 0.25 0.5
vt 0.25 0.5625
vt 0.3125 0.5625
f 821/821/2 822/822/2 823/823/2 824/824/2
v 4 9 1.0
v 5 9 1.0
v 5 9 0.0
v 4 9 0.0
vt 0.25 0.5
vt 0.3125 0.5
vt 0.3125 0.5625
vt 0.25 0.5625
f 825/825/3 826/826/3 827/827/3 828/828/3
v 5 8 1.0
v 6 8 1.0
v 6 9 1.0
v 5 9 1.0
vt 0.3125 0.5
vt 0.375 0.5
vt 0.375 0.5625
vt 0.3125 0.5625
f 829/829/1 830/830/1 831/831/1 832/832/1
v 6 8 0.0
v 5 8 0.0
v 5 9 0.0
v 6 9 0.0
vt 0.375 0.5
vt 0.3125 0.5
vt 0.3125 0.5625
vt 0.375 0.5625
f 833/833/2 834/834/2 835/835/2 836/836/2
v 6 8 1.0
v 7 8 1.0
v 7 9 1.0
v 6 9 1.0
vt 0.375 0.5
vt 0.4375 0.5
vt 0.4375 0.5625
vt 0.375 0.5625
f 837/837/1 838/838/1 839/839/1 840/840/1
v 7 8 0.0
v 6 8 0.0
v 6 9 0.0
v 7 9 0.0
vt 0.4375 0.5
vt 0.375 0.5
vt 0.375 0.5625
vt 0.4375 0.5625
f 841/841/2 842/842/2 843/843/2 844/844/2
v 7 8 1.0
v 8 8 1.0
v 8 9 1.0
v 7 9 1.0
vt 0.4375 0.5
vt 0.5 0.5
vt 0.5 0.5625
vt 0.4375 0.5625
f 845/845/1 846/846/1 847/847/1 848/848/1
v 8 8 0.0
v 7 8 0.0
v 7 9 0.0
v 8 9 0.0
vt 0.5 0.5
vt 0.4375 0.5
vt 0.4375 0.5625
vt 0.5 0.5625
f 849/849/2 850/850/2 851/851/2 852/852/2
v 8 8 1.0
v 9 8 1.0
v 9 9 1.0
v 8 9 1.0
vt 0.5 0.5
vt 0.5625 0.5
vt 0.5625 0.5625
vt 0.5 0.5625
f 853/853/1 854/854/1 855/855/1 856/856/1
v 9 8 0.0
v 8 8 0.0
v 8 9 0.0
v 9 9 0.0
vt 0.5625 0.5
vt 0.5 0.5
vt 0.5 0.5625
vt 0.5625 0.5625
f 857/857/2 858/858/2 859/859/2 860/860/2
v 9 8 1.0
v 10 8 1.0
v 10 9 1.0
v 9 9 1.0
vt 0.5625 0.5
vt 0.625 0.5
vt 0.625 0.5625
vt 0.5625 0.5625
f 861/861/1 862/862/1 863/863/1 864/864/1
v 10 8 0.0
v 9 8 0.0
v 9 9 0.0
v 10 9 0.0
vt 0.625 0.5
vt 0.5625 0.5
vt 0.5625 0.5625
vt 0.625 0.5625
f 865/865/2 866/866/2 867/867/2 868/868/2
v 9 9 1.0
v 10 9 1.0
v 10 9 0.0
v 9 9 0.0
vt 0.5625 0.5
vt 0.625 0.5
vt 0.625 0.5625
vt 0.5625 0.5625
f 869/869/3 870/870/3 871/871/3 872/872/3
v 10 8 1.0
v 10 8 0.0
v 10 9 0.0
v 10 9 1.0
vt 0.5625 0.5
vt 0.625 0.5
vt 0.625 0.5625
vt 0.5625 0.5625
f 873/873/5 874/874/5 875/875/5 876/876/5
v 1 7 1.0
v 2 7 1.0
v 2 8 1.0
v 1 8 1.0
vt 0.0625 0.4375
vt 0.125 0.4375
vt 0.125 0.5
vt 0.0625 0.5
f 877/877/1 878/878/1 879/879/1 880/880/1
v 2 7 0.0
v 1 7 0.0
v 1 8 0.0
v 2 8 0.0
vt 0.125 0.4375
vt 0.0625 0.4375
vt 0.0625 0.5
vt 0.125 0.5
f 881/881/2 882/882/2 883/883/2 884/884/2
v 1 8 1.0
v 2 8 1.0
v 2 8 0.0
v 1 8 0.0
vt 0.0625 0.4375
vt 0.125 0.4375
vt 0.125 0.5
vt 0.0625 0.5
f 885/885/3 886/886/3 887/887/3 888/888/3
v 1 7 0.0
v 1 7 1.0
v 1 8 1.0
v 1 8 0.0
vt 0.0625 0.4375
vt 0.125 0.4375
vt 0.125 0.5
vt 0.0625 0.5
f 889/889/6 890/890/6 891/891/6 892/892/6
v 2 7 1.0
v 3 7 1.0
v 3 8 1.0
v 2 8 1.0
vt 0.125 0.4375
vt 0.1875 0.4375
vt 0.1875 0.5
vt 0.125 0.5
f 893/893/1 894/894/1 895/895/1 896/896/1
v 3 7 0.0
v 2 7 0.0
v 2 8 0.0
v 3 8 0.0
vt 0.1875 0.4375
vt 0.125 0.4375
vt 0.125 0.5
vt 0.1875 0.5
f 897/897/2 898/898/2 899/899/2 900/900/2
v 2 8 1.0
v 3 8 1.0
v 3 8 0.0
v 2 8 0.0
vt 0.125 0.4375
vt 0.1875 0.4375
vt 0.1875 0.5
vt 0.125 0.5
f 901/901/3 902/902/3 903/903/3 904/904/3
v 3 7 1.0
v 4 7 1.0
v 4 8 1.0
v 3 8 1.0
vt 0.1875 0.4375
vt 0.25 0.4375
vt 0.25 0.5
vt 0.1875 0.5
f 905/905/1 906/906/1 907/907/1 908/908/1
v 4 7 0.0
v 3 7 0.0
v 3 8 0.0
v 4 8 0.0
vt 0.25 0.4375
vt 0.1875 0.4375
vt 0.1875 0.5
vt 0.25 0.5
f 909/909/2 910/910/2 911/911/2 912/912/2
v 4 7 1.0
v 5 7 1.0
v 5 8 1.0
v 4 8 1.0
vt 0.25 0.4375
vt 0.3125 0.4375
vt 0.3125 0.5
vt 0.25 0.5
f 913/913/1 914/914/1 915/915/1 916/916/1
v 5 7 0.0
v 4 7 0.0
v 4 8 0.0
v 5 8 0.0
vt 0.3125 0.4375
vt 0.25 0.4375
vt 0.25 0.5
vt 0.3125 0.5
f 917/917/2 918/918/2 919/919/2 920/920/2
v 5 7 1.0
v 6 7 1.0
v 6 8 1.0
v 5 8 1.0
vt 0.3125 0.4375
vt 0.375 0.4375
vt 0.375 0.5
vt 0.3125 0.5
f 921/921/1 922/922/1 923/923/1 924/924/1
v 6 7 0.0
v 5 7 0.0
v 5 8 0.0
v 6 8 0.0
vt 0.375 0.4375
vt 0.3125 0.4375
vt 0.3125 0.5
vt 0.375 0.5
f 925/925/2 926/926/2 927/927/2 928/928/2
v 6 7 1.0
v 7 7 1.0
v 7 8 1.0
v 6 8 1.0
vt 0.375 0.4375
vt 0.4375 0.4375
vt 0.4375 0.5
vt 0.375 0.5
f 929/929/1 930/930/1 931/931/1 932/932/1
v 7 7 0.0
v 6 7 0.0
v 6 8 0.0
v 7 8 0.0
vt 0.4375 0.4375
vt 0.375 0.4375
vt 0.375 0.5
vt 0.4375 0.5
f 933/933/2 934/934/2 935/935/2 936/936/2
v 7 7 1.0
v 8 7 1.0
v 8 8 1.0
v 7 8 1.0
vt 0.4375 0.4375
vt 0.5 0.4375
vt 0.5 0.5
vt 0.4375 0.5
f 937/937/1 938/938/1 939/939/1 940/940/1
v 8 7 0.0
v 7 7 0.0
v 7 8 0.0
v 8 8 0.0
vt 0.5 0.4375
vt 0.4375 0.4375
vt 0.4375 0.5
vt 0.5 0.5
f 941/941/2 942/942/2 943/943/2 944/944/2
v 8 7 1.0
v 9 7 1.0
v 9 8 1.0
v 8 8 1.0
vt 0.5 0.4375
vt 0.5625 0.4375
vt 0.5625 0.5
vt 0.5 0.5
f 945/945/1 946/946/1 947/947/1 948/948/1
v 9 7 0.0
v 8 7 0.0
v 8 8 0.0
v 9 8 0.0
vt 0.5625 0.4375
vt 0.5 0.4375
vt 0.5 0.5
vt 0.5625 0.5
f 949/949/2 950/950/2 951/951/2 952/952/2
v 9 7 1.0
v 10 7 1.0
v 10 8 1.0
v 9 8 1.0
vt 0.5625 0.4375
vt 0.625 0.4375
vt 0.625 0.5
vt 0.5625 0.5
f 953/953/1 954/954/1 955/955/1 956/956/1
v 10 7 0.0
v 9 7 0.0
v 9 8 0.0
v 10 8 0.0
vt 0.625 0.4375
vt 0.5625 0.4375
vt 0.5625 0.5
vt 0.625 0.5
f 957/957/2 958/958/2 959/959/2 960/960/2
v 9 7 0.0
v 10 7 0.0
v 10 7 1.0
v 9 7 1.0
vt 0.5625 0.4375
vt 0.625 0.4375
vt 0.625 0.5
vt 0.5625 0.5
f 961/961/4 962/962/4 963/963/4 964/964/4
v 10 7 1.0
v 10 7 0.0
v 10 8 0.0
v 10 8 1.0
vt 0.5625 0.4375
vt 0.625 0.4375
vt 0.625 0.5
vt 0.5625 0.5
f 965/965/5 966/966/5 967/967/5 968/968/5
v 1 6 1.0
v 2 6 1.0
v 2 7 1.0
v 1 7 1.0
vt 0.0625 0.375
vt 0.125 0.375
vt 0.125 0.4375
vt 0.0625 0.4375
f 969/969/1 970/970/1 971/971/1 972/972/1
v 2 6 0.0
v 1 6 0.0
v 1 7 0.0
v 2 7 0.0
vt 0.125 0.375
vt 0.0625 0.375
vt 0.0625 0.4375
vt 0.125 0.4375
f 973/973/2 974/974/2 975/975/2 976/976/2
v 1 6 0.0
v 1 6 1.0
v 1 7 1.0
v 1 7 0.0
vt 0.0625 0.375
vt 0.125 0.375
vt 0.125 0.4375
vt 0.0625 0.4375
f 977/977/6 978/978/6 979/979/6 980/980/6
v 2 6 1.0
v 3 6 1.0
v 3 7 1.0
v 2 7 1.0
vt 0.125 0.375
vt 0.1875 0.375
vt 0.1875 0.4375
vt 0.125 0.4375
f 981/981/1 982/982/1 983/983/1 984/984/1
v 3 6 0.0
v 2 6 0.0
v 2 7 0.0
v 3 7 0.0
vt 0.1875 0.375
vt 0.125 0.375
vt 0.125 0.4375
vt 0.1875 0.4375
f 985/985/2 986/986/2 987/987/2 988/988/2
v 3 6 1.0
v 4 6 1.0
v 4 7 1.0
v 3 7 1.0
vt 0.1875 0.375
vt 0.25 0.375
vt 0.25 0.4375
vt 0.1875 0.4375
f 989/989/1 990/990/1 991/991/1 992/992/1
v 4 6 0.0
v 3 6 0.0
v 3 7 0.0
v 4 7 0.0
vt 0.25 0.375
vt 0.1875 0.375
vt 0.1875 0.4375
vt 0.25 0.4375
f 993/993/2 994/994/2 995/995/2 996/996/2
v 4 6 1.0
v 5 6 1.0
v 5 7 1.0
v 4 7 1.0
vt 0.25 0.375
vt 0.3125 0.375
vt 0.3125 0.4375
vt 0.25 0.4375
f 997/997/1 998/998/1 999/999/1 1000/1000/1
v 5 6 0.0
v 4 6 0.0
v 4 7 0.0
v 5 7 0.0
vt 0.3125 0.375
vt 0.25 0.375
vt 0.25 0.4375
vt 0.3125 0.4375
f 1001/1001/2 1002/1002/2 1003/1003/2 1004/1004/2
v 5 6 1.0
v 6 6 1.0
v 6 7 1.0
v 5 7 1.0
vt 0.3125 0.375
vt 0.375 0.375
vt 0.375 0.4375
vt 0.3125 0.4375
f 1005/1005/1 1006/1006/1 1007/1007/1 1008/1008/1
v 6 6 0.0
v 5 6 0.0
v 5 7 0.0
v 6 7 0.0
vt 0.375 0.375
vt 0.3125 0.375
vt 0.3125 0.4375
vt 0.375 0.4375
f 1009/1009/2 1010/1010/2 1011/1011/2 1012/1012/2
v 6 6 1.0
v 7 6 1.0
v 7 7 1.0
v 6 7 1.0
vt 0.375 0.375
vt 0.4375 0.375
vt 0.4375 0.4375
vt 0.375 0.4375
f 1013/1013/1 1014/1014/1 1015/1015/1 1016/1016/1
v 7 6 0.0
v 6 6 0.0
v 6 7 0.0
v 7 7 0.0
vt 0.4375 0.375
vt 0.375 0.375
vt 0.375 0.4375
vt 0.4375 0.4375
f 1017/1017/2 1018/1018/2 1019/1019/2 1020/1020/2
v 7 6 1.0
v 8 6 1.0
v 8 7 1.0
v 7 7 1.0
vt 0.4375 0.375
vt 0.5 0.375
vt 0.5 0.4375
vt 0.4375 0.4375
f 1021/1021/1 1022/1022/1 1023/1023/1 1024/1024/1
v 8 6 0.0
v 7 6 0.0
v 7 7 0.0
v 8 7 0.0
vt 0.5 0.375
vt 0.4375 0.375
vt 0.4375 0.4375
vt 0.5 0.4375
f 1025/1025/2 1026/1026/2 1027/1027/2 1028/1028/2
v 8 6 1.0
v 9 6 1.0
v 9 7 1.0
v 8 7 1.0
vt 0.5 0.375
vt 0.5625 0.375
vt 0.5625 0.4375
vt 0.5 0.4375
f 1029/1029/1 1030/1030/1 1031/1031/1 1032/1032/1
v 9 6 0.0
v 8 6 0.0
v 8 7 0.0
v 9 7 0.0
vt 0.5625 0.375
vt 0.5 0.375
vt 0.5 0.4375
vt 0.5625 0.4375
f 1033/1033/2 1034/1034/2 1035/1035/2 1036/1036/2
v 8 6 0.0
v 9 6 0.0
v 9 6 1.0
v 8 6 1.0
vt 0.5 0.375
vt 0.5625 0.375
vt 0.5625 0.4375
vt 0.5 0.4375
f 1037/1037/4 1038/1038/4 1039/1039/4 1040/1040/4
v 9 6 1.0
v 9 6 0.0
v 9 7 0.0
v 9 7 1.0
vt 0.5 0.375
vt 0.5625 0.375
vt 0.5625 0.4375
vt 0.5 0.4375
f 1041/1041/5 1042/1042/5 1043/1043/5 1044/1044/5
v 1 5 1.0
v 2 5 1.0
v 2 6 1.0
v 1 6 1.0
vt 0.0625 0.3125
vt 0.125 0.3125
vt 0.125 0.375
vt 0.0625 0.375
f 1045/1045/1 1046/1046/1 1047/1047/1 1048/1048/1
v 2 5 0.0
v 1 5 0.0
v 1 6 0.0
v 2 6 0.0
vt 0.125 0.3125
vt 0.0625 0.3125
vt 0.0625 0.375
vt 0.125 0.375
f 1049/1049/2 1050/1050/2 1051/1051/2 1052/1052/2
v 1 5 0.0
v 2 5 0.0
v 2 5 1.0
v 1 5 1.0
vt 0.0625 0.3125
vt 0.125 0.3125
vt 0.125 0.375
vt 0.0625 0.375
f 1053/1053/4 1054/1054/4 1055/1055/4 1056/1056/4
v 1 5 0.0
v 1 5 1.0
v 1 6 1.0
v 1 6 0.0
vt 0.0625 0.3125
vt 0.125 0.3125
vt 0.125 0.375
vt 0.0625 0.375
f 1057/1057/6 1058/1058/6 1059/1059/6 1060/1060/6
v 2 5 1.0
v 3 5 1.0
v 3 6 1.0
v 2 6 1.0
vt 0.125 0.3125
vt 0.1875 0.3125
vt 0.1875 0.375
vt 0.125 0.375
f 1061/1061/1 1062/1062/1 1063/1063/1 1064/1064/1
v 3 5 0.0
v 2 5 0.0
v 2 6 0.0
v 3 6 0.0
vt 0.1875 0.3125
vt 0.125 0.3125
vt 0.125 0.375
vt 0.1875 0.375
f 1065/1065/2 1066/1066/2 1067/1067/2 1068/1068/2
v 3 5 1.0
v 4 5 1.0
v 4 6 1.0
v 3 6 1.0
vt 0.1875 0.3125
vt 0.25 0.3125
vt 0.25 0.375
vt 0.1875 0.375
f 1069/1069/1 1070/1070/1 1071/1071/1 1072/1072/1
v 4 5 0.0
v 3 5 0.0
v 3 6 0.0
v 4 6 0.0
vt 0.25 0.3125
vt 0.1875 0.3125
vt 0.1875 0.375
vt 0.25 0.375
f 1073/1073/2 1074/1074/2 1075/1075/2 1076/1076/2
v 4 5 1.0
v 5 5 1.0
v 5 6 1.0
v 4 6 1.0
vt 0.25 0.3125
vt 0.3125 0.3125
vt 0.3125 0.375
vt 0.25 0.375
f 1077/1077/1 1078/1078/1 1079/1079/1 1080/1080/1
v 5 5 0.0
v 4 5 0.0
v 4 6 0.0
v 5 6 0.0
vt 0.3125 0.3125
vt 0.25 0.3125
vt 0.25 0.375
vt 0.3125 0.375
f 1081/1081/2 1082/1082/2 1083/1083/2 1084/1084/2
v 5 5 1.0
v 6 5 1.0
v 6 6 1.0
v 5 6 1.0
vt 0.3125 0.3125
vt 0.375 0.3125
vt 0.375 0.375
vt 0.3125 0.375
f 1085/1085/1 1086/1086/1 1087/1087/1 1088/1088/1
v 6 5 0.0
v 5 5 0.0
v 5 6 0.0
v 6 6 0.0
vt 0.375 0.3125
vt 0.3125 0.3125
vt 0.3125 0.375
vt 0.375 0.375
f 1089/1089/2 1090/1090/2 1091/1091/2 1092/1092/2
v 6 5 1.0
v 7 5 1.0
v 7 6 1.0
v 6 6 1.0
vt 0.375 0.3125
vt 0.4375 0.3125
vt 0.4375 0.375
vt 0.375 0.375
f 1093/1093/1 1094/1094/1 1095/1095/1 1096/1096/1
v 7 5 0.0
v 6 5 0.0
v 6 6 0.0
v 7 6 0.0
vt 0.4375 0.3125
vt 0.375 0.3125
vt 0.375 0.375
vt 0.4375 0.375
f 1097/1097/2 1098/1098/2 1099/1099/2 1100/1100/2
v 7 5 1.0
v 8 5 1.0
v 8 6 1.0
v 7 6 1.0
vt 0.4375 0.3125
vt 0.5 0.3125
vt 0.5 0.375
vt 0.4375 0.375
f 1101/1101/1 1102/1102/1 1103/1103/1 1104/1104/1
v 8 5 0.0
v 7 5 0.0
v 7 6 0.0
v 8 6 0.0
vt 0.5 0.3125
vt 0.4375 0.3125
vt 0.4375 0.375
vt 0.5 0.375
f 1105/1105/2 1106/1106/2 1107/1107/2 1108/1108/2
v 8 5 1.0
v 8 5 0.0
v 8 6 0.0
v 8 6 1.0
vt 0.4375 0.3125
vt 0.5 0.3125
vt 0.5 0.375
vt 0.4375 0.375
f 1109/1109/5 1110/1110/5 1111/1111/5 1112/1112/5
v 2 4 1.0
v 3 4 1.0
v 3 5 1.0
v 2 5 1.0
vt 0.125 0.25
vt 0.1875 0.25
vt 0.1875 0.3125
vt 0.125 0.3125
f 1113/1113/1 1114/1114/1 1115/1115/1 1116/1116/1
v 3 4 0.0
v 2 4 0.0
v 2 5 0.0
v 3 5 0.0
vt 0.1875 0.25
vt 0.125 0.25
vt 0.125 0.3125
vt 0.1875 0.3125
f 1117/1117/2 1118/1118/2 1119/1119/2 1120/1120/2
v 2 4 0.0
v 3 4 0.0
v 3 4 1.0
v 2 4 1.0
vt 0.125 0.25
vt 0.1875 0.25
vt 0.1875 0.3125
vt 0.125 0.3125
f 1121/1121/4 1122/1122/4 1123/1123/4 1124/1124/4
v 2 4 0.0
v 2 4 1.0
v 2 5 1.0
v 2 5 0.0
vt 0.125 0.25
vt 0.1875 0.25
vt 0.1875 0.3125
vt 0.125 0.3125
f 1125/1125/6 1126/1126/6 1127/1127/6 1128/1128/6
v 3 4 1.0
v 4 4 1.0
v 4 5 1.0
v 3 5 1.0
vt 0.1875 0.25
vt 0.25 0.25
vt 0.25 0.3125
vt 0.1875 0.3125
f 1129/1129/1 1130/1130/1 1131/1131/1 1132/1132/1
v 4 4 0.0
v 3 4 0.0
v 3 5 0.0
v 4 5 0.0
vt 0.25 0.25
vt 0.1875 0.25
vt 0.1875 0.3125
vt 0.25 0.3125
f 1133/1133/2 1134/1134/2 1135/1135/2 1136/1136/2
v 4 4 1.0
v 5 4 1.0
v 5 5 1.0
v 4 5 1.0
vt 0.25 0.25
vt 0.3125 0.25
vt 0.3125 0.3125
vt 0.25 0.3125
f 1137/1137/1 1138/1138/1 1139/1139/1 1140/1140/1
v 5 4 0.0
v 4 4 0.0
v 4 5 0.0
v 5 5 0.0
vt 0.3125 0.25
vt 0.25 0.25
vt 0.25 0.3125
vt 0.3125 0.3125
f 1141/1141/2 1142/1142/2 1143/1143/2 1144/1144/2
v 5 4 1.0
v 6 4 1.0
v 6 5 1.0
v 5 5 1.0
vt 0.3125 0.25
vt 0.375 0.25
vt 0.375 0.3125
vt 0.3125 0.3125
f 1145/1145/1 1146/1146/1 1147/1147/1 1148/1148/1
v 6 4 0.0
v 5 4 0.0
v 5 5 0.0
v 6 5 0.0
vt 0.375 0.25
vt 0.3125 0.25
vt 0.3125 0.3125
vt 0.375 0.3125
f 1149/1149/2 1150/1150/2 1151/1151/2 1152/1152/2
v 6 4 1.0
v 7 4 1.0
v 7 5 1.0
v 6 5 1.0
vt 0.375 0.25
vt 0.4375 0.25
vt 0.4375 0.3125
vt 0.375 0.3125
f 1153/1153/1 1154/1154/1 1155/1155/1 1156/1156/1
v 7 4 0.0
v 6 4 0.0
v 6 5 0.0
v 7 5 0.0
vt 0.4375 0.25
vt 0.375 0.25
vt 0.375 0.3125
vt 0.4375 0.3125
f 1157/1157/2 1158/1158/2 1159/1159/2 1160/1160/2
v 7 4 1.0
v 8 4 1.0
v 8 5 1.0
v 7 5 1.0
vt 0.4375 0.25
vt 0.5 0.25
vt 0.5 0.3125
vt 0.4375 0.3125
f 1161/1161/1 1162/1162/1 1163/1163/1 1164/1164/1
v 8 4 0.0
v 7 4 0.0
v 7 5 0.0
v 8 5 0.0
vt 0.5 0.25
vt 0.4375 0.25
vt 0.4375 0.3125
vt 0.5 0.3125
f 1165/1165/2 1166/1166/2 1167/1167/2 1168/1168/2
v 7 4 0.0
v 8 4 0.0
v 8 4 1.0
v 7 4 1.0
vt 0.4375 0.25
vt 0.5 0.25
vt 0.5 0.3125
vt 0.4375 0.3125
f 1169/1169/4 1170/1170/4 1171/1171/4 1172/1172/4
v 8 4 1.0
v 8 4 0.0
v 8 5 0.0
v 8 5 1.0
vt 0.4375 0.25
vt 0.5 0.25
vt 0.5 0.3125
vt 0.4375 0.3125
f 1173/1173/5 1174/1174/5 1175/1175/5 1176/1176/5
v 3 3 1.0
v 4 3 1.0
v 4 4 1.0
v 3 4 1.0
vt 0.1875 0.1875
vt 0.25 0.1875
vt 0.25 0.25
vt 0.1875 0.25
f 1177/1177/1 1178/1178/1 1179/1179/1 1180/1180/1
v 4 3 0.0
v 3 3 0.0
v 3 4 0.0
v 4 4 0.0
vt 0.25 0.1875
vt 0.1875 0.1875
vt 0.1875 0.25
vt 0.25 0.25
f 1181/1181/2 1182/1182/2 1183/1183/2 1184/1184/2
v 3 3 0.0
v 4 3 0.0
v 4 3 1.0
v 3 3 1.0
vt 0.1875 0.1875
vt 0.25 0.1875
vt 0.25 0.25
vt 0.1875 0.25
f 1185/1185/4 1186/1186/4 1187/1187/4 1188/1188/4
v 3 3 0.0
v 3 3 1.0
v 3 4 1.0
v 3 4 0.0
vt 0.1875 0.1875
vt 0.25 0.1875
vt 0.25 0.25
vt 0.1875 0.25
f 1189/1189/6 1190/1190/6 1191/1191/6 1192/1192/6
v 4 3 1.0
v 5 3 1.0
v 5 4 1.0
v 4 4 1.0
vt 0.25 0.1875
vt 0.3125 0.1875
vt 0.3125 0.25
vt 0.25 0.25
f 1193/1193/1 1194/1194/1 1195/1195/1 1196/1196/1
v 5 3 0.0
v 4 3 0.0
v 4 4 0.0
v 5 4 0.0
vt 0.3125 0.1875
vt 0.25 0.1875
vt 0.25 0.25
vt 0.3125 0.25
f 1197/1197/2 1198/1198/2 1199/1199/2 1200/1200/2
v 4 3 0.0
v 5 3 0.0
v 5 3 1.0
v 4 3 1.0
vt 0.25 0.1875
vt 0.3125 0.1875
vt 0.3125 0.25
vt 0.25 0.25
f 1201/1201/4 1202/1202/4 1203/1203/4 1204/1204/4
v 5 3 1.0
v 6 3 1.0
v 6 4 1.0
v 5 4 1.0
vt 0.3125 0.1875
vt 0.375 0.1875
vt 0.375 0.25
vt 0.3125 0.25
f 1205/1205/1 1206/1206/1 1207/1207/1 1208/1208/1
v 6 3 0.0
v 5 3 0.0
v 5 4 0.0
v 6 4 0.0
vt 0.375 0.1875
vt 0.3125 0.1875
vt 0.3125 0.25
vt 0.375 0.25
f 1209/1209/2 1210/1210/2 1211/1211/2 1212/1212/2
v 6 3 1.0
v 7 3 1.0
v 7 4 1.0
v 6 4 1.0
vt 0.375 0.1875
vt 0.4375 0.1875
vt 0.4375 0.25
vt 0.375 0.25
f 1213/1213/1 1214/1214/1 1215/1215/1 1216/1216/1
v 7 3 0.0
v 6 3 0.0
v 6 4 0.0
v 7 4 0.0
vt 0.4375 0.1875
vt 0.375 0.1875
vt 0.375 0.25
vt 0.4375 0.25
f 1217/1217/2 1218/1218/2 1219/1219/2 1220/1220/2
v 7 3 1.0
v 7 3 0.0
v 7 4 0.0
v 7 4 1.0
vt 0.375 0.1875
vt 0.4375 0.1875
vt 0.4375 0.25
vt 0.375 0.25
f 1221/1221/5 1222/1222/5 1223/1223/5 1224/1224/5
v 5 2 1.0
v 6 2 1.0
v 6 3 1.0
v 5 3 1.0
vt 0.3125 0.125
vt 0.375 0.125
vt 0.375 0.1875
vt 0.3125 0.1875
f 1225/1225/1 1226/1226/1 1227/1227/1 1228/1228/1
v 6 2 0.0
v 5 2 0.0
v 5 3 0.0
v 6 3 0.0
vt 0.375 0.125
vt 0.3125 0.125
vt 0.3125 0.1875
vt 0.375 0.1875
f 1229/1229/2 1230/1230/2 1231/1231/2 1232/1232/2
v 5 2 0.0
v 6 2 0.0
v 6 2 1.0
v 5 2 1.0
vt 0.3125 0.125
vt 0.375 0.125
vt 0.375 0.1875
vt 0.3125 0.1875
f 1233/1233/4 1234/1234/4 1235/1235/4 1236/1236/4
v 5 2 0.0
v 5 2 1.0
v 5 3 1.0
v 5 3 0.0
vt 0.3125 0.125
vt 0.375 0.125
vt 0.375 0.1875
vt 0.3125 0.1875
f 1237/1237/6 1238/1238/6 1239/1239/6 1240/1240/6
v 6 2 1.0
v 7 2 1.0
v 7 3 1.0
v 6 3 1.0
vt 0.375 0.125
vt 0.4375 0.125
vt 0.4375 0.1875
vt 0.375 0.1875
f 1241/1241/1 1242/1242/1 1243/1243/1 1244/1244/1
v 7 2 0.0
v 6 2 0.0
v 6 3 0.0
v 7 3 0.0
vt 0.4375 0.125
vt 0.375 0.125
vt 0.375 0.1875
vt 0.4375 0.1875
f 1245/1245/2 1246/1246/2 1247/1247/2 1248/1248/2
v 6 2 0.0
v 7 2 0.0
v 7 2 1.0
v 6 2 1.0
vt 0.375 0.125
vt 0.4375 0.125
vt 0.4375 0.1875
vt 0.375 0.1875
f 1249/1249/4 1250/1250/4 1251/1251/4 1252/1252/4
v 7 2 1.0
v 7 2 0.0
v 7 3 0.0
v 7 3 1.0
vt 0.375 0.125
vt 0.4375 0.125
vt 0.4375 0.1875
vt 0.375 0.1875
f 1253/1253/5 1254/1254/5 1255/1255/5 1256/1256/5
o mesh_mask_4
usemtl mat_烈焰蛋糕
v 10 7 1.0
v 11 7 1.0
v 11 8 1.0
v 10 8 1.0
vt 0.625 0.4375
vt 0.6875 0.4375
vt 0.6875 0.5
vt 0.625 0.5
f 1257/1257/1 1258/1258/1 1259/1259/1 1260/1260/1
v 11 7 0.0
v 10 7 0.0
v 10 8 0.0
v 11 8 0.0
vt 0.6875 0.4375
vt 0.625 0.4375
vt 0.625 0.5
vt 0.6875 0.5
f 1261/1261/2 1262/1262/2 1263/1263/2 1264/1264/2
v 10 8 1.0
v 11 8 1.0
v 11 8 0.0
v 10 8 0.0
vt 0.625 0.4375
vt 0.6875 0.4375
vt 0.6875 0.5
vt 0.625 0.5
f 1265/1265/3 1266/1266/3 1267/1267/3 1268/1268/3
v 11 7 1.0
v 11 7 0.0
v 11 8 0.0
v 11 8 1.0
vt 0.625 0.4375
vt 0.6875 0.4375
vt 0.6875 0.5
vt 0.625 0.5
f 1269/1269/5 1270/1270/5 1271/1271/5 1272/1272/5
v 10 7 0.0
v 10 7 1.0
v 10 8 1.0
v 10 8 0.0
vt 0.625 0.4375
vt 0.6875 0.4375
vt 0.6875 0.5
vt 0.625 0.5
f 1273/1273/6 1274/1274/6 1275/1275/6 1276/1276/6
v 9 6 1.0
v 10 6 1.0
v 10 7 1.0
v 9 7 1.0
vt 0.5625 0.375
vt 0.625 0.375
vt 0.625 0.4375
vt 0.5625 0.4375
f 1277/1277/1 1278/1278/1 1279/1279/1 1280/1280/1
v 10 6 0.0
v 9 6 0.0
v 9 7 0.0
v 10 7 0.0
vt 0.625 0.375
vt 0.5625 0.375
vt 0.5625 0.4375
vt 0.625 0.4375
f 1281/1281/2 1282/1282/2 1283/1283/2 1284/1284/2
v 9 7 1.0
v 10 7 1.0
v 10 7 0.0
v 9 7 0.0
vt 0.5625 0.375
vt 0.625 0.375
vt 0.625 0.4375
vt 0.5625 0.4375
f 1285/1285/3 1286/1286/3 1287/1287/3 1288/1288/3
v 9 6 0.0
v 9 6 1.0
v 9 7 1.0
v 9 7 0.0
vt 0.5625 0.375
vt 0.625 0.375
vt 0.625 0.4375
vt 0.5625 0.4375
f 1289/1289/6 1290/1290/6 1291/1291/6 1292/1292/6
v 10 6 1.0
v 11 6 1.0
v 11 7 1.0
v 10 7 1.0
vt 0.625 0.375
vt 0.6875 0.375
vt 0.6875 0.4375
vt 0.625 0.4375
f 1293/1293/1 1294/1294/1 1295/1295/1 1296/1296/1
v 11 6 0.0
v 10 6 0.0
v 10 7 0.0
v 11 7 0.0
vt 0.6875 0.375
vt 0.625 0.375
vt 0.625 0.4375
vt 0.6875 0.4375
f 1297/1297/2 1298/1298/2 1299/1299/2 1300/1300/2
v 11 6 1.0
v 12 6 1.0
v 12 7 1.0
v 11 7 1.0
vt 0.6875 0.375
vt 0.75 0.375
vt 0.75 0.4375
vt 0.6875 0.4375
f 1301/1301/1 1302/1302/1 1303/1303/1 1304/1304/1
v 12 6 0.0
v 11 6 0.0
v 11 7 0.0
v 12 7 0.0
vt 0.75 0.375
vt 0.6875 0.375
vt 0.6875 0.4375
vt 0.75 0.4375
f 1305/1305/2 1306/1306/2 1307/1307/2 1308/1308/2
v 11 7 1.0
v 12 7 1.0
v 12 7 0.0
v 11 7 0.0
vt 0.6875 0.375
vt 0.75 0.375
vt 0.75 0.4375
vt 0.6875 0.4375
f 1309/1309/3 1310/1310/3 1311/1311/3 1312/1312/3
v 12 6 1.0
v 13 6 1.0
v 13 7 1.0
v 12 7 1.0
vt 0.75 0.375
vt 0.8125 0.375
vt 0.8125 0.4375
vt 0.75 0.4375
f 1313/1313/1 1314/1314/1 1315/1315/1 1316/1316/1
v 13 6 0.0
v 12 6 0.0
v 12 7 0.0
v 13 7 0.0
vt 0.8125 0.375
vt 0.75 0.375
vt 0.75 0.4375
vt 0.8125 0.4375
f 1317/1317/2 1318/1318/2 1319/1319/2 1320/1320/2
v 12 7 1.0
v 13 7 1.0
v 13 7 0.0
v 12 7 0.0
vt 0.75 0.375
vt 0.8125 0.375
vt 0.8125 0.4375
vt 0.75 0.4375
f 1321/1321/3 1322/1322/3 1323/1323/3 1324/1324/3
v 13 6 1.0
v 14 6 1.0
v 14 7 1.0
v 13 7 1.0
vt 0.8125 0.375
vt 0.875 0.375
vt 0.875 0.4375
vt 0.8125 0.4375
f 1325/1325/1 1326/1326/1 1327/1327/1 1328/1328/1
v 14 6 0.0
v 13 6 0.0
v 13 7 0.0
v 14 7 0.0
vt 0.875 0.375
vt 0.8125 0.375
vt 0.8125 0.4375
vt 0.875 0.4375
f 1329/1329/2 1330/1330/2 1331/1331/2 1332/1332/2
v 13 7 1.0
v 14 7 1.0
v 14 7 0.0
v 13 7 0.0
vt 0.8125 0.375
vt 0.875 0.375
vt 0.875 0.4375
vt 0.8125 0.4375
f 1333/1333/3 1334/1334/3 1335/1335/3 1336/1336/3
v 14 6 1.0
v 14 6 0.0
v 14 7 0.0
v 14 7 1.0
vt 0.8125 0.375
vt 0.875 0.375
vt 0.875 0.4375
vt 0.8125 0.4375
f 1337/1337/5 1338/1338/5 1339/1339/5 1340/1340/5
v 8 5 1.0
v 9 5 1.0
v 9 6 1.0
v 8 6 1.0
vt 0.5 0.3125
vt 0.5625 0.3125
vt 0.5625 0.375
vt 0.5 0.375
f 1341/1341/1 1342/1342/1 1343/1343/1 1344/1344/1
v 9 5 0.0
v 8 5 0.0
v 8 6 0.0
v 9 6 0.0
vt 0.5625 0.3125
vt 0.5 0.3125
vt 0.5 0.375
vt 0.5625 0.375
f 1345/1345/2 1346/1346/2 1347/1347/2 1348/1348/2
v 8 6 1.0
v 9 6 1.0
v 9 6 0.0
v 8 6 0.0
vt 0.5 0.3125
vt 0.5625 0.3125
vt 0.5625 0.375
vt 0.5 0.375
f 1349/1349/3 1350/1350/3 1351/1351/3 1352/1352/3
v 8 5 0.0
v 8 5 1.0
v 8 6 1.0
v 8 6 0.0
vt 0.5 0.3125
vt 0.5625 0.3125
vt 0.5625 0.375
vt 0.5 0.375
f 1353/1353/6 1354/1354/6 1355/1355/6 1356/1356/6
v 9 5 1.0
v 10 5 1.0
v 10 6 1.0
v 9 6 1.0
vt 0.5625 0.3125
vt 0.625 0.3125
vt 0.625 0.375
vt 0.5625 0.375
f 1357/1357/1 1358/1358/1 1359/1359/1 1360/1360/1
v 10 5 0.0
v 9 5 0.0
v 9 6 0.0
v 10 6 0.0
vt 0.625 0.3125
vt 0.5625 0.3125
vt 0.5625 0.375
vt 0.625 0.375
f 1361/1361/2 1362/1362/2 1363/1363/2 1364/1364/2
v 10 5 1.0
v 11 5 1.0
v 11 6 1.0
v 10 6 1.0
vt 0.625 0.3125
vt 0.6875 0.3125
vt 0.6875 0.375
vt 0.625 0.375
f 1365/1365/1 1366/1366/1 1367/1367/1 1368/1368/1
v 11 5 0.0
v 10 5 0.0
v 10 6 0.0
v 11 6 0.0
vt 0.6875 0.3125
vt 0.625 0.3125
vt 0.625 0.375
vt 0.6875 0.375
f 1369/1369/2 1370/1370/2 1371/1371/2 1372/1372/2
v 11 5 1.0
v 12 5 1.0
v 12 6 1.0
v 11 6 1.0
vt 0.6875 0.3125
vt 0.75 0.3125
vt 0.75 0.375
vt 0.6875 0.375
f 1373/1373/1 1374/1374/1 1375/1375/1 1376/1376/1
v 12 5 0.0
v 11 5 0.0
v 11 6 0.0
v 12 6 0.0
vt 0.75 0.3125
vt 0.6875 0.3125
vt 0.6875 0.375
vt 0.75 0.375
f 1377/1377/2 1378/1378/2 1379/1379/2 1380/1380/2
v 12 5 1.0
v 13 5 1.0
v 13 6 1.0
v 12 6 1.0
vt 0.75 0.3125
vt 0.8125 0.3125
vt 0.8125 0.375
vt 0.75 0.375
f 1381/1381/1 1382/1382/1 1383/1383/1 1384/1384/1
v 13 5 0.0
v 12 5 0.0
v 12 6 0.0
v 13 6 0.0
vt 0.8125 0.3125
vt 0.75 0.3125
vt 0.75 0.375
vt 0.8125 0.375
f 1385/1385/2 1386/1386/2 1387/1387/2 1388/1388/2
v 13 5 1.0
v 14 5 1.0
v 14 6 1.0
v 13 6 1.0
vt 0.8125 0.3125
vt 0.875 0.3125
vt 0.875 0.375
vt 0.8125 0.375
f 1389/1389/1 1390/1390/1 1391/1391/1 1392/1392/1
v 14 5 0.0
v 13 5 0.0
v 13 6 0.0
v 14 6 0.0
vt 0.875 0.3125
vt 0.8125 0.3125
vt 0.8125 0.375
vt 0.875 0.375
f 1393/1393/2 1394/1394/2 1395/1395/2 1396/1396/2
v 14 5 1.0
v 15 5 1.0
v 15 6 1.0
v 14 6 1.0
vt 0.875 0.3125
vt 0.9375 0.3125
vt 0.9375 0.375
vt 0.875 0.375
f 1397/1397/1 1398/1398/1 1399/1399/1 1400/1400/1
v 15 5 0.0
v 14 5 0.0
v 14 6 0.0
v 15 6 0.0
vt 0.9375 0.3125
vt 0.875 0.3125
vt 0.875 0.375
vt 0.9375 0.375
f 1401/1401/2 1402/1402/2 1403/1403/2 1404/1404/2
v 14 6 1.0
v 15 6 1.0
v 15 6 0.0
v 14 6 0.0
vt 0.875 0.3125
vt 0.9375 0.3125
vt 0.9375 0.375
vt 0.875 0.375
f 1405/1405/3 1406/1406/3 1407/1407/3 1408/1408/3
v 14 5 0.0
v 15 5 0.0
v 15 5 1.0
v 14 5 1.0
vt 0.875 0.3125
vt 0.9375 0.3125
vt 0.9375 0.375
vt 0.875 0.375
f 1409/1409/4 1410/1410/4 1411/1411/4 1412/1412/4
v 15 5 1.0
v 15 5 0.0
v 15 6 0.0
v 15 6 1.0
vt 0.875 0.3125
vt 0.9375 0.3125
vt 0.9375 0.375
vt 0.875 0.375
f 1413/1413/5 1414/1414/5 1415/1415/5 1416/1416/5
v 8 4 1.0
v 9 4 1.0
v 9 5 1.0
v 8 5 1.0
vt 0.5 0.25
vt 0.5625 0.25
vt 0.5625 0.3125
vt 0.5 0.3125
f 1417/1417/1 1418/1418/1 1419/1419/1 1420/1420/1
v 9 4 0.0
v 8 4 0.0
v 8 5 0.0
v 9 5 0.0
vt 0.5625 0.25
vt 0.5 0.25
vt 0.5 0.3125
vt 0.5625 0.3125
f 1421/1421/2 1422/1422/2 1423/1423/2 1424/1424/2
v 8 4 0.0
v 8 4 1.0
v 8 5 1.0
v 8 5 0.0
vt 0.5 0.25
vt 0.5625 0.25
vt 0.5625 0.3125
vt 0.5 0.3125
f 1425/1425/6 1426/1426/6 1427/1427/6 1428/1428/6
v 9 4 1.0
v 10 4 1.0
v 10 5 1.0
v 9 5 1.0
vt 0.5625 0.25
vt 0.625 0.25
vt 0.625 0.3125
vt 0.5625 0.3125
f 1429/1429/1 1430/1430/1 1431/1431/1 1432/1432/1
v 10 4 0.0
v 9 4 0.0
v 9 5 0.0
v 10 5 0.0
vt 0.625 0.25
vt 0.5625 0.25
vt 0.5625 0.3125
vt 0.625 0.3125
f 1433/1433/2 1434/1434/2 1435/1435/2 1436/1436/2
v 10 4 1.0
v 11 4 1.0
v 11 5 1.0
v 10 5 1.0
vt 0.625 0.25
vt 0.6875 0.25
vt 0.6875 0.3125
vt 0.625 0.3125
f 1437/1437/1 1438/1438/1 1439/1439/1 1440/1440/1
v 11 4 0.0
v 10 4 0.0
v 10 5 0.0
v 11 5 0.0
vt 0.6875 0.25
vt 0.625 0.25
vt 0.625 0.3125
vt 0.6875 0.3125
f 1441/1441/2 1442/1442/2 1443/1443/2 1444/1444/2
v 11 4 1.0
v 12 4 1.0
v 12 5 1.0
v 11 5 1.0
vt 0.6875 0.25
vt 0.75 0.25
vt 0.75 0.3125
vt 0.6875 0.3125
f 1445/1445/1 1446/1446/1 1447/1447/1 1448/1448/1
v 12 4 0.0
v 11 4 0.0
v 11 5 0.0
v 12 5 0.0
vt 0.75 0.25
vt 0.6875 0.25
vt 0.6875 0.3125
vt 0.75 0.3125
f 1449/1449/2 1450/1450/2 1451/1451/2 1452/1452/2
v 12 4 1.0
v 13 4 1.0
v 13 5 1.0
v 12 5 1.0
vt 0.75 0.25
vt 0.8125 0.25
vt 0.8125 0.3125
vt 0.75 0.3125
f 1453/1453/1 1454/1454/1 1455/1455/1 1456/1456/1
v 13 4 0.0
v 12 4 0.0
v 12 5 0.0
v 13 5 0.0
vt 0.8125 0.25
vt 0.75 0.25
vt 0.75 0.3125
vt 0.8125 0.3125
f 1457/1457/2 1458/1458/2 1459/1459/2 1460/1460/2
v 13 4 1.0
v 14 4 1.0
v 14 5 1.0
v 13 5 1.0
vt 0.8125 0.25
vt 0.875 0.25
vt 0.875 0.3125
vt 0.8125 0.3125
f 1461/1461/1 1462/1462/1 1463/1463/1 1464/1464/1
v 14 4 0.0
v 13 4 0.0
v 13 5 0.0
v 14 5 0.0
vt 0.875 0.25
vt 0.8125 0.25
vt 0.8125 0.3125
vt 0.875 0.3125
f 1465/1465/2 1466/1466/2 1467/1467/2 1468/1468/2
v 13 4 0.0
v 14 4 0.0
v 14 4 1.0
v 13 4 1.0
vt 0.8125 0.25
vt 0.875 0.25
vt 0.875 0.3125
vt 0.8125 0.3125
f 1469/1469/4 1470/1470/4 1471/1471/4 1472/1472/4
v 14 4 1.0
v 14 4 0.0
v 14 5 0.0
v 14 5 1.0
vt 0.8125 0.25
vt 0.875 0.25
vt 0.875 0.3125
vt 0.8125 0.3125
f 1473/1473/5 1474/1474/5 1475/1475/5 1476/1476/5
v 7 3 1.0
v 8 3 1.0
v 8 4 1.0
v 7 4 1.0
vt 0.4375 0.1875
vt 0.5 0.1875
vt 0.5 0.25
vt 0.4375 0.25
f 1477/1477/1 1478/1478/1 1479/1479/1 1480/1480/1
v 8 3 0.0
v 7 3 0.0
v 7 4 0.0
v 8 4 0.0
vt 0.5 0.1875
vt 0.4375 0.1875
vt 0.4375 0.25
vt 0.5 0.25
f 1481/1481/2 1482/1482/2 1483/1483/2 1484/1484/2
v 7 4 1.0
v 8 4 1.0
v 8 4 0.0
v 7 4 0.0
vt 0.4375 0.1875
vt 0.5 0.1875
vt 0.5 0.25
vt 0.4375 0.25
f 1485/1485/3 1486/1486/3 1487/1487/3 1488/1488/3
v 7 3 0.0
v 7 3 1.0
v 7 4 1.0
v 7 4 0.0
vt 0.4375 0.1875
vt 0.5 0.1875
vt 0.5 0.25
vt 0.4375 0.25
f 1489/1489/6 1490/1490/6 1491/1491/6 1492/1492/6
v 8 3 1.0
v 9 3 1.0
v 9 4 1.0
v 8 4 1.0
vt 0.5 0.1875
vt 0.5625 0.1875
vt 0.5625 0.25
vt 0.5 0.25
f 1493/1493/1 1494/1494/1 1495/1495/1 1496/1496/1
v 9 3 0.0
v 8 3 0.0
v 8 4 0.0
v 9 4 0.0
vt 0.5625 0.1875
vt 0.5 0.1875
vt 0.5 0.25
vt 0.5625 0.25
f 1497/1497/2 1498/1498/2 1499/1499/2 1500/1500/2
v 9 3 1.0
v 10 3 1.0
v 10 4 1.0
v 9 4 1.0
vt 0.5625 0.1875
vt 0.625 0.1875
vt 0.625 0.25
vt 0.5625 0.25
f 1501/1501/1 1502/1502/1 1503/1503/1 1504/1504/1
v 10 3 0.0
v 9 3 0.0
v 9 4 0.0
v 10 4 0.0
vt 0.625 0.1875
vt 0.5625 0.1875
vt 0.5625 0.25
vt 0.625 0.25
f 1505/1505/2 1506/1506/2 1507/1507/2 1508/1508/2
v 10 3 1.0
v 11 3 1.0
v 11 4 1.0
v 10 4 1.0
vt 0.625 0.1875
vt 0.6875 0.1875
vt 0.6875 0.25
vt 0.625 0.25
f 1509/1509/1 1510/1510/1 1511/1511/1 1512/1512/1
v 11 3 0.0
v 10 3 0.0
v 10 4 0.0
v 11 4 0.0
vt 0.6875 0.1875
vt 0.625 0.1875
vt 0.625 0.25
vt 0.6875 0.25
f 1513/1513/2 1514/1514/2 1515/1515/2 1516/1516/2
v 11 3 1.0
v 12 3 1.0
v 12 4 1.0
v 11 4 1.0
vt 0.6875 0.1875
vt 0.75 0.1875
vt 0.75 0.25
vt 0.6875 0.25
f 1517/1517/1 1518/1518/1 1519/1519/1 1520/1520/1
v 12 3 0.0
v 11 3 0.0
v 11 4 0.0
v 12 4 0.0
vt 0.75 0.1875
vt 0.6875 0.1875
vt 0.6875 0.25
vt 0.75 0.25
f 1521/1521/2 1522/1522/2 1523/1523/2 1524/1524/2
v 11 3 0.0
v 12 3 0.0
v 12 3 1.0
v 11 3 1.0
vt 0.6875 0.1875
vt 0.75 0.1875
vt 0.75 0.25
vt 0.6875 0.25
f 1525/1525/4 1526/1526/4 1527/1527/4 1528/1528/4
v 12 3 1.0
v 13 3 1.0
v 13 4 1.0
v 12 4 1.0
vt 0.75 0.1875
vt 0.8125 0.1875
vt 0.8125 0.25
vt 0.75 0.25
f 1529/1529/1 1530/1530/1 1531/1531/1 1532/1532/1
v 13 3 0.0
v 12 3 0.0
v 12 4 0.0
v 13 4 0.0
vt 0.8125 0.1875
vt 0.75 0.1875
vt 0.75 0.25
vt 0.8125 0.25
f 1533/1533/2 1534/1534/2 1535/1535/2 1536/1536/2
v 12 3 0.0
v 13 3 0.0
v 13 3 1.0
v 12 3 1.0
vt 0.75 0.1875
vt 0.8125 0.1875
vt 0.8125 0.25
vt 0.75 0.25
f 1537/1537/4 1538/1538/4 1539/1539/4 1540/1540/4
v 13 3 1.0
v 13 3 0.0
v 13 4 0.0
v 13 4 1.0
vt 0.75 0.1875
vt 0.8125 0.1875
vt 0.8125 0.25
vt 0.75 0.25
f 1541/1541/5 1542/1542/5 1543/1543/5 1544/1544/5
v 7 2 1.0
v 8 2 1.0
v 8 3 1.0
v 7 3 1.0
vt 0.4375 0.125
vt 0.5 0.125
vt 0.5 0.1875
vt 0.4375 0.1875
f 1545/1545/1 1546/1546/1 1547/1547/1 1548/1548/1
v 8 2 0.0
v 7 2 0.0
v 7 3 0.0
v 8 3 0.0
vt 0.5 0.125
vt 0.4375 0.125
vt 0.4375 0.1875
vt 0.5 0.1875
f 1549/1549/2 1550/1550/2 1551/1551/2 1552/1552/2
v 7 2 0.0
v 8 2 0.0
v 8 2 1.0
v 7 2 1.0
vt 0.4375 0.125
vt 0.5 0.125
vt 0.5 0.1875
vt 0.4375 0.1875
f 1553/1553/4 1554/1554/4 1555/1555/4 1556/1556/4
v 7 2 0.0
v 7 2 1.0
v 7 3 1.0
v 7 3 0.0
vt 0.4375 0.125
vt 0.5 0.125
vt 0.5 0.1875
vt 0.4375 0.1875
f 1557/1557/6 1558/1558/6 1559/1559/6 1560/1560/6
v 8 2 1.0
v 9 2 1.0
v 9 3 1.0
v 8 3 1.0
vt 0.5 0.125
vt 0.5625 0.125
vt 0.5625 0.1875
vt 0.5 0.1875
f 1561/1561/1 1562/1562/1 1563/1563/1 1564/1564/1
v 9 2 0.0
v 8 2 0.0
v 8 3 0.0
v 9 3 0.0
vt 0.5625 0.125
vt 0.5 0.125
vt 0.5 0.1875
vt 0.5625 0.1875
f 1565/1565/2 1566/1566/2 1567/1567/2 1568/1568/2
v 8 2 0.0
v 9 2 0.0
v 9 2 1.0
v 8 2 1.0
vt 0.5 0.125
vt 0.5625 0.125
vt 0.5625 0.1875
vt 0.5 0.1875
f 1569/1569/4 1570/1570/4 1571/1571/4 1572/1572/4
v 9 2 1.0
v 10 2 1.0
v 10 3 1.0
v 9 3 1.0
vt 0.5625 0.125
vt 0.625 0.125
vt 0.625 0.1875
vt 0.5625 0.1875
f 1573/1573/1 1574/1574/1 1575/1575/1 1576/1576/1
v 10 2 0.0
v 9 2 0.0
v 9 3 0.0
v 10 3 0.0
vt 0.625 0.125
vt 0.5625 0.125
vt 0.5625 0.1875
vt 0.625 0.1875
f 1577/1577/2 1578/1578/2 1579/1579/2 1580/1580/2
v 9 2 0.0
v 10 2 0.0
v 10 2 1.0
v 9 2 1.0
vt 0.5625 0.125
vt 0.625 0.125
vt 0.625 0.1875
vt 0.5625 0.1875
f 1581/1581/4 1582/1582/4 1583/1583/4 1584/1584/4
v 10 2 1.0
v 11 2 1.0
v 11 3 1.0
v 10 3 1.0
vt 0.625 0.125
vt 0.6875 0.125
vt 0.6875 0.1875
vt 0.625 0.1875
f 1585/1585/1 1586/1586/1 1587/1587/1 1588/1588/1
v 11 2 0.0
v 10 2 0.0
v 10 3 0.0
v 11 3 0.0
vt 0.6875 0.125
vt 0.625 0.125
vt 0.625 0.1875
vt 0.6875 0.1875
f 1589/1589/2 1590/1590/2 1591/1591/2 1592/1592/2
v 10 2 0.0
v 11 2 0.0
v 11 2 1.0
v 10 2 1.0
vt 0.625 0.125
vt 0.6875 0.125
vt 0.6875 0.1875
vt 0.625 0.1875
f 1593/1593/4 1594/1594/4 1595/1595/4 1596/1596/4
v 11 2 1.0
v 11 2 0.0
v 11 3 0.0
v 11 3 1.0
vt 0.625 0.125
vt 0.6875 0.125
vt 0.6875 0.1875
vt 0.625 0.1875
f 1597/1597/5 1598/1598/5 1599/1599/5 1600/1600/5
