mtllib 胡萝卜.mtl
vn 0 0 1
vn 0 0 -1
vn 0 1 0
vn 0 -1 0
vn 1 0 0
vn -1 0 0
o mesh_mask_1
usemtl mat_胡萝卜
v 7 14 1.0
v 8 14 1.0
v 8 15 1.0
v 7 15 1.0
vt 0.4375 0.875
vt 0.5 0.875
vt 0.5 0.9375
vt 0.4375 0.9375
f 1/1/1 2/2/1 3/3/1 4/4/1
v 8 14 0.0
v 7 14 0.0
v 7 15 0.0
v 8 15 0.0
vt 0.5 0.875
vt 0.4375 0.875
vt 0.4375 0.9375
vt 0.5 0.9375
f 5/5/2 6/6/2 7/7/2 8/8/2
v 7 15 1.0
v 8 15 1.0
v 8 15 0.0
v 7 15 0.0
vt 0.4375 0.875
vt 0.5 0.875
vt 0.5 0.9375
vt 0.4375 0.9375
f 9/9/3 10/10/3 11/11/3 12/12/3
v 7 14 0.0
v 8 14 0.0
v 8 14 1.0
v 7 14 1.0
vt 0.4375 0.875
vt 0.5 0.875
vt 0.5 0.9375
vt 0.4375 0.9375
f 13/13/4 14/14/4 15/15/4 16/16/4
v 7 14 0.0
v 7 14 1.0
v 7 15 1.0
v 7 15 0.0
vt 0.4375 0.875
vt 0.5 0.875
vt 0.5 0.9375
vt 0.4375 0.9375
f 17/17/6 18/18/6 19/19/6 20/20/6
v 8 14 1.0
v 9 14 1.0
v 9 15 1.0
v 8 15 1.0
vt 0.5 0.875
vt 0.5625 0.875
vt 0.5625 0.9375
vt 0.5 0.9375
f 21/21/1 22/22/1 23/23/1 24/24/1
v 9 14 0.0
v 8 14 0.0
v 8 15 0.0
v 9 15 0.0
vt 0.5625 0.875
vt 0.5 0.875
vt 0.5 0.9375
vt 0.5625 0.9375
f 25/25/2 26/26/2 27/27/2 28/28/2
v 8 15 1.0
v 9 15 1.0
v 9 15 0.0
v 8 15 0.0
vt 0.5 0.875
vt 0.5625 0.875
vt 0.5625 0.9375
vt 0.5 0.9375
f 29/29/3 30/30/3 31/31/3 32/32/3
v 8 14 0.0
v 9 14 0.0
v 9 14 1.0
v 8 14 1.0
vt 0.5 0.875
vt 0.5625 0.875
vt 0.5625 0.9375
vt 0.5 0.9375
f 33/33/4 34/34/4 35/35/4 36/36/4
v 9 14 1.0
v 9 14 0.0
v 9 15 0.0
v 9 15 1.0
vt 0.5 0.875
vt 0.5625 0.875
vt 0.5625 0.9375
vt 0.5 0.9375
f 37/37/5 38/38/5 39/39/5 40/40/5
v 5 12 1.0
v 6 12 1.0
v 6 13 1.0
v 5 13 1.0
vt 0.3125 0.75
vt 0.375 0.75
vt 0.375 0.8125
vt 0.3125 0.8125
f 41/41/1 42/42/1 43/43/1 44/44/1
v 6 12 0.0
v 5 12 0.0
v 5 13 0.0
v 6 13 0.0
vt 0.375 0.75
vt 0.3125 0.75
vt 0.3125 0.8125
vt 0.375 0.8125
f 45/45/2 46/46/2 47/47/2 48/48/2
v 5 13 1.0
v 6 13 1.0
v 6 13 0.0
v 5 13 0.0
vt 0.3125 0.75
vt 0.375 0.75
vt 0.375 0.8125
vt 0.3125 0.8125
f 49/49/3 50/50/3 51/51/3 52/52/3
v 5 12 0.0
v 6 12 0.0
v 6 12 1.0
v 5 12 1.0
vt 0.3125 0.75
vt 0.375 0.75
vt 0.375 0.8125
vt 0.3125 0.8125
f 53/53/4 54/54/4 55/55/4 56/56/4
v 5 12 0.0
v 5 12 1.0
v 5 13 1.0
v 5 13 0.0
vt 0.3125 0.75
vt 0.375 0.75
vt 0.375 0.8125
vt 0.3125 0.8125
f 57/57/6 58/58/6 59/59/6 60/60/6
v 6 12 1.0
v 7 12 1.0
v 7 13 1.0
v 6 13 1.0
vt 0.375 0.75
vt 0.4375 0.75
vt 0.4375 0.8125
vt 0.375 0.8125
f 61/61/1 62/62/1 63/63/1 64/64/1
v 7 12 0.0
v 6 12 0.0
v 6 13 0.0
v 7 13 0.0
vt 0.4375 0.75
vt 0.375 0.75
vt 0.375 0.8125
vt 0.4375 0.8125
f 65/65/2 66/66/2 67/67/2 68/68/2
v 6 13 1.0
v 7 13 1.0
v 7 13 0.0
v 6 13 0.0
vt 0.375 0.75
vt 0.4375 0.75
vt 0.4375 0.8125
vt 0.375 0.8125
f 69/69/3 70/70/3 71/71/3 72/72/3
v 7 12 1.0
v 8 12 1.0
v 8 13 1.0
v 7 13 1.0
vt 0.4375 0.75
vt 0.5 0.75
vt 0.5 0.8125
vt 0.4375 0.8125
f 73/73/1 74/74/1 75/75/1 76/76/1
v 8 12 0.0
v 7 12 0.0
v 7 13 0.0
v 8 13 0.0
vt 0.5 0.75
vt 0.4375 0.75
vt 0.4375 0.8125
vt 0.5 0.8125
f 77/77/2 78/78/2 79/79/2 80/80/2
v 7 13 1.0
v 8 13 1.0
v 8 13 0.0
v 7 13 0.0
vt 0.4375 0.75
vt 0.5 0.75
vt 0.5 0.8125
vt 0.4375 0.8125
f 81/81/3 82/82/3 83/83/3 84/84/3
v 8 12 1.0
v 8 12 0.0
v 8 13 0.0
v 8 13 1.0
vt 0.4375 0.75
vt 0.5 0.75
vt 0.5 0.8125
vt 0.4375 0.8125
f 85/85/5 86/86/5 87/87/5 88/88/5
v 6 11 1.0
v 7 11 1.0
v 7 12 1.0
v 6 12 1.0
vt 0.375 0.6875
vt 0.4375 0.6875
vt 0.4375 0.75
vt 0.375 0.75
f 89/89/1 90/90/1 91/91/1 92/92/1
v 7 11 0.0
v 6 11 0.0
v 6 12 0.0
v 7 12 0.0
vt 0.4375 0.6875
vt 0.375 0.6875
vt 0.375 0.75
vt 0.4375 0.75
f 93/93/2 94/94/2 95/95/2 96/96/2
v 6 11 0.0
v 6 11 1.0
v 6 12 1.0
v 6 12 0.0
vt 0.375 0.6875
vt 0.4375 0.6875
vt 0.4375 0.75
vt 0.375 0.75
f 97/97/6 98/98/6 99/99/6 100/100/6
v 7 11 1.0
v 8 11 1.0
v 8 12 1.0
v 7 12 1.0
vt 0.4375 0.6875
vt 0.5 0.6875
vt 0.5 0.75
vt 0.4375 0.75
f 101/101/1 102/102/1 103/103/1 104/104/1
v 8 11 0.0
v 7 11 0.0
v 7 12 0.0
v 8 12 0.0
vt 0.5 0.6875
vt 0.4375 0.6875
vt 0.4375 0.75
vt 0.5 0.75
f 105/105/2 106/106/2 107/107/2 108/108/2
v 7 11 0.0
v 8 11 0.0
v 8 11 1.0
v 7 11 1.0
vt 0.4375 0.6875
vt 0.5 0.6875
vt 0.5 0.75
vt 0.4375 0.75
f 109/109/4 110/110/4 111/111/4 112/112/4
v 8 11 1.0
v 8 11 0.0
v 8 12 0.0
v 8 12 1.0
vt 0.4375 0.6875
vt 0.5 0.6875
vt 0.5 0.75
vt 0.4375 0.75
f 113/113/5 114/114/5 115/115/5 116/116/5
v 6 10 1.0
v 7 10 1.0
v 7 11 1.0
v 6 11 1.0
vt 0.375 0.625
vt 0.4375 0.625
vt 0.4375 0.6875
vt 0.375 0.6875
f 117/117/1 118/118/1 119/119/1 120/120/1
v 7 10 0.0
v 6 10 0.0
v 6 11 0.0
v 7 11 0.0
vt 0.4375 0.625
vt 0.375 0.625
vt 0.375 0.6875
vt 0.4375 0.6875
f 121/121/2 122/122/2 123/123/2 124/124/2
v 6 10 0.0
v 7 10 0.0
v 7 10 1.0
v 6 10 1.0
vt 0.375 0.625
vt 0.4375 0.625
vt 0.4375 0.6875
vt 0.375 0.6875
f 125/125/4 126/126/4 127/127/4 128/128/4
v 7 10 1.0
v 7 10 0.0
v 7 11 0.0
v 7 11 1.0
vt 0.375 0.625
vt 0.4375 0.625
vt 0.4375 0.6875
vt 0.375 0.6875
f 129/129/5 130/130/5 131/131/5 132/132/5
v 6 10 0.0
v 6 10 1.0
v 6 11 1.0
v 6 11 0.0
vt 0.375 0.625
vt 0.4375 0.625
vt 0.4375 0.6875
vt 0.375 0.6875
f 133/133/6 134/134/6 135/135/6 136/136/6
o mesh_mask_2
usemtl mat_胡萝卜
v 9 14 1.0
v 10 14 1.0
v 10 15 1.0
v 9 15 1.0
vt 0.5625 0.875
vt 0.625 0.875
vt 0.625 0.9375
vt 0.5625 0.9375
f 137/137/1 138/138/1 139/139/1 140/140/1
v 10 14 0.0
v 9 14 0.0
v 9 15 0.0
v 10 15 0.0
vt 0.625 0.875
vt 0.5625 0.875
vt 0.5625 0.9375
vt 0.625 0.9375
f 141/141/2 142/142/2 143/143/2 144/144/2
v 9 15 1.0
v 10 15 1.0
v 10 15 0.0
v 9 15 0.0
vt 0.5625 0.875
vt 0.625 0.875
vt 0.625 0.9375
vt 0.5625 0.9375
f 145/145/3 146/146/3 147/147/3 148/148/3
v 10 14 1.0
v 10 14 0.0
v 10 15 0.0
v 10 15 1.0
vt 0.5625 0.875
vt 0.625 0.875
vt 0.625 0.9375
vt 0.5625 0.9375
f 149/149/5 150/150/5 151/151/5 152/152/5
v 9 14 0.0
v 9 14 1.0
v 9 15 1.0
v 9 15 0.0
vt 0.5625 0.875
vt 0.625 0.875
vt 0.625 0.9375
vt 0.5625 0.9375
f 153/153/6 154/154/6 155/155/6 156/156/6
v 8 13 1.0
v 9 13 1.0
v 9 14 1.0
v 8 14 1.0
vt 0.5 0.8125
vt 0.5625 0.8125
vt 0.5625 0.875
vt 0.5 0.875
f 157/157/1 158/158/1 159/159/1 160/160/1
v 9 13 0.0
v 8 13 0.0
v 8 14 0.0
v 9 14 0.0
vt 0.5625 0.8125
vt 0.5 0.8125
vt 0.5 0.875
vt 0.5625 0.875
f 161/161/2 162/162/2 163/163/2 164/164/2
v 8 14 1.0
v 9 14 1.0
v 9 14 0.0
v 8 14 0.0
vt 0.5 0.8125
vt 0.5625 0.8125
vt 0.5625 0.875
vt 0.5 0.875
f 165/165/3 166/166/3 167/167/3 168/168/3
v 8 13 0.0
v 8 13 1.0
v 8 14 1.0
v 8 14 0.0
vt 0.5 0.8125
vt 0.5625 0.8125
vt 0.5625 0.875
vt 0.5 0.875
f 169/169/6 170/170/6 171/171/6 172/172/6
v 9 13 1.0
v 10 13 1.0
v 10 14 1.0
v 9 14 1.0
vt 0.5625 0.8125
vt 0.625 0.8125
vt 0.625 0.875
vt 0.5625 0.875
f 173/173/1 174/174/1 175/175/1 176/176/1
v 10 13 0.0
v 9 13 0.0
v 9 14 0.0
v 10 14 0.0
vt 0.625 0.8125
vt 0.5625 0.8125
vt 0.5625 0.875
vt 0.625 0.875
f 177/177/2 178/178/2 179/179/2 180/180/2
v 10 13 1.0
v 11 13 1.0
v 11 14 1.0
v 10 14 1.0
vt 0.625 0.8125
vt 0.6875 0.8125
vt 0.6875 0.875
vt 0.625 0.875
f 181/181/1 182/182/1 183/183/1 184/184/1
v 11 13 0.0
v 10 13 0.0
v 10 14 0.0
v 11 14 0.0
vt 0.6875 0.8125
vt 0.625 0.8125
vt 0.625 0.875
vt 0.6875 0.875
f 185/185/2 186/186/2 187/187/2 188/188/2
v 10 14 1.0
v 11 14 1.0
v 11 14 0.0
v 10 14 0.0
vt 0.625 0.8125
vt 0.6875 0.8125
vt 0.6875 0.875
vt 0.625 0.875
f 189/189/3 190/190/3 191/191/3 192/192/3
v 11 13 1.0
v 11 13 0.0
v 11 14 0.0
v 11 14 1.0
vt 0.625 0.8125
vt 0.6875 0.8125
vt 0.6875 0.875
vt 0.625 0.875
f 193/193/5 194/194/5 195/195/5 196/196/5
v 12 13 1.0
v 13 13 1.0
v 13 14 1.0
v 12 14 1.0
vt 0.75 0.8125
vt 0.8125 0.8125
vt 0.8125 0.875
vt 0.75 0.875
f 197/197/1 198/198/1 199/199/1 200/200/1
v 13 13 0.0
v 12 13 0.0
v 12 14 0.0
v 13 14 0.0
vt 0.8125 0.8125
vt 0.75 0.8125
vt 0.75 0.875
vt 0.8125 0.875
f 201/201/2 202/202/2 203/203/2 204/204/2
v 12 14 1.0
v 13 14 1.0
v 13 14 0.0
v 12 14 0.0
vt 0.75 0.8125
vt 0.8125 0.8125
vt 0.8125 0.875
vt 0.75 0.875
f 205/205/3 206/206/3 207/207/3 208/208/3
v 12 13 0.0
v 12 13 1.0
v 12 14 1.0
v 12 14 0.0
vt 0.75 0.8125
vt 0.8125 0.8125
vt 0.8125 0.875
vt 0.75 0.875
f 209/209/6 210/210/6 211/211/6 212/212/6
v 13 13 1.0
v 14 13 1.0
v 14 14 1.0
v 13 14 1.0
vt 0.8125 0.8125
vt 0.875 0.8125
vt 0.875 0.875
vt 0.8125 0.875
f 213/213/1 214/214/1 215/215/1 216/216/1
v 14 13 0.0
v 13 13 0.0
v 13 14 0.0
v 14 14 0.0
vt 0.875 0.8125
vt 0.8125 0.8125
vt 0.8125 0.875
vt 0.875 0.875
f 217/217/2 218/218/2 219/219/2 220/220/2
v 13 14 1.0
v 14 14 1.0
v 14 14 0.0
v 13 14 0.0
vt 0.8125 0.8125
vt 0.875 0.8125
vt 0.875 0.875
vt 0.8125 0.875
f 221/221/3 222/222/3 223/223/3 224/224/3
v 14 13 1.0
v 14 13 0.0
v 14 14 0.0
v 14 14 1.0
vt 0.8125 0.8125
vt 0.875 0.8125
vt 0.875 0.875
vt 0.8125 0.875
f 225/225/5 226/226/5 227/227/5 228/228/5
v 8 12 1.0
v 9 12 1.0
v 9 13 1.0
v 8 13 1.0
vt 0.5 0.75
vt 0.5625 0.75
vt 0.5625 0.8125
vt 0.5 0.8125
f 229/229/1 230/230/1 231/231/1 232/232/1
v 9 12 0.0
v 8 12 0.0
v 8 13 0.0
v 9 13 0.0
vt 0.5625 0.75
vt 0.5 0.75
vt 0.5 0.8125
vt 0.5625 0.8125
f 233/233/2 234/234/2 235/235/2 236/236/2
v 8 12 0.0
v 8 12 1.0
v 8 13 1.0
v 8 13 0.0
vt 0.5 0.75
vt 0.5625 0.75
vt 0.5625 0.8125
vt 0.5 0.8125
f 237/237/6 238/238/6 239/239/6 240/240/6
v 9 12 1.0
v 10 12 1.0
v 10 13 1.0
v 9 13 1.0
vt 0.5625 0.75
vt 0.625 0.75
vt 0.625 0.8125
vt 0.5625 0.8125
f 241/241/1 242/242/1 243/243/1 244/244/1
v 10 12 0.0
v 9 12 0.0
v 9 13 0.0
v 10 13 0.0
vt 0.625 0.75
vt 0.5625 0.75
vt 0.5625 0.8125
vt 0.625 0.8125
f 245/245/2 246/246/2 247/247/2 248/248/2
v 10 12 1.0
v 11 12 1.0
v 11 13 1.0
v 10 13 1.0
vt 0.625 0.75
vt 0.6875 0.75
vt 0.6875 0.8125
vt 0.625 0.8125
f 249/249/1 250/250/1 251/251/1 252/252/1
v 11 12 0.0
v 10 12 0.0
v 10 13 0.0
v 11 13 0.0
vt 0.6875 0.75
vt 0.625 0.75
vt 0.625 0.8125
vt 0.6875 0.8125
f 253/253/2 254/254/2 255/255/2 256/256/2
v 11 12 1.0
v 12 12 1.0
v 12 13 1.0
v 11 13 1.0
vt 0.6875 0.75
vt 0.75 0.75
vt 0.75 0.8125
vt 0.6875 0.8125
f 257/257/1 258/258/1 259/259/1 260/260/1
v 12 12 0.0
v 11 12 0.0
v 11 13 0.0
v 12 13 0.0
vt 0.75 0.75
vt 0.6875 0.75
vt 0.6875 0.8125
vt 0.75 0.8125
f 261/261/2 262/262/2 263/263/2 264/264/2
v 11 13 1.0
v 12 13 1.0
v 12 13 0.0
v 11 13 0.0
vt 0.6875 0.75
vt 0.75 0.75
vt 0.75 0.8125
vt 0.6875 0.8125
f 265/265/3 266/266/3 267/267/3 268/268/3
v 12 12 1.0
v 13 12 1.0
v 13 13 1.0
v 12 13 1.0
vt 0.75 0.75
vt 0.8125 0.75
vt 0.8125 0.8125
vt 0.75 0.8125
f 269/269/1 270/270/1 271/271/1 272/272/1
v 13 12 0.0
v 12 12 0.0
v 12 13 0.0
v 13 13 0.0
vt 0.8125 0.75
vt 0.75 0.75
vt 0.75 0.8125
vt 0.8125 0.8125
f 273/273/2 274/274/2 275/275/2 276/276/2
v 13 12 1.0
v 14 12 1.0
v 14 13 1.0
v 13 13 1.0
vt 0.8125 0.75
vt 0.875 0.75
vt 0.875 0.8125
vt 0.8125 0.8125
f 277/277/1 278/278/1 279/279/1 280/280/1
v 14 12 0.0
v 13 12 0.0
v 13 13 0.0
v 14 13 0.0
vt 0.875 0.75
vt 0.8125 0.75
vt 0.8125 0.8125
vt 0.875 0.8125
f 281/281/2 282/282/2 283/283/2 284/284/2
v 13 12 0.0
v 14 12 0.0
v 14 12 1.0
v 13 12 1.0
vt 0.8125 0.75
vt 0.875 0.75
vt 0.875 0.8125
vt 0.8125 0.8125
f 285/285/4 286/286/4 287/287/4 288/288/4
v 14 12 1.0
v 14 12 0.0
v 14 13 0.0
v 14 13 1.0
vt 0.8125 0.75
vt 0.875 0.75
vt 0.875 0.8125
vt 0.8125 0.8125
f 289/289/5 290/290/5 291/291/5 292/292/5
v 8 11 1.0
v 9 11 1.0
v 9 12 1.0
v 8 12 1.0
vt 0.5 0.6875
vt 0.5625 0.6875
vt 0.5625 0.75
vt 0.5 0.75
f 293/293/1 294/294/1 295/295/1 296/296/1
v 9 11 0.0
v 8 11 0.0
v 8 12 0.0
v 9 12 0.0
vt 0.5625 0.6875
vt 0.5 0.6875
vt 0.5 0.75
vt 0.5625 0.75
f 297/297/2 298/298/2 299/299/2 300/300/2
v 8 11 0.0
v 8 11 1.0
v 8 12 1.0
v 8 12 0.0
vt 0.5 0.6875
vt 0.5625 0.6875
vt 0.5625 0.75
vt 0.5 0.75
f 301/301/6 302/302/6 303/303/6 304/304/6
v 9 11 1.0
v 10 11 1.0
v 10 12 1.0
v 9 12 1.0
vt 0.5625 0.6875
vt 0.625 0.6875
vt 0.625 0.75
vt 0.5625 0.75
f 305/305/1 306/306/1 307/307/1 308/308/1
v 10 11 0.0
v 9 11 0.0
v 9 12 0.0
v 10 12 0.0
vt 0.625 0.6875
vt 0.5625 0.6875
vt 0.5625 0.75
vt 0.625 0.75
f 309/309/2 310/310/2 311/311/2 312/312/2
v 10 11 1.0
v 11 11 1.0
v 11 12 1.0
v 10 12 1.0
vt 0.625 0.6875
vt 0.6875 0.6875
vt 0.6875 0.75
vt 0.625 0.75
f 313/313/1 314/314/1 315/315/1 316/316/1
v 11 11 0.0
v 10 11 0.0
v 10 12 0.0
v 11 12 0.0
vt 0.6875 0.6875
vt 0.625 0.6875
vt 0.625 0.75
vt 0.6875 0.75
f 317/317/2 318/318/2 319/319/2 320/320/2
v 11 11 1.0
v 12 11 1.0
v 12 12 1.0
v 11 12 1.0
vt 0.6875 0.6875
vt 0.75 0.6875
vt 0.75 0.75
vt 0.6875 0.75
f 321/321/1 322/322/1 323/323/1 324/324/1
v 12 11 0.0
v 11 11 0.0
v 11 12 0.0
v 12 12 0.0
vt 0.75 0.6875
vt 0.6875 0.6875
vt 0.6875 0.75
vt 0.75 0.75
f 325/325/2 326/326/2 327/327/2 328/328/2
v 12 11 1.0
v 13 11 1.0
v 13 12 1.0
v 12 12 1.0
vt 0.75 0.6875
vt 0.8125 0.6875
vt 0.8125 0.75
vt 0.75 0.75
f 329/329/1 330/330/1 331/331/1 332/332/1
v 13 11 0.0
v 12 11 0.0
v 12 12 0.0
v 13 12 0.0
vt 0.8125 0.6875
vt 0.75 0.6875
vt 0.75 0.75
vt 0.8125 0.75
f 333/333/2 334/334/2 335/335/2 336/336/2
v 13 11 1.0
v 13 11 0.0
v 13 12 0.0
v 13 12 1.0
vt 0.75 0.6875
vt 0.8125 0.6875
vt 0.8125 0.75
vt 0.75 0.75
f 337/337/5 338/338/5 339/339/5 340/340/5
v 8 10 1.0
v 9 10 1.0
v 9 11 1.0
v 8 11 1.0
vt 0.5 0.625
vt 0.5625 0.625
vt 0.5625 0.6875
vt 0.5 0.6875
f 341/341/1 342/342/1 343/343/1 344/344/1
v 9 10 0.0
v 8 10 0.0
v 8 11 0.0
v 9 11 0.0
vt 0.5625 0.625
vt 0.5 0.625
vt 0.5 0.6875
vt 0.5625 0.6875
f 345/345/2 346/346/2 347/347/2 348/348/2
v 8 10 0.0
v 9 10 0.0
v 9 10 1.0
v 8 10 1.0
vt 0.5 0.625
vt 0.5625 0.625
vt 0.5625 0.6875
vt 0.5 0.6875
f 349/349/4 350/350/4 351/351/4 352/352/4
v 8 10 0.0
v 8 10 1.0
v 8 11 1.0
v 8 11 0.0
vt 0.5 0.625
vt 0.5625 0.625
vt 0.5625 0.6875
vt 0.5 0.6875
f 353/353/6 354/354/6 355/355/6 356/356/6
v 9 10 1.0
v 10 10 1.0
v 10 11 1.0
v 9 11 1.0
vt 0.5625 0.625
vt 0.625 0.625
vt 0.625 0.6875
vt 0.5625 0.6875
f 357/357/1 358/358/1 359/359/1 360/360/1
v 10 10 0.0
v 9 10 0.0
v 9 11 0.0
v 10 11 0.0
vt 0.625 0.625
vt 0.5625 0.625
vt 0.5625 0.6875
vt 0.625 0.6875
f 361/361/2 362/362/2 363/363/2 364/364/2
v 10 10 1.0
v 11 10 1.0
v 11 11 1.0
v 10 11 1.0
vt 0.625 0.625
vt 0.6875 0.625
vt 0.6875 0.6875
vt 0.625 0.6875
f 365/365/1 366/366/1 367/367/1 368/368/1
v 11 10 0.0
v 10 10 0.0
v 10 11 0.0
v 11 11 0.0
vt 0.6875 0.625
vt 0.625 0.625
vt 0.625 0.6875
vt 0.6875 0.6875
f 369/369/2 370/370/2 371/371/2 372/372/2
v 11 10 1.0
v 12 10 1.0
v 12 11 1.0
v 11 11 1.0
vt 0.6875 0.625
vt 0.75 0.625
vt 0.75 0.6875
vt 0.6875 0.6875
f 373/373/1 374/374/1 375/375/1 376/376/1
v 12 10 0.0
v 11 10 0.0
v 11 11 0.0
v 12 11 0.0
vt 0.75 0.625
vt 0.6875 0.625
vt 0.6875 0.6875
vt 0.75 0.6875
f 377/377/2 378/378/2 379/379/2 380/380/2
v 12 10 1.0
v 13 10 1.0
v 13 11 1.0
v 12 11 1.0
vt 0.75 0.625
vt 0.8125 0.625
vt 0.8125 0.6875
vt 0.75 0.6875
f 381/381/1 382/382/1 383/383/1 384/384/1
v 13 10 0.0
v 12 10 0.0
v 12 11 0.0
v 13 11 0.0
vt 0.8125 0.625
vt 0.75 0.625
vt 0.75 0.6875
vt 0.8125 0.6875
f 385/385/2 386/386/2 387/387/2 388/388/2
v 13 10 1.0
v 14 10 1.0
v 14 11 1.0
v 13 11 1.0
vt 0.8125 0.625
vt 0.875 0.625
vt 0.875 0.6875
vt 0.8125 0.6875
f 389/389/1 390/390/1 391/391/1 392/392/1
v 14 10 0.0
v 13 10 0.0
v 13 11 0.0
v 14 11 0.0
vt 0.875 0.625
vt 0.8125 0.625
vt 0.8125 0.6875
vt 0.875 0.6875
f 393/393/2 394/394/2 395/395/2 396/396/2
v 13 11 1.0
v 14 11 1.0
v 14 11 0.0
v 13 11 0.0
vt 0.8125 0.625
vt 0.875 0.625
vt 0.875 0.6875
vt 0.8125 0.6875
f 397/397/3 398/398/3 399/399/3 400/400/3
v 14 10 1.0
v 14 10 0.0
v 14 11 0.0
v 14 11 1.0
vt 0.8125 0.625
vt 0.875 0.625
vt 0.875 0.6875
vt 0.8125 0.6875
f 401/401/5 402/402/5 403/403/5 404/404/5
v 9 9 1.0
v 10 9 1.0
v 10 10 1.0
v 9 10 1.0
vt 0.5625 0.5625
vt 0.625 0.5625
vt 0.625 0.625
vt 0.5625 0.625
f 405/405/1 406/406/1 407/407/1 408/408/1
v 10 9 0.0
v 9 9 0.0
v 9 10 0.0
v 10 10 0.0
vt 0.625 0.5625
vt 0.5625 0.5625
vt 0.5625 0.625
vt 0.625 0.625
f 409/409/2 410/410/2 411/411/2 412/412/2
v 9 9 0.0
v 10 9 0.0
v 10 9 1.0
v 9 9 1.0
vt 0.5625 0.5625
vt 0.625 0.5625
vt 0.625 0.625
vt 0.5625 0.625
f 413/413/4 414/414/4 415/415/4 416/416/4
v 9 9 0.0
v 9 9 1.0
v 9 10 1.0
v 9 10 0.0
vt 0.5625 0.5625
vt 0.625 0.5625
vt 0.625 0.625
vt 0.5625 0.625
f 417/417/6 418/418/6 419/419/6 420/420/6
v 10 9 1.0
v 11 9 1.0
v 11 10 1.0
v 10 10 1.0
vt 0.625 0.5625
vt 0.6875 0.5625
vt 0.6875 0.625
vt 0.625 0.625
f 421/421/1 422/422/1 423/423/1 424/424/1
v 11 9 0.0
v 10 9 0.0
v 10 10 0.0
v 11 10 0.0
vt 0.6875 0.5625
vt 0.625 0.5625
vt 0.625 0.625
vt 0.6875 0.625
f 425/425/2 426/426/2 427/427/2 428/428/2
v 11 9 1.0
v 12 9 1.0
v 12 10 1.0
v 11 10 1.0
vt 0.6875 0.5625
vt 0.75 0.5625
vt 0.75 0.625
vt 0.6875 0.625
f 429/429/1 430/430/1 431/431/1 432/432/1
v 12 9 0.0
v 11 9 0.0
v 11 10 0.0
v 12 10 0.0
vt 0.75 0.5625
vt 0.6875 0.5625
vt 0.6875 0.625
vt 0.75 0.625
f 433/433/2 434/434/2 435/435/2 436/436/2
v 12 9 1.0
v 13 9 1.0
v 13 10 1.0
v 12 10 1.0
vt 0.75 0.5625
vt 0.8125 0.5625
vt 0.8125 0.625
vt 0.75 0.625
f 437/437/1 438/438/1 439/439/1 440/440/1
v 13 9 0.0
v 12 9 0.0
v 12 10 0.0
v 13 10 0.0
vt 0.8125 0.5625
vt 0.75 0.5625
vt 0.75 0.625
vt 0.8125 0.625
f 441/441/2 442/442/2 443/443/2 444/444/2
v 13 9 1.0
v 14 9 1.0
v 14 10 1.0
v 13 10 1.0
vt 0.8125 0.5625
vt 0.875 0.5625
vt 0.875 0.625
vt 0.8125 0.625
f 445/445/1 446/446/1 447/447/1 448/448/1
v 14 9 0.0
v 13 9 0.0
v 13 10 0.0
v 14 10 0.0
vt 0.875 0.5625
vt 0.8125 0.5625
vt 0.8125 0.625
vt 0.875 0.625
f 449/449/2 450/450/2 451/451/2 452/452/2
v 14 9 1.0
v 15 9 1.0
v 15 10 1.0
v 14 10 1.0
vt 0.875 0.5625
vt 0.9375 0.5625
vt 0.9375 0.625
vt 0.875 0.625
f 453/453/1 454/454/1 455/455/1 456/456/1
v 15 9 0.0
v 14 9 0.0
v 14 10 0.0
v 15 10 0.0
vt 0.9375 0.5625
vt 0.875 0.5625
vt 0.875 0.625
vt 0.9375 0.625
f 457/457/2 458/458/2 459/459/2 460/460/2
v 14 10 1.0
v 15 10 1.0
v 15 10 0.0
v 14 10 0.0
vt 0.875 0.5625
vt 0.9375 0.5625
vt 0.9375 0.625
vt 0.875 0.625
f 461/461/3 462/462/3 463/463/3 464/464/3
v 15 9 1.0
v 15 9 0.0
v 15 10 0.0
v 15 10 1.0
vt 0.875 0.5625
vt 0.9375 0.5625
vt 0.9375 0.625
vt 0.875 0.625
f 465/465/5 466/466/5 467/467/5 468/468/5
v 10 8 1.0
v 11 8 1.0
v 11 9 1.0
v 10 9 1.0
vt 0.625 0.5
vt 0.6875 0.5
vt 0.6875 0.5625
vt 0.625 0.5625
f 469/469/1 470/470/1 471/471/1 472/472/1
v 11 8 0.0
v 10 8 0.0
v 10 9 0.0
v 11 9 0.0
vt 0.6875 0.5
vt 0.625 0.5
vt 0.625 0.5625
vt 0.6875 0.5625
f 473/473/2 474/474/2 475/475/2 476/476/2
v 10 8 0.0
v 11 8 0.0
v 11 8 1.0
v 10 8 1.0
vt 0.625 0.5
vt 0.6875 0.5
vt 0.6875 0.5625
vt 0.625 0.5625
f 477/477/4 478/478/4 479/479/4 480/480/4
v 10 8 0.0
v 10 8 1.0
v 10 9 1.0
v 10 9 0.0
vt 0.625 0.5
vt 0.6875 0.5
vt 0.6875 0.5625
vt 0.625 0.5625
f 481/481/6 482/482/6 483/483/6 484/484/6
v 11 8 1.0
v 12 8 1.0
v 12 9 1.0
v 11 9 1.0
vt 0.6875 0.5
vt 0.75 0.5
vt 0.75 0.5625
vt 0.6875 0.5625
f 485/485/1 486/486/1 487/487/1 488/488/1
v 12 8 0.0
v 11 8 0.0
v 11 9 0.0
v 12 9 0.0
vt 0.75 0.5
vt 0.6875 0.5
vt 0.6875 0.5625
vt 0.75 0.5625
f 489/489/2 490/490/2 491/491/2 492/492/2
v 12 8 1.0
v 13 8 1.0
v 13 9 1.0
v 12 9 1.0
vt 0.75 0.5
vt 0.8125 0.5
vt 0.8125 0.5625
vt 0.75 0.5625
f 493/493/1 494/494/1 495/495/1 496/496/1
v 13 8 0.0
v 12 8 0.0
v 12 9 0.0
v 13 9 0.0
vt 0.8125 0.5
vt 0.75 0.5
vt 0.75 0.5625
vt 0.8125 0.5625
f 497/497/2 498/498/2 499/499/2 500/500/2
v 13 8 1.0
v 14 8 1.0
v 14 9 1.0
v 13 9 1.0
vt 0.8125 0.5
vt 0.875 0.5
vt 0.875 0.5625
vt 0.8125 0.5625
f 501/501/1 502/502/1 503/503/1 504/504/1
v 14 8 0.0
v 13 8 0.0
v 13 9 0.0
v 14 9 0.0
vt 0.875 0.5
vt 0.8125 0.5
vt 0.8125 0.5625
vt 0.875 0.5625
f 505/505/2 506/506/2 507/507/2 508/508/2
v 14 8 1.0
v 15 8 1.0
v 15 9 1.0
v 14 9 1.0
vt 0.875 0.5
vt 0.9375 0.5
vt 0.9375 0.5625
vt 0.875 0.5625
f 509/509/1 510/510/1 511/511/1 512/512/1
v 15 8 0.0
v 14 8 0.0
v 14 9 0.0
v 15 9 0.0
vt 0.9375 0.5
vt 0.875 0.5
vt 0.875 0.5625
vt 0.9375 0.5625
f 513/513/2 514/514/2 515/515/2 516/516/2
v 14 8 0.0
v 15 8 0.0
v 15 8 1.0
v 14 8 1.0
vt 0.875 0.5
vt 0.9375 0.5
vt 0.9375 0.5625
vt 0.875 0.5625
f 517/517/4 518/518/4 519/519/4 520/520/4
v 15 8 1.0
v 16 8 1.0
v 16 9 1.0
v 15 9 1.0
vt 0.9375 0.5
vt 1.0 0.5
vt 1.0 0.5625
vt 0.9375 0.5625
f 521/521/1 522/522/1 523/523/1 524/524/1
v 16 8 0.0
v 15 8 0.0
v 15 9 0.0
v 16 9 0.0
vt 1.0 0.5
vt 0.9375 0.5
vt 0.9375 0.5625
vt 1.0 0.5625
f 525/525/2 526/526/2 527/527/2 528/528/2
v 15 9 1.0
v 16 9 1.0
v 16 9 0.0
v 15 9 0.0
vt 0.9375 0.5
vt 1.0 0.5
vt 1.0 0.5625
vt 0.9375 0.5625
f 529/529/3 530/530/3 531/531/3 532/532/3
v 15 8 0.0
v 16 8 0.0
v 16 8 1.0
v 15 8 1.0
vt 0.9375 0.5
vt 1.0 0.5
vt 1.0 0.5625
vt 0.9375 0.5625
f 533/533/4 534/534/4 535/535/4 536/536/4
v 16 8 1.0
v 16 8 0.0
v 16 9 0.0
v 16 9 1.0
vt 0.9375 0.5
vt 1.0 0.5
vt 1.0 0.5625
vt 0.9375 0.5625
f 537/537/5 538/538/5 539/539/5 540/540/5
v 11 7 1.0
v 12 7 1.0
v 12 8 1.0
v 11 8 1.0
vt 0.6875 0.4375
vt 0.75 0.4375
vt 0.75 0.5
vt 0.6875 0.5
f 541/541/1 542/542/1 543/543/1 544/544/1
v 12 7 0.0
v 11 7 0.0
v 11 8 0.0
v 12 8 0.0
vt 0.75 0.4375
vt 0.6875 0.4375
vt 0.6875 0.5
vt 0.75 0.5
f 545/545/2 546/546/2 547/547/2 548/548/2
v 11 7 0.0
v 12 7 0.0
v 12 7 1.0
v 11 7 1.0
vt 0.6875 0.4375
vt 0.75 0.4375
vt 0.75 0.5
vt 0.6875 0.5
f 549/549/4 550/550/4 551/551/4 552/552/4
v 11 7 0.0
v 11 7 1.0
v 11 8 1.0
v 11 8 0.0
vt 0.6875 0.4375
vt 0.75 0.4375
vt 0.75 0.5
vt 0.6875 0.5
f 553/553/6 554/554/6 555/555/6 556/556/6
v 12 7 1.0
v 13 7 1.0
v 13 8 1.0
v 12 8 1.0
vt 0.75 0.4375
vt 0.8125 0.4375
vt 0.8125 0.5
vt 0.75 0.5
f 557/557/1 558/558/1 559/559/1 560/560/1
v 13 7 0.0
v 12 7 0.0
v 12 8 0.0
v 13 8 0.0
vt 0.8125 0.4375
vt 0.75 0.4375
vt 0.75 0.5
vt 0.8125 0.5
f 561/561/2 562/562/2 563/563/2 564/564/2
v 12 7 0.0
v 13 7 0.0
v 13 7 1.0
v 12 7 1.0
vt 0.75 0.4375
vt 0.8125 0.4375
vt 0.8125 0.5
vt 0.75 0.5
f 565/565/4 566/566/4 567/567/4 568/568/4
v 13 7 1.0
v 14 7 1.0
v 14 8 1.0
v 13 8 1.0
vt 0.8125 0.4375
vt 0.875 0.4375
vt 0.875 0.5
vt 0.8125 0.5
f 569/569/1 570/570/1 571/571/1 572/572/1
v 14 7 0.0
v 13 7 0.0
v 13 8 0.0
v 14 8 0.0
vt 0.875 0.4375
vt 0.8125 0.4375
vt 0.8125 0.5
vt 0.875 0.5
f 573/573/2 574/574/2 575/575/2 576/576/2
v 13 7 0.0
v 14 7 0.0
v 14 7 1.0
v 13 7 1.0
vt 0.8125 0.4375
vt 0.875 0.4375
vt 0.875 0.5
vt 0.8125 0.5
f 577/577/4 578/578/4 579/579/4 580/580/4
v 14 7 1.0
v 14 7 0.0
v 14 8 0.0
v 14 8 1.0
vt 0.8125 0.4375
vt 0.875 0.4375
vt 0.875 0.5
vt 0.8125 0.5
f 581/581/5 582/582/5 583/583/5 584/584/5
o mesh_mask_3
usemtl mat_胡萝卜
v 7 10 1.0
v 8 10 1.0
v 8 11 1.0
v 7 11 1.0
vt 0.4375 0.625
vt 0.5 0.625
vt 0.5 0.6875
vt 0.4375 0.6875
f 585/585/1 586/586/1 587/587/1 588/588/1
v 8 10 0.0
v 7 10 0.0
v 7 11 0.0
v 8 11 0.0
vt 0.5 0.625
vt 0.4375 0.625
vt 0.4375 0.6875
vt 0.5 0.6875
f 589/589/2 590/590/2 591/591/2 592/592/2
v 7 11 1.0
v 8 11 1.0
v 8 11 0.0
v 7 11 0.0
vt 0.4375 0.625
vt 0.5 0.625
vt 0.5 0.6875
vt 0.4375 0.6875
f 593/593/3 594/594/3 595/595/3 596/596/3
v 8 10 1.0
v 8 10 0.0
v 8 11 0.0
v 8 11 1.0
vt 0.4375 0.625
vt 0.5 0.625
vt 0.5 0.6875
vt 0.4375 0.6875
f 597/597/5 598/598/5 599/599/5 600/600/5
v 7 10 0.0
v 7 10 1.0
v 7 11 1.0
v 7 11 0.0
vt 0.4375 0.625
vt 0.5 0.625
vt 0.5 0.6875
vt 0.4375 0.6875
f 601/601/6 602/602/6 603/603/6 604/604/6
v 5 9 1.0
v 6 9 1.0
v 6 10 1.0
v 5 10 1.0
vt 0.3125 0.5625
vt 0.375 0.5625
vt 0.375 0.625
vt 0.3125 0.625
f 605/605/1 606/606/1 607/607/1 608/608/1
v 6 9 0.0
v 5 9 0.0
v 5 10 0.0
v 6 10 0.0
vt 0.375 0.5625
vt 0.3125 0.5625
vt 0.3125 0.625
vt 0.375 0.625
f 609/609/2 610/610/2 611/611/2 612/612/2
v 5 10 1.0
v 6 10 1.0
v 6 10 0.0
v 5 10 0.0
vt 0.3125 0.5625
vt 0.375 0.5625
vt 0.375 0.625
vt 0.3125 0.625
f 613/613/3 614/614/3 615/615/3 616/616/3
v 5 9 0.0
v 5 9 1.0
v 5 10 1.0
v 5 10 0.0
vt 0.3125 0.5625
vt 0.375 0.5625
vt 0.375 0.625
vt 0.3125 0.625
f 617/617/6 618/618/6 619/619/6 620/620/6
v 6 9 1.0
v 7 9 1.0
v 7 10 1.0
v 6 10 1.0
vt 0.375 0.5625
vt 0.4375 0.5625
vt 0.4375 0.625
vt 0.375 0.625
f 621/621/1 622/622/1 623/623/1 624/624/1
v 7 9 0.0
v 6 9 0.0
v 6 10 0.0
v 7 10 0.0
vt 0.4375 0.5625
vt 0.375 0.5625
vt 0.375 0.625
vt 0.4375 0.625
f 625/625/2 626/626/2 627/627/2 628/628/2
v 6 10 1.0
v 7 10 1.0
v 7 10 0.0
v 6 10 0.0
vt 0.375 0.5625
vt 0.4375 0.5625
vt 0.4375 0.625
vt 0.375 0.625
f 629/629/3 630/630/3 631/631/3 632/632/3
v 7 9 1.0
v 8 9 1.0
v 8 10 1.0
v 7 10 1.0
vt 0.4375 0.5625
vt 0.5 0.5625
vt 0.5 0.625
vt 0.4375 0.625
f 633/633/1 634/634/1 635/635/1 636/636/1
v 8 9 0.0
v 7 9 0.0
v 7 10 0.0
v 8 10 0.0
vt 0.5 0.5625
vt 0.4375 0.5625
vt 0.4375 0.625
vt 0.5 0.625
f 637/637/2 638/638/2 639/639/2 640/640/2
v 8 9 1.0
v 9 9 1.0
v 9 10 1.0
v 8 10 1.0
vt 0.5 0.5625
vt 0.5625 0.5625
vt 0.5625 0.625
vt 0.5 0.625
f 641/641/1 642/642/1 643/643/1 644/644/1
v 9 9 0.0
v 8 9 0.0
v 8 10 0.0
v 9 10 0.0
vt 0.5625 0.5625
vt 0.5 0.5625
vt 0.5 0.625
vt 0.5625 0.625
f 645/645/2 646/646/2 647/647/2 648/648/2
v 8 10 1.0
v 9 10 1.0
v 9 10 0.0
v 8 10 0.0
vt 0.5 0.5625
vt 0.5625 0.5625
vt 0.5625 0.625
vt 0.5 0.625
f 649/649/3 650/650/3 651/651/3 652/652/3
v 9 9 1.0
v 9 9 0.0
v 9 10 0.0
v 9 10 1.0
vt 0.5 0.5625
vt 0.5625 0.5625
vt 0.5625 0.625
vt 0.5 0.625
f 653/653/5 654/654/5 655/655/5 656/656/5
v 5 8 1.0
v 6 8 1.0
v 6 9 1.0
v 5 9 1.0
vt 0.3125 0.5
vt 0.375 0.5
vt 0.375 0.5625
vt 0.3125 0.5625
f 657/657/1 658/658/1 659/659/1 660/660/1
v 6 8 0.0
v 5 8 0.0
v 5 9 0.0
v 6 9 0.0
vt 0.375 0.5
vt 0.3125 0.5
vt 0.3125 0.5625
vt 0.375 0.5625
f 661/661/2 662/662/2 663/663/2 664/664/2
v 5 8 0.0
v 5 8 1.0
v 5 9 1.0
v 5 9 0.0
vt 0.3125 0.5
vt 0.375 0.5
vt 0.375 0.5625
vt 0.3125 0.5625
f 665/665/6 666/666/6 667/667/6 668/668/6
v 6 8 1.0
v 7 8 1.0
v 7 9 1.0
v 6 9 1.0
vt 0.375 0.5
vt 0.4375 0.5
vt 0.4375 0.5625
vt 0.375 0.5625
f 669/669/1 670/670/1 671/671/1 672/672/1
v 7 8 0.0
v 6 8 0.0
v 6 9 0.0
v 7 9 0.0
vt 0.4375 0.5
vt 0.375 0.5
vt 0.375 0.5625
vt 0.4375 0.5625
f 673/673/2 674/674/2 675/675/2 676/676/2
v 7 8 1.0
v 8 8 1.0
v 8 9 1.0
v 7 9 1.0
vt 0.4375 0.5
vt 0.5 0.5
vt 0.5 0.5625
vt 0.4375 0.5625
f 677/677/1 678/678/1 679/679/1 680/680/1
v 8 8 0.0
v 7 8 0.0
v 7 9 0.0
v 8 9 0.0
vt 0.5 0.5
vt 0.4375 0.5
vt 0.4375 0.5625
vt 0.5 0.5625
f 681/681/2 682/682/2 683/683/2 684/684/2
v 8 8 1.0
v 9 8 1.0
v 9 9 1.0
v 8 9 1.0
vt 0.5 0.5
vt 0.5625 0.5
vt 0.5625 0.5625
vt 0.5 0.5625
f 685/685/1 686/686/1 687/687/1 688/688/1
v 9 8 0.0
v 8 8 0.0
v 8 9 0.0
v 9 9 0.0
vt 0.5625 0.5
vt 0.5 0.5
vt 0.5 0.5625
vt 0.5625 0.5625
f 689/689/2 690/690/2 691/691/2 692/692/2
v 9 8 1.0
v 10 8 1.0
v 10 9 1.0
v 9 9 1.0
vt 0.5625 0.5
vt 0.625 0.5
vt 0.625 0.5625
vt 0.5625 0.5625
f 693/693/1 694/694/1 695/695/1 696/696/1
v 10 8 0.0
v 9 8 0.0
v 9 9 0.0
v 10 9 0.0
vt 0.625 0.5
vt 0.5625 0.5
vt 0.5625 0.5625
vt 0.625 0.5625
f 697/697/2 698/698/2 699/699/2 700/700/2
v 9 9 1.0
v 10 9 1.0
v 10 9 0.0
v 9 9 0.0
vt 0.5625 0.5
vt 0.625 0.5
vt 0.625 0.5625
vt 0.5625 0.5625
f 701/701/3 702/702/3 703/703/3 704/704/3
v 10 8 1.0
v 10 8 0.0
v 10 9 0.0
v 10 9 1.0
vt 0.5625 0.5
vt 0.625 0.5
vt 0.625 0.5625
vt 0.5625 0.5625
f 705/705/5 706/706/5 707/707/5 708/708/5
v 4 7 1.0
v 5 7 1.0
v 5 8 1.0
v 4 8 1.0
vt 0.25 0.4375
vt 0.3125 0.4375
vt 0.3125 0.5
vt 0.25 0.5
f 709/709/1 710/710/1 711/711/1 712/712/1
v 5 7 0.0
v 4 7 0.0
v 4 8 0.0
v 5 8 0.0
vt 0.3125 0.4375
vt 0.25 0.4375
vt 0.25 0.5
vt 0.3125 0.5
f 713/713/2 714/714/2 715/715/2 716/716/2
v 4 8 1.0
v 5 8 1.0
v 5 8 0.0
v 4 8 0.0
vt 0.25 0.4375
vt 0.3125 0.4375
vt 0.3125 0.5
vt 0.25 0.5
f 717/717/3 718/718/3 719/719/3 720/720/3
v 4 7 0.0
v 4 7 1.0
v 4 8 1.0
v 4 8 0.0
vt 0.25 0.4375
vt 0.3125 0.4375
vt 0.3125 0.5
vt 0.25 0.5
f 721/721/6 722/722/6 723/723/6 724/724/6
v 5 7 1.0
v 6 7 1.0
v 6 8 1.0
v 5 8 1.0
vt 0.3125 0.4375
vt 0.375 0.4375
vt 0.375 0.5
vt 0.3125 0.5
f 725/725/1 726/726/1 727/727/1 728/728/1
v 6 7 0.0
v 5 7 0.0
v 5 8 0.0
v 6 8 0.0
vt 0.375 0.4375
vt 0.3125 0.4375
vt 0.3125 0.5
vt 0.375 0.5
f 729/729/2 730/730/2 731/731/2 732/732/2
v 6 7 1.0
v 7 7 1.0
v 7 8 1.0
v 6 8 1.0
vt 0.375 0.4375
vt 0.4375 0.4375
vt 0.4375 0.5
vt 0.375 0.5
f 733/733/1 734/734/1 735/735/1 736/736/1
v 7 7 0.0
v 6 7 0.0
v 6 8 0.0
v 7 8 0.0
vt 0.4375 0.4375
vt 0.375 0.4375
vt 0.375 0.5
vt 0.4375 0.5
f 737/737/2 738/738/2 739/739/2 740/740/2
v 7 7 1.0
v 8 7 1.0
v 8 8 1.0
v 7 8 1.0
vt 0.4375 0.4375
vt 0.5 0.4375
vt 0.5 0.5
vt 0.4375 0.5
f 741/741/1 742/742/1 743/743/1 744/744/1
v 8 7 0.0
v 7 7 0.0
v 7 8 0.0
v 8 8 0.0
vt 0.5 0.4375
vt 0.4375 0.4375
vt 0.4375 0.5
vt 0.5 0.5
f 745/745/2 746/746/2 747/747/2 748/748/2
v 8 7 1.0
v 9 7 1.0
v 9 8 1.0
v 8 8 1.0
vt 0.5 0.4375
vt 0.5625 0.4375
vt 0.5625 0.5
vt 0.5 0.5
f 749/749/1 750/750/1 751/751/1 752/752/1
v 9 7 0.0
v 8 7 0.0
v 8 8 0.0
v 9 8 0.0
vt 0.5625 0.4375
vt 0.5 0.4375
vt 0.5 0.5
vt 0.5625 0.5
f 753/753/2 754/754/2 755/755/2 756/756/2
v 9 7 1.0
v 10 7 1.0
v 10 8 1.0
v 9 8 1.0
vt 0.5625 0.4375
vt 0.625 0.4375
vt 0.625 0.5
vt 0.5625 0.5
f 757/757/1 758/758/1 759/759/1 760/760/1
v 10 7 0.0
v 9 7 0.0
v 9 8 0.0
v 10 8 0.0
vt 0.625 0.4375
vt 0.5625 0.4375
vt 0.5625 0.5
vt 0.625 0.5
f 761/761/2 762/762/2 763/763/2 764/764/2
v 9 7 0.0
v 10 7 0.0
v 10 7 1.0
v 9 7 1.0
vt 0.5625 0.4375
vt 0.625 0.4375
vt 0.625 0.5
vt 0.5625 0.5
f 765/765/4 766/766/4 767/767/4 768/768/4
v 10 7 1.0
v 10 7 0.0
v 10 8 0.0
v 10 8 1.0
vt 0.5625 0.4375
vt 0.625 0.4375
vt 0.625 0.5
vt 0.5625 0.5
f 769/769/5 770/770/5 771/771/5 772/772/5
v 4 6 1.0
v 5 6 1.0
v 5 7 1.0
v 4 7 1.0
vt 0.25 0.375
vt 0.3125 0.375
vt 0.3125 0.4375
vt 0.25 0.4375
f 773/773/1 774/774/1 775/775/1 776/776/1
v 5 6 0.0
v 4 6 0.0
v 4 7 0.0
v 5 7 0.0
vt 0.3125 0.375
vt 0.25 0.375
vt 0.25 0.4375
vt 0.3125 0.4375
f 777/777/2 778/778/2 779/779/2 780/780/2
v 4 6 0.0
v 4 6 1.0
v 4 7 1.0
v 4 7 0.0
vt 0.25 0.375
vt 0.3125 0.375
vt 0.3125 0.4375
vt 0.25 0.4375
f 781/781/6 782/782/6 783/783/6 784/784/6
v 5 6 1.0
v 6 6 1.0
v 6 7 1.0
v 5 7 1.0
vt 0.3125 0.375
vt 0.375 0.375
vt 0.375 0.4375
vt 0.3125 0.4375
f 785/785/1 786/786/1 787/787/1 788/788/1
v 6 6 0.0
v 5 6 0.0
v 5 7 0.0
v 6 7 0.0
vt 0.375 0.375
vt 0.3125 0.375
vt 0.3125 0.4375
vt 0.375 0.4375
f 789/789/2 790/790/2 791/791/2 792/792/2
v 6 6 1.0
v 7 6 1.0
v 7 7 1.0
v 6 7 1.0
vt 0.375 0.375
vt 0.4375 0.375
vt 0.4375 0.4375
vt 0.375 0.4375
f 793/793/1 794/794/1 795/795/1 796/796/1
v 7 6 0.0
v 6 6 0.0
v 6 7 0.0
v 7 7 0.0
vt 0.4375 0.375
vt 0.375 0.375
vt 0.375 0.4375
vt 0.4375 0.4375
f 797/797/2 798/798/2 799/799/2 800/800/2
v 7 6 1.0
v 8 6 1.0
v 8 7 1.0
v 7 7 1.0
vt 0.4375 0.375
vt 0.5 0.375
vt 0.5 0.4375
vt 0.4375 0.4375
f 801/801/1 802/802/1 803/803/1 804/804/1
v 8 6 0.0
v 7 6 0.0
v 7 7 0.0
v 8 7 0.0
vt 0.5 0.375
vt 0.4375 0.375
vt 0.4375 0.4375
vt 0.5 0.4375
f 805/805/2 806/806/2 807/807/2 808/808/2
v 8 6 1.0
v 9 6 1.0
v 9 7 1.0
v 8 7 1.0
vt 0.5 0.375
vt 0.5625 0.375
vt 0.5625 0.4375
vt 0.5 0.4375
f 809/809/1 810/810/1 811/811/1 812/812/1
v 9 6 0.0
v 8 6 0.0
v 8 7 0.0
v 9 7 0.0
vt 0.5625 0.375
vt 0.5 0.375
vt 0.5 0.4375
vt 0.5625 0.4375
f 813/813/2 814/814/2 815/815/2 816/816/2
v 8 6 0.0
v 9 6 0.0
v 9 6 1.0
v 8 6 1.0
vt 0.5 0.375
vt 0.5625 0.375
vt 0.5625 0.4375
vt 0.5 0.4375
f 817/817/4 818/818/4 819/819/4 820/820/4
v 9 6 1.0
v 9 6 0.0
v 9 7 0.0
v 9 7 1.0
vt 0.5 0.375
vt 0.5625 0.375
vt 0.5625 0.4375
vt 0.5 0.4375
f 821/821/5 822/822/5 823/823/5 824/824/5
v 3 5 1.0
v 4 5 1.0
v 4 6 1.0
v 3 6 1.0
vt 0.1875 0.3125
vt 0.25 0.3125
vt 0.25 0.375
vt 0.1875 0.375
f 825/825/1 826/826/1 827/827/1 828/828/1
v 4 5 0.0
v 3 5 0.0
v 3 6 0.0
v 4 6 0.0
vt 0.25 0.3125
vt 0.1875 0.3125
vt 0.1875 0.375
vt 0.25 0.375
f 829/829/2 830/830/2 831/831/2 832/832/2
v 3 6 1.0
v 4 6 1.0
v 4 6 0.0
v 3 6 0.0
vt 0.1875 0.3125
vt 0.25 0.3125
vt 0.25 0.375
vt 0.1875 0.375
f 833/833/3 834/834/3 835/835/3 836/836/3
v 3 5 0.0
v 3 5 1.0
v 3 6 1.0
v 3 6 0.0
vt 0.1875 0.3125
vt 0.25 0.3125
vt 0.25 0.375
vt 0.1875 0.375
f 837/837/6 838/838/6 839/839/6 840/840/6
v 4 5 1.0
v 5 5 1.0
v 5 6 1.0
v 4 6 1.0
vt 0.25 0.3125
vt 0.3125 0.3125
vt 0.3125 0.375
vt 0.25 0.375
f 841/841/1 842/842/1 843/843/1 844/844/1
v 5 5 0.0
v 4 5 0.0
v 4 6 0.0
v 5 6 0.0
vt 0.3125 0.3125
vt 0.25 0.3125
vt 0.25 0.375
vt 0.3125 0.375
f 845/845/2 846/846/2 847/847/2 848/848/2
v 5 5 1.0
v 6 5 1.0
v 6 6 1.0
v 5 6 1.0
vt 0.3125 0.3125
vt 0.375 0.3125
vt 0.375 0.375
vt 0.3125 0.375
f 849/849/1 850/850/1 851/851/1 852/852/1
v 6 5 0.0
v 5 5 0.0
v 5 6 0.0
v 6 6 0.0
vt 0.375 0.3125
vt 0.3125 0.3125
vt 0.3125 0.375
vt 0.375 0.375
f 853/853/2 854/854/2 855/855/2 856/856/2
v 6 5 1.0
v 7 5 1.0
v 7 6 1.0
v 6 6 1.0
vt 0.375 0.3125
vt 0.4375 0.3125
vt 0.4375 0.375
vt 0.375 0.375
f 857/857/1 858/858/1 859/859/1 860/860/1
v 7 5 0.0
v 6 5 0.0
v 6 6 0.0
v 7 6 0.0
vt 0.4375 0.3125
vt 0.375 0.3125
vt 0.375 0.375
vt 0.4375 0.375
f 861/861/2 862/862/2 863/863/2 864/864/2
v 7 5 1.0
v 8 5 1.0
v 8 6 1.0
v 7 6 1.0
vt 0.4375 0.3125
vt 0.5 0.3125
vt 0.5 0.375
vt 0.4375 0.375
f 865/865/1 866/866/1 867/867/1 868/868/1
v 8 5 0.0
v 7 5 0.0
v 7 6 0.0
v 8 6 0.0
vt 0.5 0.3125
vt 0.4375 0.3125
vt 0.4375 0.375
vt 0.5 0.375
f 869/869/2 870/870/2 871/871/2 872/872/2
v 8 5 1.0
v 8 5 0.0
v 8 6 0.0
v 8 6 1.0
vt 0.4375 0.3125
vt 0.5 0.3125
vt 0.5 0.375
vt 0.4375 0.375
f 873/873/5 874/874/5 875/875/5 876/876/5
v 3 4 1.0
v 4 4 1.0
v 4 5 1.0
v 3 5 1.0
vt 0.1875 0.25
vt 0.25 0.25
vt 0.25 0.3125
vt 0.1875 0.3125
f 877/877/1 878/878/1 879/879/1 880/880/1
v 4 4 0.0
v 3 4 0.0
v 3 5 0.0
v 4 5 0.0
vt 0.25 0.25
vt 0.1875 0.25
vt 0.1875 0.3125
vt 0.25 0.3125
f 881/881/2 882/882/2 883/883/2 884/884/2
v 3 4 0.0
v 3 4 1.0
v 3 5 1.0
v 3 5 0.0
vt 0.1875 0.25
vt 0.25 0.25
vt 0.25 0.3125
vt 0.1875 0.3125
f 885/885/6 886/886/6 887/887/6 888/888/6
v 4 4 1.0
v 5 4 1.0
v 5 5 1.0
v 4 5 1.0
vt 0.25 0.25
vt 0.3125 0.25
vt 0.3125 0.3125
vt 0.25 0.3125
f 889/889/1 890/890/1 891/891/1 892/892/1
v 5 4 0.0
v 4 4 0.0
v 4 5 0.0
v 5 5 0.0
vt 0.3125 0.25
vt 0.25 0.25
vt 0.25 0.3125
vt 0.3125 0.3125
f 893/893/2 894/894/2 895/895/2 896/896/2
v 5 4 1.0
v 6 4 1.0
v 6 5 1.0
v 5 5 1.0
vt 0.3125 0.25
vt 0.375 0.25
vt 0.375 0.3125
vt 0.3125 0.3125
f 897/897/1 898/898/1 899/899/1 900/900/1
v 6 4 0.0
v 5 4 0.0
v 5 5 0.0
v 6 5 0.0
vt 0.375 0.25
vt 0.3125 0.25
vt 0.3125 0.3125
vt 0.375 0.3125
f 901/901/2 902/902/2 903/903/2 904/904/2
v 6 4 1.0
v 7 4 1.0
v 7 5 1.0
v 6 5 1.0
vt 0.375 0.25
vt 0.4375 0.25
vt 0.4375 0.3125
vt 0.375 0.3125
f 905/905/1 906/906/1 907/907/1 908/908/1
v 7 4 0.0
v 6 4 0.0
v 6 5 0.0
v 7 5 0.0
vt 0.4375 0.25
vt 0.375 0.25
vt 0.375 0.3125
vt 0.4375 0.3125
f 909/909/2 910/910/2 911/911/2 912/912/2
v 7 4 1.0
v 8 4 1.0
v 8 5 1.0
v 7 5 1.0
vt 0.4375 0.25
vt 0.5 0.25
vt 0.5 0.3125
vt 0.4375 0.3125
f 913/913/1 914/914/1 915/915/1 916/916/1
v 8 4 0.0
v 7 4 0.0
v 7 5 0.0
v 8 5 0.0
vt 0.5 0.25
vt 0.4375 0.25
vt 0.4375 0.3125
vt 0.5 0.3125
f 917/917/2 918/918/2 919/919/2 920/920/2
v 7 4 0.0
v 8 4 0.0
v 8 4 1.0
v 7 4 1.0
vt 0.4375 0.25
vt 0.5 0.25
vt 0.5 0.3125
vt 0.4375 0.3125
f 921/921/4 922/922/4 923/923/4 924/924/4
v 8 4 1.0
v 8 4 0.0
v 8 5 0.0
v 8 5 1.0
vt 0.4375 0.25
vt 0.5 0.25
vt 0.5 0.3125
vt 0.4375 0.3125
f 925/925/5 926/926/5 927/927/5 928/928/5
v 2 3 1.0
v 3 3 1.0
v 3 4 1.0
v 2 4 1.0
vt 0.125 0.1875
vt 0.1875 0.1875
vt 0.1875 0.25
vt 0.125 0.25
f 929/929/1 930/930/1 931/931/1 932/932/1
v 3 3 0.0
v 2 3 0.0
v 2 4 0.0
v 3 4 0.0
vt 0.1875 0.1875
vt 0.125 0.1875
vt 0.125 0.25
vt 0.1875 0.25
f 933/933/2 934/934/2 935/935/2 936/936/2
v 2 4 1.0
v 3 4 1.0
v 3 4 0.0
v 2 4 0.0
vt 0.125 0.1875
vt 0.1875 0.1875
vt 0.1875 0.25
vt 0.125 0.25
f 937/937/3 938/938/3 939/939/3 940/940/3
v 2 3 0.0
v 2 3 1.0
v 2 4 1.0
v 2 4 0.0
vt 0.125 0.1875
vt 0.1875 0.1875
vt 0.1875 0.25
vt 0.125 0.25
f 941/941/6 942/942/6 943/943/6 944/944/6
v 3 3 1.0
v 4 3 1.0
v 4 4 1.0
v 3 4 1.0
vt 0.1875 0.1875
vt 0.25 0.1875
vt 0.25 0.25
vt 0.1875 0.25
f 945/945/1 946/946/1 947/947/1 948/948/1
v 4 3 0.0
v 3 3 0.0
v 3 4 0.0
v 4 4 0.0
vt 0.25 0.1875
vt 0.1875 0.1875
vt 0.1875 0.25
vt 0.25 0.25
f 949/949/2 950/950/2 951/951/2 952/952/2
v 4 3 1.0
v 5 3 1.0
v 5 4 1.0
v 4 4 1.0
vt 0.25 0.1875
vt 0.3125 0.1875
vt 0.3125 0.25
vt 0.25 0.25
f 953/953/1 954/954/1 955/955/1 956/956/1
v 5 3 0.0
v 4 3 0.0
v 4 4 0.0
v 5 4 0.0
vt 0.3125 0.1875
vt 0.25 0.1875
vt 0.25 0.25
vt 0.3125 0.25
f 957/957/2 958/958/2 959/959/2 960/960/2
v 5 3 1.0
v 6 3 1.0
v 6 4 1.0
v 5 4 1.0
vt 0.3125 0.1875
vt 0.375 0.1875
vt 0.375 0.25
vt 0.3125 0.25
f 961/961/1 962/962/1 963/963/1 964/964/1
v 6 3 0.0
v 5 3 0.0
v 5 4 0.0
v 6 4 0.0
vt 0.375 0.1875
vt 0.3125 0.1875
vt 0.3125 0.25
vt 0.375 0.25
f 965/965/2 966/966/2 967/967/2 968/968/2
v 6 3 1.0
v 7 3 1.0
v 7 4 1.0
v 6 4 1.0
vt 0.375 0.1875
vt 0.4375 0.1875
vt 0.4375 0.25
vt 0.375 0.25
f 969/969/1 970/970/1 971/971/1 972/972/1
v 7 3 0.0
v 6 3 0.0
v 6 4 0.0
v 7 4 0.0
vt 0.4375 0.1875
vt 0.375 0.1875
vt 0.375 0.25
vt 0.4375 0.25
f 973/973/2 974/974/2 975/975/2 976/976/2
v 6 3 0.0
v 7 3 0.0
v 7 3 1.0
v 6 3 1.0
vt 0.375 0.1875
vt 0.4375 0.1875
vt 0.4375 0.25
vt 0.375 0.25
f 977/977/4 978/978/4 979/979/4 980/980/4
v 7 3 1.0
v 7 3 0.0
v 7 4 0.0
v 7 4 1.0
vt 0.375 0.1875
vt 0.4375 0.1875
vt 0.4375 0.25
vt 0.375 0.25
f 981/981/5 982/982/5 983/983/5 984/984/5
v 2 2 1.0
v 3 2 1.0
v 3 3 1.0
v 2 3 1.0
vt 0.125 0.125
vt 0.1875 0.125
vt 0.1875 0.1875
vt 0.125 0.1875
f 985/985/1 986/986/1 987/987/1 988/988/1
v 3 2 0.0
v 2 2 0.0
v 2 3 0.0
v 3 3 0.0
vt 0.1875 0.125
vt 0.125 0.125
vt 0.125 0.1875
vt 0.1875 0.1875
f 989/989/2 990/990/2 991/991/2 992/992/2
v 2 2 0.0
v 2 2 1.0
v 2 3 1.0
v 2 3 0.0
vt 0.125 0.125
vt 0.1875 0.125
vt 0.1875 0.1875
vt 0.125 0.1875
f 993/993/6 994/994/6 995/995/6 996/996/6
v 3 2 1.0
v 4 2 1.0
v 4 3 1.0
v 3 3 1.0
vt 0.1875 0.125
vt 0.25 0.125
vt 0.25 0.1875
vt 0.1875 0.1875
f 997/997/1 998/998/1 999/999/1 1000/1000/1
v 4 2 0.0
v 3 2 0.0
v 3 3 0.0
v 4 3 0.0
vt 0.25 0.125
vt 0.1875 0.125
vt 0.1875 0.1875
vt 0.25 0.1875
f 1001/1001/2 1002/1002/2 1003/1003/2 1004/1004/2
v 4 2 1.0
v 5 2 1.0
v 5 3 1.0
v 4 3 1.0
vt 0.25 0.125
vt 0.3125 0.125
vt 0.3125 0.1875
vt 0.25 0.1875
f 1005/1005/1 1006/1006/1 1007/1007/1 1008/1008/1
v 5 2 0.0
v 4 2 0.0
v 4 3 0.0
v 5 3 0.0
vt 0.3125 0.125
vt 0.25 0.125
vt 0.25 0.1875
vt 0.3125 0.1875
f 1009/1009/2 1010/1010/2 1011/1011/2 1012/1012/2
v 4 2 0.0
v 5 2 0.0
v 5 2 1.0
v 4 2 1.0
vt 0.25 0.125
vt 0.3125 0.125
vt 0.3125 0.1875
vt 0.25 0.1875
f 1013/1013/4 1014/1014/4 1015/1015/4 1016/1016/4
v 5 2 1.0
v 6 2 1.0
v 6 3 1.0
v 5 3 1.0
vt 0.3125 0.125
vt 0.375 0.125
vt 0.375 0.1875
vt 0.3125 0.1875
f 1017/1017/1 1018/1018/1 1019/1019/1 1020/1020/1
v 6 2 0.0
v 5 2 0.0
v 5 3 0.0
v 6 3 0.0
vt 0.375 0.125
vt 0.3125 0.125
vt 0.3125 0.1875
vt 0.375 0.1875
f 1021/1021/2 1022/1022/2 1023/1023/2 1024/1024/2
v 5 2 0.0
v 6 2 0.0
v 6 2 1.0
v 5 2 1.0
vt 0.3125 0.125
vt 0.375 0.125
vt 0.375 0.1875
vt 0.3125 0.1875
f 1025/1025/4 1026/1026/4 1027/1027/4 1028/1028/4
v 6 2 1.0
v 6 2 0.0
v 6 3 0.0
v 6 3 1.0
vt 0.3125 0.125
vt 0.375 0.125
vt 0.375 0.1875
vt 0.3125 0.1875
f 1029/1029/5 1030/1030/5 1031/1031/5 1032/1032/5
v 2 1 1.0
v 3 1 1.0
v 3 2 1.0
v 2 2 1.0
vt 0.125 0.0625
vt 0.1875 0.0625
vt 0.1875 0.125
vt 0.125 0.125
f 1033/1033/1 1034/1034/1 1035/1035/1 1036/1036/1
v 3 1 0.0
v 2 1 0.0
v 2 2 0.0
v 3 2 0.0
vt 0.1875 0.0625
vt 0.125 0.0625
vt 0.125 0.125
vt 0.1875 0.125
f 1037/1037/2 1038/1038/2 1039/1039/2 1040/1040/2
v 2 1 0.0
v 3 1 0.0
v 3 1 1.0
v 2 1 1.0
vt 0.125 0.0625
vt 0.1875 0.0625
vt 0.1875 0.125
vt 0.125 0.125
f 1041/1041/4 1042/1042/4 1043/1043/4 1044/1044/4
v 2 1 0.0
v 2 1 1.0
v 2 2 1.0
v 2 2 0.0
vt 0.125 0.0625
vt 0.1875 0.0625
vt 0.1875 0.125
vt 0.125 0.125
f 1045/1045/6 1046/1046/6 1047/1047/6 1048/1048/6
v 3 1 1.0
v 4 1 1.0
v 4 2 1.0
v 3 2 1.0
vt 0.1875 0.0625
vt 0.25 0.0625
vt 0.25 0.125
vt 0.1875 0.125
f 1049/1049/1 1050/1050/1 1051/1051/1 1052/1052/1
v 4 1 0.0
v 3 1 0.0
v 3 2 0.0
v 4 2 0.0
vt 0.25 0.0625
vt 0.1875 0.0625
vt 0.1875 0.125
vt 0.25 0.125
f 1053/1053/2 1054/1054/2 1055/1055/2 1056/1056/2
v 3 1 0.0
v 4 1 0.0
v 4 1 1.0
v 3 1 1.0
vt 0.1875 0.0625
vt 0.25 0.0625
vt 0.25 0.125
vt 0.1875 0.125
f 1057/1057/4 1058/1058/4 1059/1059/4 1060/1060/4
v 4 1 1.0
v 4 1 0.0
v 4 2 0.0
v 4 2 1.0
vt 0.1875 0.0625
vt 0.25 0.0625
vt 0.25 0.125
vt 0.1875 0.125
f 1061/1061/5 1062/1062/5 1063/1063/5 1064/1064/5
o mesh_mask_4
usemtl mat_胡萝卜
v 10 7 1.0
v 11 7 1.0
v 11 8 1.0
v 10 8 1.0
vt 0.625 0.4375
vt 0.6875 0.4375
vt 0.6875 0.5
vt 0.625 0.5
f 1065/1065/1 1066/1066/1 1067/1067/1 1068/1068/1
v 11 7 0.0
v 10 7 0.0
v 10 8 0.0
v 11 8 0.0
vt 0.6875 0.4375
vt 0.625 0.4375
vt 0.625 0.5
vt 0.6875 0.5
f 1069/1069/2 1070/1070/2 1071/1071/2 1072/1072/2
v 10 8 1.0
v 11 8 1.0
v 11 8 0.0
v 10 8 0.0
vt 0.625 0.4375
vt 0.6875 0.4375
vt 0.6875 0.5
vt 0.625 0.5
f 1073/1073/3 1074/1074/3 1075/1075/3 1076/1076/3
v 11 7 1.0
v 11 7 0.0
v 11 8 0.0
v 11 8 1.0
vt 0.625 0.4375
vt 0.6875 0.4375
vt 0.6875 0.5
vt 0.625 0.5
f 1077/1077/5 1078/1078/5 1079/1079/5 1080/1080/5
v 10 7 0.0
v 10 7 1.0
v 10 8 1.0
v 10 8 0.0
vt 0.625 0.4375
vt 0.6875 0.4375
vt 0.6875 0.5
vt 0.625 0.5
f 1081/1081/6 1082/1082/6 1083/1083/6 1084/1084/6
v 9 6 1.0
v 10 6 1.0
v 10 7 1.0
v 9 7 1.0
vt 0.5625 0.375
vt 0.625 0.375
vt 0.625 0.4375
vt 0.5625 0.4375
f 1085/1085/1 1086/1086/1 1087/1087/1 1088/1088/1
v 10 6 0.0
v 9 6 0.0
v 9 7 0.0
v 10 7 0.0
vt 0.625 0.375
vt 0.5625 0.375
vt 0.5625 0.4375
vt 0.625 0.4375
f 1089/1089/2 1090/1090/2 1091/1091/2 1092/1092/2
v 9 7 1.0
v 10 7 1.0
v 10 7 0.0
v 9 7 0.0
vt 0.5625 0.375
vt 0.625 0.375
vt 0.625 0.4375
vt 0.5625 0.4375
f 1093/1093/3 1094/1094/3 1095/1095/3 1096/1096/3
v 9 6 0.0
v 9 6 1.0
v 9 7 1.0
v 9 7 0.0
vt 0.5625 0.375
vt 0.625 0.375
vt 0.625 0.4375
vt 0.5625 0.4375
f 1097/1097/6 1098/1098/6 1099/1099/6 1100/1100/6
v 10 6 1.0
v 11 6 1.0
v 11 7 1.0
v 10 7 1.0
vt 0.625 0.375
vt 0.6875 0.375
vt 0.6875 0.4375
vt 0.625 0.4375
f 1101/1101/1 1102/1102/1 1103/1103/1 1104/1104/1
v 11 6 0.0
v 10 6 0.0
v 10 7 0.0
v 11 7 0.0
vt 0.6875 0.375
vt 0.625 0.375
vt 0.625 0.4375
vt 0.6875 0.4375
f 1105/1105/2 1106/1106/2 1107/1107/2 1108/1108/2
v 10 6 0.0
v 11 6 0.0
v 11 6 1.0
v 10 6 1.0
vt 0.625 0.375
vt 0.6875 0.375
vt 0.6875 0.4375
vt 0.625 0.4375
f 1109/1109/4 1110/1110/4 1111/1111/4 1112/1112/4
v 11 6 1.0
v 12 6 1.0
v 12 7 1.0
v 11 7 1.0
vt 0.6875 0.375
vt 0.75 0.375
vt 0.75 0.4375
vt 0.6875 0.4375
f 1113/1113/1 1114/1114/1 1115/1115/1 1116/1116/1
v 12 6 0.0
v 11 6 0.0
v 11 7 0.0
v 12 7 0.0
vt 0.75 0.375
vt 0.6875 0.375
vt 0.6875 0.4375
vt 0.75 0.4375
f 1117/1117/2 1118/1118/2 1119/1119/2 1120/1120/2
v 11 7 1.0
v 12 7 1.0
v 12 7 0.0
v 11 7 0.0
vt 0.6875 0.375
vt 0.75 0.375
vt 0.75 0.4375
vt 0.6875 0.4375
f 1121/1121/3 1122/1122/3 1123/1123/3 1124/1124/3
v 11 6 0.0
v 12 6 0.0
v 12 6 1.0
v 11 6 1.0
vt 0.6875 0.375
vt 0.75 0.375
vt 0.75 0.4375
vt 0.6875 0.4375
f 1125/1125/4 1126/1126/4 1127/1127/4 1128/1128/4
v 12 6 1.0
v 12 6 0.0
v 12 7 0.0
v 12 7 1.0
vt 0.6875 0.375
vt 0.75 0.375
vt 0.75 0.4375
vt 0.6875 0.4375
f 1129/1129/5 1130/1130/5 1131/1131/5 1132/1132/5
v 13 6 1.0
v 14 6 1.0
v 14 7 1.0
v 13 7 1.0
vt 0.8125 0.375
vt 0.875 0.375
vt 0.875 0.4375
vt 0.8125 0.4375
f 1133/1133/1 1134/1134/1 1135/1135/1 1136/1136/1
v 14 6 0.0
v 13 6 0.0
v 13 7 0.0
v 14 7 0.0
vt 0.875 0.375
vt 0.8125 0.375
vt 0.8125 0.4375
vt 0.875 0.4375
f 1137/1137/2 1138/1138/2 1139/1139/2 1140/1140/2
v 13 7 1.0
v 14 7 1.0
v 14 7 0.0
v 13 7 0.0
vt 0.8125 0.375
vt 0.875 0.375
vt 0.875 0.4375
vt 0.8125 0.4375
f 1141/1141/3 1142/1142/3 1143/1143/3 1144/1144/3
v 13 6 0.0
v 14 6 0.0
v 14 6 1.0
v 13 6 1.0
vt 0.8125 0.375
vt 0.875 0.375
vt 0.875 0.4375
vt 0.8125 0.4375
f 1145/1145/4 1146/1146/4 1147/1147/4 1148/1148/4
v 14 6 1.0
v 14 6 0.0
v 14 7 0.0
v 14 7 1.0
vt 0.8125 0.375
vt 0.875 0.375
vt 0.875 0.4375
vt 0.8125 0.4375
f 1149/1149/5 1150/1150/5 1151/1151/5 1152/1152/5
v 13 6 0.0
v 13 6 1.0
v 13 7 1.0
v 13 7 0.0
vt 0.8125 0.375
vt 0.875 0.375
vt 0.875 0.4375
vt 0.8125 0.4375
f 1153/1153/6 1154/1154/6 1155/1155/6 1156/1156/6
v 8 5 1.0
v 9 5 1.0
v 9 6 1.0
v 8 6 1.0
vt 0.5 0.3125
vt 0.5625 0.3125
vt 0.5625 0.375
vt 0.5 0.375
f 1157/1157/1 1158/1158/1 1159/1159/1 1160/1160/1
v 9 5 0.0
v 8 5 0.0
v 8 6 0.0
v 9 6 0.0
vt 0.5625 0.3125
vt 0.5 0.3125
vt 0.5 0.375
vt 0.5625 0.375
f 1161/1161/2 1162/1162/2 1163/1163/2 1164/1164/2
v 8 6 1.0
v 9 6 1.0
v 9 6 0.0
v 8 6 0.0
vt 0.5 0.3125
vt 0.5625 0.3125
vt 0.5625 0.375
vt 0.5 0.375
f 1165/1165/3 1166/1166/3 1167/1167/3 1168/1168/3
v 8 5 0.0
v 8 5 1.0
v 8 6 1.0
v 8 6 0.0
vt 0.5 0.3125
vt 0.5625 0.3125
vt 0.5625 0.375
vt 0.5 0.375
f 1169/1169/6 1170/1170/6 1171/1171/6 1172/1172/6
v 9 5 1.0
v 10 5 1.0
v 10 6 1.0
v 9 6 1.0
vt 0.5625 0.3125
vt 0.625 0.3125
vt 0.625 0.375
vt 0.5625 0.375
f 1173/1173/1 1174/1174/1 1175/1175/1 1176/1176/1
v 10 5 0.0
v 9 5 0.0
v 9 6 0.0
v 10 6 0.0
vt 0.625 0.3125
vt 0.5625 0.3125
vt 0.5625 0.375
vt 0.625 0.375
f 1177/1177/2 1178/1178/2 1179/1179/2 1180/1180/2
v 9 5 0.0
v 10 5 0.0
v 10 5 1.0
v 9 5 1.0
vt 0.5625 0.3125
vt 0.625 0.3125
vt 0.625 0.375
vt 0.5625 0.375
f 1181/1181/4 1182/1182/4 1183/1183/4 1184/1184/4
v 10 5 1.0
v 10 5 0.0
v 10 6 0.0
v 10 6 1.0
vt 0.5625 0.3125
vt 0.625 0.3125
vt 0.625 0.375
vt 0.5625 0.375
f 1185/1185/5 1186/1186/5 1187/1187/5 1188/1188/5
v 8 4 1.0
v 9 4 1.0
v 9 5 1.0
v 8 5 1.0
vt 0.5 0.25
vt 0.5625 0.25
vt 0.5625 0.3125
vt 0.5 0.3125
f 1189/1189/1 1190/1190/1 1191/1191/1 1192/1192/1
v 9 4 0.0
v 8 4 0.0
v 8 5 0.0
v 9 5 0.0
vt 0.5625 0.25
vt 0.5 0.25
vt 0.5 0.3125
vt 0.5625 0.3125
f 1193/1193/2 1194/1194/2 1195/1195/2 1196/1196/2
v 8 4 0.0
v 9 4 0.0
v 9 4 1.0
v 8 4 1.0
vt 0.5 0.25
vt 0.5625 0.25
vt 0.5625 0.3125
vt 0.5 0.3125
f 1197/1197/4 1198/1198/4 1199/1199/4 1200/1200/4
v 9 4 1.0
v 9 4 0.0
v 9 5 0.0
v 9 5 1.0
vt 0.5 0.25
vt 0.5625 0.25
vt 0.5625 0.3125
vt 0.5 0.3125
f 1201/1201/5 1202/1202/5 1203/1203/5 1204/1204/5
v 8 4 0.0
v 8 4 1.0
v 8 5 1.0
v 8 5 0.0
vt 0.5 0.25
vt 0.5625 0.25
vt 0.5625 0.3125
vt 0.5 0.3125
f 1205/1205/6 1206/1206/6 1207/1207/6 1208/1208/6
