mtllib 蛋糕.mtl
vn 0 0 1
vn 0 0 -1
vn 0 1 0
vn 0 -1 0
vn 1 0 0
vn -1 0 0
o mesh_mask_1
usemtl mat_蛋糕
v 4 14 1.0
v 5 14 1.0
v 5 15 1.0
v 4 15 1.0
vt 0.25 0.875
vt 0.3125 0.875
vt 0.3125 0.9375
vt 0.25 0.9375
f 1/1/1 2/2/1 3/3/1 4/4/1
v 5 14 0.0
v 4 14 0.0
v 4 15 0.0
v 5 15 0.0
vt 0.3125 0.875
vt 0.25 0.875
vt 0.25 0.9375
vt 0.3125 0.9375
f 5/5/2 6/6/2 7/7/2 8/8/2
v 4 15 1.0
v 5 15 1.0
v 5 15 0.0
v 4 15 0.0
vt 0.25 0.875
vt 0.3125 0.875
vt 0.3125 0.9375
vt 0.25 0.9375
f 9/9/3 10/10/3 11/11/3 12/12/3
v 4 14 0.0
v 4 14 1.0
v 4 15 1.0
v 4 15 0.0
vt 0.25 0.875
vt 0.3125 0.875
vt 0.3125 0.9375
vt 0.25 0.9375
f 13/13/6 14/14/6 15/15/6 16/16/6
v 5 14 1.0
v 6 14 1.0
v 6 15 1.0
v 5 15 1.0
vt 0.3125 0.875
vt 0.375 0.875
vt 0.375 0.9375
vt 0.3125 0.9375
f 17/17/1 18/18/1 19/19/1 20/20/1
v 6 14 0.0
v 5 14 0.0
v 5 15 0.0
v 6 15 0.0
vt 0.375 0.875
vt 0.3125 0.875
vt 0.3125 0.9375
vt 0.375 0.9375
f 21/21/2 22/22/2 23/23/2 24/24/2
v 5 15 1.0
v 6 15 1.0
v 6 15 0.0
v 5 15 0.0
vt 0.3125 0.875
vt 0.375 0.875
vt 0.375 0.9375
vt 0.3125 0.9375
f 25/25/3 26/26/3 27/27/3 28/28/3
v 6 14 1.0
v 7 14 1.0
v 7 15 1.0
v 6 15 1.0
vt 0.375 0.875
vt 0.4375 0.875
vt 0.4375 0.9375
vt 0.375 0.9375
f 29/29/1 30/30/1 31/31/1 32/32/1
v 7 14 0.0
v 6 14 0.0
v 6 15 0.0
v 7 15 0.0
vt 0.4375 0.875
vt 0.375 0.875
vt 0.375 0.9375
vt 0.4375 0.9375
f 33/33/2 34/34/2 35/35/2 36/36/2
v 6 15 1.0
v 7 15 1.0
v 7 15 0.0
v 6 15 0.0
vt 0.375 0.875
vt 0.4375 0.875
vt 0.4375 0.9375
vt 0.375 0.9375
f 37/37/3 38/38/3 39/39/3 40/40/3
v 7 14 1.0
v 8 14 1.0
v 8 15 1.0
v 7 15 1.0
vt 0.4375 0.875
vt 0.5 0.875
vt 0.5 0.9375
vt 0.4375 0.9375
f 41/41/1 42/42/1 43/43/1 44/44/1
v 8 14 0.0
v 7 14 0.0
v 7 15 0.0
v 8 15 0.0
vt 0.5 0.875
vt 0.4375 0.875
vt 0.4375 0.9375
vt 0.5 0.9375
f 45/45/2 46/46/2 47/47/2 48/48/2
v 7 15 1.0
v 8 15 1.0
v 8 15 0.0
v 7 15 0.0
vt 0.4375 0.875
vt 0.5 0.875
vt 0.5 0.9375
vt 0.4375 0.9375
f 49/49/3 50/50/3 51/51/3 52/52/3
v 8 14 1.0
v 9 14 1.0
v 9 15 1.0
v 8 15 1.0
vt 0.5 0.875
vt 0.5625 0.875
vt 0.5625 0.9375
vt 0.5 0.9375
f 53/53/1 54/54/1 55/55/1 56/56/1
v 9 14 0.0
v 8 14 0.0
v 8 15 0.0
v 9 15 0.0
vt 0.5625 0.875
vt 0.5 0.875
vt 0.5 0.9375
vt 0.5625 0.9375
f 57/57/2 58/58/2 59/59/2 60/60/2
v 8 15 1.0
v 9 15 1.0
v 9 15 0.0
v 8 15 0.0
vt 0.5 0.875
vt 0.5625 0.875
vt 0.5625 0.9375
vt 0.5 0.9375
f 61/61/3 62/62/3 63/63/3 64/64/3
v 8 14 0.0
v 9 14 0.0
v 9 14 1.0
v 8 14 1.0
vt 0.5 0.875
vt 0.5625 0.875
vt 0.5625 0.9375
vt 0.5 0.9375
f 65/65/4 66/66/4 67/67/4 68/68/4
v 9 14 1.0
v 9 14 0.0
v 9 15 0.0
v 9 15 1.0
vt 0.5 0.875
vt 0.5625 0.875
vt 0.5625 0.9375
vt 0.5 0.9375
f 69/69/5 70/70/5 71/71/5 72/72/5
v 2 13 1.0
v 3 13 1.0
v 3 14 1.0
v 2 14 1.0
vt 0.125 0.8125
vt 0.1875 0.8125
vt 0.1875 0.875
vt 0.125 0.875
f 73/73/1 74/74/1 75/75/1 76/76/1
v 3 13 0.0
v 2 13 0.0
v 2 14 0.0
v 3 14 0.0
vt 0.1875 0.8125
vt 0.125 0.8125
vt 0.125 0.875
vt 0.1875 0.875
f 77/77/2 78/78/2 79/79/2 80/80/2
v 2 14 1.0
v 3 14 1.0
v 3 14 0.0
v 2 14 0.0
vt 0.125 0.8125
vt 0.1875 0.8125
vt 0.1875 0.875
vt 0.125 0.875
f 81/81/3 82/82/3 83/83/3 84/84/3
v 2 13 0.0
v 2 13 1.0
v 2 14 1.0
v 2 14 0.0
vt 0.125 0.8125
vt 0.1875 0.8125
vt 0.1875 0.875
vt 0.125 0.875
f 85/85/6 86/86/6 87/87/6 88/88/6
v 3 13 1.0
v 4 13 1.0
v 4 14 1.0
v 3 14 1.0
vt 0.1875 0.8125
vt 0.25 0.8125
vt 0.25 0.875
vt 0.1875 0.875
f 89/89/1 90/90/1 91/91/1 92/92/1
v 4 13 0.0
v 3 13 0.0
v 3 14 0.0
v 4 14 0.0
vt 0.25 0.8125
vt 0.1875 0.8125
vt 0.1875 0.875
vt 0.25 0.875
f 93/93/2 94/94/2 95/95/2 96/96/2
v 3 14 1.0
v 4 14 1.0
v 4 14 0.0
v 3 14 0.0
vt 0.1875 0.8125
vt 0.25 0.8125
vt 0.25 0.875
vt 0.1875 0.875
f 97/97/3 98/98/3 99/99/3 100/100/3
v 4 13 1.0
v 5 13 1.0
v 5 14 1.0
v 4 14 1.0
vt 0.25 0.8125
vt 0.3125 0.8125
vt 0.3125 0.875
vt 0.25 0.875
f 101/101/1 102/102/1 103/103/1 104/104/1
v 5 13 0.0
v 4 13 0.0
v 4 14 0.0
v 5 14 0.0
vt 0.3125 0.8125
vt 0.25 0.8125
vt 0.25 0.875
vt 0.3125 0.875
f 105/105/2 106/106/2 107/107/2 108/108/2
v 5 13 1.0
v 6 13 1.0
v 6 14 1.0
v 5 14 1.0
vt 0.3125 0.8125
vt 0.375 0.8125
vt 0.375 0.875
vt 0.3125 0.875
f 109/109/1 110/110/1 111/111/1 112/112/1
v 6 13 0.0
v 5 13 0.0
v 5 14 0.0
v 6 14 0.0
vt 0.375 0.8125
vt 0.3125 0.8125
vt 0.3125 0.875
vt 0.375 0.875
f 113/113/2 114/114/2 115/115/2 116/116/2
v 6 13 1.0
v 7 13 1.0
v 7 14 1.0
v 6 14 1.0
vt 0.375 0.8125
vt 0.4375 0.8125
vt 0.4375 0.875
vt 0.375 0.875
f 117/117/1 118/118/1 119/119/1 120/120/1
v 7 13 0.0
v 6 13 0.0
v 6 14 0.0
v 7 14 0.0
vt 0.4375 0.8125
vt 0.375 0.8125
vt 0.375 0.875
vt 0.4375 0.875
f 121/121/2 122/122/2 123/123/2 124/124/2
v 7 13 1.0
v 8 13 1.0
v 8 14 1.0
v 7 14 1.0
vt 0.4375 0.8125
vt 0.5 0.8125
vt 0.5 0.875
vt 0.4375 0.875
f 125/125/1 126/126/1 127/127/1 128/128/1
v 8 13 0.0
v 7 13 0.0
v 7 14 0.0
v 8 14 0.0
vt 0.5 0.8125
vt 0.4375 0.8125
vt 0.4375 0.875
vt 0.5 0.875
f 129/129/2 130/130/2 131/131/2 132/132/2
v 8 13 1.0
v 8 13 0.0
v 8 14 0.0
v 8 14 1.0
vt 0.4375 0.8125
vt 0.5 0.8125
vt 0.5 0.875
vt 0.4375 0.875
f 133/133/5 134/134/5 135/135/5 136/136/5
v 1 12 1.0
v 2 12 1.0
v 2 13 1.0
v 1 13 1.0
vt 0.0625 0.75
vt 0.125 0.75
vt 0.125 0.8125
vt 0.0625 0.8125
f 137/137/1 138/138/1 139/139/1 140/140/1
v 2 12 0.0
v 1 12 0.0
v 1 13 0.0
v 2 13 0.0
vt 0.125 0.75
vt 0.0625 0.75
vt 0.0625 0.8125
vt 0.125 0.8125
f 141/141/2 142/142/2 143/143/2 144/144/2
v 1 13 1.0
v 2 13 1.0
v 2 13 0.0
v 1 13 0.0
vt 0.0625 0.75
vt 0.125 0.75
vt 0.125 0.8125
vt 0.0625 0.8125
f 145/145/3 146/146/3 147/147/3 148/148/3
v 1 12 0.0
v 1 12 1.0
v 1 13 1.0
v 1 13 0.0
vt 0.0625 0.75
vt 0.125 0.75
vt 0.125 0.8125
vt 0.0625 0.8125
f 149/149/6 150/150/6 151/151/6 152/152/6
v 2 12 1.0
v 3 12 1.0
v 3 13 1.0
v 2 13 1.0
vt 0.125 0.75
vt 0.1875 0.75
vt 0.1875 0.8125
vt 0.125 0.8125
f 153/153/1 154/154/1 155/155/1 156/156/1
v 3 12 0.0
v 2 12 0.0
v 2 13 0.0
v 3 13 0.0
vt 0.1875 0.75
vt 0.125 0.75
vt 0.125 0.8125
vt 0.1875 0.8125
f 157/157/2 158/158/2 159/159/2 160/160/2
v 3 12 1.0
v 4 12 1.0
v 4 13 1.0
v 3 13 1.0
vt 0.1875 0.75
vt 0.25 0.75
vt 0.25 0.8125
vt 0.1875 0.8125
f 161/161/1 162/162/1 163/163/1 164/164/1
v 4 12 0.0
v 3 12 0.0
v 3 13 0.0
v 4 13 0.0
vt 0.25 0.75
vt 0.1875 0.75
vt 0.1875 0.8125
vt 0.25 0.8125
f 165/165/2 166/166/2 167/167/2 168/168/2
v 4 12 1.0
v 5 12 1.0
v 5 13 1.0
v 4 13 1.0
vt 0.25 0.75
vt 0.3125 0.75
vt 0.3125 0.8125
vt 0.25 0.8125
f 169/169/1 170/170/1 171/171/1 172/172/1
v 5 12 0.0
v 4 12 0.0
v 4 13 0.0
v 5 13 0.0
vt 0.3125 0.75
vt 0.25 0.75
vt 0.25 0.8125
vt 0.3125 0.8125
f 173/173/2 174/174/2 175/175/2 176/176/2
v 5 12 1.0
v 6 12 1.0
v 6 13 1.0
v 5 13 1.0
vt 0.3125 0.75
vt 0.375 0.75
vt 0.375 0.8125
vt 0.3125 0.8125
f 177/177/1 178/178/1 179/179/1 180/180/1
v 6 12 0.0
v 5 12 0.0
v 5 13 0.0
v 6 13 0.0
vt 0.375 0.75
vt 0.3125 0.75
vt 0.3125 0.8125
vt 0.375 0.8125
f 181/181/2 182/182/2 183/183/2 184/184/2
v 6 12 1.0
v 7 12 1.0
v 7 13 1.0
v 6 13 1.0
vt 0.375 0.75
vt 0.4375 0.75
vt 0.4375 0.8125
vt 0.375 0.8125
f 185/185/1 186/186/1 187/187/1 188/188/1
v 7 12 0.0
v 6 12 0.0
v 6 13 0.0
v 7 13 0.0
vt 0.4375 0.75
vt 0.375 0.75
vt 0.375 0.8125
vt 0.4375 0.8125
f 189/189/2 190/190/2 191/191/2 192/192/2
v 7 12 1.0
v 8 12 1.0
v 8 13 1.0
v 7 13 1.0
vt 0.4375 0.75
vt 0.5 0.75
vt 0.5 0.8125
vt 0.4375 0.8125
f 193/193/1 194/194/1 195/195/1 196/196/1
v 8 12 0.0
v 7 12 0.0
v 7 13 0.0
v 8 13 0.0
vt 0.5 0.75
vt 0.4375 0.75
vt 0.4375 0.8125
vt 0.5 0.8125
f 197/197/2 198/198/2 199/199/2 200/200/2
v 8 12 1.0
v 8 12 0.0
v 8 13 0.0
v 8 13 1.0
vt 0.4375 0.75
vt 0.5 0.75
vt 0.5 0.8125
vt 0.4375 0.8125
f 201/201/5 202/202/5 203/203/5 204/204/5
v 0 11 1.0
v 1 11 1.0
v 1 12 1.0
v 0 12 1.0
vt 0.0 0.6875
vt 0.0625 0.6875
vt 0.0625 0.75
vt 0.0 0.75
f 205/205/1 206/206/1 207/207/1 208/208/1
v 1 11 0.0
v 0 11 0.0
v 0 12 0.0
v 1 12 0.0
vt 0.0625 0.6875
vt 0.0 0.6875
vt 0.0 0.75
vt 0.0625 0.75
f 209/209/2 210/210/2 211/211/2 212/212/2
v 0 12 1.0
v 1 12 1.0
v 1 12 0.0
v 0 12 0.0
vt 0.0 0.6875
vt 0.0625 0.6875
vt 0.0625 0.75
vt 0.0 0.75
f 213/213/3 214/214/3 215/215/3 216/216/3
v 0 11 0.0
v 0 11 1.0
v 0 12 1.0
v 0 12 0.0
vt 0.0 0.6875
vt 0.0625 0.6875
vt 0.0625 0.75
vt 0.0 0.75
f 217/217/6 218/218/6 219/219/6 220/220/6
v 1 11 1.0
v 2 11 1.0
v 2 12 1.0
v 1 12 1.0
vt 0.0625 0.6875
vt 0.125 0.6875
vt 0.125 0.75
vt 0.0625 0.75
f 221/221/1 222/222/1 223/223/1 224/224/1
v 2 11 0.0
v 1 11 0.0
v 1 12 0.0
v 2 12 0.0
vt 0.125 0.6875
vt 0.0625 0.6875
vt 0.0625 0.75
vt 0.125 0.75
f 225/225/2 226/226/2 227/227/2 228/228/2
v 2 11 1.0
v 3 11 1.0
v 3 12 1.0
v 2 12 1.0
vt 0.125 0.6875
vt 0.1875 0.6875
vt 0.1875 0.75
vt 0.125 0.75
f 229/229/1 230/230/1 231/231/1 232/232/1
v 3 11 0.0
v 2 11 0.0
v 2 12 0.0
v 3 12 0.0
vt 0.1875 0.6875
vt 0.125 0.6875
vt 0.125 0.75
vt 0.1875 0.75
f 233/233/2 234/234/2 235/235/2 236/236/2
v 3 11 1.0
v 4 11 1.0
v 4 12 1.0
v 3 12 1.0
vt 0.1875 0.6875
vt 0.25 0.6875
vt 0.25 0.75
vt 0.1875 0.75
f 237/237/1 238/238/1 239/239/1 240/240/1
v 4 11 0.0
v 3 11 0.0
v 3 12 0.0
v 4 12 0.0
vt 0.25 0.6875
vt 0.1875 0.6875
vt 0.1875 0.75
vt 0.25 0.75
f 241/241/2 242/242/2 243/243/2 244/244/2
v 4 11 1.0
v 5 11 1.0
v 5 12 1.0
v 4 12 1.0
vt 0.25 0.6875
vt 0.3125 0.6875
vt 0.3125 0.75
vt 0.25 0.75
f 245/245/1 246/246/1 247/247/1 248/248/1
v 5 11 0.0
v 4 11 0.0
v 4 12 0.0
v 5 12 0.0
vt 0.3125 0.6875
vt 0.25 0.6875
vt 0.25 0.75
vt 0.3125 0.75
f 249/249/2 250/250/2 251/251/2 252/252/2
v 5 11 1.0
v 6 11 1.0
v 6 12 1.0
v 5 12 1.0
vt 0.3125 0.6875
vt 0.375 0.6875
vt 0.375 0.75
vt 0.3125 0.75
f 253/253/1 254/254/1 255/255/1 256/256/1
v 6 11 0.0
v 5 11 0.0
v 5 12 0.0
v 6 12 0.0
vt 0.375 0.6875
vt 0.3125 0.6875
vt 0.3125 0.75
vt 0.375 0.75
f 257/257/2 258/258/2 259/259/2 260/260/2
v 6 11 1.0
v 7 11 1.0
v 7 12 1.0
v 6 12 1.0
vt 0.375 0.6875
vt 0.4375 0.6875
vt 0.4375 0.75
vt 0.375 0.75
f 261/261/1 262/262/1 263/263/1 264/264/1
v 7 11 0.0
v 6 11 0.0
v 6 12 0.0
v 7 12 0.0
vt 0.4375 0.6875
vt 0.375 0.6875
vt 0.375 0.75
vt 0.4375 0.75
f 265/265/2 266/266/2 267/267/2 268/268/2
v 7 11 1.0
v 8 11 1.0
v 8 12 1.0
v 7 12 1.0
vt 0.4375 0.6875
vt 0.5 0.6875
vt 0.5 0.75
vt 0.4375 0.75
f 269/269/1 270/270/1 271/271/1 272/272/1
v 8 11 0.0
v 7 11 0.0
v 7 12 0.0
v 8 12 0.0
vt 0.5 0.6875
vt 0.4375 0.6875
vt 0.4375 0.75
vt 0.5 0.75
f 273/273/2 274/274/2 275/275/2 276/276/2
v 7 11 0.0
v 8 11 0.0
v 8 11 1.0
v 7 11 1.0
vt 0.4375 0.6875
vt 0.5 0.6875
vt 0.5 0.75
vt 0.4375 0.75
f 277/277/4 278/278/4 279/279/4 280/280/4
v 8 11 1.0
v 8 11 0.0
v 8 12 0.0
v 8 12 1.0
vt 0.4375 0.6875
vt 0.5 0.6875
vt 0.5 0.75
vt 0.4375 0.75
f 281/281/5 282/282/5 283/283/5 284/284/5
v 0 10 1.0
v 1 10 1.0
v 1 11 1.0
v 0 11 1.0
vt 0.0 0.625
vt 0.0625 0.625
vt 0.0625 0.6875
vt 0.0 0.6875
f 285/285/1 286/286/1 287/287/1 288/288/1
v 1 10 0.0
v 0 10 0.0
v 0 11 0.0
v 1 11 0.0
vt 0.0625 0.625
vt 0.0 0.625
vt 0.0 0.6875
vt 0.0625 0.6875
f 289/289/2 290/290/2 291/291/2 292/292/2
v 0 10 0.0
v 0 10 1.0
v 0 11 1.0
v 0 11 0.0
vt 0.0 0.625
vt 0.0625 0.625
vt 0.0625 0.6875
vt 0.0 0.6875
f 293/293/6 294/294/6 295/295/6 296/296/6
v 1 10 1.0
v 2 10 1.0
v 2 11 1.0
v 1 11 1.0
vt 0.0625 0.625
vt 0.125 0.625
vt 0.125 0.6875
vt 0.0625 0.6875
f 297/297/1 298/298/1 299/299/1 300/300/1
v 2 10 0.0
v 1 10 0.0
v 1 11 0.0
v 2 11 0.0
vt 0.125 0.625
vt 0.0625 0.625
vt 0.0625 0.6875
vt 0.125 0.6875
f 301/301/2 302/302/2 303/303/2 304/304/2
v 2 10 1.0
v 3 10 1.0
v 3 11 1.0
v 2 11 1.0
vt 0.125 0.625
vt 0.1875 0.625
vt 0.1875 0.6875
vt 0.125 0.6875
f 305/305/1 306/306/1 307/307/1 308/308/1
v 3 10 0.0
v 2 10 0.0
v 2 11 0.0
v 3 11 0.0
vt 0.1875 0.625
vt 0.125 0.625
vt 0.125 0.6875
vt 0.1875 0.6875
f 309/309/2 310/310/2 311/311/2 312/312/2
v 3 10 1.0
v 4 10 1.0
v 4 11 1.0
v 3 11 1.0
vt 0.1875 0.625
vt 0.25 0.625
vt 0.25 0.6875
vt 0.1875 0.6875
f 313/313/1 314/314/1 315/315/1 316/316/1
v 4 10 0.0
v 3 10 0.0
v 3 11 0.0
v 4 11 0.0
vt 0.25 0.625
vt 0.1875 0.625
vt 0.1875 0.6875
vt 0.25 0.6875
f 317/317/2 318/318/2 319/319/2 320/320/2
v 4 10 1.0
v 5 10 1.0
v 5 11 1.0
v 4 11 1.0
vt 0.25 0.625
vt 0.3125 0.625
vt 0.3125 0.6875
vt 0.25 0.6875
f 321/321/1 322/322/1 323/323/1 324/324/1
v 5 10 0.0
v 4 10 0.0
v 4 11 0.0
v 5 11 0.0
vt 0.3125 0.625
vt 0.25 0.625
vt 0.25 0.6875
vt 0.3125 0.6875
f 325/325/2 326/326/2 327/327/2 328/328/2
v 5 10 1.0
v 6 10 1.0
v 6 11 1.0
v 5 11 1.0
vt 0.3125 0.625
vt 0.375 0.625
vt 0.375 0.6875
vt 0.3125 0.6875
f 329/329/1 330/330/1 331/331/1 332/332/1
v 6 10 0.0
v 5 10 0.0
v 5 11 0.0
v 6 11 0.0
vt 0.375 0.625
vt 0.3125 0.625
vt 0.3125 0.6875
vt 0.375 0.6875
f 333/333/2 334/334/2 335/335/2 336/336/2
v 5 10 0.0
v 6 10 0.0
v 6 10 1.0
v 5 10 1.0
vt 0.3125 0.625
vt 0.375 0.625
vt 0.375 0.6875
vt 0.3125 0.6875
f 337/337/4 338/338/4 339/339/4 340/340/4
v 6 10 1.0
v 7 10 1.0
v 7 11 1.0
v 6 11 1.0
vt 0.375 0.625
vt 0.4375 0.625
vt 0.4375 0.6875
vt 0.375 0.6875
f 341/341/1 342/342/1 343/343/1 344/344/1
v 7 10 0.0
v 6 10 0.0
v 6 11 0.0
v 7 11 0.0
vt 0.4375 0.625
vt 0.375 0.625
vt 0.375 0.6875
vt 0.4375 0.6875
f 345/345/2 346/346/2 347/347/2 348/348/2
v 6 10 0.0
v 7 10 0.0
v 7 10 1.0
v 6 10 1.0
vt 0.375 0.625
vt 0.4375 0.625
vt 0.4375 0.6875
vt 0.375 0.6875
f 349/349/4 350/350/4 351/351/4 352/352/4
v 7 10 1.0
v 7 10 0.0
v 7 11 0.0
v 7 11 1.0
vt 0.375 0.625
vt 0.4375 0.625
vt 0.4375 0.6875
vt 0.375 0.6875
f 353/353/5 354/354/5 355/355/5 356/356/5
v 0 9 1.0
v 1 9 1.0
v 1 10 1.0
v 0 10 1.0
vt 0.0 0.5625
vt 0.0625 0.5625
vt 0.0625 0.625
vt 0.0 0.625
f 357/357/1 358/358/1 359/359/1 360/360/1
v 1 9 0.0
v 0 9 0.0
v 0 10 0.0
v 1 10 0.0
vt 0.0625 0.5625
vt 0.0 0.5625
vt 0.0 0.625
vt 0.0625 0.625
f 361/361/2 362/362/2 363/363/2 364/364/2
v 0 9 0.0
v 0 9 1.0
v 0 10 1.0
v 0 10 0.0
vt 0.0 0.5625
vt 0.0625 0.5625
vt 0.0625 0.625
vt 0.0 0.625
f 365/365/6 366/366/6 367/367/6 368/368/6
v 1 9 1.0
v 2 9 1.0
v 2 10 1.0
v 1 10 1.0
vt 0.0625 0.5625
vt 0.125 0.5625
vt 0.125 0.625
vt 0.0625 0.625
f 369/369/1 370/370/1 371/371/1 372/372/1
v 2 9 0.0
v 1 9 0.0
v 1 10 0.0
v 2 10 0.0
vt 0.125 0.5625
vt 0.0625 0.5625
vt 0.0625 0.625
vt 0.125 0.625
f 373/373/2 374/374/2 375/375/2 376/376/2
v 2 9 1.0
v 3 9 1.0
v 3 10 1.0
v 2 10 1.0
vt 0.125 0.5625
vt 0.1875 0.5625
vt 0.1875 0.625
vt 0.125 0.625
f 377/377/1 378/378/1 379/379/1 380/380/1
v 3 9 0.0
v 2 9 0.0
v 2 10 0.0
v 3 10 0.0
vt 0.1875 0.5625
vt 0.125 0.5625
vt 0.125 0.625
vt 0.1875 0.625
f 381/381/2 382/382/2 383/383/2 384/384/2
v 3 9 1.0
v 4 9 1.0
v 4 10 1.0
v 3 10 1.0
vt 0.1875 0.5625
vt 0.25 0.5625
vt 0.25 0.625
vt 0.1875 0.625
f 385/385/1 386/386/1 387/387/1 388/388/1
v 4 9 0.0
v 3 9 0.0
v 3 10 0.0
v 4 10 0.0
vt 0.25 0.5625
vt 0.1875 0.5625
vt 0.1875 0.625
vt 0.25 0.625
f 389/389/2 390/390/2 391/391/2 392/392/2
v 3 9 0.0
v 4 9 0.0
v 4 9 1.0
v 3 9 1.0
vt 0.1875 0.5625
vt 0.25 0.5625
vt 0.25 0.625
vt 0.1875 0.625
f 393/393/4 394/394/4 395/395/4 396/396/4
v 4 9 1.0
v 5 9 1.0
v 5 10 1.0
v 4 10 1.0
vt 0.25 0.5625
vt 0.3125 0.5625
vt 0.3125 0.625
vt 0.25 0.625
f 397/397/1 398/398/1 399/399/1 400/400/1
v 5 9 0.0
v 4 9 0.0
v 4 10 0.0
v 5 10 0.0
vt 0.3125 0.5625
vt 0.25 0.5625
vt 0.25 0.625
vt 0.3125 0.625
f 401/401/2 402/402/2 403/403/2 404/404/2
v 4 9 0.0
v 5 9 0.0
v 5 9 1.0
v 4 9 1.0
vt 0.25 0.5625
vt 0.3125 0.5625
vt 0.3125 0.625
vt 0.25 0.625
f 405/405/4 406/406/4 407/407/4 408/408/4
v 5 9 1.0
v 5 9 0.0
v 5 10 0.0
v 5 10 1.0
vt 0.25 0.5625
vt 0.3125 0.5625
vt 0.3125 0.625
vt 0.25 0.625
f 409/409/5 410/410/5 411/411/5 412/412/5
v 0 8 1.0
v 1 8 1.0
v 1 9 1.0
v 0 9 1.0
vt 0.0 0.5
vt 0.0625 0.5
vt 0.0625 0.5625
vt 0.0 0.5625
f 413/413/1 414/414/1 415/415/1 416/416/1
v 1 8 0.0
v 0 8 0.0
v 0 9 0.0
v 1 9 0.0
vt 0.0625 0.5
vt 0.0 0.5
vt 0.0 0.5625
vt 0.0625 0.5625
f 417/417/2 418/418/2 419/419/2 420/420/2
v 0 8 0.0
v 1 8 0.0
v 1 8 1.0
v 0 8 1.0
vt 0.0 0.5
vt 0.0625 0.5
vt 0.0625 0.5625
vt 0.0 0.5625
f 421/421/4 422/422/4 423/423/4 424/424/4
v 0 8 0.0
v 0 8 1.0
v 0 9 1.0
v 0 9 0.0
vt 0.0 0.5
vt 0.0625 0.5
vt 0.0625 0.5625
vt 0.0 0.5625
f 425/425/6 426/426/6 427/427/6 428/428/6
v 1 8 1.0
v 2 8 1.0
v 2 9 1.0
v 1 9 1.0
vt 0.0625 0.5
vt 0.125 0.5
vt 0.125 0.5625
vt 0.0625 0.5625
f 429/429/1 430/430/1 431/431/1 432/432/1
v 2 8 0.0
v 1 8 0.0
v 1 9 0.0
v 2 9 0.0
vt 0.125 0.5
vt 0.0625 0.5
vt 0.0625 0.5625
vt 0.125 0.5625
f 433/433/2 434/434/2 435/435/2 436/436/2
v 1 8 0.0
v 2 8 0.0
v 2 8 1.0
v 1 8 1.0
vt 0.0625 0.5
vt 0.125 0.5
vt 0.125 0.5625
vt 0.0625 0.5625
f 437/437/4 438/438/4 439/439/4 440/440/4
v 2 8 1.0
v 3 8 1.0
v 3 9 1.0
v 2 9 1.0
vt 0.125 0.5
vt 0.1875 0.5
vt 0.1875 0.5625
vt 0.125 0.5625
f 441/441/1 442/442/1 443/443/1 444/444/1
v 3 8 0.0
v 2 8 0.0
v 2 9 0.0
v 3 9 0.0
vt 0.1875 0.5
vt 0.125 0.5
vt 0.125 0.5625
vt 0.1875 0.5625
f 445/445/2 446/446/2 447/447/2 448/448/2
v 2 8 0.0
v 3 8 0.0
v 3 8 1.0
v 2 8 1.0
vt 0.125 0.5
vt 0.1875 0.5
vt 0.1875 0.5625
vt 0.125 0.5625
f 449/449/4 450/450/4 451/451/4 452/452/4
v 3 8 1.0
v 3 8 0.0
v 3 9 0.0
v 3 9 1.0
vt 0.125 0.5
vt 0.1875 0.5
vt 0.1875 0.5625
vt 0.125 0.5625
f 453/453/5 454/454/5 455/455/5 456/456/5
o mesh_mask_2
usemtl mat_蛋糕
v 9 14 1.0
v 10 14 1.0
v 10 15 1.0
v 9 15 1.0
vt 0.5625 0.875
vt 0.625 0.875
vt 0.625 0.9375
vt 0.5625 0.9375
f 457/457/1 458/458/1 459/459/1 460/460/1
v 10 14 0.0
v 9 14 0.0
v 9 15 0.0
v 10 15 0.0
vt 0.625 0.875
vt 0.5625 0.875
vt 0.5625 0.9375
vt 0.625 0.9375
f 461/461/2 462/462/2 463/463/2 464/464/2
v 9 15 1.0
v 10 15 1.0
v 10 15 0.0
v 9 15 0.0
vt 0.5625 0.875
vt 0.625 0.875
vt 0.625 0.9375
vt 0.5625 0.9375
f 465/465/3 466/466/3 467/467/3 468/468/3
v 9 14 0.0
v 9 14 1.0
v 9 15 1.0
v 9 15 0.0
vt 0.5625 0.875
vt 0.625 0.875
vt 0.625 0.9375
vt 0.5625 0.9375
f 469/469/6 470/470/6 471/471/6 472/472/6
v 10 14 1.0
v 11 14 1.0
v 11 15 1.0
v 10 15 1.0
vt 0.625 0.875
vt 0.6875 0.875
vt 0.6875 0.9375
vt 0.625 0.9375
f 473/473/1 474/474/1 475/475/1 476/476/1
v 11 14 0.0
v 10 14 0.0
v 10 15 0.0
v 11 15 0.0
vt 0.6875 0.875
vt 0.625 0.875
vt 0.625 0.9375
vt 0.6875 0.9375
f 477/477/2 478/478/2 479/479/2 480/480/2
v 10 15 1.0
v 11 15 1.0
v 11 15 0.0
v 10 15 0.0
vt 0.625 0.875
vt 0.6875 0.875
vt 0.6875 0.9375
vt 0.625 0.9375
f 481/481/3 482/482/3 483/483/3 484/484/3
v 11 14 1.0
v 12 14 1.0
v 12 15 1.0
v 11 15 1.0
vt 0.6875 0.875
vt 0.75 0.875
vt 0.75 0.9375
vt 0.6875 0.9375
f 485/485/1 486/486/1 487/487/1 488/488/1
v 12 14 0.0
v 11 14 0.0
v 11 15 0.0
v 12 15 0.0
vt 0.75 0.875
vt 0.6875 0.875
vt 0.6875 0.9375
vt 0.75 0.9375
f 489/489/2 490/490/2 491/491/2 492/492/2
v 11 15 1.0
v 12 15 1.0
v 12 15 0.0
v 11 15 0.0
vt 0.6875 0.875
vt 0.75 0.875
vt 0.75 0.9375
vt 0.6875 0.9375
f 493/493/3 494/494/3 495/495/3 496/496/3
v 12 14 1.0
v 12 14 0.0
v 12 15 0.0
v 12 15 1.0
vt 0.6875 0.875
vt 0.75 0.875
vt 0.75 0.9375
vt 0.6875 0.9375
f 497/497/5 498/498/5 499/499/5 500/500/5
v 8 13 1.0
v 9 13 1.0
v 9 14 1.0
v 8 14 1.0
vt 0.5 0.8125
vt 0.5625 0.8125
vt 0.5625 0.875
vt 0.5 0.875
f 501/501/1 502/502/1 503/503/1 504/504/1
v 9 13 0.0
v 8 13 0.0
v 8 14 0.0
v 9 14 0.0
vt 0.5625 0.8125
vt 0.5 0.8125
vt 0.5 0.875
vt 0.5625 0.875
f 505/505/2 506/506/2 507/507/2 508/508/2
v 8 14 1.0
v 9 14 1.0
v 9 14 0.0
v 8 14 0.0
vt 0.5 0.8125
vt 0.5625 0.8125
vt 0.5625 0.875
vt 0.5 0.875
f 509/509/3 510/510/3 511/511/3 512/512/3
v 8 13 0.0
v 8 13 1.0
v 8 14 1.0
v 8 14 0.0
vt 0.5 0.8125
vt 0.5625 0.8125
vt 0.5625 0.875
vt 0.5 0.875
f 513/513/6 514/514/6 515/515/6 516/516/6
v 9 13 1.0
v 10 13 1.0
v 10 14 1.0
v 9 14 1.0
vt 0.5625 0.8125
vt 0.625 0.8125
vt 0.625 0.875
vt 0.5625 0.875
f 517/517/1 518/518/1 519/519/1 520/520/1
v 10 13 0.0
v 9 13 0.0
v 9 14 0.0
v 10 14 0.0
vt 0.625 0.8125
vt 0.5625 0.8125
vt 0.5625 0.875
vt 0.625 0.875
f 521/521/2 522/522/2 523/523/2 524/524/2
v 10 13 1.0
v 11 13 1.0
v 11 14 1.0
v 10 14 1.0
vt 0.625 0.8125
vt 0.6875 0.8125
vt 0.6875 0.875
vt 0.625 0.875
f 525/525/1 526/526/1 527/527/1 528/528/1
v 11 13 0.0
v 10 13 0.0
v 10 14 0.0
v 11 14 0.0
vt 0.6875 0.8125
vt 0.625 0.8125
vt 0.625 0.875
vt 0.6875 0.875
f 529/529/2 530/530/2 531/531/2 532/532/2
v 11 13 1.0
v 12 13 1.0
v 12 14 1.0
v 11 14 1.0
vt 0.6875 0.8125
vt 0.75 0.8125
vt 0.75 0.875
vt 0.6875 0.875
f 533/533/1 534/534/1 535/535/1 536/536/1
v 12 13 0.0
v 11 13 0.0
v 11 14 0.0
v 12 14 0.0
vt 0.75 0.8125
vt 0.6875 0.8125
vt 0.6875 0.875
vt 0.75 0.875
f 537/537/2 538/538/2 539/539/2 540/540/2
v 12 13 1.0
v 13 13 1.0
v 13 14 1.0
v 12 14 1.0
vt 0.75 0.8125
vt 0.8125 0.8125
vt 0.8125 0.875
vt 0.75 0.875
f 541/541/1 542/542/1 543/543/1 544/544/1
v 13 13 0.0
v 12 13 0.0
v 12 14 0.0
v 13 14 0.0
vt 0.8125 0.8125
vt 0.75 0.8125
vt 0.75 0.875
vt 0.8125 0.875
f 545/545/2 546/546/2 547/547/2 548/548/2
v 12 14 1.0
v 13 14 1.0
v 13 14 0.0
v 12 14 0.0
vt 0.75 0.8125
vt 0.8125 0.8125
vt 0.8125 0.875
vt 0.75 0.875
f 549/549/3 550/550/3 551/551/3 552/552/3
v 13 13 1.0
v 14 13 1.0
v 14 14 1.0
v 13 14 1.0
vt 0.8125 0.8125
vt 0.875 0.8125
vt 0.875 0.875
vt 0.8125 0.875
f 553/553/1 554/554/1 555/555/1 556/556/1
v 14 13 0.0
v 13 13 0.0
v 13 14 0.0
v 14 14 0.0
vt 0.875 0.8125
vt 0.8125 0.8125
vt 0.8125 0.875
vt 0.875 0.875
f 557/557/2 558/558/2 559/559/2 560/560/2
v 13 14 1.0
v 14 14 1.0
v 14 14 0.0
v 13 14 0.0
vt 0.8125 0.8125
vt 0.875 0.8125
vt 0.875 0.875
vt 0.8125 0.875
f 561/561/3 562/562/3 563/563/3 564/564/3
v 14 13 1.0
v 14 13 0.0
v 14 14 0.0
v 14 14 1.0
vt 0.8125 0.8125
vt 0.875 0.8125
vt 0.875 0.875
vt 0.8125 0.875
f 565/565/5 566/566/5 567/567/5 568/568/5
v 8 12 1.0
v 9 12 1.0
v 9 13 1.0
v 8 13 1.0
vt 0.5 0.75
vt 0.5625 0.75
vt 0.5625 0.8125
vt 0.5 0.8125
f 569/569/1 570/570/1 571/571/1 572/572/1
v 9 12 0.0
v 8 12 0.0
v 8 13 0.0
v 9 13 0.0
vt 0.5625 0.75
vt 0.5 0.75
vt 0.5 0.8125
vt 0.5625 0.8125
f 573/573/2 574/574/2 575/575/2 576/576/2
v 8 12 0.0
v 8 12 1.0
v 8 13 1.0
v 8 13 0.0
vt 0.5 0.75
vt 0.5625 0.75
vt 0.5625 0.8125
vt 0.5 0.8125
f 577/577/6 578/578/6 579/579/6 580/580/6
v 9 12 1.0
v 10 12 1.0
v 10 13 1.0
v 9 13 1.0
vt 0.5625 0.75
vt 0.625 0.75
vt 0.625 0.8125
vt 0.5625 0.8125
f 581/581/1 582/582/1 583/583/1 584/584/1
v 10 12 0.0
v 9 12 0.0
v 9 13 0.0
v 10 13 0.0
vt 0.625 0.75
vt 0.5625 0.75
vt 0.5625 0.8125
vt 0.625 0.8125
f 585/585/2 586/586/2 587/587/2 588/588/2
v 10 12 1.0
v 11 12 1.0
v 11 13 1.0
v 10 13 1.0
vt 0.625 0.75
vt 0.6875 0.75
vt 0.6875 0.8125
vt 0.625 0.8125
f 589/589/1 590/590/1 591/591/1 592/592/1
v 11 12 0.0
v 10 12 0.0
v 10 13 0.0
v 11 13 0.0
vt 0.6875 0.75
vt 0.625 0.75
vt 0.625 0.8125
vt 0.6875 0.8125
f 593/593/2 594/594/2 595/595/2 596/596/2
v 11 12 1.0
v 12 12 1.0
v 12 13 1.0
v 11 13 1.0
vt 0.6875 0.75
vt 0.75 0.75
vt 0.75 0.8125
vt 0.6875 0.8125
f 597/597/1 598/598/1 599/599/1 600/600/1
v 12 12 0.0
v 11 12 0.0
v 11 13 0.0
v 12 13 0.0
vt 0.75 0.75
vt 0.6875 0.75
vt 0.6875 0.8125
vt 0.75 0.8125
f 601/601/2 602/602/2 603/603/2 604/604/2
v 12 12 1.0
v 13 12 1.0
v 13 13 1.0
v 12 13 1.0
vt 0.75 0.75
vt 0.8125 0.75
vt 0.8125 0.8125
vt 0.75 0.8125
f 605/605/1 606/606/1 607/607/1 608/608/1
v 13 12 0.0
v 12 12 0.0
v 12 13 0.0
v 13 13 0.0
vt 0.8125 0.75
vt 0.75 0.75
vt 0.75 0.8125
vt 0.8125 0.8125
f 609/609/2 610/610/2 611/611/2 612/612/2
v 13 12 1.0
v 14 12 1.0
v 14 13 1.0
v 13 13 1.0
vt 0.8125 0.75
vt 0.875 0.75
vt 0.875 0.8125
vt 0.8125 0.8125
f 613/613/1 614/614/1 615/615/1 616/616/1
v 14 12 0.0
v 13 12 0.0
v 13 13 0.0
v 14 13 0.0
vt 0.875 0.75
vt 0.8125 0.75
vt 0.8125 0.8125
vt 0.875 0.8125
f 617/617/2 618/618/2 619/619/2 620/620/2
v 14 12 1.0
v 15 12 1.0
v 15 13 1.0
v 14 13 1.0
vt 0.875 0.75
vt 0.9375 0.75
vt 0.9375 0.8125
vt 0.875 0.8125
f 621/621/1 622/622/1 623/623/1 624/624/1
v 15 12 0.0
v 14 12 0.0
v 14 13 0.0
v 15 13 0.0
vt 0.9375 0.75
vt 0.875 0.75
vt 0.875 0.8125
vt 0.9375 0.8125
f 625/625/2 626/626/2 627/627/2 628/628/2
v 14 13 1.0
v 15 13 1.0
v 15 13 0.0
v 14 13 0.0
vt 0.875 0.75
vt 0.9375 0.75
vt 0.9375 0.8125
vt 0.875 0.8125
f 629/629/3 630/630/3 631/631/3 632/632/3
v 15 12 1.0
v 15 12 0.0
v 15 13 0.0
v 15 13 1.0
vt 0.875 0.75
vt 0.9375 0.75
vt 0.9375 0.8125
vt 0.875 0.8125
f 633/633/5 634/634/5 635/635/5 636/636/5
v 8 11 1.0
v 9 11 1.0
v 9 12 1.0
v 8 12 1.0
vt 0.5 0.6875
vt 0.5625 0.6875
vt 0.5625 0.75
vt 0.5 0.75
f 637/637/1 638/638/1 639/639/1 640/640/1
v 9 11 0.0
v 8 11 0.0
v 8 12 0.0
v 9 12 0.0
vt 0.5625 0.6875
vt 0.5 0.6875
vt 0.5 0.75
vt 0.5625 0.75
f 641/641/2 642/642/2 643/643/2 644/644/2
v 8 11 0.0
v 8 11 1.0
v 8 12 1.0
v 8 12 0.0
vt 0.5 0.6875
vt 0.5625 0.6875
vt 0.5625 0.75
vt 0.5 0.75
f 645/645/6 646/646/6 647/647/6 648/648/6
v 9 11 1.0
v 10 11 1.0
v 10 12 1.0
v 9 12 1.0
vt 0.5625 0.6875
vt 0.625 0.6875
vt 0.625 0.75
vt 0.5625 0.75
f 649/649/1 650/650/1 651/651/1 652/652/1
v 10 11 0.0
v 9 11 0.0
v 9 12 0.0
v 10 12 0.0
vt 0.625 0.6875
vt 0.5625 0.6875
vt 0.5625 0.75
vt 0.625 0.75
f 653/653/2 654/654/2 655/655/2 656/656/2
v 10 11 1.0
v 11 11 1.0
v 11 12 1.0
v 10 12 1.0
vt 0.625 0.6875
vt 0.6875 0.6875
vt 0.6875 0.75
vt 0.625 0.75
f 657/657/1 658/658/1 659/659/1 660/660/1
v 11 11 0.0
v 10 11 0.0
v 10 12 0.0
v 11 12 0.0
vt 0.6875 0.6875
vt 0.625 0.6875
vt 0.625 0.75
vt 0.6875 0.75
f 661/661/2 662/662/2 663/663/2 664/664/2
v 11 11 1.0
v 12 11 1.0
v 12 12 1.0
v 11 12 1.0
vt 0.6875 0.6875
vt 0.75 0.6875
vt 0.75 0.75
vt 0.6875 0.75
f 665/665/1 666/666/1 667/667/1 668/668/1
v 12 11 0.0
v 11 11 0.0
v 11 12 0.0
v 12 12 0.0
vt 0.75 0.6875
vt 0.6875 0.6875
vt 0.6875 0.75
vt 0.75 0.75
f 669/669/2 670/670/2 671/671/2 672/672/2
v 12 11 1.0
v 13 11 1.0
v 13 12 1.0
v 12 12 1.0
vt 0.75 0.6875
vt 0.8125 0.6875
vt 0.8125 0.75
vt 0.75 0.75
f 673/673/1 674/674/1 675/675/1 676/676/1
v 13 11 0.0
v 12 11 0.0
v 12 12 0.0
v 13 12 0.0
vt 0.8125 0.6875
vt 0.75 0.6875
vt 0.75 0.75
vt 0.8125 0.75
f 677/677/2 678/678/2 679/679/2 680/680/2
v 13 11 1.0
v 14 11 1.0
v 14 12 1.0
v 13 12 1.0
vt 0.8125 0.6875
vt 0.875 0.6875
vt 0.875 0.75
vt 0.8125 0.75
f 681/681/1 682/682/1 683/683/1 684/684/1
v 14 11 0.0
v 13 11 0.0
v 13 12 0.0
v 14 12 0.0
vt 0.875 0.6875
vt 0.8125 0.6875
vt 0.8125 0.75
vt 0.875 0.75
f 685/685/2 686/686/2 687/687/2 688/688/2
v 14 11 1.0
v 15 11 1.0
v 15 12 1.0
v 14 12 1.0
vt 0.875 0.6875
vt 0.9375 0.6875
vt 0.9375 0.75
vt 0.875 0.75
f 689/689/1 690/690/1 691/691/1 692/692/1
v 15 11 0.0
v 14 11 0.0
v 14 12 0.0
v 15 12 0.0
vt 0.9375 0.6875
vt 0.875 0.6875
vt 0.875 0.75
vt 0.9375 0.75
f 693/693/2 694/694/2 695/695/2 696/696/2
v 15 11 1.0
v 16 11 1.0
v 16 12 1.0
v 15 12 1.0
vt 0.9375 0.6875
vt 1.0 0.6875
vt 1.0 0.75
vt 0.9375 0.75
f 697/697/1 698/698/1 699/699/1 700/700/1
v 16 11 0.0
v 15 11 0.0
v 15 12 0.0
v 16 12 0.0
vt 1.0 0.6875
vt 0.9375 0.6875
vt 0.9375 0.75
vt 1.0 0.75
f 701/701/2 702/702/2 703/703/2 704/704/2
v 15 12 1.0
v 16 12 1.0
v 16 12 0.0
v 15 12 0.0
vt 0.9375 0.6875
vt 1.0 0.6875
vt 1.0 0.75
vt 0.9375 0.75
f 705/705/3 706/706/3 707/707/3 708/708/3
v 16 11 1.0
v 16 11 0.0
v 16 12 0.0
v 16 12 1.0
vt 0.9375 0.6875
vt 1.0 0.6875
vt 1.0 0.75
vt 0.9375 0.75
f 709/709/5 710/710/5 711/711/5 712/712/5
v 8 10 1.0
v 9 10 1.0
v 9 11 1.0
v 8 11 1.0
vt 0.5 0.625
vt 0.5625 0.625
vt 0.5625 0.6875
vt 0.5 0.6875
f 713/713/1 714/714/1 715/715/1 716/716/1
v 9 10 0.0
v 8 10 0.0
v 8 11 0.0
v 9 11 0.0
vt 0.5625 0.625
vt 0.5 0.625
vt 0.5 0.6875
vt 0.5625 0.6875
f 717/717/2 718/718/2 719/719/2 720/720/2
v 8 10 0.0
v 9 10 0.0
v 9 10 1.0
v 8 10 1.0
vt 0.5 0.625
vt 0.5625 0.625
vt 0.5625 0.6875
vt 0.5 0.6875
f 721/721/4 722/722/4 723/723/4 724/724/4
v 8 10 0.0
v 8 10 1.0
v 8 11 1.0
v 8 11 0.0
vt 0.5 0.625
vt 0.5625 0.625
vt 0.5625 0.6875
vt 0.5 0.6875
f 725/725/6 726/726/6 727/727/6 728/728/6
v 9 10 1.0
v 10 10 1.0
v 10 11 1.0
v 9 11 1.0
vt 0.5625 0.625
vt 0.625 0.625
vt 0.625 0.6875
vt 0.5625 0.6875
f 729/729/1 730/730/1 731/731/1 732/732/1
v 10 10 0.0
v 9 10 0.0
v 9 11 0.0
v 10 11 0.0
vt 0.625 0.625
vt 0.5625 0.625
vt 0.5625 0.6875
vt 0.625 0.6875
f 733/733/2 734/734/2 735/735/2 736/736/2
v 10 10 1.0
v 11 10 1.0
v 11 11 1.0
v 10 11 1.0
vt 0.625 0.625
vt 0.6875 0.625
vt 0.6875 0.6875
vt 0.625 0.6875
f 737/737/1 738/738/1 739/739/1 740/740/1
v 11 10 0.0
v 10 10 0.0
v 10 11 0.0
v 11 11 0.0
vt 0.6875 0.625
vt 0.625 0.625
vt 0.625 0.6875
vt 0.6875 0.6875
f 741/741/2 742/742/2 743/743/2 744/744/2
v 11 10 1.0
v 12 10 1.0
v 12 11 1.0
v 11 11 1.0
vt 0.6875 0.625
vt 0.75 0.625
vt 0.75 0.6875
vt 0.6875 0.6875
f 745/745/1 746/746/1 747/747/1 748/748/1
v 12 10 0.0
v 11 10 0.0
v 11 11 0.0
v 12 11 0.0
vt 0.75 0.625
vt 0.6875 0.625
vt 0.6875 0.6875
vt 0.75 0.6875
f 749/749/2 750/750/2 751/751/2 752/752/2
v 12 10 1.0
v 13 10 1.0
v 13 11 1.0
v 12 11 1.0
vt 0.75 0.625
vt 0.8125 0.625
vt 0.8125 0.6875
vt 0.75 0.6875
f 753/753/1 754/754/1 755/755/1 756/756/1
v 13 10 0.0
v 12 10 0.0
v 12 11 0.0
v 13 11 0.0
vt 0.8125 0.625
vt 0.75 0.625
vt 0.75 0.6875
vt 0.8125 0.6875
f 757/757/2 758/758/2 759/759/2 760/760/2
v 13 10 1.0
v 14 10 1.0
v 14 11 1.0
v 13 11 1.0
vt 0.8125 0.625
vt 0.875 0.625
vt 0.875 0.6875
vt 0.8125 0.6875
f 761/761/1 762/762/1 763/763/1 764/764/1
v 14 10 0.0
v 13 10 0.0
v 13 11 0.0
v 14 11 0.0
vt 0.875 0.625
vt 0.8125 0.625
vt 0.8125 0.6875
vt 0.875 0.6875
f 765/765/2 766/766/2 767/767/2 768/768/2
v 14 10 1.0
v 15 10 1.0
v 15 11 1.0
v 14 11 1.0
vt 0.875 0.625
vt 0.9375 0.625
vt 0.9375 0.6875
vt 0.875 0.6875
f 769/769/1 770/770/1 771/771/1 772/772/1
v 15 10 0.0
v 14 10 0.0
v 14 11 0.0
v 15 11 0.0
vt 0.9375 0.625
vt 0.875 0.625
vt 0.875 0.6875
vt 0.9375 0.6875
f 773/773/2 774/774/2 775/775/2 776/776/2
v 15 10 1.0
v 16 10 1.0
v 16 11 1.0
v 15 11 1.0
vt 0.9375 0.625
vt 1.0 0.625
vt 1.0 0.6875
vt 0.9375 0.6875
f 777/777/1 778/778/1 779/779/1 780/780/1
v 16 10 0.0
v 15 10 0.0
v 15 11 0.0
v 16 11 0.0
vt 1.0 0.625
vt 0.9375 0.625
vt 0.9375 0.6875
vt 1.0 0.6875
f 781/781/2 782/782/2 783/783/2 784/784/2
v 16 10 1.0
v 16 10 0.0
v 16 11 0.0
v 16 11 1.0
vt 0.9375 0.625
vt 1.0 0.625
vt 1.0 0.6875
vt 0.9375 0.6875
f 785/785/5 786/786/5 787/787/5 788/788/5
v 9 9 1.0
v 10 9 1.0
v 10 10 1.0
v 9 10 1.0
vt 0.5625 0.5625
vt 0.625 0.5625
vt 0.625 0.625
vt 0.5625 0.625
f 789/789/1 790/790/1 791/791/1 792/792/1
v 10 9 0.0
v 9 9 0.0
v 9 10 0.0
v 10 10 0.0
vt 0.625 0.5625
vt 0.5625 0.5625
vt 0.5625 0.625
vt 0.625 0.625
f 793/793/2 794/794/2 795/795/2 796/796/2
v 9 9 0.0
v 10 9 0.0
v 10 9 1.0
v 9 9 1.0
vt 0.5625 0.5625
vt 0.625 0.5625
vt 0.625 0.625
vt 0.5625 0.625
f 797/797/4 798/798/4 799/799/4 800/800/4
v 9 9 0.0
v 9 9 1.0
v 9 10 1.0
v 9 10 0.0
vt 0.5625 0.5625
vt 0.625 0.5625
vt 0.625 0.625
vt 0.5625 0.625
f 801/801/6 802/802/6 803/803/6 804/804/6
v 10 9 1.0
v 11 9 1.0
v 11 10 1.0
v 10 10 1.0
vt 0.625 0.5625
vt 0.6875 0.5625
vt 0.6875 0.625
vt 0.625 0.625
f 805/805/1 806/806/1 807/807/1 808/808/1
v 11 9 0.0
v 10 9 0.0
v 10 10 0.0
v 11 10 0.0
vt 0.6875 0.5625
vt 0.625 0.5625
vt 0.625 0.625
vt 0.6875 0.625
f 809/809/2 810/810/2 811/811/2 812/812/2
v 11 9 1.0
v 12 9 1.0
v 12 10 1.0
v 11 10 1.0
vt 0.6875 0.5625
vt 0.75 0.5625
vt 0.75 0.625
vt 0.6875 0.625
f 813/813/1 814/814/1 815/815/1 816/816/1
v 12 9 0.0
v 11 9 0.0
v 11 10 0.0
v 12 10 0.0
vt 0.75 0.5625
vt 0.6875 0.5625
vt 0.6875 0.625
vt 0.75 0.625
f 817/817/2 818/818/2 819/819/2 820/820/2
v 12 9 1.0
v 13 9 1.0
v 13 10 1.0
v 12 10 1.0
vt 0.75 0.5625
vt 0.8125 0.5625
vt 0.8125 0.625
vt 0.75 0.625
f 821/821/1 822/822/1 823/823/1 824/824/1
v 13 9 0.0
v 12 9 0.0
v 12 10 0.0
v 13 10 0.0
vt 0.8125 0.5625
vt 0.75 0.5625
vt 0.75 0.625
vt 0.8125 0.625
f 825/825/2 826/826/2 827/827/2 828/828/2
v 13 9 1.0
v 14 9 1.0
v 14 10 1.0
v 13 10 1.0
vt 0.8125 0.5625
vt 0.875 0.5625
vt 0.875 0.625
vt 0.8125 0.625
f 829/829/1 830/830/1 831/831/1 832/832/1
v 14 9 0.0
v 13 9 0.0
v 13 10 0.0
v 14 10 0.0
vt 0.875 0.5625
vt 0.8125 0.5625
vt 0.8125 0.625
vt 0.875 0.625
f 833/833/2 834/834/2 835/835/2 836/836/2
v 14 9 1.0
v 15 9 1.0
v 15 10 1.0
v 14 10 1.0
vt 0.875 0.5625
vt 0.9375 0.5625
vt 0.9375 0.625
vt 0.875 0.625
f 837/837/1 838/838/1 839/839/1 840/840/1
v 15 9 0.0
v 14 9 0.0
v 14 10 0.0
v 15 10 0.0
vt 0.9375 0.5625
vt 0.875 0.5625
vt 0.875 0.625
vt 0.9375 0.625
f 841/841/2 842/842/2 843/843/2 844/844/2
v 15 9 1.0
v 16 9 1.0
v 16 10 1.0
v 15 10 1.0
vt 0.9375 0.5625
vt 1.0 0.5625
vt 1.0 0.625
vt 0.9375 0.625
f 845/845/1 846/846/1 847/847/1 848/848/1
v 16 9 0.0
v 15 9 0.0
v 15 10 0.0
v 16 10 0.0
vt 1.0 0.5625
vt 0.9375 0.5625
vt 0.9375 0.625
vt 1.0 0.625
f 849/849/2 850/850/2 851/851/2 852/852/2
v 16 9 1.0
v 16 9 0.0
v 16 10 0.0
v 16 10 1.0
vt 0.9375 0.5625
vt 1.0 0.5625
vt 1.0 0.625
vt 0.9375 0.625
f 853/853/5 854/854/5 855/855/5 856/856/5
v 10 8 1.0
v 11 8 1.0
v 11 9 1.0
v 10 9 1.0
vt 0.625 0.5
vt 0.6875 0.5
vt 0.6875 0.5625
vt 0.625 0.5625
f 857/857/1 858/858/1 859/859/1 860/860/1
v 11 8 0.0
v 10 8 0.0
v 10 9 0.0
v 11 9 0.0
vt 0.6875 0.5
vt 0.625 0.5
vt 0.625 0.5625
vt 0.6875 0.5625
f 861/861/2 862/862/2 863/863/2 864/864/2
v 10 8 0.0
v 11 8 0.0
v 11 8 1.0
v 10 8 1.0
vt 0.625 0.5
vt 0.6875 0.5
vt 0.6875 0.5625
vt 0.625 0.5625
f 865/865/4 866/866/4 867/867/4 868/868/4
v 10 8 0.0
v 10 8 1.0
v 10 9 1.0
v 10 9 0.0
vt 0.625 0.5
vt 0.6875 0.5
vt 0.6875 0.5625
vt 0.625 0.5625
f 869/869/6 870/870/6 871/871/6 872/872/6
v 11 8 1.0
v 12 8 1.0
v 12 9 1.0
v 11 9 1.0
vt 0.6875 0.5
vt 0.75 0.5
vt 0.75 0.5625
vt 0.6875 0.5625
f 873/873/1 874/874/1 875/875/1 876/876/1
v 12 8 0.0
v 11 8 0.0
v 11 9 0.0
v 12 9 0.0
vt 0.75 0.5
vt 0.6875 0.5
vt 0.6875 0.5625
vt 0.75 0.5625
f 877/877/2 878/878/2 879/879/2 880/880/2
v 12 8 1.0
v 13 8 1.0
v 13 9 1.0
v 12 9 1.0
vt 0.75 0.5
vt 0.8125 0.5
vt 0.8125 0.5625
vt 0.75 0.5625
f 881/881/1 882/882/1 883/883/1 884/884/1
v 13 8 0.0
v 12 8 0.0
v 12 9 0.0
v 13 9 0.0
vt 0.8125 0.5
vt 0.75 0.5
vt 0.75 0.5625
vt 0.8125 0.5625
f 885/885/2 886/886/2 887/887/2 888/888/2
v 13 8 1.0
v 14 8 1.0
v 14 9 1.0
v 13 9 1.0
vt 0.8125 0.5
vt 0.875 0.5
vt 0.875 0.5625
vt 0.8125 0.5625
f 889/889/1 890/890/1 891/891/1 892/892/1
v 14 8 0.0
v 13 8 0.0
v 13 9 0.0
v 14 9 0.0
vt 0.875 0.5
vt 0.8125 0.5
vt 0.8125 0.5625
vt 0.875 0.5625
f 893/893/2 894/894/2 895/895/2 896/896/2
v 14 8 1.0
v 15 8 1.0
v 15 9 1.0
v 14 9 1.0
vt 0.875 0.5
vt 0.9375 0.5
vt 0.9375 0.5625
vt 0.875 0.5625
f 897/897/1 898/898/1 899/899/1 900/900/1
v 15 8 0.0
v 14 8 0.0
v 14 9 0.0
v 15 9 0.0
vt 0.9375 0.5
vt 0.875 0.5
vt 0.875 0.5625
vt 0.9375 0.5625
f 901/901/2 902/902/2 903/903/2 904/904/2
v 15 8 1.0
v 16 8 1.0
v 16 9 1.0
v 15 9 1.0
vt 0.9375 0.5
vt 1.0 0.5
vt 1.0 0.5625
vt 0.9375 0.5625
f 905/905/1 906/906/1 907/907/1 908/908/1
v 16 8 0.0
v 15 8 0.0
v 15 9 0.0
v 16 9 0.0
vt 1.0 0.5
vt 0.9375 0.5
vt 0.9375 0.5625
vt 1.0 0.5625
f 909/909/2 910/910/2 911/911/2 912/912/2
v 16 8 1.0
v 16 8 0.0
v 16 9 0.0
v 16 9 1.0
vt 0.9375 0.5
vt 1.0 0.5
vt 1.0 0.5625
vt 0.9375 0.5625
f 913/913/5 914/914/5 915/915/5 916/916/5
v 11 7 1.0
v 12 7 1.0
v 12 8 1.0
v 11 8 1.0
vt 0.6875 0.4375
vt 0.75 0.4375
vt 0.75 0.5
vt 0.6875 0.5
f 917/917/1 918/918/1 919/919/1 920/920/1
v 12 7 0.0
v 11 7 0.0
v 11 8 0.0
v 12 8 0.0
vt 0.75 0.4375
vt 0.6875 0.4375
vt 0.6875 0.5
vt 0.75 0.5
f 921/921/2 922/922/2 923/923/2 924/924/2
v 11 7 0.0
v 12 7 0.0
v 12 7 1.0
v 11 7 1.0
vt 0.6875 0.4375
vt 0.75 0.4375
vt 0.75 0.5
vt 0.6875 0.5
f 925/925/4 926/926/4 927/927/4 928/928/4
v 11 7 0.0
v 11 7 1.0
v 11 8 1.0
v 11 8 0.0
vt 0.6875 0.4375
vt 0.75 0.4375
vt 0.75 0.5
vt 0.6875 0.5
f 929/929/6 930/930/6 931/931/6 932/932/6
v 12 7 1.0
v 13 7 1.0
v 13 8 1.0
v 12 8 1.0
vt 0.75 0.4375
vt 0.8125 0.4375
vt 0.8125 0.5
vt 0.75 0.5
f 933/933/1 934/934/1 935/935/1 936/936/1
v 13 7 0.0
v 12 7 0.0
v 12 8 0.0
v 13 8 0.0
vt 0.8125 0.4375
vt 0.75 0.4375
vt 0.75 0.5
vt 0.8125 0.5
f 937/937/2 938/938/2 939/939/2 940/940/2
v 12 7 0.0
v 13 7 0.0
v 13 7 1.0
v 12 7 1.0
vt 0.75 0.4375
vt 0.8125 0.4375
vt 0.8125 0.5
vt 0.75 0.5
f 941/941/4 942/942/4 943/943/4 944/944/4
v 13 7 1.0
v 14 7 1.0
v 14 8 1.0
v 13 8 1.0
vt 0.8125 0.4375
vt 0.875 0.4375
vt 0.875 0.5
vt 0.8125 0.5
f 945/945/1 946/946/1 947/947/1 948/948/1
v 14 7 0.0
v 13 7 0.0
v 13 8 0.0
v 14 8 0.0
vt 0.875 0.4375
vt 0.8125 0.4375
vt 0.8125 0.5
vt 0.875 0.5
f 949/949/2 950/950/2 951/951/2 952/952/2
v 13 7 0.0
v 14 7 0.0
v 14 7 1.0
v 13 7 1.0
vt 0.8125 0.4375
vt 0.875 0.4375
vt 0.875 0.5
vt 0.8125 0.5
f 953/953/4 954/954/4 955/955/4 956/956/4
v 14 7 1.0
v 15 7 1.0
v 15 8 1.0
v 14 8 1.0
vt 0.875 0.4375
vt 0.9375 0.4375
vt 0.9375 0.5
vt 0.875 0.5
f 957/957/1 958/958/1 959/959/1 960/960/1
v 15 7 0.0
v 14 7 0.0
v 14 8 0.0
v 15 8 0.0
vt 0.9375 0.4375
vt 0.875 0.4375
vt 0.875 0.5
vt 0.9375 0.5
f 961/961/2 962/962/2 963/963/2 964/964/2
v 15 7 1.0
v 16 7 1.0
v 16 8 1.0
v 15 8 1.0
vt 0.9375 0.4375
vt 1.0 0.4375
vt 1.0 0.5
vt 0.9375 0.5
f 965/965/1 966/966/1 967/967/1 968/968/1
v 16 7 0.0
v 15 7 0.0
v 15 8 0.0
v 16 8 0.0
vt 1.0 0.4375
vt 0.9375 0.4375
vt 0.9375 0.5
vt 1.0 0.5
f 969/969/2 970/970/2 971/971/2 972/972/2
v 16 7 1.0
v 16 7 0.0
v 16 8 0.0
v 16 8 1.0
vt 0.9375 0.4375
vt 1.0 0.4375
vt 1.0 0.5
vt 0.9375 0.5
f 973/973/5 974/974/5 975/975/5 976/976/5
v 14 6 1.0
v 15 6 1.0
v 15 7 1.0
v 14 7 1.0
vt 0.875 0.375
vt 0.9375 0.375
vt 0.9375 0.4375
vt 0.875 0.4375
f 977/977/1 978/978/1 979/979/1 980/980/1
v 15 6 0.0
v 14 6 0.0
v 14 7 0.0
v 15 7 0.0
vt 0.9375 0.375
vt 0.875 0.375
vt 0.875 0.4375
vt 0.9375 0.4375
f 981/981/2 982/982/2 983/983/2 984/984/2
v 14 6 0.0
v 15 6 0.0
v 15 6 1.0
v 14 6 1.0
vt 0.875 0.375
vt 0.9375 0.375
vt 0.9375 0.4375
vt 0.875 0.4375
f 985/985/4 986/986/4 987/987/4 988/988/4
v 14 6 0.0
v 14 6 1.0
v 14 7 1.0
v 14 7 0.0
vt 0.875 0.375
vt 0.9375 0.375
vt 0.9375 0.4375
vt 0.875 0.4375
f 989/989/6 990/990/6 991/991/6 992/992/6
v 15 6 1.0
v 16 6 1.0
v 16 7 1.0
v 15 7 1.0
vt 0.9375 0.375
vt 1.0 0.375
vt 1.0 0.4375
vt 0.9375 0.4375
f 993/993/1 994/994/1 995/995/1 996/996/1
v 16 6 0.0
v 15 6 0.0
v 15 7 0.0
v 16 7 0.0
vt 1.0 0.375
vt 0.9375 0.375
vt 0.9375 0.4375
vt 1.0 0.4375
f 997/997/2 998/998/2 999/999/2 1000/1000/2
v 15 6 0.0
v 16 6 0.0
v 16 6 1.0
v 15 6 1.0
vt 0.9375 0.375
vt 1.0 0.375
vt 1.0 0.4375
vt 0.9375 0.4375
f 1001/1001/4 1002/1002/4 1003/1003/4 1004/1004/4
v 16 6 1.0
v 16 6 0.0
v 16 7 0.0
v 16 7 1.0
vt 0.9375 0.375
vt 1.0 0.375
vt 1.0 0.4375
vt 0.9375 0.4375
f 1005/1005/5 1006/1006/5 1007/1007/5 1008/1008/5
o mesh_mask_3
usemtl mat_蛋糕
v 7 10 1.0
v 8 10 1.0
v 8 11 1.0
v 7 11 1.0
vt 0.4375 0.625
vt 0.5 0.625
vt 0.5 0.6875
vt 0.4375 0.6875
f 1009/1009/1 1010/1010/1 1011/1011/1 1012/1012/1
v 8 10 0.0
v 7 10 0.0
v 7 11 0.0
v 8 11 0.0
vt 0.5 0.625
vt 0.4375 0.625
vt 0.4375 0.6875
vt 0.5 0.6875
f 1013/1013/2 1014/1014/2 1015/1015/2 1016/1016/2
v 7 11 1.0
v 8 11 1.0
v 8 11 0.0
v 7 11 0.0
vt 0.4375 0.625
vt 0.5 0.625
vt 0.5 0.6875
vt 0.4375 0.6875
f 1017/1017/3 1018/1018/3 1019/1019/3 1020/1020/3
v 8 10 1.0
v 8 10 0.0
v 8 11 0.0
v 8 11 1.0
vt 0.4375 0.625
vt 0.5 0.625
vt 0.5 0.6875
vt 0.4375 0.6875
f 1021/1021/5 1022/1022/5 1023/1023/5 1024/1024/5
v 7 10 0.0
v 7 10 1.0
v 7 11 1.0
v 7 11 0.0
vt 0.4375 0.625
vt 0.5 0.625
vt 0.5 0.6875
vt 0.4375 0.6875
f 1025/1025/6 1026/1026/6 1027/1027/6 1028/1028/6
v 5 9 1.0
v 6 9 1.0
v 6 10 1.0
v 5 10 1.0
vt 0.3125 0.5625
vt 0.375 0.5625
vt 0.375 0.625
vt 0.3125 0.625
f 1029/1029/1 1030/1030/1 1031/1031/1 1032/1032/1
v 6 9 0.0
v 5 9 0.0
v 5 10 0.0
v 6 10 0.0
vt 0.375 0.5625
vt 0.3125 0.5625
vt 0.3125 0.625
vt 0.375 0.625
f 1033/1033/2 1034/1034/2 1035/1035/2 1036/1036/2
v 5 10 1.0
v 6 10 1.0
v 6 10 0.0
v 5 10 0.0
vt 0.3125 0.5625
vt 0.375 0.5625
vt 0.375 0.625
vt 0.3125 0.625
f 1037/1037/3 1038/1038/3 1039/1039/3 1040/1040/3
v 5 9 0.0
v 5 9 1.0
v 5 10 1.0
v 5 10 0.0
vt 0.3125 0.5625
vt 0.375 0.5625
vt 0.375 0.625
vt 0.3125 0.625
f 1041/1041/6 1042/1042/6 1043/1043/6 1044/1044/6
v 6 9 1.0
v 7 9 1.0
v 7 10 1.0
v 6 10 1.0
vt 0.375 0.5625
vt 0.4375 0.5625
vt 0.4375 0.625
vt 0.375 0.625
f 1045/1045/1 1046/1046/1 1047/1047/1 1048/1048/1
v 7 9 0.0
v 6 9 0.0
v 6 10 0.0
v 7 10 0.0
vt 0.4375 0.5625
vt 0.375 0.5625
vt 0.375 0.625
vt 0.4375 0.625
f 1049/1049/2 1050/1050/2 1051/1051/2 1052/1052/2
v 6 10 1.0
v 7 10 1.0
v 7 10 0.0
v 6 10 0.0
vt 0.375 0.5625
vt 0.4375 0.5625
vt 0.4375 0.625
vt 0.375 0.625
f 1053/1053/3 1054/1054/3 1055/1055/3 1056/1056/3
v 7 9 1.0
v 8 9 1.0
v 8 10 1.0
v 7 10 1.0
vt 0.4375 0.5625
vt 0.5 0.5625
vt 0.5 0.625
vt 0.4375 0.625
f 1057/1057/1 1058/1058/1 1059/1059/1 1060/1060/1
v 8 9 0.0
v 7 9 0.0
v 7 10 0.0
v 8 10 0.0
vt 0.5 0.5625
vt 0.4375 0.5625
vt 0.4375 0.625
vt 0.5 0.625
f 1061/1061/2 1062/1062/2 1063/1063/2 1064/1064/2
v 8 9 1.0
v 9 9 1.0
v 9 10 1.0
v 8 10 1.0
vt 0.5 0.5625
vt 0.5625 0.5625
vt 0.5625 0.625
vt 0.5 0.625
f 1065/1065/1 1066/1066/1 1067/1067/1 1068/1068/1
v 9 9 0.0
v 8 9 0.0
v 8 10 0.0
v 9 10 0.0
vt 0.5625 0.5625
vt 0.5 0.5625
vt 0.5 0.625
vt 0.5625 0.625
f 1069/1069/2 1070/1070/2 1071/1071/2 1072/1072/2
v 8 10 1.0
v 9 10 1.0
v 9 10 0.0
v 8 10 0.0
vt 0.5 0.5625
vt 0.5625 0.5625
vt 0.5625 0.625
vt 0.5 0.625
f 1073/1073/3 1074/1074/3 1075/1075/3 1076/1076/3
v 9 9 1.0
v 9 9 0.0
v 9 10 0.0
v 9 10 1.0
vt 0.5 0.5625
vt 0.5625 0.5625
vt 0.5625 0.625
vt 0.5 0.625
f 1077/1077/5 1078/1078/5 1079/1079/5 1080/1080/5
v 3 8 1.0
v 4 8 1.0
v 4 9 1.0
v 3 9 1.0
vt 0.1875 0.5
vt 0.25 0.5
vt 0.25 0.5625
vt 0.1875 0.5625
f 1081/1081/1 1082/1082/1 1083/1083/1 1084/1084/1
v 4 8 0.0
v 3 8 0.0
v 3 9 0.0
v 4 9 0.0
vt 0.25 0.5
vt 0.1875 0.5
vt 0.1875 0.5625
vt 0.25 0.5625
f 1085/1085/2 1086/1086/2 1087/1087/2 1088/1088/2
v 3 9 1.0
v 4 9 1.0
v 4 9 0.0
v 3 9 0.0
vt 0.1875 0.5
vt 0.25 0.5
vt 0.25 0.5625
vt 0.1875 0.5625
f 1089/1089/3 1090/1090/3 1091/1091/3 1092/1092/3
v 3 8 0.0
v 3 8 1.0
v 3 9 1.0
v 3 9 0.0
vt 0.1875 0.5
vt 0.25 0.5
vt 0.25 0.5625
vt 0.1875 0.5625
f 1093/1093/6 1094/1094/6 1095/1095/6 1096/1096/6
v 4 8 1.0
v 5 8 1.0
v 5 9 1.0
v 4 9 1.0
vt 0.25 0.5
vt 0.3125 0.5
vt 0.3125 0.5625
vt 0.25 0.5625
f 1097/1097/1 1098/1098/1 1099/1099/1 1100/1100/1
v 5 8 0.0
v 4 8 0.0
v 4 9 0.0
v 5 9 0.0
vt 0.3125 0.5
vt 0.25 0.5
vt 0.25 0.5625
vt 0.3125 0.5625
f 1101/1101/2 1102/1102/2 1103/1103/2 1104/1104/2
v 4 9 1.0
v 5 9 1.0
v 5 9 0.0
v 4 9 0.0
vt 0.25 0.5
vt 0.3125 0.5
vt 0.3125 0.5625
vt 0.25 0.5625
f 1105/1105/3 1106/1106/3 1107/1107/3 1108/1108/3
v 5 8 1.0
v 6 8 1.0
v 6 9 1.0
v 5 9 1.0
vt 0.3125 0.5
vt 0.375 0.5
vt 0.375 0.5625
vt 0.3125 0.5625
f 1109/1109/1 1110/1110/1 1111/1111/1 1112/1112/1
v 6 8 0.0
v 5 8 0.0
v 5 9 0.0
v 6 9 0.0
vt 0.375 0.5
vt 0.3125 0.5
vt 0.3125 0.5625
vt 0.375 0.5625
f 1113/1113/2 1114/1114/2 1115/1115/2 1116/1116/2
v 6 8 1.0
v 7 8 1.0
v 7 9 1.0
v 6 9 1.0
vt 0.375 0.5
vt 0.4375 0.5
vt 0.4375 0.5625
vt 0.375 0.5625
f 1117/1117/1 1118/1118/1 1119/1119/1 1120/1120/1
v 7 8 0.0
v 6 8 0.0
v 6 9 0.0
v 7 9 0.0
vt 0.4375 0.5
vt 0.375 0.5
vt 0.375 0.5625
vt 0.4375 0.5625
f 1121/1121/2 1122/1122/2 1123/1123/2 1124/1124/2
v 7 8 1.0
v 8 8 1.0
v 8 9 1.0
v 7 9 1.0
vt 0.4375 0.5
vt 0.5 0.5
vt 0.5 0.5625
vt 0.4375 0.5625
f 1125/1125/1 1126/1126/1 1127/1127/1 1128/1128/1
v 8 8 0.0
v 7 8 0.0
v 7 9 0.0
v 8 9 0.0
vt 0.5 0.5
vt 0.4375 0.5
vt 0.4375 0.5625
vt 0.5 0.5625
f 1129/1129/2 1130/1130/2 1131/1131/2 1132/1132/2
v 8 8 1.0
v 9 8 1.0
v 9 9 1.0
v 8 9 1.0
vt 0.5 0.5
vt 0.5625 0.5
vt 0.5625 0.5625
vt 0.5 0.5625
f 1133/1133/1 1134/1134/1 1135/1135/1 1136/1136/1
v 9 8 0.0
v 8 8 0.0
v 8 9 0.0
v 9 9 0.0
vt 0.5625 0.5
vt 0.5 0.5
vt 0.5 0.5625
vt 0.5625 0.5625
f 1137/1137/2 1138/1138/2 1139/1139/2 1140/1140/2
v 9 8 1.0
v 10 8 1.0
v 10 9 1.0
v 9 9 1.0
vt 0.5625 0.5
vt 0.625 0.5
vt 0.625 0.5625
vt 0.5625 0.5625
f 1141/1141/1 1142/1142/1 1143/1143/1 1144/1144/1
v 10 8 0.0
v 9 8 0.0
v 9 9 0.0
v 10 9 0.0
vt 0.625 0.5
vt 0.5625 0.5
vt 0.5625 0.5625
vt 0.625 0.5625
f 1145/1145/2 1146/1146/2 1147/1147/2 1148/1148/2
v 9 9 1.0
v 10 9 1.0
v 10 9 0.0
v 9 9 0.0
vt 0.5625 0.5
vt 0.625 0.5
vt 0.625 0.5625
vt 0.5625 0.5625
f 1149/1149/3 1150/1150/3 1151/1151/3 1152/1152/3
v 10 8 1.0
v 10 8 0.0
v 10 9 0.0
v 10 9 1.0
vt 0.5625 0.5
vt 0.625 0.5
vt 0.625 0.5625
vt 0.5625 0.5625
f 1153/1153/5 1154/1154/5 1155/1155/5 1156/1156/5
v 0 7 1.0
v 1 7 1.0
v 1 8 1.0
v 0 8 1.0
vt 0.0 0.4375
vt 0.0625 0.4375
vt 0.0625 0.5
vt 0.0 0.5
f 1157/1157/1 1158/1158/1 1159/1159/1 1160/1160/1
v 1 7 0.0
v 0 7 0.0
v 0 8 0.0
v 1 8 0.0
vt 0.0625 0.4375
vt 0.0 0.4375
vt 0.0 0.5
vt 0.0625 0.5
f 1161/1161/2 1162/1162/2 1163/1163/2 1164/1164/2
v 0 8 1.0
v 1 8 1.0
v 1 8 0.0
v 0 8 0.0
vt 0.0 0.4375
vt 0.0625 0.4375
vt 0.0625 0.5
vt 0.0 0.5
f 1165/1165/3 1166/1166/3 1167/1167/3 1168/1168/3
v 0 7 0.0
v 0 7 1.0
v 0 8 1.0
v 0 8 0.0
vt 0.0 0.4375
vt 0.0625 0.4375
vt 0.0625 0.5
vt 0.0 0.5
f 1169/1169/6 1170/1170/6 1171/1171/6 1172/1172/6
v 1 7 1.0
v 2 7 1.0
v 2 8 1.0
v 1 8 1.0
vt 0.0625 0.4375
vt 0.125 0.4375
vt 0.125 0.5
vt 0.0625 0.5
f 1173/1173/1 1174/1174/1 1175/1175/1 1176/1176/1
v 2 7 0.0
v 1 7 0.0
v 1 8 0.0
v 2 8 0.0
vt 0.125 0.4375
vt 0.0625 0.4375
vt 0.0625 0.5
vt 0.125 0.5
f 1177/1177/2 1178/1178/2 1179/1179/2 1180/1180/2
v 1 8 1.0
v 2 8 1.0
v 2 8 0.0
v 1 8 0.0
vt 0.0625 0.4375
vt 0.125 0.4375
vt 0.125 0.5
vt 0.0625 0.5
f 1181/1181/3 1182/1182/3 1183/1183/3 1184/1184/3
v 2 7 1.0
v 3 7 1.0
v 3 8 1.0
v 2 8 1.0
vt 0.125 0.4375
vt 0.1875 0.4375
vt 0.1875 0.5
vt 0.125 0.5
f 1185/1185/1 1186/1186/1 1187/1187/1 1188/1188/1
v 3 7 0.0
v 2 7 0.0
v 2 8 0.0
v 3 8 0.0
vt 0.1875 0.4375
vt 0.125 0.4375
vt 0.125 0.5
vt 0.1875 0.5
f 1189/1189/2 1190/1190/2 1191/1191/2 1192/1192/2
v 2 8 1.0
v 3 8 1.0
v 3 8 0.0
v 2 8 0.0
vt 0.125 0.4375
vt 0.1875 0.4375
vt 0.1875 0.5
vt 0.125 0.5
f 1193/1193/3 1194/1194/3 1195/1195/3 1196/1196/3
v 3 7 1.0
v 4 7 1.0
v 4 8 1.0
v 3 8 1.0
vt 0.1875 0.4375
vt 0.25 0.4375
vt 0.25 0.5
vt 0.1875 0.5
f 1197/1197/1 1198/1198/1 1199/1199/1 1200/1200/1
v 4 7 0.0
v 3 7 0.0
v 3 8 0.0
v 4 8 0.0
vt 0.25 0.4375
vt 0.1875 0.4375
vt 0.1875 0.5
vt 0.25 0.5
f 1201/1201/2 1202/1202/2 1203/1203/2 1204/1204/2
v 4 7 1.0
v 5 7 1.0
v 5 8 1.0
v 4 8 1.0
vt 0.25 0.4375
vt 0.3125 0.4375
vt 0.3125 0.5
vt 0.25 0.5
f 1205/1205/1 1206/1206/1 1207/1207/1 1208/1208/1
v 5 7 0.0
v 4 7 0.0
v 4 8 0.0
v 5 8 0.0
vt 0.3125 0.4375
vt 0.25 0.4375
vt 0.25 0.5
vt 0.3125 0.5
f 1209/1209/2 1210/1210/2 1211/1211/2 1212/1212/2
v 5 7 1.0
v 6 7 1.0
v 6 8 1.0
v 5 8 1.0
vt 0.3125 0.4375
vt 0.375 0.4375
vt 0.375 0.5
vt 0.3125 0.5
f 1213/1213/1 1214/1214/1 1215/1215/1 1216/1216/1
v 6 7 0.0
v 5 7 0.0
v 5 8 0.0
v 6 8 0.0
vt 0.375 0.4375
vt 0.3125 0.4375
vt 0.3125 0.5
vt 0.375 0.5
f 1217/1217/2 1218/1218/2 1219/1219/2 1220/1220/2
v 6 7 1.0
v 7 7 1.0
v 7 8 1.0
v 6 8 1.0
vt 0.375 0.4375
vt 0.4375 0.4375
vt 0.4375 0.5
vt 0.375 0.5
f 1221/1221/1 1222/1222/1 1223/1223/1 1224/1224/1
v 7 7 0.0
v 6 7 0.0
v 6 8 0.0
v 7 8 0.0
vt 0.4375 0.4375
vt 0.375 0.4375
vt 0.375 0.5
vt 0.4375 0.5
f 1225/1225/2 1226/1226/2 1227/1227/2 1228/1228/2
v 7 7 1.0
v 8 7 1.0
v 8 8 1.0
v 7 8 1.0
vt 0.4375 0.4375
vt 0.5 0.4375
vt 0.5 0.5
vt 0.4375 0.5
f 1229/1229/1 1230/1230/1 1231/1231/1 1232/1232/1
v 8 7 0.0
v 7 7 0.0
v 7 8 0.0
v 8 8 0.0
vt 0.5 0.4375
vt 0.4375 0.4375
vt 0.4375 0.5
vt 0.5 0.5
f 1233/1233/2 1234/1234/2 1235/1235/2 1236/1236/2
v 8 7 1.0
v 9 7 1.0
v 9 8 1.0
v 8 8 1.0
vt 0.5 0.4375
vt 0.5625 0.4375
vt 0.5625 0.5
vt 0.5 0.5
f 1237/1237/1 1238/1238/1 1239/1239/1 1240/1240/1
v 9 7 0.0
v 8 7 0.0
v 8 8 0.0
v 9 8 0.0
vt 0.5625 0.4375
vt 0.5 0.4375
vt 0.5 0.5
vt 0.5625 0.5
f 1241/1241/2 1242/1242/2 1243/1243/2 1244/1244/2
v 9 7 1.0
v 10 7 1.0
v 10 8 1.0
v 9 8 1.0
vt 0.5625 0.4375
vt 0.625 0.4375
vt 0.625 0.5
vt 0.5625 0.5
f 1245/1245/1 1246/1246/1 1247/1247/1 1248/1248/1
v 10 7 0.0
v 9 7 0.0
v 9 8 0.0
v 10 8 0.0
vt 0.625 0.4375
vt 0.5625 0.4375
vt 0.5625 0.5
vt 0.625 0.5
f 1249/1249/2 1250/1250/2 1251/1251/2 1252/1252/2
v 9 7 0.0
v 10 7 0.0
v 10 7 1.0
v 9 7 1.0
vt 0.5625 0.4375
vt 0.625 0.4375
vt 0.625 0.5
vt 0.5625 0.5
f 1253/1253/4 1254/1254/4 1255/1255/4 1256/1256/4
v 10 7 1.0
v 10 7 0.0
v 10 8 0.0
v 10 8 1.0
vt 0.5625 0.4375
vt 0.625 0.4375
vt 0.625 0.5
vt 0.5625 0.5
f 1257/1257/5 1258/1258/5 1259/1259/5 1260/1260/5
v 0 6 1.0
v 1 6 1.0
v 1 7 1.0
v 0 7 1.0
vt 0.0 0.375
vt 0.0625 0.375
vt 0.0625 0.4375
vt 0.0 0.4375
f 1261/1261/1 1262/1262/1 1263/1263/1 1264/1264/1
v 1 6 0.0
v 0 6 0.0
v 0 7 0.0
v 1 7 0.0
vt 0.0625 0.375
vt 0.0 0.375
vt 0.0 0.4375
vt 0.0625 0.4375
f 1265/1265/2 1266/1266/2 1267/1267/2 1268/1268/2
v 0 6 0.0
v 0 6 1.0
v 0 7 1.0
v 0 7 0.0
vt 0.0 0.375
vt 0.0625 0.375
vt 0.0625 0.4375
vt 0.0 0.4375
f 1269/1269/6 1270/1270/6 1271/1271/6 1272/1272/6
v 1 6 1.0
v 2 6 1.0
v 2 7 1.0
v 1 7 1.0
vt 0.0625 0.375
vt 0.125 0.375
vt 0.125 0.4375
vt 0.0625 0.4375
f 1273/1273/1 1274/1274/1 1275/1275/1 1276/1276/1
v 2 6 0.0
v 1 6 0.0
v 1 7 0.0
v 2 7 0.0
vt 0.125 0.375
vt 0.0625 0.375
vt 0.0625 0.4375
vt 0.125 0.4375
f 1277/1277/2 1278/1278/2 1279/1279/2 1280/1280/2
v 2 6 1.0
v 3 6 1.0
v 3 7 1.0
v 2 7 1.0
vt 0.125 0.375
vt 0.1875 0.375
vt 0.1875 0.4375
vt 0.125 0.4375
f 1281/1281/1 1282/1282/1 1283/1283/1 1284/1284/1
v 3 6 0.0
v 2 6 0.0
v 2 7 0.0
v 3 7 0.0
vt 0.1875 0.375
vt 0.125 0.375
vt 0.125 0.4375
vt 0.1875 0.4375
f 1285/1285/2 1286/1286/2 1287/1287/2 1288/1288/2
v 3 6 1.0
v 4 6 1.0
v 4 7 1.0
v 3 7 1.0
vt 0.1875 0.375
vt 0.25 0.375
vt 0.25 0.4375
vt 0.1875 0.4375
f 1289/1289/1 1290/1290/1 1291/1291/1 1292/1292/1
v 4 6 0.0
v 3 6 0.0
v 3 7 0.0
v 4 7 0.0
vt 0.25 0.375
vt 0.1875 0.375
vt 0.1875 0.4375
vt 0.25 0.4375
f 1293/1293/2 1294/1294/2 1295/1295/2 1296/1296/2
v 4 6 1.0
v 5 6 1.0
v 5 7 1.0
v 4 7 1.0
vt 0.25 0.375
vt 0.3125 0.375
vt 0.3125 0.4375
vt 0.25 0.4375
f 1297/1297/1 1298/1298/1 1299/1299/1 1300/1300/1
v 5 6 0.0
v 4 6 0.0
v 4 7 0.0
v 5 7 0.0
vt 0.3125 0.375
vt 0.25 0.375
vt 0.25 0.4375
vt 0.3125 0.4375
f 1301/1301/2 1302/1302/2 1303/1303/2 1304/1304/2
v 5 6 1.0
v 6 6 1.0
v 6 7 1.0
v 5 7 1.0
vt 0.3125 0.375
vt 0.375 0.375
vt 0.375 0.4375
vt 0.3125 0.4375
f 1305/1305/1 1306/1306/1 1307/1307/1 1308/1308/1
v 6 6 0.0
v 5 6 0.0
v 5 7 0.0
v 6 7 0.0
vt 0.375 0.375
vt 0.3125 0.375
vt 0.3125 0.4375
vt 0.375 0.4375
f 1309/1309/2 1310/1310/2 1311/1311/2 1312/1312/2
v 6 6 1.0
v 7 6 1.0
v 7 7 1.0
v 6 7 1.0
vt 0.375 0.375
vt 0.4375 0.375
vt 0.4375 0.4375
vt 0.375 0.4375
f 1313/1313/1 1314/1314/1 1315/1315/1 1316/1316/1
v 7 6 0.0
v 6 6 0.0
v 6 7 0.0
v 7 7 0.0
vt 0.4375 0.375
vt 0.375 0.375
vt 0.375 0.4375
vt 0.4375 0.4375
f 1317/1317/2 1318/1318/2 1319/1319/2 1320/1320/2
v 7 6 1.0
v 8 6 1.0
v 8 7 1.0
v 7 7 1.0
vt 0.4375 0.375
vt 0.5 0.375
vt 0.5 0.4375
vt 0.4375 0.4375
f 1321/1321/1 1322/1322/1 1323/1323/1 1324/1324/1
v 8 6 0.0
v 7 6 0.0
v 7 7 0.0
v 8 7 0.0
vt 0.5 0.375
vt 0.4375 0.375
vt 0.4375 0.4375
vt 0.5 0.4375
f 1325/1325/2 1326/1326/2 1327/1327/2 1328/1328/2
v 8 6 1.0
v 9 6 1.0
v 9 7 1.0
v 8 7 1.0
vt 0.5 0.375
vt 0.5625 0.375
vt 0.5625 0.4375
vt 0.5 0.4375
f 1329/1329/1 1330/1330/1 1331/1331/1 1332/1332/1
v 9 6 0.0
v 8 6 0.0
v 8 7 0.0
v 9 7 0.0
vt 0.5625 0.375
vt 0.5 0.375
vt 0.5 0.4375
vt 0.5625 0.4375
f 1333/1333/2 1334/1334/2 1335/1335/2 1336/1336/2
v 8 6 0.0
v 9 6 0.0
v 9 6 1.0
v 8 6 1.0
vt 0.5 0.375
vt 0.5625 0.375
vt 0.5625 0.4375
vt 0.5 0.4375
f 1337/1337/4 1338/1338/4 1339/1339/4 1340/1340/4
v 9 6 1.0
v 9 6 0.0
v 9 7 0.0
v 9 7 1.0
vt 0.5 0.375
vt 0.5625 0.375
vt 0.5625 0.4375
vt 0.5 0.4375
f 1341/1341/5 1342/1342/5 1343/1343/5 1344/1344/5
v 0 5 1.0
v 1 5 1.0
v 1 6 1.0
v 0 6 1.0
vt 0.0 0.3125
vt 0.0625 0.3125
vt 0.0625 0.375
vt 0.0 0.375
f 1345/1345/1 1346/1346/1 1347/1347/1 1348/1348/1
v 1 5 0.0
v 0 5 0.0
v 0 6 0.0
v 1 6 0.0
vt 0.0625 0.3125
vt 0.0 0.3125
vt 0.0 0.375
vt 0.0625 0.375
f 1349/1349/2 1350/1350/2 1351/1351/2 1352/1352/2
v 0 5 0.0
v 0 5 1.0
v 0 6 1.0
v 0 6 0.0
vt 0.0 0.3125
vt 0.0625 0.3125
vt 0.0625 0.375
vt 0.0 0.375
f 1353/1353/6 1354/1354/6 1355/1355/6 1356/1356/6
v 1 5 1.0
v 2 5 1.0
v 2 6 1.0
v 1 6 1.0
vt 0.0625 0.3125
vt 0.125 0.3125
vt 0.125 0.375
vt 0.0625 0.375
f 1357/1357/1 1358/1358/1 1359/1359/1 1360/1360/1
v 2 5 0.0
v 1 5 0.0
v 1 6 0.0
v 2 6 0.0
vt 0.125 0.3125
vt 0.0625 0.3125
vt 0.0625 0.375
vt 0.125 0.375
f 1361/1361/2 1362/1362/2 1363/1363/2 1364/1364/2
v 2 5 1.0
v 3 5 1.0
v 3 6 1.0
v 2 6 1.0
vt 0.125 0.3125
vt 0.1875 0.3125
vt 0.1875 0.375
vt 0.125 0.375
f 1365/1365/1 1366/1366/1 1367/1367/1 1368/1368/1
v 3 5 0.0
v 2 5 0.0
v 2 6 0.0
v 3 6 0.0
vt 0.1875 0.3125
vt 0.125 0.3125
vt 0.125 0.375
vt 0.1875 0.375
f 1369/1369/2 1370/1370/2 1371/1371/2 1372/1372/2
v 3 5 1.0
v 4 5 1.0
v 4 6 1.0
v 3 6 1.0
vt 0.1875 0.3125
vt 0.25 0.3125
vt 0.25 0.375
vt 0.1875 0.375
f 1373/1373/1 1374/1374/1 1375/1375/1 1376/1376/1
v 4 5 0.0
v 3 5 0.0
v 3 6 0.0
v 4 6 0.0
vt 0.25 0.3125
vt 0.1875 0.3125
vt 0.1875 0.375
vt 0.25 0.375
f 1377/1377/2 1378/1378/2 1379/1379/2 1380/1380/2
v 4 5 1.0
v 5 5 1.0
v 5 6 1.0
v 4 6 1.0
vt 0.25 0.3125
vt 0.3125 0.3125
vt 0.3125 0.375
vt 0.25 0.375
f 1381/1381/1 1382/1382/1 1383/1383/1 1384/1384/1
v 5 5 0.0
v 4 5 0.0
v 4 6 0.0
v 5 6 0.0
vt 0.3125 0.3125
vt 0.25 0.3125
vt 0.25 0.375
vt 0.3125 0.375
f 1385/1385/2 1386/1386/2 1387/1387/2 1388/1388/2
v 5 5 1.0
v 6 5 1.0
v 6 6 1.0
v 5 6 1.0
vt 0.3125 0.3125
vt 0.375 0.3125
vt 0.375 0.375
vt 0.3125 0.375
f 1389/1389/1 1390/1390/1 1391/1391/1 1392/1392/1
v 6 5 0.0
v 5 5 0.0
v 5 6 0.0
v 6 6 0.0
vt 0.375 0.3125
vt 0.3125 0.3125
vt 0.3125 0.375
vt 0.375 0.375
f 1393/1393/2 1394/1394/2 1395/1395/2 1396/1396/2
v 6 5 1.0
v 7 5 1.0
v 7 6 1.0
v 6 6 1.0
vt 0.375 0.3125
vt 0.4375 0.3125
vt 0.4375 0.375
vt 0.375 0.375
f 1397/1397/1 1398/1398/1 1399/1399/1 1400/1400/1
v 7 5 0.0
v 6 5 0.0
v 6 6 0.0
v 7 6 0.0
vt 0.4375 0.3125
vt 0.375 0.3125
vt 0.375 0.375
vt 0.4375 0.375
f 1401/1401/2 1402/1402/2 1403/1403/2 1404/1404/2
v 7 5 1.0
v 8 5 1.0
v 8 6 1.0
v 7 6 1.0
vt 0.4375 0.3125
vt 0.5 0.3125
vt 0.5 0.375
vt 0.4375 0.375
f 1405/1405/1 1406/1406/1 1407/1407/1 1408/1408/1
v 8 5 0.0
v 7 5 0.0
v 7 6 0.0
v 8 6 0.0
vt 0.5 0.3125
vt 0.4375 0.3125
vt 0.4375 0.375
vt 0.5 0.375
f 1409/1409/2 1410/1410/2 1411/1411/2 1412/1412/2
v 8 5 1.0
v 8 5 0.0
v 8 6 0.0
v 8 6 1.0
vt 0.4375 0.3125
vt 0.5 0.3125
vt 0.5 0.375
vt 0.4375 0.375
f 1413/1413/5 1414/1414/5 1415/1415/5 1416/1416/5
v 0 4 1.0
v 1 4 1.0
v 1 5 1.0
v 0 5 1.0
vt 0.0 0.25
vt 0.0625 0.25
vt 0.0625 0.3125
vt 0.0 0.3125
f 1417/1417/1 1418/1418/1 1419/1419/1 1420/1420/1
v 1 4 0.0
v 0 4 0.0
v 0 5 0.0
v 1 5 0.0
vt 0.0625 0.25
vt 0.0 0.25
vt 0.0 0.3125
vt 0.0625 0.3125
f 1421/1421/2 1422/1422/2 1423/1423/2 1424/1424/2
v 0 4 0.0
v 1 4 0.0
v 1 4 1.0
v 0 4 1.0
vt 0.0 0.25
vt 0.0625 0.25
vt 0.0625 0.3125
vt 0.0 0.3125
f 1425/1425/4 1426/1426/4 1427/1427/4 1428/1428/4
v 0 4 0.0
v 0 4 1.0
v 0 5 1.0
v 0 5 0.0
vt 0.0 0.25
vt 0.0625 0.25
vt 0.0625 0.3125
vt 0.0 0.3125
f 1429/1429/6 1430/1430/6 1431/1431/6 1432/1432/6
v 1 4 1.0
v 2 4 1.0
v 2 5 1.0
v 1 5 1.0
vt 0.0625 0.25
vt 0.125 0.25
vt 0.125 0.3125
vt 0.0625 0.3125
f 1433/1433/1 1434/1434/1 1435/1435/1 1436/1436/1
v 2 4 0.0
v 1 4 0.0
v 1 5 0.0
v 2 5 0.0
vt 0.125 0.25
vt 0.0625 0.25
vt 0.0625 0.3125
vt 0.125 0.3125
f 1437/1437/2 1438/1438/2 1439/1439/2 1440/1440/2
v 2 4 1.0
v 3 4 1.0
v 3 5 1.0
v 2 5 1.0
vt 0.125 0.25
vt 0.1875 0.25
vt 0.1875 0.3125
vt 0.125 0.3125
f 1441/1441/1 1442/1442/1 1443/1443/1 1444/1444/1
v 3 4 0.0
v 2 4 0.0
v 2 5 0.0
v 3 5 0.0
vt 0.1875 0.25
vt 0.125 0.25
vt 0.125 0.3125
vt 0.1875 0.3125
f 1445/1445/2 1446/1446/2 1447/1447/2 1448/1448/2
v 3 4 1.0
v 4 4 1.0
v 4 5 1.0
v 3 5 1.0
vt 0.1875 0.25
vt 0.25 0.25
vt 0.25 0.3125
vt 0.1875 0.3125
f 1449/1449/1 1450/1450/1 1451/1451/1 1452/1452/1
v 4 4 0.0
v 3 4 0.0
v 3 5 0.0
v 4 5 0.0
vt 0.25 0.25
vt 0.1875 0.25
vt 0.1875 0.3125
vt 0.25 0.3125
f 1453/1453/2 1454/1454/2 1455/1455/2 1456/1456/2
v 4 4 1.0
v 5 4 1.0
v 5 5 1.0
v 4 5 1.0
vt 0.25 0.25
vt 0.3125 0.25
vt 0.3125 0.3125
vt 0.25 0.3125
f 1457/1457/1 1458/1458/1 1459/1459/1 1460/1460/1
v 5 4 0.0
v 4 4 0.0
v 4 5 0.0
v 5 5 0.0
vt 0.3125 0.25
vt 0.25 0.25
vt 0.25 0.3125
vt 0.3125 0.3125
f 1461/1461/2 1462/1462/2 1463/1463/2 1464/1464/2
v 5 4 1.0
v 6 4 1.0
v 6 5 1.0
v 5 5 1.0
vt 0.3125 0.25
vt 0.375 0.25
vt 0.375 0.3125
vt 0.3125 0.3125
f 1465/1465/1 1466/1466/1 1467/1467/1 1468/1468/1
v 6 4 0.0
v 5 4 0.0
v 5 5 0.0
v 6 5 0.0
vt 0.375 0.25
vt 0.3125 0.25
vt 0.3125 0.3125
vt 0.375 0.3125
f 1469/1469/2 1470/1470/2 1471/1471/2 1472/1472/2
v 6 4 1.0
v 7 4 1.0
v 7 5 1.0
v 6 5 1.0
vt 0.375 0.25
vt 0.4375 0.25
vt 0.4375 0.3125
vt 0.375 0.3125
f 1473/1473/1 1474/1474/1 1475/1475/1 1476/1476/1
v 7 4 0.0
v 6 4 0.0
v 6 5 0.0
v 7 5 0.0
vt 0.4375 0.25
vt 0.375 0.25
vt 0.375 0.3125
vt 0.4375 0.3125
f 1477/1477/2 1478/1478/2 1479/1479/2 1480/1480/2
v 7 4 1.0
v 8 4 1.0
v 8 5 1.0
v 7 5 1.0
vt 0.4375 0.25
vt 0.5 0.25
vt 0.5 0.3125
vt 0.4375 0.3125
f 1481/1481/1 1482/1482/1 1483/1483/1 1484/1484/1
v 8 4 0.0
v 7 4 0.0
v 7 5 0.0
v 8 5 0.0
vt 0.5 0.25
vt 0.4375 0.25
vt 0.4375 0.3125
vt 0.5 0.3125
f 1485/1485/2 1486/1486/2 1487/1487/2 1488/1488/2
v 7 4 0.0
v 8 4 0.0
v 8 4 1.0
v 7 4 1.0
vt 0.4375 0.25
vt 0.5 0.25
vt 0.5 0.3125
vt 0.4375 0.3125
f 1489/1489/4 1490/1490/4 1491/1491/4 1492/1492/4
v 8 4 1.0
v 8 4 0.0
v 8 5 0.0
v 8 5 1.0
vt 0.4375 0.25
vt 0.5 0.25
vt 0.5 0.3125
vt 0.4375 0.3125
f 1493/1493/5 1494/1494/5 1495/1495/5 1496/1496/5
v 1 3 1.0
v 2 3 1.0
v 2 4 1.0
v 1 4 1.0
vt 0.0625 0.1875
vt 0.125 0.1875
vt 0.125 0.25
vt 0.0625 0.25
f 1497/1497/1 1498/1498/1 1499/1499/1 1500/1500/1
v 2 3 0.0
v 1 3 0.0
v 1 4 0.0
v 2 4 0.0
vt 0.125 0.1875
vt 0.0625 0.1875
vt 0.0625 0.25
vt 0.125 0.25
f 1501/1501/2 1502/1502/2 1503/1503/2 1504/1504/2
v 1 3 0.0
v 2 3 0.0
v 2 3 1.0
v 1 3 1.0
vt 0.0625 0.1875
vt 0.125 0.1875
vt 0.125 0.25
vt 0.0625 0.25
f 1505/1505/4 1506/1506/4 1507/1507/4 1508/1508/4
v 1 3 0.0
v 1 3 1.0
v 1 4 1.0
v 1 4 0.0
vt 0.0625 0.1875
vt 0.125 0.1875
vt 0.125 0.25
vt 0.0625 0.25
f 1509/1509/6 1510/1510/6 1511/1511/6 1512/1512/6
v 2 3 1.0
v 3 3 1.0
v 3 4 1.0
v 2 4 1.0
vt 0.125 0.1875
vt 0.1875 0.1875
vt 0.1875 0.25
vt 0.125 0.25
f 1513/1513/1 1514/1514/1 1515/1515/1 1516/1516/1
v 3 3 0.0
v 2 3 0.0
v 2 4 0.0
v 3 4 0.0
vt 0.1875 0.1875
vt 0.125 0.1875
vt 0.125 0.25
vt 0.1875 0.25
f 1517/1517/2 1518/1518/2 1519/1519/2 1520/1520/2
v 3 3 1.0
v 4 3 1.0
v 4 4 1.0
v 3 4 1.0
vt 0.1875 0.1875
vt 0.25 0.1875
vt 0.25 0.25
vt 0.1875 0.25
f 1521/1521/1 1522/1522/1 1523/1523/1 1524/1524/1
v 4 3 0.0
v 3 3 0.0
v 3 4 0.0
v 4 4 0.0
vt 0.25 0.1875
vt 0.1875 0.1875
vt 0.1875 0.25
vt 0.25 0.25
f 1525/1525/2 1526/1526/2 1527/1527/2 1528/1528/2
v 4 3 1.0
v 5 3 1.0
v 5 4 1.0
v 4 4 1.0
vt 0.25 0.1875
vt 0.3125 0.1875
vt 0.3125 0.25
vt 0.25 0.25
f 1529/1529/1 1530/1530/1 1531/1531/1 1532/1532/1
v 5 3 0.0
v 4 3 0.0
v 4 4 0.0
v 5 4 0.0
vt 0.3125 0.1875
vt 0.25 0.1875
vt 0.25 0.25
vt 0.3125 0.25
f 1533/1533/2 1534/1534/2 1535/1535/2 1536/1536/2
v 5 3 1.0
v 6 3 1.0
v 6 4 1.0
v 5 4 1.0
vt 0.3125 0.1875
vt 0.375 0.1875
vt 0.375 0.25
vt 0.3125 0.25
f 1537/1537/1 1538/1538/1 1539/1539/1 1540/1540/1
v 6 3 0.0
v 5 3 0.0
v 5 4 0.0
v 6 4 0.0
vt 0.375 0.1875
vt 0.3125 0.1875
vt 0.3125 0.25
vt 0.375 0.25
f 1541/1541/2 1542/1542/2 1543/1543/2 1544/1544/2
v 6 3 1.0
v 7 3 1.0
v 7 4 1.0
v 6 4 1.0
vt 0.375 0.1875
vt 0.4375 0.1875
vt 0.4375 0.25
vt 0.375 0.25
f 1545/1545/1 1546/1546/1 1547/1547/1 1548/1548/1
v 7 3 0.0
v 6 3 0.0
v 6 4 0.0
v 7 4 0.0
vt 0.4375 0.1875
vt 0.375 0.1875
vt 0.375 0.25
vt 0.4375 0.25
f 1549/1549/2 1550/1550/2 1551/1551/2 1552/1552/2
v 7 3 1.0
v 7 3 0.0
v 7 4 0.0
v 7 4 1.0
vt 0.375 0.1875
vt 0.4375 0.1875
vt 0.4375 0.25
vt 0.375 0.25
f 1553/1553/5 1554/1554/5 1555/1555/5 1556/1556/5
v 2 2 1.0
v 3 2 1.0
v 3 3 1.0
v 2 3 1.0
vt 0.125 0.125
vt 0.1875 0.125
vt 0.1875 0.1875
vt 0.125 0.1875
f 1557/1557/1 1558/1558/1 1559/1559/1 1560/1560/1
v 3 2 0.0
v 2 2 0.0
v 2 3 0.0
v 3 3 0.0
vt 0.1875 0.125
vt 0.125 0.125
vt 0.125 0.1875
vt 0.1875 0.1875
f 1561/1561/2 1562/1562/2 1563/1563/2 1564/1564/2
v 2 2 0.0
v 3 2 0.0
v 3 2 1.0
v 2 2 1.0
vt 0.125 0.125
vt 0.1875 0.125
vt 0.1875 0.1875
vt 0.125 0.1875
f 1565/1565/4 1566/1566/4 1567/1567/4 1568/1568/4
v 2 2 0.0
v 2 2 1.0
v 2 3 1.0
v 2 3 0.0
vt 0.125 0.125
vt 0.1875 0.125
vt 0.1875 0.1875
vt 0.125 0.1875
f 1569/1569/6 1570/1570/6 1571/1571/6 1572/1572/6
v 3 2 1.0
v 4 2 1.0
v 4 3 1.0
v 3 3 1.0
vt 0.1875 0.125
vt 0.25 0.125
vt 0.25 0.1875
vt 0.1875 0.1875
f 1573/1573/1 1574/1574/1 1575/1575/1 1576/1576/1
v 4 2 0.0
v 3 2 0.0
v 3 3 0.0
v 4 3 0.0
vt 0.25 0.125
vt 0.1875 0.125
vt 0.1875 0.1875
vt 0.25 0.1875
f 1577/1577/2 1578/1578/2 1579/1579/2 1580/1580/2
v 3 2 0.0
v 4 2 0.0
v 4 2 1.0
v 3 2 1.0
vt 0.1875 0.125
vt 0.25 0.125
vt 0.25 0.1875
vt 0.1875 0.1875
f 1581/1581/4 1582/1582/4 1583/1583/4 1584/1584/4
v 4 2 1.0
v 5 2 1.0
v 5 3 1.0
v 4 3 1.0
vt 0.25 0.125
vt 0.3125 0.125
vt 0.3125 0.1875
vt 0.25 0.1875
f 1585/1585/1 1586/1586/1 1587/1587/1 1588/1588/1
v 5 2 0.0
v 4 2 0.0
v 4 3 0.0
v 5 3 0.0
vt 0.3125 0.125
vt 0.25 0.125
vt 0.25 0.1875
vt 0.3125 0.1875
f 1589/1589/2 1590/1590/2 1591/1591/2 1592/1592/2
v 5 2 1.0
v 6 2 1.0
v 6 3 1.0
v 5 3 1.0
vt 0.3125 0.125
vt 0.375 0.125
vt 0.375 0.1875
vt 0.3125 0.1875
f 1593/1593/1 1594/1594/1 1595/1595/1 1596/1596/1
v 6 2 0.0
v 5 2 0.0
v 5 3 0.0
v 6 3 0.0
vt 0.375 0.125
vt 0.3125 0.125
vt 0.3125 0.1875
vt 0.375 0.1875
f 1597/1597/2 1598/1598/2 1599/1599/2 1600/1600/2
v 6 2 1.0
v 7 2 1.0
v 7 3 1.0
v 6 3 1.0
vt 0.375 0.125
vt 0.4375 0.125
vt 0.4375 0.1875
vt 0.375 0.1875
f 1601/1601/1 1602/1602/1 1603/1603/1 1604/1604/1
v 7 2 0.0
v 6 2 0.0
v 6 3 0.0
v 7 3 0.0
vt 0.4375 0.125
vt 0.375 0.125
vt 0.375 0.1875
vt 0.4375 0.1875
f 1605/1605/2 1606/1606/2 1607/1607/2 1608/1608/2
v 6 2 0.0
v 7 2 0.0
v 7 2 1.0
v 6 2 1.0
vt 0.375 0.125
vt 0.4375 0.125
vt 0.4375 0.1875
vt 0.375 0.1875
f 1609/1609/4 1610/1610/4 1611/1611/4 1612/1612/4
v 7 2 1.0
v 7 2 0.0
v 7 3 0.0
v 7 3 1.0
vt 0.375 0.125
vt 0.4375 0.125
vt 0.4375 0.1875
vt 0.375 0.1875
f 1613/1613/5 1614/1614/5 1615/1615/5 1616/1616/5
v 4 1 1.0
v 5 1 1.0
v 5 2 1.0
v 4 2 1.0
vt 0.25 0.0625
vt 0.3125 0.0625
vt 0.3125 0.125
vt 0.25 0.125
f 1617/1617/1 1618/1618/1 1619/1619/1 1620/1620/1
v 5 1 0.0
v 4 1 0.0
v 4 2 0.0
v 5 2 0.0
vt 0.3125 0.0625
vt 0.25 0.0625
vt 0.25 0.125
vt 0.3125 0.125
f 1621/1621/2 1622/1622/2 1623/1623/2 1624/1624/2
v 4 1 0.0
v 5 1 0.0
v 5 1 1.0
v 4 1 1.0
vt 0.25 0.0625
vt 0.3125 0.0625
vt 0.3125 0.125
vt 0.25 0.125
f 1625/1625/4 1626/1626/4 1627/1627/4 1628/1628/4
v 4 1 0.0
v 4 1 1.0
v 4 2 1.0
v 4 2 0.0
vt 0.25 0.0625
vt 0.3125 0.0625
vt 0.3125 0.125
vt 0.25 0.125
f 1629/1629/6 1630/1630/6 1631/1631/6 1632/1632/6
v 5 1 1.0
v 6 1 1.0
v 6 2 1.0
v 5 2 1.0
vt 0.3125 0.0625
vt 0.375 0.0625
vt 0.375 0.125
vt 0.3125 0.125
f 1633/1633/1 1634/1634/1 1635/1635/1 1636/1636/1
v 6 1 0.0
v 5 1 0.0
v 5 2 0.0
v 6 2 0.0
vt 0.375 0.0625
vt 0.3125 0.0625
vt 0.3125 0.125
vt 0.375 0.125
f 1637/1637/2 1638/1638/2 1639/1639/2 1640/1640/2
v 5 1 0.0
v 6 1 0.0
v 6 1 1.0
v 5 1 1.0
vt 0.3125 0.0625
vt 0.375 0.0625
vt 0.375 0.125
vt 0.3125 0.125
f 1641/1641/4 1642/1642/4 1643/1643/4 1644/1644/4
v 6 1 1.0
v 6 1 0.0
v 6 2 0.0
v 6 2 1.0
vt 0.3125 0.0625
vt 0.375 0.0625
vt 0.375 0.125
vt 0.3125 0.125
f 1645/1645/5 1646/1646/5 1647/1647/5 1648/1648/5
o mesh_mask_4
usemtl mat_蛋糕
v 10 7 1.0
v 11 7 1.0
v 11 8 1.0
v 10 8 1.0
vt 0.625 0.4375
vt 0.6875 0.4375
vt 0.6875 0.5
vt 0.625 0.5
f 1649/1649/1 1650/1650/1 1651/1651/1 1652/1652/1
v 11 7 0.0
v 10 7 0.0
v 10 8 0.0
v 11 8 0.0
vt 0.6875 0.4375
vt 0.625 0.4375
vt 0.625 0.5
vt 0.6875 0.5
f 1653/1653/2 1654/1654/2 1655/1655/2 1656/1656/2
v 10 8 1.0
v 11 8 1.0
v 11 8 0.0
v 10 8 0.0
vt 0.625 0.4375
vt 0.6875 0.4375
vt 0.6875 0.5
vt 0.625 0.5
f 1657/1657/3 1658/1658/3 1659/1659/3 1660/1660/3
v 11 7 1.0
v 11 7 0.0
v 11 8 0.0
v 11 8 1.0
vt 0.625 0.4375
vt 0.6875 0.4375
vt 0.6875 0.5
vt 0.625 0.5
f 1661/1661/5 1662/1662/5 1663/1663/5 1664/1664/5
v 10 7 0.0
v 10 7 1.0
v 10 8 1.0
v 10 8 0.0
vt 0.625 0.4375
vt 0.6875 0.4375
vt 0.6875 0.5
vt 0.625 0.5
f 1665/1665/6 1666/1666/6 1667/1667/6 1668/1668/6
v 9 6 1.0
v 10 6 1.0
v 10 7 1.0
v 9 7 1.0
vt 0.5625 0.375
vt 0.625 0.375
vt 0.625 0.4375
vt 0.5625 0.4375
f 1669/1669/1 1670/1670/1 1671/1671/1 1672/1672/1
v 10 6 0.0
v 9 6 0.0
v 9 7 0.0
v 10 7 0.0
vt 0.625 0.375
vt 0.5625 0.375
vt 0.5625 0.4375
vt 0.625 0.4375
f 1673/1673/2 1674/1674/2 1675/1675/2 1676/1676/2
v 9 7 1.0
v 10 7 1.0
v 10 7 0.0
v 9 7 0.0
vt 0.5625 0.375
vt 0.625 0.375
vt 0.625 0.4375
vt 0.5625 0.4375
f 1677/1677/3 1678/1678/3 1679/1679/3 1680/1680/3
v 9 6 0.0
v 9 6 1.0
v 9 7 1.0
v 9 7 0.0
vt 0.5625 0.375
vt 0.625 0.375
vt 0.625 0.4375
vt 0.5625 0.4375
f 1681/1681/6 1682/1682/6 1683/1683/6 1684/1684/6
v 10 6 1.0
v 11 6 1.0
v 11 7 1.0
v 10 7 1.0
vt 0.625 0.375
vt 0.6875 0.375
vt 0.6875 0.4375
vt 0.625 0.4375
f 1685/1685/1 1686/1686/1 1687/1687/1 1688/1688/1
v 11 6 0.0
v 10 6 0.0
v 10 7 0.0
v 11 7 0.0
vt 0.6875 0.375
vt 0.625 0.375
vt 0.625 0.4375
vt 0.6875 0.4375
f 1689/1689/2 1690/1690/2 1691/1691/2 1692/1692/2
v 11 6 1.0
v 12 6 1.0
v 12 7 1.0
v 11 7 1.0
vt 0.6875 0.375
vt 0.75 0.375
vt 0.75 0.4375
vt 0.6875 0.4375
f 1693/1693/1 1694/1694/1 1695/1695/1 1696/1696/1
v 12 6 0.0
v 11 6 0.0
v 11 7 0.0
v 12 7 0.0
vt 0.75 0.375
vt 0.6875 0.375
vt 0.6875 0.4375
vt 0.75 0.4375
f 1697/1697/2 1698/1698/2 1699/1699/2 1700/1700/2
v 11 7 1.0
v 12 7 1.0
v 12 7 0.0
v 11 7 0.0
vt 0.6875 0.375
vt 0.75 0.375
vt 0.75 0.4375
vt 0.6875 0.4375
f 1701/1701/3 1702/1702/3 1703/1703/3 1704/1704/3
v 12 6 1.0
v 13 6 1.0
v 13 7 1.0
v 12 7 1.0
vt 0.75 0.375
vt 0.8125 0.375
vt 0.8125 0.4375
vt 0.75 0.4375
f 1705/1705/1 1706/1706/1 1707/1707/1 1708/1708/1
v 13 6 0.0
v 12 6 0.0
v 12 7 0.0
v 13 7 0.0
vt 0.8125 0.375
vt 0.75 0.375
vt 0.75 0.4375
vt 0.8125 0.4375
f 1709/1709/2 1710/1710/2 1711/1711/2 1712/1712/2
v 12 7 1.0
v 13 7 1.0
v 13 7 0.0
v 12 7 0.0
vt 0.75 0.375
vt 0.8125 0.375
vt 0.8125 0.4375
vt 0.75 0.4375
f 1713/1713/3 1714/1714/3 1715/1715/3 1716/1716/3
v 13 6 1.0
v 14 6 1.0
v 14 7 1.0
v 13 7 1.0
vt 0.8125 0.375
vt 0.875 0.375
vt 0.875 0.4375
vt 0.8125 0.4375
f 1717/1717/1 1718/1718/1 1719/1719/1 1720/1720/1
v 14 6 0.0
v 13 6 0.0
v 13 7 0.0
v 14 7 0.0
vt 0.875 0.375
vt 0.8125 0.375
vt 0.8125 0.4375
vt 0.875 0.4375
f 1721/1721/2 1722/1722/2 1723/1723/2 1724/1724/2
v 13 7 1.0
v 14 7 1.0
v 14 7 0.0
v 13 7 0.0
vt 0.8125 0.375
vt 0.875 0.375
vt 0.875 0.4375
vt 0.8125 0.4375
f 1725/1725/3 1726/1726/3 1727/1727/3 1728/1728/3
v 14 6 1.0
v 14 6 0.0
v 14 7 0.0
v 14 7 1.0
vt 0.8125 0.375
vt 0.875 0.375
vt 0.875 0.4375
vt 0.8125 0.4375
f 1729/1729/5 1730/1730/5 1731/1731/5 1732/1732/5
v 8 5 1.0
v 9 5 1.0
v 9 6 1.0
v 8 6 1.0
vt 0.5 0.3125
vt 0.5625 0.3125
vt 0.5625 0.375
vt 0.5 0.375
f 1733/1733/1 1734/1734/1 1735/1735/1 1736/1736/1
v 9 5 0.0
v 8 5 0.0
v 8 6 0.0
v 9 6 0.0
vt 0.5625 0.3125
vt 0.5 0.3125
vt 0.5 0.375
vt 0.5625 0.375
f 1737/1737/2 1738/1738/2 1739/1739/2 1740/1740/2
v 8 6 1.0
v 9 6 1.0
v 9 6 0.0
v 8 6 0.0
vt 0.5 0.3125
vt 0.5625 0.3125
vt 0.5625 0.375
vt 0.5 0.375
f 1741/1741/3 1742/1742/3 1743/1743/3 1744/1744/3
v 8 5 0.0
v 8 5 1.0
v 8 6 1.0
v 8 6 0.0
vt 0.5 0.3125
vt 0.5625 0.3125
vt 0.5625 0.375
vt 0.5 0.375
f 1745/1745/6 1746/1746/6 1747/1747/6 1748/1748/6
v 9 5 1.0
v 10 5 1.0
v 10 6 1.0
v 9 6 1.0
vt 0.5625 0.3125
vt 0.625 0.3125
vt 0.625 0.375
vt 0.5625 0.375
f 1749/1749/1 1750/1750/1 1751/1751/1 1752/1752/1
v 10 5 0.0
v 9 5 0.0
v 9 6 0.0
v 10 6 0.0
vt 0.625 0.3125
vt 0.5625 0.3125
vt 0.5625 0.375
vt 0.625 0.375
f 1753/1753/2 1754/1754/2 1755/1755/2 1756/1756/2
v 10 5 1.0
v 11 5 1.0
v 11 6 1.0
v 10 6 1.0
vt 0.625 0.3125
vt 0.6875 0.3125
vt 0.6875 0.375
vt 0.625 0.375
f 1757/1757/1 1758/1758/1 1759/1759/1 1760/1760/1
v 11 5 0.0
v 10 5 0.0
v 10 6 0.0
v 11 6 0.0
vt 0.6875 0.3125
vt 0.625 0.3125
vt 0.625 0.375
vt 0.6875 0.375
f 1761/1761/2 1762/1762/2 1763/1763/2 1764/1764/2
v 11 5 1.0
v 12 5 1.0
v 12 6 1.0
v 11 6 1.0
vt 0.6875 0.3125
vt 0.75 0.3125
vt 0.75 0.375
vt 0.6875 0.375
f 1765/1765/1 1766/1766/1 1767/1767/1 1768/1768/1
v 12 5 0.0
v 11 5 0.0
v 11 6 0.0
v 12 6 0.0
vt 0.75 0.3125
vt 0.6875 0.3125
vt 0.6875 0.375
vt 0.75 0.375
f 1769/1769/2 1770/1770/2 1771/1771/2 1772/1772/2
v 12 5 1.0
v 13 5 1.0
v 13 6 1.0
v 12 6 1.0
vt 0.75 0.3125
vt 0.8125 0.3125
vt 0.8125 0.375
vt 0.75 0.375
f 1773/1773/1 1774/1774/1 1775/1775/1 1776/1776/1
v 13 5 0.0
v 12 5 0.0
v 12 6 0.0
v 13 6 0.0
vt 0.8125 0.3125
vt 0.75 0.3125
vt 0.75 0.375
vt 0.8125 0.375
f 1777/1777/2 1778/1778/2 1779/1779/2 1780/1780/2
v 13 5 1.0
v 14 5 1.0
v 14 6 1.0
v 13 6 1.0
vt 0.8125 0.3125
vt 0.875 0.3125
vt 0.875 0.375
vt 0.8125 0.375
f 1781/1781/1 1782/1782/1 1783/1783/1 1784/1784/1
v 14 5 0.0
v 13 5 0.0
v 13 6 0.0
v 14 6 0.0
vt 0.875 0.3125
vt 0.8125 0.3125
vt 0.8125 0.375
vt 0.875 0.375
f 1785/1785/2 1786/1786/2 1787/1787/2 1788/1788/2
v 14 5 1.0
v 15 5 1.0
v 15 6 1.0
v 14 6 1.0
vt 0.875 0.3125
vt 0.9375 0.3125
vt 0.9375 0.375
vt 0.875 0.375
f 1789/1789/1 1790/1790/1 1791/1791/1 1792/1792/1
v 15 5 0.0
v 14 5 0.0
v 14 6 0.0
v 15 6 0.0
vt 0.9375 0.3125
vt 0.875 0.3125
vt 0.875 0.375
vt 0.9375 0.375
f 1793/1793/2 1794/1794/2 1795/1795/2 1796/1796/2
v 14 6 1.0
v 15 6 1.0
v 15 6 0.0
v 14 6 0.0
vt 0.875 0.3125
vt 0.9375 0.3125
vt 0.9375 0.375
vt 0.875 0.375
f 1797/1797/3 1798/1798/3 1799/1799/3 1800/1800/3
v 15 5 1.0
v 16 5 1.0
v 16 6 1.0
v 15 6 1.0
vt 0.9375 0.3125
vt 1.0 0.3125
vt 1.0 0.375
vt 0.9375 0.375
f 1801/1801/1 1802/1802/1 1803/1803/1 1804/1804/1
v 16 5 0.0
v 15 5 0.0
v 15 6 0.0
v 16 6 0.0
vt 1.0 0.3125
vt 0.9375 0.3125
vt 0.9375 0.375
vt 1.0 0.375
f 1805/1805/2 1806/1806/2 1807/1807/2 1808/1808/2
v 15 6 1.0
v 16 6 1.0
v 16 6 0.0
v 15 6 0.0
vt 0.9375 0.3125
vt 1.0 0.3125
vt 1.0 0.375
vt 0.9375 0.375
f 1809/1809/3 1810/1810/3 1811/1811/3 1812/1812/3
v 16 5 1.0
v 16 5 0.0
v 16 6 0.0
v 16 6 1.0
vt 0.9375 0.3125
vt 1.0 0.3125
vt 1.0 0.375
vt 0.9375 0.375
f 1813/1813/5 1814/1814/5 1815/1815/5 1816/1816/5
v 8 4 1.0
v 9 4 1.0
v 9 5 1.0
v 8 5 1.0
vt 0.5 0.25
vt 0.5625 0.25
vt 0.5625 0.3125
vt 0.5 0.3125
f 1817/1817/1 1818/1818/1 1819/1819/1 1820/1820/1
v 9 4 0.0
v 8 4 0.0
v 8 5 0.0
v 9 5 0.0
vt 0.5625 0.25
vt 0.5 0.25
vt 0.5 0.3125
vt 0.5625 0.3125
f 1821/1821/2 1822/1822/2 1823/1823/2 1824/1824/2
v 8 4 0.0
v 8 4 1.0
v 8 5 1.0
v 8 5 0.0
vt 0.5 0.25
vt 0.5625 0.25
vt 0.5625 0.3125
vt 0.5 0.3125
f 1825/1825/6 1826/1826/6 1827/1827/6 1828/1828/6
v 9 4 1.0
v 10 4 1.0
v 10 5 1.0
v 9 5 1.0
vt 0.5625 0.25
vt 0.625 0.25
vt 0.625 0.3125
vt 0.5625 0.3125
f 1829/1829/1 1830/1830/1 1831/1831/1 1832/1832/1
v 10 4 0.0
v 9 4 0.0
v 9 5 0.0
v 10 5 0.0
vt 0.625 0.25
vt 0.5625 0.25
vt 0.5625 0.3125
vt 0.625 0.3125
f 1833/1833/2 1834/1834/2 1835/1835/2 1836/1836/2
v 10 4 1.0
v 11 4 1.0
v 11 5 1.0
v 10 5 1.0
vt 0.625 0.25
vt 0.6875 0.25
vt 0.6875 0.3125
vt 0.625 0.3125
f 1837/1837/1 1838/1838/1 1839/1839/1 1840/1840/1
v 11 4 0.0
v 10 4 0.0
v 10 5 0.0
v 11 5 0.0
vt 0.6875 0.25
vt 0.625 0.25
vt 0.625 0.3125
vt 0.6875 0.3125
f 1841/1841/2 1842/1842/2 1843/1843/2 1844/1844/2
v 11 4 1.0
v 12 4 1.0
v 12 5 1.0
v 11 5 1.0
vt 0.6875 0.25
vt 0.75 0.25
vt 0.75 0.3125
vt 0.6875 0.3125
f 1845/1845/1 1846/1846/1 1847/1847/1 1848/1848/1
v 12 4 0.0
v 11 4 0.0
v 11 5 0.0
v 12 5 0.0
vt 0.75 0.25
vt 0.6875 0.25
vt 0.6875 0.3125
vt 0.75 0.3125
f 1849/1849/2 1850/1850/2 1851/1851/2 1852/1852/2
v 12 4 1.0
v 13 4 1.0
v 13 5 1.0
v 12 5 1.0
vt 0.75 0.25
vt 0.8125 0.25
vt 0.8125 0.3125
vt 0.75 0.3125
f 1853/1853/1 1854/1854/1 1855/1855/1 1856/1856/1
v 13 4 0.0
v 12 4 0.0
v 12 5 0.0
v 13 5 0.0
vt 0.8125 0.25
vt 0.75 0.25
vt 0.75 0.3125
vt 0.8125 0.3125
f 1857/1857/2 1858/1858/2 1859/1859/2 1860/1860/2
v 13 4 1.0
v 14 4 1.0
v 14 5 1.0
v 13 5 1.0
vt 0.8125 0.25
vt 0.875 0.25
vt 0.875 0.3125
vt 0.8125 0.3125
f 1861/1861/1 1862/1862/1 1863/1863/1 1864/1864/1
v 14 4 0.0
v 13 4 0.0
v 13 5 0.0
v 14 5 0.0
vt 0.875 0.25
vt 0.8125 0.25
vt 0.8125 0.3125
vt 0.875 0.3125
f 1865/1865/2 1866/1866/2 1867/1867/2 1868/1868/2
v 14 4 1.0
v 15 4 1.0
v 15 5 1.0
v 14 5 1.0
vt 0.875 0.25
vt 0.9375 0.25
vt 0.9375 0.3125
vt 0.875 0.3125
f 1869/1869/1 1870/1870/1 1871/1871/1 1872/1872/1
v 15 4 0.0
v 14 4 0.0
v 14 5 0.0
v 15 5 0.0
vt 0.9375 0.25
vt 0.875 0.25
vt 0.875 0.3125
vt 0.9375 0.3125
f 1873/1873/2 1874/1874/2 1875/1875/2 1876/1876/2
v 15 4 1.0
v 16 4 1.0
v 16 5 1.0
v 15 5 1.0
vt 0.9375 0.25
vt 1.0 0.25
vt 1.0 0.3125
vt 0.9375 0.3125
f 1877/1877/1 1878/1878/1 1879/1879/1 1880/1880/1
v 16 4 0.0
v 15 4 0.0
v 15 5 0.0
v 16 5 0.0
vt 1.0 0.25
vt 0.9375 0.25
vt 0.9375 0.3125
vt 1.0 0.3125
f 1881/1881/2 1882/1882/2 1883/1883/2 1884/1884/2
v 15 4 0.0
v 16 4 0.0
v 16 4 1.0
v 15 4 1.0
vt 0.9375 0.25
vt 1.0 0.25
vt 1.0 0.3125
vt 0.9375 0.3125
f 1885/1885/4 1886/1886/4 1887/1887/4 1888/1888/4
v 16 4 1.0
v 16 4 0.0
v 16 5 0.0
v 16 5 1.0
vt 0.9375 0.25
vt 1.0 0.25
vt 1.0 0.3125
vt 0.9375 0.3125
f 1889/1889/5 1890/1890/5 1891/1891/5 1892/1892/5
v 7 3 1.0
v 8 3 1.0
v 8 4 1.0
v 7 4 1.0
vt 0.4375 0.1875
vt 0.5 0.1875
vt 0.5 0.25
vt 0.4375 0.25
f 1893/1893/1 1894/1894/1 1895/1895/1 1896/1896/1
v 8 3 0.0
v 7 3 0.0
v 7 4 0.0
v 8 4 0.0
vt 0.5 0.1875
vt 0.4375 0.1875
vt 0.4375 0.25
vt 0.5 0.25
f 1897/1897/2 1898/1898/2 1899/1899/2 1900/1900/2
v 7 4 1.0
v 8 4 1.0
v 8 4 0.0
v 7 4 0.0
vt 0.4375 0.1875
vt 0.5 0.1875
vt 0.5 0.25
vt 0.4375 0.25
f 1901/1901/3 1902/1902/3 1903/1903/3 1904/1904/3
v 7 3 0.0
v 7 3 1.0
v 7 4 1.0
v 7 4 0.0
vt 0.4375 0.1875
vt 0.5 0.1875
vt 0.5 0.25
vt 0.4375 0.25
f 1905/1905/6 1906/1906/6 1907/1907/6 1908/1908/6
v 8 3 1.0
v 9 3 1.0
v 9 4 1.0
v 8 4 1.0
vt 0.5 0.1875
vt 0.5625 0.1875
vt 0.5625 0.25
vt 0.5 0.25
f 1909/1909/1 1910/1910/1 1911/1911/1 1912/1912/1
v 9 3 0.0
v 8 3 0.0
v 8 4 0.0
v 9 4 0.0
vt 0.5625 0.1875
vt 0.5 0.1875
vt 0.5 0.25
vt 0.5625 0.25
f 1913/1913/2 1914/1914/2 1915/1915/2 1916/1916/2
v 9 3 1.0
v 10 3 1.0
v 10 4 1.0
v 9 4 1.0
vt 0.5625 0.1875
vt 0.625 0.1875
vt 0.625 0.25
vt 0.5625 0.25
f 1917/1917/1 1918/1918/1 1919/1919/1 1920/1920/1
v 10 3 0.0
v 9 3 0.0
v 9 4 0.0
v 10 4 0.0
vt 0.625 0.1875
vt 0.5625 0.1875
vt 0.5625 0.25
vt 0.625 0.25
f 1921/1921/2 1922/1922/2 1923/1923/2 1924/1924/2
v 10 3 1.0
v 11 3 1.0
v 11 4 1.0
v 10 4 1.0
vt 0.625 0.1875
vt 0.6875 0.1875
vt 0.6875 0.25
vt 0.625 0.25
f 1925/1925/1 1926/1926/1 1927/1927/1 1928/1928/1
v 11 3 0.0
v 10 3 0.0
v 10 4 0.0
v 11 4 0.0
vt 0.6875 0.1875
vt 0.625 0.1875
vt 0.625 0.25
vt 0.6875 0.25
f 1929/1929/2 1930/1930/2 1931/1931/2 1932/1932/2
v 11 3 1.0
v 12 3 1.0
v 12 4 1.0
v 11 4 1.0
vt 0.6875 0.1875
vt 0.75 0.1875
vt 0.75 0.25
vt 0.6875 0.25
f 1933/1933/1 1934/1934/1 1935/1935/1 1936/1936/1
v 12 3 0.0
v 11 3 0.0
v 11 4 0.0
v 12 4 0.0
vt 0.75 0.1875
vt 0.6875 0.1875
vt 0.6875 0.25
vt 0.75 0.25
f 1937/1937/2 1938/1938/2 1939/1939/2 1940/1940/2
v 12 3 1.0
v 13 3 1.0
v 13 4 1.0
v 12 4 1.0
vt 0.75 0.1875
vt 0.8125 0.1875
vt 0.8125 0.25
vt 0.75 0.25
f 1941/1941/1 1942/1942/1 1943/1943/1 1944/1944/1
v 13 3 0.0
v 12 3 0.0
v 12 4 0.0
v 13 4 0.0
vt 0.8125 0.1875
vt 0.75 0.1875
vt 0.75 0.25
vt 0.8125 0.25
f 1945/1945/2 1946/1946/2 1947/1947/2 1948/1948/2
v 13 3 1.0
v 14 3 1.0
v 14 4 1.0
v 13 4 1.0
vt 0.8125 0.1875
vt 0.875 0.1875
vt 0.875 0.25
vt 0.8125 0.25
f 1949/1949/1 1950/1950/1 1951/1951/1 1952/1952/1
v 14 3 0.0
v 13 3 0.0
v 13 4 0.0
v 14 4 0.0
vt 0.875 0.1875
vt 0.8125 0.1875
vt 0.8125 0.25
vt 0.875 0.25
f 1953/1953/2 1954/1954/2 1955/1955/2 1956/1956/2
v 14 3 1.0
v 15 3 1.0
v 15 4 1.0
v 14 4 1.0
vt 0.875 0.1875
vt 0.9375 0.1875
vt 0.9375 0.25
vt 0.875 0.25
f 1957/1957/1 1958/1958/1 1959/1959/1 1960/1960/1
v 15 3 0.0
v 14 3 0.0
v 14 4 0.0
v 15 4 0.0
vt 0.9375 0.1875
vt 0.875 0.1875
vt 0.875 0.25
vt 0.9375 0.25
f 1961/1961/2 1962/1962/2 1963/1963/2 1964/1964/2
v 14 3 0.0
v 15 3 0.0
v 15 3 1.0
v 14 3 1.0
vt 0.875 0.1875
vt 0.9375 0.1875
vt 0.9375 0.25
vt 0.875 0.25
f 1965/1965/4 1966/1966/4 1967/1967/4 1968/1968/4
v 15 3 1.0
v 15 3 0.0
v 15 4 0.0
v 15 4 1.0
vt 0.875 0.1875
vt 0.9375 0.1875
vt 0.9375 0.25
vt 0.875 0.25
f 1969/1969/5 1970/1970/5 1971/1971/5 1972/1972/5
v 7 2 1.0
v 8 2 1.0
v 8 3 1.0
v 7 3 1.0
vt 0.4375 0.125
vt 0.5 0.125
vt 0.5 0.1875
vt 0.4375 0.1875
f 1973/1973/1 1974/1974/1 1975/1975/1 1976/1976/1
v 8 2 0.0
v 7 2 0.0
v 7 3 0.0
v 8 3 0.0
vt 0.5 0.125
vt 0.4375 0.125
vt 0.4375 0.1875
vt 0.5 0.1875
f 1977/1977/2 1978/1978/2 1979/1979/2 1980/1980/2
v 7 2 0.0
v 7 2 1.0
v 7 3 1.0
v 7 3 0.0
vt 0.4375 0.125
vt 0.5 0.125
vt 0.5 0.1875
vt 0.4375 0.1875
f 1981/1981/6 1982/1982/6 1983/1983/6 1984/1984/6
v 8 2 1.0
v 9 2 1.0
v 9 3 1.0
v 8 3 1.0
vt 0.5 0.125
vt 0.5625 0.125
vt 0.5625 0.1875
vt 0.5 0.1875
f 1985/1985/1 1986/1986/1 1987/1987/1 1988/1988/1
v 9 2 0.0
v 8 2 0.0
v 8 3 0.0
v 9 3 0.0
vt 0.5625 0.125
vt 0.5 0.125
vt 0.5 0.1875
vt 0.5625 0.1875
f 1989/1989/2 1990/1990/2 1991/1991/2 1992/1992/2
v 9 2 1.0
v 10 2 1.0
v 10 3 1.0
v 9 3 1.0
vt 0.5625 0.125
vt 0.625 0.125
vt 0.625 0.1875
vt 0.5625 0.1875
f 1993/1993/1 1994/1994/1 1995/1995/1 1996/1996/1
v 10 2 0.0
v 9 2 0.0
v 9 3 0.0
v 10 3 0.0
vt 0.625 0.125
vt 0.5625 0.125
vt 0.5625 0.1875
vt 0.625 0.1875
f 1997/1997/2 1998/1998/2 1999/1999/2 2000/2000/2
v 10 2 1.0
v 11 2 1.0
v 11 3 1.0
v 10 3 1.0
vt 0.625 0.125
vt 0.6875 0.125
vt 0.6875 0.1875
vt 0.625 0.1875
f 2001/2001/1 2002/2002/1 2003/2003/1 2004/2004/1
v 11 2 0.0
v 10 2 0.0
v 10 3 0.0
v 11 3 0.0
vt 0.6875 0.125
vt 0.625 0.125
vt 0.625 0.1875
vt 0.6875 0.1875
f 2005/2005/2 2006/2006/2 2007/2007/2 2008/2008/2
v 11 2 1.0
v 12 2 1.0
v 12 3 1.0
v 11 3 1.0
vt 0.6875 0.125
vt 0.75 0.125
vt 0.75 0.1875
vt 0.6875 0.1875
f 2009/2009/1 2010/2010/1 2011/2011/1 2012/2012/1
v 12 2 0.0
v 11 2 0.0
v 11 3 0.0
v 12 3 0.0
vt 0.75 0.125
vt 0.6875 0.125
vt 0.6875 0.1875
vt 0.75 0.1875
f 2013/2013/2 2014/2014/2 2015/2015/2 2016/2016/2
v 12 2 1.0
v 13 2 1.0
v 13 3 1.0
v 12 3 1.0
vt 0.75 0.125
vt 0.8125 0.125
vt 0.8125 0.1875
vt 0.75 0.1875
f 2017/2017/1 2018/2018/1 2019/2019/1 2020/2020/1
v 13 2 0.0
v 12 2 0.0
v 12 3 0.0
v 13 3 0.0
vt 0.8125 0.125
vt 0.75 0.125
vt 0.75 0.1875
vt 0.8125 0.1875
f 2021/2021/2 2022/2022/2 2023/2023/2 2024/2024/2
v 12 2 0.0
v 13 2 0.0
v 13 2 1.0
v 12 2 1.0
vt 0.75 0.125
vt 0.8125 0.125
vt 0.8125 0.1875
vt 0.75 0.1875
f 2025/2025/4 2026/2026/4 2027/2027/4 2028/2028/4
v 13 2 1.0
v 14 2 1.0
v 14 3 1.0
v 13 3 1.0
vt 0.8125 0.125
vt 0.875 0.125
vt 0.875 0.1875
vt 0.8125 0.1875
f 2029/2029/1 2030/2030/1 2031/2031/1 2032/2032/1
v 14 2 0.0
v 13 2 0.0
v 13 3 0.0
v 14 3 0.0
vt 0.875 0.125
vt 0.8125 0.125
vt 0.8125 0.1875
vt 0.875 0.1875
f 2033/2033/2 2034/2034/2 2035/2035/2 2036/2036/2
v 13 2 0.0
v 14 2 0.0
v 14 2 1.0
v 13 2 1.0
vt 0.8125 0.125
vt 0.875 0.125
vt 0.875 0.1875
vt 0.8125 0.1875
f 2037/2037/4 2038/2038/4 2039/2039/4 2040/2040/4
v 14 2 1.0
v 14 2 0.0
v 14 3 0.0
v 14 3 1.0
vt 0.8125 0.125
vt 0.875 0.125
vt 0.875 0.1875
vt 0.8125 0.1875
f 2041/2041/5 2042/2042/5 2043/2043/5 2044/2044/5
v 6 1 1.0
v 7 1 1.0
v 7 2 1.0
v 6 2 1.0
vt 0.375 0.0625
vt 0.4375 0.0625
vt 0.4375 0.125
vt 0.375 0.125
f 2045/2045/1 2046/2046/1 2047/2047/1 2048/2048/1
v 7 1 0.0
v 6 1 0.0
v 6 2 0.0
v 7 2 0.0
vt 0.4375 0.0625
vt 0.375 0.0625
vt 0.375 0.125
vt 0.4375 0.125
f 2049/2049/2 2050/2050/2 2051/2051/2 2052/2052/2
v 6 2 1.0
v 7 2 1.0
v 7 2 0.0
v 6 2 0.0
vt 0.375 0.0625
vt 0.4375 0.0625
vt 0.4375 0.125
vt 0.375 0.125
f 2053/2053/3 2054/2054/3 2055/2055/3 2056/2056/3
v 6 1 0.0
v 7 1 0.0
v 7 1 1.0
v 6 1 1.0
vt 0.375 0.0625
vt 0.4375 0.0625
vt 0.4375 0.125
vt 0.375 0.125
f 2057/2057/4 2058/2058/4 2059/2059/4 2060/2060/4
v 6 1 0.0
v 6 1 1.0
v 6 2 1.0
v 6 2 0.0
vt 0.375 0.0625
vt 0.4375 0.0625
vt 0.4375 0.125
vt 0.375 0.125
f 2061/2061/6 2062/2062/6 2063/2063/6 2064/2064/6
v 7 1 1.0
v 8 1 1.0
v 8 2 1.0
v 7 2 1.0
vt 0.4375 0.0625
vt 0.5 0.0625
vt 0.5 0.125
vt 0.4375 0.125
f 2065/2065/1 2066/2066/1 2067/2067/1 2068/2068/1
v 8 1 0.0
v 7 1 0.0
v 7 2 0.0
v 8 2 0.0
vt 0.5 0.0625
vt 0.4375 0.0625
vt 0.4375 0.125
vt 0.5 0.125
f 2069/2069/2 2070/2070/2 2071/2071/2 2072/2072/2
v 7 1 0.0
v 8 1 0.0
v 8 1 1.0
v 7 1 1.0
vt 0.4375 0.0625
vt 0.5 0.0625
vt 0.5 0.125
vt 0.4375 0.125
f 2073/2073/4 2074/2074/4 2075/2075/4 2076/2076/4
v 8 1 1.0
v 9 1 1.0
v 9 2 1.0
v 8 2 1.0
vt 0.5 0.0625
vt 0.5625 0.0625
vt 0.5625 0.125
vt 0.5 0.125
f 2077/2077/1 2078/2078/1 2079/2079/1 2080/2080/1
v 9 1 0.0
v 8 1 0.0
v 8 2 0.0
v 9 2 0.0
vt 0.5625 0.0625
vt 0.5 0.0625
vt 0.5 0.125
vt 0.5625 0.125
f 2081/2081/2 2082/2082/2 2083/2083/2 2084/2084/2
v 8 1 0.0
v 9 1 0.0
v 9 1 1.0
v 8 1 1.0
vt 0.5 0.0625
vt 0.5625 0.0625
vt 0.5625 0.125
vt 0.5 0.125
f 2085/2085/4 2086/2086/4 2087/2087/4 2088/2088/4
v 9 1 1.0
v 10 1 1.0
v 10 2 1.0
v 9 2 1.0
vt 0.5625 0.0625
vt 0.625 0.0625
vt 0.625 0.125
vt 0.5625 0.125
f 2089/2089/1 2090/2090/1 2091/2091/1 2092/2092/1
v 10 1 0.0
v 9 1 0.0
v 9 2 0.0
v 10 2 0.0
vt 0.625 0.0625
vt 0.5625 0.0625
vt 0.5625 0.125
vt 0.625 0.125
f 2093/2093/2 2094/2094/2 2095/2095/2 2096/2096/2
v 9 1 0.0
v 10 1 0.0
v 10 1 1.0
v 9 1 1.0
vt 0.5625 0.0625
vt 0.625 0.0625
vt 0.625 0.125
vt 0.5625 0.125
f 2097/2097/4 2098/2098/4 2099/2099/4 2100/2100/4
v 10 1 1.0
v 11 1 1.0
v 11 2 1.0
v 10 2 1.0
vt 0.625 0.0625
vt 0.6875 0.0625
vt 0.6875 0.125
vt 0.625 0.125
f 2101/2101/1 2102/2102/1 2103/2103/1 2104/2104/1
v 11 1 0.0
v 10 1 0.0
v 10 2 0.0
v 11 2 0.0
vt 0.6875 0.0625
vt 0.625 0.0625
vt 0.625 0.125
vt 0.6875 0.125
f 2105/2105/2 2106/2106/2 2107/2107/2 2108/2108/2
v 10 1 0.0
v 11 1 0.0
v 11 1 1.0
v 10 1 1.0
vt 0.625 0.0625
vt 0.6875 0.0625
vt 0.6875 0.125
vt 0.625 0.125
f 2109/2109/4 2110/2110/4 2111/2111/4 2112/2112/4
v 11 1 1.0
v 12 1 1.0
v 12 2 1.0
v 11 2 1.0
vt 0.6875 0.0625
vt 0.75 0.0625
vt 0.75 0.125
vt 0.6875 0.125
f 2113/2113/1 2114/2114/1 2115/2115/1 2116/2116/1
v 12 1 0.0
v 11 1 0.0
v 11 2 0.0
v 12 2 0.0
vt 0.75 0.0625
vt 0.6875 0.0625
vt 0.6875 0.125
vt 0.75 0.125
f 2117/2117/2 2118/2118/2 2119/2119/2 2120/2120/2
v 11 1 0.0
v 12 1 0.0
v 12 1 1.0
v 11 1 1.0
vt 0.6875 0.0625
vt 0.75 0.0625
vt 0.75 0.125
vt 0.6875 0.125
f 2121/2121/4 2122/2122/4 2123/2123/4 2124/2124/4
v 12 1 1.0
v 12 1 0.0
v 12 2 0.0
v 12 2 1.0
vt 0.6875 0.0625
vt 0.75 0.0625
vt 0.75 0.125
vt 0.6875 0.125
f 2125/2125/5 2126/2126/5 2127/2127/5 2128/2128/5
