mtllib 金苹果.mtl
vn 0 0 1
vn 0 0 -1
vn 0 1 0
vn 0 -1 0
vn 1 0 0
vn -1 0 0
o mesh_mask_1
usemtl mat_金苹果
v 5 11 1.0
v 6 11 1.0
v 6 12 1.0
v 5 12 1.0
vt 0.3125 0.6875
vt 0.375 0.6875
vt 0.375 0.75
vt 0.3125 0.75
f 1/1/1 2/2/1 3/3/1 4/4/1
v 6 11 0.0
v 5 11 0.0
v 5 12 0.0
v 6 12 0.0
vt 0.375 0.6875
vt 0.3125 0.6875
vt 0.3125 0.75
vt 0.375 0.75
f 5/5/2 6/6/2 7/7/2 8/8/2
v 5 12 1.0
v 6 12 1.0
v 6 12 0.0
v 5 12 0.0
vt 0.3125 0.6875
vt 0.375 0.6875
vt 0.375 0.75
vt 0.3125 0.75
f 9/9/3 10/10/3 11/11/3 12/12/3
v 5 11 0.0
v 5 11 1.0
v 5 12 1.0
v 5 12 0.0
vt 0.3125 0.6875
vt 0.375 0.6875
vt 0.375 0.75
vt 0.3125 0.75
f 13/13/6 14/14/6 15/15/6 16/16/6
v 6 11 1.0
v 7 11 1.0
v 7 12 1.0
v 6 12 1.0
vt 0.375 0.6875
vt 0.4375 0.6875
vt 0.4375 0.75
vt 0.375 0.75
f 17/17/1 18/18/1 19/19/1 20/20/1
v 7 11 0.0
v 6 11 0.0
v 6 12 0.0
v 7 12 0.0
vt 0.4375 0.6875
vt 0.375 0.6875
vt 0.375 0.75
vt 0.4375 0.75
f 21/21/2 22/22/2 23/23/2 24/24/2
v 6 12 1.0
v 7 12 1.0
v 7 12 0.0
v 6 12 0.0
vt 0.375 0.6875
vt 0.4375 0.6875
vt 0.4375 0.75
vt 0.375 0.75
f 25/25/3 26/26/3 27/27/3 28/28/3
v 7 11 1.0
v 8 11 1.0
v 8 12 1.0
v 7 12 1.0
vt 0.4375 0.6875
vt 0.5 0.6875
vt 0.5 0.75
vt 0.4375 0.75
f 29/29/1 30/30/1 31/31/1 32/32/1
v 8 11 0.0
v 7 11 0.0
v 7 12 0.0
v 8 12 0.0
vt 0.5 0.6875
vt 0.4375 0.6875
vt 0.4375 0.75
vt 0.5 0.75
f 33/33/2 34/34/2 35/35/2 36/36/2
v 7 12 1.0
v 8 12 1.0
v 8 12 0.0
v 7 12 0.0
vt 0.4375 0.6875
vt 0.5 0.6875
vt 0.5 0.75
vt 0.4375 0.75
f 37/37/3 38/38/3 39/39/3 40/40/3
v 7 11 0.0
v 8 11 0.0
v 8 11 1.0
v 7 11 1.0
vt 0.4375 0.6875
vt 0.5 0.6875
vt 0.5 0.75
vt 0.4375 0.75
f 41/41/4 42/42/4 43/43/4 44/44/4
v 8 11 1.0
v 8 11 0.0
v 8 12 0.0
v 8 12 1.0
vt 0.4375 0.6875
vt 0.5 0.6875
vt 0.5 0.75
vt 0.4375 0.75
f 45/45/5 46/46/5 47/47/5 48/48/5
v 3 10 1.0
v 4 10 1.0
v 4 11 1.0
v 3 11 1.0
vt 0.1875 0.625
vt 0.25 0.625
vt 0.25 0.6875
vt 0.1875 0.6875
f 49/49/1 50/50/1 51/51/1 52/52/1
v 4 10 0.0
v 3 10 0.0
v 3 11 0.0
v 4 11 0.0
vt 0.25 0.625
vt 0.1875 0.625
vt 0.1875 0.6875
vt 0.25 0.6875
f 53/53/2 54/54/2 55/55/2 56/56/2
v 3 11 1.0
v 4 11 1.0
v 4 11 0.0
v 3 11 0.0
vt 0.1875 0.625
vt 0.25 0.625
vt 0.25 0.6875
vt 0.1875 0.6875
f 57/57/3 58/58/3 59/59/3 60/60/3
v 3 10 0.0
v 3 10 1.0
v 3 11 1.0
v 3 11 0.0
vt 0.1875 0.625
vt 0.25 0.625
vt 0.25 0.6875
vt 0.1875 0.6875
f 61/61/6 62/62/6 63/63/6 64/64/6
v 4 10 1.0
v 5 10 1.0
v 5 11 1.0
v 4 11 1.0
vt 0.25 0.625
vt 0.3125 0.625
vt 0.3125 0.6875
vt 0.25 0.6875
f 65/65/1 66/66/1 67/67/1 68/68/1
v 5 10 0.0
v 4 10 0.0
v 4 11 0.0
v 5 11 0.0
vt 0.3125 0.625
vt 0.25 0.625
vt 0.25 0.6875
vt 0.3125 0.6875
f 69/69/2 70/70/2 71/71/2 72/72/2
v 4 11 1.0
v 5 11 1.0
v 5 11 0.0
v 4 11 0.0
vt 0.25 0.625
vt 0.3125 0.625
vt 0.3125 0.6875
vt 0.25 0.6875
f 73/73/3 74/74/3 75/75/3 76/76/3
v 5 10 1.0
v 6 10 1.0
v 6 11 1.0
v 5 11 1.0
vt 0.3125 0.625
vt 0.375 0.625
vt 0.375 0.6875
vt 0.3125 0.6875
f 77/77/1 78/78/1 79/79/1 80/80/1
v 6 10 0.0
v 5 10 0.0
v 5 11 0.0
v 6 11 0.0
vt 0.375 0.625
vt 0.3125 0.625
vt 0.3125 0.6875
vt 0.375 0.6875
f 81/81/2 82/82/2 83/83/2 84/84/2
v 5 10 0.0
v 6 10 0.0
v 6 10 1.0
v 5 10 1.0
vt 0.3125 0.625
vt 0.375 0.625
vt 0.375 0.6875
vt 0.3125 0.6875
f 85/85/4 86/86/4 87/87/4 88/88/4
v 6 10 1.0
v 7 10 1.0
v 7 11 1.0
v 6 11 1.0
vt 0.375 0.625
vt 0.4375 0.625
vt 0.4375 0.6875
vt 0.375 0.6875
f 89/89/1 90/90/1 91/91/1 92/92/1
v 7 10 0.0
v 6 10 0.0
v 6 11 0.0
v 7 11 0.0
vt 0.4375 0.625
vt 0.375 0.625
vt 0.375 0.6875
vt 0.4375 0.6875
f 93/93/2 94/94/2 95/95/2 96/96/2
v 6 10 0.0
v 7 10 0.0
v 7 10 1.0
v 6 10 1.0
vt 0.375 0.625
vt 0.4375 0.625
vt 0.4375 0.6875
vt 0.375 0.6875
f 97/97/4 98/98/4 99/99/4 100/100/4
v 7 10 1.0
v 7 10 0.0
v 7 11 0.0
v 7 11 1.0
vt 0.375 0.625
vt 0.4375 0.625
vt 0.4375 0.6875
vt 0.375 0.6875
f 101/101/5 102/102/5 103/103/5 104/104/5
v 2 9 1.0
v 3 9 1.0
v 3 10 1.0
v 2 10 1.0
vt 0.125 0.5625
vt 0.1875 0.5625
vt 0.1875 0.625
vt 0.125 0.625
f 105/105/1 106/106/1 107/107/1 108/108/1
v 3 9 0.0
v 2 9 0.0
v 2 10 0.0
v 3 10 0.0
vt 0.1875 0.5625
vt 0.125 0.5625
vt 0.125 0.625
vt 0.1875 0.625
f 109/109/2 110/110/2 111/111/2 112/112/2
v 2 10 1.0
v 3 10 1.0
v 3 10 0.0
v 2 10 0.0
vt 0.125 0.5625
vt 0.1875 0.5625
vt 0.1875 0.625
vt 0.125 0.625
f 113/113/3 114/114/3 115/115/3 116/116/3
v 2 9 0.0
v 2 9 1.0
v 2 10 1.0
v 2 10 0.0
vt 0.125 0.5625
vt 0.1875 0.5625
vt 0.1875 0.625
vt 0.125 0.625
f 117/117/6 118/118/6 119/119/6 120/120/6
v 3 9 1.0
v 4 9 1.0
v 4 10 1.0
v 3 10 1.0
vt 0.1875 0.5625
vt 0.25 0.5625
vt 0.25 0.625
vt 0.1875 0.625
f 121/121/1 122/122/1 123/123/1 124/124/1
v 4 9 0.0
v 3 9 0.0
v 3 10 0.0
v 4 10 0.0
vt 0.25 0.5625
vt 0.1875 0.5625
vt 0.1875 0.625
vt 0.25 0.625
f 125/125/2 126/126/2 127/127/2 128/128/2
v 3 9 0.0
v 4 9 0.0
v 4 9 1.0
v 3 9 1.0
vt 0.1875 0.5625
vt 0.25 0.5625
vt 0.25 0.625
vt 0.1875 0.625
f 129/129/4 130/130/4 131/131/4 132/132/4
v 4 9 1.0
v 5 9 1.0
v 5 10 1.0
v 4 10 1.0
vt 0.25 0.5625
vt 0.3125 0.5625
vt 0.3125 0.625
vt 0.25 0.625
f 133/133/1 134/134/1 135/135/1 136/136/1
v 5 9 0.0
v 4 9 0.0
v 4 10 0.0
v 5 10 0.0
vt 0.3125 0.5625
vt 0.25 0.5625
vt 0.25 0.625
vt 0.3125 0.625
f 137/137/2 138/138/2 139/139/2 140/140/2
v 4 9 0.0
v 5 9 0.0
v 5 9 1.0
v 4 9 1.0
vt 0.25 0.5625
vt 0.3125 0.5625
vt 0.3125 0.625
vt 0.25 0.625
f 141/141/4 142/142/4 143/143/4 144/144/4
v 5 9 1.0
v 5 9 0.0
v 5 10 0.0
v 5 10 1.0
vt 0.25 0.5625
vt 0.3125 0.5625
vt 0.3125 0.625
vt 0.25 0.625
f 145/145/5 146/146/5 147/147/5 148/148/5
v 2 8 1.0
v 3 8 1.0
v 3 9 1.0
v 2 9 1.0
vt 0.125 0.5
vt 0.1875 0.5
vt 0.1875 0.5625
vt 0.125 0.5625
f 149/149/1 150/150/1 151/151/1 152/152/1
v 3 8 0.0
v 2 8 0.0
v 2 9 0.0
v 3 9 0.0
vt 0.1875 0.5
vt 0.125 0.5
vt 0.125 0.5625
vt 0.1875 0.5625
f 153/153/2 154/154/2 155/155/2 156/156/2
v 2 8 0.0
v 3 8 0.0
v 3 8 1.0
v 2 8 1.0
vt 0.125 0.5
vt 0.1875 0.5
vt 0.1875 0.5625
vt 0.125 0.5625
f 157/157/4 158/158/4 159/159/4 160/160/4
v 3 8 1.0
v 3 8 0.0
v 3 9 0.0
v 3 9 1.0
vt 0.125 0.5
vt 0.1875 0.5
vt 0.1875 0.5625
vt 0.125 0.5625
f 161/161/5 162/162/5 163/163/5 164/164/5
v 2 8 0.0
v 2 8 1.0
v 2 9 1.0
v 2 9 0.0
vt 0.125 0.5
vt 0.1875 0.5
vt 0.1875 0.5625
vt 0.125 0.5625
f 165/165/6 166/166/6 167/167/6 168/168/6
o mesh_mask_2
usemtl mat_金苹果
v 9 14 1.0
v 10 14 1.0
v 10 15 1.0
v 9 15 1.0
vt 0.5625 0.875
vt 0.625 0.875
vt 0.625 0.9375
vt 0.5625 0.9375
f 169/169/1 170/170/1 171/171/1 172/172/1
v 10 14 0.0
v 9 14 0.0
v 9 15 0.0
v 10 15 0.0
vt 0.625 0.875
vt 0.5625 0.875
vt 0.5625 0.9375
vt 0.625 0.9375
f 173/173/2 174/174/2 175/175/2 176/176/2
v 9 15 1.0
v 10 15 1.0
v 10 15 0.0
v 9 15 0.0
vt 0.5625 0.875
vt 0.625 0.875
vt 0.625 0.9375
vt 0.5625 0.9375
f 177/177/3 178/178/3 179/179/3 180/180/3
v 10 14 1.0
v 10 14 0.0
v 10 15 0.0
v 10 15 1.0
vt 0.5625 0.875
vt 0.625 0.875
vt 0.625 0.9375
vt 0.5625 0.9375
f 181/181/5 182/182/5 183/183/5 184/184/5
v 9 14 0.0
v 9 14 1.0
v 9 15 1.0
v 9 15 0.0
vt 0.5625 0.875
vt 0.625 0.875
vt 0.625 0.9375
vt 0.5625 0.9375
f 185/185/6 186/186/6 187/187/6 188/188/6
v 8 13 1.0
v 9 13 1.0
v 9 14 1.0
v 8 14 1.0
vt 0.5 0.8125
vt 0.5625 0.8125
vt 0.5625 0.875
vt 0.5 0.875
f 189/189/1 190/190/1 191/191/1 192/192/1
v 9 13 0.0
v 8 13 0.0
v 8 14 0.0
v 9 14 0.0
vt 0.5625 0.8125
vt 0.5 0.8125
vt 0.5 0.875
vt 0.5625 0.875
f 193/193/2 194/194/2 195/195/2 196/196/2
v 8 14 1.0
v 9 14 1.0
v 9 14 0.0
v 8 14 0.0
vt 0.5 0.8125
vt 0.5625 0.8125
vt 0.5625 0.875
vt 0.5 0.875
f 197/197/3 198/198/3 199/199/3 200/200/3
v 8 13 0.0
v 8 13 1.0
v 8 14 1.0
v 8 14 0.0
vt 0.5 0.8125
vt 0.5625 0.8125
vt 0.5625 0.875
vt 0.5 0.875
f 201/201/6 202/202/6 203/203/6 204/204/6
v 9 13 1.0
v 10 13 1.0
v 10 14 1.0
v 9 14 1.0
vt 0.5625 0.8125
vt 0.625 0.8125
vt 0.625 0.875
vt 0.5625 0.875
f 205/205/1 206/206/1 207/207/1 208/208/1
v 10 13 0.0
v 9 13 0.0
v 9 14 0.0
v 10 14 0.0
vt 0.625 0.8125
vt 0.5625 0.8125
vt 0.5625 0.875
vt 0.625 0.875
f 209/209/2 210/210/2 211/211/2 212/212/2
v 9 13 0.0
v 10 13 0.0
v 10 13 1.0
v 9 13 1.0
vt 0.5625 0.8125
vt 0.625 0.8125
vt 0.625 0.875
vt 0.5625 0.875
f 213/213/4 214/214/4 215/215/4 216/216/4
v 10 13 1.0
v 10 13 0.0
v 10 14 0.0
v 10 14 1.0
vt 0.5625 0.8125
vt 0.625 0.8125
vt 0.625 0.875
vt 0.5625 0.875
f 217/217/5 218/218/5 219/219/5 220/220/5
v 8 12 1.0
v 9 12 1.0
v 9 13 1.0
v 8 13 1.0
vt 0.5 0.75
vt 0.5625 0.75
vt 0.5625 0.8125
vt 0.5 0.8125
f 221/221/1 222/222/1 223/223/1 224/224/1
v 9 12 0.0
v 8 12 0.0
v 8 13 0.0
v 9 13 0.0
vt 0.5625 0.75
vt 0.5 0.75
vt 0.5 0.8125
vt 0.5625 0.8125
f 225/225/2 226/226/2 227/227/2 228/228/2
v 9 12 1.0
v 9 12 0.0
v 9 13 0.0
v 9 13 1.0
vt 0.5 0.75
vt 0.5625 0.75
vt 0.5625 0.8125
vt 0.5 0.8125
f 229/229/5 230/230/5 231/231/5 232/232/5
v 8 12 0.0
v 8 12 1.0
v 8 13 1.0
v 8 13 0.0
vt 0.5 0.75
vt 0.5625 0.75
vt 0.5625 0.8125
vt 0.5 0.8125
f 233/233/6 234/234/6 235/235/6 236/236/6
v 8 11 1.0
v 9 11 1.0
v 9 12 1.0
v 8 12 1.0
vt 0.5 0.6875
vt 0.5625 0.6875
vt 0.5625 0.75
vt 0.5 0.75
f 237/237/1 238/238/1 239/239/1 240/240/1
v 9 11 0.0
v 8 11 0.0
v 8 12 0.0
v 9 12 0.0
vt 0.5625 0.6875
vt 0.5 0.6875
vt 0.5 0.75
vt 0.5625 0.75
f 241/241/2 242/242/2 243/243/2 244/244/2
v 8 11 0.0
v 8 11 1.0
v 8 12 1.0
v 8 12 0.0
vt 0.5 0.6875
vt 0.5625 0.6875
vt 0.5625 0.75
vt 0.5 0.75
f 245/245/6 246/246/6 247/247/6 248/248/6
v 9 11 1.0
v 10 11 1.0
v 10 12 1.0
v 9 12 1.0
vt 0.5625 0.6875
vt 0.625 0.6875
vt 0.625 0.75
vt 0.5625 0.75
f 249/249/1 250/250/1 251/251/1 252/252/1
v 10 11 0.0
v 9 11 0.0
v 9 12 0.0
v 10 12 0.0
vt 0.625 0.6875
vt 0.5625 0.6875
vt 0.5625 0.75
vt 0.625 0.75
f 253/253/2 254/254/2 255/255/2 256/256/2
v 9 12 1.0
v 10 12 1.0
v 10 12 0.0
v 9 12 0.0
vt 0.5625 0.6875
vt 0.625 0.6875
vt 0.625 0.75
vt 0.5625 0.75
f 257/257/3 258/258/3 259/259/3 260/260/3
v 10 11 1.0
v 11 11 1.0
v 11 12 1.0
v 10 12 1.0
vt 0.625 0.6875
vt 0.6875 0.6875
vt 0.6875 0.75
vt 0.625 0.75
f 261/261/1 262/262/1 263/263/1 264/264/1
v 11 11 0.0
v 10 11 0.0
v 10 12 0.0
v 11 12 0.0
vt 0.6875 0.6875
vt 0.625 0.6875
vt 0.625 0.75
vt 0.6875 0.75
f 265/265/2 266/266/2 267/267/2 268/268/2
v 10 12 1.0
v 11 12 1.0
v 11 12 0.0
v 10 12 0.0
vt 0.625 0.6875
vt 0.6875 0.6875
vt 0.6875 0.75
vt 0.625 0.75
f 269/269/3 270/270/3 271/271/3 272/272/3
v 11 11 1.0
v 11 11 0.0
v 11 12 0.0
v 11 12 1.0
vt 0.625 0.6875
vt 0.6875 0.6875
vt 0.6875 0.75
vt 0.625 0.75
f 273/273/5 274/274/5 275/275/5 276/276/5
v 8 10 1.0
v 9 10 1.0
v 9 11 1.0
v 8 11 1.0
vt 0.5 0.625
vt 0.5625 0.625
vt 0.5625 0.6875
vt 0.5 0.6875
f 277/277/1 278/278/1 279/279/1 280/280/1
v 9 10 0.0
v 8 10 0.0
v 8 11 0.0
v 9 11 0.0
vt 0.5625 0.625
vt 0.5 0.625
vt 0.5 0.6875
vt 0.5625 0.6875
f 281/281/2 282/282/2 283/283/2 284/284/2
v 8 10 0.0
v 9 10 0.0
v 9 10 1.0
v 8 10 1.0
vt 0.5 0.625
vt 0.5625 0.625
vt 0.5625 0.6875
vt 0.5 0.6875
f 285/285/4 286/286/4 287/287/4 288/288/4
v 8 10 0.0
v 8 10 1.0
v 8 11 1.0
v 8 11 0.0
vt 0.5 0.625
vt 0.5625 0.625
vt 0.5625 0.6875
vt 0.5 0.6875
f 289/289/6 290/290/6 291/291/6 292/292/6
v 9 10 1.0
v 10 10 1.0
v 10 11 1.0
v 9 11 1.0
vt 0.5625 0.625
vt 0.625 0.625
vt 0.625 0.6875
vt 0.5625 0.6875
f 293/293/1 294/294/1 295/295/1 296/296/1
v 10 10 0.0
v 9 10 0.0
v 9 11 0.0
v 10 11 0.0
vt 0.625 0.625
vt 0.5625 0.625
vt 0.5625 0.6875
vt 0.625 0.6875
f 297/297/2 298/298/2 299/299/2 300/300/2
v 10 10 1.0
v 11 10 1.0
v 11 11 1.0
v 10 11 1.0
vt 0.625 0.625
vt 0.6875 0.625
vt 0.6875 0.6875
vt 0.625 0.6875
f 301/301/1 302/302/1 303/303/1 304/304/1
v 11 10 0.0
v 10 10 0.0
v 10 11 0.0
v 11 11 0.0
vt 0.6875 0.625
vt 0.625 0.625
vt 0.625 0.6875
vt 0.6875 0.6875
f 305/305/2 306/306/2 307/307/2 308/308/2
v 11 10 1.0
v 12 10 1.0
v 12 11 1.0
v 11 11 1.0
vt 0.6875 0.625
vt 0.75 0.625
vt 0.75 0.6875
vt 0.6875 0.6875
f 309/309/1 310/310/1 311/311/1 312/312/1
v 12 10 0.0
v 11 10 0.0
v 11 11 0.0
v 12 11 0.0
vt 0.75 0.625
vt 0.6875 0.625
vt 0.6875 0.6875
vt 0.75 0.6875
f 313/313/2 314/314/2 315/315/2 316/316/2
v 11 11 1.0
v 12 11 1.0
v 12 11 0.0
v 11 11 0.0
vt 0.6875 0.625
vt 0.75 0.625
vt 0.75 0.6875
vt 0.6875 0.6875
f 317/317/3 318/318/3 319/319/3 320/320/3
v 12 10 1.0
v 13 10 1.0
v 13 11 1.0
v 12 11 1.0
vt 0.75 0.625
vt 0.8125 0.625
vt 0.8125 0.6875
vt 0.75 0.6875
f 321/321/1 322/322/1 323/323/1 324/324/1
v 13 10 0.0
v 12 10 0.0
v 12 11 0.0
v 13 11 0.0
vt 0.8125 0.625
vt 0.75 0.625
vt 0.75 0.6875
vt 0.8125 0.6875
f 325/325/2 326/326/2 327/327/2 328/328/2
v 12 11 1.0
v 13 11 1.0
v 13 11 0.0
v 12 11 0.0
vt 0.75 0.625
vt 0.8125 0.625
vt 0.8125 0.6875
vt 0.75 0.6875
f 329/329/3 330/330/3 331/331/3 332/332/3
v 13 10 1.0
v 13 10 0.0
v 13 11 0.0
v 13 11 1.0
vt 0.75 0.625
vt 0.8125 0.625
vt 0.8125 0.6875
vt 0.75 0.6875
f 333/333/5 334/334/5 335/335/5 336/336/5
v 9 9 1.0
v 10 9 1.0
v 10 10 1.0
v 9 10 1.0
vt 0.5625 0.5625
vt 0.625 0.5625
vt 0.625 0.625
vt 0.5625 0.625
f 337/337/1 338/338/1 339/339/1 340/340/1
v 10 9 0.0
v 9 9 0.0
v 9 10 0.0
v 10 10 0.0
vt 0.625 0.5625
vt 0.5625 0.5625
vt 0.5625 0.625
vt 0.625 0.625
f 341/341/2 342/342/2 343/343/2 344/344/2
v 9 9 0.0
v 10 9 0.0
v 10 9 1.0
v 9 9 1.0
vt 0.5625 0.5625
vt 0.625 0.5625
vt 0.625 0.625
vt 0.5625 0.625
f 345/345/4 346/346/4 347/347/4 348/348/4
v 9 9 0.0
v 9 9 1.0
v 9 10 1.0
v 9 10 0.0
vt 0.5625 0.5625
vt 0.625 0.5625
vt 0.625 0.625
vt 0.5625 0.625
f 349/349/6 350/350/6 351/351/6 352/352/6
v 10 9 1.0
v 11 9 1.0
v 11 10 1.0
v 10 10 1.0
vt 0.625 0.5625
vt 0.6875 0.5625
vt 0.6875 0.625
vt 0.625 0.625
f 353/353/1 354/354/1 355/355/1 356/356/1
v 11 9 0.0
v 10 9 0.0
v 10 10 0.0
v 11 10 0.0
vt 0.6875 0.5625
vt 0.625 0.5625
vt 0.625 0.625
vt 0.6875 0.625
f 357/357/2 358/358/2 359/359/2 360/360/2
v 11 9 1.0
v 12 9 1.0
v 12 10 1.0
v 11 10 1.0
vt 0.6875 0.5625
vt 0.75 0.5625
vt 0.75 0.625
vt 0.6875 0.625
f 361/361/1 362/362/1 363/363/1 364/364/1
v 12 9 0.0
v 11 9 0.0
v 11 10 0.0
v 12 10 0.0
vt 0.75 0.5625
vt 0.6875 0.5625
vt 0.6875 0.625
vt 0.75 0.625
f 365/365/2 366/366/2 367/367/2 368/368/2
v 12 9 1.0
v 13 9 1.0
v 13 10 1.0
v 12 10 1.0
vt 0.75 0.5625
vt 0.8125 0.5625
vt 0.8125 0.625
vt 0.75 0.625
f 369/369/1 370/370/1 371/371/1 372/372/1
v 13 9 0.0
v 12 9 0.0
v 12 10 0.0
v 13 10 0.0
vt 0.8125 0.5625
vt 0.75 0.5625
vt 0.75 0.625
vt 0.8125 0.625
f 373/373/2 374/374/2 375/375/2 376/376/2
v 13 9 1.0
v 14 9 1.0
v 14 10 1.0
v 13 10 1.0
vt 0.8125 0.5625
vt 0.875 0.5625
vt 0.875 0.625
vt 0.8125 0.625
f 377/377/1 378/378/1 379/379/1 380/380/1
v 14 9 0.0
v 13 9 0.0
v 13 10 0.0
v 14 10 0.0
vt 0.875 0.5625
vt 0.8125 0.5625
vt 0.8125 0.625
vt 0.875 0.625
f 381/381/2 382/382/2 383/383/2 384/384/2
v 13 10 1.0
v 14 10 1.0
v 14 10 0.0
v 13 10 0.0
vt 0.8125 0.5625
vt 0.875 0.5625
vt 0.875 0.625
vt 0.8125 0.625
f 385/385/3 386/386/3 387/387/3 388/388/3
v 14 9 1.0
v 14 9 0.0
v 14 10 0.0
v 14 10 1.0
vt 0.8125 0.5625
vt 0.875 0.5625
vt 0.875 0.625
vt 0.8125 0.625
f 389/389/5 390/390/5 391/391/5 392/392/5
v 10 8 1.0
v 11 8 1.0
v 11 9 1.0
v 10 9 1.0
vt 0.625 0.5
vt 0.6875 0.5
vt 0.6875 0.5625
vt 0.625 0.5625
f 393/393/1 394/394/1 395/395/1 396/396/1
v 11 8 0.0
v 10 8 0.0
v 10 9 0.0
v 11 9 0.0
vt 0.6875 0.5
vt 0.625 0.5
vt 0.625 0.5625
vt 0.6875 0.5625
f 397/397/2 398/398/2 399/399/2 400/400/2
v 10 8 0.0
v 11 8 0.0
v 11 8 1.0
v 10 8 1.0
vt 0.625 0.5
vt 0.6875 0.5
vt 0.6875 0.5625
vt 0.625 0.5625
f 401/401/4 402/402/4 403/403/4 404/404/4
v 10 8 0.0
v 10 8 1.0
v 10 9 1.0
v 10 9 0.0
vt 0.625 0.5
vt 0.6875 0.5
vt 0.6875 0.5625
vt 0.625 0.5625
f 405/405/6 406/406/6 407/407/6 408/408/6
v 11 8 1.0
v 12 8 1.0
v 12 9 1.0
v 11 9 1.0
vt 0.6875 0.5
vt 0.75 0.5
vt 0.75 0.5625
vt 0.6875 0.5625
f 409/409/1 410/410/1 411/411/1 412/412/1
v 12 8 0.0
v 11 8 0.0
v 11 9 0.0
v 12 9 0.0
vt 0.75 0.5
vt 0.6875 0.5
vt 0.6875 0.5625
vt 0.75 0.5625
f 413/413/2 414/414/2 415/415/2 416/416/2
v 12 8 1.0
v 13 8 1.0
v 13 9 1.0
v 12 9 1.0
vt 0.75 0.5
vt 0.8125 0.5
vt 0.8125 0.5625
vt 0.75 0.5625
f 417/417/1 418/418/1 419/419/1 420/420/1
v 13 8 0.0
v 12 8 0.0
v 12 9 0.0
v 13 9 0.0
vt 0.8125 0.5
vt 0.75 0.5
vt 0.75 0.5625
vt 0.8125 0.5625
f 421/421/2 422/422/2 423/423/2 424/424/2
v 13 8 1.0
v 14 8 1.0
v 14 9 1.0
v 13 9 1.0
vt 0.8125 0.5
vt 0.875 0.5
vt 0.875 0.5625
vt 0.8125 0.5625
f 425/425/1 426/426/1 427/427/1 428/428/1
v 14 8 0.0
v 13 8 0.0
v 13 9 0.0
v 14 9 0.0
vt 0.875 0.5
vt 0.8125 0.5
vt 0.8125 0.5625
vt 0.875 0.5625
f 429/429/2 430/430/2 431/431/2 432/432/2
v 14 8 1.0
v 14 8 0.0
v 14 9 0.0
v 14 9 1.0
vt 0.8125 0.5
vt 0.875 0.5
vt 0.875 0.5625
vt 0.8125 0.5625
f 433/433/5 434/434/5 435/435/5 436/436/5
v 11 7 1.0
v 12 7 1.0
v 12 8 1.0
v 11 8 1.0
vt 0.6875 0.4375
vt 0.75 0.4375
vt 0.75 0.5
vt 0.6875 0.5
f 437/437/1 438/438/1 439/439/1 440/440/1
v 12 7 0.0
v 11 7 0.0
v 11 8 0.0
v 12 8 0.0
vt 0.75 0.4375
vt 0.6875 0.4375
vt 0.6875 0.5
vt 0.75 0.5
f 441/441/2 442/442/2 443/443/2 444/444/2
v 11 7 0.0
v 12 7 0.0
v 12 7 1.0
v 11 7 1.0
vt 0.6875 0.4375
vt 0.75 0.4375
vt 0.75 0.5
vt 0.6875 0.5
f 445/445/4 446/446/4 447/447/4 448/448/4
v 11 7 0.0
v 11 7 1.0
v 11 8 1.0
v 11 8 0.0
vt 0.6875 0.4375
vt 0.75 0.4375
vt 0.75 0.5
vt 0.6875 0.5
f 449/449/6 450/450/6 451/451/6 452/452/6
v 12 7 1.0
v 13 7 1.0
v 13 8 1.0
v 12 8 1.0
vt 0.75 0.4375
vt 0.8125 0.4375
vt 0.8125 0.5
vt 0.75 0.5
f 453/453/1 454/454/1 455/455/1 456/456/1
v 13 7 0.0
v 12 7 0.0
v 12 8 0.0
v 13 8 0.0
vt 0.8125 0.4375
vt 0.75 0.4375
vt 0.75 0.5
vt 0.8125 0.5
f 457/457/2 458/458/2 459/459/2 460/460/2
v 12 7 0.0
v 13 7 0.0
v 13 7 1.0
v 12 7 1.0
vt 0.75 0.4375
vt 0.8125 0.4375
vt 0.8125 0.5
vt 0.75 0.5
f 461/461/4 462/462/4 463/463/4 464/464/4
v 13 7 1.0
v 14 7 1.0
v 14 8 1.0
v 13 8 1.0
vt 0.8125 0.4375
vt 0.875 0.4375
vt 0.875 0.5
vt 0.8125 0.5
f 465/465/1 466/466/1 467/467/1 468/468/1
v 14 7 0.0
v 13 7 0.0
v 13 8 0.0
v 14 8 0.0
vt 0.875 0.4375
vt 0.8125 0.4375
vt 0.8125 0.5
vt 0.875 0.5
f 469/469/2 470/470/2 471/471/2 472/472/2
v 13 7 0.0
v 14 7 0.0
v 14 7 1.0
v 13 7 1.0
vt 0.8125 0.4375
vt 0.875 0.4375
vt 0.875 0.5
vt 0.8125 0.5
f 473/473/4 474/474/4 475/475/4 476/476/4
v 14 7 1.0
v 14 7 0.0
v 14 8 0.0
v 14 8 1.0
vt 0.8125 0.4375
vt 0.875 0.4375
vt 0.875 0.5
vt 0.8125 0.5
f 477/477/5 478/478/5 479/479/5 480/480/5
o mesh_mask_3
usemtl mat_金苹果
v 7 10 1.0
v 8 10 1.0
v 8 11 1.0
v 7 11 1.0
vt 0.4375 0.625
vt 0.5 0.625
vt 0.5 0.6875
vt 0.4375 0.6875
f 481/481/1 482/482/1 483/483/1 484/484/1
v 8 10 0.0
v 7 10 0.0
v 7 11 0.0
v 8 11 0.0
vt 0.5 0.625
vt 0.4375 0.625
vt 0.4375 0.6875
vt 0.5 0.6875
f 485/485/2 486/486/2 487/487/2 488/488/2
v 7 11 1.0
v 8 11 1.0
v 8 11 0.0
v 7 11 0.0
vt 0.4375 0.625
vt 0.5 0.625
vt 0.5 0.6875
vt 0.4375 0.6875
f 489/489/3 490/490/3 491/491/3 492/492/3
v 8 10 1.0
v 8 10 0.0
v 8 11 0.0
v 8 11 1.0
vt 0.4375 0.625
vt 0.5 0.625
vt 0.5 0.6875
vt 0.4375 0.6875
f 493/493/5 494/494/5 495/495/5 496/496/5
v 7 10 0.0
v 7 10 1.0
v 7 11 1.0
v 7 11 0.0
vt 0.4375 0.625
vt 0.5 0.625
vt 0.5 0.6875
vt 0.4375 0.6875
f 497/497/6 498/498/6 499/499/6 500/500/6
v 5 9 1.0
v 6 9 1.0
v 6 10 1.0
v 5 10 1.0
vt 0.3125 0.5625
vt 0.375 0.5625
vt 0.375 0.625
vt 0.3125 0.625
f 501/501/1 502/502/1 503/503/1 504/504/1
v 6 9 0.0
v 5 9 0.0
v 5 10 0.0
v 6 10 0.0
vt 0.375 0.5625
vt 0.3125 0.5625
vt 0.3125 0.625
vt 0.375 0.625
f 505/505/2 506/506/2 507/507/2 508/508/2
v 5 10 1.0
v 6 10 1.0
v 6 10 0.0
v 5 10 0.0
vt 0.3125 0.5625
vt 0.375 0.5625
vt 0.375 0.625
vt 0.3125 0.625
f 509/509/3 510/510/3 511/511/3 512/512/3
v 5 9 0.0
v 5 9 1.0
v 5 10 1.0
v 5 10 0.0
vt 0.3125 0.5625
vt 0.375 0.5625
vt 0.375 0.625
vt 0.3125 0.625
f 513/513/6 514/514/6 515/515/6 516/516/6
v 6 9 1.0
v 7 9 1.0
v 7 10 1.0
v 6 10 1.0
vt 0.375 0.5625
vt 0.4375 0.5625
vt 0.4375 0.625
vt 0.375 0.625
f 517/517/1 518/518/1 519/519/1 520/520/1
v 7 9 0.0
v 6 9 0.0
v 6 10 0.0
v 7 10 0.0
vt 0.4375 0.5625
vt 0.375 0.5625
vt 0.375 0.625
vt 0.4375 0.625
f 521/521/2 522/522/2 523/523/2 524/524/2
v 6 10 1.0
v 7 10 1.0
v 7 10 0.0
v 6 10 0.0
vt 0.375 0.5625
vt 0.4375 0.5625
vt 0.4375 0.625
vt 0.375 0.625
f 525/525/3 526/526/3 527/527/3 528/528/3
v 7 9 1.0
v 8 9 1.0
v 8 10 1.0
v 7 10 1.0
vt 0.4375 0.5625
vt 0.5 0.5625
vt 0.5 0.625
vt 0.4375 0.625
f 529/529/1 530/530/1 531/531/1 532/532/1
v 8 9 0.0
v 7 9 0.0
v 7 10 0.0
v 8 10 0.0
vt 0.5 0.5625
vt 0.4375 0.5625
vt 0.4375 0.625
vt 0.5 0.625
f 533/533/2 534/534/2 535/535/2 536/536/2
v 8 9 1.0
v 9 9 1.0
v 9 10 1.0
v 8 10 1.0
vt 0.5 0.5625
vt 0.5625 0.5625
vt 0.5625 0.625
vt 0.5 0.625
f 537/537/1 538/538/1 539/539/1 540/540/1
v 9 9 0.0
v 8 9 0.0
v 8 10 0.0
v 9 10 0.0
vt 0.5625 0.5625
vt 0.5 0.5625
vt 0.5 0.625
vt 0.5625 0.625
f 541/541/2 542/542/2 543/543/2 544/544/2
v 8 10 1.0
v 9 10 1.0
v 9 10 0.0
v 8 10 0.0
vt 0.5 0.5625
vt 0.5625 0.5625
vt 0.5625 0.625
vt 0.5 0.625
f 545/545/3 546/546/3 547/547/3 548/548/3
v 9 9 1.0
v 9 9 0.0
v 9 10 0.0
v 9 10 1.0
vt 0.5 0.5625
vt 0.5625 0.5625
vt 0.5625 0.625
vt 0.5 0.625
f 549/549/5 550/550/5 551/551/5 552/552/5
v 3 8 1.0
v 4 8 1.0
v 4 9 1.0
v 3 9 1.0
vt 0.1875 0.5
vt 0.25 0.5
vt 0.25 0.5625
vt 0.1875 0.5625
f 553/553/1 554/554/1 555/555/1 556/556/1
v 4 8 0.0
v 3 8 0.0
v 3 9 0.0
v 4 9 0.0
vt 0.25 0.5
vt 0.1875 0.5
vt 0.1875 0.5625
vt 0.25 0.5625
f 557/557/2 558/558/2 559/559/2 560/560/2
v 3 9 1.0
v 4 9 1.0
v 4 9 0.0
v 3 9 0.0
vt 0.1875 0.5
vt 0.25 0.5
vt 0.25 0.5625
vt 0.1875 0.5625
f 561/561/3 562/562/3 563/563/3 564/564/3
v 3 8 0.0
v 3 8 1.0
v 3 9 1.0
v 3 9 0.0
vt 0.1875 0.5
vt 0.25 0.5
vt 0.25 0.5625
vt 0.1875 0.5625
f 565/565/6 566/566/6 567/567/6 568/568/6
v 4 8 1.0
v 5 8 1.0
v 5 9 1.0
v 4 9 1.0
vt 0.25 0.5
vt 0.3125 0.5
vt 0.3125 0.5625
vt 0.25 0.5625
f 569/569/1 570/570/1 571/571/1 572/572/1
v 5 8 0.0
v 4 8 0.0
v 4 9 0.0
v 5 9 0.0
vt 0.3125 0.5
vt 0.25 0.5
vt 0.25 0.5625
vt 0.3125 0.5625
f 573/573/2 574/574/2 575/575/2 576/576/2
v 4 9 1.0
v 5 9 1.0
v 5 9 0.0
v 4 9 0.0
vt 0.25 0.5
vt 0.3125 0.5
vt 0.3125 0.5625
vt 0.25 0.5625
f 577/577/3 578/578/3 579/579/3 580/580/3
v 5 8 1.0
v 6 8 1.0
v 6 9 1.0
v 5 9 1.0
vt 0.3125 0.5
vt 0.375 0.5
vt 0.375 0.5625
vt 0.3125 0.5625
f 581/581/1 582/582/1 583/583/1 584/584/1
v 6 8 0.0
v 5 8 0.0
v 5 9 0.0
v 6 9 0.0
vt 0.375 0.5
vt 0.3125 0.5
vt 0.3125 0.5625
vt 0.375 0.5625
f 585/585/2 586/586/2 587/587/2 588/588/2
v 6 8 1.0
v 7 8 1.0
v 7 9 1.0
v 6 9 1.0
vt 0.375 0.5
vt 0.4375 0.5
vt 0.4375 0.5625
vt 0.375 0.5625
f 589/589/1 590/590/1 591/591/1 592/592/1
v 7 8 0.0
v 6 8 0.0
v 6 9 0.0
v 7 9 0.0
vt 0.4375 0.5
vt 0.375 0.5
vt 0.375 0.5625
vt 0.4375 0.5625
f 593/593/2 594/594/2 595/595/2 596/596/2
v 7 8 1.0
v 8 8 1.0
v 8 9 1.0
v 7 9 1.0
vt 0.4375 0.5
vt 0.5 0.5
vt 0.5 0.5625
vt 0.4375 0.5625
f 597/597/1 598/598/1 599/599/1 600/600/1
v 8 8 0.0
v 7 8 0.0
v 7 9 0.0
v 8 9 0.0
vt 0.5 0.5
vt 0.4375 0.5
vt 0.4375 0.5625
vt 0.5 0.5625
f 601/601/2 602/602/2 603/603/2 604/604/2
v 8 8 1.0
v 9 8 1.0
v 9 9 1.0
v 8 9 1.0
vt 0.5 0.5
vt 0.5625 0.5
vt 0.5625 0.5625
vt 0.5 0.5625
f 605/605/1 606/606/1 607/607/1 608/608/1
v 9 8 0.0
v 8 8 0.0
v 8 9 0.0
v 9 9 0.0
vt 0.5625 0.5
vt 0.5 0.5
vt 0.5 0.5625
vt 0.5625 0.5625
f 609/609/2 610/610/2 611/611/2 612/612/2
v 9 8 1.0
v 10 8 1.0
v 10 9 1.0
v 9 9 1.0
vt 0.5625 0.5
vt 0.625 0.5
vt 0.625 0.5625
vt 0.5625 0.5625
f 613/613/1 614/614/1 615/615/1 616/616/1
v 10 8 0.0
v 9 8 0.0
v 9 9 0.0
v 10 9 0.0
vt 0.625 0.5
vt 0.5625 0.5
vt 0.5625 0.5625
vt 0.625 0.5625
f 617/617/2 618/618/2 619/619/2 620/620/2
v 9 9 1.0
v 10 9 1.0
v 10 9 0.0
v 9 9 0.0
vt 0.5625 0.5
vt 0.625 0.5
vt 0.625 0.5625
vt 0.5625 0.5625
f 621/621/3 622/622/3 623/623/3 624/624/3
v 10 8 1.0
v 10 8 0.0
v 10 9 0.0
v 10 9 1.0
vt 0.5625 0.5
vt 0.625 0.5
vt 0.625 0.5625
vt 0.5625 0.5625
f 625/625/5 626/626/5 627/627/5 628/628/5
v 2 7 1.0
v 3 7 1.0
v 3 8 1.0
v 2 8 1.0
vt 0.125 0.4375
vt 0.1875 0.4375
vt 0.1875 0.5
vt 0.125 0.5
f 629/629/1 630/630/1 631/631/1 632/632/1
v 3 7 0.0
v 2 7 0.0
v 2 8 0.0
v 3 8 0.0
vt 0.1875 0.4375
vt 0.125 0.4375
vt 0.125 0.5
vt 0.1875 0.5
f 633/633/2 634/634/2 635/635/2 636/636/2
v 2 8 1.0
v 3 8 1.0
v 3 8 0.0
v 2 8 0.0
vt 0.125 0.4375
vt 0.1875 0.4375
vt 0.1875 0.5
vt 0.125 0.5
f 637/637/3 638/638/3 639/639/3 640/640/3
v 2 7 0.0
v 2 7 1.0
v 2 8 1.0
v 2 8 0.0
vt 0.125 0.4375
vt 0.1875 0.4375
vt 0.1875 0.5
vt 0.125 0.5
f 641/641/6 642/642/6 643/643/6 644/644/6
v 3 7 1.0
v 4 7 1.0
v 4 8 1.0
v 3 8 1.0
vt 0.1875 0.4375
vt 0.25 0.4375
vt 0.25 0.5
vt 0.1875 0.5
f 645/645/1 646/646/1 647/647/1 648/648/1
v 4 7 0.0
v 3 7 0.0
v 3 8 0.0
v 4 8 0.0
vt 0.25 0.4375
vt 0.1875 0.4375
vt 0.1875 0.5
vt 0.25 0.5
f 649/649/2 650/650/2 651/651/2 652/652/2
v 4 7 1.0
v 5 7 1.0
v 5 8 1.0
v 4 8 1.0
vt 0.25 0.4375
vt 0.3125 0.4375
vt 0.3125 0.5
vt 0.25 0.5
f 653/653/1 654/654/1 655/655/1 656/656/1
v 5 7 0.0
v 4 7 0.0
v 4 8 0.0
v 5 8 0.0
vt 0.3125 0.4375
vt 0.25 0.4375
vt 0.25 0.5
vt 0.3125 0.5
f 657/657/2 658/658/2 659/659/2 660/660/2
v 5 7 1.0
v 6 7 1.0
v 6 8 1.0
v 5 8 1.0
vt 0.3125 0.4375
vt 0.375 0.4375
vt 0.375 0.5
vt 0.3125 0.5
f 661/661/1 662/662/1 663/663/1 664/664/1
v 6 7 0.0
v 5 7 0.0
v 5 8 0.0
v 6 8 0.0
vt 0.375 0.4375
vt 0.3125 0.4375
vt 0.3125 0.5
vt 0.375 0.5
f 665/665/2 666/666/2 667/667/2 668/668/2
v 6 7 1.0
v 7 7 1.0
v 7 8 1.0
v 6 8 1.0
vt 0.375 0.4375
vt 0.4375 0.4375
vt 0.4375 0.5
vt 0.375 0.5
f 669/669/1 670/670/1 671/671/1 672/672/1
v 7 7 0.0
v 6 7 0.0
v 6 8 0.0
v 7 8 0.0
vt 0.4375 0.4375
vt 0.375 0.4375
vt 0.375 0.5
vt 0.4375 0.5
f 673/673/2 674/674/2 675/675/2 676/676/2
v 7 7 1.0
v 8 7 1.0
v 8 8 1.0
v 7 8 1.0
vt 0.4375 0.4375
vt 0.5 0.4375
vt 0.5 0.5
vt 0.4375 0.5
f 677/677/1 678/678/1 679/679/1 680/680/1
v 8 7 0.0
v 7 7 0.0
v 7 8 0.0
v 8 8 0.0
vt 0.5 0.4375
vt 0.4375 0.4375
vt 0.4375 0.5
vt 0.5 0.5
f 681/681/2 682/682/2 683/683/2 684/684/2
v 8 7 1.0
v 9 7 1.0
v 9 8 1.0
v 8 8 1.0
vt 0.5 0.4375
vt 0.5625 0.4375
vt 0.5625 0.5
vt 0.5 0.5
f 685/685/1 686/686/1 687/687/1 688/688/1
v 9 7 0.0
v 8 7 0.0
v 8 8 0.0
v 9 8 0.0
vt 0.5625 0.4375
vt 0.5 0.4375
vt 0.5 0.5
vt 0.5625 0.5
f 689/689/2 690/690/2 691/691/2 692/692/2
v 9 7 1.0
v 10 7 1.0
v 10 8 1.0
v 9 8 1.0
vt 0.5625 0.4375
vt 0.625 0.4375
vt 0.625 0.5
vt 0.5625 0.5
f 693/693/1 694/694/1 695/695/1 696/696/1
v 10 7 0.0
v 9 7 0.0
v 9 8 0.0
v 10 8 0.0
vt 0.625 0.4375
vt 0.5625 0.4375
vt 0.5625 0.5
vt 0.625 0.5
f 697/697/2 698/698/2 699/699/2 700/700/2
v 9 7 0.0
v 10 7 0.0
v 10 7 1.0
v 9 7 1.0
vt 0.5625 0.4375
vt 0.625 0.4375
vt 0.625 0.5
vt 0.5625 0.5
f 701/701/4 702/702/4 703/703/4 704/704/4
v 10 7 1.0
v 10 7 0.0
v 10 8 0.0
v 10 8 1.0
vt 0.5625 0.4375
vt 0.625 0.4375
vt 0.625 0.5
vt 0.5625 0.5
f 705/705/5 706/706/5 707/707/5 708/708/5
v 2 6 1.0
v 3 6 1.0
v 3 7 1.0
v 2 7 1.0
vt 0.125 0.375
vt 0.1875 0.375
vt 0.1875 0.4375
vt 0.125 0.4375
f 709/709/1 710/710/1 711/711/1 712/712/1
v 3 6 0.0
v 2 6 0.0
v 2 7 0.0
v 3 7 0.0
vt 0.1875 0.375
vt 0.125 0.375
vt 0.125 0.4375
vt 0.1875 0.4375
f 713/713/2 714/714/2 715/715/2 716/716/2
v 2 6 0.0
v 2 6 1.0
v 2 7 1.0
v 2 7 0.0
vt 0.125 0.375
vt 0.1875 0.375
vt 0.1875 0.4375
vt 0.125 0.4375
f 717/717/6 718/718/6 719/719/6 720/720/6
v 3 6 1.0
v 4 6 1.0
v 4 7 1.0
v 3 7 1.0
vt 0.1875 0.375
vt 0.25 0.375
vt 0.25 0.4375
vt 0.1875 0.4375
f 721/721/1 722/722/1 723/723/1 724/724/1
v 4 6 0.0
v 3 6 0.0
v 3 7 0.0
v 4 7 0.0
vt 0.25 0.375
vt 0.1875 0.375
vt 0.1875 0.4375
vt 0.25 0.4375
f 725/725/2 726/726/2 727/727/2 728/728/2
v 4 6 1.0
v 5 6 1.0
v 5 7 1.0
v 4 7 1.0
vt 0.25 0.375
vt 0.3125 0.375
vt 0.3125 0.4375
vt 0.25 0.4375
f 729/729/1 730/730/1 731/731/1 732/732/1
v 5 6 0.0
v 4 6 0.0
v 4 7 0.0
v 5 7 0.0
vt 0.3125 0.375
vt 0.25 0.375
vt 0.25 0.4375
vt 0.3125 0.4375
f 733/733/2 734/734/2 735/735/2 736/736/2
v 5 6 1.0
v 6 6 1.0
v 6 7 1.0
v 5 7 1.0
vt 0.3125 0.375
vt 0.375 0.375
vt 0.375 0.4375
vt 0.3125 0.4375
f 737/737/1 738/738/1 739/739/1 740/740/1
v 6 6 0.0
v 5 6 0.0
v 5 7 0.0
v 6 7 0.0
vt 0.375 0.375
vt 0.3125 0.375
vt 0.3125 0.4375
vt 0.375 0.4375
f 741/741/2 742/742/2 743/743/2 744/744/2
v 6 6 1.0
v 7 6 1.0
v 7 7 1.0
v 6 7 1.0
vt 0.375 0.375
vt 0.4375 0.375
vt 0.4375 0.4375
vt 0.375 0.4375
f 745/745/1 746/746/1 747/747/1 748/748/1
v 7 6 0.0
v 6 6 0.0
v 6 7 0.0
v 7 7 0.0
vt 0.4375 0.375
vt 0.375 0.375
vt 0.375 0.4375
vt 0.4375 0.4375
f 749/749/2 750/750/2 751/751/2 752/752/2
v 7 6 1.0
v 8 6 1.0
v 8 7 1.0
v 7 7 1.0
vt 0.4375 0.375
vt 0.5 0.375
vt 0.5 0.4375
vt 0.4375 0.4375
f 753/753/1 754/754/1 755/755/1 756/756/1
v 8 6 0.0
v 7 6 0.0
v 7 7 0.0
v 8 7 0.0
vt 0.5 0.375
vt 0.4375 0.375
vt 0.4375 0.4375
vt 0.5 0.4375
f 757/757/2 758/758/2 759/759/2 760/760/2
v 8 6 1.0
v 9 6 1.0
v 9 7 1.0
v 8 7 1.0
vt 0.5 0.375
vt 0.5625 0.375
vt 0.5625 0.4375
vt 0.5 0.4375
f 761/761/1 762/762/1 763/763/1 764/764/1
v 9 6 0.0
v 8 6 0.0
v 8 7 0.0
v 9 7 0.0
vt 0.5625 0.375
vt 0.5 0.375
vt 0.5 0.4375
vt 0.5625 0.4375
f 765/765/2 766/766/2 767/767/2 768/768/2
v 8 6 0.0
v 9 6 0.0
v 9 6 1.0
v 8 6 1.0
vt 0.5 0.375
vt 0.5625 0.375
vt 0.5625 0.4375
vt 0.5 0.4375
f 769/769/4 770/770/4 771/771/4 772/772/4
v 9 6 1.0
v 9 6 0.0
v 9 7 0.0
v 9 7 1.0
vt 0.5 0.375
vt 0.5625 0.375
vt 0.5625 0.4375
vt 0.5 0.4375
f 773/773/5 774/774/5 775/775/5 776/776/5
v 2 5 1.0
v 3 5 1.0
v 3 6 1.0
v 2 6 1.0
vt 0.125 0.3125
vt 0.1875 0.3125
vt 0.1875 0.375
vt 0.125 0.375
f 777/777/1 778/778/1 779/779/1 780/780/1
v 3 5 0.0
v 2 5 0.0
v 2 6 0.0
v 3 6 0.0
vt 0.1875 0.3125
vt 0.125 0.3125
vt 0.125 0.375
vt 0.1875 0.375
f 781/781/2 782/782/2 783/783/2 784/784/2
v 2 5 0.0
v 3 5 0.0
v 3 5 1.0
v 2 5 1.0
vt 0.125 0.3125
vt 0.1875 0.3125
vt 0.1875 0.375
vt 0.125 0.375
f 785/785/4 786/786/4 787/787/4 788/788/4
v 2 5 0.0
v 2 5 1.0
v 2 6 1.0
v 2 6 0.0
vt 0.125 0.3125
vt 0.1875 0.3125
vt 0.1875 0.375
vt 0.125 0.375
f 789/789/6 790/790/6 791/791/6 792/792/6
v 3 5 1.0
v 4 5 1.0
v 4 6 1.0
v 3 6 1.0
vt 0.1875 0.3125
vt 0.25 0.3125
vt 0.25 0.375
vt 0.1875 0.375
f 793/793/1 794/794/1 795/795/1 796/796/1
v 4 5 0.0
v 3 5 0.0
v 3 6 0.0
v 4 6 0.0
vt 0.25 0.3125
vt 0.1875 0.3125
vt 0.1875 0.375
vt 0.25 0.375
f 797/797/2 798/798/2 799/799/2 800/800/2
v 4 5 1.0
v 5 5 1.0
v 5 6 1.0
v 4 6 1.0
vt 0.25 0.3125
vt 0.3125 0.3125
vt 0.3125 0.375
vt 0.25 0.375
f 801/801/1 802/802/1 803/803/1 804/804/1
v 5 5 0.0
v 4 5 0.0
v 4 6 0.0
v 5 6 0.0
vt 0.3125 0.3125
vt 0.25 0.3125
vt 0.25 0.375
vt 0.3125 0.375
f 805/805/2 806/806/2 807/807/2 808/808/2
v 5 5 1.0
v 6 5 1.0
v 6 6 1.0
v 5 6 1.0
vt 0.3125 0.3125
vt 0.375 0.3125
vt 0.375 0.375
vt 0.3125 0.375
f 809/809/1 810/810/1 811/811/1 812/812/1
v 6 5 0.0
v 5 5 0.0
v 5 6 0.0
v 6 6 0.0
vt 0.375 0.3125
vt 0.3125 0.3125
vt 0.3125 0.375
vt 0.375 0.375
f 813/813/2 814/814/2 815/815/2 816/816/2
v 6 5 1.0
v 7 5 1.0
v 7 6 1.0
v 6 6 1.0
vt 0.375 0.3125
vt 0.4375 0.3125
vt 0.4375 0.375
vt 0.375 0.375
f 817/817/1 818/818/1 819/819/1 820/820/1
v 7 5 0.0
v 6 5 0.0
v 6 6 0.0
v 7 6 0.0
vt 0.4375 0.3125
vt 0.375 0.3125
vt 0.375 0.375
vt 0.4375 0.375
f 821/821/2 822/822/2 823/823/2 824/824/2
v 7 5 1.0
v 8 5 1.0
v 8 6 1.0
v 7 6 1.0
vt 0.4375 0.3125
vt 0.5 0.3125
vt 0.5 0.375
vt 0.4375 0.375
f 825/825/1 826/826/1 827/827/1 828/828/1
v 8 5 0.0
v 7 5 0.0
v 7 6 0.0
v 8 6 0.0
vt 0.5 0.3125
vt 0.4375 0.3125
vt 0.4375 0.375
vt 0.5 0.375
f 829/829/2 830/830/2 831/831/2 832/832/2
v 8 5 1.0
v 8 5 0.0
v 8 6 0.0
v 8 6 1.0
vt 0.4375 0.3125
vt 0.5 0.3125
vt 0.5 0.375
vt 0.4375 0.375
f 833/833/5 834/834/5 835/835/5 836/836/5
v 3 4 1.0
v 4 4 1.0
v 4 5 1.0
v 3 5 1.0
vt 0.1875 0.25
vt 0.25 0.25
vt 0.25 0.3125
vt 0.1875 0.3125
f 837/837/1 838/838/1 839/839/1 840/840/1
v 4 4 0.0
v 3 4 0.0
v 3 5 0.0
v 4 5 0.0
vt 0.25 0.25
vt 0.1875 0.25
vt 0.1875 0.3125
vt 0.25 0.3125
f 841/841/2 842/842/2 843/843/2 844/844/2
v 3 4 0.0
v 3 4 1.0
v 3 5 1.0
v 3 5 0.0
vt 0.1875 0.25
vt 0.25 0.25
vt 0.25 0.3125
vt 0.1875 0.3125
f 845/845/6 846/846/6 847/847/6 848/848/6
v 4 4 1.0
v 5 4 1.0
v 5 5 1.0
v 4 5 1.0
vt 0.25 0.25
vt 0.3125 0.25
vt 0.3125 0.3125
vt 0.25 0.3125
f 849/849/1 850/850/1 851/851/1 852/852/1
v 5 4 0.0
v 4 4 0.0
v 4 5 0.0
v 5 5 0.0
vt 0.3125 0.25
vt 0.25 0.25
vt 0.25 0.3125
vt 0.3125 0.3125
f 853/853/2 854/854/2 855/855/2 856/856/2
v 5 4 1.0
v 6 4 1.0
v 6 5 1.0
v 5 5 1.0
vt 0.3125 0.25
vt 0.375 0.25
vt 0.375 0.3125
vt 0.3125 0.3125
f 857/857/1 858/858/1 859/859/1 860/860/1
v 6 4 0.0
v 5 4 0.0
v 5 5 0.0
v 6 5 0.0
vt 0.375 0.25
vt 0.3125 0.25
vt 0.3125 0.3125
vt 0.375 0.3125
f 861/861/2 862/862/2 863/863/2 864/864/2
v 6 4 1.0
v 7 4 1.0
v 7 5 1.0
v 6 5 1.0
vt 0.375 0.25
vt 0.4375 0.25
vt 0.4375 0.3125
vt 0.375 0.3125
f 865/865/1 866/866/1 867/867/1 868/868/1
v 7 4 0.0
v 6 4 0.0
v 6 5 0.0
v 7 5 0.0
vt 0.4375 0.25
vt 0.375 0.25
vt 0.375 0.3125
vt 0.4375 0.3125
f 869/869/2 870/870/2 871/871/2 872/872/2
v 7 4 1.0
v 8 4 1.0
v 8 5 1.0
v 7 5 1.0
vt 0.4375 0.25
vt 0.5 0.25
vt 0.5 0.3125
vt 0.4375 0.3125
f 873/873/1 874/874/1 875/875/1 876/876/1
v 8 4 0.0
v 7 4 0.0
v 7 5 0.0
v 8 5 0.0
vt 0.5 0.25
vt 0.4375 0.25
vt 0.4375 0.3125
vt 0.5 0.3125
f 877/877/2 878/878/2 879/879/2 880/880/2
v 7 4 0.0
v 8 4 0.0
v 8 4 1.0
v 7 4 1.0
vt 0.4375 0.25
vt 0.5 0.25
vt 0.5 0.3125
vt 0.4375 0.3125
f 881/881/4 882/882/4 883/883/4 884/884/4
v 8 4 1.0
v 8 4 0.0
v 8 5 0.0
v 8 5 1.0
vt 0.4375 0.25
vt 0.5 0.25
vt 0.5 0.3125
vt 0.4375 0.3125
f 885/885/5 886/886/5 887/887/5 888/888/5
v 3 3 1.0
v 4 3 1.0
v 4 4 1.0
v 3 4 1.0
vt 0.1875 0.1875
vt 0.25 0.1875
vt 0.25 0.25
vt 0.1875 0.25
f 889/889/1 890/890/1 891/891/1 892/892/1
v 4 3 0.0
v 3 3 0.0
v 3 4 0.0
v 4 4 0.0
vt 0.25 0.1875
vt 0.1875 0.1875
vt 0.1875 0.25
vt 0.25 0.25
f 893/893/2 894/894/2 895/895/2 896/896/2
v 3 3 0.0
v 4 3 0.0
v 4 3 1.0
v 3 3 1.0
vt 0.1875 0.1875
vt 0.25 0.1875
vt 0.25 0.25
vt 0.1875 0.25
f 897/897/4 898/898/4 899/899/4 900/900/4
v 3 3 0.0
v 3 3 1.0
v 3 4 1.0
v 3 4 0.0
vt 0.1875 0.1875
vt 0.25 0.1875
vt 0.25 0.25
vt 0.1875 0.25
f 901/901/6 902/902/6 903/903/6 904/904/6
v 4 3 1.0
v 5 3 1.0
v 5 4 1.0
v 4 4 1.0
vt 0.25 0.1875
vt 0.3125 0.1875
vt 0.3125 0.25
vt 0.25 0.25
f 905/905/1 906/906/1 907/907/1 908/908/1
v 5 3 0.0
v 4 3 0.0
v 4 4 0.0
v 5 4 0.0
vt 0.3125 0.1875
vt 0.25 0.1875
vt 0.25 0.25
vt 0.3125 0.25
f 909/909/2 910/910/2 911/911/2 912/912/2
v 5 3 1.0
v 6 3 1.0
v 6 4 1.0
v 5 4 1.0
vt 0.3125 0.1875
vt 0.375 0.1875
vt 0.375 0.25
vt 0.3125 0.25
f 913/913/1 914/914/1 915/915/1 916/916/1
v 6 3 0.0
v 5 3 0.0
v 5 4 0.0
v 6 4 0.0
vt 0.375 0.1875
vt 0.3125 0.1875
vt 0.3125 0.25
vt 0.375 0.25
f 917/917/2 918/918/2 919/919/2 920/920/2
v 6 3 1.0
v 7 3 1.0
v 7 4 1.0
v 6 4 1.0
vt 0.375 0.1875
vt 0.4375 0.1875
vt 0.4375 0.25
vt 0.375 0.25
f 921/921/1 922/922/1 923/923/1 924/924/1
v 7 3 0.0
v 6 3 0.0
v 6 4 0.0
v 7 4 0.0
vt 0.4375 0.1875
vt 0.375 0.1875
vt 0.375 0.25
vt 0.4375 0.25
f 925/925/2 926/926/2 927/927/2 928/928/2
v 7 3 1.0
v 7 3 0.0
v 7 4 0.0
v 7 4 1.0
vt 0.375 0.1875
vt 0.4375 0.1875
vt 0.4375 0.25
vt 0.375 0.25
f 929/929/5 930/930/5 931/931/5 932/932/5
v 4 2 1.0
v 5 2 1.0
v 5 3 1.0
v 4 3 1.0
vt 0.25 0.125
vt 0.3125 0.125
vt 0.3125 0.1875
vt 0.25 0.1875
f 933/933/1 934/934/1 935/935/1 936/936/1
v 5 2 0.0
v 4 2 0.0
v 4 3 0.0
v 5 3 0.0
vt 0.3125 0.125
vt 0.25 0.125
vt 0.25 0.1875
vt 0.3125 0.1875
f 937/937/2 938/938/2 939/939/2 940/940/2
v 4 2 0.0
v 5 2 0.0
v 5 2 1.0
v 4 2 1.0
vt 0.25 0.125
vt 0.3125 0.125
vt 0.3125 0.1875
vt 0.25 0.1875
f 941/941/4 942/942/4 943/943/4 944/944/4
v 4 2 0.0
v 4 2 1.0
v 4 3 1.0
v 4 3 0.0
vt 0.25 0.125
vt 0.3125 0.125
vt 0.3125 0.1875
vt 0.25 0.1875
f 945/945/6 946/946/6 947/947/6 948/948/6
v 5 2 1.0
v 6 2 1.0
v 6 3 1.0
v 5 3 1.0
vt 0.3125 0.125
vt 0.375 0.125
vt 0.375 0.1875
vt 0.3125 0.1875
f 949/949/1 950/950/1 951/951/1 952/952/1
v 6 2 0.0
v 5 2 0.0
v 5 3 0.0
v 6 3 0.0
vt 0.375 0.125
vt 0.3125 0.125
vt 0.3125 0.1875
vt 0.375 0.1875
f 953/953/2 954/954/2 955/955/2 956/956/2
v 6 2 1.0
v 7 2 1.0
v 7 3 1.0
v 6 3 1.0
vt 0.375 0.125
vt 0.4375 0.125
vt 0.4375 0.1875
vt 0.375 0.1875
f 957/957/1 958/958/1 959/959/1 960/960/1
v 7 2 0.0
v 6 2 0.0
v 6 3 0.0
v 7 3 0.0
vt 0.4375 0.125
vt 0.375 0.125
vt 0.375 0.1875
vt 0.4375 0.1875
f 961/961/2 962/962/2 963/963/2 964/964/2
v 6 2 0.0
v 7 2 0.0
v 7 2 1.0
v 6 2 1.0
vt 0.375 0.125
vt 0.4375 0.125
vt 0.4375 0.1875
vt 0.375 0.1875
f 965/965/4 966/966/4 967/967/4 968/968/4
v 7 2 1.0
v 7 2 0.0
v 7 3 0.0
v 7 3 1.0
vt 0.375 0.125
vt 0.4375 0.125
vt 0.4375 0.1875
vt 0.375 0.1875
f 969/969/5 970/970/5 971/971/5 972/972/5
v 5 1 1.0
v 6 1 1.0
v 6 2 1.0
v 5 2 1.0
vt 0.3125 0.0625
vt 0.375 0.0625
vt 0.375 0.125
vt 0.3125 0.125
f 973/973/1 974/974/1 975/975/1 976/976/1
v 6 1 0.0
v 5 1 0.0
v 5 2 0.0
v 6 2 0.0
vt 0.375 0.0625
vt 0.3125 0.0625
vt 0.3125 0.125
vt 0.375 0.125
f 977/977/2 978/978/2 979/979/2 980/980/2
v 5 1 0.0
v 6 1 0.0
v 6 1 1.0
v 5 1 1.0
vt 0.3125 0.0625
vt 0.375 0.0625
vt 0.375 0.125
vt 0.3125 0.125
f 981/981/4 982/982/4 983/983/4 984/984/4
v 6 1 1.0
v 6 1 0.0
v 6 2 0.0
v 6 2 1.0
vt 0.3125 0.0625
vt 0.375 0.0625
vt 0.375 0.125
vt 0.3125 0.125
f 985/985/5 986/986/5 987/987/5 988/988/5
v 5 1 0.0
v 5 1 1.0
v 5 2 1.0
v 5 2 0.0
vt 0.3125 0.0625
vt 0.375 0.0625
vt 0.375 0.125
vt 0.3125 0.125
f 989/989/6 990/990/6 991/991/6 992/992/6
o mesh_mask_4
usemtl mat_金苹果
v 10 7 1.0
v 11 7 1.0
v 11 8 1.0
v 10 8 1.0
vt 0.625 0.4375
vt 0.6875 0.4375
vt 0.6875 0.5
vt 0.625 0.5
f 993/993/1 994/994/1 995/995/1 996/996/1
v 11 7 0.0
v 10 7 0.0
v 10 8 0.0
v 11 8 0.0
vt 0.6875 0.4375
vt 0.625 0.4375
vt 0.625 0.5
vt 0.6875 0.5
f 997/997/2 998/998/2 999/999/2 1000/1000/2
v 10 8 1.0
v 11 8 1.0
v 11 8 0.0
v 10 8 0.0
vt 0.625 0.4375
vt 0.6875 0.4375
vt 0.6875 0.5
vt 0.625 0.5
f 1001/1001/3 1002/1002/3 1003/1003/3 1004/1004/3
v 11 7 1.0
v 11 7 0.0
v 11 8 0.0
v 11 8 1.0
vt 0.625 0.4375
vt 0.6875 0.4375
vt 0.6875 0.5
vt 0.625 0.5
f 1005/1005/5 1006/1006/5 1007/1007/5 1008/1008/5
v 10 7 0.0
v 10 7 1.0
v 10 8 1.0
v 10 8 0.0
vt 0.625 0.4375
vt 0.6875 0.4375
vt 0.6875 0.5
vt 0.625 0.5
f 1009/1009/6 1010/1010/6 1011/1011/6 1012/1012/6
v 9 6 1.0
v 10 6 1.0
v 10 7 1.0
v 9 7 1.0
vt 0.5625 0.375
vt 0.625 0.375
vt 0.625 0.4375
vt 0.5625 0.4375
f 1013/1013/1 1014/1014/1 1015/1015/1 1016/1016/1
v 10 6 0.0
v 9 6 0.0
v 9 7 0.0
v 10 7 0.0
vt 0.625 0.375
vt 0.5625 0.375
vt 0.5625 0.4375
vt 0.625 0.4375
f 1017/1017/2 1018/1018/2 1019/1019/2 1020/1020/2
v 9 7 1.0
v 10 7 1.0
v 10 7 0.0
v 9 7 0.0
vt 0.5625 0.375
vt 0.625 0.375
vt 0.625 0.4375
vt 0.5625 0.4375
f 1021/1021/3 1022/1022/3 1023/1023/3 1024/1024/3
v 9 6 0.0
v 9 6 1.0
v 9 7 1.0
v 9 7 0.0
vt 0.5625 0.375
vt 0.625 0.375
vt 0.625 0.4375
vt 0.5625 0.4375
f 1025/1025/6 1026/1026/6 1027/1027/6 1028/1028/6
v 10 6 1.0
v 11 6 1.0
v 11 7 1.0
v 10 7 1.0
vt 0.625 0.375
vt 0.6875 0.375
vt 0.6875 0.4375
vt 0.625 0.4375
f 1029/1029/1 1030/1030/1 1031/1031/1 1032/1032/1
v 11 6 0.0
v 10 6 0.0
v 10 7 0.0
v 11 7 0.0
vt 0.6875 0.375
vt 0.625 0.375
vt 0.625 0.4375
vt 0.6875 0.4375
f 1033/1033/2 1034/1034/2 1035/1035/2 1036/1036/2
v 11 6 1.0
v 12 6 1.0
v 12 7 1.0
v 11 7 1.0
vt 0.6875 0.375
vt 0.75 0.375
vt 0.75 0.4375
vt 0.6875 0.4375
f 1037/1037/1 1038/1038/1 1039/1039/1 1040/1040/1
v 12 6 0.0
v 11 6 0.0
v 11 7 0.0
v 12 7 0.0
vt 0.75 0.375
vt 0.6875 0.375
vt 0.6875 0.4375
vt 0.75 0.4375
f 1041/1041/2 1042/1042/2 1043/1043/2 1044/1044/2
v 11 7 1.0
v 12 7 1.0
v 12 7 0.0
v 11 7 0.0
vt 0.6875 0.375
vt 0.75 0.375
vt 0.75 0.4375
vt 0.6875 0.4375
f 1045/1045/3 1046/1046/3 1047/1047/3 1048/1048/3
v 12 6 1.0
v 13 6 1.0
v 13 7 1.0
v 12 7 1.0
vt 0.75 0.375
vt 0.8125 0.375
vt 0.8125 0.4375
vt 0.75 0.4375
f 1049/1049/1 1050/1050/1 1051/1051/1 1052/1052/1
v 13 6 0.0
v 12 6 0.0
v 12 7 0.0
v 13 7 0.0
vt 0.8125 0.375
vt 0.75 0.375
vt 0.75 0.4375
vt 0.8125 0.4375
f 1053/1053/2 1054/1054/2 1055/1055/2 1056/1056/2
v 12 7 1.0
v 13 7 1.0
v 13 7 0.0
v 12 7 0.0
vt 0.75 0.375
vt 0.8125 0.375
vt 0.8125 0.4375
vt 0.75 0.4375
f 1057/1057/3 1058/1058/3 1059/1059/3 1060/1060/3
v 13 6 1.0
v 14 6 1.0
v 14 7 1.0
v 13 7 1.0
vt 0.8125 0.375
vt 0.875 0.375
vt 0.875 0.4375
vt 0.8125 0.4375
f 1061/1061/1 1062/1062/1 1063/1063/1 1064/1064/1
v 14 6 0.0
v 13 6 0.0
v 13 7 0.0
v 14 7 0.0
vt 0.875 0.375
vt 0.8125 0.375
vt 0.8125 0.4375
vt 0.875 0.4375
f 1065/1065/2 1066/1066/2 1067/1067/2 1068/1068/2
v 13 7 1.0
v 14 7 1.0
v 14 7 0.0
v 13 7 0.0
vt 0.8125 0.375
vt 0.875 0.375
vt 0.875 0.4375
vt 0.8125 0.4375
f 1069/1069/3 1070/1070/3 1071/1071/3 1072/1072/3
v 14 6 1.0
v 14 6 0.0
v 14 7 0.0
v 14 7 1.0
vt 0.8125 0.375
vt 0.875 0.375
vt 0.875 0.4375
vt 0.8125 0.4375
f 1073/1073/5 1074/1074/5 1075/1075/5 1076/1076/5
v 8 5 1.0
v 9 5 1.0
v 9 6 1.0
v 8 6 1.0
vt 0.5 0.3125
vt 0.5625 0.3125
vt 0.5625 0.375
vt 0.5 0.375
f 1077/1077/1 1078/1078/1 1079/1079/1 1080/1080/1
v 9 5 0.0
v 8 5 0.0
v 8 6 0.0
v 9 6 0.0
vt 0.5625 0.3125
vt 0.5 0.3125
vt 0.5 0.375
vt 0.5625 0.375
f 1081/1081/2 1082/1082/2 1083/1083/2 1084/1084/2
v 8 6 1.0
v 9 6 1.0
v 9 6 0.0
v 8 6 0.0
vt 0.5 0.3125
vt 0.5625 0.3125
vt 0.5625 0.375
vt 0.5 0.375
f 1085/1085/3 1086/1086/3 1087/1087/3 1088/1088/3
v 8 5 0.0
v 8 5 1.0
v 8 6 1.0
v 8 6 0.0
vt 0.5 0.3125
vt 0.5625 0.3125
vt 0.5625 0.375
vt 0.5 0.375
f 1089/1089/6 1090/1090/6 1091/1091/6 1092/1092/6
v 9 5 1.0
v 10 5 1.0
v 10 6 1.0
v 9 6 1.0
vt 0.5625 0.3125
vt 0.625 0.3125
vt 0.625 0.375
vt 0.5625 0.375
f 1093/1093/1 1094/1094/1 1095/1095/1 1096/1096/1
v 10 5 0.0
v 9 5 0.0
v 9 6 0.0
v 10 6 0.0
vt 0.625 0.3125
vt 0.5625 0.3125
vt 0.5625 0.375
vt 0.625 0.375
f 1097/1097/2 1098/1098/2 1099/1099/2 1100/1100/2
v 10 5 1.0
v 11 5 1.0
v 11 6 1.0
v 10 6 1.0
vt 0.625 0.3125
vt 0.6875 0.3125
vt 0.6875 0.375
vt 0.625 0.375
f 1101/1101/1 1102/1102/1 1103/1103/1 1104/1104/1
v 11 5 0.0
v 10 5 0.0
v 10 6 0.0
v 11 6 0.0
vt 0.6875 0.3125
vt 0.625 0.3125
vt 0.625 0.375
vt 0.6875 0.375
f 1105/1105/2 1106/1106/2 1107/1107/2 1108/1108/2
v 11 5 1.0
v 12 5 1.0
v 12 6 1.0
v 11 6 1.0
vt 0.6875 0.3125
vt 0.75 0.3125
vt 0.75 0.375
vt 0.6875 0.375
f 1109/1109/1 1110/1110/1 1111/1111/1 1112/1112/1
v 12 5 0.0
v 11 5 0.0
v 11 6 0.0
v 12 6 0.0
vt 0.75 0.3125
vt 0.6875 0.3125
vt 0.6875 0.375
vt 0.75 0.375
f 1113/1113/2 1114/1114/2 1115/1115/2 1116/1116/2
v 12 5 1.0
v 13 5 1.0
v 13 6 1.0
v 12 6 1.0
vt 0.75 0.3125
vt 0.8125 0.3125
vt 0.8125 0.375
vt 0.75 0.375
f 1117/1117/1 1118/1118/1 1119/1119/1 1120/1120/1
v 13 5 0.0
v 12 5 0.0
v 12 6 0.0
v 13 6 0.0
vt 0.8125 0.3125
vt 0.75 0.3125
vt 0.75 0.375
vt 0.8125 0.375
f 1121/1121/2 1122/1122/2 1123/1123/2 1124/1124/2
v 13 5 1.0
v 14 5 1.0
v 14 6 1.0
v 13 6 1.0
vt 0.8125 0.3125
vt 0.875 0.3125
vt 0.875 0.375
vt 0.8125 0.375
f 1125/1125/1 1126/1126/1 1127/1127/1 1128/1128/1
v 14 5 0.0
v 13 5 0.0
v 13 6 0.0
v 14 6 0.0
vt 0.875 0.3125
vt 0.8125 0.3125
vt 0.8125 0.375
vt 0.875 0.375
f 1129/1129/2 1130/1130/2 1131/1131/2 1132/1132/2
v 13 5 0.0
v 14 5 0.0
v 14 5 1.0
v 13 5 1.0
vt 0.8125 0.3125
vt 0.875 0.3125
vt 0.875 0.375
vt 0.8125 0.375
f 1133/1133/4 1134/1134/4 1135/1135/4 1136/1136/4
v 14 5 1.0
v 14 5 0.0
v 14 6 0.0
v 14 6 1.0
vt 0.8125 0.3125
vt 0.875 0.3125
vt 0.875 0.375
vt 0.8125 0.375
f 1137/1137/5 1138/1138/5 1139/1139/5 1140/1140/5
v 8 4 1.0
v 9 4 1.0
v 9 5 1.0
v 8 5 1.0
vt 0.5 0.25
vt 0.5625 0.25
vt 0.5625 0.3125
vt 0.5 0.3125
f 1141/1141/1 1142/1142/1 1143/1143/1 1144/1144/1
v 9 4 0.0
v 8 4 0.0
v 8 5 0.0
v 9 5 0.0
vt 0.5625 0.25
vt 0.5 0.25
vt 0.5 0.3125
vt 0.5625 0.3125
f 1145/1145/2 1146/1146/2 1147/1147/2 1148/1148/2
v 8 4 0.0
v 8 4 1.0
v 8 5 1.0
v 8 5 0.0
vt 0.5 0.25
vt 0.5625 0.25
vt 0.5625 0.3125
vt 0.5 0.3125
f 1149/1149/6 1150/1150/6 1151/1151/6 1152/1152/6
v 9 4 1.0
v 10 4 1.0
v 10 5 1.0
v 9 5 1.0
vt 0.5625 0.25
vt 0.625 0.25
vt 0.625 0.3125
vt 0.5625 0.3125
f 1153/1153/1 1154/1154/1 1155/1155/1 1156/1156/1
v 10 4 0.0
v 9 4 0.0
v 9 5 0.0
v 10 5 0.0
vt 0.625 0.25
vt 0.5625 0.25
vt 0.5625 0.3125
vt 0.625 0.3125
f 1157/1157/2 1158/1158/2 1159/1159/2 1160/1160/2
v 10 4 1.0
v 11 4 1.0
v 11 5 1.0
v 10 5 1.0
vt 0.625 0.25
vt 0.6875 0.25
vt 0.6875 0.3125
vt 0.625 0.3125
f 1161/1161/1 1162/1162/1 1163/1163/1 1164/1164/1
v 11 4 0.0
v 10 4 0.0
v 10 5 0.0
v 11 5 0.0
vt 0.6875 0.25
vt 0.625 0.25
vt 0.625 0.3125
vt 0.6875 0.3125
f 1165/1165/2 1166/1166/2 1167/1167/2 1168/1168/2
v 11 4 1.0
v 12 4 1.0
v 12 5 1.0
v 11 5 1.0
vt 0.6875 0.25
vt 0.75 0.25
vt 0.75 0.3125
vt 0.6875 0.3125
f 1169/1169/1 1170/1170/1 1171/1171/1 1172/1172/1
v 12 4 0.0
v 11 4 0.0
v 11 5 0.0
v 12 5 0.0
vt 0.75 0.25
vt 0.6875 0.25
vt 0.6875 0.3125
vt 0.75 0.3125
f 1173/1173/2 1174/1174/2 1175/1175/2 1176/1176/2
v 12 4 1.0
v 13 4 1.0
v 13 5 1.0
v 12 5 1.0
vt 0.75 0.25
vt 0.8125 0.25
vt 0.8125 0.3125
vt 0.75 0.3125
f 1177/1177/1 1178/1178/1 1179/1179/1 1180/1180/1
v 13 4 0.0
v 12 4 0.0
v 12 5 0.0
v 13 5 0.0
vt 0.8125 0.25
vt 0.75 0.25
vt 0.75 0.3125
vt 0.8125 0.3125
f 1181/1181/2 1182/1182/2 1183/1183/2 1184/1184/2
v 13 4 1.0
v 13 4 0.0
v 13 5 0.0
v 13 5 1.0
vt 0.75 0.25
vt 0.8125 0.25
vt 0.8125 0.3125
vt 0.75 0.3125
f 1185/1185/5 1186/1186/5 1187/1187/5 1188/1188/5
v 7 3 1.0
v 8 3 1.0
v 8 4 1.0
v 7 4 1.0
vt 0.4375 0.1875
vt 0.5 0.1875
vt 0.5 0.25
vt 0.4375 0.25
f 1189/1189/1 1190/1190/1 1191/1191/1 1192/1192/1
v 8 3 0.0
v 7 3 0.0
v 7 4 0.0
v 8 4 0.0
vt 0.5 0.1875
vt 0.4375 0.1875
vt 0.4375 0.25
vt 0.5 0.25
f 1193/1193/2 1194/1194/2 1195/1195/2 1196/1196/2
v 7 4 1.0
v 8 4 1.0
v 8 4 0.0
v 7 4 0.0
vt 0.4375 0.1875
vt 0.5 0.1875
vt 0.5 0.25
vt 0.4375 0.25
f 1197/1197/3 1198/1198/3 1199/1199/3 1200/1200/3
v 7 3 0.0
v 7 3 1.0
v 7 4 1.0
v 7 4 0.0
vt 0.4375 0.1875
vt 0.5 0.1875
vt 0.5 0.25
vt 0.4375 0.25
f 1201/1201/6 1202/1202/6 1203/1203/6 1204/1204/6
v 8 3 1.0
v 9 3 1.0
v 9 4 1.0
v 8 4 1.0
vt 0.5 0.1875
vt 0.5625 0.1875
vt 0.5625 0.25
vt 0.5 0.25
f 1205/1205/1 1206/1206/1 1207/1207/1 1208/1208/1
v 9 3 0.0
v 8 3 0.0
v 8 4 0.0
v 9 4 0.0
vt 0.5625 0.1875
vt 0.5 0.1875
vt 0.5 0.25
vt 0.5625 0.25
f 1209/1209/2 1210/1210/2 1211/1211/2 1212/1212/2
v 9 3 1.0
v 10 3 1.0
v 10 4 1.0
v 9 4 1.0
vt 0.5625 0.1875
vt 0.625 0.1875
vt 0.625 0.25
vt 0.5625 0.25
f 1213/1213/1 1214/1214/1 1215/1215/1 1216/1216/1
v 10 3 0.0
v 9 3 0.0
v 9 4 0.0
v 10 4 0.0
vt 0.625 0.1875
vt 0.5625 0.1875
vt 0.5625 0.25
vt 0.625 0.25
f 1217/1217/2 1218/1218/2 1219/1219/2 1220/1220/2
v 10 3 1.0
v 11 3 1.0
v 11 4 1.0
v 10 4 1.0
vt 0.625 0.1875
vt 0.6875 0.1875
vt 0.6875 0.25
vt 0.625 0.25
f 1221/1221/1 1222/1222/1 1223/1223/1 1224/1224/1
v 11 3 0.0
v 10 3 0.0
v 10 4 0.0
v 11 4 0.0
vt 0.6875 0.1875
vt 0.625 0.1875
vt 0.625 0.25
vt 0.6875 0.25
f 1225/1225/2 1226/1226/2 1227/1227/2 1228/1228/2
v 11 3 1.0
v 12 3 1.0
v 12 4 1.0
v 11 4 1.0
vt 0.6875 0.1875
vt 0.75 0.1875
vt 0.75 0.25
vt 0.6875 0.25
f 1229/1229/1 1230/1230/1 1231/1231/1 1232/1232/1
v 12 3 0.0
v 11 3 0.0
v 11 4 0.0
v 12 4 0.0
vt 0.75 0.1875
vt 0.6875 0.1875
vt 0.6875 0.25
vt 0.75 0.25
f 1233/1233/2 1234/1234/2 1235/1235/2 1236/1236/2
v 12 3 1.0
v 13 3 1.0
v 13 4 1.0
v 12 4 1.0
vt 0.75 0.1875
vt 0.8125 0.1875
vt 0.8125 0.25
vt 0.75 0.25
f 1237/1237/1 1238/1238/1 1239/1239/1 1240/1240/1
v 13 3 0.0
v 12 3 0.0
v 12 4 0.0
v 13 4 0.0
vt 0.8125 0.1875
vt 0.75 0.1875
vt 0.75 0.25
vt 0.8125 0.25
f 1241/1241/2 1242/1242/2 1243/1243/2 1244/1244/2
v 12 3 0.0
v 13 3 0.0
v 13 3 1.0
v 12 3 1.0
vt 0.75 0.1875
vt 0.8125 0.1875
vt 0.8125 0.25
vt 0.75 0.25
f 1245/1245/4 1246/1246/4 1247/1247/4 1248/1248/4
v 13 3 1.0
v 13 3 0.0
v 13 4 0.0
v 13 4 1.0
vt 0.75 0.1875
vt 0.8125 0.1875
vt 0.8125 0.25
vt 0.75 0.25
f 1249/1249/5 1250/1250/5 1251/1251/5 1252/1252/5
v 7 2 1.0
v 8 2 1.0
v 8 3 1.0
v 7 3 1.0
vt 0.4375 0.125
vt 0.5 0.125
vt 0.5 0.1875
vt 0.4375 0.1875
f 1253/1253/1 1254/1254/1 1255/1255/1 1256/1256/1
v 8 2 0.0
v 7 2 0.0
v 7 3 0.0
v 8 3 0.0
vt 0.5 0.125
vt 0.4375 0.125
vt 0.4375 0.1875
vt 0.5 0.1875
f 1257/1257/2 1258/1258/2 1259/1259/2 1260/1260/2
v 7 2 0.0
v 7 2 1.0
v 7 3 1.0
v 7 3 0.0
vt 0.4375 0.125
vt 0.5 0.125
vt 0.5 0.1875
vt 0.4375 0.1875
f 1261/1261/6 1262/1262/6 1263/1263/6 1264/1264/6
v 8 2 1.0
v 9 2 1.0
v 9 3 1.0
v 8 3 1.0
vt 0.5 0.125
vt 0.5625 0.125
vt 0.5625 0.1875
vt 0.5 0.1875
f 1265/1265/1 1266/1266/1 1267/1267/1 1268/1268/1
v 9 2 0.0
v 8 2 0.0
v 8 3 0.0
v 9 3 0.0
vt 0.5625 0.125
vt 0.5 0.125
vt 0.5 0.1875
vt 0.5625 0.1875
f 1269/1269/2 1270/1270/2 1271/1271/2 1272/1272/2
v 9 2 1.0
v 10 2 1.0
v 10 3 1.0
v 9 3 1.0
vt 0.5625 0.125
vt 0.625 0.125
vt 0.625 0.1875
vt 0.5625 0.1875
f 1273/1273/1 1274/1274/1 1275/1275/1 1276/1276/1
v 10 2 0.0
v 9 2 0.0
v 9 3 0.0
v 10 3 0.0
vt 0.625 0.125
vt 0.5625 0.125
vt 0.5625 0.1875
vt 0.625 0.1875
f 1277/1277/2 1278/1278/2 1279/1279/2 1280/1280/2
v 10 2 1.0
v 11 2 1.0
v 11 3 1.0
v 10 3 1.0
vt 0.625 0.125
vt 0.6875 0.125
vt 0.6875 0.1875
vt 0.625 0.1875
f 1281/1281/1 1282/1282/1 1283/1283/1 1284/1284/1
v 11 2 0.0
v 10 2 0.0
v 10 3 0.0
v 11 3 0.0
vt 0.6875 0.125
vt 0.625 0.125
vt 0.625 0.1875
vt 0.6875 0.1875
f 1285/1285/2 1286/1286/2 1287/1287/2 1288/1288/2
v 11 2 1.0
v 12 2 1.0
v 12 3 1.0
v 11 3 1.0
vt 0.6875 0.125
vt 0.75 0.125
vt 0.75 0.1875
vt 0.6875 0.1875
f 1289/1289/1 1290/1290/1 1291/1291/1 1292/1292/1
v 12 2 0.0
v 11 2 0.0
v 11 3 0.0
v 12 3 0.0
vt 0.75 0.125
vt 0.6875 0.125
vt 0.6875 0.1875
vt 0.75 0.1875
f 1293/1293/2 1294/1294/2 1295/1295/2 1296/1296/2
v 11 2 0.0
v 12 2 0.0
v 12 2 1.0
v 11 2 1.0
vt 0.6875 0.125
vt 0.75 0.125
vt 0.75 0.1875
vt 0.6875 0.1875
f 1297/1297/4 1298/1298/4 1299/1299/4 1300/1300/4
v 12 2 1.0
v 12 2 0.0
v 12 3 0.0
v 12 3 1.0
vt 0.6875 0.125
vt 0.75 0.125
vt 0.75 0.1875
vt 0.6875 0.1875
f 1301/1301/5 1302/1302/5 1303/1303/5 1304/1304/5
v 6 1 1.0
v 7 1 1.0
v 7 2 1.0
v 6 2 1.0
vt 0.375 0.0625
vt 0.4375 0.0625
vt 0.4375 0.125
vt 0.375 0.125
f 1305/1305/1 1306/1306/1 1307/1307/1 1308/1308/1
v 7 1 0.0
v 6 1 0.0
v 6 2 0.0
v 7 2 0.0
vt 0.4375 0.0625
vt 0.375 0.0625
vt 0.375 0.125
vt 0.4375 0.125
f 1309/1309/2 1310/1310/2 1311/1311/2 1312/1312/2
v 6 2 1.0
v 7 2 1.0
v 7 2 0.0
v 6 2 0.0
vt 0.375 0.0625
vt 0.4375 0.0625
vt 0.4375 0.125
vt 0.375 0.125
f 1313/1313/3 1314/1314/3 1315/1315/3 1316/1316/3
v 6 1 0.0
v 7 1 0.0
v 7 1 1.0
v 6 1 1.0
vt 0.375 0.0625
vt 0.4375 0.0625
vt 0.4375 0.125
vt 0.375 0.125
f 1317/1317/4 1318/1318/4 1319/1319/4 1320/1320/4
v 6 1 0.0
v 6 1 1.0
v 6 2 1.0
v 6 2 0.0
vt 0.375 0.0625
vt 0.4375 0.0625
vt 0.4375 0.125
vt 0.375 0.125
f 1321/1321/6 1322/1322/6 1323/1323/6 1324/1324/6
v 7 1 1.0
v 8 1 1.0
v 8 2 1.0
v 7 2 1.0
vt 0.4375 0.0625
vt 0.5 0.0625
vt 0.5 0.125
vt 0.4375 0.125
f 1325/1325/1 1326/1326/1 1327/1327/1 1328/1328/1
v 8 1 0.0
v 7 1 0.0
v 7 2 0.0
v 8 2 0.0
vt 0.5 0.0625
vt 0.4375 0.0625
vt 0.4375 0.125
vt 0.5 0.125
f 1329/1329/2 1330/1330/2 1331/1331/2 1332/1332/2
v 7 1 0.0
v 8 1 0.0
v 8 1 1.0
v 7 1 1.0
vt 0.4375 0.0625
vt 0.5 0.0625
vt 0.5 0.125
vt 0.4375 0.125
f 1333/1333/4 1334/1334/4 1335/1335/4 1336/1336/4
v 8 1 1.0
v 9 1 1.0
v 9 2 1.0
v 8 2 1.0
vt 0.5 0.0625
vt 0.5625 0.0625
vt 0.5625 0.125
vt 0.5 0.125
f 1337/1337/1 1338/1338/1 1339/1339/1 1340/1340/1
v 9 1 0.0
v 8 1 0.0
v 8 2 0.0
v 9 2 0.0
vt 0.5625 0.0625
vt 0.5 0.0625
vt 0.5 0.125
vt 0.5625 0.125
f 1341/1341/2 1342/1342/2 1343/1343/2 1344/1344/2
v 8 1 0.0
v 9 1 0.0
v 9 1 1.0
v 8 1 1.0
vt 0.5 0.0625
vt 0.5625 0.0625
vt 0.5625 0.125
vt 0.5 0.125
f 1345/1345/4 1346/1346/4 1347/1347/4 1348/1348/4
v 9 1 1.0
v 10 1 1.0
v 10 2 1.0
v 9 2 1.0
vt 0.5625 0.0625
vt 0.625 0.0625
vt 0.625 0.125
vt 0.5625 0.125
f 1349/1349/1 1350/1350/1 1351/1351/1 1352/1352/1
v 10 1 0.0
v 9 1 0.0
v 9 2 0.0
v 10 2 0.0
vt 0.625 0.0625
vt 0.5625 0.0625
vt 0.5625 0.125
vt 0.625 0.125
f 1353/1353/2 1354/1354/2 1355/1355/2 1356/1356/2
v 9 1 0.0
v 10 1 0.0
v 10 1 1.0
v 9 1 1.0
vt 0.5625 0.0625
vt 0.625 0.0625
vt 0.625 0.125
vt 0.5625 0.125
f 1357/1357/4 1358/1358/4 1359/1359/4 1360/1360/4
v 10 1 1.0
v 11 1 1.0
v 11 2 1.0
v 10 2 1.0
vt 0.625 0.0625
vt 0.6875 0.0625
vt 0.6875 0.125
vt 0.625 0.125
f 1361/1361/1 1362/1362/1 1363/1363/1 1364/1364/1
v 11 1 0.0
v 10 1 0.0
v 10 2 0.0
v 11 2 0.0
vt 0.6875 0.0625
vt 0.625 0.0625
vt 0.625 0.125
vt 0.6875 0.125
f 1365/1365/2 1366/1366/2 1367/1367/2 1368/1368/2
v 10 1 0.0
v 11 1 0.0
v 11 1 1.0
v 10 1 1.0
vt 0.625 0.0625
vt 0.6875 0.0625
vt 0.6875 0.125
vt 0.625 0.125
f 1369/1369/4 1370/1370/4 1371/1371/4 1372/1372/4
v 11 1 1.0
v 11 1 0.0
v 11 2 0.0
v 11 2 1.0
vt 0.625 0.0625
vt 0.6875 0.0625
vt 0.6875 0.125
vt 0.625 0.125
f 1373/1373/5 1374/1374/5 1375/1375/5 1376/1376/5
