# Made in Blockbench 5.1.4
mtllib 伸缩机械手.mtl

o cube
v 0.125 0.8718592167691146 -0.6584708691207961
v 0.125 0.7834708691207961 -0.7468592167691146
v 0.125 0.6066941738241592 -0.39330582617584076
v 0.125 0.5183058261758408 -0.48169417382415924
v -0.125 0.7834708691207961 -0.7468592167691146
v -0.125 0.8718592167691146 -0.6584708691207961
v -0.125 0.5183058261758408 -0.48169417382415924
v -0.125 0.6066941738241592 -0.39330582617584076
vt 0.375 1
vt 0.625 1
vt 0.625 0.625
vt 0.375 0.625
vt 0.375 0.5
vt 0.5 0.5
vt 0.5 0.125
vt 0.375 0.125
vt 0.375 1
vt 0.625 1
vt 0.625 0.625
vt 0.375 0.625
vt 0.5 0.125
vt 0.375 0.125
vt 0.375 0.5
vt 0.5 0.5
vt 0.625 0.5
vt 0.375 0.5
vt 0.375 0.625
vt 0.625 0.625
vt 0.625 0.5
vt 0.375 0.5
vt 0.375 0.625
vt 0.625 0.625
vn 0 -0.7071067811865476 -0.7071067811865475
vn 1 0 0
vn 0 0.7071067811865476 0.7071067811865475
vn -1 0 0
vn 0 0.7071067811865475 -0.7071067811865476
vn 0 -0.7071067811865475 0.7071067811865476
usemtl m_1ef658f6-7e8e-b8b0-7f40-366ff74549b3
f 4/4/1 7/3/1 5/2/1 2/1/1
f 3/8/2 4/7/2 2/6/2 1/5/2
f 8/12/3 3/11/3 1/10/3 6/9/3
f 7/16/4 8/15/4 6/14/4 5/13/4
f 6/20/5 1/19/5 2/18/5 5/17/5
f 7/24/6 4/23/6 3/22/6 8/21/6
o cube
v 0.125 0.6089150429449552 -1.395526695296637
v 0.125 0.5205266952966369 -1.4839150429449552
v 0.125 0.34375 -1.1303616523516815
v 0.125 0.25536165235168157 -1.21875
v -0.125 0.5205266952966369 -1.4839150429449552
v -0.125 0.6089150429449552 -1.395526695296637
v -0.125 0.25536165235168157 -1.21875
v -0.125 0.34375 -1.1303616523516815
vt 0.375 1
vt 0.625 1
vt 0.625 0.625
vt 0.375 0.625
vt 0.375 0.5
vt 0.5 0.5
vt 0.5 0.125
vt 0.375 0.125
vt 0.375 1
vt 0.625 1
vt 0.625 0.625
vt 0.375 0.625
vt 0.5 0.125
vt 0.375 0.125
vt 0.375 0.5
vt 0.5 0.5
vt 0.625 0.5
vt 0.375 0.5
vt 0.375 0.625
vt 0.625 0.625
vt 0.625 0.5
vt 0.375 0.5
vt 0.375 0.625
vt 0.625 0.625
vn 0 -0.7071067811865476 -0.7071067811865475
vn 1 0 0
vn 0 0.7071067811865476 0.7071067811865475
vn -1 0 0
vn 0 0.7071067811865475 -0.7071067811865476
vn 0 -0.7071067811865475 0.7071067811865476
usemtl m_1ef658f6-7e8e-b8b0-7f40-366ff74549b3
f 12/28/7 15/27/7 13/26/7 10/25/7
f 11/32/8 12/31/8 10/30/8 9/29/8
f 16/36/9 11/35/9 9/34/9 14/33/9
f 15/40/10 16/39/10 14/38/10 13/37/10
f 14/44/11 9/43/11 10/42/11 13/41/11
f 15/48/12 12/47/12 11/46/12 16/45/12
o cube
v 0.0625 0.8696383476483185 -0.71875
v 0.0625 0.3393082617584078 -1.2490800858899105
v 0.0625 0.78125 -0.6303616523516815
v 0.0625 0.2509199141100893 -1.1606917382415922
v -0.0625 0.3393082617584078 -1.2490800858899105
v -0.0625 0.8696383476483185 -0.71875
v -0.0625 0.2509199141100893 -1.1606917382415922
v -0.0625 0.78125 -0.6303616523516815
vt 0 1
vt 0.0625 1
vt 0.0625 0.9375
vt 0 0.9375
vt 0.375 1
vt 0.375 0.25
vt 0.25 0.25
vt 0.25 1
vt 0.0625 0.9375
vt 0 0.9375
vt 0 1
vt 0.0625 1
vt 0.25 0.25
vt 0.25 1
vt 0.375 1
vt 0.375 0.25
vt 0.375 0.25
vt 0.25 0.25
vt 0.25 1
vt 0.375 1
vt 0.25 1
vt 0.375 1
vt 0.375 0.25
vt 0.25 0.25
vn 0 -0.7071067811865476 -0.7071067811865475
vn 1 0 0
vn 0 0.7071067811865476 0.7071067811865475
vn -1 0 0
vn 0 0.7071067811865475 -0.7071067811865476
vn 0 -0.7071067811865475 0.7071067811865476
usemtl m_1ef658f6-7e8e-b8b0-7f40-366ff74549b3
f 20/52/13 23/51/13 21/50/13 18/49/13
f 19/56/14 20/55/14 18/54/14 17/53/14
f 24/60/15 19/59/15 17/58/15 22/57/15
f 23/64/16 24/63/16 22/62/16 21/61/16
f 22/68/17 17/67/17 18/66/17 21/65/17
f 23/72/18 20/71/18 19/70/18 24/69/18
o cube
v 0.0625 0.5183058261758408 -0.39330582617584076
v 0.0625 0.6066941738241592 -0.48169417382415924
v 0.0625 0.25314078323088546 -0.6584708691207961
v 0.0625 0.3415291308792039 -0.7468592167691146
v -0.0625 0.6066941738241592 -0.48169417382415924
v -0.0625 0.5183058261758408 -0.39330582617584076
v -0.0625 0.3415291308792039 -0.7468592167691146
v -0.0625 0.25314078323088546 -0.6584708691207961
vt 0.5 0.125
vt 0.375 0.125
vt 0.375 0.5
vt 0.5 0.5
vt 0.5 0.125
vt 0.375 0.125
vt 0.375 0.5
vt 0.5 0.5
vt 0.5 0.125
vt 0.375 0.125
vt 0.375 0.5
vt 0.5 0.5
vt 0.5 0.125
vt 0.375 0.125
vt 0.375 0.5
vt 0.5 0.5
vt 0.0625 0.9375
vt 0 0.9375
vt 0 1
vt 0.0625 1
vt 0.0625 0.9375
vt 0 0.9375
vt 0 1
vt 0.0625 1
vn 0 0.7071067811865476 -0.7071067811865475
vn 1 0 0
vn 0 -0.7071067811865476 0.7071067811865475
vn -1 0 0
vn 0 0.7071067811865475 0.7071067811865476
vn 0 -0.7071067811865475 -0.7071067811865476
usemtl m_1ef658f6-7e8e-b8b0-7f40-366ff74549b3
f 28/76/19 31/75/19 29/74/19 26/73/19
f 27/80/20 28/79/20 26/78/20 25/77/20
f 32/84/21 27/83/21 25/82/21 30/81/21
f 31/88/22 32/87/22 30/86/22 29/85/22
f 30/92/23 25/91/23 26/90/23 29/89/23
f 31/96/24 28/95/24 27/94/24 32/93/24
o cube
v 0.0625 0.796875 -1.1303616523516815
v 0.0625 0.8852633476483185 -1.21875
v 0.0625 0.5317099570550448 -1.395526695296637
v 0.0625 0.6200983047033631 -1.4839150429449552
v -0.0625 0.8852633476483185 -1.21875
v -0.0625 0.796875 -1.1303616523516815
v -0.0625 0.6200983047033631 -1.4839150429449552
v -0.0625 0.5317099570550448 -1.395526695296637
vt 0.5 0.125
vt 0.375 0.125
vt 0.375 0.5
vt 0.5 0.5
vt 0.5 0.125
vt 0.375 0.125
vt 0.375 0.5
vt 0.5 0.5
vt 0.5 0.125
vt 0.375 0.125
vt 0.375 0.5
vt 0.5 0.5
vt 0.5 0.125
vt 0.375 0.125
vt 0.375 0.5
vt 0.5 0.5
vt 0.0625 0.9375
vt 0 0.9375
vt 0 1
vt 0.0625 1
vt 0.0625 0.9375
vt 0 0.9375
vt 0 1
vt 0.0625 1
vn 0 0.7071067811865476 -0.7071067811865475
vn 1 0 0
vn 0 -0.7071067811865476 0.7071067811865475
vn -1 0 0
vn 0 0.7071067811865475 0.7071067811865476
vn 0 -0.7071067811865475 -0.7071067811865476
usemtl m_1ef658f6-7e8e-b8b0-7f40-366ff74549b3
f 36/100/25 39/99/25 37/98/25 34/97/25
f 35/104/26 36/103/26 34/102/26 33/101/26
f 40/108/27 35/107/27 33/106/27 38/105/27
f 39/112/28 40/111/28 38/110/28 37/109/28
f 38/116/29 33/115/29 34/114/29 37/113/29
f 39/120/30 36/119/30 35/118/30 40/117/30
o cube
v 0.125 0.8740800858899106 -1.1606917382415922
v 0.125 0.7856917382415921 -1.2490800858899107
v 0.125 0.34375 -0.6303616523516815
v 0.125 0.25536165235168157 -0.71875
v -0.125 0.7856917382415921 -1.2490800858899107
v -0.125 0.8740800858899106 -1.1606917382415922
v -0.125 0.25536165235168157 -0.71875
v -0.125 0.34375 -0.6303616523516815
vt 0 1
vt 0.25 1
vt 0.25 0.25
vt 0 0.25
vt 0.3125 0.25
vt 0.1875 0.25
vt 0.1875 1
vt 0.3125 1
vt 0 1
vt 0.25 1
vt 0.25 0.25
vt 0 0.25
vt 0.375 0.25
vt 0.25 0.25
vt 0.25 1
vt 0.375 1
vt 0.25 0.875
vt 0 0.875
vt 0 1
vt 0.25 1
vt 0 1
vt 0.25 1
vt 0.25 0.875
vt 0 0.875
vn 0 -0.7071067811865476 -0.7071067811865475
vn 1 0 0
vn 0 0.7071067811865476 0.7071067811865475
vn -1 0 0
vn 0 0.7071067811865475 -0.7071067811865476
vn 0 -0.7071067811865475 0.7071067811865476
usemtl m_1ef658f6-7e8e-b8b0-7f40-366ff74549b3
f 44/124/31 47/123/31 45/122/31 42/121/31
f 43/128/32 44/127/32 42/126/32 41/125/32
f 48/132/33 43/131/33 41/130/33 46/129/33
f 47/136/34 48/135/34 46/134/34 45/133/34
f 46/140/35 41/139/35 42/138/35 45/137/35
f 47/144/36 44/143/36 43/142/36 48/141/36
o cube
v 0.125 0.6875 0.3125
v 0.125 0.6875 -0.0625
v 0.125 0.5 0.3125
v 0.125 0.5 -0.0625
v -0.125 0.6875 -0.0625
v -0.125 0.6875 0.3125
v -0.125 0.5 -0.0625
v -0.125 0.5 0.3125
vt 1.125 0.8125
vt 0.875 0.8125
vt 0.875 1
vt 1.125 1
vt 0.625 0.8125
vt 1 0.8125
vt 1 0.625
vt 0.625 0.625
vt 1 0.8125
vt 0.75 0.8125
vt 0.75 1
vt 1 1
vt 1 0.625
vt 0.625 0.625
vt 0.625 0.8125
vt 1 0.8125
vt 0.625 0.75
vt 0.625 1
vt 1 1
vt 1 0.75
vt 1 1
vt 1 0.75
vt 0.625 0.75
vt 0.625 1
vn 0 0 -1
vn 1 0 0
vn 0 0 1
vn -1 0 0
vn 0 1 0
vn 0 -1 0
usemtl m_1ef658f6-7e8e-b8b0-7f40-366ff74549b3
f 52/148/37 55/147/37 53/146/37 50/145/37
f 51/152/38 52/151/38 50/150/38 49/149/38
f 56/156/39 51/155/39 49/154/39 54/153/39
f 55/160/40 56/159/40 54/158/40 53/157/40
f 54/164/41 49/163/41 50/162/41 53/161/41
f 55/168/42 52/167/42 51/166/42 56/165/42
o cube
v 0.0625 0.596852180953491 0.2713331013418462
v 0.0625 0.5250990373850367 0.09810568899597993
v 0.0625 0.25039735626175846 0.41483938847875484
v 0.0625 0.17864421269330416 0.2416119761328886
v -0.0625 0.5250990373850367 0.09810568899597993
v -0.0625 0.596852180953491 0.2713331013418462
v -0.0625 0.17864421269330416 0.2416119761328886
v -0.0625 0.25039735626175846 0.41483938847875484
vt 0.25 0.6875
vt 0.375 0.6875
vt 0.375 0.3125
vt 0.25 0.3125
vt 0.1875 0.6875
vt 0.375 0.6875
vt 0.375 0.3125
vt 0.1875 0.3125
vt 0.25 0.6875
vt 0.375 0.6875
vt 0.375 0.3125
vt 0.25 0.3125
vt 0.1875 0.6875
vt 0.375 0.6875
vt 0.375 0.3125
vt 0.1875 0.3125
vt 0.125 0.8125
vt 0 0.8125
vt 0 1
vt 0.125 1
vt 0.625 0.8125
vt 0.75 0.8125
vt 0.75 0.625
vt 0.625 0.625
vn 0 -0.3826834323650897 -0.9238795325112867
vn 1 0 0
vn 0 0.3826834323650897 0.9238795325112867
vn -1 0 0
vn 0 0.9238795325112867 -0.3826834323650897
vn 0 -0.9238795325112867 0.3826834323650897
usemtl m_1ef658f6-7e8e-b8b0-7f40-366ff74549b3
f 60/172/43 63/171/43 61/170/43 58/169/43
f 59/176/44 60/175/44 58/174/44 57/173/44
f 64/180/45 59/179/45 57/178/45 62/177/45
f 63/184/46 64/183/46 62/182/46 61/181/46
f 62/188/47 57/187/47 58/186/47 61/185/47
f 63/192/48 60/191/48 59/190/48 64/189/48
o cube
v 0.1875 0.6875 -0.0625
v 0.1875 0.6875 -0.1875
v 0.1875 0.4375 -0.0625
v 0.1875 0.4375 -0.1875
v -0.1875 0.6875 -0.1875
v -0.1875 0.6875 -0.0625
v -0.1875 0.4375 -0.1875
v -0.1875 0.4375 -0.0625
vt 1.25 0.75
vt 0.875 0.75
vt 0.875 1
vt 1.25 1
vt 0.75 0.875
vt 0.875 0.875
vt 0.875 0.625
vt 0.75 0.625
vt 1.25 0.75
vt 0.875 0.75
vt 0.875 1
vt 1.25 1
vt 1 0.6875
vt 0.875 0.6875
vt 0.875 0.9375
vt 1 0.9375
vt 0.875 0.625
vt 0.875 1
vt 1 1
vt 1 0.625
vt 0.875 1
vt 0.875 0.625
vt 0.75 0.625
vt 0.75 1
vn 0 0 -1
vn 1 0 0
vn 0 0 1
vn -1 0 0
vn 0 1 0
vn 0 -1 0
usemtl m_1ef658f6-7e8e-b8b0-7f40-366ff74549b3
f 68/196/49 71/195/49 69/194/49 66/193/49
f 67/200/50 68/199/50 66/198/50 65/197/50
f 72/204/51 67/203/51 65/202/51 70/201/51
f 71/208/52 72/207/52 70/206/52 69/205/52
f 70/212/53 65/211/53 66/210/53 69/209/53
f 71/216/54 68/215/54 67/214/54 72/213/54
o cube
v 0.03125 0.659352180953491 0.14633310134184618
v 0.03125 0.5875990373850367 -0.026894311004020066
v 0.03125 0.3128973562617585 0.28983938847875484
v 0.03125 0.24114421269330416 0.1166119761328886
v -0.03125 0.5875990373850367 -0.026894311004020066
v -0.03125 0.659352180953491 0.14633310134184618
v -0.03125 0.24114421269330416 0.1166119761328886
v -0.03125 0.3128973562617585 0.28983938847875484
vt 0.875 0.625
vt 0.9375 0.625
vt 0.9375 0.25
vt 0.875 0.25
vt 0.875 0.625
vt 1.0625 0.625
vt 1.0625 0.25
vt 0.875 0.25
vt 0.875 0.625
vt 1.0625 0.625
vt 1.0625 0.25
vt 0.875 0.25
vt 0.875 0.625
vt 0.9375 0.625
vt 0.9375 0.4375
vt 0.875 0.4375
vn 0 -0.3826834323650897 -0.9238795325112867
vn 1 0 0
vn -1 0 0
vn 0 -0.9238795325112867 0.3826834323650897
usemtl m_1ef658f6-7e8e-b8b0-7f40-366ff74549b3
f 76/220/55 79/219/55 77/218/55 74/217/55
f 75/224/56 76/223/56 74/222/56 73/221/56
f 79/228/57 80/227/57 78/226/57 77/225/57
f 79/232/58 76/231/58 75/230/58 80/229/58
o Cap
v 0.1875 0.75 -0.3125
v 0.1875 0.75 -0.4375
v 0.1875 0.375 -0.3125
v 0.1875 0.375 -0.4375
v -0.1875 0.75 -0.4375
v -0.1875 0.75 -0.3125
v -0.1875 0.375 -0.4375
v -0.1875 0.375 -0.3125
vt 0.625 0.625
vt 1 0.625
vt 1 0.25
vt 0.625 0.25
vt 0 0
vt 0 0.125
vt 0.375 0.125
vt 0.375 0
vt 0.625 0.625
vt 1 0.625
vt 1 0.25
vt 0.625 0.25
vt 0 0
vt 0 0.125
vt 0.375 0.125
vt 0.375 0
vt 0.375 0
vt 0 0
vt 0 0.125
vt 0.375 0.125
vt 0 0.125
vt 0.375 0.125
vt 0.375 0
vt 0 0
vn 0 0 -1
vn 1 0 0
vn 0 0 1
vn -1 0 0
vn 0 1 0
vn 0 -1 0
usemtl m_6005c314-8634-9e26-e014-6d3fed75a8b0
f 84/236/59 87/235/59 85/234/59 82/233/59
f 83/240/60 84/239/60 82/238/60 81/237/60
f 88/244/61 83/243/61 81/242/61 86/241/61
f 87/248/62 88/247/62 86/246/62 85/245/62
f 86/252/63 81/251/63 82/250/63 85/249/63
f 87/256/64 84/255/64 83/254/64 88/253/64
o cube
v 0.125 0.625 -1.5625
v 0.125 0.625 -1.6875
v 0.125 0.4375 -1.5625
v 0.125 0.4375 -1.6875
v -0.125 0.625 -1.6875
v -0.125 0.625 -1.5625
v -0.125 0.4375 -1.6875
v -0.125 0.4375 -1.5625
vt 0 1
vt 0.25 1
vt 0.25 0.8125
vt 0 0.8125
vt 0 1
vt 0.125 1
vt 0.125 0.8125
vt 0 0.8125
vt 0 1
vt 0.25 1
vt 0.25 0.8125
vt 0 0.8125
vt 0 1
vt 0.125 1
vt 0.125 0.8125
vt 0 0.8125
vt 0 0.75
vt 0 1
vt 0.125 1
vt 0.125 0.75
vt 0.125 1
vt 0.125 0.75
vt 0 0.75
vt 0 1
vn 0 0 -1
vn 1 0 0
vn 0 0 1
vn -1 0 0
vn 0 1 0
vn 0 -1 0
usemtl m_6582190a-0e3b-68f0-1ae7-b6e087c820d5
f 92/260/65 95/259/65 93/258/65 90/257/65
f 91/264/66 92/263/66 90/262/66 89/261/66
f 96/268/67 91/267/67 89/266/67 94/265/67
f 95/272/68 96/271/68 94/270/68 93/269/68
f 94/276/69 89/275/69 90/274/69 93/273/69
f 95/280/70 92/279/70 91/278/70 96/277/70
o cube
v 0.1875 0.75 -1.625
v 0.1875 0.75 -1.8125
v 0.1875 0.5 -1.625
v 0.1875 0.5 -1.8125
v -0.1875 0.75 -1.8125
v -0.1875 0.75 -1.625
v -0.1875 0.5 -1.8125
v -0.1875 0.5 -1.625
vt 0.375 0.5625
vt 0.375 0.9375
vt 0.625 0.9375
vt 0.625 0.5625
vt 0.0625 0.75
vt 0.25 0.75
vt 0.25 0.5
vt 0.0625 0.5
vt 0.375 0.5625
vt 0.375 0.9375
vt 0.625 0.9375
vt 0.625 0.5625
vt 0.0625 0.75
vt 0.25 0.75
vt 0.25 0.5
vt 0.0625 0.5
vt 0.0625 0.5
vt 0.0625 0.875
vt 0.25 0.875
vt 0.25 0.5
vt 0.25 0.875
vt 0.25 0.5
vt 0.0625 0.5
vt 0.0625 0.875
vn 0 0 -1
vn 1 0 0
vn 0 0 1
vn -1 0 0
vn 0 1 0
vn 0 -1 0
usemtl m_fa2e621e-f026-2c79-1fd4-e73ac3790840
f 100/284/71 103/283/71 101/282/71 98/281/71
f 99/288/72 100/287/72 98/286/72 97/285/72
f 104/292/73 99/291/73 97/290/73 102/289/73
f 103/296/74 104/295/74 102/294/74 101/293/74
f 102/300/75 97/299/75 98/298/75 101/297/75
f 103/304/76 100/303/76 99/302/76 104/301/76
o cube
v -0.1875 0.5625 -1.6875
v -0.1875 0.5625 -1.875
v -0.1875 0.4375 -1.6875
v -0.1875 0.4375 -1.875
v -0.3125 0.5625 -1.875
v -0.3125 0.5625 -1.6875
v -0.3125 0.4375 -1.875
v -0.3125 0.4375 -1.6875
vt 0 1
vt 0.125 1
vt 0.125 0.875
vt 0 0.875
vt 0 0.6875
vt 0 0.875
vt 0.125 0.875
vt 0.125 0.6875
vt 0 1
vt 0.125 1
vt 0.125 0.875
vt 0 0.875
vt 0 0.6875
vt 0 0.875
vt 0.125 0.875
vt 0.125 0.6875
vt 0.125 0.6875
vt 0 0.6875
vt 0 0.875
vt 0.125 0.875
vt 0 0.875
vt 0.125 0.875
vt 0.125 0.6875
vt 0 0.6875
vn 0 0 -1
vn 1 0 0
vn 0 0 1
vn -1 0 0
vn 0 1 0
vn 0 -1 0
usemtl m_fa2e621e-f026-2c79-1fd4-e73ac3790840
f 108/308/77 111/307/77 109/306/77 106/305/77
f 107/312/78 108/311/78 106/310/78 105/309/78
f 112/316/79 107/315/79 105/314/79 110/313/79
f 111/320/80 112/319/80 110/318/80 109/317/80
f 110/324/81 105/323/81 106/322/81 109/321/81
f 111/328/82 108/327/82 107/326/82 112/325/82
o cube
v 0.1875 0.5 -1.625
v 0.1875 0.5 -1.8125
v 0.1875 0.375 -1.625
v 0.1875 0.375 -1.8125
v -0.1875 0.5 -1.8125
v -0.1875 0.5 -1.625
v -0.1875 0.375 -1.8125
v -0.1875 0.375 -1.625
vt 0 0.5625
vt 0 0.9375
vt 0.125 0.9375
vt 0.125 0.5625
vt 0.0625 0.75
vt 0.25 0.75
vt 0.25 0.625
vt 0.0625 0.625
vt 0 0.5625
vt 0 0.9375
vt 0.125 0.9375
vt 0.125 0.5625
vt 0.0625 0.75
vt 0.25 0.75
vt 0.25 0.625
vt 0.0625 0.625
vt 0.0625 0.5
vt 0.0625 0.875
vt 0.25 0.875
vt 0.25 0.5
vt 0.25 0.875
vt 0.25 0.5
vt 0.0625 0.5
vt 0.0625 0.875
vn 0 0 -1
vn 1 0 0
vn 0 0 1
vn -1 0 0
vn 0 1 0
vn 0 -1 0
usemtl m_fa2e621e-f026-2c79-1fd4-e73ac3790840
f 116/332/83 119/331/83 117/330/83 114/329/83
f 115/336/84 116/335/84 114/334/84 113/333/84
f 120/340/85 115/339/85 113/338/85 118/337/85
f 119/344/86 120/343/86 118/342/86 117/341/86
f 118/348/87 113/347/87 114/346/87 117/345/87
f 119/352/88 116/351/88 115/350/88 120/349/88
o cube
v 0.0625 0.875 -1.6875
v 0.0625 0.875 -1.9375
v 0.0625 0.75 -1.6875
v 0.0625 0.75 -1.9375
v -0.0625 0.875 -1.9375
v -0.0625 0.875 -1.6875
v -0.0625 0.75 -1.9375
v -0.0625 0.75 -1.6875
vt 0 1
vt 0.125 1
vt 0.125 0.875
vt 0 0.875
vt 0.0625 0.75
vt 0.3125 0.75
vt 0.3125 0.625
vt 0.0625 0.625
vt 0 1
vt 0.125 1
vt 0.125 0.875
vt 0 0.875
vt 0.0625 0.75
vt 0.3125 0.75
vt 0.3125 0.625
vt 0.0625 0.625
vt 0.125 0.5625
vt 0 0.5625
vt 0 0.8125
vt 0.125 0.8125
vt 0.125 0.5625
vt 0 0.5625
vt 0 0.8125
vt 0.125 0.8125
vn 0 0 -1
vn 1 0 0
vn 0 0 1
vn -1 0 0
vn 0 1 0
vn 0 -1 0
usemtl m_fa2e621e-f026-2c79-1fd4-e73ac3790840
f 124/356/89 127/355/89 125/354/89 122/353/89
f 123/360/90 124/359/90 122/358/90 121/357/90
f 128/364/91 123/363/91 121/362/91 126/361/91
f 127/368/92 128/367/92 126/366/92 125/365/92
f 126/372/93 121/371/93 122/370/93 125/369/93
f 127/376/94 124/375/94 123/374/94 128/373/94
o cube
v -0.0625 0.875 -1.6875
v -0.0625 0.875 -2
v -0.0625 0.75 -1.6875
v -0.0625 0.75 -2
v -0.1875 0.875 -2
v -0.1875 0.875 -1.6875
v -0.1875 0.75 -2
v -0.1875 0.75 -1.6875
vt 0 1
vt 0.125 1
vt 0.125 0.875
vt 0 0.875
vt 0.0625 0.75
vt 0.375 0.75
vt 0.375 0.625
vt 0.0625 0.625
vt 0 1
vt 0.125 1
vt 0.125 0.875
vt 0 0.875
vt 0 0.5625
vt 0 0.875
vt 0.125 0.875
vt 0.125 0.5625
vt 0.125 0.5625
vt 0 0.5625
vt 0 0.875
vt 0.125 0.875
vt 0.125 0.5
vt 0 0.5
vt 0 0.8125
vt 0.125 0.8125
vn 0 0 -1
vn 1 0 0
vn 0 0 1
vn -1 0 0
vn 0 1 0
vn 0 -1 0
usemtl m_fa2e621e-f026-2c79-1fd4-e73ac3790840
f 132/380/95 135/379/95 133/378/95 130/377/95
f 131/384/96 132/383/96 130/382/96 129/381/96
f 136/388/97 131/387/97 129/386/97 134/385/97
f 135/392/98 136/391/98 134/390/98 133/389/98
f 134/396/99 129/395/99 130/394/99 133/393/99
f 135/400/100 132/399/100 131/398/100 136/397/100
o cube
v 0.1875 0.875 -1.6875
v 0.1875 0.875 -1.9375
v 0.1875 0.75 -1.6875
v 0.1875 0.75 -1.9375
v 0.0625 0.875 -1.9375
v 0.0625 0.875 -1.6875
v 0.0625 0.75 -1.9375
v 0.0625 0.75 -1.6875
vt 0 1
vt 0.125 1
vt 0.125 0.875
vt 0 0.875
vt 0 0.5625
vt 0 0.8125
vt 0.125 0.8125
vt 0.125 0.5625
vt 0 1
vt 0.125 1
vt 0.125 0.875
vt 0 0.875
vt 0.0625 0.75
vt 0.3125 0.75
vt 0.3125 0.625
vt 0.0625 0.625
vt 0.125 0.5625
vt 0 0.5625
vt 0 0.8125
vt 0.125 0.8125
vt 0.125 0.5625
vt 0 0.5625
vt 0 0.8125
vt 0.125 0.8125
vn 0 0 -1
vn 1 0 0
vn 0 0 1
vn -1 0 0
vn 0 1 0
vn 0 -1 0
usemtl m_fa2e621e-f026-2c79-1fd4-e73ac3790840
f 140/404/101 143/403/101 141/402/101 138/401/101
f 139/408/102 140/407/102 138/406/102 137/405/102
f 144/412/103 139/411/103 137/410/103 142/409/103
f 143/416/104 144/415/104 142/414/104 141/413/104
f 142/420/105 137/419/105 138/418/105 141/417/105
f 143/424/106 140/423/106 139/422/106 144/421/106
o Cap
v 0.1875 0.75 -1.4375
v 0.1875 0.75 -1.5625
v 0.1875 0.375 -1.4375
v 0.1875 0.375 -1.5625
v -0.1875 0.75 -1.5625
v -0.1875 0.75 -1.4375
v -0.1875 0.375 -1.5625
v -0.1875 0.375 -1.4375
vt 0.625 0.625
vt 1 0.625
vt 1 0.25
vt 0.625 0.25
vt 0 0
vt 0 0.125
vt 0.375 0.125
vt 0.375 0
vt 0.625 0.625
vt 1 0.625
vt 1 0.25
vt 0.625 0.25
vt 0 0
vt 0 0.125
vt 0.375 0.125
vt 0.375 0
vt 0.375 0
vt 0 0
vt 0 0.125
vt 0.375 0.125
vt 0 0.125
vt 0.375 0.125
vt 0.375 0
vt 0 0
vn 0 0 -1
vn 1 0 0
vn 0 0 1
vn -1 0 0
vn 0 1 0
vn 0 -1 0
usemtl m_6005c314-8634-9e26-e014-6d3fed75a8b0
f 148/428/107 151/427/107 149/426/107 146/425/107
f 147/432/108 148/431/108 146/430/108 145/429/108
f 152/436/109 147/435/109 145/434/109 150/433/109
f 151/440/110 152/439/110 150/438/110 149/437/110
f 150/444/111 145/443/111 146/442/111 149/441/111
f 151/448/112 148/447/112 147/446/112 152/445/112
o Cog
v 0.0625 0.8125 -0.1875
v 0.0625 0.8125 -0.3125
v 0.0625 0.3125 -0.1875
v 0.0625 0.3125 -0.3125
v -0.0625 0.8125 -0.3125
v -0.0625 0.8125 -0.1875
v -0.0625 0.3125 -0.3125
v -0.0625 0.3125 -0.1875
vt 0.25 0.75
vt 0.3125 0.75
vt 0.3125 0.4375
vt 0.25 0.4375
vt 0.25 0.625
vt 0.375 0.625
vt 0.375 0.3125
vt 0.25 0.3125
vt 0.375 0.5625
vt 0.5 0.5625
vt 0.5 0.25
vt 0.375 0.25
vt 0.3125 0.8125
vt 0.4375 0.8125
vt 0.4375 0.5
vt 0.3125 0.5
vt 0.3125 0.5
vt 0.25 0.5
vt 0.25 0.625
vt 0.3125 0.625
vt 0.375 0.5
vt 0.3125 0.5
vt 0.3125 0.625
vt 0.375 0.625
vn 0 0 -1
vn 1 0 0
vn 0 0 1
vn -1 0 0
vn 0 1 0
vn 0 -1 0
usemtl m_0f6acf7e-538d-20b3-d131-66f574f11662
f 156/452/113 159/451/113 157/450/113 154/449/113
f 155/456/114 156/455/114 154/454/114 153/453/114
f 160/460/115 155/459/115 153/458/115 158/457/115
f 159/464/116 160/463/116 158/462/116 157/461/116
f 158/468/117 153/467/117 154/466/117 157/465/117
f 159/472/118 156/471/118 155/470/118 160/469/118
o Cog
v 0.25 0.625 -0.1875
v 0.25 0.625 -0.3125
v 0.25 0.5 -0.1875
v 0.25 0.5 -0.3125
v -0.25 0.625 -0.3125
v -0.25 0.625 -0.1875
v -0.25 0.5 -0.3125
v -0.25 0.5 -0.1875
vt 0.3125 0.75
vt 0.3125 0.4375
vt 0.25 0.4375
vt 0.25 0.75
vt 0.3125 0.625
vt 0.3125 0.5
vt 0.25 0.5
vt 0.25 0.625
vt 0.375 0.25
vt 0.375 0.5625
vt 0.5 0.5625
vt 0.5 0.25
vt 0.375 0.625
vt 0.375 0.5
vt 0.3125 0.5
vt 0.3125 0.625
vt 0.3125 0.5
vt 0.3125 0.8125
vt 0.4375 0.8125
vt 0.4375 0.5
vt 0.25 0.3125
vt 0.25 0.625
vt 0.375 0.625
vt 0.375 0.3125
vn 0 0 -1
vn 1 0 0
vn 0 0 1
vn -1 0 0
vn 0 1 0
vn 0 -1 0
usemtl m_0f6acf7e-538d-20b3-d131-66f574f11662
f 164/476/119 167/475/119 165/474/119 162/473/119
f 163/480/120 164/479/120 162/478/120 161/477/120
f 168/484/121 163/483/121 161/482/121 166/481/121
f 167/488/122 168/487/122 166/486/122 165/485/122
f 166/492/123 161/491/123 162/490/123 165/489/123
f 167/496/124 164/495/124 163/494/124 168/493/124
o Cog
v -0.13258252147247768 0.7834708691207961 -0.1875
v -0.13258252147247768 0.7834708691207961 -0.3125
v 0.2209708691207961 0.4299174785275224 -0.1875
v 0.2209708691207961 0.4299174785275224 -0.3125
v -0.2209708691207961 0.6950825214724776 -0.3125
v -0.2209708691207961 0.6950825214724776 -0.1875
v 0.13258252147247768 0.3415291308792039 -0.3125
v 0.13258252147247768 0.3415291308792039 -0.1875
vt 0.3125 0.4375
vt 0.25 0.4375
vt 0.25 0.75
vt 0.3125 0.75
vt 0.4375 0.5
vt 0.3125 0.5
vt 0.3125 0.8125
vt 0.4375 0.8125
vt 0.5 0.25
vt 0.375 0.25
vt 0.375 0.5625
vt 0.5 0.5625
vt 0.375 0.3125
vt 0.25 0.3125
vt 0.25 0.625
vt 0.375 0.625
vt 0.3125 0.625
vt 0.375 0.625
vt 0.375 0.5
vt 0.3125 0.5
vt 0.25 0.625
vt 0.3125 0.625
vt 0.3125 0.5
vt 0.25 0.5
vn 0 0 -1
vn 0.7071067811865475 0.7071067811865476 0
vn 0 0 1
vn -0.7071067811865475 -0.7071067811865476 0
vn -0.7071067811865476 0.7071067811865475 0
vn 0.7071067811865476 -0.7071067811865475 0
usemtl m_0f6acf7e-538d-20b3-d131-66f574f11662
f 172/500/125 175/499/125 173/498/125 170/497/125
f 171/504/126 172/503/126 170/502/126 169/501/126
f 176/508/127 171/507/127 169/506/127 174/505/127
f 175/512/128 176/511/128 174/510/128 173/509/128
f 174/516/129 169/515/129 170/514/129 173/513/129
f 175/520/130 172/519/130 171/518/130 176/517/130
o Cog
v 0.2209708691207961 0.6950825214724776 -0.1875
v 0.2209708691207961 0.6950825214724776 -0.3125
v -0.13258252147247768 0.3415291308792039 -0.1875
v -0.13258252147247768 0.3415291308792039 -0.3125
v 0.13258252147247768 0.7834708691207961 -0.3125
v 0.13258252147247768 0.7834708691207961 -0.1875
v -0.2209708691207961 0.4299174785275224 -0.3125
v -0.2209708691207961 0.4299174785275224 -0.1875
vt 0.3125 0.4375
vt 0.25 0.4375
vt 0.25 0.75
vt 0.3125 0.75
vt 0.4375 0.5
vt 0.3125 0.5
vt 0.3125 0.8125
vt 0.4375 0.8125
vt 0.5 0.25
vt 0.375 0.25
vt 0.375 0.5625
vt 0.5 0.5625
vt 0.375 0.3125
vt 0.25 0.3125
vt 0.25 0.625
vt 0.375 0.625
vt 0.3125 0.625
vt 0.375 0.625
vt 0.375 0.5
vt 0.3125 0.5
vt 0.25 0.625
vt 0.3125 0.625
vt 0.3125 0.5
vt 0.25 0.5
vn 0 0 -1
vn 0.7071067811865475 -0.7071067811865476 0
vn 0 0 1
vn -0.7071067811865475 0.7071067811865476 0
vn 0.7071067811865476 0.7071067811865475 0
vn -0.7071067811865476 -0.7071067811865475 0
usemtl m_0f6acf7e-538d-20b3-d131-66f574f11662
f 180/524/131 183/523/131 181/522/131 178/521/131
f 179/528/132 180/527/132 178/526/132 177/525/132
f 184/532/133 179/531/133 177/530/133 182/529/133
f 183/536/134 184/535/134 182/534/134 181/533/134
f 182/540/135 177/539/135 178/538/135 181/537/135
f 183/544/136 180/543/136 179/542/136 184/541/136
o cube
v -0.125 0.6875 -1.75
v -0.125 0.6875 -2
v -0.125 0.375 -1.75
v -0.125 0.375 -2
v -0.25 0.6875 -2
v -0.25 0.6875 -1.75
v -0.25 0.375 -2
v -0.25 0.375 -1.75
vt 0.125 0.9375
vt 0 0.9375
vt 0 0.625
vt 0.125 0.625
vt 0.25 1
vt 0 1
vt 0 0.6875
vt 0.25 0.6875
vt 0.125 0.5
vt 0 0.5
vt 0 0.1875
vt 0.125 0.1875
vt 0.25 0.5
vt 0 0.5
vt 0 0.1875
vt 0.25 0.1875
vt 0 0.75
vt 0.125 0.75
vt 0.125 1
vt 0 1
vt 0 0.5
vt 0.125 0.5
vt 0.125 0.75
vt 0 0.75
vn 0 0 -1
vn 1 0 0
vn 0 0 1
vn -1 0 0
vn 0 1 0
vn 0 -1 0
usemtl m_54ae665f-d53b-8fbd-5257-d9ad1fdc71c3
f 188/548/137 191/547/137 189/546/137 186/545/137
f 187/552/138 188/551/138 186/550/138 185/549/138
f 192/556/139 187/555/139 185/554/139 190/553/139
f 191/560/140 192/559/140 190/558/140 189/557/140
f 190/564/141 185/563/141 186/562/141 189/561/141
f 191/568/142 188/567/142 187/566/142 192/565/142
o cube
v 0 0.6875 -1.75
v 0 0.6875 -2
v 0 0.375 -1.75
v 0 0.375 -2
v -0.125 0.6875 -2
v -0.125 0.6875 -1.75
v -0.125 0.375 -2
v -0.125 0.375 -1.75
vt 0.125 0.9375
vt 0 0.9375
vt 0 0.625
vt 0.125 0.625
vt 0 0.5
vt 0.25 0.5
vt 0.25 0.1875
vt 0 0.1875
vt 0.125 0.5
vt 0 0.5
vt 0 0.1875
vt 0.125 0.1875
vt 0.25 0.5
vt 0 0.5
vt 0 0.1875
vt 0.25 0.1875
vt 0 0.75
vt 0.125 0.75
vt 0.125 1
vt 0 1
vt 0 0.5
vt 0.125 0.5
vt 0.125 0.75
vt 0 0.75
vn 0 0 -1
vn 1 0 0
vn 0 0 1
vn -1 0 0
vn 0 1 0
vn 0 -1 0
usemtl m_54ae665f-d53b-8fbd-5257-d9ad1fdc71c3
f 196/572/143 199/571/143 197/570/143 194/569/143
f 195/576/144 196/575/144 194/574/144 193/573/144
f 200/580/145 195/579/145 193/578/145 198/577/145
f 199/584/146 200/583/146 198/582/146 197/581/146
f 198/588/147 193/587/147 194/586/147 197/585/147
f 199/592/148 196/591/148 195/590/148 200/589/148
o cube
v 0.125 0.684375 -1.5625
v 0.125 0.684375 -1.8125
v 0.125 0.4375 -1.5625
v 0.125 0.4375 -1.8125
v -0.125 0.684375 -1.8125
v -0.125 0.684375 -1.5625
v -0.125 0.4375 -1.8125
v -0.125 0.4375 -1.5625
vt 0.25 1
vt 0 1
vt 0 0.8125
vt 0.25 0.8125
vt 0.4375 1
vt 0.1875 1
vt 0.1875 0.75
vt 0.4375 0.75
vt 0.25 1
vt 0 1
vt 0 0.8125
vt 0.25 0.8125
vt 0.4375 1
vt 0.1875 1
vt 0.1875 0.75
vt 0.4375 0.75
vt 0 1
vt 0 0.75
vt 0.25 0.75
vt 0.25 1
vt 0.5 0.25
vt 0.5 0.5
vt 0.25 0.5
vt 0.25 0.25
vn 0 0 -1
vn 1 0 0
vn 0 0 1
vn -1 0 0
vn 0 1 0
vn 0 -1 0
usemtl m_121bceec-cb88-3ea8-f540-e68d63755c17
f 204/596/149 207/595/149 205/594/149 202/593/149
f 203/600/150 204/599/150 202/598/150 201/597/150
f 208/604/151 203/603/151 201/602/151 206/601/151
f 207/608/152 208/607/152 206/606/152 205/605/152
f 206/612/153 201/611/153 202/610/153 205/609/153
f 207/616/154 204/615/154 203/614/154 208/613/154
o cube
v 0.125 0.6875 -1.875
v 0.125 0.6875 -2.25
v 0.125 0.5625 -1.875
v 0.125 0.5625 -2.25
v 0 0.6875 -2.25
v 0 0.6875 -1.875
v 0 0.5625 -2.25
v 0 0.5625 -1.875
vt 0.125 0.9375
vt 0 0.9375
vt 0 0.8125
vt 0.125 0.8125
vt 0.25 0.4375
vt 0.25 0.8125
vt 0.125 0.8125
vt 0.125 0.4375
vt 0.125 1
vt 0 1
vt 0 0.875
vt 0.125 0.875
vt 0.25 0.875
vt 0.25 0.5
vt 0.375 0.5
vt 0.375 0.875
vt 0 0.625
vt 0.125 0.625
vt 0.125 1
vt 0 1
vt 0 0.4375
vt 0.125 0.4375
vt 0.125 0.8125
vt 0 0.8125
vn 0 0 -1
vn 1 0 0
vn 0 0 1
vn -1 0 0
vn 0 1 0
vn 0 -1 0
usemtl m_54ae665f-d53b-8fbd-5257-d9ad1fdc71c3
f 212/620/155 215/619/155 213/618/155 210/617/155
f 211/624/156 212/623/156 210/622/156 209/621/156
f 216/628/157 211/627/157 209/626/157 214/625/157
f 215/632/158 216/631/158 214/630/158 213/629/158
f 214/636/159 209/635/159 210/634/159 213/633/159
f 215/640/160 212/639/160 211/638/160 216/637/160
o cube
v 0.25 0.6875 -1.75
v 0.25 0.6875 -1.875
v 0.25 0.5 -1.75
v 0.25 0.5 -1.875
v 0 0.6875 -1.875
v 0 0.6875 -1.75
v 0 0.5 -1.875
v 0 0.5 -1.75
vt 0.1875 0.25
vt 0.1875 0.5
vt 0 0.5
vt 0 0.25
vt 0 0.75
vt 0.125 0.75
vt 0.125 0.9375
vt 0 0.9375
vt 0.25 1
vt 0 1
vt 0 0.8125
vt 0.25 0.8125
vt 0.125 1
vt 0 1
vt 0 0.8125
vt 0.125 0.8125
vt 0.125 1
vt 0.125 0.75
vt 0 0.75
vt 0 1
vt 0 0.875
vt 0 0.625
vt 0.125 0.625
vt 0.125 0.875
vn 0 0 -1
vn 1 0 0
vn 0 0 1
vn -1 0 0
vn 0 1 0
vn 0 -1 0
usemtl m_54ae665f-d53b-8fbd-5257-d9ad1fdc71c3
f 220/644/161 223/643/161 221/642/161 218/641/161
f 219/648/162 220/647/162 218/646/162 217/645/162
f 224/652/163 219/651/163 217/650/163 222/649/163
f 223/656/164 224/655/164 222/654/164 221/653/164
f 222/660/165 217/659/165 218/658/165 221/657/165
f 223/664/166 220/663/166 219/662/166 224/661/166
o cube
v 0.1875 0.6875 -1.625
v 0.1875 0.6875 -1.75
v 0.1875 0.5 -1.625
v 0.1875 0.5 -1.75
v -0.1875 0.6875 -1.75
v -0.1875 0.6875 -1.625
v -0.1875 0.5 -1.75
v -0.1875 0.5 -1.625
vt 0.375 1
vt 0 1
vt 0 0.8125
vt 0.375 0.8125
vt 0.1875 0.75
vt 0.0625 0.75
vt 0.0625 0.5625
vt 0.1875 0.5625
vt 0.1875 0.5
vt 0.1875 0.875
vt 0 0.875
vt 0 0.5
vt 0.1875 0.75
vt 0.0625 0.75
vt 0.0625 0.5625
vt 0.1875 0.5625
vt 0.0625 0.875
vt 0.0625 0.5
vt 0.1875 0.5
vt 0.1875 0.875
vt 0.1875 0.5
vt 0.1875 0.875
vt 0.0625 0.875
vt 0.0625 0.5
vn 0 0 -1
vn 1 0 0
vn 0 0 1
vn -1 0 0
vn 0 1 0
vn 0 -1 0
usemtl m_54ae665f-d53b-8fbd-5257-d9ad1fdc71c3
f 228/668/167 231/667/167 229/666/167 226/665/167
f 227/672/168 228/671/168 226/670/168 225/669/168
f 232/676/169 227/675/169 225/674/169 230/673/169
f 231/680/170 232/679/170 230/678/170 229/677/170
f 230/684/171 225/683/171 226/682/171 229/681/171
f 231/688/172 228/687/172 227/686/172 232/685/172
o Cap
v 0.1875 0.75 -1.4375
v 0.1875 0.75 -1.5625
v 0.1875 0.375 -1.4375
v 0.1875 0.375 -1.5625
v -0.1875 0.75 -1.5625
v -0.1875 0.75 -1.4375
v -0.1875 0.375 -1.5625
v -0.1875 0.375 -1.4375
vt 1 0.625
vt 0.625 0.625
vt 0.625 0.25
vt 1 0.25
vt 0 0.125
vt 0 0
vt 0.375 0
vt 0.375 0.125
vt 1 0.625
vt 0.625 0.625
vt 0.625 0.25
vt 1 0.25
vt 0 0.125
vt 0 0
vt 0.375 0
vt 0.375 0.125
vt 0 0
vt 0.375 0
vt 0.375 0.125
vt 0 0.125
vt 0.375 0.125
vt 0 0.125
vt 0 0
vt 0.375 0
vn 0 0 -1
vn 1 0 0
vn 0 0 1
vn -1 0 0
vn 0 1 0
vn 0 -1 0
usemtl m_f629cde9-c71d-ba33-301e-456bafbe586a
f 236/692/173 239/691/173 237/690/173 234/689/173
f 235/696/174 236/695/174 234/694/174 233/693/174
f 240/700/175 235/699/175 233/698/175 238/697/175
f 239/704/176 240/703/176 238/702/176 237/701/176
f 238/708/177 233/707/177 234/706/177 237/705/177
f 239/712/178 236/711/178 235/710/178 240/709/178