# Made in Blockbench 5.1.4
mtllib 土豆加农炮.mtl

o cube
v 0.09375 0.625 -0.09375
v 0.09375 0.625 -0.59375
v 0.09375 0.4375 -0.09375
v 0.09375 0.4375 -0.59375
v -0.09375 0.625 -0.59375
v -0.09375 0.625 -0.09375
v -0.09375 0.4375 -0.59375
v -0.09375 0.4375 -0.09375
vt 0.25 0.875
vt 0 0.875
vt 0 0.78125
vt 0.25 0.78125
vt 0.28125 0.96875
vt 0.375 0.96875
vt 0.375 0.875
vt 0.28125 0.875
vt 0 0.875
vt 0.25 0.875
vt 0.25 0.78125
vt 0 0.78125
vt 0 0.90625
vt 0 1
vt 0.25 1
vt 0.25 0.90625
vt 0.25 0.75
vt 0.25 0.65625
vt 0 0.65625
vt 0 0.75
vn 1 0 0
vn 0 0 1
vn -1 0 0
vn 0 1 0
vn 0 -1 0
usemtl m_af4d9d70-aed7-bab3-cbb2-e6a4b0b20786
f 3/4/1 4/3/1 2/2/1 1/1/1
f 8/8/2 3/7/2 1/6/2 6/5/2
f 7/12/3 8/11/3 6/10/3 5/9/3
f 6/16/4 1/15/4 2/14/4 5/13/4
f 7/20/5 4/19/5 3/18/5 8/17/5
o cube
v 0.125 0.65625 -0.59375
v 0.125 0.65625 -0.65625
v 0.125 0.40625 -0.59375
v 0.125 0.40625 -0.65625
v -0.125 0.65625 -0.65625
v -0.125 0.65625 -0.59375
v -0.125 0.40625 -0.65625
v -0.125 0.40625 -0.59375
vt 0.265625 0.984375
vt 0.390625 0.984375
vt 0.390625 0.859375
vt 0.265625 0.859375
vt 0.40625 0.984375
vt 0.375 0.984375
vt 0.375 0.859375
vt 0.40625 0.859375
vt 0.265625 0.828125
vt 0.390625 0.828125
vt 0.390625 0.703125
vt 0.265625 0.703125
vt 0.375 0.984375
vt 0.40625 0.984375
vt 0.40625 0.859375
vt 0.375 0.859375
vt 0.265625 0.96875
vt 0.390625 0.96875
vt 0.390625 1
vt 0.265625 1
vt 0.265625 0.84375
vt 0.390625 0.84375
vt 0.390625 0.875
vt 0.265625 0.875
vn 0 0 -1
vn 1 0 0
vn 0 0 1
vn -1 0 0
vn 0 1 0
vn 0 -1 0
usemtl m_af4d9d70-aed7-bab3-cbb2-e6a4b0b20786
f 12/24/6 15/23/6 13/22/6 10/21/6
f 11/28/7 12/27/7 10/26/7 9/25/7
f 16/32/8 11/31/8 9/30/8 14/29/8
f 15/36/9 16/35/9 14/34/9 13/33/9
f 14/40/10 9/39/10 10/38/10 13/37/10
f 15/44/11 12/43/11 11/42/11 16/41/11
o cube
v 0.09375 0.625 0.15625
v 0.09375 0.625 0.09375
v 0.09375 0.4375 0.15625
v 0.09375 0.4375 0.09375
v -0.09375 0.625 0.09375
v -0.09375 0.625 0.15625
v -0.09375 0.4375 0.09375
v -0.09375 0.4375 0.15625
vt 0.28125 0.96875
vt 0.375 0.96875
vt 0.375 0.875
vt 0.28125 0.875
vt 0.21875 0.875
vt 0.25 0.875
vt 0.25 0.78125
vt 0.21875 0.78125
vt 0.25 0.875
vt 0.21875 0.875
vt 0.21875 0.78125
vt 0.25 0.78125
vt 0.25 0.90625
vt 0.25 1
vt 0.21875 1
vt 0.21875 0.90625
vt 0.21875 0.65625
vt 0.21875 0.75
vt 0.25 0.75
vt 0.25 0.65625
vn 0 0 -1
vn 1 0 0
vn -1 0 0
vn 0 1 0
vn 0 -1 0
usemtl m_af4d9d70-aed7-bab3-cbb2-e6a4b0b20786
f 20/48/12 23/47/12 21/46/12 18/45/12
f 19/52/13 20/51/13 18/50/13 17/49/13
f 23/56/14 24/55/14 22/54/14 21/53/14
f 22/60/15 17/59/15 18/58/15 21/57/15
f 23/64/16 20/63/16 19/62/16 24/61/16
o cube
v 0.125 0.65625 0.46875
v 0.125 0.65625 0.15625
v 0.125 0.40625 0.46875
v 0.125 0.40625 0.15625
v -0.125 0.65625 0.15625
v -0.125 0.65625 0.46875
v -0.125 0.40625 0.15625
v -0.125 0.40625 0.46875
vt 0.625 0.84375
vt 0.75 0.84375
vt 0.75 0.71875
vt 0.625 0.71875
vt 0.59375 1
vt 0.4375 1
vt 0.4375 0.875
vt 0.59375 0.875
vt 0.625 1
vt 0.75 1
vt 0.75 0.875
vt 0.625 0.875
vt 0.4375 1
vt 0.59375 1
vt 0.59375 0.875
vt 0.4375 0.875
vt 0.4375 0.71875
vt 0.4375 0.84375
vt 0.59375 0.84375
vt 0.59375 0.71875
vt 0.59375 0.625
vt 0.59375 0.5
vt 0.4375 0.5
vt 0.4375 0.625
vn 0 0 -1
vn 1 0 0
vn 0 0 1
vn -1 0 0
vn 0 1 0
vn 0 -1 0
usemtl m_af4d9d70-aed7-bab3-cbb2-e6a4b0b20786
f 28/68/17 31/67/17 29/66/17 26/65/17
f 27/72/18 28/71/18 26/70/18 25/69/18
f 32/76/19 27/75/19 25/74/19 30/73/19
f 31/80/20 32/79/20 30/78/20 29/77/20
f 30/84/21 25/83/21 26/82/21 29/81/21
f 31/88/22 28/87/22 27/86/22 32/85/22
o cube
v 0.0625 0.4375 0.46875
v 0.0625 0.4375 0.40625
v 0.0625 0.3125 0.46875
v 0.0625 0.3125 0.40625
v -0.0625 0.4375 0.40625
v -0.0625 0.4375 0.46875
v -0.0625 0.3125 0.40625
v -0.0625 0.3125 0.46875
vt 0.03125 0.375
vt 0.0625 0.375
vt 0.0625 0.3125
vt 0.03125 0.3125
vt 0.03125 0.375
vt 0.0625 0.375
vt 0.0625 0.3125
vt 0.03125 0.3125
vt 0.03125 0.359375
vt 0.03125 0.375
vt 0.0625 0.375
vt 0.0625 0.359375
vt 0.09375 0.3125
vt 0.09375 0.328125
vt 0.15625 0.328125
vt 0.15625 0.3125
vn 1 0 0
vn -1 0 0
vn 0 1 0
vn 0 -1 0
usemtl m_af4d9d70-aed7-bab3-cbb2-e6a4b0b20786
f 35/92/23 36/91/23 34/90/23 33/89/23
f 39/96/24 40/95/24 38/94/24 37/93/24
f 38/100/25 33/99/25 34/98/25 37/97/25
f 39/104/26 36/103/26 35/102/26 40/101/26
o cube
v 0.13258252147247768 0.375 0.484375
v 0.13258252147247768 0.375 0.109375
v -1.3877787807814457e-17 0.24241747852752232 0.484375
v -1.3877787807814457e-17 0.24241747852752232 0.109375
v 1.3877787807814457e-17 0.5075825214724776 0.109375
v 1.3877787807814457e-17 0.5075825214724776 0.484375
v -0.13258252147247768 0.375 0.109375
v -0.13258252147247768 0.375 0.484375
vt 0.1875 0.53125
vt 0.1875 0.625
vt 0.28125 0.625
vt 0.28125 0.53125
vt 0.4375 0.40625
vt 0.25 0.40625
vt 0.25 0.3125
vt 0.4375 0.3125
vt 0.1875 0.625
vt 0.28125 0.625
vt 0.28125 0.53125
vt 0.1875 0.53125
vt 0.25 0.5
vt 0.4375 0.5
vt 0.4375 0.40625
vt 0.25 0.40625
vt 0.25 0.5
vt 0.25 0.40625
vt 0.4375 0.40625
vt 0.4375 0.5
vt 0.4375 0.40625
vt 0.4375 0.3125
vt 0.25 0.3125
vt 0.25 0.40625
vn 0 0 -1
vn 0.7071067811865475 -0.7071067811865476 0
vn 0 0 1
vn -0.7071067811865475 0.7071067811865476 0
vn 0.7071067811865476 0.7071067811865475 0
vn -0.7071067811865476 -0.7071067811865475 0
usemtl m_af4d9d70-aed7-bab3-cbb2-e6a4b0b20786
f 44/108/27 47/107/27 45/106/27 42/105/27
f 43/112/28 44/111/28 42/110/28 41/109/28
f 48/116/29 43/115/29 41/114/29 46/113/29
f 47/120/30 48/119/30 46/118/30 45/117/30
f 46/124/31 41/123/31 42/122/31 45/121/31
f 47/128/32 44/127/32 43/126/32 48/125/32
o cube
v 0.0625 0.59375 0.59375
v 0.0625 0.59375 0.46875
v 0.0625 0.3125 0.59375
v 0.0625 0.3125 0.46875
v -0.0625 0.59375 0.46875
v -0.0625 0.59375 0.59375
v -0.0625 0.3125 0.46875
v -0.0625 0.3125 0.59375
vt 0.078125 0.46875
vt 0.015625 0.46875
vt 0.015625 0.3125
vt 0.078125 0.3125
vt 0.078125 0.578125
vt 0.015625 0.578125
vt 0.015625 0.4375
vt 0.078125 0.4375
vt 0.140625 0.578125
vt 0.078125 0.578125
vt 0.078125 0.4375
vt 0.140625 0.4375
vt 0.015625 0.578125
vt 0.078125 0.578125
vt 0.078125 0.4375
vt 0.015625 0.4375
vt 0.078125 0.640625
vt 0.140625 0.640625
vt 0.140625 0.578125
vt 0.078125 0.578125
vt 0.078125 0.4375
vt 0.140625 0.4375
vt 0.140625 0.375
vt 0.078125 0.375
vn 0 0 -1
vn 1 0 0
vn 0 0 1
vn -1 0 0
vn 0 1 0
vn 0 -1 0
usemtl m_af4d9d70-aed7-bab3-cbb2-e6a4b0b20786
f 52/132/33 55/131/33 53/130/33 50/129/33
f 51/136/34 52/135/34 50/134/34 49/133/34
f 56/140/35 51/139/35 49/138/35 54/137/35
f 55/144/36 56/143/36 54/142/36 53/141/36
f 54/148/37 49/147/37 50/146/37 53/145/37
f 55/152/38 52/151/38 51/150/38 56/149/38
o Cog
v 0.03125 0.6875 0.09375
v 0.03125 0.6875 -0.09375
v 0.03125 0.375 0.09375
v 0.03125 0.375 -0.09375
v -0.03125 0.6875 -0.09375
v -0.03125 0.6875 0.09375
v -0.03125 0.375 -0.09375
v -0.03125 0.375 0.09375
vt 0.015625 0.140625
vt 0.015625 0.171875
vt 0.171875 0.171875
vt 0.171875 0.140625
vt 0.171875 0.125
vt 0.171875 0.03125
vt 0.015625 0.03125
vt 0.015625 0.125
vt 0.171875 0.171875
vt 0.171875 0.140625
vt 0.015625 0.140625
vt 0.015625 0.171875
vt 0.015625 0.03125
vt 0.015625 0.125
vt 0.171875 0.125
vt 0.171875 0.03125
vt 0.109375 0.203125
vt 0.109375 0.234375
vt 0.015625 0.234375
vt 0.015625 0.203125
vt 0.015625 0.1875
vt 0.015625 0.21875
vt 0.109375 0.21875
vt 0.109375 0.1875
vn 0 0 -1
vn 1 0 0
vn 0 0 1
vn -1 0 0
vn 0 1 0
vn 0 -1 0
usemtl m_7156526d-3abb-a7c2-7717-38cb7d0078f8
f 60/156/39 63/155/39 61/154/39 58/153/39
f 59/160/40 60/159/40 58/158/40 57/157/40
f 64/164/41 59/163/41 57/162/41 62/161/41
f 63/168/42 64/167/42 62/166/42 61/165/42
f 62/172/43 57/171/43 58/170/43 61/169/43
f 63/176/44 60/175/44 59/174/44 64/173/44
o Cog
v -0.08838834764831845 0.6638325214724776 0.09375
v -0.08838834764831845 0.6638325214724776 -0.09375
v 0.13258252147247768 0.44286165235168157 0.09375
v 0.13258252147247768 0.44286165235168157 -0.09375
v -0.13258252147247768 0.6196383476483185 -0.09375
v -0.13258252147247768 0.6196383476483185 0.09375
v 0.08838834764831845 0.3986674785275224 -0.09375
v 0.08838834764831845 0.3986674785275224 0.09375
vt 0.015625 0.140625
vt 0.015625 0.171875
vt 0.171875 0.171875
vt 0.171875 0.140625
vt 0.171875 0.125
vt 0.171875 0.03125
vt 0.015625 0.03125
vt 0.015625 0.125
vt 0.171875 0.171875
vt 0.171875 0.140625
vt 0.015625 0.140625
vt 0.015625 0.171875
vt 0.015625 0.03125
vt 0.015625 0.125
vt 0.171875 0.125
vt 0.171875 0.03125
vt 0.109375 0.203125
vt 0.109375 0.234375
vt 0.015625 0.234375
vt 0.015625 0.203125
vt 0.015625 0.1875
vt 0.015625 0.21875
vt 0.109375 0.21875
vt 0.109375 0.1875
vn 0 0 -1
vn 0.7071067811865475 0.7071067811865476 0
vn 0 0 1
vn -0.7071067811865475 -0.7071067811865476 0
vn -0.7071067811865476 0.7071067811865475 0
vn 0.7071067811865476 -0.7071067811865475 0
usemtl m_7156526d-3abb-a7c2-7717-38cb7d0078f8
f 68/180/45 71/179/45 69/178/45 66/177/45
f 67/184/46 68/183/46 66/182/46 65/181/46
f 72/188/47 67/187/47 65/186/47 70/185/47
f 71/192/48 72/191/48 70/190/48 69/189/48
f 70/196/49 65/195/49 66/194/49 69/193/49
f 71/200/50 68/199/50 67/198/50 72/197/50
o Cog
v 0.15625 0.5625 0.09375
v 0.15625 0.5625 -0.09375
v 0.15625 0.5 0.09375
v 0.15625 0.5 -0.09375
v -0.15625 0.5625 -0.09375
v -0.15625 0.5625 0.09375
v -0.15625 0.5 -0.09375
v -0.15625 0.5 0.09375
vt 0.171875 0.140625
vt 0.015625 0.140625
vt 0.015625 0.171875
vt 0.171875 0.171875
vt 0.015625 0.21875
vt 0.109375 0.21875
vt 0.109375 0.1875
vt 0.015625 0.1875
vt 0.171875 0.140625
vt 0.015625 0.140625
vt 0.015625 0.171875
vt 0.171875 0.171875
vt 0.109375 0.234375
vt 0.015625 0.234375
vt 0.015625 0.203125
vt 0.109375 0.203125
vt 0.171875 0.03125
vt 0.015625 0.03125
vt 0.015625 0.125
vt 0.171875 0.125
vt 0.015625 0.125
vt 0.171875 0.125
vt 0.171875 0.03125
vt 0.015625 0.03125
vn 0 0 -1
vn 1 0 0
vn 0 0 1
vn -1 0 0
vn 0 1 0
vn 0 -1 0
usemtl m_7156526d-3abb-a7c2-7717-38cb7d0078f8
f 76/204/51 79/203/51 77/202/51 74/201/51
f 75/208/52 76/207/52 74/206/52 73/205/52
f 80/212/53 75/211/53 73/210/53 78/209/53
f 79/216/54 80/215/54 78/214/54 77/213/54
f 78/220/55 73/219/55 74/218/55 77/217/55
f 79/224/56 76/223/56 75/222/56 80/221/56
o Cog
v 0.08838834764831843 0.6638325214724776 0.09375
v 0.08838834764831843 0.6638325214724776 -0.09375
v 0.13258252147247765 0.6196383476483185 0.09375
v 0.13258252147247765 0.6196383476483185 -0.09375
v -0.13258252147247765 0.44286165235168157 -0.09375
v -0.13258252147247765 0.44286165235168157 0.09375
v -0.08838834764831843 0.3986674785275223 -0.09375
v -0.08838834764831843 0.3986674785275223 0.09375
vt 0.171875 0.140625
vt 0.015625 0.140625
vt 0.015625 0.171875
vt 0.171875 0.171875
vt 0.015625 0.21875
vt 0.109375 0.21875
vt 0.109375 0.1875
vt 0.015625 0.1875
vt 0.171875 0.140625
vt 0.015625 0.140625
vt 0.015625 0.171875
vt 0.171875 0.171875
vt 0.109375 0.234375
vt 0.015625 0.234375
vt 0.015625 0.203125
vt 0.109375 0.203125
vt 0.171875 0.03125
vt 0.015625 0.03125
vt 0.015625 0.125
vt 0.171875 0.125
vt 0.015625 0.125
vt 0.171875 0.125
vt 0.171875 0.03125
vt 0.015625 0.03125
vn 0 0 -1
vn 0.7071067811865475 0.7071067811865476 0
vn 0 0 1
vn -0.7071067811865475 -0.7071067811865476 0
vn -0.7071067811865476 0.7071067811865475 0
vn 0.7071067811865476 -0.7071067811865475 0
usemtl m_7156526d-3abb-a7c2-7717-38cb7d0078f8
f 84/228/57 87/227/57 85/226/57 82/225/57
f 83/232/58 84/231/58 82/230/58 81/229/58
f 88/236/59 83/235/59 81/234/59 86/233/59
f 87/240/60 88/239/60 86/238/60 85/237/60
f 86/244/61 81/243/61 82/242/61 85/241/61
f 87/248/62 84/247/62 83/246/62 88/245/62