# Made in Blockbench 5.1.4
mtllib 对称之杖.mtl

o Grip Core
v 0.09375 0.375 0.09375
v 0.09375 0.375 -0.09375
v 0.09375 -0.3125 0.09375
v 0.09375 -0.3125 -0.09375
v -0.09375 0.375 -0.09375
v -0.09375 0.375 0.09375
v -0.09375 -0.3125 -0.09375
v -0.09375 -0.3125 0.09375
vt 0.3125 0.9375
vt 0.5 0.9375
vt 0.5 0.25
vt 0.3125 0.25
vt 0.125 0.8125
vt 0.3125 0.8125
vt 0.3125 0.125
vt 0.125 0.125
vt 0.625 0.9375
vt 0.8125 0.9375
vt 0.8125 0.25
vt 0.625 0.25
vt 0.4375 0.9375
vt 0.625 0.9375
vt 0.625 0.25
vt 0.4375 0.25
vt 0 1
vt 0.1875 1
vt 0.1875 0.8125
vt 0 0.8125
vt 0.3125 0.625
vt 0.5 0.625
vt 0.5 0.4375
vt 0.3125 0.4375
vn 0 0 -1
vn 1 0 0
vn 0 0 1
vn -1 0 0
vn 0 1 0
vn 0 -1 0
usemtl m_cbbe8edb-e48e-f0ec-5f92-1f40636a8c5b
f 4/4/1 7/3/1 5/2/1 2/1/1
f 3/8/2 4/7/2 2/6/2 1/5/2
f 8/12/3 3/11/3 1/10/3 6/9/3
f 7/16/4 8/15/4 6/14/4 5/13/4
f 6/20/5 1/19/5 2/18/5 5/17/5
f 7/24/6 4/23/6 3/22/6 8/21/6
o Rod Bottom Core
v 0.13258252147247768 1.0625 -1.3877787807814457e-17
v -1.3877787807814457e-17 1.0625 -0.13258252147247768
v 0.13258252147247768 0.4375 -1.3877787807814457e-17
v -1.3877787807814457e-17 0.4375 -0.13258252147247768
v -0.13258252147247768 1.0625 1.3877787807814457e-17
v 1.3877787807814457e-17 1.0625 0.13258252147247768
v -0.13258252147247768 0.4375 1.3877787807814457e-17
v 1.3877787807814457e-17 0.4375 0.13258252147247768
vt 0.3125 0.625
vt 0.5 0.625
vt 0.5 0
vt 0.3125 0
vt 0.125 0.625
vt 0.3125 0.625
vt 0.3125 0
vt 0.125 0
vt 0.6875 0.625
vt 0.875 0.625
vt 0.875 0
vt 0.6875 0
vt 0.5 0.625
vt 0.6875 0.625
vt 0.6875 0
vt 0.5 0
vt 0.75 0.9375
vt 0.9375 0.9375
vt 0.9375 0.75
vt 0.75 0.75
vt 0.5 0.375
vt 0.6875 0.375
vt 0.6875 0.1875
vt 0.5 0.1875
vn -0.7071067811865476 0 -0.7071067811865475
vn 0.7071067811865475 0 -0.7071067811865476
vn 0.7071067811865476 0 0.7071067811865475
vn -0.7071067811865475 0 0.7071067811865476
vn 0 1 0
vn 0 -1 0
usemtl m_7f17cabf-3ef8-c371-b869-5b6effa2fea0
f 12/28/7 15/27/7 13/26/7 10/25/7
f 11/32/8 12/31/8 10/30/8 9/29/8
f 16/36/9 11/35/9 9/34/9 14/33/9
f 15/40/10 16/39/10 14/38/10 13/37/10
f 14/44/11 9/43/11 10/42/11 13/41/11
f 15/48/12 12/47/12 11/46/12 16/45/12
o Grip Cap
v 0.125 0.4375 0.125
v 0.125 0.4375 -0.125
v 0.125 0.375 0.125
v 0.125 0.375 -0.125
v -0.125 0.4375 -0.125
v -0.125 0.4375 0.125
v -0.125 0.375 -0.125
v -0.125 0.375 0.125
vt 0.125 1
vt 0.375 1
vt 0.375 0.9375
vt 0.125 0.9375
vt 0 1
vt 0.25 1
vt 0.25 0.9375
vt 0 0.9375
vt 0 1
vt 0.25 1
vt 0.25 0.9375
vt 0 0.9375
vt 0 0.9375
vt 0.25 0.9375
vt 0.25 0.875
vt 0 0.875
vt 0.625 0.0625
vt 0.875 0.0625
vt 0.875 0.3125
vt 0.625 0.3125
vt 0.3125 0.8125
vt 0.5625 0.8125
vt 0.5625 0.5625
vt 0.3125 0.5625
vn 0 0 -1
vn 1 0 0
vn 0 0 1
vn -1 0 0
vn 0 1 0
vn 0 -1 0
usemtl m_e7cf5335-1e4a-94cc-b05f-97003a1188b4
f 20/52/13 23/51/13 21/50/13 18/49/13
f 19/56/14 20/55/14 18/54/14 17/53/14
f 24/60/15 19/59/15 17/58/15 22/57/15
f 23/64/16 24/63/16 22/62/16 21/61/16
f 22/68/17 17/67/17 18/66/17 21/65/17
f 23/72/18 20/71/18 19/70/18 24/69/18
o Rod Top Core
v 0.13258252147247768 1.875 -1.3877787807814457e-17
v -1.3877787807814457e-17 1.875 -0.13258252147247768
v 0.13258252147247768 1.6875 -1.3877787807814457e-17
v -1.3877787807814457e-17 1.6875 -0.13258252147247768
v -0.13258252147247768 1.875 1.3877787807814457e-17
v 1.3877787807814457e-17 1.875 0.13258252147247768
v -0.13258252147247768 1.6875 1.3877787807814457e-17
v 1.3877787807814457e-17 1.6875 0.13258252147247768
vt 0.5 0.9375
vt 0.6875 0.9375
vt 0.6875 0.75
vt 0.5 0.75
vt 0.4375 0.9375
vt 0.625 0.9375
vt 0.625 0.75
vt 0.4375 0.75
vt 0.3125 0.9375
vt 0.5 0.9375
vt 0.5 0.75
vt 0.3125 0.75
vt 0.1875 0.9375
vt 0.375 0.9375
vt 0.375 0.75
vt 0.1875 0.75
vt 0.75 0.9375
vt 0.9375 0.9375
vt 0.9375 0.75
vt 0.75 0.75
vt 0.75 0.9375
vt 0.9375 0.9375
vt 0.9375 0.75
vt 0.75 0.75
vn -0.7071067811865476 0 -0.7071067811865475
vn 0.7071067811865475 0 -0.7071067811865476
vn 0.7071067811865476 0 0.7071067811865475
vn -0.7071067811865475 0 0.7071067811865476
vn 0 1 0
vn 0 -1 0
usemtl m_7f17cabf-3ef8-c371-b869-5b6effa2fea0
f 28/76/19 31/75/19 29/74/19 26/73/19
f 27/80/20 28/79/20 26/78/20 25/77/20
f 32/84/21 27/83/21 25/82/21 30/81/21
f 31/88/22 32/87/22 30/86/22 29/85/22
f 30/92/23 25/91/23 26/90/23 29/89/23
f 31/96/24 28/95/24 27/94/24 32/93/24
o Cap
v 0.125 1.9375 0.125
v 0.125 1.9375 -0.125
v 0.125 1.875 0.125
v 0.125 1.875 -0.125
v -0.125 1.9375 -0.125
v -0.125 1.9375 0.125
v -0.125 1.875 -0.125
v -0.125 1.875 0.125
vt 0 1
vt 0.25 1
vt 0.25 0.9375
vt 0 0.9375
vt 0 1
vt 0.25 1
vt 0.25 0.9375
vt 0 0.9375
vt 0 1
vt 0.25 1
vt 0.25 0.9375
vt 0 0.9375
vt 0 1
vt 0.25 1
vt 0.25 0.9375
vt 0 0.9375
vt 0.4375 0.375
vt 0.6875 0.375
vt 0.6875 0.125
vt 0.4375 0.125
vt 0.4375 0.375
vt 0.6875 0.375
vt 0.6875 0.125
vt 0.4375 0.125
vn 0 0 -1
vn 1 0 0
vn 0 0 1
vn -1 0 0
vn 0 1 0
vn 0 -1 0
usemtl m_e7cf5335-1e4a-94cc-b05f-97003a1188b4
f 36/100/25 39/99/25 37/98/25 34/97/25
f 35/104/26 36/103/26 34/102/26 33/101/26
f 40/108/27 35/107/27 33/106/27 38/105/27
f 39/112/28 40/111/28 38/110/28 37/109/28
f 38/116/29 33/115/29 34/114/29 37/113/29
f 39/120/30 36/119/30 35/118/30 40/117/30
o Grip Deco
v 0.10624999999999996 0.3125 0.10624999999999996
v 0.10624999999999996 0.3125 -0.10624999999999996
v 0.10624999999999996 0.25 0.10624999999999996
v 0.10624999999999996 0.25 -0.10624999999999996
v -0.10624999999999996 0.3125 -0.10624999999999996
v -0.10624999999999996 0.3125 0.10624999999999996
v -0.10624999999999996 0.25 -0.10624999999999996
v -0.10624999999999996 0.25 0.10624999999999996
vt 0.25 0.9375
vt 0.4375 0.9375
vt 0.4375 0.875
vt 0.25 0.875
vt 0.25 0.9375
vt 0.4375 0.9375
vt 0.4375 0.875
vt 0.25 0.875
vt 0.25 0.9375
vt 0.4375 0.9375
vt 0.4375 0.875
vt 0.25 0.875
vt 0.25 0.9375
vt 0.4375 0.9375
vt 0.4375 0.875
vt 0.25 0.875
vn 0 0 -1
vn 1 0 0
vn 0 0 1
vn -1 0 0
usemtl m_d75e9b85-c94c-10dd-423d-bc94d5106052
f 44/124/31 47/123/31 45/122/31 42/121/31
f 43/128/32 44/127/32 42/126/32 41/125/32
f 48/132/33 43/131/33 41/130/33 46/129/33
f 47/136/34 48/135/34 46/134/34 45/133/34
o Grip Deco
v 0.10624999999999996 -0.1875 0.10624999999999996
v 0.10624999999999996 -0.1875 -0.10624999999999996
v 0.10624999999999996 -0.25 0.10624999999999996
v 0.10624999999999996 -0.25 -0.10624999999999996
v -0.10624999999999996 -0.1875 -0.10624999999999996
v -0.10624999999999996 -0.1875 0.10624999999999996
v -0.10624999999999996 -0.25 -0.10624999999999996
v -0.10624999999999996 -0.25 0.10624999999999996
vt 0.25 0.9375
vt 0.4375 0.9375
vt 0.4375 0.875
vt 0.25 0.875
vt 0.25 0.9375
vt 0.4375 0.9375
vt 0.4375 0.875
vt 0.25 0.875
vt 0.25 0.9375
vt 0.4375 0.9375
vt 0.4375 0.875
vt 0.25 0.875
vt 0.25 0.9375
vt 0.4375 0.9375
vt 0.4375 0.875
vt 0.25 0.875
vn 0 0 -1
vn 1 0 0
vn 0 0 1
vn -1 0 0
usemtl m_d75e9b85-c94c-10dd-423d-bc94d5106052
f 52/140/35 55/139/35 53/138/35 50/137/35
f 51/144/36 52/143/36 50/142/36 49/141/36
f 56/148/37 51/147/37 49/146/37 54/145/37
f 55/152/38 56/151/38 54/150/38 53/149/38
o Square North
v 0.03125 1.5441941738241591 -0.14330582617584078
v 0.03125 1.5883883476483185 -0.1875
v 0.03125 1.5 -0.1875
v 0.03125 1.5441941738241591 -0.23169417382415922
v -0.03125 1.5883883476483185 -0.1875
v -0.03125 1.5441941738241591 -0.14330582617584078
v -0.03125 1.5441941738241591 -0.23169417382415922
v -0.03125 1.5 -0.1875
vt 0.125 0.875
vt 0.1875 0.875
vt 0.1875 0.8125
vt 0.125 0.8125
vt 0.375 0.625
vt 0.4375 0.625
vt 0.4375 0.5625
vt 0.375 0.5625
vt 0.5 0.625
vt 0.5625 0.625
vt 0.5625 0.5625
vt 0.5 0.5625
vt 0.6875 0.4375
vt 0.75 0.4375
vt 0.75 0.375
vt 0.6875 0.375
vt 0.5625 0.6875
vt 0.625 0.6875
vt 0.625 0.625
vt 0.5625 0.625
vt 0.3125 0.5625
vt 0.375 0.5625
vt 0.375 0.5
vt 0.3125 0.5
vn 0 0.7071067811865476 -0.7071067811865475
vn 1 0 0
vn 0 -0.7071067811865476 0.7071067811865475
vn -1 0 0
vn 0 0.7071067811865475 0.7071067811865476
vn 0 -0.7071067811865475 -0.7071067811865476
usemtl m_4e2a9615-b712-abf8-6d7f-540c9bd8e415
f 60/156/39 63/155/39 61/154/39 58/153/39
f 59/160/40 60/159/40 58/158/40 57/157/40
f 64/164/41 59/163/41 57/162/41 62/161/41
f 63/168/42 64/167/42 62/166/42 61/165/42
f 62/172/43 57/171/43 58/170/43 61/169/43
f 63/176/44 60/175/44 59/174/44 64/173/44
o Square South
v 0.03125 1.5441941738241591 0.23169417382415922
v 0.03125 1.5883883476483185 0.1875
v 0.03125 1.5 0.1875
v 0.03125 1.5441941738241591 0.14330582617584078
v -0.03125 1.5883883476483185 0.1875
v -0.03125 1.5441941738241591 0.23169417382415922
v -0.03125 1.5441941738241591 0.14330582617584078
v -0.03125 1.5 0.1875
vt 0.125 0.875
vt 0.1875 0.875
vt 0.1875 0.8125
vt 0.125 0.8125
vt 0.125 0.875
vt 0.1875 0.875
vt 0.1875 0.8125
vt 0.125 0.8125
vt 0.125 0.875
vt 0.1875 0.875
vt 0.1875 0.8125
vt 0.125 0.8125
vt 0.125 0.875
vt 0.1875 0.875
vt 0.1875 0.8125
vt 0.125 0.8125
vt 0.125 0.875
vt 0.1875 0.875
vt 0.1875 0.8125
vt 0.125 0.8125
vt 0.125 0.875
vt 0.1875 0.875
vt 0.1875 0.8125
vt 0.125 0.8125
vn 0 0.7071067811865476 -0.7071067811865475
vn 1 0 0
vn 0 -0.7071067811865476 0.7071067811865475
vn -1 0 0
vn 0 0.7071067811865475 0.7071067811865476
vn 0 -0.7071067811865475 -0.7071067811865476
usemtl m_4e2a9615-b712-abf8-6d7f-540c9bd8e415
f 68/180/45 71/179/45 69/178/45 66/177/45
f 67/184/46 68/183/46 66/182/46 65/181/46
f 72/188/47 67/187/47 65/186/47 70/185/47
f 71/192/48 72/191/48 70/190/48 69/189/48
f 70/196/49 65/195/49 66/194/49 69/193/49
f 71/200/50 68/199/50 67/198/50 72/197/50
o Square West
v 0.17991747852752232 1.5883883476483185 0.03125
v 0.17991747852752232 1.5883883476483185 -0.03125
v 0.22411165235168157 1.5441941738241591 0.03125
v 0.22411165235168157 1.5441941738241591 -0.03125
v 0.13572330470336313 1.5441941738241591 -0.03125
v 0.13572330470336313 1.5441941738241591 0.03125
v 0.17991747852752232 1.5 -0.03125
v 0.17991747852752232 1.5 0.03125
vt 0.125 0.875
vt 0.1875 0.875
vt 0.1875 0.8125
vt 0.125 0.8125
vt 0.125 0.875
vt 0.1875 0.875
vt 0.1875 0.8125
vt 0.125 0.8125
vt 0.125 0.875
vt 0.1875 0.875
vt 0.1875 0.8125
vt 0.125 0.8125
vt 0.125 0.875
vt 0.1875 0.875
vt 0.1875 0.8125
vt 0.125 0.8125
vt 0.125 0.875
vt 0.1875 0.875
vt 0.1875 0.8125
vt 0.125 0.8125
vt 0.125 0.875
vt 0.1875 0.875
vt 0.1875 0.8125
vt 0.125 0.8125
vn 0 0 -1
vn 0.7071067811865475 0.7071067811865476 0
vn 0 0 1
vn -0.7071067811865475 -0.7071067811865476 0
vn -0.7071067811865476 0.7071067811865475 0
vn 0.7071067811865476 -0.7071067811865475 0
usemtl m_4e2a9615-b712-abf8-6d7f-540c9bd8e415
f 76/204/51 79/203/51 77/202/51 74/201/51
f 75/208/52 76/207/52 74/206/52 73/205/52
f 80/212/53 75/211/53 73/210/53 78/209/53
f 79/216/54 80/215/54 78/214/54 77/213/54
f 78/220/55 73/219/55 74/218/55 77/217/55
f 79/224/56 76/223/56 75/222/56 80/221/56
o Square East
v -0.17363591206575146 1.5883883476483185 0.03125
v -0.17363591206575146 1.5883883476483185 -0.03125
v -0.12944173824159222 1.5441941738241591 0.03125
v -0.12944173824159222 1.5441941738241591 -0.03125
v -0.2178300858899107 1.5441941738241591 -0.03125
v -0.2178300858899107 1.5441941738241591 0.03125
v -0.1736359120657514 1.5 -0.03125
v -0.1736359120657514 1.5 0.03125
vt 0.125 0.875
vt 0.1875 0.875
vt 0.1875 0.8125
vt 0.125 0.8125
vt 0.125 0.875
vt 0.1875 0.875
vt 0.1875 0.8125
vt 0.125 0.8125
vt 0.125 0.875
vt 0.1875 0.875
vt 0.1875 0.8125
vt 0.125 0.8125
vt 0.125 0.875
vt 0.1875 0.875
vt 0.1875 0.8125
vt 0.125 0.8125
vt 0.125 0.875
vt 0.1875 0.875
vt 0.1875 0.8125
vt 0.125 0.8125
vt 0.125 0.875
vt 0.1875 0.875
vt 0.1875 0.8125
vt 0.125 0.8125
vn 0 0 -1
vn 0.7071067811865475 0.7071067811865476 0
vn 0 0 1
vn -0.7071067811865475 -0.7071067811865476 0
vn -0.7071067811865476 0.7071067811865475 0
vn 0.7071067811865476 -0.7071067811865475 0
usemtl m_4e2a9615-b712-abf8-6d7f-540c9bd8e415
f 84/228/57 87/227/57 85/226/57 82/225/57
f 83/232/58 84/231/58 82/230/58 81/229/58
f 88/236/59 83/235/59 81/234/59 86/233/59
f 87/240/60 88/239/60 86/238/60 85/237/60
f 86/244/61 81/243/61 82/242/61 85/241/61
f 87/248/62 84/247/62 83/246/62 88/245/62
o Rod Core
v 0.0625 1.625 0.0625
v 0.0625 1.625 -0.0625
v 0.0625 1.125 0.0625
v 0.0625 1.125 -0.0625
v -0.0625 1.625 -0.0625
v -0.0625 1.625 0.0625
v -0.0625 1.125 -0.0625
v -0.0625 1.125 0.0625
vt 0.625 0.8125
vt 0.75 0.8125
vt 0.75 0.3125
vt 0.625 0.3125
vt 0.8125 0.625
vt 0.9375 0.625
vt 0.9375 0.125
vt 0.8125 0.125
vt 0.6875 0.625
vt 0.8125 0.625
vt 0.8125 0.125
vt 0.6875 0.125
vt 0.6875 0.75
vt 0.8125 0.75
vt 0.8125 0.25
vt 0.6875 0.25
vt 0.875 1
vt 1 1
vt 1 0.875
vt 0.875 0.875
vt 0.875 0.625
vt 1 0.625
vt 1 0.5
vt 0.875 0.5
vn 0 0 -1
vn 1 0 0
vn 0 0 1
vn -1 0 0
vn 0 1 0
vn 0 -1 0
usemtl m_f5436da6-1d35-6db8-f3ae-84a5427ca8e9
f 92/252/63 95/251/63 93/250/63 90/249/63
f 91/256/64 92/255/64 90/254/64 89/253/64
f 96/260/65 91/259/65 89/258/65 94/257/65
f 95/264/66 96/263/66 94/262/66 93/261/66
f 94/268/67 89/267/67 90/266/67 93/265/67
f 95/272/68 92/271/68 91/270/68 96/269/68
o Cube
v 0.09375 1.65625 0.09375
v 0.09375 1.65625 -0.09375
v 0.09375 1.09375 0.09375
v 0.09375 1.09375 -0.09375
v -0.09375 1.65625 -0.09375
v -0.09375 1.65625 0.09375
v -0.09375 1.09375 -0.09375
v -0.09375 1.09375 0.09375
vt 0.625 0.6875
vt 0.8125 0.6875
vt 0.8125 0.1875
vt 0.625 0.1875
vt 0.3125 0.8125
vt 0.5 0.8125
vt 0.5 0.25
vt 0.3125 0.25
vt 0.4375 0.625
vt 0.625 0.625
vt 0.625 0.125
vt 0.4375 0.125
vt 0.4375 0.75
vt 0.25 0.75
vt 0.25 0.25
vt 0.4375 0.25
vt 0.4375 0.6875
vt 0.625 0.6875
vt 0.625 0.5
vt 0.4375 0.5
vt 0.5625 0.8125
vt 0.75 0.8125
vt 0.75 0.625
vt 0.5625 0.625
vn 0 0 -1
vn 1 0 0
vn 0 0 1
vn -1 0 0
vn 0 1 0
vn 0 -1 0
usemtl m_4e2a9615-b712-abf8-6d7f-540c9bd8e415
f 100/276/69 103/275/69 101/274/69 98/273/69
f 99/280/70 100/279/70 98/278/70 97/277/70
f 104/284/71 99/283/71 97/282/71 102/281/71
f 103/288/72 104/287/72 102/286/72 101/285/72
f 102/292/73 97/291/73 98/290/73 101/289/73
f 103/296/74 100/295/74 99/294/74 104/293/74