# Made in Blockbench 5.1.4
mtllib 扳手.mtl

o handle
v 0.03749999999999998 0.4375 0.03125
v 0.03749999999999998 0.4375 -0.03125
v 0.03749999999999998 0 0.03125
v 0.03749999999999998 0 -0.03125
v -0.025000000000000022 0.4375 -0.03125
v -0.025000000000000022 0.4375 0.03125
v -0.025000000000000022 0 -0.03125
v -0.025000000000000022 0 0.03125
vt 0.125 1
vt 0.25 1
vt 0.25 0.125
vt 0.125 0.125
vt 0.125 1
vt 0.25 1
vt 0.25 0.125
vt 0.125 0.125
vt 0.125 1
vt 0.25 1
vt 0.25 0.125
vt 0.125 0.125
vt 0.125 1
vt 0.25 1
vt 0.25 0.125
vt 0.125 0.125
vt 0.125 0.25
vt 0.25 0.25
vt 0.25 0.125
vt 0.125 0.125
vn 0 0 -1
vn 1 0 0
vn 0 0 1
vn -1 0 0
vn 0 -1 0
usemtl m_9a5c2432-cf84-f1fa-eaa9-5484ad6ef01a
f 4/4/1 7/3/1 5/2/1 2/1/1
f 3/8/2 4/7/2 2/6/2 1/5/2
f 8/12/3 3/11/3 1/10/3 6/9/3
f 7/16/4 8/15/4 6/14/4 5/13/4
f 7/20/5 4/19/5 3/18/5 8/17/5
o handle
v 0.03125 0.90625 0.03125
v 0.03125 0.90625 -0.03125
v 0.03125 0.53125 0.03125
v 0.03125 0.53125 -0.03125
v -0.09375 0.90625 -0.03125
v -0.09375 0.90625 0.03125
v -0.09375 0.53125 -0.03125
v -0.09375 0.53125 0.03125
vt 0.75 1
vt 1 1
vt 1 0.25
vt 0.75 0.25
vt 0.875 1
vt 1 1
vt 1 0.25
vt 0.875 0.25
vt 1 1
vt 0.75 1
vt 0.75 0.25
vt 1 0.25
vt 1 1
vt 0.875 1
vt 0.875 0.25
vt 1 0.25
vt 0.3125 0.5
vt 0.3125 0.5625
vt 0.4375 0.5625
vt 0.4375 0.5
vt 0 1
vt 0.0625 1
vt 0.0625 0.9375
vt 0 0.9375
vn 0 0 -1
vn 1 0 0
vn 0 0 1
vn -1 0 0
vn 0 1 0
vn 0 -1 0
usemtl m_9a5c2432-cf84-f1fa-eaa9-5484ad6ef01a
f 12/24/6 15/23/6 13/22/6 10/21/6
f 11/28/7 12/27/7 10/26/7 9/25/7
f 16/32/8 11/31/8 9/30/8 14/29/8
f 15/36/9 16/35/9 14/34/9 13/33/9
f 14/40/10 9/39/10 10/38/10 13/37/10
f 15/44/11 12/43/11 11/42/11 16/41/11
o axle
v 0.062499700311063 0.75 0.04419417382415922
v 0.10669387413522222 0.75 6.938893903907228e-18
v 0.062499700311063 0.3125 0.04419417382415922
v 0.10669387413522222 0.3125 6.938893903907228e-18
v 0.06249970031106301 0.75 -0.044194173824159216
v 0.018305526486903787 0.75 -8.673617379884035e-19
v 0.06249970031106301 0.3125 -0.044194173824159216
v 0.018305526486903787 0.3125 -8.673617379884035e-19
vt 0 1
vt 0.125 1
vt 0.125 0.125
vt 0 0.125
vt 0 0.875
vt 0.125 0.875
vt 0.125 0
vt 0 0
vt 0 1
vt 0.125 1
vt 0.125 0.125
vt 0 0.125
vt 0 0.875
vt 0.125 0.875
vt 0.125 0
vt 0 0
vt 0 1
vt 0.0625 1
vt 0.0625 0.9375
vt 0 0.9375
vt 0 1
vt 0.0625 1
vt 0.0625 0.9375
vt 0 0.9375
vn 0.7071067811865476 0 -0.7071067811865475
vn 0.7071067811865475 0 0.7071067811865476
vn -0.7071067811865476 0 0.7071067811865475
vn -0.7071067811865475 0 -0.7071067811865476
vn 0 1 0
vn 0 -1 0
usemtl m_9a5c2432-cf84-f1fa-eaa9-5484ad6ef01a
f 20/48/12 23/47/12 21/46/12 18/45/12
f 19/52/13 20/51/13 18/50/13 17/49/13
f 24/56/14 19/55/14 17/54/14 22/53/14
f 23/60/15 24/59/15 22/58/15 21/57/15
f 22/64/16 17/63/16 18/62/16 21/61/16
f 23/68/17 20/67/17 19/66/17 24/65/17
o top thing
v 0.1875 0.9375 0.0625
v 0.1875 0.9375 -0.0625
v 0.1875 0.875 0.0625
v 0.1875 0.875 -0.0625
v -0.0625 0.9375 -0.0625
v -0.0625 0.9375 0.0625
v -0.0625 0.875 -0.0625
v -0.0625 0.875 0.0625
vt 0.25 0.5
vt 0.75 0.5
vt 0.75 0.375
vt 0.25 0.375
vt 0.25 1
vt 0.5 1
vt 0.5 0.875
vt 0.25 0.875
vt 0.75 0.5
vt 0.25 0.5
vt 0.25 0.375
vt 0.75 0.375
vt 0.5 0.5
vt 0.25 0.5
vt 0.25 0.625
vt 0.5 0.625
vt 0.25 0.5
vt 0.25 1
vt 0.5 1
vt 0.5 0.5
vt 0.5 0.5
vt 0.5 1
vt 0.75 1
vt 0.75 0.5
vn 0 0 -1
vn 1 0 0
vn 0 0 1
vn -1 0 0
vn 0 1 0
vn 0 -1 0
usemtl m_9a5c2432-cf84-f1fa-eaa9-5484ad6ef01a
f 28/72/18 31/71/18 29/70/18 26/69/18
f 27/76/19 28/75/19 26/74/19 25/73/19
f 32/80/20 27/79/20 25/78/20 30/77/20
f 31/84/21 32/83/21 30/82/21 29/81/21
f 30/88/22 25/87/22 26/86/22 29/85/22
f 31/92/23 28/91/23 27/90/23 32/89/23
o bottom thing
v 0.1875 0.8125 0.0625
v 0.1875 0.8125 -0.0625
v 0.1875 0.75 0.0625
v 0.1875 0.75 -0.0625
v 0 0.8125 -0.0625
v 0 0.8125 0.0625
v 0 0.75 -0.0625
v 0 0.75 0.0625
vt 0.25 0.375
vt 0.625 0.375
vt 0.625 0.5
vt 0.25 0.5
vt 0.5 0.875
vt 0.25 0.875
vt 0.25 1
vt 0.5 1
vt 0.625 0.375
vt 0.25 0.375
vt 0.25 0.5
vt 0.625 0.5
vt 0.25 0.625
vt 0.5 0.625
vt 0.5 0.5
vt 0.25 0.5
vt 0.5 0.625
vt 0.5 1
vt 0.75 1
vt 0.75 0.625
vt 0.25 0.625
vt 0.25 1
vt 0.5 1
vt 0.5 0.625
vn 0 0 -1
vn 1 0 0
vn 0 0 1
vn -1 0 0
vn 0 1 0
vn 0 -1 0
usemtl m_9a5c2432-cf84-f1fa-eaa9-5484ad6ef01a
f 36/96/24 39/95/24 37/94/24 34/93/24
f 35/100/25 36/99/25 34/98/25 33/97/25
f 40/104/26 35/103/26 33/102/26 38/101/26
f 39/108/27 40/107/27 38/106/27 37/105/27
f 38/112/28 33/111/28 34/110/28 37/109/28
f 39/116/29 36/115/29 35/114/29 40/113/29
o gear case top
v 0.15000000000000002 0.5625 0.0625
v 0.15000000000000002 0.5625 -0.0625
v 0.15000000000000002 0.5 0.0625
v 0.15000000000000002 0.5 -0.0625
v -0.09999999999999998 0.5625 -0.0625
v -0.09999999999999998 0.5625 0.0625
v -0.09999999999999998 0.5 -0.0625
v -0.09999999999999998 0.5 0.0625
vt 0.25 0.375
vt 0.75 0.375
vt 0.75 0.25
vt 0.25 0.25
vt 0.25 0.125
vt 0.25 0.375
vt 0.375 0.375
vt 0.375 0.125
vt 0.75 0.375
vt 0.25 0.375
vt 0.25 0.25
vt 0.75 0.25
vt 0.25 0.125
vt 0.25 0.375
vt 0.375 0.375
vt 0.375 0.125
vt 0.75 0.125
vt 0.25 0.125
vt 0.25 0.375
vt 0.75 0.375
vt 0.75 0.1875
vt 0.25 0.1875
vt 0.25 0.375
vt 0.75 0.375
vn 0 0 -1
vn 1 0 0
vn 0 0 1
vn -1 0 0
vn 0 1 0
vn 0 -1 0
usemtl m_9a5c2432-cf84-f1fa-eaa9-5484ad6ef01a
f 44/120/30 47/119/30 45/118/30 42/117/30
f 43/124/31 44/123/31 42/122/31 41/121/31
f 48/128/32 43/127/32 41/126/32 46/125/32
f 47/132/33 48/131/33 46/130/33 45/129/33
f 46/136/34 41/135/34 42/134/34 45/133/34
f 47/140/35 44/139/35 43/138/35 48/137/35
o gear case
v 0.11963834764831843 0.4375 -6.938893903907228e-18
v 0.031249999999999993 0.4375 -0.08838834764831843
v 0.11963834764831843 0.375 -6.938893903907228e-18
v 0.031249999999999993 0.375 -0.08838834764831843
v -0.05713834764831843 0.4375 6.938893903907228e-18
v 0.03125000000000001 0.4375 0.08838834764831843
v -0.05713834764831843 0.375 6.938893903907228e-18
v 0.03125000000000001 0.375 0.08838834764831843
vt 0.75 0.25
vt 1 0.25
vt 1 0.125
vt 0.75 0.125
vt 0.75 0.25
vt 1 0.25
vt 1 0.125
vt 0.75 0.125
vt 0.75 0.25
vt 1 0.25
vt 1 0.125
vt 0.75 0.125
vt 0.75 0.25
vt 1 0.25
vt 1 0.125
vt 0.75 0.125
vt 0.75 0.25
vt 1 0.25
vt 1 0
vt 0.75 0
vt 0.75 0.25
vt 1 0.25
vt 1 0
vt 0.75 0
vn -0.7071067811865476 0 -0.7071067811865475
vn 0.7071067811865475 0 -0.7071067811865476
vn 0.7071067811865476 0 0.7071067811865475
vn -0.7071067811865475 0 0.7071067811865476
vn 0 1 0
vn 0 -1 0
usemtl m_9a5c2432-cf84-f1fa-eaa9-5484ad6ef01a
f 52/144/36 55/143/36 53/142/36 50/141/36
f 51/148/37 52/147/37 50/146/37 49/145/37
f 56/152/38 51/151/38 49/150/38 54/149/38
f 55/156/39 56/155/39 54/154/39 53/153/39
f 54/160/40 49/159/40 50/158/40 53/157/40
f 55/164/41 52/163/41 51/162/41 56/161/41
o Cog
v 0.09375 0.5 0.125
v 0.09375 0.5 -0.125
v 0.09375 0.4375 0.125
v 0.09375 0.4375 -0.125
v 0.03125 0.5 -0.125
v 0.03125 0.5 0.125
v 0.03125 0.4375 -0.125
v 0.03125 0.4375 0.125
vt 0.625 0.125
vt 0.75 0.125
vt 0.75 0
vt 0.625 0
vt 0.625 0
vt 0.125 0
vt 0.125 0.125
vt 0.625 0.125
vt 0.625 0.125
vt 0.75 0.125
vt 0.75 0
vt 0.625 0
vt 0.625 0
vt 0.125 0
vt 0.125 0.125
vt 0.625 0.125
vt 0.125 0
vt 0.125 0.125
vt 0.625 0.125
vt 0.625 0
vt 0.125 0
vt 0.125 0.125
vt 0.625 0.125
vt 0.625 0
vn 0 0 -1
vn 1 0 0
vn 0 0 1
vn -1 0 0
vn 0 1 0
vn 0 -1 0
usemtl m_9a5c2432-cf84-f1fa-eaa9-5484ad6ef01a
f 60/168/42 63/167/42 61/166/42 58/165/42
f 59/172/43 60/171/43 58/170/43 57/169/43
f 64/176/44 59/175/44 57/174/44 62/173/44
f 63/180/45 64/179/45 62/178/45 61/177/45
f 62/184/46 57/183/46 58/182/46 61/181/46
f 63/188/47 60/187/47 59/186/47 64/185/47
o Cog
v 0.17298543456039805 0.5 0.06629126073623882
v -0.0037912607362388384 0.5 -0.11048543456039804
v 0.17298543456039805 0.4375 0.06629126073623882
v -0.0037912607362388384 0.4375 -0.11048543456039804
v -0.047985434560398055 0.5 -0.06629126073623882
v 0.12879126073623884 0.5 0.11048543456039804
v -0.047985434560398055 0.4375 -0.06629126073623882
v 0.12879126073623884 0.4375 0.11048543456039804
vt 0.625 0.125
vt 0.75 0.125
vt 0.75 0
vt 0.625 0
vt 0.625 0
vt 0.125 0
vt 0.125 0.125
vt 0.625 0.125
vt 0.625 0.125
vt 0.75 0.125
vt 0.75 0
vt 0.625 0
vt 0.625 0
vt 0.125 0
vt 0.125 0.125
vt 0.625 0.125
vt 0.125 0
vt 0.125 0.125
vt 0.625 0.125
vt 0.625 0
vt 0.125 0
vt 0.125 0.125
vt 0.625 0.125
vt 0.625 0
vn -0.7071067811865476 0 -0.7071067811865475
vn 0.7071067811865475 0 -0.7071067811865476
vn 0.7071067811865476 0 0.7071067811865475
vn -0.7071067811865475 0 0.7071067811865476
vn 0 1 0
vn 0 -1 0
usemtl m_9a5c2432-cf84-f1fa-eaa9-5484ad6ef01a
f 68/192/48 71/191/48 69/190/48 66/189/48
f 67/196/49 68/195/49 66/194/49 65/193/49
f 72/200/50 67/199/50 65/198/50 70/197/50
f 71/204/51 72/203/51 70/202/51 69/201/51
f 70/208/52 65/207/52 66/206/52 69/205/52
f 71/212/53 68/211/53 67/210/53 72/209/53
o Cog
v 0.1875 0.5 0.03125
v 0.1875 0.5 -0.03125
v 0.1875 0.4375 0.03125
v 0.1875 0.4375 -0.03125
v -0.0625 0.5 -0.03125
v -0.0625 0.5 0.03125
v -0.0625 0.4375 -0.03125
v -0.0625 0.4375 0.03125
vt 0.625 0
vt 0.125 0
vt 0.125 0.125
vt 0.625 0.125
vt 0.625 0.125
vt 0.75 0.125
vt 0.75 0
vt 0.625 0
vt 0.625 0
vt 0.125 0
vt 0.125 0.125
vt 0.625 0.125
vt 0.625 0.125
vt 0.75 0.125
vt 0.75 0
vt 0.625 0
vt 0.125 0.125
vt 0.625 0.125
vt 0.625 0
vt 0.125 0
vt 0.625 0
vt 0.125 0
vt 0.125 0.125
vt 0.625 0.125
vn 0 0 -1
vn 1 0 0
vn 0 0 1
vn -1 0 0
vn 0 1 0
vn 0 -1 0
usemtl m_9a5c2432-cf84-f1fa-eaa9-5484ad6ef01a
f 76/216/54 79/215/54 77/214/54 74/213/54
f 75/220/55 76/219/55 74/218/55 73/217/55
f 80/224/56 75/223/56 73/222/56 78/221/56
f 79/228/57 80/227/57 78/226/57 77/225/57
f 78/232/58 73/231/58 74/230/58 77/229/58
f 79/236/59 76/235/59 75/234/59 80/233/59
o Cog
v 0.17298543456039805 0.5 -0.06629126073623884
v 0.1287912607362388 0.5 -0.11048543456039805
v 0.17298543456039805 0.4375 -0.06629126073623884
v 0.1287912607362388 0.4375 -0.11048543456039805
v -0.04798543456039804 0.5 0.06629126073623884
v -0.0037912607362388245 0.5 0.11048543456039805
v -0.04798543456039804 0.4375 0.06629126073623884
v -0.0037912607362388245 0.4375 0.11048543456039805
vt 0.625 0
vt 0.125 0
vt 0.125 0.125
vt 0.625 0.125
vt 0.625 0.125
vt 0.75 0.125
vt 0.75 0
vt 0.625 0
vt 0.625 0
vt 0.125 0
vt 0.125 0.125
vt 0.625 0.125
vt 0.625 0.125
vt 0.75 0.125
vt 0.75 0
vt 0.625 0
vt 0.125 0.125
vt 0.625 0.125
vt 0.625 0
vt 0.125 0
vt 0.625 0
vt 0.125 0
vt 0.125 0.125
vt 0.625 0.125
vn -0.7071067811865476 0 -0.7071067811865475
vn 0.7071067811865475 0 -0.7071067811865476
vn 0.7071067811865476 0 0.7071067811865475
vn -0.7071067811865475 0 0.7071067811865476
vn 0 1 0
vn 0 -1 0
usemtl m_9a5c2432-cf84-f1fa-eaa9-5484ad6ef01a
f 84/240/60 87/239/60 85/238/60 82/237/60
f 83/244/61 84/243/61 82/242/61 81/241/61
f 88/248/62 83/247/62 81/246/62 86/245/62
f 87/252/63 88/251/63 86/250/63 85/249/63
f 86/256/64 81/255/64 82/254/64 85/253/64
f 87/260/65 84/259/65 83/258/65 88/257/65