# Made in Blockbench 5.1.4
mtllib 纸棍.mtl

o cube
v 0.125 1.4375 0.125
v 0.125 1.4375 -0.125
v 0.125 0.5 0.125
v 0.125 0.5 -0.125
v -0.125 1.4375 -0.125
v -0.125 1.4375 0.125
v -0.125 0.5 -0.125
v -0.125 0.5 0.125
vt 0.3125 0.9375
vt 0.5625 0.9375
vt 0.5625 0
vt 0.3125 0
vt 0 0.9375
vt 0.25 0.9375
vt 0.25 0
vt 0 0
vt 0.3125 0.9375
vt 0.5625 0.9375
vt 0.5625 0
vt 0.3125 0
vt 0 0.9375
vt 0.25 0.9375
vt 0.25 0
vt 0 0
vn 0 0 -1
vn 1 0 0
vn 0 0 1
vn -1 0 0
usemtl m_89877b95-bda1-edaa-dd61-8bb84b5f36ce
f 4/4/1 7/3/1 5/2/1 2/1/1
f 3/8/2 4/7/2 2/6/2 1/5/2
f 8/12/3 3/11/3 1/10/3 6/9/3
f 7/16/4 8/15/4 6/14/4 5/13/4
o cube
v 0.125 0.5 0.125
v 0.125 0.5 -0.125
v 0.125 -0.4375 0.125
v 0.125 -0.4375 -0.125
v -0.125 0.5 -0.125
v -0.125 0.5 0.125
v -0.125 -0.4375 -0.125
v -0.125 -0.4375 0.125
vt 0.3125 1
vt 0.5625 1
vt 0.5625 0.0625
vt 0.3125 0.0625
vt 0 1
vt 0.25 1
vt 0.25 0.0625
vt 0 0.0625
vt 0.3125 1
vt 0.5625 1
vt 0.5625 0.0625
vt 0.3125 0.0625
vt 0 1
vt 0.25 1
vt 0.25 0.0625
vt 0 0.0625
vn 0 0 -1
vn 1 0 0
vn 0 0 1
vn -1 0 0
usemtl m_89877b95-bda1-edaa-dd61-8bb84b5f36ce
f 12/20/5 15/19/5 13/18/5 10/17/5
f 11/24/6 12/23/6 10/22/6 9/21/6
f 16/28/7 11/27/7 9/26/7 14/25/7
f 15/32/8 16/31/8 14/30/8 13/29/8
o cube
v 0.125 1.5 0.125
v 0.125 1.5 -0.125
v 0.125 1.4375 0.125
v 0.125 1.4375 -0.125
v -0.125 1.5 -0.125
v -0.125 1.5 0.125
v -0.125 1.4375 -0.125
v -0.125 1.4375 0.125
vt 0.625 0.5625
vt 0.875 0.5625
vt 0.875 0.5
vt 0.625 0.5
vt 0.625 0.6875
vt 0.875 0.6875
vt 0.875 0.625
vt 0.625 0.625
vt 0.625 0.5625
vt 0.875 0.5625
vt 0.875 0.5
vt 0.625 0.5
vt 0.625 0.6875
vt 0.875 0.6875
vt 0.875 0.625
vt 0.625 0.625
vt 0.625 1
vt 0.875 1
vt 0.875 0.75
vt 0.625 0.75
vn 0 0 -1
vn 1 0 0
vn 0 0 1
vn -1 0 0
vn 0 1 0
usemtl m_89877b95-bda1-edaa-dd61-8bb84b5f36ce
f 20/36/9 23/35/9 21/34/9 18/33/9
f 19/40/10 20/39/10 18/38/10 17/37/10
f 24/44/11 19/43/11 17/42/11 22/41/11
f 23/48/12 24/47/12 22/46/12 21/45/12
f 22/52/13 17/51/13 18/50/13 21/49/13
o cube
v 0.125 -0.4375 0.125
v 0.125 -0.4375 -0.125
v 0.125 -0.5 0.125
v 0.125 -0.5 -0.125
v -0.125 -0.4375 -0.125
v -0.125 -0.4375 0.125
v -0.125 -0.5 -0.125
v -0.125 -0.5 0.125
vt 0.625 0.25
vt 0.875 0.25
vt 0.875 0.1875
vt 0.625 0.1875
vt 0.625 0.375
vt 0.875 0.375
vt 0.875 0.3125
vt 0.625 0.3125
vt 0.625 0.25
vt 0.875 0.25
vt 0.875 0.1875
vt 0.625 0.1875
vt 0.625 0.375
vt 0.875 0.375
vt 0.875 0.3125
vt 0.625 0.3125
vt 0.625 1
vt 0.875 1
vt 0.875 0.75
vt 0.625 0.75
vn 0 0 -1
vn 1 0 0
vn 0 0 1
vn -1 0 0
vn 0 -1 0
usemtl m_89877b95-bda1-edaa-dd61-8bb84b5f36ce
f 28/56/14 31/55/14 29/54/14 26/53/14
f 27/60/15 28/59/15 26/58/15 25/57/15
f 32/64/16 27/63/16 25/62/16 30/61/16
f 31/68/17 32/67/17 30/66/17 29/65/17
f 31/72/18 28/71/18 27/70/18 32/69/18